<?xml version="1.0" standalone="no"?>
<!DOCTYPE svg PUBLIC "-//W3C//DTD SVG 1.1//EN"
  "http://www.w3.org/Graphics/SVG/1.1/DTD/svg11.dtd">
<svg width="95.94000244140625mm" height="72mm" viewBox="-47.970001220703125 -36 95.94000244140625 72" xmlns="http://www.w3.org/2000/svg" version="1.1">
	<title>svgOutput</title>
	<desc>made with tinkercad</desc>
<path d="M 24.38599967956543 16.226999282836914 L 24.446311950683594 16.384000778198242 L 24.576000213623047 16.721595764160156 L 24.768999099731445 17.224000930786133 L 25.131000518798828 18.229000091552734 L 25.47100067138672 19.240999221801758 L 25.791000366210938 20.260000228881836 L 25.85489845275879 20.479999542236328 L 26.089000701904297 21.285999298095703 L 26.364999771118164 22.31800079345703 L 26.6200008392334 23.354999542236328 L 26.85300064086914 24.39699935913086 L 26.889074325561523 24.576000213623047 L 27.06399917602539 25.444000244140625 L 27.253000259399414 26.4950008392334 L 27.420000076293945 27.549999237060547 L 27.565000534057617 28.607999801635742 L 27.572420120239258 28.672000885009766 L 27.687999725341797 29.66900062561035 L 27.788000106811523 30.732999801635742 L 27.867000579833984 31.79800033569336 L 27.917957305908203 32.768001556396484 L 27.92300033569336 32.86399841308594 L 27.95599937438965 33.93199920654297 L 27.966999053955078 35 L 0 35 L -5.03000020980835 35 L -5.03000020980835 32.768001556396484 L -5.03000020980835 30 L -10.029999732971191 30 L -10.029999732971191 16.384000778198242 L -10.029999732971191 12 L -12.029999732971191 12 L -12.029999732971191 16.384000778198242 L -12.029999732971191 30 L -13.029999732971191 30 L -13.029999732971191 32.768001556396484 L -13.029999732971191 35 L -23.030000686645508 35 L -23.842382431030273 32.768001556396484 L -24.77280044555664 30.211700439453125 L -24.849842071533203 30 L -25.206403732299805 29.020225524902344 L -26.948877334594727 24.233259201049805 L -29.805757522583008 16.384000778198242 L -31.401395797729492 12 L -32.768001556396484 8.24526596069336 L -35.76901626586914 4.440892164675075e-17 L -38.75064468383789 -8.192000389099121 L -40.241458892822266 -12.288000106811523 L -40.470550537109375 -12.917427062988281 L -40.47100067138672 -12.918999671936035 L -40.46925354003906 -12.91963005065918 L -39.80099868774414 -13.16100025177002 L -38.78900146484375 -13.50100040435791 L -37.77000045776367 -13.821000099182129 L -36.86399841308594 -14.084146499633789 L -36.74399948120117 -14.119000434875488 L -35.71200180053711 -14.395000457763672 L -34.67499923706055 -14.649999618530273 L -33.632999420166016 -14.883000373840332 L -32.768001556396484 -15.057321548461914 L -32.58599853515625 -15.093999862670898 L -31.53499984741211 -15.282999992370605 L -30.479999542236328 -15.449999809265137 L -29.42099952697754 -15.595000267028809 L -28.672000885009766 -15.681830406188965 L -28.360000610351562 -15.718000411987305 L -27.297000885009766 -15.817999839782715 L -26.23200035095215 -15.897000312805176 L -25.165000915527344 -15.95300006866455 L -24.576000213623047 -15.971216201782227 L -24.097999572753906 -15.986000061035156 L -23.030000686645508 -15.996999740600586 L -21.961999893188477 -15.986000061035156 L -20.893999099731445 -15.95300006866455 L -20.479999542236328 -15.931251525878906 L -19.827999114990234 -15.897000312805176 L -18.76300048828125 -15.817999839782715 L -17.698999404907227 -15.718000411987305 L -16.895999908447266 -15.625 L -16.88640022277832 -15.641627311706543 L -16.457763671875 -16.384000778198242 L -16.384000778198242 -16.511754989624023 L -14.736000061035156 -19.365999221801758 L -14.996000289916992 -19.406999588012695 L -16.136999130249023 -19.562999725341797 L -16.384000778198242 -19.591716766357422 L -17.2810001373291 -19.695999145507812 L -18.42799949645996 -19.804000854492188 L -19.57699966430664 -19.888999938964844 L -20.479999542236328 -19.936113357543945 L -20.726999282836914 -19.948999404907227 L -21.878000259399414 -19.985000610351562 L -23.030000686645508 -19.996999740600586 L -24.18199920654297 -19.985000610351562 L -24.576000213623047 -19.97267723083496 L -25.33300018310547 -19.948999404907227 L -26.482999801635742 -19.888999938964844 L -27.631999969482422 -19.804000854492188 L -28.672000885009766 -19.70607566833496 L -28.77899932861328 -19.695999145507812 L -29.92300033569336 -19.562999725341797 L -31.06399917602539 -19.406999588012695 L -32.20199966430664 -19.226999282836914 L -32.768001556396484 -19.125089645385742 L -33.334999084472656 -19.023000717163086 L -34.4640007019043 -18.795000076293945 L -35.5880012512207 -18.54400062561035 L -36.707000732421875 -18.268999099731445 L -36.86399841308594 -18.226964950561523 L -37.81999969482422 -17.97100067138672 L -38.92599868774414 -17.649999618530273 L -40.025001525878906 -17.30500030517578 L -40.959999084472656 -16.990764617919922 L -41.117000579833984 -16.937999725341797 L -41.8390007019043 -16.67799949645996 L -41.84171676635742 -16.685468673706055 L -41.844627380371094 -16.693458557128906 L -41.847347259521484 -16.700929641723633 L -41.8531608581543 -16.71690559387207 L -44.71369934082031 -24.576000213623047 L -46.970001220703125 -30.774999618530273 L -46.05099868774414 -31.106000900268555 L -44.6609992980957 -31.573999404907227 L -43.262001037597656 -32.012001037597656 L -41.854000091552734 -32.42100143432617 L -40.959999084472656 -32.66091537475586 L -40.560970306396484 -32.768001556396484 L -40.4379997253418 -32.80099868774414 L -39.013999938964844 -33.1510009765625 L -37.58399963378906 -33.470001220703125 L -36.14699935913086 -33.7599983215332 L -34.70399856567383 -34.02000045776367 L -33.25600051879883 -34.249000549316406 L -32.768001556396484 -34.315834045410156 L -31.80299949645996 -34.448001861572266 L -30.347000122070312 -34.617000579833984 L -28.886999130249023 -34.755001068115234 L -27.424999237060547 -34.86199951171875 L -25.961000442504883 -34.93899917602539 L -24.496000289916992 -34.98500061035156 L -23.030000686645508 -35 L -21.56399917602539 -34.98500061035156 L -20.099000930786133 -34.93899917602539 L -18.635000228881836 -34.86199951171875 L -17.172000885009766 -34.755001068115234 L -16.384000778198242 -34.68046569824219 L -15.713000297546387 -34.617000579833984 L -14.256999969482422 -34.448001861572266 L -12.803999900817871 -34.249000549316406 L -11.355999946594238 -34.02000045776367 L -9.913000106811523 -33.7599983215332 L -8.47599983215332 -33.470001220703125 L -7.045000076293945 -33.1510009765625 L -5.622000217437744 -32.80099868774414 L -5.4989447593688965 -32.768001556396484 L -4.204999923706055 -32.42100143432617 L -2.7980000972747803 -32.012001037597656 L -1.3990000486373901 -31.573999404907227 L -0.008999999612569809 -31.106000900268555 L 0 -31.10276222229004 L 1.3700000047683716 -30.610000610351562 L 2.739000082015991 -30.083999633789062 L 4.0960001945495605 -29.530000686645508 L 5.441999912261963 -28.947999954223633 L 6.775000095367432 -28.33799934387207 L 8.095000267028809 -27.700000762939453 L 8.192000389099121 -27.65053367614746 L 9.401000022888184 -27.034000396728516 L 10.692999839782715 -26.341999053955078 L 11.970000267028809 -25.621999740600586 L 13.232000350952148 -24.875999450683594 L 13.715570449829102 -24.576000213623047 L 14.477999687194824 -24.10300064086914 L 15.706999778747559 -23.30500030517578 L 16.384000778198242 -22.84455108642578 L 16.920000076293945 -22.479999542236328 L 18.114999771118164 -21.631000518798828 L 19.29199981689453 -20.756999969482422 L 20.450000762939453 -19.858999252319336 L 21.59000015258789 -18.93600082397461 L 22.708999633789062 -17.989999771118164 L 23.80900001525879 -17.020000457763672 L 24.500778198242188 -16.384000778198242 L 24.576000213623047 -16.314844131469727 L 24.88800048828125 -16.027999877929688 L 25.945999145507812 -15.012999534606934 L 26.982999801635742 -13.97599983215332 L 27.99799919128418 -12.918000221252441 L 28.989999771118164 -11.83899974822998 L 29.959999084472656 -10.73900032043457 L 30.9060001373291 -9.619999885559082 L 31.82900047302246 -8.479999542236328 L 32.052337646484375 -8.192000389099121 L 32.72700119018555 -7.322000026702881 L 32.768001556396484 -7.266786098480225 L 33.60100173950195 -6.144999980926514 L 34.45000076293945 -4.949999809265137 L 35.275001525878906 -3.736999988555908 L 36.073001861572266 -2.507999897003174 L 36.84600067138672 -1.2619999647140503 L 37.59199905395508 4.440892164675075e-17 L 38.3120002746582 1.2769999504089355 L 39.00400161743164 2.569000005722046 L 39.66999816894531 3.875999927520752 L 39.77633285522461 4.0960001945495605 L 40.30799865722656 5.196000099182129 L 40.917999267578125 6.5279998779296875 L 40.959999084472656 6.625133991241455 L 41.5 7.874000072479248 L 41.629825592041016 8.192000389099121 L 42.05400085449219 9.230999946594238 L 42.58000183105469 10.600000381469727 L 43.07600021362305 11.979000091552734 L 43.54399871826172 13.369000434875488 L 43.981998443603516 14.767999649047852 L 44.39099884033203 16.176000595092773 L 44.44681930541992 16.384000778198242 L 44.770999908447266 17.591999053955078 L 45.12099838256836 19.014999389648438 L 45.439998626708984 20.445999145507812 L 45.72999954223633 21.882999420166016 L 45.90326690673828 22.844629287719727 L 45.9900016784668 23.326000213623047 L 46.187686920166016 24.576000213623047 L 46.21900177001953 24.77400016784668 L 46.417999267578125 26.226999282836914 L 46.58700180053711 27.683000564575195 L 46.724998474121094 29.14299964904785 L 46.832000732421875 30.604999542236328 L 46.909000396728516 32.069000244140625 L 46.930946350097656 32.768001556396484 L 46.95500183105469 33.534000396728516 L 46.970001220703125 35 L 32.768001556396484 35 L 31.991031646728516 35 L 31.97483253479004 35 L 31.966999053955078 35 L 31.954999923706055 33.847999572753906 L 31.921220779418945 32.768001556396484 L 31.91900062561035 32.696998596191406 L 31.858999252319336 31.547000885009766 L 31.77400016784668 30.398000717163086 L 31.666000366210938 29.250999450683594 L 31.59868621826172 28.672000885009766 L 31.533000946044922 28.10700035095215 L 31.37700080871582 26.965999603271484 L 31.19700050354004 25.827999114990234 L 30.993000030517578 24.69499969482422 L 30.96896743774414 24.576000213623047 L 30.764999389648438 23.56599998474121 L 30.513999938964844 22.44099998474121 L 30.23900032043457 21.322999954223633 L 30.013290405273438 20.479999542236328 L 29.94099998474121 20.209999084472656 L 29.6200008392334 19.104000091552734 L 29.274999618530273 18.0049991607666 L 28.908000946044922 16.913000106811523 L 28.717500686645508 16.384000778198242 L 28.51799964904785 15.829999923706055 L 28.104999542236328 14.753999710083008 L 27.670000076293945 13.687999725341797 L 27.211999893188477 12.630999565124512 L 27.055227279663086 12.288000106811523 L 26.732999801635742 11.583000183105469 L 26.231000900268555 10.545999526977539 L 25.708999633789062 9.520000457763672 L 25.163999557495117 8.505000114440918 L 24.98768424987793 8.192000389099121 L 24.599000930786133 7.501999855041504 L 24.576000213623047 7.463130950927734 L 24.011999130249023 6.510000228881836 L 23.4060001373291 5.531000137329102 L 22.777999877929688 4.565000057220459 L 22.459257125854492 4.0960001945495605 L 22.131000518798828 3.61299991607666 L 21.464000701904297 2.6740000247955322 L 20.777000427246094 1.7489999532699585 L 20.479999542236328 1.3661812543869019 L 20.070999145507812 0.8389999866485596 L 19.905000686645508 0.6340000033378601 L 17.906089782714844 4.0960001945495605 L 17.797513961791992 4.284048080444336 L 17.77604866027832 4.321226596832275 L 17.7450008392334 4.375 L 18.22800064086914 5.025000095367432 L 18.84600067138672 5.894999980926514 L 19.01528549194336 6.144000053405762 L 19.44700050354004 6.7789998054504395 L 20.027999877929688 7.673999786376953 L 20.34918212890625 8.192000389099121 L 20.590999603271484 8.581999778747559 L 21.135000228881836 9.50100040435791 L 21.659000396728516 10.432000160217285 L 22.163999557495117 11.373000144958496 L 22.630149841308594 12.288000106811523 L 22.64900016784668 12.324999809265137 L 23.11400032043457 13.28600025177002 L 23.558000564575195 14.258000373840332 L 23.591747283935547 14.336000442504883 L 23.98200035095215 15.23799991607666 L 24.38599967956543 16.226999282836914 M 34.98099899291992 16.150999069213867 L 35.05401611328125 16.384000778198242 L 35.362998962402344 17.3700008392334 L 35.720001220703125 18.597000122070312 L 36.04999923706055 19.83099937438965 L 36.209632873535156 20.479999542236328 L 36.35499954223633 21.070999145507812 L 36.63399887084961 22.31800079345703 L 36.86399841308594 23.4606990814209 L 36.88600158691406 23.56999969482422 L 37.03584671020508 24.402597427368164 L 37.0369987487793 24.409000396728516 L 37.045902252197266 24.407428741455078 L 40.959999084472656 23.71682357788086 L 40.97600173950195 23.714000701904297 L 40.959999084472656 23.625255584716797 L 40.814998626708984 22.820999145507812 L 40.54600143432617 21.48699951171875 L 40.320960998535156 20.479999542236328 L 40.249000549316406 20.158000946044922 L 39.92399978637695 18.836000442504883 L 39.571998596191406 17.520999908447266 L 39.241424560546875 16.384000778198242 L 39.19200134277344 16.214000701904297 L 38.78499984741211 14.914999961853027 L 38.35100173950195 13.625 L 37.88999938964844 12.343999862670898 L 37.868499755859375 12.288000106811523 L 37.402000427246094 11.072999954223633 L 36.88800048828125 9.812999725341797 L 36.34700012207031 8.564000129699707 L 36.17692565917969 8.192000389099121 L 35.78099822998047 7.326000213623047 L 35.1879997253418 6.099999904632568 L 34.56999969482422 4.88700008392334 L 34.14580154418945 4.0960001945495605 L 33.926998138427734 3.687999963760376 L 33.25899887084961 2.502000093460083 L 32.768001556396484 1.6716219186782837 L 32.566001892089844 1.3300000429153442 L 31.847999572753906 0.17299999296665197 L 31.735746383666992 4.440892164675075e-17 L 31.10700035095215 -0.968999981880188 L 30.341999053955078 -2.0940001010894775 L 29.55299949645996 -3.2039999961853027 L 28.89113998413086 -4.0960001945495605 L 28.742000579833984 -4.296999931335449 L 27.906999588012695 -5.372000217437744 L 27.051000595092773 -6.429999828338623 L 26.172000885009766 -7.46999979019165 L 25.535564422607422 -8.192000389099121 L 25.27199935913086 -8.491000175476074 L 24.576000213623047 -9.247390747070312 L 24.350000381469727 -9.493000030517578 L 23.408000946044922 -10.47599983215332 L 22.445999145507812 -11.437999725341797 L 21.559003829956055 -12.288000106811523 L 21.46299934387207 -12.380000114440918 L 20.461000442504883 -13.302000045776367 L 19.440000534057617 -14.20199966430664 L 18.399999618530273 -15.081000328063965 L 17.341999053955078 -15.937000274658203 L 16.766521453857422 -16.384000778198242 L 16.384000778198242 -16.681121826171875 L 16.267000198364258 -16.77199935913086 L 15.173999786376953 -17.58300018310547 L 14.064000129699707 -18.371999740600586 L 12.939000129699707 -19.136999130249023 L 12.288000106811523 -19.55940818786621 L 11.79699993133545 -19.878000259399414 L 10.826924324035645 -20.479999542236328 L 10.640000343322754 -20.59600067138672 L 9.468000411987305 -21.288999557495117 L 8.281999588012695 -21.957000732421875 L 8.192000389099121 -22.005264282226562 L 7.083000183105469 -22.600000381469727 L 5.869999885559082 -23.218000411987305 L 4.644000053405762 -23.81100082397461 L 4.0960001945495605 -24.061538696289062 L 3.4059998989105225 -24.37700080871582 L 2.946571111679077 -24.576000213623047 L 2.1570000648498535 -24.917999267578125 L 0.8970000147819519 -25.43199920654297 L 0 -25.776403427124023 L -0.37400001287460327 -25.920000076293945 L -1.6549999713897705 -26.381000518798828 L -2.944999933242798 -26.815000534057617 L -4.24399995803833 -27.222000122070312 L -5.551000118255615 -27.601999282836914 L -6.866000175476074 -27.95400047302246 L -8.187999725341797 -28.27899932861328 L -8.192000389099121 -28.27989387512207 L -9.515999794006348 -28.576000213623047 L -9.992431640625 -28.672000885009766 L -10.85099983215332 -28.844999313354492 L -12.1899995803833 -29.086000442504883 L -13.53499984741211 -29.298999786376953 L -14.883999824523926 -29.483999252319336 L -16.236000061035156 -29.639999389648438 L -16.384000778198242 -29.654090881347656 L -17.590999603271484 -29.768999099731445 L -18.948999404907227 -29.868000030517578 L -20.308000564575195 -29.93899917602539 L -21.66900062561035 -29.98200035095215 L -23.030000686645508 -29.996000289916992 L -24.391000747680664 -29.98200035095215 L -24.576000213623047 -29.976154327392578 L -25.75200080871582 -29.93899917602539 L -27.111000061035156 -29.868000030517578 L -28.4689998626709 -29.768999099731445 L -29.823999404907227 -29.639999389648438 L -31.176000595092773 -29.483999252319336 L -32.525001525878906 -29.298999786376953 L -32.768001556396484 -29.260488510131836 L -33.86899948120117 -29.086000442504883 L -34.316001892089844 -29.006000518798828 L -33.622703552246094 -25.07666015625 L -33.62099838256836 -25.066999435424805 L -33.20199966430664 -25.14299964904785 L -32.768001556396484 -25.211435317993164 L -31.940000534057617 -25.341999053955078 L -30.674999237060547 -25.516000747680664 L -29.4060001373291 -25.663000106811523 L -28.672000885009766 -25.73224449157715 L -28.134000778198242 -25.783000946044922 L -26.860000610351562 -25.875999450683594 L -25.583999633789062 -25.94300079345703 L -24.576000213623047 -25.974573135375977 L -24.30699920654297 -25.982999801635742 L -23.030000686645508 -25.996999740600586 L -21.75200080871582 -25.982999801635742 L -20.479999542236328 -25.943124771118164 L -20.47599983215332 -25.94300079345703 L -19.200000762939453 -25.875999450683594 L -17.926000595092773 -25.783000946044922 L -16.65399932861328 -25.663000106811523 L -16.384000778198242 -25.631723403930664 L -15.385000228881836 -25.516000747680664 L -14.119000434875488 -25.341999053955078 L -12.857999801635742 -25.14299964904785 L -12.288000106811523 -25.040145874023438 L -11.600000381469727 -24.916000366210938 L -10.347999572753906 -24.663999557495117 L -9.954681396484375 -24.576000213623047 L -9.10099983215332 -24.385000228881836 L -8.192000389099121 -24.161415100097656 L -7.861000061035156 -24.079999923706055 L -6.626999855041504 -23.75 L -5.400000095367432 -23.39299964904785 L -4.181000232696533 -23.01099967956543 L -4.0960001945495605 -22.982433319091797 L -2.9700000286102295 -22.604000091552734 L -1.7680000066757202 -22.17099952697754 L -0.574999988079071 -21.71299934387207 L 7.72881819579175e-15 -21.478525161743164 L 0.6069999933242798 -21.231000900268555 L 1.7799999713897705 -20.722999572753906 L 2.3103063106536865 -20.479999542236328 L 2.940999984741211 -20.19099998474121 L 4.091000080108643 -19.635000228881836 L 4.0960001945495605 -19.632457733154297 L 5.230000019073486 -19.055999755859375 L 6.355000019073486 -18.45199966430664 L 7.4679999351501465 -17.825000762939453 L 8.192000389099121 -17.39652442932129 L 8.567999839782715 -17.173999786376953 L 9.654000282287598 -16.500999450683594 L 9.834038734436035 -16.384000778198242 L 10.725000381469727 -15.805000305175781 L 11.781999588012695 -15.086999893188477 L 12.288000106811523 -14.727307319641113 L 12.822999954223633 -14.347000122070312 L 13.848999977111816 -13.586000442504883 L 14.857999801635742 -12.803000450134277 L 15.494063377380371 -12.288000106811523 L 15.85099983215332 -11.99899959564209 L 16.384000778198242 -11.5484619140625 L 16.82699966430664 -11.173999786376953 L 17.78499984741211 -10.329000473022461 L 18.725000381469727 -9.46500015258789 L 19.64699935913086 -8.579999923706055 L 20.03499984741211 -8.192000389099121 L 20.549999237060547 -7.677000045776367 L 21.434999465942383 -6.755000114440918 L 22.298999786376953 -5.815000057220459 L 23.143999099731445 -4.85699987411499 L 23.787263870239258 -4.0960001945495605 L 23.9689998626709 -3.88100004196167 L 24.576000213623047 -3.131309747695923 L 24.773000717163086 -2.888000011444092 L 25.555999755859375 -1.878999948501587 L 26.316999435424805 -0.8529999852180481 L 26.923358917236328 4.440892164675075e-17 L 27.05699920654297 0.18799999356269842 L 27.774999618530273 1.2450000047683716 L 28.47100067138672 2.315999984741211 L 28.672000885009766 2.640347719192505 L 29.143999099731445 3.4019999504089355 L 29.55472183227539 4.0960001945495605 L 29.795000076293945 4.501999855041504 L 30.422000885009766 5.614999771118164 L 31.025999069213867 6.741000175476074 L 31.604999542236328 7.879000186920166 L 31.756328582763672 8.192000389099121 L 32.1609992980957 9.029000282287598 L 32.69300079345703 10.1899995803833 L 32.768001556396484 10.363179206848145 L 33.20100021362305 11.36299991607666 L 33.577880859375 12.288000106811523 L 33.68299865722656 12.545999526977539 L 34.14099884033203 13.73799991607666 L 34.57400131225586 14.9399995803833 L 34.98099899291992 16.150999069213867 M 10.635000228881836 11.60200023651123 L 11.101673126220703 12.288000106811523 L 11.118000030517578 12.312000274658203 L 11.586000442504883 13.031999588012695 L 12.038000106811523 13.76200008392334 L 12.288000106811523 14.184768676757812 L 12.377429008483887 14.336000442504883 L 12.475000381469727 14.50100040435791 L 12.897000312805176 15.24899959564209 L 13.302000045776367 16.006000518798828 L 13.494706153869629 16.384000778198242 L 13.692000389099121 16.770999908447266 L 14.065999984741211 17.54400062561035 L 14.42300033569336 18.325000762939453 L 14.469303131103516 18.43199920654297 L 14.763999938964844 19.113000869750977 L 15.08899974822998 19.908000946044922 L 15.308231353759766 20.479999542236328 L 15.395999908447266 20.708999633789062 L 15.687000274658203 21.517000198364258 L 15.961000442504883 22.33099937438965 L 16.218000411987305 23.149999618530273 L 16.384000778198242 23.720624923706055 L 16.45800018310547 23.975000381469727 L 16.61894416809082 24.576000213623047 L 16.68000030517578 24.804000854492188 L 16.885000228881836 25.63800048828125 L 17.07200050354004 26.47599983215332 L 17.10188102722168 26.624000549316406 L 17.242000579833984 27.31800079345703 L 17.343000411987305 27.881000518798828 L 17.347816467285156 27.880151748657227 L 17.355234146118164 27.87884521484375 L 17.381193161010742 27.874271392822266 L 20.479999542236328 27.32830238342285 L 21.049545288085938 27.227954864501953 L 21.281999588012695 27.187000274658203 L 21.281991958618164 27.18695640563965 L 21.17099952697754 26.56800079345703 L 20.983999252319336 25.643999099731445 L 20.77899932861328 24.725000381469727 L 20.742361068725586 24.576000213623047 L 20.554000854492188 23.809999465942383 L 20.479999542236328 23.53371238708496 L 20.309999465942383 22.89900016784668 L 20.202184677124023 22.527999877929688 L 20.047000885009766 21.993999481201172 L 19.764999389648438 21.094999313354492 L 19.558393478393555 20.479999542236328 L 19.46500015258789 20.20199966430664 L 19.145000457763672 19.315000534057617 L 18.808000564575195 18.434999465942383 L 18.80677604675293 18.43199920654297 L 18.45199966430664 17.562999725341797 L 18.07699966430664 16.697999954223633 L 17.933372497558594 16.384000778198242 L 17.684999465942383 15.840999603271484 L 17.274999618530273 14.993000030517578 L 16.847000122070312 14.152999877929688 L 16.402000427246094 13.321999549865723 L 16.384000778198242 13.290081977844238 L 15.939000129699707 12.50100040435791 L 15.812932968139648 12.288000106811523 L 15.458999633789062 11.6899995803833 L 14.963000297546387 10.888999938964844 L 14.540739059448242 10.239999771118164 L 14.449000358581543 10.098999977111816 L 13.920000076293945 9.319000244140625 L 13.37399959564209 8.550999641418457 L 13.107124328613281 8.192000389099121 L 12.812000274658203 7.795000076293945 L 12.288000106811523 7.119602203369141 L 12.234000205993652 7.050000190734863 L 11.640999794006348 6.317999839782715 L 11.49406623840332 6.144000053405762 L 11.032999992370605 5.5980000495910645 L 10.40999984741211 4.890999794006348 L 9.772000312805176 4.197000026702881 L 9.675158500671387 4.0960001945495605 L 9.119999885559082 3.5169999599456787 L 8.45300006866455 2.8510000705718994 L 8.192000389099121 2.600363254547119 L 7.7729997634887695 2.197999954223633 L 7.078999996185303 1.559999942779541 L 6.372000217437744 0.9369999766349792 L 5.6529998779296875 0.3289999961853028 L 5.246326923370361 4.440892164675075e-17 L 4.920000076293945 -0.26399999856948847 L 4.176000118255615 -0.8420000076293945 L 4.0960001945495605 -0.9013923406600952 L 3.4189999103546143 -1.4040000438690186 L 2.6510000228881836 -1.9500000476837158 L 2.5065009593963623 -2.0480000972747803 L 1.871000051498413 -2.4790000915527344 L 1.0809999704360962 -2.993000030517578 L 0.2800000011920929 -3.489000082015991 L -9.701276926766763e-16 -3.654721260070801 L -0.531000018119812 -3.9690001010894775 L -0.7561987042427063 -4.0960001945495605 L -1.3519999980926514 -4.432000160217285 L -2.183000087738037 -4.876999855041504 L -3.0220000743865967 -5.304999828338623 L -3.871000051498413 -5.715000152587891 L -4.0960001945495605 -5.817917346954346 L -4.728000164031982 -6.10699987411499 L -5.5929999351501465 -6.48199987411499 L -6.465000152587891 -6.8379998207092285 L -7.34499979019165 -7.175000190734863 L -8.192000389099121 -7.480569362640381 L -8.232000350952148 -7.494999885559082 L -9.125 -7.795000076293945 L -10.02400016784668 -8.07699966430664 L -10.419722557067871 -8.192000389099121 L -10.928999900817871 -8.34000015258789 L -11.83899974822998 -8.583999633789062 L -12.288000106811523 -8.694289207458496 L -12.755000114440918 -8.809000015258789 L -13.673999786376953 -9.013999938964844 L -14.597999572753906 -9.201000213623047 L -15.526000022888184 -9.366999626159668 L -16.384000778198242 -9.503541946411133 L -16.45599937438965 -9.515000343322754 L -17.389999389648438 -9.642999649047852 L -18.326000213623047 -9.75100040435791 L -18.43199920654297 -9.761046409606934 L -19.264999389648438 -9.84000015258789 L -20.20400047302246 -9.909000396728516 L -20.479999542236328 -9.923357009887695 L -21.145999908447266 -9.958000183105469 L -22.086999893188477 -9.98799991607666 L -23.030000686645508 -9.998000144958496 L -23.972000122070312 -9.98799991607666 L -24.576000213623047 -9.968764305114746 L -24.913999557495117 -9.958000183105469 L -25.854999542236328 -9.909000396728516 L -26.624000549316406 -9.85255241394043 L -26.795000076293945 -9.84000015258789 L -27.732999801635742 -9.75100040435791 L -28.670000076293945 -9.642999649047852 L -28.672000885009766 -9.642725944519043 L -29.60300064086914 -9.515000343322754 L -30.534000396728516 -9.366999626159668 L -30.842853546142578 -9.312026023864746 L -30.843000411987305 -9.312000274658203 L -30.64566993713379 -8.192000389099121 L -30.14900016784668 -5.373000144958496 L -30.148143768310547 -5.373154640197754 L -29.867000579833984 -5.423999786376953 L -29.018999099731445 -5.558000087738037 L -28.672000885009766 -5.605707168579102 L -28.167999267578125 -5.675000190734863 L -27.315000534057617 -5.7729997634887695 L -26.624000549316406 -5.838463306427002 L -26.459999084472656 -5.854000091552734 L -25.604000091552734 -5.916999816894531 L -24.746999740600586 -5.961999893188477 L -24.576000213623047 -5.967374801635742 L -23.88800048828125 -5.988999843597412 L -23.030000686645508 -5.998000144958496 L -22.17099952697754 -5.988999843597412 L -21.312999725341797 -5.961999893188477 L -20.479999542236328 -5.918260097503662 L -20.45599937438965 -5.916999816894531 L -19.599000930786133 -5.854000091552734 L -18.743999481201172 -5.7729997634887695 L -18.43199920654297 -5.737154960632324 L -17.891000747680664 -5.675000190734863 L -17.041000366210938 -5.558000087738037 L -16.384000778198242 -5.454181671142578 L -16.19300079345703 -5.423999786376953 L -15.347999572753906 -5.271999835968018 L -14.505999565124512 -5.1020002365112305 L -14.336000442504883 -5.0640645027160645 L -13.668000221252441 -4.914999961853027 L -12.833999633789062 -4.710000038146973 L -12.288000106811523 -4.563785076141357 L -12.005000114440918 -4.48799991607666 L -11.180000305175781 -4.248000144958496 L -10.695611000061035 -4.0960001945495605 L -10.361000061035156 -3.990999937057495 L -9.54699993133545 -3.7170000076293945 L -8.73900032043457 -3.4260001182556152 L -8.192000389099121 -3.216350793838501 L -7.938000202178955 -3.11899995803833 L -7.14300012588501 -2.7939999103546143 L -6.355000019073486 -2.453000068664551 L -5.573999881744385 -2.0959999561309814 L -5.474791526794434 -2.0480000972747803 L -4.801000118255615 -1.722000002861023 L -4.0960001945495605 -1.3625882863998413 L -4.035999774932861 -1.3320000171661377 L -3.2790000438690186 -0.9269999861717224 L -2.5309998989105225 -0.5049999952316284 L -1.7920000553131104 -0.06800000369548793 L -1.6824194192886353 4.440892164675075e-17 L -1.062000036239624 0.3849999904632569 L -0.34200000762939453 0.8519999980926514 L 0 1.0846563577651978 L 0.36800000071525574 1.3350000381469727 L 1.0679999589920044 1.8320000171661377 L 1.3586719036102295 2.0480000972747803 L 1.7569999694824219 2.3440001010894775 L 2.436000108718872 2.869999885559082 L 3.1029999256134033 3.4110000133514404 L 3.759000062942505 3.9649999141693115 L 3.9075281620025635 4.0960001945495605 L 4.0960001945495605 4.262229919433594 L 4.4029998779296875 4.5329999923706055 L 5.034999847412109 5.113999843597412 L 5.65500020980835 5.708000183105469 L 6.091000080108643 6.144000053405762 L 6.26200008392334 6.315000057220459 L 6.855999946594238 6.934999942779541 L 7.436999797821045 7.566999912261963 L 7.988242149353027 8.192000389099121 L 8.005000114440918 8.211000442504883 L 8.192000389099121 8.432429313659668 L 8.559000015258789 8.866999626159668 L 9.100000381469727 9.534000396728516 L 9.62600040435791 10.213000297546387 L 9.646063804626465 10.239999771118164 L 10.137999534606934 10.902000427246094 L 10.635000228881836 11.60200023651123 z" fill="none" stroke="rgb(0,0,255)" stroke-width="0.01mm" />
</svg>