<?xml version="1.0" standalone="no"?>
<!DOCTYPE svg PUBLIC "-//W3C//DTD SVG 1.1//EN"
  "http://www.w3.org/Graphics/SVG/1.1/DTD/svg11.dtd">
<svg width="52.810001373291016mm" height="23.58799934387207mm" viewBox="-26.405000686645508 -11.793999671936035 52.810001373291016 23.58799934387207" xmlns="http://www.w3.org/2000/svg" version="1.1">
	<title>svgOutput</title>
	<desc>made with tinkercad</desc>
<path d="M -21.136999130249023 8.605999946594238 L -21.626995086669922 8.192000389099121 L -22.000999450683594 7.875999927520752 L -22.783000946044922 7.059999942779541 L -23.47599983215332 6.166999816894531 L -24.07200050354004 5.205999851226807 L -24.562999725341797 4.189000129699707 L -24.576000213623047 4.152979373931885 L -24.94700050354004 3.125 L -25.215999603271484 2.0269999504089355 L -25.368999481201172 0.9070000052452087 L -25.39789581298828 4.440892164675075e-17 L -25.405000686645508 -0.22300000488758082 L -25.32200050354004 -1.350000023841858 L -25.121999740600586 -2.4630000591278076 L -24.80699920654297 -3.5480000972747803 L -24.576000213623047 -4.113086223602295 L -24.378999710083008 -4.59499979019165 L -24.18549156188965 -4.955925464630127 L -23.844999313354492 -5.591000080108643 L -23.485553741455078 -6.120264053344727 L -23.209999084472656 -6.526000022888184 L -22.479999542236328 -7.388999938964844 L -21.663999557495117 -8.17199993133545 L -21.638227462768555 -8.192000389099121 L -20.770999908447266 -8.864999771118164 L -19.809999465942383 -9.461000442504883 L -18.792999267578125 -9.95199966430664 L -17.729000091552734 -10.336000442504883 L -16.631000518798828 -10.604999542236328 L -16.384000778198242 -10.638741493225098 L -15.51099967956543 -10.758000373840332 L -14.380999565124512 -10.793999671936035 L -13.253999710083008 -10.711000442504883 L -12.142000198364258 -10.51099967956543 L -8.192000389099121 -9.409855842590332 L -8.140336990356445 -9.395454406738281 L -7.057204246520996 -9.09350872039795 L -5.954103946685791 -8.785996437072754 L 0 -7.126167297363281 L 25.405000686645508 -0.04399999976158138 L 5.67231113831777e-15 7.107813358306885 L -8.192000389099121 9.413960456848145 L -11.92199993133545 10.46399974822998 L -12.410256385803223 10.562708854675293 L -13.029999732971191 10.687999725341797 L -14.156000137329102 10.793999671936035 L -15.28600025177002 10.781999588012695 L -15.961000442504883 10.718000411987305 L -16.384000778198242 10.641988754272461 L -17.073999404907227 10.517999649047852 L -18.159000396728516 10.20300006866455 L -19.20599937438965 9.776000022888184 L -20.20199966430664 9.241000175476074 L -21.136999130249023 8.605999946594238 M -8.4399995803833 5.557000160217285 L -8.192000389099121 5.244320869445801 L -7.791999816894531 4.739999771118164 L -7.251999855041504 3.8489999771118164 L -6.828000068664551 2.8970000743865967 L -6.5269999504089355 1.8990000486373901 L -6.353000164031982 0.8709999918937683 L -6.317022323608398 4.440892164675075e-17 L -6.309999942779541 -0.1700000017881393 L -6.396999835968018 -1.2089999914169312 L -6.613999843597412 -2.2279999256134033 L -6.955999851226807 -3.2130000591278076 L -7.420000076293945 -4.145999908447266 L -7.997000217437744 -5.014999866485596 L -8.192000389099121 -5.240925312042236 L -8.678000450134277 -5.803999900817871 L -9.45199966430664 -6.500999927520752 L -10.307999610900879 -7.0960001945495605 L -11.232000350952148 -7.578999996185303 L -12.208999633789062 -7.941999912261963 L -13.223999977111816 -8.180000305175781 L -14.260000228881836 -8.288999557495117 L -15.302000045776367 -8.267000198364258 L -16.33300018310547 -8.114999771118164 L -16.384000778198242 -8.100776672363281 L -17.336999893188477 -7.835000038146973 L -18.29800033569336 -7.431000232696533 L -19.201000213623047 -6.909999847412109 L -20.0310001373291 -6.2789998054504395 L -20.775999069213867 -5.550000190734863 L -21.42300033569336 -4.732999801635742 L -21.80906105041504 -4.0960001945495605 L -21.96299934387207 -3.8420000076293945 L -22.386999130249023 -2.8889999389648438 L -22.687999725341797 -1.8919999599456787 L -22.86199951171875 -0.8640000224113464 L -22.897687911987305 4.440892164675075e-17 L -22.905000686645508 0.17700000107288366 L -22.81800079345703 1.215999960899353 L -22.601999282836914 2.2360000610351562 L -22.259000778198242 3.2200000286102295 L -21.823814392089844 4.0960001945495605 L -21.795000076293945 4.1539998054504395 L -21.2189998626709 5.021999835968018 L -20.538000106811523 5.810999870300293 L -19.76300048828125 6.507999897003174 L -18.906999588012695 7.103000164031982 L -17.982999801635742 7.585999965667725 L -17.006000518798828 7.948999881744385 L -16.384000778198242 8.094991683959961 L -15.991999626159668 8.187000274658203 L -14.954999923706055 8.295999526977539 L -13.913000106811523 8.27400016784668 L -12.881999969482422 8.121999740600586 L -11.878000259399414 7.8420000076293945 L -10.916999816894531 7.438000202178955 L -10.015000343322754 6.916999816894531 L -9.184000015258789 6.2870001792907715 L -8.4399995803833 5.557000160217285 z" fill="none" stroke="rgb(0,0,255)" stroke-width="0.01mm" />
</svg>