<?xml version="1.0" standalone="no"?>
<!DOCTYPE svg PUBLIC "-//W3C//DTD SVG 1.1//EN"
  "http://www.w3.org/Graphics/SVG/1.1/DTD/svg11.dtd">
<svg width="53.7599983215332mm" height="25.489999771118164mm" viewBox="-26.8799991607666 -12.744999885559082 53.7599983215332 25.489999771118164" xmlns="http://www.w3.org/2000/svg" version="1.1">
	<title>svgOutput</title>
	<desc>made with tinkercad</desc>
<path d="M -22.527999877929688 8.22599983215332 L -22.558605194091797 8.192000389099121 L -22.707096099853516 8.0270357131958 L -23.18600082397461 7.494999885559082 L -23.7810001373291 6.710999965667725 L -24.30900001525879 5.880000114440918 L -24.576000213623047 5.3682990074157715 L -24.763999938964844 5.007999897003174 L -25.145999908447266 4.10099983215332 L -25.450000762939453 3.1649999618530273 L -25.673999786376953 2.2070000171661377 L -25.81800079345703 1.2330000400543213 L -25.8799991607666 0.2509999871253968 L -25.874643325805664 4.440892164675075e-17 L -25.858999252319336 -0.7329999804496765 L -25.756999969482422 -1.7109999656677246 L -25.57200050354004 -2.677999973297119 L -25.308000564575195 -3.625999927520752 L -24.96500015258789 -4.547999858856201 L -24.576000213623047 -5.375205039978027 L -24.54599952697754 -5.439000129699707 L -24.054000854492188 -6.290999889373779 L -23.492000579833984 -7.098999977111816 L -22.864999771118164 -7.85699987411499 L -22.536670684814453 -8.192000389099121 L -22.176000595092773 -8.5600004196167 L -21.430999755859375 -9.20300006866455 L -20.635000228881836 -9.781999588012695 L -19.792999267578125 -10.291000366210938 L -18.91200065612793 -10.729000091552734 L -17.996999740600586 -11.090999603271484 L -17.05500030517578 -11.37600040435791 L -16.384000778198242 -11.518143653869629 L -16.091999053955078 -11.579999923706055 L -15.116000175476074 -11.704000473022461 L -14.133000373840332 -11.744999885559082 L -13.149999618530273 -11.704000473022461 L -12.173999786376953 -11.579999923706055 L -11.211000442504883 -11.37600040435791 L -8.192000389099121 -10.453557014465332 L -7.918229103088379 -10.36990737915039 L -6.71402645111084 -10.001968383789062 L 0 -7.950525760650635 L 25.8799991607666 -0.043000001460313755 L 0 7.94144344329834 L -8.192000389099121 10.46882152557373 L -10.737000465393066 11.253999710083008 L -11.6899995803833 11.498000144958496 L -12.65999984741211 11.661999702453613 L -13.640999794006348 11.744999885559082 L -14.359269142150879 11.744999885559082 L -14.625 11.744999885559082 L -15.605999946594238 11.661999702453613 L -16.384000778198242 11.530462265014648 L -16.576000213623047 11.498000144958496 L -17.52899932861328 11.253999710083008 L -18.45800018310547 10.930000305175781 L -19.35700035095215 10.529999732971191 L -20.219999313354492 10.055999755859375 L -21.038999557495117 9.51099967956543 L -21.809999465942383 8.899999618530273 L -22.527999877929688 8.22599983215332 M -7.561999797821045 -4.982999801635742 L -8.192000389099121 -5.712571620941162 L -8.23900032043457 -5.767000198364258 L -9.008999824523926 -6.460000038146973 L -9.859999656677246 -7.052000045776367 L -10.777999877929688 -7.5320000648498535 L -11.74899959564209 -7.89300012588501 L -12.756999969482422 -8.128999710083008 L -13.352899551391602 -8.192000389099121 L -13.788000106811523 -8.23799991607666 L -14.822999954223633 -8.215999603271484 L -14.98591423034668 -8.192000389099121 L -15.847999572753906 -8.0649995803833 L -16.384000778198242 -7.915156364440918 L -16.84600067138672 -7.785999774932861 L -17.801000595092773 -7.383999824523926 L -18.697999954223633 -6.866000175476074 L -19.52400016784668 -6.239999771118164 L -20.263999938964844 -5.514999866485596 L -20.906999588012695 -4.703000068664551 L -21.444000244140625 -3.816999912261963 L -21.864999771118164 -2.871000051498413 L -22.165000915527344 -1.878999948501587 L -22.33799934387207 -0.8569999933242798 L -22.373605728149414 4.440892164675075e-17 L -22.381000518798828 0.17800000309944158 L -22.29400062561035 1.2100000381469727 L -22.07900047302246 2.2239999771118164 L -21.738000869750977 3.2019999027252197 L -21.277000427246094 4.130000114440918 L -20.70400047302246 4.993000030517578 L -20.027000427246094 5.7769999504089355 L -19.256999969482422 6.4710001945495605 L -18.406999588012695 7.061999797821045 L -17.48900032043457 7.541999816894531 L -16.517000198364258 7.9029998779296875 L -16.384000778198242 7.934270858764648 L -15.508999824523926 8.140000343322754 L -14.479000091552734 8.248000144958496 L -13.442999839782715 8.22599983215332 L -12.418000221252441 8.074999809265137 L -11.420000076293945 7.796000003814697 L -10.46500015258789 7.394999980926514 L -9.567999839782715 6.876999855041504 L -8.743000030517578 6.25 L -8.192000389099121 5.710897445678711 L -8.001999855041504 5.525000095367432 L -7.359000205993652 4.7129998207092285 L -6.822000026702881 3.8269999027252197 L -6.401000022888184 2.88100004196167 L -6.10099983215332 1.8890000581741333 L -5.928999900817871 0.8669999837875366 L -5.892141819000244 4.440892164675075e-17 L -5.885000228881836 -0.16799999773502344 L -5.9720001220703125 -1.2000000476837158 L -6.186999797821045 -2.2130000591278076 L -6.5279998779296875 -3.191999912261963 L -6.988999843597412 -4.119999885559082 L -7.561999797821045 -4.982999801635742 z" fill="none" stroke="rgb(0,0,255)" stroke-width="0.01mm" />
</svg>