solid OpenSCAD_Model
  facet normal -1 0 0
    outer loop
      vertex 0 0 0
      vertex 0 46 20
      vertex 0 46 0
    endloop
  endfacet
  facet normal -1 -0 0
    outer loop
      vertex 0 46 20
      vertex 0 0 0
      vertex 0 0 20
    endloop
  endfacet
  facet normal 0 0 1
    outer loop
      vertex 11 46 20
      vertex 0 46 20
      vertex 11 10 20
    endloop
  endfacet
  facet normal 0 0 1
    outer loop
      vertex 17 46 20
      vertex 12 46 20
      vertex 17 10 20
    endloop
  endfacet
  facet normal 0 0 1
    outer loop
      vertex 18 10 20
      vertex 29 46 20
      vertex 18 46 20
    endloop
  endfacet
  facet normal 0 0 1
    outer loop
      vertex 29 46 20
      vertex 18 10 20
      vertex 29 0 20
    endloop
  endfacet
  facet normal -0 0 1
    outer loop
      vertex 17 10 20
      vertex 29 0 20
      vertex 18 10 20
    endloop
  endfacet
  facet normal 0 0 1
    outer loop
      vertex 12 10 20
      vertex 17 10 20
      vertex 12 46 20
    endloop
  endfacet
  facet normal -0 0 1
    outer loop
      vertex 12 10 20
      vertex 29 0 20
      vertex 17 10 20
    endloop
  endfacet
  facet normal 0 0 1
    outer loop
      vertex 0 0 20
      vertex 12 10 20
      vertex 11 10 20
    endloop
  endfacet
  facet normal 0 0 1
    outer loop
      vertex 12 10 20
      vertex 0 0 20
      vertex 29 0 20
    endloop
  endfacet
  facet normal 0 0 1
    outer loop
      vertex 0 0 20
      vertex 11 10 20
      vertex 0 46 20
    endloop
  endfacet
  facet normal 1 -0 0
    outer loop
      vertex 29 0 20
      vertex 29 46 0
      vertex 29 46 20
    endloop
  endfacet
  facet normal 1 0 0
    outer loop
      vertex 29 46 0
      vertex 29 0 20
      vertex 29 0 0
    endloop
  endfacet
  facet normal 0 1 -0
    outer loop
      vertex 29 46 0
      vertex 18 46 20
      vertex 29 46 20
    endloop
  endfacet
  facet normal 0 1 0
    outer loop
      vertex 18 46 20
      vertex 29 46 0
      vertex 17 46 20
    endloop
  endfacet
  facet normal 0 1 0
    outer loop
      vertex 17 46 20
      vertex 29 46 0
      vertex 12 46 20
    endloop
  endfacet
  facet normal 0 1 0
    outer loop
      vertex 0 46 0
      vertex 12 46 20
      vertex 29 46 0
    endloop
  endfacet
  facet normal 0 1 0
    outer loop
      vertex 12 46 20
      vertex 0 46 0
      vertex 11 46 20
    endloop
  endfacet
  facet normal 0 1 0
    outer loop
      vertex 11 46 20
      vertex 0 46 0
      vertex 0 46 20
    endloop
  endfacet
  facet normal 0 1 0
    outer loop
      vertex 18 46 23.5
      vertex 17 46 22.5
      vertex 11 46 23.5
    endloop
  endfacet
  facet normal 0 1 -0
    outer loop
      vertex 18 46 20
      vertex 17 46 22.5
      vertex 18 46 23.5
    endloop
  endfacet
  facet normal 0 1 0
    outer loop
      vertex 17 46 22.5
      vertex 18 46 20
      vertex 17 46 20
    endloop
  endfacet
  facet normal 0 1 -0
    outer loop
      vertex 12 46 22.5
      vertex 11 46 23.5
      vertex 17 46 22.5
    endloop
  endfacet
  facet normal 0 1 0
    outer loop
      vertex 11 46 20
      vertex 12 46 22.5
      vertex 12 46 20
    endloop
  endfacet
  facet normal 0 1 0
    outer loop
      vertex 12 46 22.5
      vertex 11 46 20
      vertex 11 46 23.5
    endloop
  endfacet
  facet normal 0 0 -1
    outer loop
      vertex 0 0 0
      vertex 29 46 0
      vertex 29 0 0
    endloop
  endfacet
  facet normal -0 0 -1
    outer loop
      vertex 29 46 0
      vertex 0 0 0
      vertex 0 46 0
    endloop
  endfacet
  facet normal 0 -1 0
    outer loop
      vertex 0 0 20
      vertex 0.999994 0 19
      vertex 29 0 20
    endloop
  endfacet
  facet normal 0 -1 0
    outer loop
      vertex 0 0 20
      vertex 0.999994 0 0.999994
      vertex 0.999994 0 19
    endloop
  endfacet
  facet normal 0 -1 -0
    outer loop
      vertex 0.999994 0 0.999994
      vertex 0 0 0
      vertex 28 0 0.999994
    endloop
  endfacet
  facet normal 0 -1 0
    outer loop
      vertex 0 0 0
      vertex 0.999994 0 0.999994
      vertex 0 0 20
    endloop
  endfacet
  facet normal 0 -1 0
    outer loop
      vertex 28 0 19
      vertex 29 0 20
      vertex 0.999994 0 19
    endloop
  endfacet
  facet normal 0 -1 0
    outer loop
      vertex 28 0 0.999994
      vertex 29 0 20
      vertex 28 0 19
    endloop
  endfacet
  facet normal 0 -1 0
    outer loop
      vertex 28 0 0.999994
      vertex 29 0 0
      vertex 29 0 20
    endloop
  endfacet
  facet normal 0 -1 0
    outer loop
      vertex 29 0 0
      vertex 28 0 0.999994
      vertex 0 0 0
    endloop
  endfacet
  facet normal 1 -0 0
    outer loop
      vertex 0.999994 0 19
      vertex 0.999994 45 0.999994
      vertex 0.999994 45 19
    endloop
  endfacet
  facet normal 1 0 0
    outer loop
      vertex 0.999994 45 0.999994
      vertex 0.999994 0 19
      vertex 0.999994 0 0.999994
    endloop
  endfacet
  facet normal 0 0 -1
    outer loop
      vertex 0.999994 0 19
      vertex 28 45 19
      vertex 28 0 19
    endloop
  endfacet
  facet normal -0 0 -1
    outer loop
      vertex 28 45 19
      vertex 0.999994 0 19
      vertex 0.999994 45 19
    endloop
  endfacet
  facet normal -1 0 0
    outer loop
      vertex 28 0 0.999994
      vertex 28 45 19
      vertex 28 45 0.999994
    endloop
  endfacet
  facet normal -1 -0 0
    outer loop
      vertex 28 45 19
      vertex 28 0 0.999994
      vertex 28 0 19
    endloop
  endfacet
  facet normal -0 0 1
    outer loop
      vertex 0.999994 45 0.999994
      vertex 28 0 0.999994
      vertex 28 45 0.999994
    endloop
  endfacet
  facet normal 0 0 1
    outer loop
      vertex 28 0 0.999994
      vertex 0.999994 45 0.999994
      vertex 0.999994 0 0.999994
    endloop
  endfacet
  facet normal 0 -1 0
    outer loop
      vertex 0.999994 45 0.999994
      vertex 28 45 19
      vertex 0.999994 45 19
    endloop
  endfacet
  facet normal 0 -1 -0
    outer loop
      vertex 28 45 19
      vertex 0.999994 45 0.999994
      vertex 28 45 0.999994
    endloop
  endfacet
  facet normal -1 0 0
    outer loop
      vertex 11 10 20
      vertex 11 46 23.5
      vertex 11 46 20
    endloop
  endfacet
  facet normal -1 -0 0
    outer loop
      vertex 11 46 23.5
      vertex 11 10 20
      vertex 11 10 23.5
    endloop
  endfacet
  facet normal -0 0 1
    outer loop
      vertex 11 46 23.5
      vertex 18 10 23.5
      vertex 18 46 23.5
    endloop
  endfacet
  facet normal 0 0 1
    outer loop
      vertex 18 10 23.5
      vertex 11 46 23.5
      vertex 11 10 23.5
    endloop
  endfacet
  facet normal 1 -0 0
    outer loop
      vertex 18 10 23.5
      vertex 18 46 20
      vertex 18 46 23.5
    endloop
  endfacet
  facet normal 1 0 0
    outer loop
      vertex 18 46 20
      vertex 18 10 23.5
      vertex 18 10 20
    endloop
  endfacet
  facet normal 0 -1 0
    outer loop
      vertex 11 10 23.5
      vertex 12 10 22.5
      vertex 18 10 23.5
    endloop
  endfacet
  facet normal 0 -1 0
    outer loop
      vertex 11 10 20
      vertex 12 10 22.5
      vertex 11 10 23.5
    endloop
  endfacet
  facet normal 0 -1 -0
    outer loop
      vertex 12 10 22.5
      vertex 11 10 20
      vertex 12 10 20
    endloop
  endfacet
  facet normal 0 -1 0
    outer loop
      vertex 17 10 22.5
      vertex 18 10 23.5
      vertex 12 10 22.5
    endloop
  endfacet
  facet normal 0 -1 0
    outer loop
      vertex 18 10 20
      vertex 17 10 22.5
      vertex 17 10 20
    endloop
  endfacet
  facet normal 0 -1 0
    outer loop
      vertex 17 10 22.5
      vertex 18 10 20
      vertex 18 10 23.5
    endloop
  endfacet
  facet normal 1 -0 0
    outer loop
      vertex 12 10 22.5
      vertex 12 46 20
      vertex 12 46 22.5
    endloop
  endfacet
  facet normal 1 0 0
    outer loop
      vertex 12 46 20
      vertex 12 10 22.5
      vertex 12 10 20
    endloop
  endfacet
  facet normal 0 0 -1
    outer loop
      vertex 12 10 22.5
      vertex 17 46 22.5
      vertex 17 10 22.5
    endloop
  endfacet
  facet normal -0 0 -1
    outer loop
      vertex 17 46 22.5
      vertex 12 10 22.5
      vertex 12 46 22.5
    endloop
  endfacet
  facet normal -1 0 0
    outer loop
      vertex 17 10 20
      vertex 17 46 22.5
      vertex 17 46 20
    endloop
  endfacet
  facet normal -1 -0 0
    outer loop
      vertex 17 46 22.5
      vertex 17 10 20
      vertex 17 10 22.5
    endloop
  endfacet
endsolid OpenSCAD_Model
