<?xml version="1.0" standalone="no"?>
<!DOCTYPE svg PUBLIC "-//W3C//DTD SVG 1.1//EN"
  "http://www.w3.org/Graphics/SVG/1.1/DTD/svg11.dtd">
<svg width="218.42999267578125mm" height="132mm" viewBox="-109.21499633789062 -66 218.42999267578125 132" xmlns="http://www.w3.org/2000/svg" version="1.1">
	<title>svgOutput</title>
	<desc>made with tinkercad</desc>
<path d="M 30.19099998474121 -16.899999618530273 L 30.98527717590332 -16.384000778198242 L 31.895000457763672 -15.793000221252441 L 32.768001556396484 -15.199567794799805 L 33.57500076293945 -14.651000022888184 L 35.23099899291992 -13.475000381469727 L 36.86199951171875 -12.262999534606934 L 38.46699905395508 -11.017999649047852 L 40.04600143432617 -9.739999771118164 L 41.597999572753906 -8.428999900817871 L 41.8665657043457 -8.192000389099121 L 43.12099838256836 -7.085000038146973 L 44.617000579833984 -5.710000038146973 L 46.08300018310547 -4.303999900817871 L 47.51900100708008 -2.867000102996826 L 48.92599868774414 -1.4010000228881836 L 49.152000427246094 -1.1551120281219482 L 50.21368408203125 4.440892164675075e-17 L 50.30099868774414 0.09499999880790715 L 51.64400100708008 1.6180000305175781 L 52.95500183105469 3.1700000762939453 L 54.23400115966797 4.749000072479248 L 55.479000091552734 6.354000091552734 L 56.689998626708984 7.985000133514404 L 56.83724594116211 8.192000389099121 L 57.4119987487793 9 L 61.05799865722656 9 L 60.50876998901367 8.192000389099121 L 60.33000183105469 7.928999900817871 L 59.117000579833984 6.2220001220703125 L 57.86899948120117 4.539999961853027 L 56.584999084472656 2.884999990463257 L 55.266998291015625 1.2580000162124634 L 54.2039909362793 4.440892164675075e-17 L 53.915000915527344 -0.3420000076293945 L 52.529998779296875 -1.9129999876022339 L 51.11199951171875 -3.4549999237060547 L 49.66299819946289 -4.966000080108643 L 49.152000427246094 -5.4770002365112305 L 48.18199920654297 -6.447000026702881 L 46.66999816894531 -7.896999835968018 L 46.349185943603516 -8.192000389099121 L 45.12900161743164 -9.314000129699707 L 43.55799865722656 -10.699999809265137 L 41.95800018310547 -12.050999641418457 L 40.33100128173828 -13.369000434875488 L 38.67599868774414 -14.652999877929688 L 36.99399948120117 -15.902000427246094 L 36.315704345703125 -16.384000778198242 L 35.2869987487793 -17.114999771118164 L 33.55500030517578 -18.29199981689453 L 32.768001556396484 -18.80337142944336 L 31.798999786376953 -19.433000564575195 L 30.018999099731445 -20.535999298095703 L 28.215999603271484 -21.60300064086914 L 26.391000747680664 -22.631000518798828 L 24.54599952697754 -23.6200008392334 L 22.68000030517578 -24.570999145507812 L 22.669660568237305 -24.576000213623047 L 20.79400062561035 -25.482999801635742 L 18.889999389648438 -26.354999542236328 L 16.968000411987305 -27.18600082397461 L 16.384000778198242 -27.42453956604004 L 15.029000282287598 -27.97800064086914 L 13.072999954223633 -28.72800064086914 L 11.102999687194824 -29.437999725341797 L 9.118000030517578 -30.106000900268555 L 8.192000389099121 -30.39598274230957 L 7.11899995803833 -30.73200035095215 L 5.107999801635742 -31.31599998474121 L 3.0850000381469727 -31.857999801635742 L 1.0509999990463257 -32.358001708984375 L 1.6303239547222834e-14 -32.59309768676758 L -0.7818884253501892 -32.768001556396484 L -0.9919999837875366 -32.814998626708984 L -3.0460000038146973 -33.229000091552734 L -5.10699987411499 -33.599998474121094 L -7.175000190734863 -33.926998138427734 L -9.25 -34.21099853515625 L -11.784000396728516 -34.494998931884766 L -11.784000396728516 -34.87214279174805 L -11.784000396728516 -35 L -12.78600025177002 -35.0629997253418 L -13.77299976348877 -35.250999450683594 L -14.727999687194824 -35.5620002746582 L -15.63700008392334 -35.9900016784668 L -16.384000778198242 -36.46336364746094 L -16.486000061035156 -36.52799987792969 L -16.892349243164062 -36.86399841308594 L -17.260000228881836 -37.167999267578125 L -17.947999954223633 -37.9010009765625 L -18.538000106811523 -38.7130012512207 L -19.02199935913086 -39.59400177001953 L -19.392000198364258 -40.52799987792969 L -19.50299644470215 -40.959999084472656 L -19.642000198364258 -41.500999450683594 L -19.76799964904785 -42.49800109863281 L -19.76799964904785 -43.50199890136719 L -19.642000198364258 -44.499000549316406 L -19.498886108398438 -45.055999755859375 L -19.392000198364258 -45.47200012207031 L -19.02199935913086 -46.40599822998047 L -18.538000106811523 -47.2859992980957 L -17.947999954223633 -48.0989990234375 L -17.260000228881836 -48.83100128173828 L -16.87239646911621 -49.152000427246094 L -16.486000061035156 -49.47200012207031 L -16.384000778198242 -49.53663635253906 L -15.63700008392334 -50.0099983215332 L -14.727999687194824 -50.4379997253418 L -13.77299976348877 -50.74800109863281 L -12.78600025177002 -50.9370002746582 L -11.784000396728516 -51 L -11.784000396728516 -51.12887191772461 L -11.784000396728516 -51.39364242553711 L -11.784000396728516 -51.56999969482422 L -9.553999900817871 -51.35900115966797 L -8.192000389099121 -51.201202392578125 L -7.119999885559082 -51.07699966430664 L -4.691999912261963 -50.744998931884766 L -2.2720000743865967 -50.361000061035156 L 0 -49.95313262939453 L 0.14000000059604645 -49.928001403808594 L 2.5420000553131104 -49.44300079345703 L 3.8449606895446777 -49.152000427246094 L 4.933000087738037 -48.909000396728516 L 7.313000202178955 -48.32400131225586 L 9.680000305175781 -47.689998626708984 L 12.032999992370605 -47.00600051879883 L 14.371000289916992 -46.27299880981445 L 16.384000778198242 -45.59593200683594 L 16.69300079345703 -45.492000579833984 L 18.999000549316406 -44.6619987487793 L 21.28700065612793 -43.784000396728516 L 23.55500030517578 -42.858001708984375 L 25.804000854492188 -41.8849983215332 L 27.82448959350586 -40.959999084472656 L 28.031999588012695 -40.8650016784668 L 30.238000869750977 -39.79800033569336 L 32.422000885009766 -38.68600082397461 L 32.768001556396484 -38.50041961669922 L 34.58100128173828 -37.52799987792969 L 36.715999603271484 -36.32500076293945 L 38.82500076293945 -35.077999114990234 L 40.90800094604492 -33.7859992980957 L 42.47544479370117 -32.768001556396484 L 42.96200180053711 -32.45199966430664 L 44.98899841308594 -31.073999404907227 L 46.98699951171875 -29.655000686645508 L 48.95399856567383 -28.194000244140625 L 49.152000427246094 -28.040386199951172 L 50.88999938964844 -26.691999435424805 L 52.79399871826172 -25.149999618530273 L 53.47322082519531 -24.576000213623047 L 54.66600036621094 -23.56800079345703 L 56.50400161743164 -21.947999954223633 L 58.30799865722656 -20.288999557495117 L 60.07600021362305 -18.593000411987305 L 61.808998107910156 -16.861000061035156 L 62.26631546020508 -16.384000778198242 L 63.505001068115234 -15.092000007629395 L 65.16300201416016 -13.288000106811523 L 65.53600311279297 -12.865067481994629 L 66.78399658203125 -11.449999809265137 L 68.36499786376953 -9.579000473022461 L 69.48770904541016 -8.192000389099121 L 69.90699768066406 -7.673999786376953 L 71.40899658203125 -5.73799991607666 L 72.87000274658203 -3.7709999084472656 L 74.29000091552734 -1.7730000019073486 L 75.49504852294922 4.440892164675075e-17 L 75.66699981689453 0.25299999117851263 L 77.00199890136719 2.308000087738037 L 78.29299926757812 4.390999794006348 L 79.54000091552734 6.5 L 80.74299621582031 8.635000228881836 L 81.9010009765625 10.793999671936035 L 81.91999816894531 10.831316947937012 L 83.01300048828125 12.977999687194824 L 84.08000183105469 15.184000015258789 L 84.6293716430664 16.384000778198242 L 85.0999984741211 17.41200065612793 L 86.072998046875 19.660999298095703 L 86.9990005493164 21.93000030517578 L 87.87699890136719 24.216999053955078 L 88.70700073242188 26.523000717163086 L 89.48799896240234 28.844999313354492 L 90.22100067138672 31.183000564575195 L 90.68154907226562 32.768001556396484 L 90.90499877929688 33.5369987487793 L 91.53900146484375 35.90299987792969 L 92.1240005493164 38.28300094604492 L 92.65799713134766 40.67399978637695 L 92.7157211303711 40.959999084472656 L 93.14299774169922 43.07699966430664 L 93.57599639892578 45.487998962402344 L 93.89525604248047 47.5 L 93.95999908447266 47.90800094604492 L 94.1301040649414 49.152000427246094 L 94.29199981689453 50.33599853515625 L 94.5739974975586 52.77000045776367 L 94.80500030517578 55.209999084472656 L 94.98400115966797 57.65399932861328 L 95.11199951171875 60.10100173950195 L 95.18900299072266 62.54999923706055 L 95.21499633789062 65 L 81.91999816894531 65 L 65.53600311279297 65 L 32.768001556396484 65 L 0 65 L -21.783000946044922 65 L -21.783000946044922 47.5 L 0 47.5 L 32.768001556396484 47.5 L 65.53600311279297 47.5 L 81.91999816894531 47.5 L 86.65699768066406 47.5 L 86.08899688720703 46.17599868774414 L 85.43499755859375 44.768001556396484 L 84.73300170898438 43.36899948120117 L 83.98500061035156 41.979000091552734 L 83.39754486083984 40.959999084472656 L 83.19000244140625 40.599998474121094 L 82.3499984741211 39.23099899291992 L 81.91999816894531 38.572410583496094 L 81.46399688720703 37.874000549316406 L 80.53199768066406 36.52899932861328 L 79.55500030517578 35.19599914550781 L 78.53500366210938 33.875999450683594 L 77.63215637207031 32.768001556396484 L 77.47000122070312 32.569000244140625 L 76.36199951171875 31.277000427246094 L 75.20999908447266 30 L 74.01599884033203 28.738000869750977 L 72.77999877929688 27.492000579833984 L 71.50199890136719 26.26300048828125 L 70.18399810791016 25.049999237060547 L 68.82499694824219 23.854999542236328 L 67.427001953125 22.67799949645996 L 65.98899841308594 21.520000457763672 L 65.53600311279297 21.170122146606445 L 64.51300048828125 20.3799991607666 L 62.999000549316406 19.26099967956543 L 61.448001861572266 18.160999298095703 L 59.86000061035156 17.082000732421875 L 58.789249420166016 16.384000778198242 L 58.23699951171875 16.02400016784668 L 56.577999114990234 14.987000465393066 L 54.8849983215332 13.972000122070312 L 53.15800094604492 12.979999542236328 L 51.39899826049805 12.01099967956543 L 49.606998443603516 11.064000129699707 L 49.152000427246094 10.833879470825195 L 47.784000396728516 10.142000198364258 L 45.930999755859375 9.243000030517578 L 44.04800033569336 8.369000434875488 L 42.13600158691406 7.519999980926514 L 40.19599914550781 6.696000099182129 L 38.22800064086914 5.896999835968018 L 36.23500061035156 5.125 L 34.215999603271484 4.377999782562256 L 32.768001556396484 3.86864972114563 L 32.172000885009766 3.6589999198913574 L 30.104999542236328 2.9660000801086426 L 28.014999389648438 2.299999952316284 L 25.902999877929688 1.6619999408721924 L 23.770000457763672 1.0520000457763672 L 21.618000030517578 0.46999999880790716 L 19.775327682495117 4.440892164675075e-17 L 19.445999145507812 -0.08399999886751171 L 17.256000518798828 -0.6100000143051147 L 15.048999786376953 -1.1059999465942383 L 12.826000213623047 -1.5740000009536743 L 10.588000297546387 -2.01200008392334 L 8.335000038146973 -2.4210000038146973 L 6.068999767303467 -2.8010001182556152 L 3.7920000553131104 -3.1510000228881836 L 1.5019999742507935 -3.4700000286102295 L 0 -3.6594650745391846 L -0.796999990940094 -3.759999990463257 L -3.1059999465942383 -4.019999980926514 L -5.421999931335449 -4.249000072479248 L -7.745999813079834 -4.447999954223633 L -10.076000213623047 -4.616000175476074 L -12.411999702453613 -4.755000114440918 L -14.75100040435791 -4.861999988555908 L -16.384000778198242 -4.915014266967773 L -16.784000396728516 -4.927999973297119 L -16.801000595092773 -5.836999893188477 L -16.89299964904785 -7.091000080108643 L -17.06399917602539 -8.335000038146973 L -17.312000274658203 -9.567000389099121 L -17.636999130249023 -10.781000137329102 L -18.038000106811523 -11.970999717712402 L -18.51300048828125 -13.135000228881836 L -19.05900001525879 -14.265999794006348 L -19.676000595092773 -15.359999656677246 L -20.341503143310547 -16.384000778198242 L -20.361000061035156 -16.413999557495117 L -21.110000610351562 -17.42300033569336 L -21.920000076293945 -18.382999420166016 L -22.790000915527344 -19.288999557495117 L -23.71500015258789 -20.139999389648438 L -24.69099998474121 -20.930999755859375 L -25.71500015258789 -21.658000946044922 L -26.783000946044922 -22.31999969482422 L -27.891000747680664 -22.913999557495117 L -29.033000946044922 -23.437000274658203 L -30.20599937438965 -23.88800048828125 L -31.405000686645508 -24.26300048828125 L -32.625 -24.562999725341797 L -32.69738006591797 -24.576000213623047 L -32.768001556396484 -24.58868408203125 L -33.861000061035156 -24.78499984741211 L -35.11000061035156 -24.93000030517578 L -36.36399841308594 -24.996000289916992 L -37.62099838256836 -24.982999801635742 L -38.874000549316406 -24.889999389648438 L -40.11899948120117 -24.719999313354492 L -41.349998474121094 -24.47100067138672 L -42.56399917602539 -24.145999908447266 L -43.79100036621094 -23.73200035095215 L -44.4630012512207 -25 L -45.125 -26.06800079345703 L -45.85300064086914 -27.091999053955078 L -46.643001556396484 -28.06800079345703 L -47.49399948120117 -28.993000030517578 L -48.400001525878906 -29.863000869750977 L -49.152000427246094 -30.49828338623047 L -49.36000061035156 -30.673999786376953 L -50.36899948120117 -31.42300033569336 L -51.422000885009766 -32.106998443603516 L -52.516998291015625 -32.7239990234375 L -52.607975006103516 -32.768001556396484 L -53.64799880981445 -33.270999908447266 L -54.81100082397461 -33.74599838256836 L -56.00199890136719 -34.145999908447266 L -57.215999603271484 -34.47100067138672 L -58.448001861572266 -34.720001220703125 L -59.69200134277344 -34.88999938964844 L -60.94499969482422 -34.983001708984375 L -62.20199966430664 -34.99599838256836 L -63.45600128173828 -34.93000030517578 L -64.70500183105469 -34.78499984741211 L -65.53600311279297 -34.6357421875 L -65.94100189208984 -34.5629997253418 L -67.16100311279297 -34.26300048828125 L -68.36000061035156 -33.88800048828125 L -69.53299713134766 -33.4370002746582 L -70.6760025024414 -32.91400146484375 L -70.94808959960938 -32.768001556396484 L -71.78299713134766 -32.31999969482422 L -72.85099792480469 -31.658000946044922 L -73.59406280517578 -31.13259506225586 L -73.78299713134766 -30.999000549316406 L -74.14900207519531 -31.270000457763672 L -75.18099975585938 -31.988000869750977 L -76.24199676513672 -32.6609992980957 L -76.42737579345703 -32.768001556396484 L -77.33000183105469 -33.28900146484375 L -78.44400024414062 -33.87099838256836 L -79.58100128173828 -34.40599822998047 L -80.73899841308594 -34.893001556396484 L -81.91699981689453 -35.33100128173828 L -81.91999816894531 -35.331974029541016 L -83.11199951171875 -35.71900177001953 L -84.3219985961914 -36.05699920654297 L -85.54499816894531 -36.34400177001953 L -86.77899932861328 -36.58000183105469 L -88.02300262451172 -36.76300048828125 L -89.27200317382812 -36.89500045776367 L -90.5260009765625 -36.9739990234375 L -91.78299713134766 -37 L -93.03900146484375 -36.9739990234375 L -94.29299926757812 -36.89500045776367 L -95.54199981689453 -36.76300048828125 L -96.78600311279297 -36.58000183105469 L -98.0199966430664 -36.34400177001953 L -98.30400085449219 -36.2773551940918 L -99.24299621582031 -36.05699920654297 L -100.4530029296875 -35.71900177001953 L -101.64800262451172 -35.33100128173828 L -102.82599639892578 -34.893001556396484 L -103.98400115966797 -34.40599822998047 L -105.12100219726562 -33.87099838256836 L -106.23500061035156 -33.28900146484375 L -107.13762664794922 -32.768001556396484 L -107.322998046875 -32.6609992980957 L -108.21499633789062 -32.09700012207031 L -108.05364990234375 -32.239261627197266 L -107.45398712158203 -32.768001556396484 L -107.44123077392578 -32.77924346923828 L -107.06652069091797 -33.10963821411133 L -106.72699737548828 -33.409000396728516 L -106.65614318847656 -33.46889114379883 L -106.20266723632812 -33.8521614074707 L -105.74188995361328 -34.241607666015625 L -105.26638793945312 -34.643497467041016 L -104.64700317382812 -35.16699981689453 L -102.53199768066406 -36.880001068115234 L -100.37999725341797 -38.54899978637695 L -98.30400085449219 -40.091033935546875 L -98.19499969482422 -40.172000885009766 L -97.76580047607422 -40.47688674926758 L -97.08570098876953 -40.959999084472656 L -95.9749984741211 -41.749000549316406 L -93.7229995727539 -43.279998779296875 L -91.44000244140625 -44.76300048828125 L -89.1259994506836 -46.196998596191406 L -86.78299713134766 -47.58300018310547 L -84.41100311279297 -48.91999816894531 L -83.97802734375 -49.152000427246094 L -82.01100158691406 -50.20600128173828 L -81.91999816894531 -50.25236129760742 L -79.58499908447266 -51.44200134277344 L -77.13400268554688 -52.62699890136719 L -74.65899658203125 -53.76100158691406 L -72.16000366210938 -54.84199905395508 L -69.63899993896484 -55.87099838256836 L -67.09700012207031 -56.84700012207031 L -65.53600311279297 -57.40876388549805 L -64.53500366210938 -57.76900100708008 L -61.95500183105469 -58.637001037597656 L -59.356998443603516 -59.45100021362305 L -56.74300003051758 -60.21099853515625 L -54.112998962402344 -60.91600036621094 L -51.46900177001953 -61.564998626708984 L -49.152000427246094 -62.08298873901367 L -48.8120002746582 -62.159000396728516 L -46.143001556396484 -62.696998596191406 L -43.4630012512207 -63.17900085449219 L -40.959999084472656 -63.57553482055664 L -40.77399826049805 -63.60499954223633 L -38.07600021362305 -63.974998474121094 L -35.37200164794922 -64.28800201416016 L -32.768001556396484 -64.53389739990234 L -32.6609992980957 -64.54399871826172 L -29.945999145507812 -64.74299621582031 L -27.226999282836914 -64.88600158691406 L -24.576000213623047 -64.96881103515625 L -24.506000518798828 -64.97100067138672 L -21.783000946044922 -65 L -19.06100082397461 -64.97100067138672 L -16.384000778198242 -64.88737487792969 L -16.34000015258789 -64.88600158691406 L -13.621000289916992 -64.74299621582031 L -10.906000137329102 -64.54399871826172 L -8.194999694824219 -64.28800201416016 L -8.192000389099121 -64.28765106201172 L -5.489999771118164 -63.974998474121094 L -2.7929999828338623 -63.60499954223633 L -0.10400000214576721 -63.17900085449219 L 0 -63.16029739379883 L 2.5759999752044678 -62.696998596191406 L 5.244999885559082 -62.159000396728516 L 7.9019999504089355 -61.564998626708984 L 8.192000389099121 -61.49381637573242 L 10.545999526977539 -60.91600036621094 L 13.175999641418457 -60.21099853515625 L 15.789999961853027 -59.45100021362305 L 16.384000778198242 -59.264888763427734 L 18.38800048828125 -58.637001037597656 L 20.9689998626709 -57.76900100708008 L 23.530000686645508 -56.84700012207031 L 26.07200050354004 -55.87099838256836 L 28.593000411987305 -54.84199905395508 L 31.091999053955078 -53.76100158691406 L 32.768001556396484 -52.99308776855469 L 33.56700134277344 -52.62699890136719 L 36.018001556396484 -51.44200134277344 L 38.444000244140625 -50.20600128173828 L 40.41102981567383 -49.152000427246094 L 40.84400177001953 -48.91999816894531 L 43.215999603271484 -47.58300018310547 L 45.558998107910156 -46.196998596191406 L 47.87300109863281 -44.76300048828125 L 49.152000427246094 -43.93218231201172 L 50.15599822998047 -43.279998779296875 L 52.40800094604492 -41.749000549316406 L 54.62799835205078 -40.172000885009766 L 56.81399917602539 -38.54899978637695 L 58.96500015258789 -36.880001068115234 L 61.08100128173828 -35.16699981689453 L 63.15999984741211 -33.409000396728516 L 63.88718032836914 -32.768001556396484 L 65.2020034790039 -31.608999252319336 L 65.53600311279297 -31.301986694335938 L 67.20700073242188 -29.766000747680664 L 69.1719970703125 -27.881000518798828 L 71.09700012207031 -25.95599937438965 L 72.98100280761719 -23.990999221801758 L 74.8239974975586 -21.98699951171875 L 76.625 -19.94499969482422 L 78.38200378417969 -17.864999771118164 L 79.58094024658203 -16.384000778198242 L 80.09500122070312 -15.74899959564209 L 81.76399993896484 -13.597999572753906 L 81.91999816894531 -13.387885093688965 L 83.38700103759766 -11.411999702453613 L 84.96399688720703 -9.192999839782715 L 86.49500274658203 -6.940999984741211 L 87.97799682617188 -4.6570000648498535 L 89.41200256347656 -2.3429999351501465 L 90.7979965209961 4.440892164675075e-17 L 92.13500213623047 2.371999979019165 L 93.4209976196289 4.771999835968018 L 94.65699768066406 7.197999954223633 L 95.1375732421875 8.192000389099121 L 95.84200286865234 9.64900016784668 L 96.97599792480469 12.12399959564209 L 98.05699920654297 14.623000144958496 L 98.30400085449219 15.228137969970703 L 99.08599853515625 17.143999099731445 L 100.06199645996094 19.68600082397461 L 100.98400115966797 22.24799919128418 L 101.85199737548828 24.827999114990234 L 102.66600036621094 27.426000595092773 L 103.4260025024414 30.040000915527344 L 104.13099670410156 32.66999816894531 L 104.15504455566406 32.768001556396484 L 104.77999877929688 35.314998626708984 L 105.3740005493164 37.97200012207031 L 105.91200256347656 40.64099884033203 L 106.39399719238281 43.31999969482422 L 106.81999969482422 46.00899887084961 L 107.19000244140625 48.707000732421875 L 107.50299835205078 51.4109992980957 L 107.75900268554688 54.12200164794922 L 107.95800018310547 56.83700180053711 L 108.10099792480469 59.555999755859375 L 108.18599700927734 62.27799987792969 L 108.21499633789062 65 L 98.30400085449219 65 L 98.26802825927734 65 L 98.21499633789062 65 L 98.18900299072266 62.48699951171875 L 98.11000061035156 59.974998474121094 L 97.97799682617188 57.46500015258789 L 97.79399871826172 54.95899963378906 L 97.55699920654297 52.457000732421875 L 97.26899719238281 49.959999084472656 L 97.1583480834961 49.152000427246094 L 96.9321060180664 47.5 L 96.9280014038086 47.470001220703125 L 96.53399658203125 44.987998962402344 L 96.08899688720703 42.513999938964844 L 95.77605438232422 40.959999084472656 L 95.59300231933594 40.05099868774414 L 95.04399871826172 37.597999572753906 L 94.44499969482422 35.15700149536133 L 93.80419158935547 32.768001556396484 L 93.79399871826172 32.72999954223633 L 93.09300231933594 30.31599998474121 L 92.34200286865234 27.917999267578125 L 91.54000091552734 25.535999298095703 L 90.68900299072266 23.17099952697754 L 89.78800201416016 20.825000762939453 L 88.83799743652344 18.49799919128418 L 87.923095703125 16.384000778198242 L 87.83999633789062 16.191999435424805 L 86.79399871826172 13.906999588012695 L 85.69999694824219 11.644000053405762 L 84.55899810791016 9.404999732971191 L 83.90896606445312 8.192000389099121 L 83.37200164794922 7.190000057220459 L 82.13800048828125 5 L 81.91999816894531 4.631326198577881 L 80.85900115966797 2.8369998931884766 L 79.53399658203125 0.7009999752044678 L 79.0790786743164 4.440892164675075e-17 L 78.16600036621094 -1.406999945640564 L 76.75299835205078 -3.4860000610351562 L 75.2969970703125 -5.533999919891357 L 73.79900360107422 -7.552000045776367 L 73.30272674560547 -8.192000389099121 L 72.25900268554688 -9.538000106811523 L 70.677001953125 -11.491000175476074 L 69.05500030517578 -13.40999984741211 L 67.39299774169922 -15.295999526977539 L 66.39263153076172 -16.384000778198242 L 65.69200134277344 -17.145999908447266 L 65.53600311279297 -17.30863380432129 L 63.95199966430664 -18.959999084472656 L 62.17499923706055 -20.73699951171875 L 60.361000061035156 -22.47599983215332 L 58.51100158691406 -24.177000045776367 L 58.05846405029297 -24.576000213623047 L 56.625999450683594 -25.839000701904297 L 54.70600128173828 -27.461999893188477 L 52.75299835205078 -29.042999267578125 L 50.768001556396484 -30.583999633789062 L 49.152000427246094 -31.783588409423828 L 48.75 -32.082000732421875 L 47.78460693359375 -32.768001556396484 L 46.70100021362305 -33.53799819946289 L 44.62300109863281 -34.95000076293945 L 42.51499938964844 -36.319000244140625 L 40.37900161743164 -37.64400100708008 L 38.215999603271484 -38.92300033569336 L 36.0260009765625 -40.15700149536133 L 34.52756118774414 -40.959999084472656 L 33.81100082397461 -41.34400177001953 L 32.768001556396484 -41.87551498413086 L 31.57200050354004 -42.48500061035156 L 29.30900001525879 -43.57899856567383 L 27.02400016784668 -44.625 L 24.718000411987305 -45.62300109863281 L 22.391000747680664 -46.573001861572266 L 20.045000076293945 -47.4739990234375 L 17.68000030517578 -48.32500076293945 L 16.384000778198242 -48.7613525390625 L 15.29800033569336 -49.12699890136719 L 15.218173027038574 -49.152000427246094 L 12.899999618530273 -49.87799835205078 L 10.487000465393066 -50.57899856567383 L 8.192000389099121 -51.194339752197266 L 8.059000015258789 -51.22999954223633 L 5.618000030517578 -51.82899856567383 L 3.1659998893737793 -52.37799835205078 L 0.7020000219345093 -52.874000549316406 L 0 -53.00032043457031 L -1.7710000276565552 -53.319000244140625 L -4.254000186920166 -53.7130012512207 L -6.74399995803833 -54.05400085449219 L -8.192000389099121 -54.22107696533203 L -9.239999771118164 -54.34199905395508 L -11.741999626159668 -54.57899856567383 L -14.24899959564209 -54.76300048828125 L -16.384000778198242 -54.87532424926758 L -16.757999420166016 -54.89500045776367 L -19.270000457763672 -54.9739990234375 L -21.783000946044922 -55 L -24.29599952697754 -54.9739990234375 L -24.576000213623047 -54.96519470214844 L -26.808000564575195 -54.89500045776367 L -29.31800079345703 -54.76300048828125 L -31.825000762939453 -54.57899856567383 L -32.768001556396484 -54.48967361450195 L -34.32699966430664 -54.34199905395508 L -36.823001861572266 -54.05400085449219 L -39.3129997253418 -53.7130012512207 L -40.959999084472656 -53.4515495300293 L -41.79499816894531 -53.319000244140625 L -44.26900100708008 -52.874000549316406 L -46.731998443603516 -52.37799835205078 L -48.069000244140625 -52.07899856567383 L -45.89400100708008 -49.48699951171875 L -43.707000732421875 -49.928001403808594 L -41.29499816894531 -50.361000061035156 L -40.959999084472656 -50.41415786743164 L -38.875 -50.744998931884766 L -36.446998596191406 -51.07699966430664 L -34.01300048828125 -51.35900115966797 L -32.768001556396484 -51.47691345214844 L -31.573999404907227 -51.59000015258789 L -29.1299991607666 -51.76900100708008 L -26.683000564575195 -51.89699935913086 L -24.576000213623047 -51.9632453918457 L -24.233999252319336 -51.9739990234375 L -21.783000946044922 -52 L -19.33300018310547 -51.9739990234375 L -18.97321319580078 -51.962738037109375 L -18.602121353149414 -51.95111846923828 L -18.329164505004883 -51.94257736206055 L -18.183000564575195 -51.9379997253418 L -18.97100067138672 -51.32699966430664 L -19.802000045776367 -50.529998779296875 L -20.545000076293945 -49.650001525878906 L -20.883451461791992 -49.152000427246094 L -21.191999435424805 -48.698001861572266 L -21.736000061035156 -47.68299865722656 L -22.17099952697754 -46.617000579833984 L -22.493000030517578 -45.512001037597656 L -22.575103759765625 -45.055999755859375 L -22.69700050354004 -44.37900161743164 L -22.7810001373291 -43.22999954223633 L -22.7450008392334 -42.07899856567383 L -22.590892791748047 -40.959999084472656 L -22.58799934387207 -40.93899917602539 L -22.31399917602539 -39.82099914550781 L -21.923999786376953 -38.73699951171875 L -21.42300033569336 -37.70100021362305 L -20.904043197631836 -36.86399841308594 L -20.81599998474121 -36.72200012207031 L -20.110000610351562 -35.8120002746582 L -19.295000076293945 -34.965999603271484 L -19.730937957763672 -34.97195816040039 L -21.783000946044922 -35 L -23.878000259399414 -34.97800064086914 L -24.576000213623047 -34.955989837646484 L -25.97100067138672 -34.9119987487793 L -28.062000274658203 -34.803001403808594 L -30.150999069213867 -34.64899826049805 L -32.236000061035156 -34.45199966430664 L -32.768001556396484 -34.39039993286133 L -33.18600082397461 -34.34199905395508 L -32.768001556396484 -33.8438835144043 L -31.865156173706055 -32.768001556396484 L -30.858999252319336 -31.569000244140625 L -29.899999618530273 -31.65999984741211 L -27.874000549316406 -31.80900001525879 L -25.844999313354492 -31.915000915527344 L -23.815000534057617 -31.979000091552734 L -21.783000946044922 -32 L -19.75200080871582 -31.979000091552734 L -17.722000122070312 -31.915000915527344 L -16.384000778198242 -31.84510040283203 L -15.692999839782715 -31.80900001525879 L -13.666999816894531 -31.65999984741211 L -11.644000053405762 -31.4689998626709 L -9.62600040435791 -31.235000610351562 L -7.613999843597412 -30.958999633789062 L -5.60699987411499 -30.642000198364258 L -3.6080000400543213 -30.281999588012695 L -1.6160000562667847 -29.8799991607666 L 0 -29.5188045501709 L 0.3659999966621399 -29.437000274658203 L 2.3389999866485596 -28.952999114990234 L 4.301000118255615 -28.427000045776367 L 6.251999855041504 -27.860000610351562 L 8.190999984741211 -27.25200080871582 L 8.192000389099121 -27.251663208007812 L 10.116000175476074 -26.604999542236328 L 12.027000427246094 -25.916000366210938 L 13.923999786376953 -25.187999725341797 L 15.42487621307373 -24.576000213623047 L 15.805000305175781 -24.42099952697754 L 16.384000778198242 -24.17032814025879 L 17.66900062561035 -23.61400032043457 L 19.517000198364258 -22.76799964904785 L 21.34600067138672 -21.884000778198242 L 23.1560001373291 -20.961999893188477 L 24.945999145507812 -20.00200080871582 L 26.715999603271484 -19.003999710083008 L 28.46500015258789 -17.969999313354492 L 30.19099998474121 -16.899999618530273 z" fill="none" stroke="rgb(0,0,255)" stroke-width="0.01mm" />
</svg>