solid OpenSCAD_Model
  facet normal -1 0 0
    outer loop
      vertex 0 50 0
      vertex 0 48 0.999994
      vertex 0 50 29
    endloop
  endfacet
  facet normal -1 0 0
    outer loop
      vertex 0 50 0
      vertex 0 2 0.999994
      vertex 0 48 0.999994
    endloop
  endfacet
  facet normal -1 -0 0
    outer loop
      vertex 0 2 0.999994
      vertex 0 0 0
      vertex 0 2 28
    endloop
  endfacet
  facet normal -1 0 0
    outer loop
      vertex 0 0 0
      vertex 0 2 0.999994
      vertex 0 50 0
    endloop
  endfacet
  facet normal -1 0 0
    outer loop
      vertex 0 48 28
      vertex 0 50 29
      vertex 0 48 0.999994
    endloop
  endfacet
  facet normal -1 0 0
    outer loop
      vertex 0 2 28
      vertex 0 50 29
      vertex 0 48 28
    endloop
  endfacet
  facet normal -1 0 0
    outer loop
      vertex 0 2 28
      vertex 0 0 29
      vertex 0 50 29
    endloop
  endfacet
  facet normal -1 0 0
    outer loop
      vertex 0 0 29
      vertex 0 2 28
      vertex 0 0 0
    endloop
  endfacet
  facet normal -0 0 1
    outer loop
      vertex 0 50 29
      vertex 100 0 29
      vertex 100 50 29
    endloop
  endfacet
  facet normal 0 0 1
    outer loop
      vertex 100 0 29
      vertex 0 50 29
      vertex 0 0 29
    endloop
  endfacet
  facet normal 1 -0 0
    outer loop
      vertex 100 0 29
      vertex 100 50 0
      vertex 100 50 29
    endloop
  endfacet
  facet normal 1 0 0
    outer loop
      vertex 100 50 0
      vertex 100 0 29
      vertex 100 0 0
    endloop
  endfacet
  facet normal 0 1 -0
    outer loop
      vertex 100 50 0
      vertex 0 50 29
      vertex 100 50 29
    endloop
  endfacet
  facet normal 0 1 0
    outer loop
      vertex 0 50 29
      vertex 100 50 0
      vertex 0 50 0
    endloop
  endfacet
  facet normal 0 0 -1
    outer loop
      vertex 0 0 0
      vertex 100 50 0
      vertex 100 0 0
    endloop
  endfacet
  facet normal -0 0 -1
    outer loop
      vertex 100 50 0
      vertex 0 0 0
      vertex 0 50 0
    endloop
  endfacet
  facet normal 0 -1 0
    outer loop
      vertex 0 0 0
      vertex 100 0 29
      vertex 0 0 29
    endloop
  endfacet
  facet normal 0 -1 -0
    outer loop
      vertex 100 0 29
      vertex 0 0 0
      vertex 100 0 0
    endloop
  endfacet
  facet normal 0 0 -1
    outer loop
      vertex 0 2 28
      vertex 96 48 28
      vertex 96 2 28
    endloop
  endfacet
  facet normal -0 0 -1
    outer loop
      vertex 96 48 28
      vertex 0 2 28
      vertex 0 48 28
    endloop
  endfacet
  facet normal -1 0 0
    outer loop
      vertex 96 2 0.999994
      vertex 96 48 28
      vertex 96 48 0.999994
    endloop
  endfacet
  facet normal -1 -0 0
    outer loop
      vertex 96 48 28
      vertex 96 2 0.999994
      vertex 96 2 28
    endloop
  endfacet
  facet normal -0 0 1
    outer loop
      vertex 0 48 0.999994
      vertex 96 2 0.999994
      vertex 96 48 0.999994
    endloop
  endfacet
  facet normal 0 0 1
    outer loop
      vertex 96 2 0.999994
      vertex 0 48 0.999994
      vertex 0 2 0.999994
    endloop
  endfacet
  facet normal 0 1 -0
    outer loop
      vertex 96 2 0.999994
      vertex 0 2 28
      vertex 96 2 28
    endloop
  endfacet
  facet normal 0 1 0
    outer loop
      vertex 0 2 28
      vertex 96 2 0.999994
      vertex 0 2 0.999994
    endloop
  endfacet
  facet normal 0 -1 0
    outer loop
      vertex 0 48 0.999994
      vertex 96 48 28
      vertex 0 48 28
    endloop
  endfacet
  facet normal 0 -1 -0
    outer loop
      vertex 96 48 28
      vertex 0 48 0.999994
      vertex 96 48 0.999994
    endloop
  endfacet
endsolid OpenSCAD_Model
