<?xml version="1.0" standalone="no"?>
<!DOCTYPE svg PUBLIC "-//W3C//DTD SVG 1.1//EN"
  "http://www.w3.org/Graphics/SVG/1.1/DTD/svg11.dtd">
<svg width="202mm" height="60.900001525878906mm" viewBox="-101 -30.450000762939453 202 60.900001525878906" xmlns="http://www.w3.org/2000/svg" version="1.1">
	<title>svgOutput</title>
	<desc>made with tinkercad</desc>
<path d="M -94.5790023803711 -23.549999237060547 L -100 -28.97100067138672 L -100 -29.450000762939453 L -65.53600311279297 -29.450000762939453 L -50 -29.450000762939453 L -32.768001556396484 -29.450000762939453 L 0 -29.450000762939453 L 32.768001556396484 -29.450000762939453 L 65.53600311279297 -29.450000762939453 L 100 -29.450000762939453 L 100 -28.97100067138672 L 94.5790023803711 -23.549999237060547 L 65.53600311279297 -23.549999237060547 L 50 -23.549999237060547 L 50 -21.549999237060547 L 65.53600311279297 -21.549999237060547 L 92.5790023803711 -21.549999237060547 L 86.5790023803711 -15.550000190734863 L 65.53600311279297 -15.550000190734863 L 50 -15.550000190734863 L 50 -13.550000190734863 L 65.53600311279297 -13.550000190734863 L 84.5790023803711 -13.550000190734863 L 78.5790023803711 -7.550000190734863 L 65.53600311279297 -7.550000190734863 L 50 -7.550000190734863 L 50 -5.550000190734863 L 65.53600311279297 -5.550000190734863 L 76.5790023803711 -5.550000190734863 L 70.5790023803711 0.4499999880790711 L 65.53600311279297 0.4499999880790711 L 50 0.4499999880790711 L 50 2.450000047683716 L 65.53600311279297 2.450000047683716 L 68.5790023803711 2.450000047683716 L 65.53600311279297 5.493000030517578 L 62.57899856567383 8.449999809265137 L 50 8.449999809265137 L 50 10.449999809265137 L 60.57899856567383 10.449999809265137 L 54.57899856567383 16.450000762939453 L 50 16.450000762939453 L 50 18.450000762939453 L 52.57899856567383 18.450000762939453 L 50 21.02899932861328 L 41.57899856567383 29.450000762939453 L 32.768001556396484 29.450000762939453 L 0 29.450000762939453 L -5 29.450000762939453 L -32.768001556396484 29.450000762939453 L -37.099998474121094 29.450000762939453 L -41.57899856567383 29.450000762939453 L -50 21.02899932861328 L -52.57899856567383 18.450000762939453 L -50 18.450000762939453 L -50 16.450000762939453 L -54.57899856567383 16.450000762939453 L -60.57899856567383 10.449999809265137 L -50 10.449999809265137 L -50 8.449999809265137 L -62.57899856567383 8.449999809265137 L -65.53600311279297 5.493000030517578 L -68.5790023803711 2.450000047683716 L -65.53600311279297 2.450000047683716 L -50 2.450000047683716 L -50 0.4499999880790711 L -65.53600311279297 0.4499999880790711 L -70.5790023803711 0.4499999880790711 L -76.5790023803711 -5.550000190734863 L -65.53600311279297 -5.550000190734863 L -50 -5.550000190734863 L -50 -7.550000190734863 L -65.53600311279297 -7.550000190734863 L -78.5790023803711 -7.550000190734863 L -84.5790023803711 -13.550000190734863 L -65.53600311279297 -13.550000190734863 L -50 -13.550000190734863 L -50 -15.550000190734863 L -65.53600311279297 -15.550000190734863 L -86.5790023803711 -15.550000190734863 L -92.5790023803711 -21.549999237060547 L -65.53600311279297 -21.549999237060547 L -50 -21.549999237060547 L -50 -23.549999237060547 L -65.53600311279297 -23.549999237060547 L -94.5790023803711 -23.549999237060547 M 5 -16.049999237060547 L 5 16.049999237060547 L 32.768001556396484 16.049999237060547 L 37.099998474121094 16.049999237060547 L 37.099998474121094 4.440892164675075e-17 L 37.099998474121094 -5.550000190734863 L 37.099998474121094 -15.550000190734863 L 37.099998474121094 -16.049999237060547 L 32.768001556396484 -16.049999237060547 L 5 -16.049999237060547 M -5 16.049999237060547 L -5 -16.049999237060547 L -32.768001556396484 -16.049999237060547 L -37.099998474121094 -16.049999237060547 L -37.099998474121094 -13.550000190734863 L -37.099998474121094 4.440892164675075e-17 L -37.099998474121094 16.049999237060547 L -32.768001556396484 16.049999237060547 L -5 16.049999237060547 z" fill="none" stroke="rgb(0,0,255)" stroke-width="0.01mm" />
</svg>