<?xml version="1.0" standalone="no"?>
<!DOCTYPE svg PUBLIC "-//W3C//DTD SVG 1.1//EN"
  "http://www.w3.org/Graphics/SVG/1.1/DTD/svg11.dtd">
<svg width="102mm" height="41.39400100708008mm" viewBox="-51 -20.69700050354004 102 41.39400100708008" xmlns="http://www.w3.org/2000/svg" version="1.1">
	<title>svgOutput</title>
	<desc>made with tinkercad</desc>
<path d="M 11.716902732849121 7.703395843505859 L 11.927397727966309 8.067903518676758 L 11.935999870300293 8.082799911499023 L 11.937426567077637 8.085269927978516 L 11.999078750610352 8.192000389099121 L 12.151000022888184 8.454999923706055 L 12.606528282165527 8.192000389099121 L 16.384000778198242 6.0110697746276855 L 26.79545021057129 4.440892164675075e-17 L 27.489974975585938 -0.40098518133163447 L 27.489992141723633 -0.4009953141212463 L 27.489999771118164 -0.40099999308586115 L 27.387001037597656 -0.5794392228126526 L 27.275100708007812 -0.7732999920845032 L 27.05608558654785 -1.1527873277664185 L 25.998455047607422 -2.9852566719055176 L 25.69696807861328 -3.507620096206665 L 25.688261032104492 -3.52270245552063 L 25.35729217529297 -4.0960001945495605 L 24.92484474182129 -4.845076084136963 L 24.893356323242188 -4.899620056152344 L 24.893484115600586 -4.8997483253479 L 25.11367416381836 -5.119999885559082 L 25.206647872924805 -5.2129998207092285 L 25.411705017089844 -5.4180588722229 L 25.413135528564453 -5.419547080993652 L 25.715824127197266 -5.734529495239258 L 25.927471160888672 -5.955235481262207 L 26.087234497070312 -6.129000186920166 L 26.10100746154785 -6.144000053405762 L 26.384294509887695 -6.452529430389404 L 26.624000549316406 -6.7242608070373535 L 26.674882888793945 -6.7819414138793945 L 26.96929359436035 -7.115882396697998 L 27.013273239135742 -7.168000221252441 L 27.252235412597656 -7.451176643371582 L 27.448646545410156 -7.685882568359375 L 27.764101028442383 -8.075296401977539 L 27.858362197875977 -8.192000389099121 L 27.865955352783203 -8.201400756835938 L 27.887069702148438 -8.192000389099121 L 28.672000885009766 -7.842548370361328 L 29.33464813232422 -7.547536373138428 L 29.733430862426758 -7.370318412780762 L 29.860822677612305 -7.313705921173096 L 31.818965911865234 -6.442070484161377 L 32.21929931640625 -6.263800144195557 L 32.61199951171875 -6.089000225067139 L 32.768001556396484 -6.4393630027771 L 38.67100143432617 -19.69700050354004 L 50 -19.69700050354004 L 50 19.69700050354004 L 32.768001556396484 19.69700050354004 L 16.384000778198242 19.69700050354004 L 0 19.69700050354004 L -16.384000778198242 19.69700050354004 L -32.768001556396484 19.69700050354004 L -50 19.69700050354004 L -50 -19.69700050354004 L -47.46500015258789 -19.69700050354004 L -38.27199935913086 -19.69700050354004 L -36.93312072753906 -13.39857006072998 L -36.933101654052734 -13.398480415344238 L -36.93299865722656 -13.39799976348877 L -36.51259994506836 -13.48740005493164 L -36.47091293334961 -13.496214866638184 L -36.04228210449219 -13.58747386932373 L -33.9882926940918 -14.023881912231445 L -33.42428970336914 -14.143644332885742 L -32.768001556396484 -14.28322982788086 L -32.5198860168457 -14.336000442504883 L -31.855804443359375 -14.477242469787598 L -31.852745056152344 -14.477892875671387 L -31.85222625732422 -14.47800350189209 L -31.780075073242188 -14.336000442504883 L -31.65170669555664 -14.083353042602539 L -31.519941329956055 -13.824764251708984 L -31.408353805541992 -13.616823196411133 L -31.244823455810547 -13.312000274658203 L -31.200706481933594 -13.229764938354492 L -30.98482322692871 -12.847412109375 L -30.766176223754883 -12.459529876708984 L -30.758167266845703 -12.445977210998535 L -30.719999313354492 -12.381394386291504 L -30.664806365966797 -12.288000106811523 L -30.542646408081055 -12.081294059753418 L -30.424129486083984 -11.88078784942627 L -30.42241096496582 -11.87788200378418 L -30.191234588623047 -11.5049409866333 L -30.036725997924805 -11.255593299865723 L -30.030235290527344 -11.2451171875 L -29.87211799621582 -11.002176284790039 L -29.66246795654297 -10.679417610168457 L -29.630474090576172 -10.63016414642334 L -29.648902893066406 -10.609699249267578 L -29.981828689575195 -10.239999771118164 L -30.706302642822266 -9.435504913330078 L -31.02952003479004 -9.077229499816895 L -31.092294692993164 -9.007647514343262 L -31.82664680480957 -8.192000389099121 L -32.497623443603516 -7.446746349334717 L -32.768001556396484 -7.146462917327881 L -32.790828704833984 -7.121108531951904 L -32.81930160522461 -7.089399814605713 L -33.029422760009766 -6.856122970581055 L -33.106998443603516 -6.769999980926514 L -32.768001556396484 -6.464786529541016 L -25.587570190429688 4.440892164675075e-17 L -19.943185806274414 5.0818328857421875 L -19.943056106567383 5.081949234008789 L -19.94300079345703 5.081999778747559 L -19.655399322509766 4.762599945068359 L -19.626937866210938 4.730891227722168 L -19.587299346923828 4.687015056610107 L -19.362247467041016 4.436903953552246 L -17.928293228149414 2.844352960586548 L -17.542999267578125 2.416494846343994 L -16.470565795898438 1.2252700328826904 L -16.46747398376465 1.2218362092971802 L -16.46727752685547 1.2219362258911133 L -16.460161209106445 1.2255691289901733 L -16.384000778198242 1.264449954032898 L -16.32318115234375 1.295498251914978 L -15.876646995544434 1.523411750793457 L -15.475587844848633 1.7173529863357544 L -15.080293655395508 1.907941222190857 L -14.774506568908691 2.0480000972747803 L -14.680882453918457 2.0908823013305664 L -14.4025297164917 2.2168824672698975 L -14.336000442504883 2.245728015899658 L -13.999588012695312 2.3915882110595703 L -13.782588005065918 2.4854705333709717 L -13.376117706298828 2.651352882385254 L -13.028176307678223 2.791764736175537 L -12.559718132019043 2.9711148738861084 L -12.408149719238281 3.0290138721466064 L -12.410268783569336 3.0491509437561035 L -12.41032600402832 3.0496973991394043 L -12.412672996520996 3.072000026702881 L -12.520432472229004 4.0960001945495605 L -12.576390266418457 4.627752780914307 L -12.636706352233887 5.200882434844971 L -12.825909614562988 6.997139930725098 L -12.856689453125 7.289353847503662 L -12.902567863464355 7.725124359130859 L -12.906999588012695 7.767499923706055 L -12.95168399810791 8.192000389099121 L -12.95199966430664 8.194999694824219 L -1.6091967507320983e-14 9.556665420532227 L 4.663452625274658 10.046942710876465 L 4.664000034332275 10.04699993133545 L 4.709000110626221 9.619500160217285 L 4.754742622375488 9.183571815490723 L 4.858998775482178 8.192000389099121 L 4.975046634674072 7.0882792472839355 L 5.038912773132324 6.479055881500244 L 5.074172019958496 6.144000053405762 L 5.205470085144043 4.896312236785889 L 5.206666469573975 4.884945392608643 L 5.206696510314941 4.884658336639404 L 5.2071533203125 4.880317211151123 L 5.367208957672119 4.854853630065918 L 5.862882137298584 4.776647090911865 L 6.144000053405762 4.727185249328613 L 6.232646942138672 4.711588382720947 L 6.661677360534668 4.634432792663574 L 6.664411544799805 4.633941173553467 L 6.8958234786987305 4.587411880493164 L 7.326411724090576 4.500941276550293 L 7.693294048309326 4.420647144317627 L 8.108475685119629 4.327815055847168 L 8.12211799621582 4.324764728546143 L 8.192000389099121 4.307512283325195 L 8.418999671936035 4.251470565795898 L 8.844882011413574 4.146764755249023 L 9.034552574157715 4.0960001945495605 L 9.124882698059082 4.071823596954346 L 9.55335521697998 3.9570765495300293 L 9.553389549255371 3.957134962081909 L 9.55577564239502 3.9612679481506348 L 9.633586883544922 4.0960001945495605 L 10.224973678588867 5.119999885559082 L 10.239999771118164 5.146018028259277 L 10.357272148132324 5.349076747894287 L 10.6588716506958 5.871326446533203 L 10.8163423538208 6.144000053405762 L 11.716902732849121 7.703395843505859 z" fill="none" stroke="rgb(0,0,255)" stroke-width="0.01mm" />
</svg>