<?xml version="1.0" standalone="no"?>
<!DOCTYPE svg PUBLIC "-//W3C//DTD SVG 1.1//EN"
  "http://www.w3.org/Graphics/SVG/1.1/DTD/svg11.dtd">
<svg width="102mm" height="44.75400161743164mm" viewBox="-51 -22.37700080871582 102 44.75400161743164" xmlns="http://www.w3.org/2000/svg" version="1.1">
	<title>svgOutput</title>
	<desc>made with tinkercad</desc>
<path d="M -37.23018264770508 -17.281553268432617 L -36.23273468017578 -17.31629753112793 L -36.180335998535156 -17.31812286376953 L -36.177608489990234 -17.318218231201172 L -36.16979217529297 -17.31848907470703 L -36.169105529785156 -17.318513870239258 L -36.16889953613281 -17.31852149963379 L -36.06229019165039 -16.979677200317383 L -36.041114807128906 -16.912511825561523 L -35.863304138183594 -16.384000778198242 L -35.83202362060547 -16.291025161743164 L -35.78117370605469 -16.141075134277344 L -35.558860778808594 -15.52371883392334 L -35.519290924072266 -15.414032936096191 L -35.49855041503906 -15.359999656677246 L -35.470001220703125 -15.285603523254395 L -35.23529052734375 -14.672380447387695 L -35.22462844848633 -14.646254539489746 L -35.19137954711914 -14.564776420593262 L -35.09780502319336 -14.336000442504883 L -34.97402572631836 -14.033371925354004 L -34.97441101074219 -14.03307056427002 L -34.974853515625 -14.032723426818848 L -35.810726165771484 -13.379594802856445 L -36.86399841308594 -12.5565824508667 L -37.207725524902344 -12.288000106811523 L -38.849632263183594 -11.005037307739258 L -38.976436614990234 -10.905996322631836 L -39.09482192993164 -10.81352710723877 L -39.26604461669922 -10.679804801940918 L -39.30739974975586 -10.64739990234375 L -39.737998962402344 -10.310999870300293 L -38.08232498168945 -8.192000389099121 L -32.768001556396484 -1.3905055522918701 L -31.681533813476562 4.440892164675075e-17 L -27.381057739257812 5.503925323486328 L -27.381019592285156 5.503973960876465 L -27.381000518798828 5.504000186920166 L -27.159753799438477 5.331103801727295 L -26.95039939880371 5.167500019073486 L -26.50604820251465 4.820377826690674 L -25.761554718017578 4.238722324371338 L -24.576000213623047 3.312361001968384 L -22.95787239074707 2.0480000972747803 L -22.61709213256836 1.7817234992980957 L -22.61653709411621 1.78128981590271 L -22.614513397216797 1.7797083854675293 L -22.331073760986328 1.9931983947753906 L -22.27449607849121 2.035198450088501 L -22.25649070739746 2.0480000972747803 L -21.739784240722656 2.4153635501861572 L -21.61048698425293 2.506826400756836 L -21.06833839416504 2.8762478828430176 L -20.971843719482422 2.9416775703430176 L -20.479999542236328 3.2607109546661377 L -20.421430587768555 3.2987024784088135 L -20.306190490722656 3.3736777305603027 L -20.298519134521484 3.3784284591674805 L -20.207263946533203 3.4349422454833984 L -19.7185115814209 3.7369894981384277 L -19.718994140625 3.7386698722839355 L -19.722780227661133 3.751879930496216 L -19.72311019897461 3.753030300140381 L -19.821435928344727 4.0960001945495605 L -20.229598999023438 5.519731521606445 L -20.99588394165039 8.192000389099121 L -21.07902717590332 8.481947898864746 L -21.160018920898438 8.764307022094727 L -21.234399795532227 9.023699760437012 L -21.385000228881836 9.548999786376953 L -21.384754180908203 9.549070358276367 L -16.384000778198242 10.982967376708984 L -2.092010021209717 15.080997467041016 L -2.0920000076293945 15.081000328063965 L -1.9414000511169434 14.5556001663208 L -1.8979194164276123 14.404173851013184 L -1.786026954650879 14.013562202453613 L -0.7184462547302246 10.289264678955078 L -0.4258347153663635 9.268421173095703 L -0.4258187711238861 9.26842212677002 L -0.42324554920196533 9.268452644348145 L -0.397198349237442 9.268768310546875 L -0.194564551115036 9.267474174499512 L 0 9.269895553588867 L 0.194564551115036 9.267474174499512 L 0.6980248093605042 9.265462875366211 L 0.7936528921127319 9.264421463012695 L 1.4498512744903564 9.243760108947754 L 1.5873057842254639 9.239421844482422 L 2.0480000972747803 9.215572357177734 L 2.241851329803467 9.205536842346191 L 2.3791322708129883 9.198421478271484 L 2.495239734649658 9.18991756439209 L 3.068390130996704 9.146899223327637 L 3.068758487701416 9.147911071777344 L 3.0689053535461426 9.148314476013184 L 3.074032783508301 9.162402153015137 L 3.074052333831787 9.162456512451172 L 3.075908660888672 9.167556762695312 L 3.077526092529297 9.172000885009766 L 3.4662272930145264 10.239999771118164 L 3.7025504112243652 10.889324188232422 L 4.0960001945495605 11.97039794921875 L 4.2115888595581055 12.288000106811523 L 4.7564239501953125 13.785033226013184 L 4.949100017547607 14.314599990844727 L 5.136000156402588 14.82800006866455 L 8.192000389099121 13.715784072875977 L 16.384000778198242 10.73434829711914 L 23.369531631469727 8.192000389099121 L 23.995866775512695 7.964048385620117 L 23.996000289916992 7.964000225067139 L 23.80900001525879 7.450399875640869 L 23.791109085083008 7.401065349578857 L 23.61623191833496 6.920647621154785 L 23.292875289916992 6.032750129699707 L 22.58789825439453 4.0960001945495605 L 21.93798828125 2.310532569885254 L 21.927452087402344 2.2815887928009033 L 21.926610946655273 2.279277801513672 L 21.932254791259766 2.275327205657959 L 22.21704864501953 2.0759835243225098 L 22.2564640045166 2.0480000972747803 L 22.27230453491211 2.0367538928985596 L 22.27449607849121 2.035198450088501 L 22.3680419921875 1.965776801109314 L 22.527999877929688 1.847186803817749 L 22.895313262939453 1.5748677253723145 L 23.020793914794922 1.4780248403549194 L 23.53897476196289 1.0755454301834106 L 23.60270881652832 1.0240000486373901 L 24.048892974853516 0.6631487607955933 L 24.15580177307129 0.5767189860343933 L 24.244661331176758 0.5015702247619629 L 24.576000213623047 0.22116695344448095 L 24.6832332611084 0.13041812181472784 L 24.68339729309082 0.130529135465622 L 24.708576202392578 0.14751516282558447 L 26.220436096191406 1.1674460172653198 L 28.72478485107422 2.8564789295196533 L 28.774768829345703 2.890190839767456 L 28.823579788208008 2.9231276512145996 L 29.018321990966797 3.0545380115509033 L 29.242000579833984 3.205399990081787 L 29.69499969482422 3.510999917984009 L 32.063270568847656 4.440892164675075e-17 L 32.768001556396484 -1.0447736978530884 L 38.10300064086914 -8.954000473022461 L 40.91780471801758 -13.12771224975586 L 40.91796112060547 -13.12794303894043 L 40.917999267578125 -13.128000259399414 L 40.584041595458984 -13.353243827819824 L 40.464900970458984 -13.433600425720215 L 40.42137145996094 -13.463000297546387 L 40.1108512878418 -13.672511100769043 L 36.785770416259766 -15.915603637695312 L 36.0913200378418 -16.384000778198242 L 35.972591400146484 -16.464078903198242 L 35.97151565551758 -16.464805603027344 L 35.90550231933594 -16.50933074951172 L 35.9055290222168 -16.509408950805664 L 36.01872634887695 -16.845693588256836 L 36.041114807128906 -16.912511825561523 L 36.07600021362305 -17.023759841918945 L 36.2726936340332 -17.65020751953125 L 36.27643966674805 -17.662975311279297 L 36.317298889160156 -17.8022403717041 L 36.49885559082031 -18.428245544433594 L 36.499942779541016 -18.431991577148438 L 36.499942779541016 -18.43199920654297 L 36.5355224609375 -18.564760208129883 L 36.70576858520508 -19.198644638061523 L 36.73353576660156 -19.311628341674805 L 36.86399841308594 -19.846118927001953 L 36.869773864746094 -19.86977767944336 L 36.86977767944336 -19.869787216186523 L 36.94476318359375 -19.872400283813477 L 38.723148345947266 -19.934354782104492 L 40.02876663208008 -19.979686737060547 L 40.959999084472656 -20.01201820373535 L 41.80255889892578 -20.041271209716797 L 42.09626007080078 -20.051551818847656 L 42.36589813232422 -20.06100082397461 L 42.409427642822266 -20.062515258789062 L 42.9119987487793 -20.079999923706055 L 42.867000579833984 -21.37700080871582 L 49.152000427246094 -21.37700080871582 L 50 -21.37700080871582 L 50 -16.384000778198242 L 50 4.440892164675075e-17 L 50 21.37700080871582 L 32.768001556396484 21.37700080871582 L 16.384000778198242 21.37700080871582 L 0 21.37700080871582 L -3.8966774940490723 21.37700080871582 L -3.896777391433716 21.37700080871582 L -16.384000778198242 21.37700080871582 L -32.768001556396484 21.37700080871582 L -50 21.37700080871582 L -50 4.440892164675075e-17 L -50 -16.384000778198242 L -50 -21.37700080871582 L -42.361000061035156 -21.37700080871582 L -42.2120246887207 -17.108686447143555 L -42.21200180053711 -17.108068466186523 L -42.21200180053711 -17.107999801635742 L -41.908687591552734 -17.11860466003418 L -41.66569900512695 -17.127099990844727 L -41.613197326660156 -17.128870010375977 L -41.238895416259766 -17.14187240600586 L -37.23018264770508 -17.281553268432617 z" fill="none" stroke="rgb(0,0,255)" stroke-width="0.01mm" />
</svg>