<?xml version="1.0" standalone="no"?>
<!DOCTYPE svg PUBLIC "-//W3C//DTD SVG 1.1//EN"
  "http://www.w3.org/Graphics/SVG/1.1/DTD/svg11.dtd">
<svg width="102mm" height="48.012001037597656mm" viewBox="-51 -24.006000518798828 102 48.012001037597656" xmlns="http://www.w3.org/2000/svg" version="1.1">
	<title>svgOutput</title>
	<desc>made with tinkercad</desc>
<path d="M -15.92139720916748 5.926715850830078 L -15.570743560791016 6.0965447425842285 L -15.466878890991211 6.144000053405762 L -15.216423988342285 6.258431911468506 L -14.944439888000488 6.382945537567139 L -14.932565689086914 6.388125896453857 L -14.44594955444336 6.600424289703369 L -14.336000442504883 6.647990703582764 L -14.171629905700684 6.7191009521484375 L -13.810591697692871 6.866326808929443 L -13.533548355102539 6.979556560516357 L -13.523211479187012 6.983515739440918 L -13.254171371459961 7.086560249328613 L -12.619451522827148 7.329085826873779 L -12.517251968383789 7.365861892700195 L -12.516727447509766 7.366050720214844 L -12.603638648986816 8.192000389099121 L -12.788576126098633 9.949524879455566 L -12.897571563720703 10.987428665161133 L -12.95199966430664 11.503999710083008 L -12.951821327209473 11.504018783569336 L -8.192000389099121 12.004426956176758 L -5.494686603546143 12.288000106811523 L 0 12.865665435791016 L 4.663748741149902 13.355973243713379 L 4.664000034332275 13.355999946594238 L 4.71828556060791 12.839285850524902 L 4.723875522613525 12.78632640838623 L 4.776253700256348 12.288000106811523 L 4.8841552734375 11.261425971984863 L 4.991610050201416 10.239999771118164 L 5.098720073699951 9.22185230255127 L 5.099180698394775 9.217473030090332 L 5.326286792755127 9.184131622314453 L 5.478758811950684 9.16277027130127 L 5.494953155517578 9.160501480102539 L 5.790284156799316 9.113420486450195 L 6.072950839996338 9.068641662597656 L 6.098785877227783 9.06454849243164 L 6.144000053405762 9.056371688842773 L 6.558178901672363 8.981467247009277 L 6.852731704711914 8.928548812866211 L 7.234540939331055 8.85157585144043 L 7.527925968170166 8.792431831359863 L 7.528064727783203 8.792401313781738 L 8.059404373168945 8.675750732421875 L 8.192000389099121 8.64622688293457 L 8.35123348236084 8.610770225524902 L 8.729377746582031 8.517914772033691 L 9.019649505615234 8.446318626403809 L 9.237903594970703 8.38907241821289 L 9.243237495422363 8.387673377990723 L 9.532341957092285 8.31024169921875 L 9.727886199951172 8.25481128692627 L 9.957115173339844 8.192000389099121 L 10.069994926452637 8.161069869995117 L 10.087857246398926 8.192000389099121 L 10.089797973632812 8.19536018371582 L 10.239999771118164 8.45544147491455 L 11.097769737243652 9.94071102142334 L 11.270550727844238 10.239999771118164 L 11.864530563354492 11.268888473510742 L 11.891142845153809 11.3149995803833 L 11.920557975769043 11.365938186645508 L 12.151000022888184 11.765000343322754 L 12.15124797821045 11.764857292175293 L 12.288000106811523 11.685894012451172 L 16.384000778198242 9.320794105529785 L 18.33890151977539 8.192000389099121 L 24.576000213623047 4.590593338012695 L 27.48989486694336 2.9080612659454346 L 27.489999771118164 2.9079999923706055 L 27.23028564453125 2.4581427574157715 L 27.203685760498047 2.412043571472168 L 26.708677291870117 1.554303526878357 L 25.811460494995117 4.440892164675075e-17 L 25.47380256652832 -0.5849459171295166 L 25.429506301879883 -0.6616811156272888 L 25.423830032348633 -0.6715149879455566 L 25.413875579833984 -0.6887615323066711 L 25.413101196289062 -0.6901025176048279 L 25.412761688232422 -0.6906910538673401 L 25.409914016723633 -0.6956225633621216 L 25.488903045654297 -0.7711089253425598 L 25.587257385253906 -0.8651867508888245 L 25.91714096069336 -1.1950700283050537 L 26.1284236907959 -1.4067431688308716 L 26.451587677001953 -1.7439571619033813 L 26.658981323242188 -1.95991051197052 L 26.669466018676758 -1.971308708190918 L 26.74001693725586 -2.0480000972747803 L 26.97481346130371 -2.3032333850860596 L 27.177146911621094 -2.5234668254852295 L 27.434946060180664 -2.81547474861145 L 27.632610321044922 -3.0399882793426514 L 27.82599639892578 -3.268393039703369 L 28.273386001586914 -3.800999402999878 L 28.27500343322754 -3.8029260635375977 L 28.46333122253418 -4.035221576690674 L 28.511133193969727 -4.0960001945495605 L 28.588930130004883 -4.194914817810059 L 28.672000885009766 -4.298616409301758 L 28.810720443725586 -4.471790790557861 L 28.814544677734375 -4.470088958740234 L 29.655109405517578 -4.0960001945495605 L 30.687969207763672 -3.6363308429718018 L 32.08867263793945 -3.012970447540283 L 32.137428283691406 -2.991285800933838 L 32.21339416503906 -2.9574646949768066 L 32.313907623291016 -2.912715196609497 L 32.61199951171875 -2.7799999713897705 L 32.768001556396484 -3.1303937435150146 L 35.0214958190918 -8.192000389099121 L 36.845088958740234 -12.288000106811523 L 38.66868591308594 -16.384000778198242 L 39.81583023071289 -18.96061897277832 L 39.81599044799805 -18.96097755432129 L 39.816001892089844 -18.961000442504883 L 39.6279182434082 -19.044736862182617 L 39.341426849365234 -19.172285079956055 L 39.29282760620117 -19.1939697265625 L 37.8919677734375 -19.817848205566406 L 36.86399841308594 -20.275604248046875 L 36.40499496459961 -20.479999542236328 L 36.10872268676758 -20.6119327545166 L 36.0831298828125 -20.623329162597656 L 36.0753173828125 -20.626808166503906 L 36.03144454956055 -20.646343231201172 L 36.01472091674805 -20.653791427612305 L 36.07222366333008 -21.003629684448242 L 36.106807708740234 -21.203716278076172 L 36.14973449707031 -21.475223541259766 L 36.15350341796875 -21.499046325683594 L 36.24147033691406 -22.11360740661621 L 36.27942657470703 -22.38905906677246 L 36.282325744628906 -22.410104751586914 L 36.32325744628906 -22.767478942871094 L 36.35088348388672 -23.006000518798828 L 36.359100341796875 -23.006000518798828 L 36.386932373046875 -23.006000518798828 L 36.86399841308594 -23.006000518798828 L 40.959999084472656 -23.006000518798828 L 49.152000427246094 -23.006000518798828 L 50 -23.006000518798828 L 50 -16.384000778198242 L 50 4.440892164675075e-17 L 50 23.006000518798828 L 32.768001556396484 23.006000518798828 L 16.384000778198242 23.006000518798828 L 0 23.006000518798828 L -16.384000778198242 23.006000518798828 L -32.768001556396484 23.006000518798828 L -50 23.006000518798828 L -50 4.440892164675075e-17 L -50 -16.384000778198242 L -50 -23.006000518798828 L -39.67900085449219 -23.006000518798828 L -38.271240234375 -16.384000778198242 L -37.400482177734375 -12.288000106811523 L -36.93300247192383 -10.089012145996094 L -36.93299865722656 -10.08899974822998 L -36.86399841308594 -10.103665351867676 L -36.42485809326172 -10.196999549865723 L -36.22251892089844 -10.239999771118164 L -35.404205322265625 -10.413902282714844 L -32.86827850341797 -10.952916145324707 L -32.865421295166016 -10.953523635864258 L -32.863494873046875 -10.953933715820312 L -32.81602478027344 -10.855490684509277 L -32.768001556396484 -10.760188102722168 L -32.57960510253906 -10.386322975158691 L -32.443809509277344 -10.119786262512207 L -32.188453674316406 -9.639622688293457 L -32.04682159423828 -9.375809669494629 L -31.85561180114746 -9.036151885986328 L -31.70891761779785 -8.775840759277344 L -31.43340492248535 -8.306673049926758 L -31.36567497253418 -8.192000389099121 L -31.281265258789062 -8.04908561706543 L -31.076004028320312 -7.71798038482666 L -30.918027877807617 -7.463505744934082 L -30.755380630493164 -7.212922096252441 L -30.383956909179688 -6.64356803894043 L -30.322479248046875 -6.552906513214111 L -30.371536254882812 -6.498436450958252 L -30.690753936767578 -6.144000053405762 L -32.06108474731445 -4.622478485107422 L -32.535099029541016 -4.0960001945495605 L -32.75928497314453 -3.8469998836517334 L -32.768001556396484 -3.8373262882232666 L -33.106998443603516 -3.4609999656677246 L -32.768001556396484 -3.1557867527008057 L -29.26287269592285 4.440892164675075e-17 L -24.576000213623047 4.219751358032227 L -20.479999542236328 7.907520294189453 L -20.16402816772461 8.192000389099121 L -19.943096160888672 8.390913963317871 L -19.94300079345703 8.390999794006348 L -19.763811111450195 8.192000389099121 L -19.595428466796875 8.005000114440918 L -18.89747428894043 7.22952127456665 L -17.920162200927734 6.144000053405762 L -17.165613174438477 5.305906295776367 L -17.164827346801758 5.305035591125488 L -17.160947799682617 5.300724506378174 L -17.15947914123535 5.299093246459961 L -17.06298065185547 5.350844383239746 L -16.457584381103516 5.6605682373046875 L -16.384000778198242 5.698058128356934 L -16.200851440429688 5.791370868682861 L -16.1910457611084 5.796365737915039 L -15.92139720916748 5.926715850830078 z" fill="none" stroke="rgb(0,0,255)" stroke-width="0.01mm" />
</svg>