<?xml version="1.0" standalone="no"?>
<!DOCTYPE svg PUBLIC "-//W3C//DTD SVG 1.1//EN"
  "http://www.w3.org/Graphics/SVG/1.1/DTD/svg11.dtd">
<svg width="102mm" height="28.158000946044922mm" viewBox="-51 -14.079000473022461 102 28.158000946044922" xmlns="http://www.w3.org/2000/svg" version="1.1">
	<title>svgOutput</title>
	<desc>made with tinkercad</desc>
<path d="M 11.48499584197998 -5.9086127281188965 L 11.527848243713379 -5.924046039581299 L 12.101678848266602 -6.144000053405762 L 12.124161720275879 -6.152617454528809 L 12.166375160217285 -6.16895866394043 L 12.18244743347168 -6.175179958343506 L 12.288000106811523 -6.218323230743408 L 12.48342514038086 -6.298200607299805 L 12.77323055267334 -6.416654586791992 L 12.815120697021484 -6.433752536773682 L 12.81545639038086 -6.433889389038086 L 12.857290267944336 -6.451986312866211 L 13.443465232849121 -6.705442428588867 L 13.507940292358398 -6.734976768493652 L 14.088584899902344 -7.001336574554443 L 14.336000442504883 -7.120682239532471 L 14.663700103759766 -7.2787556648254395 L 14.739690780639648 -7.316359519958496 L 15.180244445800781 -7.541244029998779 L 15.199773788452148 -7.517958641052246 L 15.22262954711914 -7.490707874298096 L 15.234943389892578 -7.4760260581970215 L 15.357451438903809 -7.329958438873291 L 16.35198402404785 -6.144000053405762 L 16.384000778198242 -6.105822563171387 L 16.933326721191406 -5.450762748718262 L 17.091184616088867 -5.262815952301025 L 17.16666030883789 -5.172725200653076 L 17.208616256713867 -5.1227335929870605 L 17.35099983215332 -4.953000068664551 L 17.35103988647461 -4.953033924102783 L 21.211013793945312 -8.192000389099121 L 24.576000213623047 -11.015613555908203 L 27.03499984741211 -13.079000473022461 L 32.768001556396484 -13.079000473022461 L 50 -13.079000473022461 L 50 13.079000473022461 L 32.768001556396484 13.079000473022461 L 16.384000778198242 13.079000473022461 L 0 13.079000473022461 L -16.384000778198242 13.079000473022461 L -32.768001556396484 13.079000473022461 L -50 13.079000473022461 L -50 -13.079000473022461 L -32.768001556396484 -13.079000473022461 L -24.576000213623047 -13.079000473022461 L -23.455429077148438 -13.079000473022461 L -23.454999923706055 -13.079000473022461 L -23.949296951293945 -12.288000106811523 L -24.576000213623047 -11.285117149353027 L -24.625272750854492 -11.206268310546875 L -24.826736450195312 -10.883790969848633 L -24.88730239868164 -10.786955833435059 L -24.923654556274414 -10.728833198547363 L -25.041000366210938 -10.541000366210938 L -25.040922164916992 -10.540950775146484 L -24.576000213623047 -10.250432014465332 L -21.2818660736084 -8.192000389099121 L -16.384000778198242 -5.131430149078369 L -14.726988792419434 -4.0960001945495605 L -12.732999801635742 -2.8499999046325684 L -12.615553855895996 -3.037933588027954 L -12.574183464050293 -3.1042540073394775 L -12.359794616699219 -3.447129249572754 L -11.954286575317383 -4.0960001945495605 L -11.31434440612793 -5.119999885559082 L -11.089681625366211 -5.479493141174316 L -10.94372272491455 -5.713200092315674 L -10.94304084777832 -5.712956428527832 L -10.892030715942383 -5.694738388061523 L -10.84090805053711 -5.677294731140137 L -10.239999771118164 -5.475162982940674 L -10.23537826538086 -5.473608493804932 L -10.21132755279541 -5.465695858001709 L -9.602110862731934 -5.274912357330322 L -9.514839172363281 -5.248589992523193 L -8.901935577392578 -5.070709705352783 L -8.285346031188965 -4.904810905456543 L -8.216876029968262 -4.8864006996154785 L -8.192000389099121 -4.8803019523620605 L -7.596599102020264 -4.73432731628418 L -7.586856365203857 -4.731951713562012 L -7.552258014678955 -4.72351598739624 L -7.499534606933594 -4.711686611175537 L -7.142483711242676 -4.632049083709717 L -6.876341342926025 -4.572688102722168 L -6.875571250915527 -4.572515964508057 L -6.830838680267334 -4.563507080078125 L -6.2050323486328125 -4.437239646911621 L -6.147765159606934 -4.426820278167725 L -5.519193649291992 -4.313456058502197 L -5.476341247558594 -4.306483745574951 L -4.988783359527588 -4.229064464569092 L -4.986148834228516 -4.191308975219727 L -4.983026504516602 -4.1465654373168945 L -4.9795145988464355 -4.0962395668029785 L -4.979497909545898 -4.0960001945495605 L -4.969589710235596 -3.9540092945098877 L -4.836024284362793 -2.0480000972747803 L -4.798190116882324 -1.5080984830856323 L -4.78122091293335 -1.2633742094039917 L -4.772964000701904 -1.1460728645324707 L -4.768485069274902 -1.0810155868530273 L -4.752999782562256 -0.8600000143051147 L -4.0960001945495605 -0.9059237241744995 L 0 -1.1922307014465332 L 8.192000389099121 -1.764844536781311 L 9.725000381469727 -1.871999979019165 L 9.716171264648438 -1.9988963603973389 L 9.709615707397461 -2.093116044998169 L 9.704161643981934 -2.1711368560791016 L 9.681065559387207 -2.502382516860962 L 9.569977760314941 -4.0960001945495605 L 9.509331703186035 -4.966009140014648 L 9.490208625793457 -5.240060806274414 L 9.4901762008667 -5.240514278411865 L 9.490138053894043 -5.241064548492432 L 9.55557632446289 -5.2604193687438965 L 9.602110862731934 -5.274912357330322 L 10.21132755279541 -5.465695858001709 L 10.239999771118164 -5.475353717803955 L 10.278543472290039 -5.488336563110352 L 10.884073257446289 -5.692023277282715 L 10.89568042755127 -5.696206569671631 L 11.48499584197998 -5.9086127281188965 z" fill="none" stroke="rgb(0,0,255)" stroke-width="0.01mm" />
</svg>