<?xml version="1.0" standalone="no"?>
<!DOCTYPE svg PUBLIC "-//W3C//DTD SVG 1.1//EN"
  "http://www.w3.org/Graphics/SVG/1.1/DTD/svg11.dtd">
<svg width="102mm" height="34.7760009765625mm" viewBox="-51 -17.38800048828125 102 34.7760009765625" xmlns="http://www.w3.org/2000/svg" version="1.1">
	<title>svgOutput</title>
	<desc>made with tinkercad</desc>
<path d="M 12.160219192504883 -2.6427204608917236 L 12.160612106323242 -2.642879009246826 L 12.288000106811523 -2.6942341327667236 L 12.468554496765137 -2.7670230865478516 L 12.512389183044434 -2.784619092941284 L 12.525924682617188 -2.790151596069336 L 12.777813911437988 -2.8931076526641846 L 12.950074195861816 -2.9651758670806885 L 13.213428497314453 -3.079047679901123 L 13.532755851745605 -3.21732497215271 L 13.848567008972168 -3.361461639404297 L 14.052401542663574 -3.4546432495117188 L 14.109436988830566 -3.4807164669036865 L 14.336000442504883 -3.590367078781128 L 14.36782169342041 -3.6057682037353516 L 14.423921585083008 -3.63299298286438 L 14.442858695983887 -3.6420838832855225 L 14.81512451171875 -3.8207921981811523 L 14.865704536437988 -3.8467304706573486 L 14.876873016357422 -3.8524577617645264 L 14.877787590026855 -3.852926731109619 L 14.878083229064941 -3.853078603744507 L 15.467300415039062 -3.1986000537872314 L 16.384000778198242 -2.180331230163574 L 18.346851348876953 4.440892164675075e-17 L 19.94300079345703 1.7730000019073486 L 19.943084716796875 1.772923231124878 L 21.912269592285156 4.440892164675075e-17 L 32.768001556396484 -9.773786544799805 L 33.10646438598633 -10.07851791381836 L 33.106895446777344 -10.078904151916504 L 33.106998443603516 -10.079000473022461 L 32.768001556396484 -10.455485343933105 L 28.630399703979492 -15.050600051879883 L 28.04973602294922 -15.695202827453613 L 28.046621322631836 -15.698660850524902 L 28.040660858154297 -15.705277442932129 L 28.040760040283203 -15.705438613891602 L 28.195499420166016 -15.953446388244629 L 28.465089797973633 -16.38800048828125 L 28.475173950195312 -16.38800048828125 L 28.47572135925293 -16.38800048828125 L 32.768001556396484 -16.38800048828125 L 50 -16.38800048828125 L 50 8.681632041931152 L 50 8.683831214904785 L 50 16.38800048828125 L 32.768001556396484 16.38800048828125 L 14.161017417907715 16.38800048828125 L 0 16.38800048828125 L -32.768001556396484 16.38800048828125 L -50 16.38800048828125 L -50 -16.38800048828125 L -35.7239990234375 -16.38800048828125 L -32.768001556396484 -9.748398780822754 L -32.61310577392578 -9.40048599243164 L -32.61199951171875 -9.39799976348877 L -26.500099182128906 -12.11870002746582 L -26.1196346282959 -12.288000106811523 L -25.73493194580078 -12.459185600280762 L -25.721332550048828 -12.46523666381836 L -25.705839157104492 -12.47213077545166 L -25.703786849975586 -12.473043441772461 L -25.695863723754883 -12.476569175720215 L -25.695119857788086 -12.476901054382324 L -25.684354782104492 -12.46364974975586 L -25.53618049621582 -12.288000106811523 L -25.33045768737793 -12.044130325317383 L -25.14536476135254 -11.825082778930664 L -24.955717086791992 -11.609762191772461 L -24.725448608398438 -11.349026679992676 L -24.576000213623047 -11.186306953430176 L -24.44830894470215 -11.047277450561523 L -24.254106521606445 -10.836097717285156 L -24.055347442626953 -10.629057884216309 L -23.71727180480957 -10.278676986694336 L -23.705263137817383 -10.266254425048828 L -23.705936431884766 -10.265088081359863 L -23.710044860839844 -10.257969856262207 L -23.71021842956543 -10.257668495178223 L -23.720415115356445 -10.239999771118164 L -24.145599365234375 -9.503299713134766 L -24.576000213623047 -8.757744789123535 L -24.902597427368164 -8.192000389099121 L -26.566390991210938 -5.309910297393799 L -27.489999771118164 -3.7100000381469727 L -21.064109802246094 4.440892164675075e-17 L -12.151000022888184 5.145999908447266 L -9.179478645324707 4.440892164675075e-17 L -8.805700302124023 -0.6473000049591064 L -8.369336128234863 -1.4031990766525269 L -8.365476608276367 -1.409883737564087 L -8.365262985229492 -1.410254716873169 L -8.364635467529297 -1.4100821018218994 L -8.364337921142578 -1.410000205039978 L -8.348699569702148 -1.4056998491287231 L -8.192000389099121 -1.3666220903396606 L -7.8764472007751465 -1.287929654121399 L -7.601527214050293 -1.220527172088623 L -7.597772121429443 -1.219606637954712 L -7.258523941040039 -1.144022822380066 L -6.978192329406738 -1.0814969539642334 L -6.454379081726074 -0.9754451513290405 L -6.173219680786133 -0.9187163710594177 L -6.144000053405762 -0.9134465456008911 L -5.890817642211914 -0.8677846789360046 L -5.839526653289795 -0.8589838147163391 L -5.525272369384766 -0.8024826645851135 L -5.45536994934082 -0.7917284369468689 L -5.455318927764893 -0.7917205691337585 L -5.455124378204346 -0.7898704409599304 L -5.455053329467773 -0.7891936898231506 L -5.452413082122803 -0.7640595436096191 L -5.37215518951416 4.440892164675075e-17 L -5.36329984664917 0.08429999649524693 L -4.664000034332275 6.73799991607666 L -4.6631879806518555 6.737914562225342 L -4.663106441497803 6.737905979156494 L -4.663069725036621 6.7379021644592285 L 0 6.247665882110596 L 12.946806907653809 4.8865461349487305 L 12.95199966430664 4.886000156402588 L 12.438414573669434 4.440892164675075e-17 L 12.288000106811523 -1.430972933769226 L 12.252699851989746 -1.766800045967102 L 12.160219192504883 -2.6427204608917236 z" fill="none" stroke="rgb(0,0,255)" stroke-width="0.01mm" />
</svg>