<?xml version="1.0" standalone="no"?>
<!DOCTYPE svg PUBLIC "-//W3C//DTD SVG 1.1//EN"
  "http://www.w3.org/Graphics/SVG/1.1/DTD/svg11.dtd">
<svg width="102mm" height="51.93600082397461mm" viewBox="-51 -25.968000411987305 102 51.93600082397461" xmlns="http://www.w3.org/2000/svg" version="1.1">
	<title>svgOutput</title>
	<desc>made with tinkercad</desc>
<path d="M -50 24.968000411987305 L -50 4.440892164675075e-17 L -50 -16.384000778198242 L -50 -24.968000411987305 L -42.611000061035156 -24.968000411987305 L -42.31189727783203 -16.384000778198242 L -42.212005615234375 -13.517125129699707 L -42.21200180053711 -13.517000198364258 L -41.72169876098633 -13.534099578857422 L -41.46748352050781 -13.542901039123535 L -40.959999084472656 -13.560593605041504 L -40.53608322143555 -13.575373649597168 L -36.871185302734375 -13.702841758728027 L -36.8498420715332 -13.703584671020508 L -36.835899353027344 -13.704069137573242 L -36.83541488647461 -13.704086303710938 L -36.766300201416016 -13.481502532958984 L -36.654014587402344 -13.12244987487793 L -36.51699447631836 -12.715819358825684 L -36.42266082763672 -12.435379981994629 L -36.419525146484375 -12.426570892333984 L -36.37018966674805 -12.288000106811523 L -36.22346878051758 -11.875866889953613 L -36.12328338623047 -11.59762191772461 L -36.01725387573242 -11.32157039642334 L -35.833919525146484 -10.844524383544922 L -35.640438079833984 -10.371285438537598 L -35.5285530090332 -10.097062110900879 L -35.51459884643555 -10.063440322875977 L -35.51420211791992 -10.062530517578125 L -35.50033950805664 -10.030533790588379 L -35.50661087036133 -10.025633811950684 L -35.5070686340332 -10.025275230407715 L -35.52376174926758 -10.012235641479492 L -35.597721099853516 -9.954455375671387 L -35.618858337402344 -9.937943458557129 L -37.853729248046875 -8.192000389099121 L -38.217342376708984 -7.907934188842773 L -39.11513900756836 -7.206469535827637 L -39.26575469970703 -7.08888578414917 L -39.35129928588867 -7.02209997177124 L -39.737998962402344 -6.71999979019165 L -39.73797607421875 -6.719971179962158 L -34.4876823425293 4.440892164675075e-17 L -32.768001556396484 2.2010586261749268 L -28.08729362487793 8.192000389099121 L -27.38101577758789 9.095979690551758 L -27.381000518798828 9.095999717712402 L -26.994400024414062 8.793899536132812 L -26.7939510345459 8.637280464172363 L -26.224145889282227 8.192000389099121 L -25.860342025756836 7.907700061798096 L -24.576000213623047 6.904270648956299 L -23.602890014648438 6.144000053405762 L -23.148712158203125 5.78916072845459 L -23.142704010009766 5.78446626663208 L -22.955501556396484 5.923405647277832 L -22.65888214111328 6.144000053405762 L -22.653541564941406 6.147972583770752 L -22.527999877929688 6.237207889556885 L -22.23676109313965 6.444222927093506 L -21.996231079101562 6.61540412902832 L -21.99580955505371 6.61570405960083 L -21.750837326049805 6.7820658683776855 L -21.327713012695312 7.069435119628906 L -21.079814910888672 7.230678081512451 L -20.650981903076172 7.509166240692139 L -20.479999542236328 7.6150360107421875 L -20.39942741394043 7.6649250984191895 L -19.933801651000977 7.95229434967041 L -19.902721405029297 7.97057580947876 L -19.90318489074707 7.972191333770752 L -19.90559196472168 7.980587959289551 L -19.966203689575195 8.192000389099121 L -20.85300636291504 11.285155296325684 L -21.179702758789062 12.423885345458984 L -21.249799728393555 12.668299674987793 L -21.385000228881836 13.140000343322754 L -16.384000778198242 14.573966979980469 L -2.0920920372009277 18.671974182128906 L -2.0920000076293945 18.672000885009766 L -1.9567999839782715 18.20039939880371 L -1.8867019414901733 17.95588493347168 L -1.6297990083694458 17.060197830200195 L -0.6096299886703491 13.50118350982666 L -0.6089974045753479 13.501191139221191 L -0.3768153488636017 13.504135131835938 L 0 13.50673770904541 L 0.08246801048517227 13.507307052612305 L 0.3782632648944855 13.504382133483887 L 0.8070968985557556 13.4999418258667 L 1.2352961301803589 13.48661994934082 L 1.5310914516448975 13.477113723754883 L 2.0480000972747803 13.451682090759277 L 2.1242268085479736 13.447932243347168 L 2.419656276702881 13.432576179504395 L 2.4297573566436768 13.43183708190918 L 2.7147202491760254 13.411004066467285 L 2.813368320465088 13.402876853942871 L 3.2967369556427 13.366386413574219 L 3.2974693775177 13.368398666381836 L 3.299787998199463 13.374770164489746 L 3.30668044090271 13.393708229064941 L 3.30893874168396 13.39991283416748 L 3.309028387069702 13.400158882141113 L 3.6496171951293945 14.336000442504883 L 4.0960001945495605 15.562532424926758 L 4.340385913848877 16.23403549194336 L 4.3949737548828125 16.384000778198242 L 4.881253719329834 17.719926834106445 L 4.968200206756592 17.958900451660156 L 5.136000156402588 18.420000076293945 L 5.136072635650635 18.419973373413086 L 10.729438781738281 16.384000778198242 L 16.384000778198242 14.325752258300781 L 23.9958553314209 11.555052757263184 L 23.996000289916992 11.555000305175781 L 23.82819938659668 11.093999862670898 L 23.741106033325195 10.855073928833008 L 23.422475814819336 9.979561805725098 L 22.771562576293945 8.192000389099121 L 22.158954620361328 6.509636878967285 L 22.158733367919922 6.509026050567627 L 22.155776977539062 6.5009074211120605 L 22.34587287902832 6.3661956787109375 L 22.653541564941406 6.147972583770752 L 22.89120101928711 5.971738338470459 L 23.366344451904297 5.6158576011657715 L 23.5999813079834 5.434504508972168 L 23.93873405456543 5.171875476837158 L 23.948299407958984 5.164135932922363 L 24.168716430664062 4.985769748687744 L 24.576000213623047 4.6542205810546875 L 24.619640350341797 4.61869478225708 L 24.629268646240234 4.6108574867248535 L 24.855228424072266 4.419632434844971 L 25.17820167541504 4.146732330322266 L 25.18256378173828 4.143047332763672 L 25.209840774536133 4.118941307067871 L 25.23689842224121 4.095175266265869 L 25.243528366088867 4.0996479988098145 L 25.245208740234375 4.100780963897705 L 25.26642608642578 4.115090847015381 L 25.266637802124023 4.115233898162842 L 28.095365524291992 6.02302360534668 L 29.07733917236328 6.685517311096191 L 29.28820037841797 6.827700138092041 L 29.69499969482422 7.1020002365112305 L 32.768001556396484 2.5465917587280273 L 34.48588562011719 4.440892164675075e-17 L 38.10300064086914 -5.361999988555908 L 40.01158905029297 -8.192000389099121 L 40.917999267578125 -9.53600025177002 L 40.51129913330078 -9.810400009155273 L 40.30048751831055 -9.952630043029785 L 40.2315673828125 -9.999134063720703 L 39.31836700439453 -10.615342140197754 L 36.83935546875 -12.288000106811523 L 36.477508544921875 -12.532148361206055 L 36.477439880371094 -12.532195091247559 L 36.47050094604492 -12.536876678466797 L 36.466468811035156 -12.539597511291504 L 36.45926284790039 -12.544459342956543 L 36.533485412597656 -12.765299797058105 L 36.654014587402344 -13.12244987487793 L 36.80690002441406 -13.61028003692627 L 36.86399841308594 -13.792435646057129 L 36.895381927490234 -13.892546653747559 L 37.0242919921875 -14.336000442504883 L 37.038116455078125 -14.383548736572266 L 37.12074661254883 -14.668008804321289 L 37.19716262817383 -14.953566551208496 L 37.348777770996094 -15.527670860290527 L 37.41934585571289 -15.815056800842285 L 37.521480560302734 -16.231203079223633 L 37.52972412109375 -16.26609230041504 L 37.53776931762695 -16.301193237304688 L 37.538665771484375 -16.301225662231445 L 37.54591369628906 -16.30147933959961 L 37.54692840576172 -16.301513671875 L 39.905155181884766 -16.384000778198242 L 40.983665466308594 -16.421724319458008 L 42.12226486206055 -16.46147346496582 L 42.421600341796875 -16.471900939941406 L 42.9119987487793 -16.48900032043457 L 42.61600112915039 -24.968000411987305 L 50 -24.968000411987305 L 50 -16.384000778198242 L 50 4.440892164675075e-17 L 50 24.968000411987305 L 32.768001556396484 24.968000411987305 L 16.384000778198242 24.968000411987305 L 0 24.968000411987305 L -3.8969497680664062 24.968000411987305 L -3.8969600200653076 24.968000411987305 L -3.8979313373565674 24.968000411987305 L -16.384000778198242 24.968000411987305 L -32.768001556396484 24.968000411987305 L -50 24.968000411987305 z" fill="none" stroke="rgb(0,0,255)" stroke-width="0.01mm" />
</svg>