<?xml version="1.0" standalone="no"?>
<!DOCTYPE svg PUBLIC "-//W3C//DTD SVG 1.1//EN"
  "http://www.w3.org/Graphics/SVG/1.1/DTD/svg11.dtd">
<svg width="102mm" height="21.540000915527344mm" viewBox="-51 -10.770000457763672 102 21.540000915527344" xmlns="http://www.w3.org/2000/svg" version="1.1">
	<title>svgOutput</title>
	<desc>made with tinkercad</desc>
<path d="M -50 9.770000457763672 L -50 -9.770000457763672 L -32.768001556396484 -9.770000457763672 L -18.511999130249023 -9.770000457763672 L -16.384000778198242 -8.440321922302246 L -12.733074188232422 -6.159046649932861 L -12.732999801635742 -6.158999919891357 L -12.542799949645996 -6.463399887084961 L -12.482294082641602 -6.56035041809082 L -12.31867504119873 -6.822177410125732 L -10.47700023651123 -9.770000457763672 L -10.476539611816406 -9.770000457763672 L -8.208039283752441 -9.770000457763672 L -8.206064224243164 -9.770000457763672 L -8.192000389099121 -9.770000457763672 L -8.166760444641113 -9.770000457763672 L -7.765352249145508 -9.662253379821777 L -7.312535285949707 -9.550986289978027 L -7.1477885246276855 -9.511648178100586 L -6.692859172821045 -9.410239219665527 L -6.516577243804932 -9.37178897857666 L -6.144000053405762 -9.296584129333496 L -6.059535026550293 -9.279535293579102 L -5.854859352111816 -9.239310264587402 L -5.396408557891846 -9.156915664672852 L -5.223084449768066 -9.12674617767334 L -5.097873687744141 -9.107049942016602 L -5.0977325439453125 -9.107028007507324 L -5.033859729766846 -8.192000389099121 L -4.992436408996582 -7.598577499389648 L -4.828577041625977 -5.250652313232422 L -4.786026477813721 -4.641314506530762 L -4.780816555023193 -4.566412448883057 L -4.7801313400268555 -4.5568928718566895 L -4.779608726501465 -4.549637317657471 L -4.7779998779296875 -4.527299880981445 L -4.752999782562256 -4.169000148773193 L -4.752200603485107 -4.169055938720703 L 0 -4.501230716705322 L 9.724991798400879 -5.180999279022217 L 9.725000381469727 -5.181000232696533 L 9.712688446044922 -5.357402324676514 L 9.699999809265137 -5.5391998291015625 L 9.694806098937988 -5.612964630126953 L 9.691973686218262 -5.653191566467285 L 9.665572166442871 -6.030753135681152 L 9.625465393066406 -6.603945732116699 L 9.404000282287598 -9.770000457763672 L 9.404718399047852 -9.770000457763672 L 16.086000442504883 -9.770000457763672 L 17.35099983215332 -8.262999534606934 L 19.14699935913086 -9.770000457763672 L 50 -9.770000457763672 L 50 9.770000457763672 L 10.771183013916016 9.770000457763672 L 10.768481254577637 9.770000457763672 L 0 9.770000457763672 L -16.384000778198242 9.770000457763672 L -32.768001556396484 9.770000457763672 L -50 9.770000457763672 z" fill="none" stroke="rgb(0,0,255)" stroke-width="0.01mm" />
</svg>