<?xml version="1.0" standalone="no"?>
<!DOCTYPE svg PUBLIC "-//W3C//DTD SVG 1.1//EN"
  "http://www.w3.org/Graphics/SVG/1.1/DTD/svg11.dtd">
<svg width="102mm" height="93.24400329589844mm" viewBox="-51 -46.62200164794922 102 93.24400329589844" xmlns="http://www.w3.org/2000/svg" version="1.1">
	<title>svgOutput</title>
	<desc>made with tinkercad</desc>
<path d="M 13.646652221679688 -41.87552261352539 L 13.646382331848145 -41.8756217956543 L 13.405116081237793 -41.96345520019531 L 13.123804092407227 -42.06488037109375 L 12.75503921508789 -42.189353942871094 L 12.421407699584961 -42.30140686035156 L 12.332270622253418 -42.33134460449219 L 12.113412857055664 -42.400203704833984 L 11.860177040100098 -42.4764289855957 L 11.5335693359375 -42.578285217285156 L 11.205278396606445 -42.67424774169922 L 11.080696105957031 -42.71044158935547 L 11.074602127075195 -42.71244430541992 L 11 -42.73694610595703 L 11 -42.77880096435547 L 11 -42.78176498413086 L 11 -42.78470993041992 L 11 -42.8305778503418 L 11 -45.62200164794922 L 16.36745834350586 -45.62200164794922 L 16.36899185180664 -45.62200164794922 L 16.368999481201172 -45.62200164794922 L 15.416651725769043 -44.3113899230957 L 13.647144317626953 -41.876197814941406 L 13.646652221679688 -41.87552261352539 M 31.988525390625 19.474246978759766 L 32.148555755615234 19.263702392578125 L 32.54410171508789 18.715490341186523 L 32.768001556396484 18.400461196899414 L 32.769744873046875 18.398006439208984 L 32.91426467895508 18.184953689575195 L 33.08241271972656 17.937803268432617 L 36.44695281982422 19.031024932861328 L 37.716331481933594 19.443523406982422 L 39.39799880981445 19.989999771118164 L 45.89350891113281 4.440892164675075e-17 L 46.196937561035156 -0.933811604976654 L 46.196998596191406 -0.9340000152587891 L 43.24595260620117 -1.8925081491470337 L 40.959999084472656 -2.6351521015167236 L 39.92061233520508 -2.9728212356567383 L 39.900203704833984 -2.9794514179229736 L 39.89714431762695 -2.980445623397827 L 39.89238357543945 -2.98199200630188 L 39.8863410949707 -2.983954668045044 L 39.88505935668945 -2.9843711853027344 L 39.88127899169922 -2.985600233078003 L 39.88087844848633 -2.985729694366455 L 39.89048767089844 -3.2846572399139404 L 39.89841079711914 -3.5420000553131104 L 39.90740966796875 -4.377767086029053 L 39.907413482666016 -4.377999782562256 L 39.90321731567383 -4.767277240753174 L 39.89841079711914 -5.213533878326416 L 39.89048767089844 -5.470876693725586 L 39.88087844848633 -5.769804000854492 L 39.88127899169922 -5.769933700561523 L 39.927406311035156 -5.7849202156066895 L 39.95092010498047 -5.792558670043945 L 39.95104217529297 -5.792598247528076 L 40.959999084472656 -6.120381832122803 L 43.24595260620117 -6.863025665283203 L 46.196998596191406 -7.822000026702881 L 46.07676696777344 -8.192000389099121 L 43.41474914550781 -16.384000778198242 L 39.39839553833008 -28.743785858154297 L 39.39802932739258 -28.744903564453125 L 39.39799880981445 -28.7450008392334 L 36.44695281982422 -27.786026000976562 L 33.0941162109375 -26.69660758972168 L 33.08241271972656 -26.69280433654785 L 32.91426467895508 -26.939952850341797 L 32.769744873046875 -27.15300750732422 L 32.768001556396484 -27.155460357666016 L 32.54410171508789 -27.470489501953125 L 32.148555755615234 -28.018701553344727 L 31.988525390625 -28.229246139526367 L 31.82192039489746 -28.45368194580078 L 31.78481674194336 -28.503664016723633 L 31.575214385986328 -28.773874282836914 L 31.527013778686523 -28.83643341064453 L 31.4960880279541 -28.876569747924805 L 31.486631393432617 -28.88956069946289 L 31.446075439453125 -28.94527816772461 L 31.448854446411133 -28.9491024017334 L 32.768001556396484 -30.76462173461914 L 33.5257568359375 -31.807510375976562 L 34.22369384765625 -32.768001556396484 L 35.349998474121094 -34.31800079345703 L 32.768001556396484 -36.19376754760742 L 19.790000915527344 -45.62200164794922 L 32.768001556396484 -45.62200164794922 L 50 -45.62200164794922 L 50 -32.768001556396484 L 50 -32.19023132324219 L 50 -32.18974685668945 L 50 -32.186927795410156 L 50 -16.384000778198242 L 50 4.440892164675075e-17 L 50 23.435232162475586 L 50 23.4362850189209 L 50 45.62200164794922 L 32.768001556396484 45.62200164794922 L 16.384000778198242 45.62200164794922 L 0 45.62200164794922 L -11 45.62200164794922 L -16.384000778198242 45.62200164794922 L -22.72858238220215 45.62200164794922 L -22.729223251342773 45.62200164794922 L -22.730497360229492 45.62200164794922 L -32.768001556396484 45.62200164794922 L -50 45.62200164794922 L -50 14.917929649353027 L -50 4.440892164675075e-17 L -50 -16.384000778198242 L -50 -32.18967819213867 L -50 -32.768001556396484 L -50 -45.62200164794922 L -43.564029693603516 -45.62200164794922 L -43.563289642333984 -45.62200164794922 L -32.768001556396484 -45.62200164794922 L -19.790000915527344 -45.62200164794922 L -32.768001556396484 -36.19376754760742 L -35.349910736083984 -34.31806564331055 L -35.349998474121094 -34.31800079345703 L -34.22369384765625 -32.768001556396484 L -33.5257568359375 -31.807510375976562 L -32.768001556396484 -30.76462173461914 L -31.488157272338867 -29.00319480895996 L -31.487890243530273 -29.00282859802246 L -31.462263107299805 -28.967557907104492 L -31.451475143432617 -28.95271110534668 L -31.446075439453125 -28.94527816772461 L -31.486631393432617 -28.88956069946289 L -31.4960880279541 -28.876569747924805 L -31.527013778686523 -28.83643341064453 L -31.575214385986328 -28.773874282836914 L -31.78481674194336 -28.503664016723633 L -31.82192039489746 -28.45368194580078 L -31.988525390625 -28.229246139526367 L -32.148555755615234 -28.018701553344727 L -32.54410171508789 -27.470489501953125 L -32.768001556396484 -27.155460357666016 L -32.769744873046875 -27.15300750732422 L -32.91426467895508 -26.939952850341797 L -33.0821418762207 -26.693201065063477 L -33.08241271972656 -26.69280433654785 L -36.44695281982422 -27.786026000976562 L -39.39799880981445 -28.7450008392334 L -39.39839553833008 -28.743785858154297 L -43.41474914550781 -16.384000778198242 L -46.07676696777344 -8.192000389099121 L -46.19688415527344 -7.822353363037109 L -46.196998596191406 -7.822000026702881 L -43.24595260620117 -6.863025665283203 L -41.605403900146484 -6.330055236816406 L -40.959999084472656 -6.120381832122803 L -39.88087844848633 -5.769804000854492 L -39.88088607788086 -5.7695631980896 L -39.880889892578125 -5.769513130187988 L -39.89048767089844 -5.470876693725586 L -39.89840316772461 -5.2138214111328125 L -39.89841079711914 -5.213533878326416 L -39.90321731567383 -4.767277240753174 L -39.907413482666016 -4.377999782562256 L -39.89841079711914 -3.5420000553131104 L -39.89048767089844 -3.2846572399139404 L -39.88087844848633 -2.985729694366455 L -39.897151947021484 -2.980442762374878 L -39.9273681640625 -2.9706268310546875 L -39.971309661865234 -2.956350564956665 L -40.959999084472656 -2.6351521015167236 L -43.24595260620117 -1.8925081491470337 L -46.196998596191406 -0.9340000152587891 L -46.196937561035156 -0.933811604976654 L -45.89350891113281 4.440892164675075e-17 L -39.39802932739258 19.989904403686523 L -39.39799880981445 19.989999771118164 L -37.716331481933594 19.443523406982422 L -36.44695281982422 19.031024932861328 L -33.08702087402344 17.939302444458008 L -33.08241271972656 17.937803268432617 L -32.91426467895508 18.184953689575195 L -32.769744873046875 18.398006439208984 L -32.768001556396484 18.400461196899414 L -32.54410171508789 18.715490341186523 L -32.148555755615234 19.263702392578125 L -31.988525390625 19.474246978759766 L -31.78481674194336 19.74866485595703 L -31.575214385986328 20.01887321472168 L -31.545061111450195 20.057687759399414 L -31.4960880279541 20.1207275390625 L -31.446075439453125 20.189743041992188 L -31.449054718017578 20.193843841552734 L -31.4630069732666 20.21304702758789 L -32.768001556396484 22.00908660888672 L -33.5257568359375 23.051977157592773 L -35.349998474121094 25.562000274658203 L -35.34846878051758 25.563114166259766 L -32.768001556396484 27.437971115112305 L -25.43199920654297 32.768001556396484 L -17.551218032836914 38.49384307861328 L -17.551000595092773 38.49399948120117 L -16.384000778198242 36.8875846862793 L -15.72722339630127 35.9835090637207 L -13.652316093444824 33.12784957885742 L -13.647541046142578 33.12127685546875 L -13.629985809326172 33.1269645690918 L -13.566550254821777 33.14750671386719 L -13.426301956176758 33.19780349731445 L -13.122936248779297 33.306602478027344 L -12.79885482788086 33.41603088378906 L -12.549527168273926 33.50274658203125 L -12.27962875366211 33.59062194824219 L -12.113412857055664 33.644737243652344 L -11.860177040100098 33.721431732177734 L -11.5335693359375 33.82328414916992 L -11.205278396606445 33.919246673583984 L -11.080696105957031 33.9546012878418 L -11.049613952636719 33.96474838256836 L -11 33.9809455871582 L -11 33.989681243896484 L -11 34.04167556762695 L -11 40.62200164794922 L 0 40.62200164794922 L 11 40.62200164794922 L 11 33.997406005859375 L 11 33.986019134521484 L 11 33.9809455871582 L 11.080696105957031 33.9546012878418 L 11.205278396606445 33.919246673583984 L 11.5335693359375 33.82328414916992 L 11.860177040100098 33.721431732177734 L 12.113412857055664 33.644737243652344 L 12.27962875366211 33.59062194824219 L 12.340267181396484 33.57088088989258 L 12.549527168273926 33.50274658203125 L 12.79885482788086 33.41603088378906 L 13.122936248779297 33.306602478027344 L 13.566550254821777 33.14750671386719 L 13.647477149963379 33.121299743652344 L 13.647541046142578 33.12127685546875 L 13.650463104248047 33.125301361083984 L 13.661629676818848 33.14066696166992 L 13.675922393798828 33.16033935546875 L 15.72722339630127 35.9835090637207 L 16.384000778198242 36.8875846862793 L 17.551000595092773 38.49399948120117 L 17.551191329956055 38.49386215209961 L 25.43199920654297 32.768001556396484 L 32.768001556396484 27.437971115112305 L 35.34846878051758 25.563114166259766 L 35.34968948364258 25.562225341796875 L 35.349998474121094 25.562000274658203 L 33.5257568359375 23.051977157592773 L 33.05066680908203 22.39811897277832 L 32.768001556396484 22.00908660888672 L 31.51885414123535 20.289907455444336 L 31.4630069732666 20.21304702758789 L 31.451671600341797 20.197446823120117 L 31.449054718017578 20.193843841552734 L 31.446075439453125 20.189743041992188 L 31.474443435668945 20.150596618652344 L 31.4960880279541 20.1207275390625 L 31.545061111450195 20.057687759399414 L 31.575214385986328 20.01887321472168 L 31.78481674194336 19.74866485595703 L 31.988525390625 19.474246978759766 M -11 -45.62200164794922 L -11 -42.76609802246094 L -11 -42.74468231201172 L -11 -42.73694610595703 L -11.080696105957031 -42.71044158935547 L -11.205278396606445 -42.67424774169922 L -11.5335693359375 -42.578285217285156 L -11.860177040100098 -42.4764289855957 L -12.113412857055664 -42.400203704833984 L -12.332270622253418 -42.33134460449219 L -12.421407699584961 -42.30140686035156 L -12.75503921508789 -42.189353942871094 L -13.123804092407227 -42.06488037109375 L -13.405116081237793 -41.96345520019531 L -13.646382331848145 -41.8756217956543 L -13.646641731262207 -41.875526428222656 L -13.646652221679688 -41.87552261352539 L -13.647144317626953 -41.876197814941406 L -15.416651725769043 -44.3113899230957 L -16.368999481201172 -45.62200164794922 L -16.36745834350586 -45.62200164794922 L -11 -45.62200164794922 z" fill="none" stroke="rgb(0,0,255)" stroke-width="0.01mm" />
</svg>