<?xml version="1.0" standalone="no"?>
<!DOCTYPE svg PUBLIC "-//W3C//DTD SVG 1.1//EN"
  "http://www.w3.org/Graphics/SVG/1.1/DTD/svg11.dtd">
<svg width="102mm" height="48.012001037597656mm" viewBox="-51 -24.006000518798828 102 48.012001037597656" xmlns="http://www.w3.org/2000/svg" version="1.1">
	<title>svgOutput</title>
	<desc>made with tinkercad</desc>
<path d="M 33.25324630737305 -13.955429077148438 L 33.26911163330078 -13.994444847106934 L 33.281700134277344 -14.028697967529297 L 33.36185836791992 -14.246814727783203 L 33.3960075378418 -14.336000442504883 L 33.47562789916992 -14.54393482208252 L 33.58367156982422 -14.843509674072266 L 33.678443908691406 -15.095666885375977 L 33.767616271972656 -15.359999656677246 L 33.77177810668945 -15.372333526611328 L 33.908668518066406 -15.768333435058594 L 33.91170883178711 -15.768227577209473 L 33.91304397583008 -15.768180847167969 L 33.91360092163086 -15.768160820007324 L 33.93842315673828 -15.767295837402344 L 34.816001892089844 -15.73670768737793 L 35.87351989746094 -15.699847221374512 L 36.86399841308594 -15.665180206298828 L 40.959999084472656 -15.521820068359375 L 42.21200180053711 -15.477999687194824 L 42.2435302734375 -16.384000778198242 L 42.4739990234375 -23.006000518798828 L 49.152000427246094 -23.006000518798828 L 50 -23.006000518798828 L 50 -16.384000778198242 L 50 4.440892164675075e-17 L 50 23.006000518798828 L 32.768001556396484 23.006000518798828 L 16.384000778198242 23.006000518798828 L 3.896860122680664 23.006000518798828 L 0 23.006000518798828 L -16.384000778198242 23.006000518798828 L -32.768001556396484 23.006000518798828 L -50 23.006000518798828 L -50 4.440892164675075e-17 L -50 -16.384000778198242 L -50 -23.006000518798828 L -49.152000427246094 -23.006000518798828 L -42.75299835205078 -23.006000518798828 L -42.911956787109375 -18.45223045349121 L -42.9119987487793 -18.451000213623047 L -40.959999084472656 -18.382909774780273 L -36.86399841308594 -18.240032196044922 L -36.57429504394531 -18.22992706298828 L -34.816001892089844 -18.168596267700195 L -34.6106071472168 -18.16143226623535 L -34.608062744140625 -18.161344528198242 L -34.6063346862793 -18.14555549621582 L -34.49855422973633 -17.7450008392334 L -34.407493591308594 -17.408000946044922 L -34.381221771240234 -17.31077766418457 L -34.26566696166992 -16.913000106811523 L -34.19499969482422 -16.669889450073242 L -34.1077766418457 -16.391000747680664 L -34.1055793762207 -16.384000778198242 L -34.03044509887695 -16.144777297973633 L -34.033634185791016 -16.14262580871582 L -34.055912017822266 -16.127593994140625 L -34.816001892089844 -15.614771842956543 L -35.66015625 -15.045228958129883 L -36.711402893066406 -14.336000442504883 L -36.86399841308594 -14.233049392700195 L -39.747032165527344 -12.288000106811523 L -40.917999267578125 -11.498000144958496 L -40.91791534423828 -11.497873306274414 L -38.68838882446289 -8.192000389099121 L -38.10300064086914 -7.323999881744385 L -33.162750244140625 4.440892164675075e-17 L -32.768001556396484 0.5852263569831848 L -29.69550895690918 5.1402459144592285 L -29.69499969482422 5.140999794006348 L -24.576000213623047 1.6876884698867798 L -24.43792724609375 1.594543695449829 L -22.81334686279297 0.4984298944473267 L -22.80698013305664 0.4941334426403046 L -22.80687141418457 0.49422204494476324 L -22.527999877929688 0.7206319570541382 L -22.486623764038086 0.7542248368263245 L -22.249555587768555 0.9485555291175842 L -22.153417587280273 1.0240000486373901 L -21.987333297729492 1.1543333530426025 L -21.659555435180664 1.4087778329849243 L -21.38888931274414 1.6118888854980469 L -21.154579162597656 1.785677194595337 L -21.154443740844727 1.7857778072357178 L -21.15593910217285 1.7898844480514526 L -21.15873146057129 1.797553300857544 L -21.160297393798828 1.8018559217453003 L -21.249902725219727 2.0480000972747803 L -21.827003479003906 3.633283853530884 L -21.995405197143555 4.0960001945495605 L -23.486116409301758 8.192000389099121 L -23.996000289916992 9.593000411987305 L -23.99579620361328 9.593074798583984 L -16.384000778198242 12.363751411437988 L -8.192000389099121 15.345622062683105 L -5.339297771453857 16.384000778198242 L -5.136704444885254 16.45774269104004 L -5.136000156402588 16.45800018310547 L -5.10906457901001 16.384000778198242 L -3.618161201477051 12.288000106811523 L -2.967003345489502 10.499056816101074 L -2.8727235794067383 10.239999771118164 L -2.294527769088745 8.651268005371094 L -2.29416823387146 8.650279998779297 L -2.0480000972747803 8.664204597473145 L -1.8650000095367432 8.674555778503418 L -1.5134848356246948 8.69361400604248 L -1.4961111545562744 8.694555282592773 L -1.2489999532699585 8.70211124420166 L -0.8339999914169312 8.715444564819336 L -0.48955556750297546 8.72077751159668 L -0.19827522337436676 8.723551750183105 L -0.19788889586925507 8.723555564880371 L -0.19738797843456268 8.725301742553711 L -3.182076201521016e-16 9.413362503051758 L 0.3442803621292114 10.613465309143066 L 0.8243263363838196 12.288000106811523 L 1.9985442161560059 16.384000778198242 L 2.0920000076293945 16.709999084472656 L 2.093134880065918 16.709674835205078 L 3.228933811187744 16.384000778198242 L 8.192000389099121 14.960909843444824 L 16.384000778198242 12.611967086791992 L 21.384855270385742 11.178041458129883 L 21.385000228881836 11.178000450134277 L 20.52888298034668 8.192000389099121 L 19.637279510498047 5.08223819732666 L 19.35453987121582 4.0960001945495605 L 19.110736846923828 3.2455759048461914 L 19.109107971191406 3.2398970127105713 L 19.095115661621094 3.1910858154296875 L 19.095661163330078 3.1907458305358887 L 19.138887405395508 3.1638081073760986 L 19.43450355529785 2.9715940952301025 L 19.694555282592773 2.804888963699341 L 19.80440902709961 2.7310760021209717 L 19.976333618164062 2.61555552482605 L 20.319110870361328 2.3822221755981445 L 20.479999542236328 2.2691092491149902 L 20.59600067138672 2.1875555515289307 L 20.792938232421875 2.0480000972747803 L 20.834081649780273 2.0188448429107666 L 20.834333419799805 2.0186667442321777 L 20.871885299682617 2.0480000972747803 L 22.383649826049805 3.2288784980773926 L 23.493297576904297 4.0960001945495605 L 24.576000213623047 4.9420647621154785 L 27.260831832885742 7.040095806121826 L 27.381000518798828 7.133999824523926 L 27.38100814819336 7.1339898109436035 L 32.768001556396484 0.23905850946903234 L 32.954776763916016 4.440892164675075e-17 L 39.35516357421875 -8.192000389099121 L 39.73772430419922 -8.681648254394531 L 39.737998962402344 -8.682000160217285 L 35.122520446777344 -12.288000106811523 L 34.74065017700195 -12.586348533630371 L 33.19517135620117 -13.793248176574707 L 33.19140625 -13.79619026184082 L 33.19157028198242 -13.796618461608887 L 33.25324630737305 -13.955429077148438 z" fill="none" stroke="rgb(0,0,255)" stroke-width="0.01mm" />
</svg>