<?xml version="1.0" standalone="no"?>
<!DOCTYPE svg PUBLIC "-//W3C//DTD SVG 1.1//EN"
  "http://www.w3.org/Graphics/SVG/1.1/DTD/svg11.dtd">
<svg width="102mm" height="37.571998596191406mm" viewBox="-51 -18.785999298095703 102 37.571998596191406" xmlns="http://www.w3.org/2000/svg" version="1.1">
	<title>svgOutput</title>
	<desc>made with tinkercad</desc>
<path d="M -22.347623825073242 -2.577345848083496 L -21.818307876586914 -2.1839699745178223 L -21.722368240356445 -2.115849733352661 L -21.626646041870117 -2.0480000972747803 L -21.503999710083008 -1.9610649347305298 L -21.144624710083008 -1.7063307762145996 L -21.047330856323242 -1.6401654481887817 L -20.541805267333984 -1.2969173192977905 L -20.479999542236328 -1.2568057775497437 L -20.02863121032715 -0.9638646841049194 L -19.93013572692871 -0.8998045325279236 L -19.925216674804688 -0.8967479467391968 L -19.328601837158203 -0.525969922542572 L -19.228601455688477 -0.4640150368213653 L -18.661052703857422 -0.12756390869617457 L -18.55984878540039 -0.0677142888307571 L -18.43963050842285 4.440892164675075e-17 L -18.43199920654297 0.004298067651689097 L -18.069616317749023 0.20841352641582495 L -17.86345100402832 0.3216466307640076 L -17.778488159179688 0.369225561618805 L -17.53731918334961 0.4983505308628083 L -17.47857093811035 0.529804527759552 L -17.197601318359375 0.6810653805732727 L -17.194528579711914 0.6826302409172058 L -17.171918869018555 0.6941462755203247 L -17.015378952026367 0.7738758325576782 L -16.499862670898438 1.0360653400421143 L -16.384000778198242 1.0921863317489624 L -16.315811157226562 1.1252156496047974 L -15.804725646972656 1.372633934020996 L -15.618843078613281 1.4576013088226318 L -15.100480079650879 1.6942135095596313 L -15.092987060546875 1.697633981704712 L -14.905274391174316 1.7789411544799805 L -14.384588241577148 2.00494122505188 L -14.278924942016602 2.0480000972747803 L -13.853562355041504 2.2213399410247803 L -13.664280891418457 2.298464059829712 L -13.15984058380127 2.4921581745147705 L -13.129562377929688 2.503784418106079 L -13.11996078491211 2.5067386627197266 L -12.747841835021973 2.642789363861084 L -12.591471672058105 2.70102858543396 L -12.52739143371582 2.7248947620391846 L -12.406020164489746 2.768261432647705 L -12.346038818359375 2.7896933555603027 L -12.288000106811523 2.8104312419891357 L -12.161203384399414 2.85573673248291 L -12.049774169921875 2.8931803703308105 L -11.470331192016602 3.0885939598083496 L -11.439525604248047 3.0982437133789062 L -11.357999801635742 3.12378191947937 L -10.728428840637207 3.320894718170166 L -10.239999771118164 3.4631619453430176 L -10.095458984375 3.505263090133667 L -9.982526779174805 3.5380451679229736 L -9.441643714904785 3.6828086376190186 L -9.34445858001709 3.708819627761841 L -9.25100040435791 3.7317593097686768 L -9.02318000793457 3.790255546569824 L -8.476022720336914 3.9244961738586426 L -8.361286163330078 3.9502105712890625 L -8.192000389099121 3.9879536628723145 L -7.717270851135254 4.093797206878662 L -7.706333160400391 4.0960001945495605 L -7.118285655975342 4.214443683624268 L -7.0029473304748535 4.237601280212402 L -6.30625581741333 4.364195346832275 L -6.190616607666016 4.385097980499268 L -6.144000053405762 4.392455101013184 L -6.074376106262207 4.403443813323975 L -5.374285697937012 4.513045310974121 L -5.257744312286377 4.528985023498535 L -4.6519622802734375 4.612247943878174 L -4.632851600646973 4.61445426940918 L -4.0960001945495605 4.676425457000732 L -3.9969022274017334 4.687864780426025 L -3.9015698432922363 4.698906898498535 L -3.8800601959228516 4.7013983726501465 L -3.8778586387634277 4.701606273651123 L -3.2233006954193115 4.763421058654785 L -3.1063082218170166 4.7745490074157715 L -2.4478495121002197 4.822977542877197 L -2.3305563926696777 4.831548690795898 L -2.0480000972747803 4.846497058868408 L -1.6720978021621704 4.8663835525512695 L -1.5546541213989258 4.872549057006836 L -1.4370601177215576 4.876308441162109 L -0.7284736633300781 4.897548675537109 L -0.6108797192573547 4.898751735687256 L 0 4.904699325561523 L 0.6108797192573547 4.898751735687256 L 0.7284736633300781 4.897548675537109 L 1.4370601177215576 4.876308441162109 L 1.5546541213989258 4.872549057006836 L 1.6720978021621704 4.8663835525512695 L 2.0480000972747803 4.846497058868408 L 2.3305563926696777 4.831548690795898 L 2.4478495121002197 4.822977542877197 L 3.102508544921875 4.7748284339904785 L 3.1063082218170166 4.7745490074157715 L 3.2233006954193115 4.763421058654785 L 3.8800601959228516 4.7013983726501465 L 4.0960001945495605 4.676633358001709 L 4.487541198730469 4.6317291259765625 L 4.60438346862793 4.618195533752441 L 4.98926305770874 4.566368579864502 L 5.039046287536621 4.559559345245361 L 5.105804443359375 4.55042839050293 L 5.424718856811523 4.506431579589844 L 5.626810550689697 4.474535942077637 L 6.144000053405762 4.392517566680908 L 6.190333366394043 4.385169982910156 L 6.744255065917969 4.285464286804199 L 7.1458234786987305 4.208862781524658 L 7.156163215637207 4.207385540008545 L 7.7058587074279785 4.0960001945495605 L 7.717470645904541 4.093647003173828 L 8.192000389099121 3.987708568572998 L 8.276561737060547 3.968830108642578 L 8.476038932800293 3.924124240875244 L 8.674732208251953 3.8754966259002686 L 9.226604461669922 3.7397069931030273 L 9.236039161682129 3.7373855113983154 L 9.433424949645996 3.6843137741088867 L 9.982176780700684 3.537339925765991 L 10.239999771118164 3.4628210067749023 L 10.28839111328125 3.4488346576690674 L 10.401323318481445 3.4160525798797607 L 10.728428840637207 3.320894718170166 L 11.357999801635742 3.12378191947937 L 11.470331192016602 3.0885939598083496 L 11.581759452819824 3.051150321960449 L 12.198136329650879 2.8434579372406006 L 12.207082748413086 2.8404436111450195 L 12.288000106811523 2.8112800121307373 L 12.782278060913086 2.6331353187561035 L 12.89295482635498 2.5932857990264893 L 13.55481243133545 2.340947389602661 L 13.664586067199707 2.298691749572754 L 13.773458480834961 2.25433087348938 L 14.278057098388672 2.0480000972747803 L 14.38433837890625 2.0045413970947266 L 14.945090293884277 1.7615488767623901 L 15.053060531616211 1.7147819995880127 L 15.053950309753418 1.7143762111663818 L 15.697924613952637 1.4208120107650757 L 15.803365707397461 1.3726145029067993 L 15.804841995239258 1.3719398975372314 L 15.910706520080566 1.3206616640090942 L 16.384000778198242 1.091587781906128 L 16.547924041748047 1.012248158454895 L 16.65273666381836 0.958864688873291 L 17.197345733642578 0.6810376048088074 L 17.736007690429688 0.39216542243957525 L 17.839616775512695 0.33667668700218206 L 17.84260368347168 0.3350003063678742 L 18.43199920654297 0.00422490201890473 L 18.43952751159668 4.440892164675075e-17 L 18.457292556762695 -0.00996992457658048 L 18.55984878540039 -0.0677142888307571 L 18.661052703857422 -0.12756390869617457 L 19.228601455688477 -0.4640150368213653 L 19.328601837158203 -0.525969922542572 L 19.925216674804688 -0.8967479467391968 L 19.93013572692871 -0.8998045325279236 L 20.02863121032715 -0.9638646841049194 L 20.479999542236328 -1.2568057775497437 L 20.541805267333984 -1.2969173192977905 L 21.047330856323242 -1.6401654481887817 L 21.144624710083008 -1.7063307762145996 L 21.503999710083008 -1.9610649347305298 L 21.626646041870117 -2.0480000972747803 L 21.722368240356445 -2.115849733352661 L 21.799455642700195 -2.1705844402313232 L 21.818307876586914 -2.1839699745178223 L 22.347623825073242 -2.577345848083496 L 22.442060470581055 -2.64742112159729 L 22.527999877929688 -2.714045524597168 L 22.963729858398438 -3.051842212677002 L 22.989683151245117 -3.072000026702881 L 23.05666160583496 -3.1240224838256836 L 23.569833755493164 -3.5394887924194336 L 23.66126251220703 -3.613473653793335 L 23.662250518798828 -3.614309310913086 L 23.75103759765625 -3.689413547515869 L 24.015213012695312 -3.9132981300354004 L 24.23079490661621 -4.0960001945495605 L 24.291399002075195 -4.147360801696777 L 24.379669189453125 -4.225105285644531 L 24.576000213623047 -4.398488521575928 L 24.837615966796875 -4.629526138305664 L 25.30491065979004 -5.060285568237305 L 25.391376495361328 -5.139834403991699 L 25.396625518798828 -5.144830703735352 L 25.590505599975586 -5.329360485076904 L 25.655609130859375 -5.391323089599609 L 25.740571975708008 -5.472826957702637 L 25.971424102783203 -5.6935296058654785 L 26.115999221801758 -5.838104724884033 L 26.42133903503418 -6.144000053405762 L 26.520732879638672 -6.243575096130371 L 26.66217041015625 -6.391026020050049 L 27.06131362915039 -6.8071064949035645 L 27.062471389770508 -6.808313846588135 L 27.20077133178711 -6.958901882171631 L 27.584823608398438 -7.376928329467773 L 28.10282325744629 -7.96392822265625 L 28.234588623046875 -8.120006561279297 L 28.295421600341797 -8.192000389099121 L 28.600915908813477 -8.553542137145996 L 28.60885238647461 -8.56333065032959 L 28.672000885009766 -8.641209602355957 L 28.72980308532715 -8.712496757507324 L 29.090221405029297 -9.157849311828613 L 29.28639030456543 -9.40982723236084 L 29.358421325683594 -9.502758979797363 L 29.56377601623535 -9.768465042114258 L 29.566579818725586 -9.772089958190918 L 29.636653900146484 -9.86652660369873 L 29.91421127319336 -10.239999771118164 L 30.030029296875 -10.395842552185059 L 30.0981502532959 -10.491631507873535 L 30.50766944885254 -11.070225715637207 L 30.573835372924805 -11.167518615722656 L 30.719999313354492 -11.382255554199219 L 30.917932510375977 -11.67304515838623 L 30.924257278442383 -11.682799339294434 L 31.25013542175293 -12.185368537902832 L 31.31419563293457 -12.284014701843262 L 31.316518783569336 -12.287744522094727 L 31.31667709350586 -12.288000106811523 L 31.688879013061523 -12.88554859161377 L 31.738977432250977 -12.966410636901855 L 31.750835418701172 -12.985548973083496 L 32.0864372253418 -13.553947448730469 L 32.14628601074219 -13.655150413513184 L 32.42241287231445 -14.145383834838867 L 32.535797119140625 -14.351398468017578 L 32.583377838134766 -14.435511589050293 L 32.63058090209961 -14.5236177444458 L 32.768001556396484 -14.780109405517578 L 32.849178314208984 -14.931624412536621 L 32.89518737792969 -15.01750373840332 L 33.17301559448242 -15.562112808227539 L 33.22639846801758 -15.666924476623535 L 33.53565979003906 -16.304141998291016 L 33.5742301940918 -16.384000778198242 L 33.586788177490234 -16.41000747680664 L 33.63581085205078 -16.517074584960938 L 33.92884826660156 -17.159048080444336 L 33.92978286743164 -17.161090850830078 L 34.006744384765625 -17.339101791381836 L 34.200077056884766 -17.785999298095703 L 34.214202880859375 -17.785999298095703 L 34.215633392333984 -17.785999298095703 L 39.33700180053711 -17.785999298095703 L 50 -17.785999298095703 L 50 -16.384000778198242 L 50 4.440892164675075e-17 L 50 17.785999298095703 L 32.768001556396484 17.785999298095703 L 16.384000778198242 17.785999298095703 L 0 17.785999298095703 L -16.384000778198242 17.785999298095703 L -32.768001556396484 17.785999298095703 L -50 17.785999298095703 L -50 4.440892164675075e-17 L -50 -16.384000778198242 L -50 -17.785999298095703 L -37.459999084472656 -17.785999298095703 L -34.250404357910156 -17.785999298095703 L -34.20208740234375 -17.785999298095703 L -34.200077056884766 -17.785999298095703 L -34.006744384765625 -17.339101791381836 L -33.92978286743164 -17.161090850830078 L -33.63581085205078 -16.517074584960938 L -33.586788177490234 -16.41000747680664 L -33.574180603027344 -16.384000778198242 L -33.438106536865234 -16.10329246520996 L -33.38697814941406 -15.997428894042969 L -33.247371673583984 -15.707489967346191 L -33.239219665527344 -15.691481590270996 L -33.22376251220703 -15.661133766174316 L -33.154563903808594 -15.525267601013184 L -32.8980712890625 -15.022517204284668 L -32.895328521728516 -15.01713752746582 L -32.7985954284668 -14.837006568908691 L -32.768001556396484 -14.779951095581055 L -32.525325775146484 -14.327398300170898 L -32.42493438720703 -14.149359703063965 L -32.1464958190918 -13.654522895812988 L -32.134185791015625 -13.633733749389648 L -31.854764938354492 -13.16190242767334 L -31.750713348388672 -12.985954284667969 L -31.74740219116211 -12.980609893798828 L -31.451595306396484 -12.502934455871582 L -31.343881607055664 -12.329078674316406 L -31.31720733642578 -12.288000106811523 L -30.925352096557617 -11.684581756591797 L -30.917882919311523 -11.673078536987305 L -30.737812042236328 -11.408811569213867 L -30.719999313354492 -11.382619857788086 L -30.671646118164062 -11.311518669128418 L -30.46603775024414 -11.010751724243164 L -30.397916793823242 -10.914962768554688 L -30.0428466796875 -10.41392707824707 L -30.030029296875 -10.395842552185059 L -29.91421127319336 -10.239999771118164 L -29.636653900146484 -9.86652660369873 L -29.568492889404297 -9.774669647216797 L -29.566579818725586 -9.772089958190918 L -29.16215705871582 -9.250421524047852 L -29.09012794494629 -9.157488822937012 L -28.67551040649414 -8.64516544342041 L -28.672000885009766 -8.64083480834961 L -28.601375579833984 -8.553736686706543 L -28.52558708190918 -8.46396255493164 L -28.295103073120117 -8.192000389099121 L -28.067638397216797 -7.9236016273498535 L -27.989744186401367 -7.835330963134766 L -27.585323333740234 -7.3765339851379395 L -27.57393455505371 -7.364133358001709 L -27.505773544311523 -7.289917469024658 L -27.025737762451172 -6.769097805023193 L -26.94438362121582 -6.684285640716553 L -26.624000549316406 -6.3503923416137695 L -26.521270751953125 -6.243330955505371 L -26.438112258911133 -6.160172939300537 L -26.421911239624023 -6.144000053405762 L -25.9708194732666 -5.693729400634766 L -25.529865264892578 -5.27061653137207 L -25.444902420043945 -5.189112663269043 L -24.924081802368164 -4.709074974060059 L -24.837615966796875 -4.629526138305664 L -24.576000213623047 -4.398488521575928 L -24.379669189453125 -4.225105285644531 L -24.291399002075195 -4.147360801696777 L -24.23079490661621 -4.0960001945495605 L -23.75103759765625 -3.689413547515869 L -23.66126251220703 -3.613473653793335 L -23.569833755493164 -3.5394887924194336 L -23.05666160583496 -3.1240224838256836 L -23.050472259521484 -3.119215250015259 L -22.963729858398438 -3.051842212677002 L -22.527999877929688 -2.714045524597168 L -22.445417404174805 -2.6500236988067627 L -22.442060470581055 -2.64742112159729 L -22.347623825073242 -2.577345848083496 z" fill="none" stroke="rgb(0,0,255)" stroke-width="0.01mm" />
</svg>