<?xml version="1.0" standalone="no"?>
<!DOCTYPE svg PUBLIC "-//W3C//DTD SVG 1.1//EN"
  "http://www.w3.org/Graphics/SVG/1.1/DTD/svg11.dtd">
<svg width="102mm" height="61.25mm" viewBox="-50 -47.25 102 61.25" xmlns="http://www.w3.org/2000/svg" version="1.1">
	<title>svgOutput</title>
	<desc>made with tinkercad</desc>
<path d="M 51 13 L 32.768001556396484 13 L 16.384000778198242 13 L 8.192000389099121 13 L 0 13 L -2.8970398902893066 13 L -2.897862434387207 13 L -23.776700973510742 13 L -23.777196884155273 13 L -23.799654006958008 13 L -49 13 L -49 4.440892164675075e-17 L -49 -16.384000778198242 L -49 -24.576000213623047 L -49 -32.768001556396484 L -49 -45.2951774597168 L -49 -45.302066802978516 L -49 -46.25 L -36.05352783203125 -46.25 L -36.04289245605469 -46.25 L -36.03969955444336 -46.25 L -36.01502990722656 -46.25 L -36.0142707824707 -46.25 L -36.05766677856445 -46.07564163208008 L -36.138614654541016 -45.744606018066406 L -36.14335250854492 -45.744441986083984 L -36.16292953491211 -45.74375534057617 L -36.17343521118164 -45.74338912963867 L -39.980716705322266 -45.6103515625 L -40.895347595214844 -45.578521728515625 L -41.340911865234375 -45.562923431396484 L -41.38859939575195 -45.56129837036133 L -41.9119987487793 -45.542999267578125 L -41.46616744995117 -32.768001556396484 L -41.21200180053711 -25.485000610351562 L -40.688499450683594 -25.503299713134766 L -40.1525764465332 -25.52211570739746 L -39.71765899658203 -25.5372371673584 L -38.99125671386719 -25.5624942779541 L -35.450923919677734 -25.68616485595703 L -35.43696975708008 -25.6866512298584 L -35.313175201416016 -25.282278060913086 L -35.2908935546875 -25.211090087890625 L -35.290184020996094 -25.208831787109375 L -35.24946975708008 -25.088125228881836 L -35.07695770263672 -24.576000213623047 L -35.035186767578125 -24.45199203491211 L -34.816001892089844 -23.843772888183594 L -34.80745315551758 -23.820058822631836 L -34.75763702392578 -23.682588577270508 L -34.51646041870117 -23.05485725402832 L -34.47750473022461 -22.953630447387695 L -34.44381332397461 -22.870763778686523 L -34.30215835571289 -22.527999877929688 L -34.232666015625 -22.35985565185547 L -34.18593978881836 -22.245342254638672 L -34.18878936767578 -22.24311637878418 L -34.18901443481445 -22.242938995361328 L -36.44563674926758 -20.479999542236328 L -37.21526336669922 -19.87874412536621 L -37.90299987792969 -19.34130859375 L -38.32529830932617 -19.01140022277832 L -38.737998962402344 -18.68899917602539 L -38.73789978027344 -18.68886947631836 L -36.937110900878906 -16.384000778198242 L -32.768001556396484 -11.047863960266113 L -30.536720275878906 -8.192000389099121 L -26.381004333496094 -2.87300443649292 L -26.381000518798828 -2.872999906539917 L -25.978404998779297 -3.187603235244751 L -25.968299865722656 -3.195499897003174 L -25.930648803710938 -3.224921941757202 L -25.628734588623047 -3.4608049392700195 L -24.576000213623047 -4.28331995010376 L -22.565032958984375 -5.854512691497803 L -21.83943748474121 -6.421562194824219 L -21.8387508392334 -6.422098636627197 L -21.838394165039062 -6.422377109527588 L -21.83077621459961 -6.42833137512207 L -21.83070945739746 -6.4283833503723145 L -21.829940795898438 -6.428983211517334 L -21.490446090698242 -6.176882266998291 L -21.42428207397461 -6.128080368041992 L -21.41316795349121 -6.119882583618164 L -20.86526870727539 -5.730806827545166 L -20.776975631713867 -5.6680588722229 L -20.67159652709961 -5.596529483795166 L -20.479999542236328 -5.466093063354492 L -20.116134643554688 -5.218378067016602 L -20.078941345214844 -5.194242477416992 L -20.041091918945312 -5.169680595397949 L -19.963260650634766 -5.119999885559082 L -19.604616165161133 -4.891077041625977 L -19.443883895874023 -4.78607702255249 L -19.320463180541992 -4.709702014923096 L -19.280731201171875 -4.685115337371826 L -18.862781524658203 -4.422243595123291 L -18.793487548828125 -4.379293918609619 L -18.793642044067383 -4.378757476806641 L -18.794931411743164 -4.374255180358887 L -18.79785919189453 -4.364049911499023 L -18.79813575744629 -4.363081455230713 L -18.798397064208984 -4.362170696258545 L -18.803993225097656 -4.342655658721924 L -18.810348510742188 -4.32049036026001 L -18.813692092895508 -4.308831214904785 L -18.874717712402344 -4.0960001945495605 L -19.050546646118164 -3.482781410217285 L -19.85235023498535 -0.686435878276825 L -20.049175262451172 4.440892164675075e-17 L -20.096406936645508 0.1647262424230576 L -20.227447509765625 0.6216768026351929 L -20.240699768066406 0.6675999760627747 L -20.385000228881836 1.1710000038146973 L -20.384979248046875 1.1710059642791748 L -20.38494300842285 1.1710163354873657 L -1.0920562744140625 6.702983856201172 L -1.0920000076293945 6.703000068664551 L -0.947700023651123 6.1996002197265625 L -0.7998846173286438 5.684154033660889 L -1.0597744040311805e-16 2.89408016204834 L 0.24245378375053406 2.0483782291412354 L 0.2425621896982193 2.0480000972747803 L 0.49088138341903687 1.181813359260559 L 0.490993857383728 1.181420922279358 L 0.49640536308288574 1.16254460811615 L 0.49668070673942566 1.1615841388702393 L 0.49951261281967163 1.1517058610916138 L 0.4995202124118805 1.1517059803009033 L 0.4998924136161804 1.1517090797424316 L 0.5574705600738525 1.1521848440170288 L 0.9810000061988831 1.1563866138458252 L 1.1274117231369019 1.155268907546997 L 1.7988402843475342 1.1485462188720703 L 1.9260923862457275 1.144554615020752 L 2.0480000972747803 1.1407402753829956 L 2.5975210666656494 1.1235462427139282 L 2.600147008895874 1.1234111785888672 L 2.7247731685638428 1.1169999837875366 L 3.2315704822540283 1.0903598070144653 L 3.3962016105651855 1.081705927848816 L 3.434041976928711 1.0788319110870361 L 3.825239419937134 1.0472050905227661 L 4.0960001945495605 1.027523159980774 L 4.160222053527832 1.0228546857833862 L 4.1615142822265625 1.0264040231704712 L 4.176769256591797 1.0683130025863647 L 4.181950569152832 1.082547664642334 L 4.18814754486084 1.0995721817016602 L 5.278849124908447 4.0960001945495605 L 5.47514533996582 4.635273456573486 L 5.773499965667725 5.455230712890625 L 5.935000419616699 5.898862361907959 L 5.956900119781494 5.958899974822998 L 6.128356456756592 6.429998874664307 L 6.136000156402588 6.451000213623047 L 6.1360015869140625 6.4509992599487305 L 6.1360626220703125 6.450977325439453 L 8.192000389099121 5.702729225158691 L 16.384000778198242 2.7212932109832764 L 23.8612117767334 4.440892164675075e-17 L 24.576000213623047 -0.26014316082000727 L 24.996000289916992 -0.41299998760223383 L 24.81679916381836 -0.9052000045776367 L 24.709924697875977 -1.1990349292755127 L 24.633499145507812 -1.4091538190841675 L 24.576000213623047 -1.567071795463562 L 24.23592185974121 -2.5010626316070557 L 23.04140281677246 -5.782254219055176 L 23.034006118774414 -5.8025736808776855 L 23.03391456604004 -5.802823543548584 L 23.03361701965332 -5.803641319274902 L 23.023866653442383 -5.830425262451172 L 23.02379035949707 -5.830634593963623 L 23.02065658569336 -5.839243412017822 L 23.019309997558594 -5.84294319152832 L 23.10873031616211 -5.90803861618042 L 23.269460678100586 -6.022730827331543 L 23.4261531829834 -6.133384704589844 L 23.46485710144043 -6.162158489227295 L 23.58042335510254 -6.248076915740967 L 23.997806549072266 -6.5535712242126465 L 24.069656372070312 -6.606899261474609 L 24.08344078063965 -6.617586612701416 L 24.576000213623047 -6.999476432800293 L 24.60074806213379 -7.0186638832092285 L 24.69655990600586 -7.093032360076904 L 24.701335906982422 -7.096739292144775 L 24.78931427001953 -7.168000221252441 L 25.22318458557129 -7.519428730010986 L 25.322175979614258 -7.599579811096191 L 25.351076126098633 -7.6240081787109375 L 25.64900779724121 -7.879580974578857 L 25.905675888061523 -8.096760749816895 L 25.90827178955078 -8.095008850097656 L 25.922340393066406 -8.085518836975098 L 26.624000549316406 -7.612191677093506 L 28.672000885009766 -6.230648040771484 L 29.09294891357422 -5.946683883666992 L 29.736413955688477 -5.5127854347229 L 29.801158905029297 -5.469128131866455 L 29.88888168334961 -5.409912109375 L 30.218994140625 -5.187073230743408 L 30.22125816345215 -5.185545444488525 L 30.260900497436523 -5.158899784088135 L 30.69499969482422 -4.866000175476074 L 32.768001556396484 -7.9392571449279785 L 38.4642219543457 -16.384000778198242 L 39.10300064086914 -17.33099937438965 L 41.91759490966797 -21.504396438598633 L 41.917999267578125 -21.5049991607666 L 41.48379898071289 -21.79789924621582 L 41.44425964355469 -21.82465362548828 L 41.430213928222656 -21.834125518798828 L 41.039344787597656 -22.097692489624023 L 40.07612228393555 -22.747661590576172 L 37.36606216430664 -24.576000213623047 L 37.15693283081055 -24.71708869934082 L 37.15597915649414 -24.71773338317871 L 37.140750885009766 -24.72800636291504 L 37.1406135559082 -24.728099822998047 L 37.13977813720703 -24.728662490844727 L 37.13020324707031 -24.735122680664062 L 37.128013610839844 -24.736600875854492 L 37.26559829711914 -25.136024475097656 L 37.290184020996094 -25.208831787109375 L 37.491024017333984 -25.850008010864258 L 37.52902603149414 -25.97167205810547 L 37.7164192199707 -26.617050170898438 L 37.71844482421875 -26.624000549316406 L 37.75202560424805 -26.73935317993164 L 37.753135681152344 -26.74350357055664 L 37.775177001953125 -26.82573127746582 L 37.90534591674805 -27.326847076416016 L 37.95461654663086 -27.511808395385742 L 37.98822021484375 -27.648000717163086 L 38.00065231323242 -27.69838523864746 L 38.12174606323242 -28.17732810974121 L 38.14122772216797 -28.256521224975586 L 38.14177703857422 -28.256540298461914 L 38.14186477661133 -28.25654411315918 L 38.142059326171875 -28.256549835205078 L 38.14340591430664 -28.2565975189209 L 38.9119987487793 -28.28345489501953 L 39.07334518432617 -28.289093017578125 L 40.959999084472656 -28.354995727539062 L 41.980716705322266 -28.390649795532227 L 42.8656120300293 -28.421497344970703 L 43.340911865234375 -28.43807601928711 L 43.351078033447266 -28.43842124938965 L 43.38859939575195 -28.439699172973633 L 43.68255615234375 -28.44997787475586 L 43.846988677978516 -28.455726623535156 L 43.9119987487793 -28.45800018310547 L 43.761566162109375 -32.768001556396484 L 43.29100036621094 -46.25 L 51 -46.25 L 51 -32.768001556396484 L 51 -16.384000778198242 L 51 4.440892164675075e-17 L 51 13 z" fill="none" stroke="rgb(0,0,255)" stroke-width="0.01mm" />
</svg>