<?xml version="1.0" standalone="no"?>
<!DOCTYPE svg PUBLIC "-//W3C//DTD SVG 1.1//EN"
  "http://www.w3.org/Graphics/SVG/1.1/DTD/svg11.dtd">
<svg width="102mm" height="23.20599937438965mm" viewBox="-51 -11.602999687194824 102 23.20599937438965" xmlns="http://www.w3.org/2000/svg" version="1.1">
	<title>svgOutput</title>
	<desc>made with tinkercad</desc>
<path d="M 7.031004905700684 -4.966241359710693 L 7.304086685180664 -5.020956039428711 L 7.306612968444824 -5.021462440490723 L 7.662814140319824 -5.101060390472412 L 8.025125503540039 -5.181964874267578 L 8.192000389099121 -5.222980499267578 L 8.3793363571167 -5.2690253257751465 L 8.739638328552246 -5.357467174530029 L 8.744587898254395 -5.358798980712891 L 9.020718574523926 -5.4330854415893555 L 9.333784103393555 -5.517507553100586 L 9.333883285522461 -5.517334938049316 L 9.336699485778809 -5.512458324432373 L 9.338878631591797 -5.508684158325195 L 9.339452743530273 -5.507690906524658 L 9.350736618041992 -5.488150596618652 L 9.369717597961426 -5.45527982711792 L 9.370807647705078 -5.45339298248291 L 10.154642105102539 -4.0960001945495605 L 10.76356315612793 -3.0415124893188477 L 11.67740249633789 -1.4592392444610596 L 11.703230857849121 -1.4145030975341797 L 11.900550842285156 -1.072738766670227 L 11.916899681091309 -1.0444999933242798 L 12.151000022888184 -0.6389999985694885 L 16.384000778198242 -3.082930326461792 L 27.489999771118164 -9.494999885559082 L 26.85099983215332 -10.602999687194824 L 32.768001556396484 -10.602999687194824 L 50 -10.602999687194824 L 50 10.602999687194824 L 32.768001556396484 10.602999687194824 L 16.384000778198242 10.602999687194824 L 3.649534225463867 10.602999687194824 L 0 10.602999687194824 L -16.384000778198242 10.602999687194824 L -32.768001556396484 10.602999687194824 L -50 10.602999687194824 L -50 -10.602999687194824 L -32.768001556396484 -10.602999687194824 L -27.26300048828125 -10.602999687194824 L -19.94316864013672 -4.012152194976807 L -19.94303321838379 -4.01202917098999 L -19.94300079345703 -4.01200008392334 L -19.62969970703125 -4.360000133514404 L -19.342649459838867 -4.678783416748047 L -19.309329986572266 -4.715771675109863 L -18.266918182373047 -5.8735032081604 L -16.384000778198242 -7.965035915374756 L -16.187063217163086 -8.183791160583496 L -16.17967414855957 -8.192000389099121 L -16.173625946044922 -8.19871711730957 L -16.160512924194336 -8.192000389099121 L -15.884934425354004 -8.0508394241333 L -15.625743865966797 -7.9185075759887695 L -15.292075157165527 -7.757201194763184 L -14.928536415100098 -7.583470344543457 L -14.887120246887207 -7.56367826461792 L -14.549431800842285 -7.409407138824463 L -14.336000442504883 -7.311410903930664 L -14.293724060058594 -7.291999816894531 L -14.036025047302246 -7.180562973022461 L -13.695823669433594 -7.0328240394592285 L -13.664527893066406 -7.019915580749512 L -13.280920028686523 -6.861688613891602 L -12.937200546264648 -6.721487522125244 L -12.665573120117188 -6.6170148849487305 L -12.362845420837402 -6.501471519470215 L -12.362935066223145 -6.500616073608398 L -12.400437355041504 -6.144000053405762 L -12.615808486938477 -4.0960001945495605 L -12.690040588378906 -3.3901162147521973 L -12.852828025817871 -1.8408583402633667 L -12.858047485351562 -1.7913751602172852 L -12.880558967590332 -1.5779812335968018 L -12.896302223205566 -1.428743839263916 L -12.899646759033203 -1.3970433473587036 L -12.902999877929688 -1.3646999597549438 L -12.95199966430664 -0.8989999890327454 L -8.192000389099121 -0.39857310056686396 L -4.400820732116699 4.440892164675075e-17 L 0 0.4626657664775849 L 4.662971019744873 0.9528918266296387 L 4.663995742797852 0.9529995918273926 L 4.664000034332275 0.953000009059906 L 4.7129998207092285 0.4873000085353852 L 4.716353416442871 0.4548508822917939 L 4.757449626922607 0.06409170478582386 L 4.762988090515137 0.010957681573927448 L 4.764139652252197 4.440892164675075e-17 L 4.953949928283691 -1.806296467781067 L 5.031305313110352 -2.5398166179656982 L 5.06815242767334 -2.889214515686035 L 5.195037841796875 -4.0960001945495605 L 5.249989032745361 -4.618631362915039 L 5.252729892730713 -4.644698143005371 L 5.253101825714111 -4.6482367515563965 L 5.2531514167785645 -4.648706912994385 L 5.253235340118408 -4.649505138397217 L 5.288052558898926 -4.654927730560303 L 5.3283772468566895 -4.661207675933838 L 5.585248947143555 -4.705469608306885 L 5.860703945159912 -4.749179840087891 L 6.134509086608887 -4.7986626625061035 L 6.144000053405762 -4.800230503082275 L 6.39158296585083 -4.841135501861572 L 6.667688369750977 -4.892874240875244 L 6.768845558166504 -4.913301944732666 L 7.031004905700684 -4.966241359710693 z" fill="none" stroke="rgb(0,0,255)" stroke-width="0.01mm" />
</svg>