<?xml version="1.0" standalone="no"?>
<!DOCTYPE svg PUBLIC "-//W3C//DTD SVG 1.1//EN"
  "http://www.w3.org/Graphics/SVG/1.1/DTD/svg11.dtd">
<svg width="102mm" height="87.8499984741211mm" viewBox="-51 -43.92499923706055 102 87.8499984741211" xmlns="http://www.w3.org/2000/svg" version="1.1">
	<title>svgOutput</title>
	<desc>made with tinkercad</desc>
<path d="M -33.243499755859375 -29.315000534057617 L -33.314998626708984 -29.209999084472656 L -33.31694412231445 -29.207002639770508 L -33.66397476196289 -28.672000885009766 L -33.770999908447266 -28.506999969482422 L -34.2130012512207 -27.795000076293945 L -34.638999938964844 -27.073999404907227 L -35.04999923706055 -26.3439998626709 L -35.44599914550781 -25.606000900268555 L -35.82699966430664 -24.860000610351562 L -35.96392059326172 -24.576000213623047 L -36.191001892089844 -24.104999542236328 L -36.540000915527344 -23.3439998626709 L -36.87300109863281 -22.575000762939453 L -37.18899917602539 -21.798999786376953 L -37.48899841308594 -21.017000198364258 L -37.68253707885742 -20.479999542236328 L -37.77299880981445 -20.229000091552734 L -38.040000915527344 -19.434999465942383 L -38.29100036621094 -18.63599967956543 L -38.52399826049805 -17.83099937438965 L -38.74100112915039 -17.02199935913086 L -38.89794921875 -16.384000778198242 L -38.941001892089844 -16.208999633789062 L -39.124000549316406 -15.390999794006348 L -39.28900146484375 -14.569999694824219 L -39.4379997253418 -13.746000289916992 L -39.569000244140625 -12.918000221252441 L -39.65476989746094 -12.288000106811523 L -39.68199920654297 -12.088000297546387 L -39.77899932861328 -11.255999565124512 L -39.858001708984375 -10.42199993133545 L -39.91899871826172 -9.586999893188477 L -39.9630012512207 -8.75 L -39.96699905395508 -8.623000144958496 L -39.97087860107422 -8.498175621032715 L -39.97999954223633 -8.204500198364258 L -39.980384826660156 -8.192000389099121 L -39.98899841308594 -7.913000106811523 L -39.99800109863281 -7.074999809265137 L -39.98899841308594 -6.236999988555908 L -39.98612976074219 -6.144000053405762 L -39.97999954223633 -5.945499897003174 L -39.97099304199219 -5.655599594116211 L -39.970947265625 -5.654017448425293 L -39.96699905395508 -5.5269999504089355 L -39.9630012512207 -5.400000095367432 L -39.91899871826172 -4.564000129699707 L -39.88485336303711 -4.0960001945495605 L -39.858001708984375 -3.7279999256134033 L -39.77899932861328 -2.8940000534057617 L -39.68199920654297 -2.062000036239624 L -39.569000244140625 -1.2319999933242798 L -39.4379997253418 -0.40500000119209284 L -39.36485290527344 4.440892164675075e-17 L -39.28900146484375 0.4199999868869782 L -39.124000549316406 1.2410000562667847 L -38.941001892089844 2.058000087738037 L -38.74100112915039 2.871999979019165 L -38.52399826049805 3.680999994277954 L -38.40373229980469 4.0960001945495605 L -38.29100036621094 4.485000133514404 L -38.040000915527344 5.284999847412109 L -37.77299880981445 6.078999996185303 L -37.48899841308594 6.867000102996826 L -37.18899917602539 7.64900016784668 L -36.96788024902344 8.192000389099121 L -36.87300109863281 8.425000190734863 L -36.540000915527344 9.192999839782715 L -36.191001892089844 9.954999923706055 L -35.82699966430664 10.708999633789062 L -35.44599914550781 11.456000328063965 L -35.04999923706055 12.194000244140625 L -34.99707794189453 12.288000106811523 L -34.638999938964844 12.923999786376953 L -34.2130012512207 13.645000457763672 L -33.784034729003906 14.336000442504883 L -33.770999908447266 14.357000350952148 L -33.314998626708984 15.059000015258789 L -33.243499755859375 15.163999557495117 L -33.17318344116211 15.267459869384766 L -33.17211151123047 15.269036293029785 L -33.007999420166016 15.510499954223633 L -32.84400177001953 15.751999855041504 L -32.768001556396484 15.859026908874512 L -32.39521408081055 16.384000778198242 L -32.35900115966797 16.434999465942383 L -31.858999252319336 17.10700035095215 L -31.680500030517578 17.33799934387207 L -31.423999786376953 17.66900062561035 L -31.34600067138672 17.768999099731445 L -30.819000244140625 18.420000076293945 L -30.808856964111328 18.43199920654297 L -30.277999877929688 19.059999465942383 L -29.724000930786133 19.68899917602539 L -29.156999588012695 20.30500030517578 L -28.98923110961914 20.479999542236328 L -28.57699966430664 20.90999984741211 L -27.985000610351562 21.50200080871582 L -27.3799991607666 22.082000732421875 L -26.763999938964844 22.64900016784668 L -26.135000228881836 23.202999114990234 L -25.496000289916992 23.743999481201172 L -24.844999313354492 24.270999908447266 L -24.576000213623047 24.479454040527344 L -24.451414108276367 24.576000213623047 L -24.183000564575195 24.784000396728516 L -23.510000228881836 25.284000396728516 L -22.82699966430664 25.768999099731445 L -22.134000778198242 26.239999771118164 L -21.43199920654297 26.695999145507812 L -20.719999313354492 27.13800048828125 L -19.999000549316406 27.56399917602539 L -19.268999099731445 27.975000381469727 L -18.5310001373291 28.371000289916992 L -17.93929672241211 28.672000885009766 L -17.784000396728516 28.750999450683594 L -17.030000686645508 29.115999221801758 L -16.384000778198242 29.412260055541992 L -16.268999099731445 29.46500015258789 L -15.5 29.797000885009766 L -14.723999977111816 30.11400032043457 L -13.944950103759766 30.41286849975586 L -13.942000389099121 30.413999557495117 L -13.822500228881836 30.457000732421875 L -13.704697608947754 30.49945640563965 L -13.703398704528809 30.49992561340332 L -13.703028678894043 30.500059127807617 L -13.702908515930176 30.50010108947754 L -13.428500175476074 30.599000930786133 L -13.154000282287598 30.697999954223633 L -13.088576316833496 30.719999313354492 L -12.359999656677246 30.96500015258789 L -12.288000106811523 30.98761749267578 L -11.568618774414062 31.213605880737305 L -11.560999870300293 31.215999603271484 L -11.280500411987305 31.297000885009766 L -11 31.378189086914062 L -10.878000259399414 31.41349983215332 L -10.755999565124512 31.448999404907227 L -9.946999549865723 31.666000366210938 L -9.133999824523926 31.865999221801758 L -8.315999984741211 32.04899978637695 L -8.192000389099121 32.07392120361328 L -7.494999885559082 32.2140007019043 L -6.670000076293945 32.362998962402344 L -5.8429999351501465 32.49399948120117 L -5.013000011444092 32.606998443603516 L -4.181000232696533 32.70399856567383 L -3.496692419052124 32.768001556396484 L -3.3469998836517334 32.78200149536133 L -2.51200008392334 32.84400177001953 L -1.6749999523162842 32.88800048828125 L -0.8379999995231628 32.91400146484375 L -4.139211488753819e-13 32.92300033569336 L 0.8379999995231628 32.91400146484375 L 1.6749999523162842 32.88800048828125 L 2.51200008392334 32.84400177001953 L 3.3469998836517334 32.78200149536133 L 3.496692419052124 32.768001556396484 L 4.181000232696533 32.70399856567383 L 5.013000011444092 32.606998443603516 L 5.8429999351501465 32.49399948120117 L 6.670000076293945 32.362998962402344 L 7.494999885559082 32.2140007019043 L 8.192000389099121 32.07392120361328 L 8.315999984741211 32.04899978637695 L 9.133999824523926 31.865999221801758 L 9.946999549865723 31.666000366210938 L 10.747126579284668 31.451379776000977 L 10.755999565124512 31.448999404907227 L 10.878000259399414 31.41349983215332 L 11 31.378189086914062 L 11.280500411987305 31.297000885009766 L 11.560999870300293 31.215999603271484 L 12.288000106811523 30.98761749267578 L 12.359999656677246 30.96500015258789 L 13.088576316833496 30.719999313354492 L 13.134819984436035 30.704448699951172 L 13.15116024017334 30.698955535888672 L 13.154000282287598 30.697999954223633 L 13.428500175476074 30.599000930786133 L 13.822500228881836 30.457000732421875 L 13.942000389099121 30.413999557495117 L 14.723999977111816 30.11400032043457 L 15.5 29.797000885009766 L 16.268999099731445 29.46500015258789 L 16.384000778198242 29.412260055541992 L 17.030000686645508 29.115999221801758 L 17.784000396728516 28.750999450683594 L 17.93929672241211 28.672000885009766 L 18.5310001373291 28.371000289916992 L 19.268999099731445 27.975000381469727 L 19.999000549316406 27.56399917602539 L 20.719999313354492 27.13800048828125 L 21.43199920654297 26.695999145507812 L 22.134000778198242 26.239999771118164 L 22.82699966430664 25.768999099731445 L 23.510000228881836 25.284000396728516 L 24.183000564575195 24.784000396728516 L 24.451414108276367 24.576000213623047 L 24.576000213623047 24.479454040527344 L 24.844999313354492 24.270999908447266 L 25.496000289916992 23.743999481201172 L 26.135000228881836 23.202999114990234 L 26.763999938964844 22.64900016784668 L 27.3799991607666 22.082000732421875 L 27.985000610351562 21.50200080871582 L 28.57699966430664 20.90999984741211 L 28.98923110961914 20.479999542236328 L 29.156999588012695 20.30500030517578 L 29.724000930786133 19.68899917602539 L 30.277999877929688 19.059999465942383 L 30.808856964111328 18.43199920654297 L 30.819000244140625 18.420000076293945 L 31.34600067138672 17.768999099731445 L 31.423999786376953 17.66900062561035 L 31.501720428466797 17.568706512451172 L 31.680500030517578 17.33799934387207 L 31.858999252319336 17.10700035095215 L 32.35900115966797 16.434999465942383 L 32.39521408081055 16.384000778198242 L 32.768001556396484 15.859026908874512 L 32.82207489013672 15.782875061035156 L 32.8408203125 15.756478309631348 L 32.84400177001953 15.751999855041504 L 33.007999420166016 15.510499954223633 L 33.243499755859375 15.163999557495117 L 33.314998626708984 15.059000015258789 L 33.770999908447266 14.357000350952148 L 33.784034729003906 14.336000442504883 L 34.2130012512207 13.645000457763672 L 34.638999938964844 12.923999786376953 L 34.99707794189453 12.288000106811523 L 35.04999923706055 12.194000244140625 L 35.44599914550781 11.456000328063965 L 35.82699966430664 10.708999633789062 L 36.191001892089844 9.954999923706055 L 36.540000915527344 9.192999839782715 L 36.87300109863281 8.425000190734863 L 36.96788024902344 8.192000389099121 L 37.18899917602539 7.64900016784668 L 37.48899841308594 6.867000102996826 L 37.77299880981445 6.078999996185303 L 38.040000915527344 5.284999847412109 L 38.29100036621094 4.485000133514404 L 38.40373229980469 4.0960001945495605 L 38.52399826049805 3.680999994277954 L 38.74100112915039 2.871999979019165 L 38.941001892089844 2.058000087738037 L 39.124000549316406 1.2410000562667847 L 39.28900146484375 0.4199999868869782 L 39.36485290527344 4.440892164675075e-17 L 39.4379997253418 -0.40500000119209284 L 39.569000244140625 -1.2319999933242798 L 39.68199920654297 -2.062000036239624 L 39.77899932861328 -2.8940000534057617 L 39.858001708984375 -3.7279999256134033 L 39.88485336303711 -4.0960001945495605 L 39.91899871826172 -4.564000129699707 L 39.9630012512207 -5.400000095367432 L 39.96699905395508 -5.5269999504089355 L 39.970943450927734 -5.653909206390381 L 39.97999954223633 -5.945499897003174 L 39.98612976074219 -6.144000053405762 L 39.98899841308594 -6.236999988555908 L 39.99800109863281 -7.074999809265137 L 39.98899841308594 -7.913000106811523 L 39.980384826660156 -8.192000389099121 L 39.97999954223633 -8.204500198364258 L 39.970947265625 -8.49598217010498 L 39.97087860107422 -8.498175621032715 L 39.96699905395508 -8.623000144958496 L 39.9630012512207 -8.75 L 39.91899871826172 -9.586999893188477 L 39.858001708984375 -10.42199993133545 L 39.77899932861328 -11.255999565124512 L 39.68199920654297 -12.088000297546387 L 39.65476989746094 -12.288000106811523 L 39.569000244140625 -12.918000221252441 L 39.4379997253418 -13.746000289916992 L 39.28900146484375 -14.569999694824219 L 39.124000549316406 -15.390999794006348 L 38.941001892089844 -16.208999633789062 L 38.89794921875 -16.384000778198242 L 38.74100112915039 -17.02199935913086 L 38.52399826049805 -17.83099937438965 L 38.29100036621094 -18.63599967956543 L 38.040000915527344 -19.434999465942383 L 37.77299880981445 -20.229000091552734 L 37.68253707885742 -20.479999542236328 L 37.48899841308594 -21.017000198364258 L 37.18899917602539 -21.798999786376953 L 36.87300109863281 -22.575000762939453 L 36.540000915527344 -23.3439998626709 L 36.191001892089844 -24.104999542236328 L 35.96392059326172 -24.576000213623047 L 35.82699966430664 -24.860000610351562 L 35.44599914550781 -25.606000900268555 L 35.04999923706055 -26.3439998626709 L 34.638999938964844 -27.073999404907227 L 34.2130012512207 -27.795000076293945 L 33.770999908447266 -28.506999969482422 L 33.66397476196289 -28.672000885009766 L 33.315673828125 -29.208961486816406 L 33.314998626708984 -29.209999084472656 L 33.243499755859375 -29.315000534057617 L 33.172027587890625 -29.42000961303711 L 33.007999420166016 -29.660999298095703 L 32.84400177001953 -29.902000427246094 L 32.768001556396484 -30.0090274810791 L 32.35900115966797 -30.584999084472656 L 31.858999252319336 -31.257999420166016 L 31.680500030517578 -31.488500595092773 L 31.423999786376953 -31.819499969482422 L 31.34600067138672 -31.920000076293945 L 30.819000244140625 -32.57099914550781 L 30.65247344970703 -32.768001556396484 L 30.277999877929688 -33.21099853515625 L 29.724000930786133 -33.8390007019043 L 29.156999588012695 -34.45600128173828 L 28.672000885009766 -34.96106719970703 L 28.57699966430664 -35.060001373291016 L 27.985000610351562 -35.65299987792969 L 27.3799991607666 -36.231998443603516 L 26.763999938964844 -36.79899978637695 L 26.690200805664062 -36.86399841308594 L 26.135000228881836 -37.35300064086914 L 25.496000289916992 -37.89400100708008 L 24.844999313354492 -38.42100143432617 L 24.576000213623047 -38.629859924316406 L 24.183000564575195 -38.935001373291016 L 23.510000228881836 -39.433998107910156 L 22.82699966430664 -39.91899871826172 L 22.134000778198242 -40.38999938964844 L 21.43199920654297 -40.84700012207031 L 21.24955940246582 -40.959999084472656 L 20.719999313354492 -41.28799819946289 L 19.999000549316406 -41.7140007019043 L 19.268999099731445 -42.125999450683594 L 18.5310001373291 -42.520999908447266 L 17.784000396728516 -42.902000427246094 L 17.73699951171875 -42.92499923706055 L 17.77618408203125 -42.92499923706055 L 17.853296279907227 -42.92499923706055 L 17.94939613342285 -42.92499923706055 L 24.576000213623047 -42.92499923706055 L 27.215999603271484 -42.92499923706055 L 32.768001556396484 -42.92499923706055 L 50 -42.92499923706055 L 50 -32.768001556396484 L 50 -16.384000778198242 L 50 4.440892164675075e-17 L 50 16.384000778198242 L 50 32.768001556396484 L 50 42.92499923706055 L 32.768001556396484 42.92499923706055 L 16.384000778198242 42.92499923706055 L 8.192000389099121 42.92499923706055 L 0 42.92499923706055 L -8.192000389099121 42.92499923706055 L -16.384000778198242 42.92499923706055 L -32.768001556396484 42.92499923706055 L -50 42.92499923706055 L -50 32.768001556396484 L -50 16.384000778198242 L -50 4.440892164675075e-17 L -50 -16.384000778198242 L -50 -32.768001556396484 L -50 -42.92499923706055 L -32.768001556396484 -42.92499923706055 L -24.576000213623047 -42.92499923706055 L -17.77618408203125 -42.92499923706055 L -17.73699951171875 -42.92499923706055 L -17.784000396728516 -42.902000427246094 L -18.5310001373291 -42.520999908447266 L -19.268999099731445 -42.125999450683594 L -19.999000549316406 -41.7140007019043 L -20.719999313354492 -41.28799819946289 L -21.24955940246582 -40.959999084472656 L -21.43199920654297 -40.84700012207031 L -22.134000778198242 -40.38999938964844 L -22.82699966430664 -39.91899871826172 L -23.510000228881836 -39.433998107910156 L -24.183000564575195 -38.935001373291016 L -24.576000213623047 -38.629859924316406 L -24.844999313354492 -38.42100143432617 L -25.496000289916992 -37.89400100708008 L -26.135000228881836 -37.35300064086914 L -26.690200805664062 -36.86399841308594 L -26.763999938964844 -36.79899978637695 L -27.3799991607666 -36.231998443603516 L -27.985000610351562 -35.65299987792969 L -28.57699966430664 -35.060001373291016 L -28.672000885009766 -34.96106719970703 L -29.156999588012695 -34.45600128173828 L -29.724000930786133 -33.8390007019043 L -30.277999877929688 -33.21099853515625 L -30.65247344970703 -32.768001556396484 L -30.819000244140625 -32.57099914550781 L -31.34600067138672 -31.920000076293945 L -31.423999786376953 -31.819499969482422 L -31.502044677734375 -31.718786239624023 L -31.50250244140625 -31.718196868896484 L -31.680500030517578 -31.488500595092773 L -31.858999252319336 -31.257999420166016 L -32.35900115966797 -30.584999084472656 L -32.768001556396484 -30.0090274810791 L -32.84400177001953 -29.902000427246094 L -33.007999420166016 -29.660999298095703 L -33.243499755859375 -29.315000534057617 z" fill="none" stroke="rgb(0,0,255)" stroke-width="0.01mm" />
</svg>