<?xml version="1.0" standalone="no"?>
<!DOCTYPE svg PUBLIC "-//W3C//DTD SVG 1.1//EN"
  "http://www.w3.org/Graphics/SVG/1.1/DTD/svg11.dtd">
<svg width="102mm" height="84.91400146484375mm" viewBox="-51 -42.457000732421875 102 84.91400146484375" xmlns="http://www.w3.org/2000/svg" version="1.1">
	<title>svgOutput</title>
	<desc>made with tinkercad</desc>
<path d="M -31.32550048828125 -32.944000244140625 L -31.462142944335938 -32.768001556396484 L -31.479999542236328 -32.744998931884766 L -31.62973403930664 -32.55155944824219 L -31.749155044555664 -32.39088439941406 L -32.11299514770508 -31.9008731842041 L -32.125492095947266 -31.884042739868164 L -32.49045181274414 -31.369613647460938 L -32.60649490356445 -31.206283569335938 L -32.74449920654297 -31.003999710083008 L -32.768001556396484 -30.969533920288086 L -32.809486389160156 -30.9086856842041 L -32.887001037597656 -30.795000076293945 L -32.8870735168457 -30.79502296447754 L -36.154998779296875 -31.85700035095215 L -36.86399841308594 -32.08742904663086 L -38.958011627197266 -32.768001556396484 L -39.39799880981445 -32.9109992980957 L -39.44446563720703 -32.768001556396484 L -40.775413513183594 -28.672000885009766 L -40.959999084472656 -28.103927612304688 L -42.10635757446289 -24.576000213623047 L -44.76824951171875 -16.384000778198242 L -46.196998596191406 -11.987000465393066 L -42.95349884033203 -10.933500289916992 L -40.959999084472656 -10.285772323608398 L -40.81912612915039 -10.239999771118164 L -39.76972198486328 -9.899027824401855 L -39.68507766723633 -9.871525764465332 L -39.6850700378418 -9.871522903442383 L -39.685001373291016 -9.871500015258789 L -39.69132614135742 -9.671846389770508 L -39.69300079345703 -9.619000434875488 L -39.70066833496094 -9.374517440795898 L -39.70068359375 -9.373117446899414 L -39.707496643066406 -8.744000434875488 L -39.70966720581055 -8.543758392333984 L -39.70966720581055 -8.543638229370117 L -39.705867767333984 -8.192000389099121 L -39.70283889770508 -7.911723613739014 L -39.70066833496094 -7.711482524871826 L -39.69300079345703 -7.4670000076293945 L -39.685001373291016 -7.215000152587891 L -39.74031448364258 -7.19702672958374 L -40.959999084472656 -6.800727367401123 L -42.95349884033203 -6.1529998779296875 L -46.196998596191406 -5.098999977111816 L -44.540061950683594 4.440892164675075e-17 L -41.87804412841797 8.192000389099121 L -40.959999084472656 11.017156600952148 L -40.547035217285156 12.288000106811523 L -39.39799880981445 15.824000358581543 L -36.86399841308594 15.000821113586426 L -36.154998779296875 14.770500183105469 L -32.887001037597656 13.708499908447266 L -32.88678741455078 13.708809852600098 L -32.768001556396484 13.883033752441406 L -32.74449920654297 13.917499542236328 L -32.60649490356445 14.120283126831055 L -32.45322799682617 14.336000442504883 L -32.125492095947266 14.797283172607422 L -31.749155044555664 15.304125785827637 L -31.62973403930664 15.464800834655762 L -31.479999542236328 15.657999992370605 L -31.436695098876953 15.713918685913086 L -31.32550048828125 15.857500076293945 L -31.33161163330078 15.865912437438965 L -31.33181381225586 15.866190910339355 L -31.33786392211914 15.874517440795898 L -31.707996368408203 16.384000778198242 L -32.768001556396484 17.843080520629883 L -33.34550094604492 18.63800048828125 L -35.349998474121094 21.39699935913086 L -35.34992218017578 21.397056579589844 L -32.768001556396484 23.2728271484375 L -30.97423553466797 24.576000213623047 L -24.576000213623047 29.224327087402344 L -19.69827651977539 32.768001556396484 L -17.551000595092773 34.327999114990234 L -16.41761016845703 32.768001556396484 L -16.384000778198242 32.721736907958984 L -15.546500205993652 31.569000244140625 L -13.52649974822998 28.788999557495117 L -13.289999961853027 28.874500274658203 L -13.060650825500488 28.956995010375977 L -13.060315132141113 28.957115173339844 L -12.460906028747559 29.1589412689209 L -12.288000106811523 29.2171630859375 L -12.271039009094238 29.22287368774414 L -11.47903823852539 29.470874786376953 L -11.243499755859375 29.539499282836914 L -11 29.610000610351562 L -11 29.63230323791504 L -11 29.695999145507812 L -11 30.719999313354492 L -11 32.768001556396484 L -11 36.457000732421875 L 0 36.457000732421875 L 11 36.457000732421875 L 11 32.768001556396484 L 11 30.719999313354492 L 11 29.695999145507812 L 11 29.664148330688477 L 11 29.610445022583008 L 11 29.610000610351562 L 11.243499755859375 29.539499282836914 L 11.47903823852539 29.470874786376953 L 12.271039009094238 29.22287368774414 L 12.288000106811523 29.2171630859375 L 12.460906028747559 29.1589412689209 L 13.060315132141113 28.957115173339844 L 13.060650825500488 28.956995010375977 L 13.289999961853027 28.874500274658203 L 13.52649974822998 28.788999557495117 L 15.546500205993652 31.569000244140625 L 16.384000778198242 32.721736907958984 L 16.41761016845703 32.768001556396484 L 17.551000595092773 34.327999114990234 L 17.551156997680664 34.327884674072266 L 19.69827651977539 32.768001556396484 L 24.576000213623047 29.224327087402344 L 30.97423553466797 24.576000213623047 L 32.768001556396484 23.2728271484375 L 35.34992218017578 21.397056579589844 L 35.349998474121094 21.39699935913086 L 33.34550094604492 18.63800048828125 L 32.768001556396484 17.843080520629883 L 31.707996368408203 16.384000778198242 L 31.376285552978516 15.927404403686523 L 31.376203536987305 15.927292823791504 L 31.366682052612305 15.914185523986816 L 31.35780906677246 15.901972770690918 L 31.352432250976562 15.894571304321289 L 31.33353614807129 15.868560791015625 L 31.33161163330078 15.865912437438965 L 31.32550048828125 15.857500076293945 L 31.479999542236328 15.657999992370605 L 31.62973403930664 15.464800834655762 L 31.632457733154297 15.461135864257812 L 31.749155044555664 15.304125785827637 L 32.125492095947266 14.797283172607422 L 32.45322799682617 14.336000442504883 L 32.603702545166016 14.124213218688965 L 32.60649490356445 14.120283126831055 L 32.74449920654297 13.917499542236328 L 32.768001556396484 13.883033752441406 L 32.887001037597656 13.708499908447266 L 36.154998779296875 14.770500183105469 L 36.86399841308594 15.000821113586426 L 39.39799880981445 15.824000358581543 L 40.547035217285156 12.288000106811523 L 40.959999084472656 11.017156600952148 L 41.87804412841797 8.192000389099121 L 44.540061950683594 4.440892164675075e-17 L 46.196998596191406 -5.098999977111816 L 42.95349884033203 -6.1529998779296875 L 40.959999084472656 -6.800727367401123 L 39.74031448364258 -7.19702672958374 L 39.685001373291016 -7.215000152587891 L 39.68500518798828 -7.215122699737549 L 39.69300079345703 -7.4670000076293945 L 39.70064163208008 -7.7106804847717285 L 39.70066833496094 -7.711482524871826 L 39.705867767333984 -8.192000389099121 L 39.707496643066406 -8.342759132385254 L 39.70966720581055 -8.543000221252441 L 39.70283889770508 -9.174276351928711 L 39.70066833496094 -9.374517440795898 L 39.69300079345703 -9.619000434875488 L 39.685001373291016 -9.871500015258789 L 39.69526290893555 -9.874834060668945 L 40.81912612915039 -10.239999771118164 L 40.959999084472656 -10.285772323608398 L 42.95349884033203 -10.933500289916992 L 46.196998596191406 -11.987000465393066 L 44.76824951171875 -16.384000778198242 L 42.10635757446289 -24.576000213623047 L 40.959999084472656 -28.103927612304688 L 40.775413513183594 -28.672000885009766 L 39.44446563720703 -32.768001556396484 L 39.39799880981445 -32.9109992980957 L 38.958011627197266 -32.768001556396484 L 36.86399841308594 -32.08742904663086 L 36.154998779296875 -31.85700035095215 L 32.89938735961914 -30.79902458190918 L 32.88729476928711 -30.795095443725586 L 32.887001037597656 -30.795000076293945 L 32.768001556396484 -30.969533920288086 L 32.74449920654297 -31.003999710083008 L 32.61078643798828 -31.199989318847656 L 32.60649490356445 -31.206283569335938 L 32.49045181274414 -31.369613647460938 L 32.125492095947266 -31.884042739868164 L 31.749155044555664 -32.39088439941406 L 31.62973403930664 -32.55155944824219 L 31.479999542236328 -32.744998931884766 L 31.462142944335938 -32.768001556396484 L 31.325626373291016 -32.94384002685547 L 31.32550048828125 -32.944000244140625 L 31.32572364807129 -32.94430923461914 L 31.331998825073242 -32.95294189453125 L 32.68572998046875 -34.816001892089844 L 32.768001556396484 -34.929222106933594 L 33.34550094604492 -35.7239990234375 L 35.349998474121094 -38.483001708984375 L 32.768001556396484 -40.35909652709961 L 31.941001892089844 -40.959999084472656 L 31.256999969482422 -41.457000732421875 L 32.768001556396484 -41.457000732421875 L 50 -41.457000732421875 L 50 -36.35673141479492 L 50 -32.768001556396484 L 50 -16.384000778198242 L 50 4.440892164675075e-17 L 50 16.384000778198242 L 50 32.768001556396484 L 50 41.457000732421875 L 32.768001556396484 41.457000732421875 L 16.384000778198242 41.457000732421875 L 0 41.457000732421875 L -16.384000778198242 41.457000732421875 L -32.768001556396484 41.457000732421875 L -50 41.457000732421875 L -50 32.768001556396484 L -50 16.384000778198242 L -50 4.440892164675075e-17 L -50 -16.384000778198242 L -50 -32.768001556396484 L -50 -41.457000732421875 L -32.768001556396484 -41.457000732421875 L -31.256999969482422 -41.457000732421875 L -31.941001892089844 -40.959999084472656 L -32.768001556396484 -40.35909652709961 L -35.349998474121094 -38.483001708984375 L -33.34550094604492 -35.7239990234375 L -32.768001556396484 -34.929222106933594 L -32.68572998046875 -34.816001892089844 L -31.32550048828125 -32.944000244140625 z" fill="none" stroke="rgb(0,0,255)" stroke-width="0.01mm" />
</svg>