<?xml version="1.0" standalone="no"?>
<!DOCTYPE svg PUBLIC "-//W3C//DTD SVG 1.1//EN"
  "http://www.w3.org/Graphics/SVG/1.1/DTD/svg11.dtd">
<svg width="102mm" height="87.72200012207031mm" viewBox="-51 -43.861000061035156 102 87.72200012207031" xmlns="http://www.w3.org/2000/svg" version="1.1">
	<title>svgOutput</title>
	<desc>made with tinkercad</desc>
<path d="M 26.77617835998535 -36.631927490234375 L 26.655242919921875 -36.74322509765625 L 26.65483283996582 -36.743587493896484 L 26.624000549316406 -36.77077865600586 L 26.613107681274414 -36.7803840637207 L 26.51896858215332 -36.86399841308594 L 26.482337951660156 -36.89653778076172 L 26.482210159301758 -36.89665222167969 L 26.501222610473633 -36.935630798339844 L 28.427799224853516 -40.88534927368164 L 28.464200973510742 -40.959999084472656 L 28.82460594177246 -41.6990966796875 L 29.128999710083008 -42.323001861572266 L 29.128870010375977 -42.323062896728516 L 28.025999069213867 -42.861000061035156 L 29.391183853149414 -42.861000061035156 L 29.39147186279297 -42.861000061035156 L 29.391698837280273 -42.861000061035156 L 32.768001556396484 -42.861000061035156 L 44.26865005493164 -42.861000061035156 L 44.276126861572266 -42.861000061035156 L 50 -42.861000061035156 L 50 -32.768001556396484 L 50 -16.384000778198242 L 50 4.440892164675075e-17 L 50 16.384000778198242 L 50 32.768001556396484 L 50 42.861000061035156 L 32.768001556396484 42.861000061035156 L 19.740854263305664 42.861000061035156 L 19.738525390625 42.861000061035156 L 19.738176345825195 42.861000061035156 L 0 42.861000061035156 L -2.1055712699890137 42.861000061035156 L -2.1069846153259277 42.861000061035156 L -2.1073176860809326 42.861000061035156 L -8.192000389099121 42.861000061035156 L -16.384000778198242 42.861000061035156 L -32.768001556396484 42.861000061035156 L -50 42.861000061035156 L -50 32.768001556396484 L -50 16.384000778198242 L -50 4.440892164675075e-17 L -50 -16.384000778198242 L -50 -32.768001556396484 L -50 -42.861000061035156 L -32.768001556396484 -42.861000061035156 L -27.215999603271484 -42.861000061035156 L -29.051937103271484 -40.959999084472656 L -32.768001556396484 -37.11224365234375 L -36.963558197021484 -32.768001556396484 L -39.40599822998047 -30.23900032043457 L -38.41703414916992 -29.2840576171875 L -37.78315353393555 -28.672000885009766 L -36.86399841308594 -27.78449058532715 L -35.662132263183594 -26.624000549316406 L -35.0616455078125 -26.0441837310791 L -35.06167221069336 -26.04412841796875 L -35.232608795166016 -25.725357055664062 L -35.25422668457031 -25.686534881591797 L -35.303192138671875 -25.595293045043945 L -35.607666015625 -24.998397827148438 L -35.68218994140625 -24.852096557617188 L -35.815277099609375 -24.576000213623047 L -35.97300720214844 -24.248775482177734 L -36.044586181640625 -24.1007022857666 L -36.048553466796875 -24.092042922973633 L -36.296165466308594 -23.552000045776367 L -36.39258575439453 -23.341703414916992 L -36.46488571166992 -23.17380142211914 L -36.48415756225586 -23.12896728515625 L -36.48976135253906 -23.12975311279297 L -36.49199295043945 -23.130067825317383 L -36.86399841308594 -23.18233299255371 L -40.959999084472656 -23.7578067779541 L -41.10185241699219 -23.777734756469727 L -42.4630012512207 -23.9689998626709 L -42.46300506591797 -23.96897315979004 L -42.46310043334961 -23.968286514282227 L -43.52897262573242 -16.384000778198242 L -44.68025207519531 -8.192000389099121 L -45.4566650390625 -2.667384624481201 L -45.45693588256836 -2.6654438972473145 L -45.457000732421875 -2.6649999618530273 L -44.30024719238281 -2.50237774848938 L -41.1562614440918 -2.060666084289551 L -40.959999084472656 -2.033092498779297 L -39.493228912353516 -1.8270200490951538 L -39.481929779052734 -1.8254324197769165 L -39.478328704833984 -1.824926495552063 L -39.477638244628906 -1.8248295783996582 L -39.464195251464844 -1.7223188877105713 L -39.411651611328125 -1.3407925367355347 L -39.40990447998047 -1.328100323677063 L -39.40876388549805 -1.319836974143982 L -39.38300323486328 -1.1576067209243774 L -39.3619270324707 -1.0240000486373901 L -39.278568267822266 -0.4956402778625488 L -39.26894760131836 -0.4422034919261932 L -39.24946594238281 -0.3339999914169311 L -39.18925476074219 4.440892164675075e-17 L -39.13056945800781 0.325556367635727 L -39.098121643066406 0.48660671710968023 L -38.989723205566406 1.0240000486373901 L -38.96556854248047 1.1437530517578125 L -38.95315170288086 1.1987335681915283 L -38.91542053222656 1.3696703910827637 L -38.91975021362305 1.3719732761383057 L -38.93266677856445 1.3788403272628784 L -38.933040618896484 1.3790384531021118 L -40.191131591796875 2.0480000972747803 L -40.959999084472656 2.456827402114868 L -42.833717346191406 3.453132152557373 L -43.63311004638672 3.8781652450561523 L -44.24599838256836 4.203999996185303 L -44.245113372802734 4.205667018890381 L -42.12561798095703 8.192000389099121 L -40.959999084472656 10.384283065795898 L -39.947811126708984 12.288000106811523 L -37.77000427246094 16.384000778198242 L -34.14759063720703 23.19700813293457 L -34.145999908447266 23.200000762939453 L -33.11449432373047 22.65146827697754 L -32.768001556396484 22.46719741821289 L -29.031349182128906 20.479999542236328 L -28.827301025390625 20.371484756469727 L -28.81745719909668 20.366249084472656 L -28.814611434936523 20.364736557006836 L -28.81414222717285 20.364486694335938 L -28.74300765991211 20.439409255981445 L -28.704084396362305 20.479999542236328 L -28.672000885009766 20.513460159301758 L -28.46183204650879 20.732635498046875 L -27.927433013916016 21.26703453063965 L -27.87163543701172 21.322832107543945 L -27.75305938720703 21.436491012573242 L -27.682626724243164 21.503999710083008 L -27.269439697265625 21.900028228759766 L -27.238582611083984 21.928422927856445 L -26.77617835998535 22.353925704956055 L -26.655242919921875 22.465225219726562 L -26.65483283996582 22.465585708618164 L -26.624000549316406 22.49277687072754 L -26.613107681274414 22.502382278442383 L -26.584266662597656 22.527999877929688 L -26.482337951660156 22.61853790283203 L -26.482210159301758 22.618650436401367 L -26.486547470092773 22.627540588378906 L -26.48802947998047 22.630582809448242 L -26.490493774414062 22.635631561279297 L -27.43695640563965 24.576000213623047 L -28.427799224853516 26.607349395751953 L -28.82460594177246 27.421098709106445 L -29.128999710083008 28.045000076293945 L -29.128337860107422 28.04532241821289 L -24.576000213623047 30.265579223632812 L -19.44512176513672 32.768001556396484 L -16.384000778198242 34.260963439941406 L -9.794408798217773 37.47482681274414 L -9.791999816894531 37.47600173950195 L -9.189471244812012 36.240596771240234 L -8.192000389099121 34.19526672363281 L -7.495946884155273 32.768001556396484 L -7.14529275894165 32.04897689819336 L -7.145152568817139 32.04900360107422 L -7.14504337310791 32.04902267456055 L -7.043431758880615 32.067264556884766 L -6.674168586730957 32.13399887084961 L -6.643359661102295 32.13956832885742 L -6.144000053405762 32.21834945678711 L -5.981393337249756 32.24400329589844 L -5.819162845611572 32.2697639465332 L -5.155590057373047 32.36134719848633 L -4.992769718170166 32.383567810058594 L -4.862599849700928 32.398624420166016 L -4.829556465148926 32.40244674682617 L -4.164376735687256 32.478763580322266 L -4.162708759307861 32.47892379760742 L -4.0960001945495605 32.4853515625 L -4.000407695770264 32.494564056396484 L -3.933075189590454 32.50083923339844 L -3.933026075363159 32.5008430480957 L -3.885946750640869 32.768001556396484 L -3.701512098312378 33.81459045410156 L -3.663438558578491 34.030643463134766 L -3.1236207485198975 37.09320831298828 L -2.884999990463257 38.446998596191406 L -2.88405179977417 38.446834564208984 L -3.190826644789216e-14 37.93827438354492 L 18.301952362060547 34.71100997924805 L 18.302000045776367 34.71099853515625 L 18.063379287719727 33.357208251953125 L 17.95954704284668 32.768001556396484 L 17.255435943603516 28.772457122802734 L 17.25398826599121 28.76424217224121 L 17.254302978515625 28.764089584350586 L 17.445735931396484 28.672000885009766 L 17.61988639831543 28.58822250366211 L 17.713096618652344 28.54319190979004 L 17.859397888183594 28.468664169311523 L 18.43199920654297 28.176584243774414 L 18.4562931060791 28.16419219970703 L 19.04676055908203 27.84766960144043 L 19.157344818115234 27.788320541381836 L 19.19148826599121 27.769994735717773 L 19.40751075744629 27.648000717163086 L 19.77472686767578 27.44061851501465 L 19.899803161621094 27.370176315307617 L 19.917882919311523 27.359994888305664 L 20.05951499938965 27.27620506286621 L 20.071468353271484 27.269084930419922 L 20.117298126220703 27.242097854614258 L 20.117639541625977 27.24189567565918 L 20.479999542236328 27.591777801513672 L 21.23497772216797 28.320758819580078 L 21.598697662353516 28.672000885009766 L 23.472265243530273 30.481287002563477 L 24.461000442504883 31.43600082397461 L 24.576000213623047 31.31692123413086 L 31.0860538482666 24.576000213623047 L 32.768001556396484 22.83440589904785 L 38.99748611450195 16.384000778198242 L 39.40558624267578 15.961427688598633 L 39.40599822998047 15.961000442504883 L 38.41703414916992 15.006057739257812 L 35.60206604003906 12.288000106811523 L 35.08066177368164 11.784547805786133 L 35.0723991394043 11.776568412780762 L 35.0616455078125 11.766183853149414 L 35.232608795166016 11.447356224060059 L 35.25422668457031 11.40853500366211 L 35.303192138671875 11.317292213439941 L 35.31955337524414 11.285219192504883 L 35.607666015625 10.72039794921875 L 35.68218994140625 10.574095726013184 L 35.84323501586914 10.239999771118164 L 35.97300720214844 9.97077465057373 L 36.044586181640625 9.822702407836914 L 36.048553466796875 9.814043998718262 L 36.322757720947266 9.215999603271484 L 36.39258575439453 9.063702583312988 L 36.46488571166992 8.895800590515137 L 36.48415756225586 8.850966453552246 L 36.48719024658203 8.85139274597168 L 36.86399841308594 8.904333114624023 L 40.959999084472656 9.479805946350098 L 41.10185241699219 9.499735832214355 L 42.4630012512207 9.690999984741211 L 42.46310043334961 9.690286636352539 L 42.46342849731445 9.68794059753418 L 42.67366409301758 8.192000389099121 L 43.82494354248047 4.440892164675075e-17 L 44.97622299194336 -8.192000389099121 L 45.4566650390625 -11.610615730285645 L 45.45693588256836 -11.612556457519531 L 45.457000732421875 -11.61299991607666 L 44.30024719238281 -11.775622367858887 L 41.1562614440918 -12.217333793640137 L 40.959999084472656 -12.24490737915039 L 40.65327835083008 -12.288000106811523 L 39.49214553833008 -12.451132774353027 L 39.481929779052734 -12.452567100524902 L 39.478328704833984 -12.453073501586914 L 39.477638244628906 -12.453170776367188 L 39.477535247802734 -12.453975677490234 L 39.464195251464844 -12.555681228637695 L 39.40876388549805 -12.958163261413574 L 39.38300323486328 -13.120393753051758 L 39.35277557373047 -13.312000274658203 L 39.278568267822266 -13.782360076904297 L 39.27284622192383 -13.814146041870117 L 39.24946594238281 -13.944000244140625 L 39.17879867553711 -14.336000442504883 L 39.13056945800781 -14.603556632995605 L 39.098121643066406 -14.764606475830078 L 38.978023529052734 -15.359999656677246 L 38.968570709228516 -15.406868934631348 L 38.96556854248047 -15.4217529296875 L 38.95315170288086 -15.476733207702637 L 38.91542053222656 -15.64767074584961 L 38.9195556640625 -15.649868965148926 L 38.91997146606445 -15.650090217590332 L 40.30021286010742 -16.384000778198242 L 40.959999084472656 -16.734827041625977 L 42.833717346191406 -17.73113250732422 L 43.63311004638672 -18.156166076660156 L 44.24599838256836 -18.48200035095215 L 41.00587463378906 -24.576000213623047 L 36.650264739990234 -32.768001556396484 L 34.14759063720703 -37.475006103515625 L 34.145999908447266 -37.47800064086914 L 33.11449432373047 -36.929466247558594 L 32.768001556396484 -36.74519729614258 L 28.81414222717285 -34.642486572265625 L 28.81404685974121 -34.64258575439453 L 28.74300765991211 -34.717411041259766 L 28.672000885009766 -34.79146194458008 L 28.648468017578125 -34.816001892089844 L 28.46183204650879 -35.01063537597656 L 28.436607360839844 -35.03586196899414 L 27.927433013916016 -35.5450325012207 L 27.87163543701172 -35.600833892822266 L 27.62210464477539 -35.84000015258789 L 27.38801383972168 -36.064369201660156 L 27.269439697265625 -36.17802810668945 L 27.26922607421875 -36.178226470947266 L 27.238582611083984 -36.206424713134766 L 26.77617835998535 -36.631927490234375 M -18.281776428222656 -42.53112030029297 L -18.43199920654297 -42.45457077026367 L -18.4562931060791 -42.44219207763672 L -19.04676055908203 -42.125667572021484 L -19.19148826599121 -42.047996520996094 L -19.45599937438965 -41.898616790771484 L -19.77472686767578 -41.71862030029297 L -19.893251419067383 -41.6518669128418 L -19.917882919311523 -41.637996673583984 L -19.926151275634766 -41.63310241699219 L -20.05951499938965 -41.55420684814453 L -20.071468353271484 -41.54708480834961 L -20.11730194091797 -41.52009582519531 L -20.117639541625977 -41.5198974609375 L -20.154523849487305 -41.555519104003906 L -20.47700309753418 -41.866947174072266 L -20.479999542236328 -41.869842529296875 L -21.196575164794922 -42.56214904785156 L -21.506000518798828 -42.861000061035156 L -21.505901336669922 -42.861000061035156 L -21.505107879638672 -42.861000061035156 L -20.479999542236328 -42.861000061035156 L -19.45599937438965 -42.861000061035156 L -18.43199920654297 -42.861000061035156 L -17.645307540893555 -42.861000061035156 L -17.638999938964844 -42.861000061035156 L -17.62967300415039 -42.861000061035156 L -17.70410919189453 -42.82548904418945 L -17.71310043334961 -42.82120132446289 L -18.281776428222656 -42.53112030029297 z" fill="none" stroke="rgb(0,0,255)" stroke-width="0.01mm" />
</svg>