<?xml version="1.0" standalone="no"?>
<!DOCTYPE svg PUBLIC "-//W3C//DTD SVG 1.1//EN"
  "http://www.w3.org/Graphics/SVG/1.1/DTD/svg11.dtd">
<svg width="102mm" height="26.59600067138672mm" viewBox="-51 -13.29800033569336 102 26.59600067138672" xmlns="http://www.w3.org/2000/svg" version="1.1">
	<title>svgOutput</title>
	<desc>made with tinkercad</desc>
<path d="M 5.4827141761779785 -3.2162857055664062 L 5.5855712890625 -3.232285737991333 L 5.824142932891846 -3.2701427936553955 L 6.061285495758057 -3.312999963760376 L 6.163000106811523 -3.3312857151031494 L 6.173374176025391 -3.333256959915161 L 6.272132396697998 -3.352022409439087 L 6.677999973297119 -3.429142951965332 L 6.983428478240967 -3.4885714054107666 L 7.260571479797363 -3.544285774230957 L 7.536285877227783 -3.6057143211364746 L 7.637714385986328 -3.6285715103149414 L 8.147714614868164 -3.7485713958740234 L 8.192000389099121 -3.7590270042419434 L 8.399428367614746 -3.808000087738037 L 8.552452087402344 -3.842761993408203 L 8.614784240722656 -3.858844518661499 L 8.75277328491211 -3.8944478034973145 L 8.817571640014648 -3.9111666679382324 L 9.017571449279785 -3.9678571224212646 L 9.479801177978516 -4.0960001945495605 L 9.522571563720703 -4.1078572273254395 L 9.72257137298584 -4.1638569831848145 L 10.223999977111816 -4.315285682678223 L 10.239999771118164 -4.3201446533203125 L 10.471428871154785 -4.39042854309082 L 10.639071464538574 -4.440000057220459 L 10.702735900878906 -4.460629463195801 L 10.943857192993164 -4.538762092590332 L 11.157571792602539 -4.613571643829346 L 11.255285263061523 -4.64642858505249 L 11.483857154846191 -4.723571300506592 L 11.711000442504883 -4.805714130401611 L 11.808428764343262 -4.840857028961182 L 12.074856758117676 -4.9365715980529785 L 12.168858528137207 -4.970378875732422 L 12.172571182250977 -4.971714496612549 L 12.212627410888672 -4.987120151519775 L 12.239428520202637 -4.9974284172058105 L 12.288000106811523 -5.016046047210693 L 12.338566780090332 -5.035428524017334 L 12.615857124328613 -5.141714096069336 L 12.792571067810059 -5.206095218658447 L 12.926919937133789 -5.2609453201293945 L 13.194095611572266 -5.370023727416992 L 13.5890474319458 -5.531515598297119 L 13.595880508422852 -5.534309387207031 L 13.994690895080566 -5.706928730010986 L 14.204357147216797 -5.797595024108887 L 14.412405014038086 -5.892714500427246 L 14.807642936706543 -6.073666572570801 L 14.955256462097168 -6.144000053405762 L 15.014071464538574 -6.172023773193359 L 15.279779434204102 -6.304566860198975 L 15.526529312133789 -6.423883438110352 L 15.770843505859375 -6.548881530761719 L 15.8628568649292 -6.594571590423584 L 15.966038703918457 -6.64689302444458 L 16.018329620361328 -6.6734089851379395 L 16.114999771118164 -6.722428798675537 L 16.384000778198242 -6.866922378540039 L 16.57642936706543 -6.970285892486572 L 16.82271385192871 -7.100857257843018 L 17.033428192138672 -7.219428539276123 L 17.124000549316406 -7.270571231842041 L 17.578285217285156 -7.5320000648498535 L 17.757429122924805 -7.635142803192139 L 17.84685707092285 -7.688000202178955 L 18.330429077148438 -7.9808573722839355 L 18.418142318725586 -8.035429000854492 L 18.664127349853516 -8.192000389099121 L 18.86028480529785 -8.31685733795166 L 19.12257194519043 -8.48457145690918 L 19.32471466064453 -8.616000175476074 L 19.52471351623535 -8.751714706420898 L 19.610143661499023 -8.809714317321777 L 19.843713760375977 -8.96828556060791 L 19.844377517700195 -8.968743324279785 L 19.97171401977539 -9.056571006774902 L 20.16885757446289 -9.196571350097656 L 20.295713424682617 -9.286857604980469 L 20.479999542236328 -9.42075252532959 L 20.752857208251953 -9.619000434875488 L 20.836286544799805 -9.680999755859375 L 21.253429412841797 -9.998143196105957 L 21.459428787231445 -10.154999732971191 L 21.47888946533203 -10.169554710388184 L 21.584476470947266 -10.248523712158203 L 21.792129516601562 -10.413080215454102 L 21.798999786376953 -10.418523788452148 L 21.959142684936523 -10.5515718460083 L 22.394142150878906 -10.912285804748535 L 22.51985740661621 -11.016448974609375 L 22.554141998291016 -11.044857025146484 L 22.557416915893555 -11.047677040100098 L 22.919857025146484 -11.359857559204102 L 23.07642936706543 -11.494999885559082 L 23.247976303100586 -11.642499923706055 L 23.48597526550293 -11.857024192810059 L 23.805618286132812 -12.151071548461914 L 23.80621337890625 -12.151071548461914 L 23.963666915893555 -12.29800033569336 L 24.576000213623047 -12.29800033569336 L 32.768001556396484 -12.29800033569336 L 50 -12.29800033569336 L 50 12.29800033569336 L 32.768001556396484 12.29800033569336 L 16.384000778198242 12.29800033569336 L 0 12.29800033569336 L -8.192000389099121 12.29800033569336 L -16.384000778198242 12.29800033569336 L -32.768001556396484 12.29800033569336 L -50 12.29800033569336 L -50 -12.29800033569336 L -32.768001556396484 -12.29800033569336 L -24.576000213623047 -12.29800033569336 L -23.971996307373047 -12.29800033569336 L -23.9691219329834 -12.29800033569336 L -23.963542938232422 -12.29800033569336 L -23.95282745361328 -12.288000106811523 L -23.805402755737305 -12.150430679321289 L -23.566364288330078 -11.934969902038574 L -23.25928497314453 -11.66014289855957 L -23.158967971801758 -11.56775188446045 L -23.154428482055664 -11.563570976257324 L -23.07642936706543 -11.494999885559082 L -22.96640396118164 -11.398022651672363 L -22.895713806152344 -11.335714340209961 L -22.815799713134766 -11.266324043273926 L -22.77857208251953 -11.234000205993652 L -22.593570709228516 -11.078286170959473 L -22.474714279174805 -10.977714538574219 L -22.039714813232422 -10.616999626159668 L -21.959142684936523 -10.5515718460083 L -21.798999786376953 -10.418523788452148 L -21.64583969116211 -10.297151565551758 L -21.584476470947266 -10.248523712158203 L -21.57308006286621 -10.239999771118164 L -21.459428787231445 -10.154999732971191 L -21.235857009887695 -9.982142448425293 L -21.112714767456055 -9.886713981628418 L -20.919143676757812 -9.74242877960205 L -20.752857208251953 -9.619000434875488 L -20.479999542236328 -9.42075252532959 L -20.295713424682617 -9.286857604980469 L -20.210857391357422 -9.226571083068848 L -19.78014373779297 -8.928000450134277 L -19.52471351623535 -8.751714706420898 L -19.32471466064453 -8.616000175476074 L -19.12257194519043 -8.48457145690918 L -19.035715103149414 -8.428285598754883 L -18.664493560791016 -8.192000389099121 L -18.593570709228516 -8.146857261657715 L -18.330429077148438 -7.9808573722839355 L -18.08971405029297 -7.8322858810424805 L -17.84685707092285 -7.688000202178955 L -17.757429122924805 -7.635142803192139 L -17.738176345825195 -7.623430252075195 L -17.57942771911621 -7.526857376098633 L -17.558250427246094 -7.514670372009277 L -17.32200050354004 -7.378714084625244 L -17.169143676757812 -7.295714378356934 L -16.95842933654785 -7.17714262008667 L -16.82271385192871 -7.100857257843018 L -16.6401424407959 -7.002857208251953 L -16.384000778198242 -6.865269660949707 L -16.198394775390625 -6.765571594238281 L -16.178714752197266 -6.755000114440918 L -15.9265718460083 -6.627142906188965 L -15.833999633789062 -6.579999923706055 L -15.533400535583496 -6.430445671081543 L -15.401857376098633 -6.364999771118164 L -15.216713905334473 -6.2729997634887695 L -14.74242877960205 -6.049428462982178 L -14.648714065551758 -6.00428581237793 L -14.460428237915039 -5.918000221252441 L -13.944000244140625 -5.688000202178955 L -13.849143028259277 -5.646857261657715 L -13.36628532409668 -5.443999767303467 L -13.078857421875 -5.32457160949707 L -12.85528564453125 -5.233857154846191 L -12.676536560058594 -5.165411949157715 L -12.629570960998535 -5.147428512573242 L -12.533286094665527 -5.110285758972168 L -12.288000106811523 -5.015893936157227 L -12.26971435546875 -5.008857250213623 L -11.977428436279297 -4.901428699493408 L -11.732569694519043 -4.81346321105957 L -11.711000442504883 -4.805714130401611 L -11.483857154846191 -4.723571300506592 L -11.458939552307129 -4.7151618003845215 L -11.255285263061523 -4.64642858505249 L -11.157571792602539 -4.613571643829346 L -10.619714736938477 -4.439285755157471 L -10.521142959594727 -4.406142711639404 L -10.42199993133545 -4.375 L -10.239999771118164 -4.320036888122559 L -9.920571327209473 -4.223571300506592 L -9.672857284545898 -4.149285793304443 L -9.523381233215332 -4.103000164031982 L -9.498130798339844 -4.0960001945495605 L -9.328527450561523 -4.048981189727783 L -9.237214088439941 -4.023666858673096 L -8.949169158935547 -3.950597047805786 L -8.683751106262207 -3.879169464111328 L -8.417521476745605 -3.8134236335754395 L -8.192000389099121 -3.7551109790802 L -8.130428314208984 -3.7391905784606934 L -7.914533615112305 -3.6876745223999023 L -7.908214092254639 -3.686166763305664 L -7.483809471130371 -3.5915238857269287 L -7.2607855796813965 -3.5417380332946777 L -7.036547660827637 -3.4964046478271484 L -6.610952377319336 -3.4106905460357666 L -6.386309623718262 -3.36899995803833 L -6.144000053405762 -3.3282527923583984 L -6.093455791473389 -3.319753408432007 L -5.823979377746582 -3.271052837371826 L -5.552879333496094 -3.2280337810516357 L -5.277170181274414 -3.180925130844116 L -5.271115303039551 -3.1798903942108154 L -5.260190486907959 -3.1780238151550293 L -4.981470108032227 -3.137087821960449 L -4.943262100219727 -3.1314761638641357 L -4.719142913818359 -3.1038570404052734 L -4.239857196807861 -3.043142795562744 L -4.0960001945495605 -3.0254435539245605 L -3.930999994277954 -3.0051429271698 L -3.650456428527832 -2.9723057746887207 L -3.6502857208251953 -2.972285747528076 L -3.623624086380005 -2.9697818756103516 L -3.3688571453094482 -2.945857048034668 L -3.2654285430908203 -2.936142921447754 L -3.025428533554077 -2.913285732269287 L -2.9225714206695557 -2.903571367263794 L -2.904742956161499 -2.902266263961792 L -2.7157142162323 -2.8884286880493164 L -2.192857027053833 -2.850571393966675 L -1.9107142686843872 -2.835571527481079 L -1.8070000410079956 -2.8301429748535156 L -1.2834285497665405 -2.8087143898010254 L -0.9728571176528931 -2.7967143058776855 L -0.7562259435653687 -2.7896642684936523 L -0.7314285635948181 -2.7888572216033936 L -0.49000000953674316 -2.7867143154144287 L -0.38685715198516846 -2.785571336746216 L 0 -2.785571336746216 L 0.17885714769363403 -2.785571336746216 L 0.49000000953674316 -2.7867143154144287 L 0.7314285635948181 -2.7888572216033936 L 0.9728571176528931 -2.7967143058776855 L 1.076285719871521 -2.7998571395874023 L 1.1029053926467896 -2.8009467124938965 L 1.5998570919036865 -2.8212857246398926 L 1.9107142686843872 -2.835571527481079 L 2.1626923084259033 -2.8489677906036377 L 2.192857027053833 -2.850571393966675 L 2.47428560256958 -2.8712856769561768 L 2.578000068664551 -2.8787143230438232 L 2.8194286823272705 -2.895857095718384 L 2.834836959838867 -2.8971102237701416 L 2.952526092529297 -2.906682014465332 L 2.9739999771118164 -2.90842866897583 L 3.2139999866485596 -2.9312856197357178 L 3.3688571453094482 -2.945857048034668 L 3.930999994277954 -3.0051429271698 L 4.033571243286133 -3.0171427726745605 L 4.0960001945495605 -3.0250511169433594 L 4.512856960296631 -3.077857255935669 L 4.770285606384277 -3.1107141971588135 L 4.943262100219727 -3.1314761638641357 L 5.260190486907959 -3.1780238151550293 L 5.458462238311768 -3.21211576461792 L 5.4827141761779785 -3.2162857055664062 z" fill="none" stroke="rgb(0,0,255)" stroke-width="0.01mm" />
</svg>