<?xml version="1.0" standalone="no"?>
<!DOCTYPE svg PUBLIC "-//W3C//DTD SVG 1.1//EN"
  "http://www.w3.org/Graphics/SVG/1.1/DTD/svg11.dtd">
<svg width="102mm" height="101.57599639892578mm" viewBox="-51 -50.78799819946289 102 101.57599639892578" xmlns="http://www.w3.org/2000/svg" version="1.1">
	<title>svgOutput</title>
	<desc>made with tinkercad</desc>
<path d="M 50 49.78799819946289 L 32.768001556396484 49.78799819946289 L 16.384000778198242 49.78799819946289 L 0 49.78799819946289 L -16.384000778198242 49.78799819946289 L -22.729351043701172 49.78799819946289 L -22.729625701904297 49.78799819946289 L -22.731042861938477 49.78799819946289 L -32.768001556396484 49.78799819946289 L -50 49.78799819946289 L -50 32.768001556396484 L -50 27.59895133972168 L -50 27.5987491607666 L -50 16.384000778198242 L -50 4.467776775360107 L -50 4.467662334442139 L -50 4.440892164675075e-17 L -50 -16.384000778198242 L -50 -28.02422523498535 L -50 -28.025650024414062 L -50 -32.768001556396484 L -50 -49.78799819946289 L -32.768001556396484 -49.78799819946289 L -22.421154022216797 -49.78799819946289 L -22.4208984375 -49.78799819946289 L -22.420576095581055 -49.78799819946289 L -16.384000778198242 -49.78799819946289 L 0 -49.78799819946289 L 16.384000778198242 -49.78799819946289 L 32.768001556396484 -49.78799819946289 L 50 -49.78799819946289 L 50 -32.768001556396484 L 50 -16.384000778198242 L 50 4.440892164675075e-17 L 50 4.467776775360107 L 50 16.384000778198242 L 50 27.5987491607666 L 50 27.59895133972168 L 50 27.60006332397461 L 50 32.768001556396484 L 50 49.78799819946289 M -31.779420852661133 -24.49144744873047 L -31.85618782043457 -24.392621994018555 L -31.859148025512695 -24.38863754272461 L -32.24806594848633 -23.865156173706055 L -32.35597229003906 -23.719837188720703 L -32.768001556396484 -23.13960075378418 L -32.840972900390625 -23.036836624145508 L -32.92416000366211 -22.914674758911133 L -33.16836166381836 -22.555818557739258 L -33.168426513671875 -22.555723190307617 L -33.22196578979492 -22.5731201171875 L -33.22533416748047 -22.574214935302734 L -37.6837158203125 -24.022857666015625 L -39.39799880981445 -24.579999923706055 L -39.398189544677734 -24.57941436767578 L -42.06119155883789 -16.384000778198242 L -46.19646453857422 -3.6576452255249023 L -46.19692611694336 -3.6562230587005615 L -46.196998596191406 -3.6559998989105225 L -44.48244094848633 -3.0991318225860596 L -40.05298614501953 -1.6598634719848633 L -39.96717071533203 -1.6319788694381714 L -39.96717834472656 -1.6317579746246338 L -39.98057556152344 -1.1978124380111694 L -39.98532485961914 -1.049783706665039 L -39.98542022705078 -1.0409451723098755 L -39.99237823486328 -0.39300000667572016 L -39.99410629272461 -0.21199999749660486 L -39.99237823486328 -0.030999999493360474 L -39.99204635620117 4.440892164675075e-17 L -39.98532485961914 0.6257837414741516 L -39.98057556152344 0.7735571265220642 L -39.96717071533203 1.2077234983444214 L -39.97100067138672 1.208968162536621 L -39.97624206542969 1.2106707096099854 L -39.98264694213867 1.212752342224121 L -44.48244094848633 2.6748571395874023 L -46.196998596191406 3.2320001125335693 L -41.923213958740234 16.384000778198242 L -39.39830017089844 24.15407943725586 L -39.39799880981445 24.155000686645508 L -37.6837158203125 23.59813117980957 L -33.168426513671875 22.130979537963867 L -33.16819763183594 22.13131332397461 L -32.92416000366211 22.49067497253418 L -32.840972900390625 22.612836837768555 L -32.768001556396484 22.715600967407227 L -32.35597229003906 23.29583740234375 L -32.24806594848633 23.4411563873291 L -31.859148025512695 23.964637756347656 L -31.85618782043457 23.9686222076416 L -31.779420852661133 24.067447662353516 L -31.49942970275879 24.428495407104492 L -31.507083892822266 24.439029693603516 L -31.50819969177246 24.440567016601562 L -32.768001556396484 26.174427032470703 L -34.4483642578125 28.487112045288086 L -35.349998474121094 29.72800064086914 L -35.34760284423828 29.729740142822266 L -32.768001556396484 31.60382652282715 L -31.16556167602539 32.768001556396484 L -17.551137924194336 42.65890121459961 L -17.551000595092773 42.659000396728516 L -16.649599075317383 41.418113708496094 L -16.384000778198242 41.05257034301758 L -16.316740036010742 40.959999084472656 L -13.728671073913574 37.398040771484375 L -13.726295471191406 37.394771575927734 L -13.708626747131348 37.370452880859375 L -13.708446502685547 37.370208740234375 L -13.703166007995605 37.36294174194336 L -13.701103210449219 37.36009979248047 L -13.700663566589355 37.3594970703125 L -13.27055835723877 37.51493835449219 L -13.152702331542969 37.55732345581055 L -12.981217384338379 37.61506271362305 L -12.358919143676758 37.82432556152344 L -12.288000106811523 37.84660339355469 L -11.561067581176758 38.0749626159668 L -11.559918403625488 38.07532501220703 L -11.439684867858887 38.110137939453125 L -11 38.2375602722168 L -11 38.242000579833984 L -11 38.25337219238281 L -11 38.25523376464844 L -11 40.959999084472656 L -11 44.78799819946289 L 0 44.78799819946289 L 11 44.78799819946289 L 11 40.959999084472656 L 11 38.29573059082031 L 11 38.251216888427734 L 11 38.2375602722168 L 11.439684867858887 38.110137939453125 L 11.559918403625488 38.07532501220703 L 12.288000106811523 37.84660339355469 L 12.358919143676758 37.82432556152344 L 12.981217384338379 37.61506271362305 L 13.152702331542969 37.55732345581055 L 13.27055835723877 37.51493835449219 L 13.700663566589355 37.3594970703125 L 13.701103210449219 37.36009979248047 L 13.703166007995605 37.36294174194336 L 16.316740036010742 40.959999084472656 L 16.384000778198242 41.05257034301758 L 16.649599075317383 41.418113708496094 L 17.551000595092773 42.659000396728516 L 17.552392959594727 42.657989501953125 L 31.16556167602539 32.768001556396484 L 32.768001556396484 31.60382652282715 L 35.34998321533203 29.728012084960938 L 35.349998474121094 29.72800064086914 L 34.4483642578125 28.487112045288086 L 32.768001556396484 26.174427032470703 L 31.525848388671875 24.46485710144043 L 31.49942970275879 24.428495407104492 L 31.49947166442871 24.428442001342773 L 31.779420852661133 24.067447662353516 L 31.85618782043457 23.9686222076416 L 31.859148025512695 23.964637756347656 L 32.24806594848633 23.4411563873291 L 32.35597229003906 23.29583740234375 L 32.768001556396484 22.715600967407227 L 32.840972900390625 22.612836837768555 L 32.92416000366211 22.49067497253418 L 33.168426513671875 22.130979537963867 L 33.168975830078125 22.13115692138672 L 37.6837158203125 23.59813117980957 L 39.39799880981445 24.155000686645508 L 39.39830017089844 24.15407943725586 L 41.923213958740234 16.384000778198242 L 46.196998596191406 3.2320001125335693 L 44.48244094848633 2.6748571395874023 L 39.97100067138672 1.208968162536621 L 39.96717071533203 1.2077234983444214 L 39.9671745300293 1.2076308727264404 L 39.98057556152344 0.7735571265220642 L 39.98532485961914 0.6257837414741516 L 39.98542404174805 0.6165537238121033 L 39.99204635620117 4.440892164675075e-17 L 39.99237823486328 -0.030999999493360474 L 39.99410629272461 -0.21199999749660486 L 39.99237823486328 -0.39300000667572016 L 39.98542022705078 -1.0409451723098755 L 39.98532485961914 -1.049783706665039 L 39.98057556152344 -1.1978124380111694 L 39.96717834472656 -1.6317579746246338 L 39.96717071533203 -1.6319788694381714 L 44.48244094848633 -3.0991318225860596 L 46.196998596191406 -3.6559998989105225 L 46.19646453857422 -3.6576452255249023 L 42.06119155883789 -16.384000778198242 L 39.398189544677734 -24.57941436767578 L 39.39803695678711 -24.579885482788086 L 39.39799880981445 -24.579999923706055 L 37.6837158203125 -24.022857666015625 L 33.18366241455078 -22.560672760009766 L 33.16856002807617 -22.555767059326172 L 33.168426513671875 -22.555723190307617 L 33.16836166381836 -22.555818557739258 L 32.92416000366211 -22.914674758911133 L 32.840972900390625 -23.036836624145508 L 32.768001556396484 -23.13960075378418 L 32.35597229003906 -23.719837188720703 L 32.24806594848633 -23.865156173706055 L 31.85618782043457 -24.392621994018555 L 31.779420852661133 -24.49144744873047 L 31.49976348876953 -24.85206413269043 L 31.49942970275879 -24.852495193481445 L 31.516063690185547 -24.875389099121094 L 32.768001556396484 -26.598426818847656 L 34.4483642578125 -28.91111183166504 L 35.349998474121094 -30.152000427246094 L 32.768001556396484 -32.02797317504883 L 31.749460220336914 -32.768001556396484 L 17.551000595092773 -43.08399963378906 L 16.649599075317383 -41.84311294555664 L 16.384000778198242 -41.477500915527344 L 16.0080623626709 -40.959999084472656 L 13.703031539916992 -37.7869873046875 L 13.700663566589355 -37.783729553222656 L 13.69947338104248 -37.78416061401367 L 13.27055835723877 -37.93915557861328 L 13.152702331542969 -37.98154067993164 L 12.981217384338379 -38.03927993774414 L 12.358919143676758 -38.248538970947266 L 12.288000106811523 -38.270729064941406 L 12.186136245727539 -38.3026008605957 L 11.561067581176758 -38.49896240234375 L 11.559918403625488 -38.499324798583984 L 11.526313781738281 -38.509056091308594 L 11.439684867858887 -38.534141540527344 L 11 -38.66156005859375 L 11 -38.66600036621094 L 11 -38.67373275756836 L 11 -38.67923355102539 L 11 -40.959999084472656 L 11 -45.21200180053711 L 0 -45.21200180053711 L -11 -45.21200180053711 L -11 -40.959999084472656 L -11 -38.68931198120117 L -11 -38.67521667480469 L -11 -38.66156005859375 L -11.439684867858887 -38.534141540527344 L -11.559918403625488 -38.499324798583984 L -12.186136245727539 -38.3026008605957 L -12.288000106811523 -38.270729064941406 L -12.358919143676758 -38.248538970947266 L -12.368690490722656 -38.24525451660156 L -12.981217384338379 -38.03927993774414 L -13.152702331542969 -37.98154067993164 L -13.27055835723877 -37.93915557861328 L -13.700663566589355 -37.783729553222656 L -13.701093673706055 -37.78432083129883 L -13.72169017791748 -37.81267547607422 L -13.726153373718262 -37.818817138671875 L -13.727293968200684 -37.82038879394531 L -13.736515045166016 -37.83308029174805 L -16.0080623626709 -40.959999084472656 L -16.384000778198242 -41.477500915527344 L -16.649599075317383 -41.84311294555664 L -17.551000595092773 -43.08399963378906 L -17.551025390625 -43.083980560302734 L -31.749460220336914 -32.768001556396484 L -32.768001556396484 -32.02797317504883 L -35.349998474121094 -30.152000427246094 L -34.4483642578125 -28.91111183166504 L -32.768001556396484 -26.598426818847656 L -31.554601669311523 -24.92842674255371 L -31.55076026916504 -24.923141479492188 L -31.53748893737793 -24.904876708984375 L -31.51602554321289 -24.875337600708008 L -31.507083892822266 -24.86302947998047 L -31.49942970275879 -24.852495193481445 L -31.49976348876953 -24.85206413269043 L -31.779420852661133 -24.49144744873047 z" fill="none" stroke="rgb(0,0,255)" stroke-width="0.01mm" />
</svg>