<?xml version="1.0" standalone="no"?>
<!DOCTYPE svg PUBLIC "-//W3C//DTD SVG 1.1//EN"
  "http://www.w3.org/Graphics/SVG/1.1/DTD/svg11.dtd">
<svg width="102mm" height="106.83200073242188mm" viewBox="-51 -53.41600036621094 102 106.83200073242188" xmlns="http://www.w3.org/2000/svg" version="1.1">
	<title>svgOutput</title>
	<desc>made with tinkercad</desc>
<path d="M -7.995500087738037 -6.003499984741211 L -8.107999801635742 -5.85230016708374 L -8.192000389099121 -5.734562397003174 L -8.21780014038086 -5.698400020599365 L -8.224801063537598 -5.6878228187561035 L -8.425700187683105 -5.384300231933594 L -8.464699745178223 -5.322199821472168 L -8.65999984741211 -5 L -8.817181587219238 -4.707334995269775 L -8.927300453186035 -4.502299785614014 L -9.009200096130371 -4.332200050354004 L -9.054499626159668 -4.24370002746582 L -9.120444297790527 -4.0960001945495605 L -9.208399772644043 -3.8989999294281006 L -9.226900100708008 -3.855600118637085 L -9.34749984741211 -3.5487000942230225 L -9.354999542236328 -3.5292000770568848 L -9.362099647521973 -3.509500026702881 L -9.368800163269043 -3.4895999431610107 L -9.566800117492676 -2.9100000858306885 L -9.572999954223633 -2.890000104904175 L -9.578900337219238 -2.8698999881744385 L -9.584689140319824 -2.848376512527466 L -9.725600242614746 -2.32450008392334 L -9.730999946594238 -2.30430006980896 L -9.736000061035156 -2.2839999198913574 L -9.740599632263184 -2.2634999752044678 L -9.85219955444336 -1.7091000080108643 L -9.856300354003906 -1.688599944114685 L -9.859999656677246 -1.6679999828338623 L -9.863300323486328 -1.6473000049591064 L -9.933500289916992 -1.1333999633789062 L -9.936300277709961 -1.1125999689102173 L -9.938699722290039 -1.0917999744415283 L -9.940699577331543 -1.0709999799728394 L -9.94219970703125 -1.0500999689102173 L -9.985400199890137 -0.5335000157356262 L -9.986499786376953 -0.5126000046730042 L -9.993063926696777 -0.3414017260074615 L -9.997300148010254 -0.2309000045061111 L -9.998000144958496 -0.20999999344348902 L -10 4.440892164675075e-17 L -9.998200416564941 0.18809999525547033 L -9.997400283813477 0.22470000386238104 L -9.991100311279297 0.4137000143527985 L -9.987471580505371 0.4826343655586243 L -9.981200218200684 0.6018000245094299 L -9.967700004577637 0.789900004863739 L -9.96399974822998 0.8474000096321106 L -9.946000099182129 1.034600019454956 L -9.924400329589844 1.2217999696731567 L -9.918800354003906 1.2685999870300293 L -9.893600463867188 1.4558000564575195 L -9.88554573059082 1.506324291229248 L -9.863900184631348 1.6420999765396118 L -9.830599784851074 1.8274999856948853 L -9.820899963378906 1.8841999769210815 L -9.784000396728516 2.068700075149536 L -9.742600440979004 2.2523000240325928 L -9.730999946594238 2.3034000396728516 L -9.685999870300293 2.486999988555908 L -9.637399673461914 2.668800115585327 L -9.58430004119873 2.8496999740600586 L -9.566800117492676 2.9100000858306885 L -9.563035011291504 2.922145128250122 L -9.51099967956543 3.0899999141693115 L -9.504300117492676 3.1098999977111816 L -9.45802116394043 3.2399487495422363 L -9.362099647521973 3.509500026702881 L -9.34749984741211 3.5487000942230225 L -9.113325119018555 4.0960001945495605 L -9.032500267028809 4.284900188446045 L -9.0246000289917 4.304299831390381 L -8.99839973449707 4.361400127410889 L -8.758099555969238 4.820400238037109 L -8.748600006103516 4.839099884033203 L -8.728400230407715 4.875800132751465 L -8.502907752990723 5.253253936767578 L -8.438599586486816 5.360899925231934 L -8.405500411987305 5.414299964904785 L -8.192000389099121 5.720998287200928 L -8.001399993896484 5.994800090789795 L -7.989699840545654 6.0121002197265625 L -7.965000152587891 6.046000003814697 L -7.952199935913086 6.0625 L -7.687600135803223 6.3927998542785645 L -7.6743998527526855 6.40910005569458 L -7.660900115966797 6.425099849700928 L -7.646999835968018 6.440800189971924 L -7.072800159454346 7.065400123596191 L -7.058700084686279 7.0808000564575195 L -7.0571208000183105 7.082455635070801 L -7.0441999435424805 7.0960001945495605 L -7.0311079025268555 7.1090922355651855 L -7.029399871826172 7.110799789428711 L -7.0142998695373535 7.12529993057251 L -6.998799800872803 7.139400005340576 L -6.620800018310547 7.49399995803833 L -6.605100154876709 7.507900238037109 L -6.1066999435424805 7.9113664627075195 L -6.019199848175049 7.9822001457214355 L -6.003200054168701 7.995699882507324 L -5.986999988555908 8.008899688720703 L -5.970523834228516 8.021604537963867 L -5.970399856567383 8.021699905395508 L -5.95359992980957 8.034199714660645 L -5.730593204498291 8.192000389099121 L -5.71340274810791 8.204164505004883 L -5.628699779510498 8.264100074768066 L -5.611400127410889 8.275899887084961 L -5.134399890899658 8.57919979095459 L -5.116799831390381 8.59060001373291 L -5.098999977111816 8.601699829101562 L -5.080999851226807 8.612299919128418 L -4.627399921417236 8.862500190734863 L -4.6092000007629395 8.87279987335205 L -4.593328952789307 8.881293296813965 L -4.590700149536133 8.882699966430664 L -4.572000026702881 8.892200469970703 L -4.191299915313721 9.078499794006348 L -4.172500133514404 9.087599754333496 L -4.15339994430542 9.09630012512207 L -4.0960001945495605 9.121048927307129 L -3.8069000244140625 9.245699882507324 L -3.7774903774261475 9.258118629455566 L -3.7683000564575195 9.26200008392334 L -3.4163999557495117 9.397000312805176 L -3.396899938583374 9.404500007629395 L -3.3671998977661133 9.414899826049805 L -3.099900007247925 9.506699562072754 L -3.07735013961792 9.51393985748291 L -3.069999933242798 9.516300201416016 L -3.039799928665161 9.524900436401367 L -2.4971001148223877 9.683300018310547 L -2.3143999576568604 9.728300094604492 L -2.273699998855591 9.738200187683105 L -2.089200019836426 9.77869987487793 L -2.0327000617980957 9.789600372314453 L -1.4765000343322754 9.890399932861328 L -1.4401999711990356 9.89579963684082 L -1.253000020980835 9.920999526977539 L -0.9721999764442444 9.951600074768066 L -0.9096999764442444 9.957500457763672 L -0.628000020980835 9.979999542236328 L -0.6071000099182129 9.981100082397461 L -0.3244999945163727 9.99370002746582 L -0.2930999994277954 9.994500160217285 L -0.010499999858438969 9.999899864196777 L 0 9.999799728393555 L 0.17759999632835388 9.998100280761719 L 0.36660000681877136 9.991800308227539 L 0.4399000108242035 9.989899635314941 L 0.4587215483188629 9.988729476928711 L 0.816100001335144 9.966500282287598 L 0.8474000096321106 9.96399974822998 L 1.1282000541687012 9.935199737548828 L 1.1593999862670898 9.93179988861084 L 1.1801999807357788 9.928999900817871 L 1.6473000049591064 9.863300323486328 L 1.6783000230789185 9.858099937438965 L 1.9555000066757202 9.805899620056152 L 1.986299991607666 9.79990005493164 L 2.2634999752044678 9.740500450134277 L 2.30430006980896 9.730999946594238 L 2.32450008392334 9.725600242614746 L 2.344599962234497 9.71969985961914 L 3.069999933242798 9.516300201416016 L 3.1296000480651855 9.496299743652344 L 3.1491000652313232 9.488800048828125 L 3.2170913219451904 9.463595390319824 L 3.855600118637085 9.226900100708008 L 3.875 9.218999862670898 L 4.0416579246521 9.145508766174316 L 4.134200096130371 9.104700088500977 L 4.191299915313721 9.078499794006348 L 4.446000099182129 8.956999778747559 L 5 8.65999984741211 L 5.322199821472168 8.464699745178223 L 5.3755998611450195 8.431599617004395 L 5.611400127410889 8.275899887084961 L 5.637199878692627 8.258099555969238 L 5.731943130493164 8.192000389099121 L 5.853804588317871 8.106980323791504 L 5.8694000244140625 8.096099853515625 L 5.91949987411499 8.058099746704102 L 6.070700168609619 7.9456000328063965 L 6.220099925994873 7.830399990081787 L 6.509900093078613 7.590099811553955 L 6.541900157928467 7.5630998611450195 L 6.667500019073486 7.451900005340576 L 6.683199882507324 7.438000202178955 L 6.714000225067139 7.409599781036377 L 6.853499889373779 7.282700061798096 L 7.056000232696533 7.085599899291992 L 7.078400135040283 7.063600063323975 L 7.092899799346924 7.048399925231934 L 7.353899955749512 6.775700092315674 L 7.365854263305664 6.762268543243408 L 7.388700008392334 6.736599922180176 L 7.5767998695373535 6.526000022888184 L 7.586638450622559 6.5142035484313965 L 7.757699966430664 6.309100151062012 L 7.777599811553955 6.284800052642822 L 7.952199935913086 6.0625 L 7.965000152587891 6.046000003814697 L 8.132399559020996 5.817399978637695 L 8.168800354003906 5.766200065612793 L 8.192000389099121 5.73257303237915 L 8.329000473022461 5.533999919891357 L 8.34589958190918 5.507500171661377 L 8.643799781799316 5.026899814605713 L 8.65999984741211 5 L 8.752699851989746 4.835299968719482 L 8.767999649047852 4.807799816131592 L 8.900300025939941 4.558499813079834 L 8.91469955444336 4.530600070953369 L 9.038900375366211 4.276800155639648 L 9.04800033569336 4.257999897003174 L 9.11819076538086 4.0960001945495605 L 9.29800033569336 3.680999994277954 L 9.397000312805176 3.4163999557495117 L 9.418299674987793 3.357300043106079 L 9.51099967956543 3.0899999141693115 L 9.592900276184082 2.819999933242798 L 9.610400199890137 2.759700059890747 L 9.685999870300293 2.486999988555908 L 9.730999946594238 2.3034000396728516 L 9.738300323486328 2.2727999687194824 L 9.77970027923584 2.089200019836426 L 9.794500350952148 2.0067999362945557 L 9.831399917602539 1.8222999572753906 L 9.864700317382812 1.6368999481201172 L 9.894399642944336 1.450600028038025 L 9.919599533081055 1.2633999586105347 L 9.941200256347656 1.076200008392334 L 9.946999549865723 1.0241999626159668 L 9.96500015258789 0.8370000123977661 L 9.979999542236328 0.628000020980835 L 9.991000175476074 0.4189999997615815 L 9.998000144958496 0.2090000063180924 L 10 4.440892164675075e-17 L 9.998000144958496 -0.20999999344348902 L 9.991000175476074 -0.41899999976158137 L 9.979999542236328 -0.628000020980835 L 9.96500015258789 -0.8370000123977661 L 9.944999694824219 -1.0449999570846558 L 9.920999526977539 -1.253000020980835 L 9.892999649047852 -1.4609999656677246 L 9.859999656677246 -1.6679999828338623 L 9.822999954223633 -1.8739999532699585 L 9.788200378417969 -2.0480000972747803 L 9.781999588012695 -2.0789999961853027 L 9.736000061035156 -2.2839999198913574 L 9.685999870300293 -2.486999988555908 L 9.631999969482422 -2.688999891281128 L 9.572999954223633 -2.890000104904175 L 9.51099967956543 -3.0899999141693115 L 9.450699806213379 -3.2690999507904053 L 9.43690013885498 -3.3087000846862793 L 9.305500030517578 -3.6614999771118164 L 9.293999671936035 -3.690700054168701 L 9.185099601745605 -3.95169997215271 L 9.172800064086914 -3.980600118637085 L 9.120930671691895 -4.0960001945495605 L 9.056699752807617 -4.238900184631348 L 9.043499946594238 -4.267399787902832 L 8.852700233459473 -4.646299839019775 L 8.838600158691406 -4.6743998527526855 L 8.838010787963867 -4.675469875335693 L 8.818400382995605 -4.711100101470947 L 8.564599990844727 -5.1620001792907715 L 8.548399925231934 -5.188899993896484 L 8.397199630737305 -5.428299903869629 L 8.38029956817627 -5.454800128936768 L 8.223699569702148 -5.689700126647949 L 8.205900192260742 -5.71560001373291 L 8.192000389099121 -5.734863758087158 L 8.040300369262695 -5.945099830627441 L 8.021699905395508 -5.970399856567383 L 7.79040002822876 -6.2683000564575195 L 7.609499931335449 -6.485199928283691 L 7.5630998611450195 -6.541900157928467 L 7.550515174865723 -6.555922985076904 L 7.311100006103516 -6.822700023651123 L 7.289999961853027 -6.8460001945495605 L 7.268099784851074 -6.868500232696533 L 6.868500232696533 -7.268099784851074 L 6.838200092315674 -7.297100067138672 L 6.557400226593018 -7.549099922180176 L 6.533999919891357 -7.570000171661377 L 6.509900093078613 -7.590099811553955 L 6.224124908447266 -7.827062606811523 L 6.220099925994873 -7.830399990081787 L 6.161499977111816 -7.874499797821045 L 5.860899925231934 -8.10219955444336 L 5.730067729949951 -8.192000389099121 L 5.510799884796143 -8.342499732971191 L 5.493500232696533 -8.35420036315918 L 5.4670000076293945 -8.371199607849121 L 5.188899993896484 -8.548500061035156 L 5.1620001792907715 -8.564599990844727 L 4.752500057220459 -8.797699928283691 L 4.734300136566162 -8.807999610900879 L 4.706500053405762 -8.822699546813965 L 4.455399990081787 -8.952300071716309 L 4.417699813842773 -8.970499992370605 L 3.9038000106811523 -9.206299781799316 L 3.865299940109253 -9.222900390625 L 3.714184284210205 -9.28443717956543 L 3.690700054168701 -9.293999671936035 L 3.6368000507354736 -9.314200401306152 L 3.4612998962402344 -9.381699562072754 L 2.9249000549316406 -9.561699867248535 L 2.864799976348877 -9.580100059509277 L 2.5020999908447266 -9.68179988861084 L 2.446199893951416 -9.695599555969238 L 2.0789999961853027 -9.781999588012695 L 2.0481998920440674 -9.788000106811523 L 1.4919999837875366 -9.887900352478027 L 1.4609999656677246 -9.892999649047852 L 1.253000020980835 -9.920999526977539 L 0.9721999764442444 -9.951600074768066 L 0.9096999764442444 -9.957500457763672 L 0.628000020980835 -9.979999542236328 L 0.06279999762773514 -9.998000144958496 L 0 -9.999350547790527 L -0.020899999886751175 -9.999799728393555 L -0.3034999966621399 -9.99530029296875 L -0.33489999175071716 -9.994099617004395 L -0.5517803430557251 -9.983739852905273 L -0.6175000071525574 -9.980600357055664 L -0.8055999875068665 -9.967100143432617 L -0.9927999973297119 -9.94909954071045 L -1.0449999570846558 -9.944999694824219 L -1.0865999460220337 -9.939800262451172 L -1.6473000049591064 -9.863300323486328 L -1.6936999559402466 -9.855199813842773 L -1.87909996509552 -9.821900367736816 L -2.155400037765503 -9.764300346374512 L -2.1912999153137207 -9.756699562072754 L -2.2116000652313232 -9.751700401306152 L -2.6229000091552734 -9.648200035095215 L -2.683199882507324 -9.63070011138916 L -3.1791000366210938 -9.480400085449219 L -3.2088000774383545 -9.470100402832031 L -3.476099967956543 -9.376500129699707 L -3.505500078201294 -9.365500450134277 L -3.524899959564209 -9.357600212097168 L -4.047800064086914 -9.14430046081543 L -4.0960001945495605 -9.121657371520996 L -4.118899822235107 -9.110899925231934 L -4.290800094604492 -9.032600402832031 L -4.415891647338867 -8.97138500213623 L -4.460000038146973 -8.949799537658691 L -4.711100101470947 -8.820199966430664 L -4.958600044250488 -8.682499885559082 L -5.013500213623047 -8.652000427246094 L -5.014863967895508 -8.651196479797363 L -5.17549991607666 -8.556599617004395 L -5.335700035095215 -8.457599639892578 L -5.494100093841553 -8.354100227355957 L -5.542600154876709 -8.323200225830078 L -5.577125549316406 -8.299850463867188 L -5.698299884796143 -8.217900276184082 L -5.732500076293945 -8.193599700927734 L -5.734695911407471 -8.192000389099121 L -6.012579441070557 -7.989530563354492 L -6.037600040435791 -7.97130012512207 L -6.0868000984191895 -7.932300090789795 L -6.236199855804443 -7.8171000480651855 L -6.381999969482422 -7.698299884796143 L -6.455979824066162 -7.6358795166015625 L -6.526000022888184 -7.5767998695373535 L -6.587699890136719 -7.520100116729736 L -6.729000091552734 -7.395899772644043 L -6.868500232696533 -7.268099784851074 L -7.00439977645874 -7.137599945068359 L -7.137599945068359 -7.00439977645874 L -7.194300174713135 -6.942699909210205 L -7.32480001449585 -6.80679988861084 L -7.451700210571289 -6.667300224304199 L -7.565427303314209 -6.538845539093018 L -7.5767998695373535 -6.526000022888184 L -7.698299884796143 -6.381999969482422 L -7.8171000480651855 -6.236199855804443 L -7.843400001525879 -6.203700065612793 L -7.958600044250488 -6.054299831390381 L -7.995500087738037 -6.003499984741211 M 24.98240089416504 45.41749954223633 L 24.886524200439453 45.422874450683594 L 24.88610076904297 45.42290115356445 L 24.8821964263916 45.4235725402832 L 24.874500274658203 45.42490005493164 L 24.783599853515625 45.44020080566406 L 24.77079963684082 45.44390106201172 L 24.632200241088867 45.487998962402344 L 24.61910057067871 45.49399948120117 L 24.576000213623047 45.51436233520508 L 24.50480079650879 45.54800033569336 L 24.494800567626953 45.55419921875 L 24.356199264526367 45.65230178833008 L 24.292299270629883 45.711700439453125 L 24.276100158691406 45.726200103759766 L 24.273563385009766 45.72911834716797 L 24.22209930419922 45.788299560546875 L 24.215299606323242 45.79650115966797 L 24.213499069213867 45.79909896850586 L 24.124399185180664 45.9385986328125 L 24.118999481201172 45.9474983215332 L 24.116792678833008 45.95207595825195 L 24.114900588989258 45.95600128173828 L 24.114099502563477 45.95800018310547 L 24.060100555419922 46.07680130004883 L 24.059032440185547 46.08000183105469 L 24.056800842285156 46.086700439453125 L 24.03856086730957 46.155418395996094 L 24.01810073852539 46.23249816894531 L 24.014999389648438 46.2489013671875 L 24.006000518798828 46.49729919433594 L 24.005599975585938 46.50149917602539 L 24.00550079345703 46.50360107421875 L 24.00550079345703 46.50960159301758 L 24.00629997253418 46.520301818847656 L 24.02519989013672 46.63370132446289 L 24.02720069885254 46.644798278808594 L 24.055999755859375 46.742000579833984 L 24.059499740600586 46.753501892089844 L 24.09910011291504 46.84709930419922 L 24.103599548339844 46.857398986816406 L 24.1476993560791 46.9375 L 24.156400680541992 46.951499938964844 L 24.269800186157227 47.098201751708984 L 24.274517059326172 47.104000091552734 L 24.27589988708496 47.1057014465332 L 24.288299560546875 47.11709976196289 L 24.375600814819336 47.19540023803711 L 24.561899185180664 47.311500549316406 L 24.575899124145508 47.320899963378906 L 24.576000213623047 47.32094192504883 L 24.57938575744629 47.32239532470703 L 24.592199325561523 47.32789993286133 L 24.685800552368164 47.36479949951172 L 24.769500732421875 47.38819885253906 L 24.78339958190918 47.39189910888672 L 24.89859962463379 47.4099006652832 L 24.90999984741211 47.41130065917969 L 24.955900192260742 47.41490173339844 L 24.961200714111328 47.41510009765625 L 24.989999771118164 47.41600036621094 L 25.020999908447266 47.41600036621094 L 25.052000045776367 47.415000915527344 L 25.08799934387207 47.41242980957031 L 25.0939998626709 47.4119987487793 L 25.125 47.40800094604492 L 25.16445541381836 47.40236282348633 L 25.164899826049805 47.40230178833008 L 25.1654052734375 47.402217864990234 L 25.167999267578125 47.401798248291016 L 25.18600082397461 47.39820098876953 L 25.190099716186523 47.39739990234375 L 25.218000411987305 47.391998291015625 L 25.259000778198242 47.38199996948242 L 25.30900001525879 47.367000579833984 L 25.32900047302246 47.36000061035156 L 25.357999801635742 47.349998474121094 L 25.39699935913086 47.33399963378906 L 25.434999465942383 47.316001892089844 L 25.46299934387207 47.301998138427734 L 25.490999221801758 47.2869987487793 L 25.51799964904785 47.270999908447266 L 25.535999298095703 47.2599983215332 L 25.562000274658203 47.24300003051758 L 25.58799934387207 47.224998474121094 L 25.600000381469727 47.21588134765625 L 25.613000869750977 47.20600128173828 L 25.636999130249023 47.1870002746582 L 25.667856216430664 47.15999984741211 L 25.677000045776367 47.152000427246094 L 25.700000762939453 47.130001068115234 L 25.71500015258789 47.11600112915039 L 25.725955963134766 47.104000091552734 L 25.736000061035156 47.09299850463867 L 25.770999908447266 47.053001403808594 L 25.790000915527344 47.02899932861328 L 25.807058334350586 47.00579833984375 L 25.815000534057617 46.994998931884766 L 25.831199645996094 46.97159957885742 L 25.833599090576172 46.96820068359375 L 25.8435001373291 46.95289993286133 L 25.845699310302734 46.94929885864258 L 25.861000061035156 46.92499923706055 L 25.86549949645996 46.916900634765625 L 25.875999450683594 46.89799880981445 L 25.88599967956543 46.87900161743164 L 25.895999908447266 46.861000061035156 L 25.900737762451172 46.85100173950195 L 25.902158737182617 46.847999572753906 L 25.913999557495117 46.823001861572266 L 25.922000885009766 46.80400085449219 L 25.93000030517578 46.784000396728516 L 25.937000274658203 46.76499938964844 L 25.947999954223633 46.73500061035156 L 25.968700408935547 46.66600036621094 L 25.96969985961914 46.66189956665039 L 25.97425079345703 46.64175033569336 L 25.97599983215332 46.63399887084961 L 25.98200035095215 46.60300064086914 L 25.98419952392578 46.59199905395508 L 25.984600067138672 46.59000015258789 L 25.985849380493164 46.5837516784668 L 25.986000061035156 46.58300018310547 L 25.98900032043457 46.5620002746582 L 25.98940086364746 46.55889892578125 L 25.99209976196289 46.540000915527344 L 25.994800567626953 46.52199935913086 L 25.996009826660156 46.50929641723633 L 25.996999740600586 46.4989013671875 L 25.997900009155273 46.47999954223633 L 25.99810028076172 46.476898193359375 L 26 46.4370002746582 L 26 46.39500045776367 L 25.997190475463867 46.33599853515625 L 25.996999740600586 46.332000732421875 L 25.995285034179688 46.31399917602539 L 25.9950008392334 46.31100082397461 L 25.992000579833984 46.29100036621094 L 25.986000061035156 46.249000549316406 L 25.983800888061523 46.237998962402344 L 25.98200035095215 46.229000091552734 L 25.9783992767334 46.21009826660156 L 25.977800369262695 46.207000732421875 L 25.974199295043945 46.18899917602539 L 25.973499298095703 46.1859016418457 L 25.972749710083008 46.1827507019043 L 25.9689998626709 46.16699981689453 L 25.947999954223633 46.09700012207031 L 25.9417667388916 46.08000183105469 L 25.937000274658203 46.06700134277344 L 25.93000030517578 46.04800033569336 L 25.92571449279785 46.03728485107422 L 25.922000885009766 46.02799987792969 L 25.909000396728516 46 L 25.895999908447266 45.97100067138672 L 25.88599967956543 45.952999114990234 L 25.875999450683594 45.933998107910156 L 25.861000061035156 45.90700149536133 L 25.85930061340332 45.904300689697266 L 25.855388641357422 45.89789962768555 L 25.839500427246094 45.87189865112305 L 25.83839988708496 45.870201110839844 L 25.837200164794922 45.86840057373047 L 25.81439971923828 45.83610153198242 L 25.805503845214844 45.82400131225586 L 25.791900634765625 45.80550003051758 L 25.790700912475586 45.80379867553711 L 25.764699935913086 45.77180099487305 L 25.7367000579834 45.73979949951172 L 25.73419952392578 45.737098693847656 L 25.646900177001953 45.654300689697266 L 25.640600204467773 45.648399353027344 L 25.628599166870117 45.63949966430664 L 25.600000381469727 45.61837387084961 L 25.549400329589844 45.58100128173828 L 25.474700927734375 45.53689956665039 L 25.466100692749023 45.53200149536133 L 25.458999633789062 45.52870178222656 L 25.35099983215332 45.480098724365234 L 25.25469970703125 45.450401306152344 L 25.2273006439209 45.443599700927734 L 25.127399444580078 45.42470169067383 L 25.00320053100586 45.41749954223633 L 24.992300033569336 45.416900634765625 L 24.98240089416504 45.41749954223633 M -25.368000030517578 -49.34600067138672 L -25.39699935913086 -49.33399963378906 L -25.426000595092773 -49.32099914550781 L -25.45400047302246 -49.30799865722656 L -25.48200035095215 -49.292999267578125 L -25.535999298095703 -49.26100158691406 L -25.562000274658203 -49.24399948120117 L -25.59600067138672 -49.21900177001953 L -25.600000381469727 -49.21596908569336 L -25.628999710083008 -49.194000244140625 L -25.660999298095703 -49.16699981689453 L -25.677034378051758 -49.152000427246094 L -25.691999435424805 -49.13800048828125 L -25.71500015258789 -49.11600112915039 L -25.729000091552734 -49.10100173950195 L -25.75 -49.077999114990234 L -25.777000427246094 -49.04600143432617 L -25.797000885009766 -49.020999908447266 L -25.80900001525879 -49.00400161743164 L -25.82699966430664 -48.979000091552734 L -25.829914093017578 -48.97437286376953 L -25.8439998626709 -48.95199966430664 L -25.865999221801758 -48.91600036621094 L -25.877111434936523 -48.895999908447266 L -25.881000518798828 -48.888999938964844 L -25.895999908447266 -48.861000061035156 L -25.905000686645508 -48.84199905395508 L -25.917999267578125 -48.81399917602539 L -25.93400001525879 -48.77399826049805 L -25.944000244140625 -48.744998931884766 L -25.951000213623047 -48.724998474121094 L -25.951692581176758 -48.72269058227539 L -25.96299934387207 -48.685001373291016 L -25.97100067138672 -48.654998779296875 L -25.974292755126953 -48.63999938964844 L -25.979999542236328 -48.61399841308594 L -25.986000061035156 -48.58300018310547 L -25.990999221801758 -48.551998138427734 L -25.9950008392334 -48.520999908447266 L -25.996999740600586 -48.5 L -26 -48.4370002746582 L -26 -48.39500045776367 L -25.999645233154297 -48.38399887084961 L -25.999000549316406 -48.36399841308594 L -25.996999740600586 -48.33300018310547 L -25.9950008392334 -48.3120002746582 L -25.992000579833984 -48.29100036621094 L -25.988000869750977 -48.2599983215332 L -25.986364364624023 -48.25154495239258 L -25.97599983215332 -48.198001861572266 L -25.9689998626709 -48.167999267578125 L -25.96299934387207 -48.14699935913086 L -25.957300186157227 -48.12799835205078 L -25.951000213623047 -48.106998443603516 L -25.94099998474121 -48.077999114990234 L -25.926000595092773 -48.03799819946289 L -25.913999557495117 -48.0099983215332 L -25.895999908447266 -47.97200012207031 L -25.865999221801758 -47.91600036621094 L -25.850000381469727 -47.88999938964844 L -25.838171005249023 -47.87200164794922 L -25.82699966430664 -47.85499954223633 L -25.80900001525879 -47.82899856567383 L -25.797000885009766 -47.8120002746582 L -25.777000427246094 -47.7869987487793 L -25.756999969482422 -47.76300048828125 L -25.71500015258789 -47.71699905395508 L -25.700000762939453 -47.70199966430664 L -25.66900062561035 -47.67300033569336 L -25.657400131225586 -47.664100646972656 L -25.614200592041016 -47.62810134887695 L -25.600000381469727 -47.61656188964844 L -25.59980010986328 -47.61640167236328 L -25.59927749633789 -47.61600112915039 L -25.58449935913086 -47.604698181152344 L -25.561100006103516 -47.5885009765625 L -25.529600143432617 -47.56779861450195 L -25.49720001220703 -47.54890060424805 L -25.472000122070312 -47.535400390625 L -25.455900192260742 -47.526798248291016 L -25.430700302124023 -47.514198303222656 L -25.396499633789062 -47.4989013671875 L -25.361400604248047 -47.484500885009766 L -25.33530044555664 -47.47460174560547 L -25.329099655151367 -47.47243118286133 L -25.31730079650879 -47.468299865722656 L -25.299299240112305 -47.46289825439453 L -25.274999618530273 -47.456199645996094 L -25.256999969482422 -47.450801849365234 L -25.23900032043457 -47.4463005065918 L -25.22010040283203 -47.44179916381836 L -25.193099975585938 -47.43550109863281 L -25.165199279785156 -47.43009948730469 L -25.127399444580078 -47.42470169067383 L -25.090499877929688 -47.42110061645508 L -25.08799934387207 -47.420860290527344 L -25.07159996032715 -47.4193000793457 L -25.05270004272461 -47.418399810791016 L -25.03380012512207 -47.418399810791016 L -25.010799407958984 -47.41740036010742 L -24.972999572753906 -47.41740036010742 L -24.945100784301758 -47.41830062866211 L -24.943700790405273 -47.418399810791016 L -24.90730094909668 -47.42100143432617 L -24.8794002532959 -47.42369842529297 L -24.855300903320312 -47.42714309692383 L -24.84160041809082 -47.429100036621094 L -24.82360076904297 -47.432701110839844 L -24.800399780273438 -47.437599182128906 L -24.785999298095703 -47.44034194946289 L -24.7814998626709 -47.441200256347656 L -24.763500213623047 -47.445701599121094 L -24.744600296020508 -47.450199127197266 L -24.708599090576172 -47.46009826660156 L -24.69059944152832 -47.46549987792969 L -24.67259979248047 -47.4718017578125 L -24.620399475097656 -47.49250030517578 L -24.602399826049805 -47.499698638916016 L -24.576000213623047 -47.51220703125 L -24.568199157714844 -47.515899658203125 L -24.54800033569336 -47.524898529052734 L -24.535322189331055 -47.53147506713867 L -24.523700714111328 -47.537498474121094 L -24.49850082397461 -47.55099868774414 L -24.474199295043945 -47.565399169921875 L -24.442699432373047 -47.58610153198242 L -24.419300079345703 -47.602298736572266 L -24.40399932861328 -47.61399841308594 L -24.395000457763672 -47.619998931884766 L -24.380599975585938 -47.63169860839844 L -24.3302001953125 -47.67399978637695 L -24.31999969482422 -47.68299865722656 L -24.286699295043945 -47.71630096435547 L -24.212900161743164 -47.80179977416992 L -24.203351974487305 -47.81283950805664 L -24.20330047607422 -47.81290054321289 L -24.196300506591797 -47.82379913330078 L -24.121599197387695 -47.93989944458008 L -24.116300582885742 -47.95069885253906 L -24.05150032043457 -48.100101470947266 L -24.04840087890625 -48.10900115966797 L -24.044700622558594 -48.127498626708984 L -24.044612884521484 -48.12799835205078 L -24.00149917602539 -48.373199462890625 L -24.001300811767578 -48.391998291015625 L -24.002199172973633 -48.47209930419922 L -24.016599655151367 -48.58729934692383 L -24.018199920654297 -48.5984001159668 L -24.043399810791016 -48.7046012878418 L -24.046300888061523 -48.7156982421875 L -24.076000213623047 -48.794898986816406 L -24.081600189208984 -48.80860137939453 L -24.12660026550293 -48.902198791503906 L -24.138599395751953 -48.92110061645508 L -24.234899520874023 -49.06060028076172 L -24.24250030517578 -49.06880187988281 L -24.293800354003906 -49.12369918823242 L -24.324499130249023 -49.152000427246094 L -24.35140037536621 -49.17679977416992 L -24.358999252319336 -49.18360137939453 L -24.45170021057129 -49.2510986328125 L -24.46109962463379 -49.2578010559082 L -24.471500396728516 -49.26340103149414 L -24.548900604248047 -49.30839920043945 L -24.576000213623047 -49.32020568847656 L -24.639799118041992 -49.347999572753906 L -24.648399353027344 -49.351600646972656 L -24.81399917602539 -49.39659881591797 L -24.820499420166016 -49.39870071411133 L -24.828100204467773 -49.40060043334961 L -24.84309959411621 -49.40230178833008 L -24.957399368286133 -49.41490173339844 L -24.976299285888672 -49.41579818725586 L -24.98110008239746 -49.41600036621094 L -25.020999908447266 -49.41600036621094 L -25.083999633789062 -49.41299819946289 L -25.08799934387207 -49.412620544433594 L -25.104999542236328 -49.4109992980957 L -25.125 -49.40800094604492 L -25.130477905273438 -49.40747833251953 L -25.145999908447266 -49.40599822998047 L -25.16699981689453 -49.402000427246094 L -25.187000274658203 -49.39899826049805 L -25.20800018310547 -49.39500045776367 L -25.22800064086914 -49.38999938964844 L -25.259000778198242 -49.382999420166016 L -25.27400016784668 -49.378501892089844 L -25.288999557495117 -49.374000549316406 L -25.3439998626709 -49.35566711425781 L -25.347286224365234 -49.35457229614258 L -25.349000930786133 -49.354000091552734 L -25.368000030517578 -49.34600067138672 M -0.11190000176429749 -47.42319869995117 L -0.10989999771118164 -47.422698974609375 L -0.09430000185966492 -47.42070007324219 L 2.8421708712411236e-18 -47.41958999633789 L 0.05869999900460243 -47.41889953613281 L 0.06909999996423721 -47.41889953613281 L 0.07859999686479568 -47.419898986816406 L 0.18299999833106995 -47.43339920043945 L 0.23880000412464142 -47.44599914550781 L 0.25519999861717224 -47.44990158081055 L 0.36230000853538513 -47.48500061035156 L 0.388700008392334 -47.49810028076172 L 0.4490000009536743 -47.524200439453125 L 0.4867999851703644 -47.54399871826172 L 0.5107450485229492 -47.558658599853516 L 0.574999988079071 -47.597999572753906 L 0.659600019454956 -47.66550064086914 L 0.675000011920929 -47.679100036621094 L 0.745199978351593 -47.749298095703125 L 0.7537999749183655 -47.759700775146484 L 0.8177000284194946 -47.84159851074219 L 0.8744000196456909 -47.93339920043945 L 0.8878999948501587 -47.95859909057617 L 0.8960000276565552 -47.97570037841797 L 0.907800018787384 -47.99769973754883 L 0.9266999959945679 -48.040000915527344 L 0.9273326992988586 -48.041847229003906 L 0.95684814453125 -48.12799835205078 L 0.9599999785423279 -48.13719940185547 L 0.9635712504386902 -48.14847946166992 L 0.9638000130653381 -48.149200439453125 L 0.9890000224113464 -48.27880096435547 L 0.9905999898910522 -48.2869987487793 L 0.9916999936103821 -48.29790115356445 L 0.9998000264167786 -48.392398834228516 L 0.9980000257492065 -48.449100494384766 L 0.9977999925613403 -48.46110153198242 L 0.9975408911705017 -48.46356201171875 L 0.9851999878883362 -48.5807991027832 L 0.9836999773979187 -48.59280014038086 L 0.9449999928474426 -48.737701416015625 L 0.9409999847412109 -48.75230026245117 L 0.9121999740600586 -48.825199127197266 L 0.9047999978065491 -48.84109878540039 L 0.8705999851226807 -48.90769958496094 L 0.8238000273704529 -48.98149871826172 L 0.8134999871253967 -48.996299743652344 L 0.7639999985694885 -49.0620002746582 L 0.7127000093460083 -49.11690139770508 L 0.7062000036239624 -49.12369918823242 L 0.6755017042160034 -49.152000427246094 L 0.6485999822616577 -49.17679977416992 L 0.6399999856948853 -49.18439865112305 L 0.5788000226020813 -49.231201171875 L 0.5636000037193298 -49.24100112915039 L 0.459199994802475 -49.304901123046875 L 0.45089998841285706 -49.30870056152344 L 0.3617999851703644 -49.3474006652832 L 0.3521000146865845 -49.350799560546875 L 0.25150761008262634 -49.38180923461914 L 0.23240000009536743 -49.387699127197266 L 0.13609999418258667 -49.40570068359375 L 0.09380000084638596 -49.4093017578125 L 0.07199999690055847 -49.41310119628906 L 0.04410000145435333 -49.41490173339844 L 0.020999999716877937 -49.41600036621094 L 0 -49.41600036621094 L -0.020999999716877937 -49.41600036621094 L -0.08190000057220459 -49.41310119628906 L -0.11429999768733978 -49.40950012207031 L -0.12389999628067017 -49.40840148925781 L -0.24899999797344208 -49.38410186767578 L -0.26269999146461487 -49.38090133666992 L -0.42559999227523804 -49.319698333740234 L -0.442660927772522 -49.31265640258789 L -0.44279998540878296 -49.312599182128906 L -0.45019999146461487 -49.30820083618164 L -0.5734999775886536 -49.23529815673828 L -0.5830000042915344 -49.22829818725586 L -0.6496000289916992 -49.17610168457031 L -0.6742477416992188 -49.152000427246094 L -0.7305999994277954 -49.096900939941406 L -0.7433000206947327 -49.08449935913086 L -0.7433645129203796 -49.08441925048828 L -0.8108000159263611 -48.999900817871094 L -0.8159000277519226 -48.99330139160156 L -0.8582000136375427 -48.9276008605957 L -0.8639000058174133 -48.918399810791016 L -0.9043999910354614 -48.84189987182617 L -0.9100000262260437 -48.8302001953125 L -0.9621999859809875 -48.68349838256836 L -0.965499997138977 -48.67399978637695 L -0.9678999781608582 -48.66310119628906 L -0.9876999855041504 -48.56949996948242 L -0.9890999794006348 -48.55619812011719 L -0.9980999827384949 -48.461700439453125 L -0.9980999827384949 -48.45309829711914 L -0.9954000115394592 -48.31719970703125 L -0.9905999898910522 -48.291500091552734 L -0.9570162296295166 -48.12799835205078 L -0.9563999772071838 -48.125 L -0.9284999966621399 -48.044898986816406 L -0.9212999939918518 -48.02830123901367 L -0.8600999712944031 -47.90679931640625 L -0.8499000072479248 -47.89139938354492 L -0.7950000166893005 -47.80950164794922 L -0.7077000141143799 -47.71049880981445 L -0.699999988079071 -47.70199966430664 L -0.6306999921798706 -47.641700744628906 L -0.6133999824523926 -47.62810134887695 L -0.6097999811172485 -47.625999450683594 L -0.6069999933242798 -47.6245002746582 L -0.6014000177383423 -47.62179946899414 L -0.5906558036804199 -47.615745544433594 L -0.3538999855518341 -47.4822998046875 L -0.34209999442100525 -47.477901458740234 L -0.32640451192855835 -47.47418212890625 L -0.2650986313819885 -47.45965576171875 L -0.12374615669250488 -47.42616271972656 L -0.11800000071525574 -47.424800872802734 L -0.11649999767541885 -47.42435073852539 L -0.11599999666213989 -47.424198150634766 L -0.11400000005960464 -47.42369842529297 L -0.11190000176429749 -47.42319869995117 M 50 52.41600036621094 L 32.768001556396484 52.41600036621094 L 16.384000778198242 52.41600036621094 L 0 52.41600036621094 L -16.384000778198242 52.41600036621094 L -32.768001556396484 52.41600036621094 L -50 52.41600036621094 L -50 32.768001556396484 L -50 4.440892164675075e-17 L -50 -32.768001556396484 L -50 -52.41600036621094 L -32.768001556396484 -52.41600036621094 L -28.672000885009766 -52.41600036621094 L -26.624000549316406 -52.41600036621094 L -24.576000213623047 -52.41600036621094 L -16.384000778198242 -52.41600036621094 L 0 -52.41600036621094 L 16.384000778198242 -52.41600036621094 L 24.576000213623047 -52.41600036621094 L 26.624000549316406 -52.41600036621094 L 28.672000885009766 -52.41600036621094 L 32.768001556396484 -52.41600036621094 L 50 -52.41600036621094 L 50 -32.768001556396484 L 50 4.440892164675075e-17 L 50 32.768001556396484 L 50 52.41600036621094 M -24.414100646972656 45.60689926147461 L -24.421199798583984 45.600799560546875 L -24.4237003326416 45.598899841308594 L -24.426300048828125 45.59709930419922 L -24.42889976501465 45.595401763916016 L -24.53510093688965 45.53239822387695 L -24.537799835205078 45.53070068359375 L -24.53966522216797 45.52968978881836 L -24.541500091552734 45.52870178222656 L -24.54520034790039 45.526798248291016 L -24.548999786376953 45.525001525878906 L -24.576000213623047 45.51371765136719 L -24.680400848388672 45.47010040283203 L -24.68429946899414 45.46849822998047 L -24.68720054626465 45.467498779296875 L -24.690200805664062 45.46649932861328 L -24.695199966430664 45.46500015258789 L -24.82949447631836 45.43310546875 L -24.83919906616211 45.43080139160156 L -24.842300415039062 45.43009948730469 L -24.846399307250977 45.429298400878906 L -24.84950065612793 45.42879867553711 L -24.851600646972656 45.42850112915039 L -24.857799530029297 45.42789840698242 L -24.859899520874023 45.427799224853516 L -25.073200225830078 45.42150115966797 L -25.075300216674805 45.4213981628418 L -25.07740020751953 45.4213981628418 L -25.082599639892578 45.42150115966797 L -25.08679962158203 45.42190170288086 L -25.08989906311035 45.42219924926758 L -25.096099853515625 45.42319869995117 L -25.09819984436035 45.42359924316406 L -25.280899047851562 45.45690155029297 L -25.284000396728516 45.45759963989258 L -25.28700065612793 45.45840072631836 L -25.291000366210938 45.459598541259766 L -25.292999267578125 45.46030044555664 L -25.295621871948242 45.461204528808594 L -25.295900344848633 45.461299896240234 L -25.296199798583984 45.46141815185547 L -25.298900604248047 45.462501525878906 L -25.300800323486328 45.46329879760742 L -25.30459976196289 45.4650993347168 L -25.306400299072266 45.46609878540039 L -25.308300018310547 45.467098236083984 L -25.518571853637695 45.56800079345703 L -25.554000854492188 45.584999084472656 L -25.55579948425293 45.58599853515625 L -25.55940055847168 45.588199615478516 L -25.560941696166992 45.58919906616211 L -25.561100006103516 45.589298248291016 L -25.56290054321289 45.59049987792969 L -25.566299438476562 45.592899322509766 L -25.57110023498535 45.596900939941406 L -25.600000381469727 45.618812561035156 L -25.652999877929688 45.659000396728516 L -25.667856216430664 45.672000885009766 L -25.684999465942383 45.6870002746582 L -25.700000762939453 45.70199966430664 L -25.71500015258789 45.715999603271484 L -25.729000091552734 45.73099899291992 L -25.764699935913086 45.77180099487305 L -25.770999908447266 45.77899932861328 L -25.772300720214844 45.780601501464844 L -25.789400100708008 45.80220031738281 L -25.790700912475586 45.80379867553711 L -25.80605125427246 45.82400131225586 L -25.80780029296875 45.82630157470703 L -25.80900001525879 45.827999114990234 L -25.82699966430664 45.854000091552734 L -25.8439998626709 45.880001068115234 L -25.861000061035156 45.90700149536133 L -25.875999450683594 45.933998107910156 L -25.88599967956543 45.952999114990234 L -25.895999908447266 45.97100067138672 L -25.900737762451172 45.98099899291992 L -25.913999557495117 46.00899887084961 L -25.922000885009766 46.02799987792969 L -25.93000030517578 46.04800033569336 L -25.937000274658203 46.06700134277344 L -25.94154930114746 46.08000183105469 L -25.944000244140625 46.08700180053711 L -25.95400047302246 46.117000579833984 L -25.9689998626709 46.16699981689453 L -25.974000930786133 46.1879997253418 L -25.978200912475586 46.20899963378906 L -25.981800079345703 46.227901458740234 L -25.98240089416504 46.23099899291992 L -25.986000061035156 46.249000549316406 L -25.986328125 46.25128936767578 L -25.986543655395508 46.25279998779297 L -25.992000579833984 46.29100036621094 L -25.9950008392334 46.31100082397461 L -25.995285034179688 46.31399917602539 L -25.996999740600586 46.332000732421875 L -25.997190475463867 46.33599853515625 L -26 46.39500045776367 L -26 46.4370002746582 L -25.999000549316406 46.45800018310547 L -25.996999740600586 46.48899841308594 L -25.99519920349121 46.517799377441406 L -25.995019912719727 46.519691467285156 L -25.994972229003906 46.520198822021484 L -25.994800567626953 46.52199935913086 L -25.993000030517578 46.534000396728516 L -25.99209976196289 46.540000915527344 L -25.99169921875 46.54309844970703 L -25.986000061035156 46.58300018310547 L -25.984600067138672 46.59000015258789 L -25.98419952392578 46.59199905395508 L -25.98200035095215 46.60300064086914 L -25.97800064086914 46.624000549316406 L -25.974000930786133 46.64400100708008 L -25.965999603271484 46.67499923706055 L -25.95400047302246 46.71500015258789 L -25.944000244140625 46.744998931884766 L -25.937000274658203 46.76499938964844 L -25.93000030517578 46.784000396728516 L -25.917999267578125 46.8129997253418 L -25.905000686645508 46.84199905395508 L -25.902158737182617 46.847999572753906 L -25.900737762451172 46.85100173950195 L -25.895999908447266 46.861000061035156 L -25.88599967956543 46.87900161743164 L -25.875999450683594 46.89799880981445 L -25.861000061035156 46.92499923706055 L -25.8439998626709 46.95199966430664 L -25.82699966430664 46.97800064086914 L -25.80900001525879 47.00400161743164 L -25.790000915527344 47.02899932861328 L -25.770999908447266 47.053001403808594 L -25.729000091552734 47.10100173950195 L -25.726200103759766 47.104000091552734 L -25.718027114868164 47.11275863647461 L -25.71500015258789 47.11600112915039 L -25.700000762939453 47.130001068115234 L -25.677000045776367 47.152000427246094 L -25.652999877929688 47.17300033569336 L -25.628999710083008 47.19300079345703 L -25.600000381469727 47.21584701538086 L -25.59600067138672 47.21900177001953 L -25.562000274658203 47.24300003051758 L -25.535999298095703 47.2599983215332 L -25.51799964904785 47.270999908447266 L -25.490999221801758 47.2869987487793 L -25.46299934387207 47.301998138427734 L -25.434999465942383 47.316001892089844 L -25.39699935913086 47.33399963378906 L -25.357999801635742 47.349998474121094 L -25.32900047302246 47.36000061035156 L -25.30900001525879 47.367000579833984 L -25.27899932861328 47.375999450683594 L -25.23900032043457 47.387001037597656 L -25.197999954223633 47.395999908447266 L -25.16699981689453 47.402000427246094 L -25.125 47.40800094604492 L -25.0939998626709 47.4119987487793 L -25.08799934387207 47.41242980957031 L -25.052000045776367 47.415000915527344 L -25.048900604248047 47.41510009765625 L -25.01110076904297 47.41600036621094 L -24.980100631713867 47.41600036621094 L -24.976900100708008 47.41590118408203 L -24.95800018310547 47.415000915527344 L -24.940399169921875 47.41270065307617 L -24.890899658203125 47.408199310302734 L -24.843463897705078 47.40003204345703 L -24.7549991607666 47.38479995727539 L -24.743000030517578 47.38119888305664 L -24.656600952148438 47.355098724365234 L -24.58370018005371 47.32360076904297 L -24.576000213623047 47.32011032104492 L -24.568700790405273 47.31679916381836 L -24.489500045776367 47.27539825439453 L -24.482099533081055 47.27090072631836 L -24.357900619506836 47.18090057373047 L -24.35099983215332 47.17570114135742 L -24.33919906616211 47.16429901123047 L -24.278900146484375 47.104000091552734 L -24.237499237060547 47.062599182128906 L -24.229700088500977 47.05270004272461 L -24.148494720458984 46.93582534790039 L -24.133399963378906 46.914100646972656 L -24.093799591064453 46.83399963378906 L -24.08523941040039 46.81806182861328 L -24.084400177001953 46.81650161743164 L -24.04210090637207 46.69860076904297 L -24.03820037841797 46.687801361083984 L -24.014799118041992 46.58250045776367 L -24.011199951171875 46.562198638916016 L -24.002199172973633 46.463199615478516 L -24.001800537109375 46.45560073852539 L -24.001800537109375 46.35929870605469 L -24.002899169921875 46.34469985961914 L -24.026071548461914 46.20277786254883 L -24.031700134277344 46.16830062866211 L -24.042499542236328 46.132301330566406 L -24.05150032043457 46.10530090332031 L -24.056900024414062 46.084598541259766 L -24.05885124206543 46.08000183105469 L -24.10460090637207 45.97209930419922 L -24.11050033569336 45.95920181274414 L -24.114200592041016 45.95289993286133 L -24.182600021362305 45.84040069580078 L -24.18560028076172 45.83610153198242 L -24.282800674438477 45.72090148925781 L -24.286680221557617 45.716373443603516 L -24.292999267578125 45.70899963378906 L -24.295299530029297 45.7067985534668 L -24.414100646972656 45.60689926147461 M 24.408199310302734 -49.22019958496094 L 24.327369689941406 -49.152000427246094 L 24.292999267578125 -49.12300109863281 L 24.236000061035156 -49.0620002746582 L 24.230300903320312 -49.054298400878906 L 24.134000778198242 -48.914798736572266 L 24.128000259399414 -48.90520095825195 L 24.059600830078125 -48.752201080322266 L 24.052400588989258 -48.734798431396484 L 24.02720069885254 -48.6421012878418 L 24.024200439453125 -48.63050079345703 L 24.006200790405273 -48.52159881591797 L 24.00480079650879 -48.51070022583008 L 24.00029945373535 -48.42070007324219 L 24.000699996948242 -48.4015998840332 L 24.003400802612305 -48.338600158691406 L 24.01689910888672 -48.236000061035156 L 24.020000457763672 -48.22100067138672 L 24.02899932861328 -48.17959976196289 L 24.043743133544922 -48.12799835205078 L 24.052400588989258 -48.09769821166992 L 24.058300018310547 -48.08169937133789 L 24.083499908447266 -48.01689910888672 L 24.08799934387207 -48.00830078125 L 24.164499282836914 -47.867000579833984 L 24.17449951171875 -47.85340118408203 L 24.185300827026367 -47.83810043334961 L 24.188901901245117 -47.83381271362305 L 24.294200897216797 -47.708499908447266 L 24.30389976501465 -47.69839859008789 L 24.382200241088867 -47.63090133666992 L 24.388900756835938 -47.6254997253418 L 24.45639991760254 -47.57780075073242 L 24.471099853515625 -47.56890106201172 L 24.576000213623047 -47.51448440551758 L 24.615100860595703 -47.49420166015625 L 24.62506103515625 -47.489749908447266 L 24.62540054321289 -47.489601135253906 L 24.633699417114258 -47.48699951171875 L 24.774999618530273 -47.44200134277344 L 24.786800384521484 -47.43960189819336 L 24.917299270629883 -47.42070007324219 L 24.928699493408203 -47.419700622558594 L 25.090700149536133 -47.42150115966797 L 25.096813201904297 -47.4216194152832 L 25.100900650024414 -47.42169952392578 L 25.12220001220703 -47.42570114135742 L 25.222999572753906 -47.441898345947266 L 25.320199966430664 -47.46979904174805 L 25.332199096679688 -47.47420120239258 L 25.415000915527344 -47.50659942626953 L 25.42460060119629 -47.51150131225586 L 25.518037796020508 -47.56332778930664 L 25.5398006439209 -47.575401306152344 L 25.600000381469727 -47.62025451660156 L 25.63159942626953 -47.643798828125 L 25.646196365356445 -47.654144287109375 L 25.646699905395508 -47.65449905395508 L 25.649099349975586 -47.65660095214844 L 25.684200286865234 -47.68629837036133 L 25.686500549316406 -47.688499450683594 L 25.71500015258789 -47.71699905395508 L 25.756999969482422 -47.76300048828125 L 25.777000427246094 -47.7869987487793 L 25.797000885009766 -47.8120002746582 L 25.80900001525879 -47.82899856567383 L 25.82699966430664 -47.85499954223633 L 25.838171005249023 -47.87200164794922 L 25.850000381469727 -47.88999938964844 L 25.865999221801758 -47.91600036621094 L 25.895999908447266 -47.97200012207031 L 25.913999557495117 -48.0099983215332 L 25.926000595092773 -48.03799819946289 L 25.94099998474121 -48.077999114990234 L 25.951000213623047 -48.106998443603516 L 25.957300186157227 -48.12799835205078 L 25.96299934387207 -48.14699935913086 L 25.9689998626709 -48.167999267578125 L 25.97599983215332 -48.198001861572266 L 25.988000869750977 -48.2599983215332 L 25.992000579833984 -48.29100036621094 L 25.9950008392334 -48.3120002746582 L 25.995819091796875 -48.32059097290039 L 25.996999740600586 -48.33300018310547 L 25.999000549316406 -48.36399841308594 L 25.999645233154297 -48.38399887084961 L 26 -48.39500045776367 L 26 -48.4370002746582 L 25.996999740600586 -48.5 L 25.9950008392334 -48.520999908447266 L 25.990999221801758 -48.551998138427734 L 25.986000061035156 -48.58300018310547 L 25.979999542236328 -48.61399841308594 L 25.974292755126953 -48.63999938964844 L 25.97100067138672 -48.654998779296875 L 25.96109962463379 -48.691001892089844 L 25.96030044555664 -48.694000244140625 L 25.959999084472656 -48.69499969482422 L 25.951000213623047 -48.724998474121094 L 25.944000244140625 -48.744998931884766 L 25.93400001525879 -48.77399826049805 L 25.93280029296875 -48.777000427246094 L 25.917999267578125 -48.81399917602539 L 25.905000686645508 -48.84199905395508 L 25.895999908447266 -48.861000061035156 L 25.881000518798828 -48.888999938964844 L 25.877111434936523 -48.895999908447266 L 25.865999221801758 -48.91600036621094 L 25.8439998626709 -48.95199966430664 L 25.82699966430664 -48.979000091552734 L 25.80900001525879 -49.00400161743164 L 25.797000885009766 -49.020999908447266 L 25.794599533081055 -49.02399826049805 L 25.777000427246094 -49.04600143432617 L 25.75 -49.077999114990234 L 25.729000091552734 -49.10100173950195 L 25.71500015258789 -49.11600112915039 L 25.691999435424805 -49.13800048828125 L 25.677034378051758 -49.152000427246094 L 25.660999298095703 -49.16699981689453 L 25.636999130249023 -49.1870002746582 L 25.621000289916992 -49.20000076293945 L 25.600000381469727 -49.21596145629883 L 25.59600067138672 -49.21900177001953 L 25.562000274658203 -49.24399948120117 L 25.535999298095703 -49.26100158691406 L 25.48200035095215 -49.292999267578125 L 25.45400047302246 -49.30799865722656 L 25.426000595092773 -49.32099914550781 L 25.39699935913086 -49.33399963378906 L 25.368000030517578 -49.34600067138672 L 25.349000930786133 -49.354000091552734 L 25.347286224365234 -49.35457229614258 L 25.3439998626709 -49.35566711425781 L 25.288999557495117 -49.374000549316406 L 25.259000778198242 -49.382999420166016 L 25.22800064086914 -49.38999938964844 L 25.20800018310547 -49.39500045776367 L 25.20050048828125 -49.396209716796875 L 25.177000045776367 -49.400001525878906 L 25.145999908447266 -49.40599822998047 L 25.125 -49.40800094604492 L 25.104999542236328 -49.4109992980957 L 25.08799934387207 -49.412620544433594 L 25.083999633789062 -49.41299819946289 L 25.020999908447266 -49.41600036621094 L 24.98110008239746 -49.41600036621094 L 24.976299285888672 -49.41579818725586 L 24.957399368286133 -49.41490173339844 L 24.854799270629883 -49.404998779296875 L 24.839799880981445 -49.40330123901367 L 24.75429916381836 -49.38529968261719 L 24.746000289916992 -49.383201599121094 L 24.632600784301758 -49.34450149536133 L 24.619800567626953 -49.339698791503906 L 24.576000213623047 -49.31889343261719 L 24.51180076599121 -49.28839874267578 L 24.497800827026367 -49.280799865722656 L 24.423999786376953 -49.23310089111328 L 24.41939926147461 -49.22964859008789 L 24.415199279785156 -49.22650146484375 L 24.408199310302734 -49.22019958496094 M -0.8217999935150146 46.982200622558594 L -0.816100001335144 46.992401123046875 L -0.809499979019165 47.0015983581543 L -0.7339000105857849 47.09429931640625 L -0.7282999753952026 47.100799560546875 L -0.724635899066925 47.104000091552734 L -0.5932999849319458 47.21870040893555 L -0.5789999961853027 47.23099899291992 L -0.515999972820282 47.27239990234375 L -0.5059999823570251 47.27859878540039 L -0.38269999623298645 47.337100982666016 L -0.37229999899864197 47.342098236083984 L -0.37186744809150696 47.34223937988281 L -0.35989999771118164 47.346099853515625 L -0.17720000445842743 47.399200439453125 L -0.16619999706745148 47.4015007019043 L -0.12681463360786438 47.40776443481445 L -0.1265999972820282 47.407798767089844 L -0.12189999967813492 47.40840148925781 L -0.09399999678134918 47.4119987487793 L -0.052000001072883606 47.415000915527344 L -0.020999999716877937 47.41600036621094 L 0 47.41600036621094 L 0.009999999776482582 47.41600036621094 L 0.052000001072883606 47.415000915527344 L 0.0551999993622303 47.414798736572266 L 0.09300000220537186 47.41210174560547 L 0.0982000008225441 47.411399841308594 L 0.16840000450611115 47.40060043334961 L 0.17890000343322754 47.39860153198242 L 0.2815000116825104 47.37519836425781 L 0.29899999499320984 47.36909866333008 L 0.40700000524520874 47.3286018371582 L 0.5051000118255615 47.27730178833008 L 0.5145999789237976 47.272300720214844 L 0.5248000025749207 47.26539993286133 L 0.6129999756813049 47.20600128173828 L 0.614366888999939 47.204811096191406 L 0.6822999715805054 47.14569854736328 L 0.692300021648407 47.13669967651367 L 0.7231314182281494 47.104000091552734 L 0.7516999840736389 47.073699951171875 L 0.7631000280380249 47.059898376464844 L 0.8432000279426575 46.951900482177734 L 0.8476999998092651 46.94449996948242 L 0.8971999883651733 46.856300354003906 L 0.9032999873161316 46.843299865722656 L 0.933899998664856 46.77220153808594 L 0.9376999735832214 46.76020050048828 L 0.9710000157356262 46.652198791503906 L 0.9729999899864197 46.64120101928711 L 0.9937000274658203 46.52510070800781 L 0.9991000294685364 46.45220184326172 L 1 46.43730163574219 L 0.9883000254631042 46.27349853515625 L 0.9882000088691711 46.27040100097656 L 0.987941324710846 46.26847839355469 L 0.9861000180244446 46.254798889160156 L 0.9563999772071838 46.1260986328125 L 0.9534000158309937 46.1150016784668 L 0.9523000121116638 46.11199951171875 L 0.9394515156745911 46.08000183105469 L 0.9046000242233276 45.99319839477539 L 0.8999999761581421 45.98270034790039 L 0.8970000147819519 45.97719955444336 L 0.8952999711036682 45.9744987487793 L 0.8942000269889832 45.972801208496094 L 0.8930000066757202 45.97100067138672 L 0.8860272765159607 45.959774017333984 L 0.7868000268936157 45.79999923706055 L 0.7804206609725952 45.79204559326172 L 0.7782999873161316 45.789398193359375 L 0.7599999904632568 45.77149963378906 L 0.6136000156402588 45.628299713134766 L 0.6115000247955322 45.625999450683594 L 0.6059972643852234 45.62099075317383 L 0.6036999821662903 45.618900299072266 L 0.5978999733924866 45.614498138427734 L 0.5006999969482422 45.55329895019531 L 0.4936999976634979 45.54880142211914 L 0.48350000381469727 45.543399810791016 L 0.43164682388305664 45.51889419555664 L 0.3521000146865845 45.481300354003906 L 0.3382999897003174 45.47639846801758 L 0.11599999666213989 45.424198150634766 L 0.11400000005960464 45.42359924316406 L 0.11089999973773956 45.42290115356445 L 0.10779999941587448 45.422298431396484 L 0.09430000185966492 45.42060089111328 L 0 45.419490814208984 L -0.05869999900460243 45.418800354003906 L -0.06679999828338623 45.418800354003906 L -0.07819999754428864 45.4197998046875 L -0.1826000064611435 45.43330001831055 L -0.21950000524520874 45.44049835205078 L -0.23849999904632568 45.4453010559082 L -0.30239999294281006 45.46329879760742 L -0.3824999928474426 45.49209976196289 L -0.3984000086784363 45.4994010925293 L -0.4154999852180481 45.50659942626953 L -0.42476052045822144 45.51150131225586 L -0.5073000192642212 45.555198669433594 L -0.5177000164985657 45.56169891357422 L -0.5842999815940857 45.60490036010742 L -0.6473000049591064 45.65439987182617 L -0.659500002861023 45.665199279785156 L -0.7342000007629395 45.73720169067383 L -0.7423999905586243 45.746700286865234 L -0.8080999851226807 45.82680130004883 L -0.8116999864578247 45.83190155029297 L -0.8855000138282776 45.95249938964844 L -0.8924000263214111 45.96480178833008 L -0.9383000135421753 46.07279968261719 L -0.9411799907684326 46.08000183105469 L -0.9419000148773193 46.0817985534668 L -0.9452000260353088 46.09260177612305 L -0.9847999811172485 46.24290084838867 L -0.9861000180244446 46.24980163574219 L -0.9871000051498413 46.257301330566406 L -0.9997000098228455 46.38869857788086 L -0.9998000264167786 46.401798248291016 L -0.9980000257492065 46.4656982421875 L -0.9968000054359436 46.47740173339844 L -0.9860000014305115 46.58000183105469 L -0.9835000038146973 46.59120178222656 L -0.9574000239372253 46.70370101928711 L -0.9160000085830688 46.813499450683594 L -0.9158409237861633 46.81391525268555 L -0.9100000262260437 46.829200744628906 L -0.8217999935150146 46.982200622558594 M -2.4809999465942383 47.104000091552734 L -2.506366729736328 47.104000091552734 L -4.0960001945495605 47.104000091552734 L -2.4809999465942383 47.104000091552734 z" fill="none" stroke="rgb(0,0,255)" stroke-width="0.01mm" />
</svg>