<?xml version="1.0" standalone="no"?>
<!DOCTYPE svg PUBLIC "-//W3C//DTD SVG 1.1//EN"
  "http://www.w3.org/Graphics/SVG/1.1/DTD/svg11.dtd">
<svg width="102mm" height="30.38800048828125mm" viewBox="-51 -15.194000244140625 102 30.38800048828125" xmlns="http://www.w3.org/2000/svg" version="1.1">
	<title>svgOutput</title>
	<desc>made with tinkercad</desc>
<path d="M -50 14.194000244140625 L -50 -14.194000244140625 L -35.24065017700195 -14.194000244140625 L -32.768001556396484 -14.194000244140625 L -31.37700080871582 -14.194000244140625 L -32.768001556396484 -12.64942741394043 L -33.106998443603516 -12.27299976348877 L -32.768001556396484 -11.96778678894043 L -19.94312858581543 -0.42111566662788386 L -19.943017959594727 -0.4210153222084045 L -19.94300079345703 -0.4210000038146972 L -19.69409942626953 -0.6973999738693237 L -19.534019470214844 -0.8753378987312317 L -18.665943145751953 -1.839614748954773 L -16.907934188842773 -3.7921385765075684 L -16.843852996826172 -3.758112668991089 L -16.77371597290039 -3.7205755710601807 L -16.526357650756836 -3.5945281982421875 L -16.384000778198242 -3.522423028945923 L -16.052549362182617 -3.3545401096343994 L -16.03813934326172 -3.347240447998047 L -15.788229942321777 -3.2266576290130615 L -15.415072441101074 -3.0461184978485107 L -15.162978172302246 -2.930635690689087 L -14.726251602172852 -2.731025457382202 L -14.346101760864258 -2.5663788318634033 L -14.09145736694336 -2.45599627494812 L -14.087135314941406 -2.4542176723480225 L -13.584803581237793 -2.2474863529205322 L -13.327972412109375 -2.142568349838257 L -13.08133316040039 -2.0480000972747803 L -13.068592071533203 -2.04311466217041 L -12.543502807617188 -1.843504548072815 L -12.477508544921875 -1.8199353218078613 L -12.477200508117676 -1.8198251724243164 L -12.478510856628418 -1.8073774576187134 L -12.47851848602295 -1.8073036670684814 L -12.480688095092773 -1.7866909503936768 L -12.481581687927246 -1.778200387954712 L -12.483587265014648 -1.7591392993927002 L -12.668740272521973 4.440892164675075e-17 L -12.785515785217285 1.1094863414764404 L -12.863415718078613 1.8496540784835815 L -12.888072967529297 2.083933115005493 L -12.913100242614746 2.3220999240875244 L -12.95199966430664 2.691999912261963 L 0 4.053665637969971 L 4.663887023925781 4.543988227844238 L 4.664000034332275 4.544000148773193 L 4.702899932861328 4.173999786376953 L 4.735777378082275 3.8611018657684326 L 4.750082969665527 3.725217819213867 L 4.830484390258789 2.961486339569092 L 5.137423992156982 0.044611435383558315 L 5.138799667358398 0.031539160758256954 L 5.138936519622803 0.031520653516054195 L 5.208745002746582 0.02206739597022538 L 5.288843154907227 0.011260473169386432 L 5.290488243103027 0.01099802833050494 L 5.359408855438232 4.440892164675075e-17 L 5.562796115875244 -0.03245537355542179 L 6.103777885437012 -0.1195464506745338 L 6.377001762390137 -0.16872677206993097 L 6.784486293792725 -0.24183242022991175 L 6.795370578765869 -0.24403312802314753 L 7.190063953399658 -0.3238378763198852 L 7.462194919586182 -0.378482699394226 L 7.482150554656982 -0.3828961551189422 L 7.996819496154785 -0.4967231452465057 L 8.192000389099121 -0.5403300523757935 L 8.26749324798584 -0.5571967363357544 L 8.53707504272461 -0.6234990954399109 L 9.068520545959473 -0.755089282989502 L 9.336645126342773 -0.8268560767173767 L 9.73650074005127 -0.9342896342277527 L 9.814692497253418 -0.9565391540527344 L 9.882452011108398 -0.9762113094329834 L 9.883805274963379 -0.9738673567771912 L 9.88408374786377 -0.973385214805603 L 9.892346382141113 -0.9590746164321899 L 9.914426803588867 -0.9208312034606934 L 10.446090698242188 4.440892164675075e-17 L 11.355371475219727 1.5748579502105713 L 11.807613372802734 2.3582231998443604 L 11.96500015258789 2.6308000087738037 L 12.151000022888184 2.953000068664551 L 16.384000778198242 0.5087936520576477 L 17.265153884887695 4.440892164675075e-17 L 24.576000213623047 -4.221406936645508 L 27.489686965942383 -5.903819561004639 L 27.489999771118164 -5.9039998054504395 L 27.304000854492188 -6.226200103759766 L 27.184368133544922 -6.433527946472168 L 27.016204833984375 -6.724736213684082 L 26.53545379638672 -7.557246685028076 L 26.16912269592285 -8.192000389099121 L 25.957033157348633 -8.559494972229004 L 25.24081039428711 -9.800514221191406 L 25.22492790222168 -9.828032493591309 L 25.2220516204834 -9.833017349243164 L 25.2225399017334 -9.833483695983887 L 25.27422523498535 -9.882922172546387 L 25.331573486328125 -9.937969207763672 L 25.633604049682617 -10.239999771118164 L 25.671674728393555 -10.278069496154785 L 25.868030548095703 -10.474061965942383 L 25.876379013061523 -10.482773780822754 L 26.060016632080078 -10.674426078796387 L 26.4376220703125 -11.070467948913574 L 26.625600814819336 -11.274839401245117 L 26.90594482421875 -11.579976081848145 L 27.223796844482422 -11.94041919708252 L 27.40740203857422 -12.148433685302734 L 27.411359786987305 -12.153117179870605 L 27.525346755981445 -12.288000106811523 L 27.674396514892578 -12.464377403259277 L 27.853267669677734 -12.676399230957031 L 28.19908905029297 -13.10104751586914 L 28.373952865600586 -13.316712379455566 L 28.423538208007812 -13.380918502807617 L 28.466524124145508 -13.43665599822998 L 28.46996307373047 -13.435125350952148 L 28.470836639404297 -13.434737205505371 L 28.672000885009766 -13.34522533416748 L 31.158082962036133 -12.238994598388672 L 31.984704971313477 -11.871191024780273 L 32.272098541259766 -11.743300437927246 L 32.32453155517578 -11.719962120056152 L 32.61199951171875 -11.592000007629395 L 32.768001556396484 -11.94252872467041 L 33.77000045776367 -14.194000244140625 L 50 -14.194000244140625 L 50 14.194000244140625 L 32.768001556396484 14.194000244140625 L 16.384000778198242 14.194000244140625 L 8.192000389099121 14.194000244140625 L 3.6479830741882324 14.194000244140625 L 0 14.194000244140625 L -16.384000778198242 14.194000244140625 L -32.768001556396484 14.194000244140625 L -50 14.194000244140625 z" fill="none" stroke="rgb(0,0,255)" stroke-width="0.01mm" />
</svg>