<?xml version="1.0" standalone="no"?>
<!DOCTYPE svg PUBLIC "-//W3C//DTD SVG 1.1//EN"
  "http://www.w3.org/Graphics/SVG/1.1/DTD/svg11.dtd">
<svg width="102mm" height="66.302001953125mm" viewBox="-51 -33.1510009765625 102 66.302001953125" xmlns="http://www.w3.org/2000/svg" version="1.1">
	<title>svgOutput</title>
	<desc>made with tinkercad</desc>
<path d="M 19.84151268005371 16.265125274658203 L 19.84583282470703 16.269296646118164 L 19.964603424072266 16.384000778198242 L 20.479999542236328 16.881750106811523 L 22.678510665893555 19.004987716674805 L 23.753368377685547 20.042600631713867 L 24.01810073852539 20.29840087890625 L 24.20619773864746 20.479999542236328 L 24.461000442504883 20.72599983215332 L 24.576000213623047 20.606914520263672 L 28.654020309448242 16.384000778198242 L 32.768001556396484 12.123849868774414 L 39.405948638916016 5.250052452087402 L 39.40599822998047 5.25 L 38.96310043334961 4.822400093078613 L 38.698211669921875 4.566601276397705 L 37.33376693725586 3.2495484352111816 L 34.785282135009766 0.7893792390823364 L 34.816646575927734 0.7250314950942993 L 34.972537994384766 0.43431943655014044 L 35.141910552978516 0.10231786221265797 L 35.195430755615234 4.440892164675075e-17 L 35.25480270385742 -0.11350338906049724 L 35.35024642944336 -0.3011015653610229 L 35.51322937011719 -0.6374446749687195 L 35.761165618896484 -1.155259609222412 L 35.91646957397461 -1.4947630167007446 L 36.079933166503906 -1.8551490306854248 L 36.10424041748047 -1.9123307466506958 L 36.17277145385742 -1.9027043581008911 L 36.18949508666992 -1.900355339050293 L 40.00969314575195 -1.3637471199035645 L 41.488807678222656 -1.1559001207351685 L 41.85340118408203 -1.104599952697754 L 42.4630012512207 -1.0190000534057617 L 44.622352600097656 -16.384000778198242 L 45.45698928833008 -22.322933197021484 L 45.457000732421875 -22.322999954223633 L 44.8474006652832 -22.408700942993164 L 44.48280715942383 -22.45989990234375 L 42.605079650878906 -22.72390365600586 L 40.959999084472656 -22.955202102661133 L 40.72382354736328 -22.9884090423584 L 39.10301971435547 -23.21629524230957 L 39.09776306152344 -23.21703338623047 L 39.08534622192383 -23.287460327148438 L 39.076236724853516 -23.354124069213867 L 39.04068374633789 -23.61440658569336 L 38.99012756347656 -23.933767318725586 L 38.951805114746094 -24.191709518432617 L 38.91341018676758 -24.43086814880371 L 38.887359619140625 -24.576000213623047 L 38.85197448730469 -24.77315330505371 L 38.78606033325195 -25.140647888183594 L 38.78559875488281 -25.142946243286133 L 38.664283752441406 -25.7506160736084 L 38.59024429321289 -26.116756439208984 L 38.576698303222656 -26.177703857421875 L 38.580814361572266 -26.17989158630371 L 38.58119201660156 -26.18009376525879 L 40.959999084472656 -27.44503402709961 L 41.70333480834961 -27.840307235717773 L 43.31485366821289 -28.696882247924805 L 43.70249938964844 -28.902999877929688 L 44.24599838256836 -29.191999435424805 L 42.67300033569336 -32.1510009765625 L 49.152000427246094 -32.1510009765625 L 50 -32.1510009765625 L 50 -16.384000778198242 L 50 4.440892164675075e-17 L 50 15.475831031799316 L 50 15.47803020477295 L 50 15.480545043945312 L 50 32.1510009765625 L 32.768001556396484 32.1510009765625 L 24.576000213623047 32.1510009765625 L 16.384000778198242 32.1510009765625 L 0 32.1510009765625 L -2.1067440509796143 32.1510009765625 L -2.1071345806121826 32.1510009765625 L -8.192000389099121 32.1510009765625 L -16.384000778198242 32.1510009765625 L -32.768001556396484 32.1510009765625 L -50 32.1510009765625 L -50 20.92039680480957 L -50 4.440892164675075e-17 L -50 -16.384000778198242 L -50 -32.1510009765625 L -42.819000244140625 -32.1510009765625 L -45.03424072265625 -16.384000778198242 L -45.457000732421875 -13.375 L -44.8474006652832 -13.289299964904785 L -44.48280715942383 -13.238100051879883 L -42.605079650878906 -12.97409725189209 L -40.959999084472656 -12.7427978515625 L -40.72382354736328 -12.709590911865234 L -39.126304626464844 -12.484979629516602 L -39.10301971435547 -12.481705665588379 L -39.09776306152344 -12.480966567993164 L -39.08534622192383 -12.410539627075195 L -39.06856155395508 -12.288000106811523 L -39.04068374633789 -12.084436416625977 L -38.99012756347656 -11.76423168182373 L -38.951805114746094 -11.506742477416992 L -38.91341018676758 -11.267581939697266 L -38.899269104003906 -11.188801765441895 L -38.85197448730469 -10.925297737121582 L -38.78606033325195 -10.557352066040039 L -38.78479766845703 -10.551033973693848 L -38.664283752441406 -9.947383880615234 L -38.59024429321289 -9.581243515014648 L -38.576698303222656 -9.520747184753418 L -38.58102035522461 -9.518449783325195 L -38.583465576171875 -9.517148971557617 L -38.66083908081055 -9.476005554199219 L -38.6889533996582 -9.461055755615234 L -38.71023941040039 -9.449737548828125 L -40.959999084472656 -8.253417015075684 L -41.075496673583984 -8.192000389099121 L -41.70333480834961 -7.858144283294678 L -43.31485366821289 -7.001117706298828 L -43.70249938964844 -6.795000076293945 L -44.24599838256836 -6.50600004196167 L -40.78681945800781 4.440892164675075e-17 L -34.14602279663086 12.489957809448242 L -34.145999908447266 12.489999771118164 L -33.60240173339844 12.200900077819824 L -33.27723693847656 12.02800178527832 L -32.768001556396484 11.75727367401123 L -31.60288429260254 11.137855529785156 L -28.672000885009766 9.579377174377441 L -28.47515106201172 9.47470474243164 L -28.346031188964844 9.609241485595703 L -28.197927474975586 9.763927459716797 L -28.189151763916016 9.772704124450684 L -27.72185516357422 10.239999771118164 L -27.613475799560547 10.348379135131836 L -27.343950271606445 10.607069969177246 L -26.939132690429688 10.99213981628418 L -26.6641902923584 11.244961738586426 L -26.51116371154785 11.382913589477539 L -26.3448429107666 11.536028861999512 L -26.313434600830078 11.56351089477539 L -26.31391716003418 11.564499855041504 L -26.314355850219727 11.565401077270508 L -26.341276168823242 11.620580673217773 L -26.6668758392334 12.288000106811523 L -27.323854446411133 13.634678840637207 L -28.665090560913086 16.384000778198242 L -28.69768524169922 16.450815200805664 L -28.859100341796875 16.781700134277344 L -29.128999710083008 17.334999084472656 L -16.384000778198242 23.55096435546875 L -9.792173385620117 26.765914916992188 L -9.791999816894531 26.766000747680664 L -9.522100448608398 26.212600708007812 L -9.360686302185059 25.881656646728516 L -9.329643249511719 25.817989349365234 L -8.92366886138916 24.98534393310547 L -8.192000389099121 23.485305786132812 L -7.8830952644348145 22.85200309753418 L -7.725057601928711 22.527999877929688 L -6.977575778961182 20.99554443359375 L -6.975976467132568 20.992265701293945 L -6.975940704345703 20.992271423339844 L -6.793054103851318 21.026559829711914 L -6.342708587646484 21.102256774902344 L -6.144000053405762 21.13383674621582 L -5.9734086990356445 21.160947799682617 L -5.660745143890381 21.208669662475586 L -5.2909932136535645 21.259235382080078 L -4.94651460647583 21.306407928466797 L -4.943415641784668 21.306766510009766 L -4.575408458709717 21.34929847717285 L -4.125814437866211 21.400836944580078 L -4.125611782073975 21.400859832763672 L -4.0960001945495605 21.403667449951172 L -4.061982154846191 21.40689468383789 L -4.000362873077393 21.41274070739746 L -4.000131130218506 21.412763595581055 L -3.510146379470825 24.192256927490234 L -3.442497968673706 24.576000213623047 L -3.385225772857666 24.900882720947266 L -3.0681650638580322 26.698280334472656 L -2.9918999671936035 27.130699157714844 L -2.884999990463257 27.73699951171875 L 0 27.228275299072266 L 16.384000778198242 24.339210510253906 L 18.301774978637695 24.001039505004883 L 18.302000045776367 24.000999450683594 L 18.195100784301758 23.394699096679688 L 18.13111114501953 23.031999588012695 L 17.958162307739258 22.049985885620117 L 17.681440353393555 20.479999542236328 L 17.320463180541992 18.43199920654297 L 17.186927795410156 17.67438507080078 L 17.1875 17.674114227294922 L 17.354814529418945 17.594499588012695 L 17.64169692993164 17.45352554321289 L 17.97488021850586 17.284225463867188 L 18.282228469848633 17.127559661865234 L 18.284801483154297 17.12624740600586 L 18.43199920654297 17.047264099121094 L 18.57716941833496 16.96936798095703 L 18.906288146972656 16.792844772338867 L 19.463048934936523 16.480730056762695 L 19.6344051361084 16.384000778198242 L 19.788557052612305 16.296981811523438 L 19.84151268005371 16.265125274658203 z" fill="none" stroke="rgb(0,0,255)" stroke-width="0.01mm" />
</svg>