<?xml version="1.0" standalone="no"?>
<!DOCTYPE svg PUBLIC "-//W3C//DTD SVG 1.1//EN"
  "http://www.w3.org/Graphics/SVG/1.1/DTD/svg11.dtd">
<svg width="102mm" height="43.257999420166016mm" viewBox="-51 -21.628999710083008 102 43.257999420166016" xmlns="http://www.w3.org/2000/svg" version="1.1">
	<title>svgOutput</title>
	<desc>made with tinkercad</desc>
<path d="M 0.35906949639320374 8.286776542663574 L 0.37209999561309814 8.334500312805176 L 2.0920000076293945 14.333000183105469 L 2.092482566833496 14.33286190032959 L 2.092733860015869 14.332789421081543 L 16.384000778198242 10.234967231750488 L 21.384010314941406 8.801283836364746 L 21.385000228881836 8.800999641418457 L 21.210412979125977 8.192000389099121 L 20.036176681518555 4.0960001945495605 L 19.66510009765625 2.8015999794006348 L 19.65116310119629 2.7547764778137207 L 19.46341896057129 2.0999183654785156 L 19.45209312438965 2.060417890548706 L 19.45185661315918 2.059593439102173 L 19.44959259033203 2.05169677734375 L 19.719715118408203 1.8840279579162598 L 19.731966018676758 1.876352310180664 L 19.764881134033203 1.8559925556182861 L 19.802078247070312 1.832984447479248 L 19.80485725402832 1.8311787843704224 L 19.826244354248047 1.8172852993011475 L 19.95747947692871 1.7320337295532227 L 20.451631546020508 1.4109481573104858 L 20.479999542236328 1.3916794061660767 L 20.60486602783203 1.3068653345108032 L 21.00918960571289 1.0318495035171509 L 21.08104133605957 0.9829766154289246 L 21.091426849365234 0.9759119153022766 L 21.24249267578125 0.8684559464454651 L 21.72298240661621 0.5276347398757935 L 21.7850341796875 0.48152691125869757 L 21.832286834716797 0.44641450047492987 L 21.848783493041992 0.4340024590492249 L 21.850330352783203 0.4352108240127564 L 21.851734161376953 0.43630790710449224 L 21.86709976196289 0.4483098983764649 L 21.867692947387695 0.4487732946872712 L 21.890541076660156 0.4666211605072022 L 22.425107955932617 0.8841903209686279 L 22.46339988708496 0.9139999747276306 L 22.7564640045166 1.1430227756500244 L 24.576000213623047 2.5649521350860596 L 27.381000518798828 4.756999969482422 L 27.381772994995117 4.756011009216309 L 27.388120651245117 4.747886657714844 L 31.097631454467773 4.440892164675075e-17 L 32.768001556396484 -2.137941598892212 L 39.73634719848633 -11.056883811950684 L 39.73782730102539 -11.058780670166016 L 39.737998962402344 -11.059000015258789 L 34.78120422363281 -14.931809425354004 L 34.25196838378906 -15.345345497131348 L 34.20491027832031 -15.38211441040039 L 34.20848846435547 -15.390897750854492 L 34.33015823364258 -15.689536094665527 L 34.361236572265625 -15.765912055969238 L 34.57225799560547 -16.31547737121582 L 34.59859848022461 -16.384000778198242 L 34.638755798339844 -16.488466262817383 L 34.639835357666016 -16.491470336914062 L 34.70140075683594 -16.662660598754883 L 34.816001892089844 -16.980754852294922 L 34.90103530883789 -17.216779708862305 L 34.960304260253906 -17.392419815063477 L 35.14779281616211 -17.950334548950195 L 35.194053649902344 -18.097013473510742 L 35.19497299194336 -18.100038528442383 L 35.19507598876953 -18.10036849975586 L 35.20930099487305 -18.099872589111328 L 35.22377395629883 -18.099369049072266 L 35.301971435546875 -18.096643447875977 L 35.974998474121094 -18.072799682617188 L 36.86399841308594 -18.04175567626953 L 40.959999084472656 -17.898719787597656 L 42.21200180053711 -17.854999542236328 L 42.212032318115234 -17.85589027404785 L 42.21299743652344 -17.88382339477539 L 42.30799865722656 -20.628999710083008 L 49.152000427246094 -20.628999710083008 L 50 -20.628999710083008 L 50 -16.384000778198242 L 50 -3.0553157329559326 L 50 -3.0411674976348877 L 50 -3.0400807857513428 L 50 -3.0377299785614014 L 50 4.440892164675075e-17 L 50 20.628999710083008 L 32.768001556396484 20.628999710083008 L 16.384000778198242 20.628999710083008 L 3.898017168045044 20.628999710083008 L 3.897585868835449 20.628999710083008 L 3.8971996307373047 20.628999710083008 L 0 20.628999710083008 L -16.384000778198242 20.628999710083008 L -28.862642288208008 20.628999710083008 L -28.877578735351562 20.628999710083008 L -32.768001556396484 20.628999710083008 L -50 20.628999710083008 L -50 4.440892164675075e-17 L -50 -16.384000778198242 L -50 -20.628999710083008 L -49.152000427246094 -20.628999710083008 L -40.959999084472656 -20.628999710083008 L -37.21799850463867 -20.628999710083008 L -36.86399841308594 -20.616743087768555 L -36.09231948852539 -20.59002685546875 L -35.946678161621094 -20.58492660522461 L -35.894805908203125 -20.58310890197754 L -35.869327545166016 -20.479999542236328 L -35.82006072998047 -20.280630111694336 L -35.81867599487305 -20.275035858154297 L -35.81510543823242 -20.26050567626953 L -35.795345306396484 -20.180274963378906 L -35.74740219116211 -20.001502990722656 L -35.59558868408203 -19.432201385498047 L -35.5844612121582 -19.393962860107422 L -35.54378890991211 -19.254152297973633 L -35.37907028198242 -18.689407348632812 L -35.32389450073242 -18.51280403137207 L -35.29849624633789 -18.43199920654297 L -35.15033721923828 -17.96064567565918 L -35.14735794067383 -17.95095443725586 L -35.1461067199707 -17.947187423706055 L -35.1048583984375 -17.82271957397461 L -35.09773635864258 -17.80160140991211 L -35.09783935546875 -17.801530838012695 L -35.101016998291016 -17.799388885498047 L -35.74480056762695 -17.36520004272461 L -36.86399841308594 -16.610109329223633 L -37.19914245605469 -16.384000778198242 L -39.61421585083008 -14.754624366760254 L -40.917999267578125 -13.875 L -40.9171028137207 -13.873672485351562 L -40.87248229980469 -13.807509422302246 L -38.10300064086914 -9.701000213623047 L -32.768001556396484 -1.7924082279205322 L -31.55887222290039 4.440892164675075e-17 L -29.69499969482422 2.763000011444092 L -25.59789276123047 4.440892164675075e-17 L -24.576000213623047 -0.6891417503356934 L -24.52090072631836 -0.7263000011444092 L -23.873735427856445 -1.1628549098968506 L -23.873655319213867 -1.1627874374389648 L -23.620250701904297 -0.9484792947769165 L -23.557126998901367 -0.895233154296875 L -23.099409103393555 -0.5248082876205444 L -22.955331802368164 -0.4081968963146209 L -22.95499038696289 -0.40793186426162714 L -22.527999877929688 -0.07637006789445873 L -22.490022659301758 -0.04688083007931705 L -22.42960548400879 4.440892164675075e-17 L -22.34377670288086 0.06659844517707829 L -21.87163734436035 0.4172875583171845 L -21.72298240661621 0.5276347398757935 L -21.611398696899414 0.6065776944160461 L -21.59435272216797 0.6185553669929504 L -21.594249725341797 0.6186276078224182 L -21.600385665893555 0.6354864835739136 L -21.612756729125977 0.6694736480712891 L -21.844337463378906 1.3057280778884888 L -21.8612003326416 1.3516000509262085 L -23.996000289916992 7.216000080108643 L -23.9955997467041 7.216145992279053 L -23.986473083496094 7.219467639923096 L -16.384000778198242 9.986751556396484 L -5.136115074157715 14.080958366394043 L -5.136000156402588 14.081000328063965 L -3.001199960708618 8.215700149536133 L -2.9925754070281982 8.192000389099121 L -2.7547831535339355 7.538557529449463 L -2.7424428462982178 7.504647254943848 L -2.737549304962158 7.491199970245361 L -2.737358331680298 7.49067497253418 L -2.733936071395874 7.481270790100098 L -2.6472060680389404 7.488427639007568 L -2.3276596069335938 7.5123772621154785 L -2.320181369781494 7.512938022613525 L -2.1351451873779297 7.5225749015808105 L -2.0480000972747803 7.527191162109375 L -1.5476269721984863 7.553697109222412 L -0.9593497514724731 7.5719146728515625 L -0.7743134498596191 7.577696800231934 L -0.7717737555503845 7.577723503112793 L -0.5890362858772278 7.579624176025391 L 9.4248159606948e-16 7.585696697235107 L 0.13663212954998016 7.584178924560547 L 0.15685950219631195 7.583805084228516 L 0.15752404928207397 7.583792686462402 L 0.35906949639320374 8.286776542663574 z" fill="none" stroke="rgb(0,0,255)" stroke-width="0.01mm" />
</svg>