<?xml version="1.0" standalone="no"?>
<!DOCTYPE svg PUBLIC "-//W3C//DTD SVG 1.1//EN"
  "http://www.w3.org/Graphics/SVG/1.1/DTD/svg11.dtd">
<svg width="102mm" height="34.928001403808594mm" viewBox="-51 -17.464000701904297 102 34.928001403808594" xmlns="http://www.w3.org/2000/svg" version="1.1">
	<title>svgOutput</title>
	<desc>made with tinkercad</desc>
<path d="M -50 16.464000701904297 L -50 -16.464000701904297 L -39.85499954223633 -16.464000701904297 L -38.10300064086914 -13.866999626159668 L -32.768001556396484 -5.957773685455322 L -29.69588851928711 -1.403317928314209 L -29.69499969482422 -1.4019999504089355 L -24.576000213623047 -4.855312347412109 L -24.03040313720703 -5.223376274108887 L -23.064661026000977 -5.874545574188232 L -23.056833267211914 -5.873125076293945 L -22.95549964904785 -5.787624835968018 L -22.527999877929688 -5.441553592681885 L -22.489999771118164 -5.410791873931885 L -22.371625900268555 -5.3096842765808105 L -22.217897415161133 -5.190518379211426 L -22.12692642211914 -5.119999885559082 L -21.831632614135742 -4.891098499298096 L -21.801292419433594 -4.867578983306885 L -21.771923065185547 -4.84492826461792 L -21.38495635986328 -4.558550834655762 L -21.259965896606445 -4.46549654006958 L -21.25994110107422 -4.465478420257568 L -21.260456085205078 -4.46406364440918 L -21.260473251342773 -4.464020729064941 L -21.39444351196289 -4.0960001945495605 L -21.65888786315918 -3.3695693016052246 L -22.88542366027832 4.440892164675075e-17 L -23.996000289916992 3.0510001182556152 L -23.995670318603516 3.0511202812194824 L -23.995615005493164 3.051140069961548 L -16.384000778198242 5.821348190307617 L -9.870233535766602 8.192000389099121 L -5.136000156402588 9.914999961853027 L -4.50890588760376 8.192000389099121 L -3.0181474685668945 4.0960001945495605 L -2.798888683319092 3.493565797805786 L -2.402052879333496 2.4033801555633545 L -2.4005072116851807 2.3991339206695557 L -2.3931667804718018 2.39579176902771 L -2.260958433151245 2.406083345413208 L -2.0954999923706055 2.4147915840148926 L -2.0480000972747803 2.417590618133545 L -1.5477575063705444 2.4470672607421875 L -1.531684160232544 2.448014259338379 L -1.5081722736358643 2.4492201805114746 L -0.7866411209106445 2.4712295532226562 L -0.7540861368179321 2.4722630977630615 L -0.14068900048732758 2.478961706161499 L -0.11234810203313828 2.479257345199585 L -0.11215965449810028 2.4792592525482178 L -0.11179425567388535 2.4792630672454834 L -0.11179020255804062 2.4792773723602295 L -1.375149387188986e-16 2.869676351547241 L 0.20899054408073425 3.5995233058929443 L 0.3513173460960388 4.0960001945495605 L 1.525532841682434 8.192000389099121 L 2.0920000076293945 10.168000221252441 L 2.092935800552368 10.167731285095215 L 8.983353614807129 8.192000389099121 L 16.384000778198242 6.069967269897461 L 21.385000228881836 4.636000156402588 L 20.056156158447266 4.440892164675075e-17 L 19.501991271972656 -1.9333416223526 L 19.469100952148438 -2.0480000972747803 L 19.181636810302734 -3.050177574157715 L 19.18094253540039 -3.0525951385498047 L 19.180593490600586 -3.0538148880004883 L 19.210338592529297 -3.072000026702881 L 19.293167114257812 -3.122636318206787 L 19.299240112304688 -3.1264257431030273 L 19.322751998901367 -3.141669750213623 L 19.45599937438965 -3.2283236980438232 L 19.927536010742188 -3.534971237182617 L 19.958282470703125 -3.5557703971862793 L 20.479999542236328 -3.910270929336548 L 20.55541229248047 -3.9615118503570557 L 20.57896614074707 -3.9782631397247314 L 20.744104385375977 -4.0960001945495605 L 21.07769203186035 -4.333835601806641 L 21.077739715576172 -4.333869457244873 L 21.078344345092773 -4.333396911621094 L 21.142759323120117 -4.283085346221924 L 21.382286071777344 -4.0960001945495605 L 21.99664878845215 -3.6161465644836426 L 24.576000213623047 -1.600730061531067 L 26.624631881713867 4.440892164675075e-17 L 26.882484436035156 0.2014771699905396 L 27.381000518798828 0.5910000205039978 L 27.842775344848633 4.440892164675075e-17 L 32.768001556396484 -6.3035054206848145 L 39.737998962402344 -15.223999977111816 L 38.152000427246094 -16.464000701904297 L 50 -16.464000701904297 L 50 -7.200746536254883 L 50 16.464000701904297 L 32.768001556396484 16.464000701904297 L 16.384000778198242 16.464000701904297 L 0 16.464000701904297 L -16.384000778198242 16.464000701904297 L -28.877355575561523 16.464000701904297 L -32.768001556396484 16.464000701904297 L -50 16.464000701904297 z" fill="none" stroke="rgb(0,0,255)" stroke-width="0.01mm" />
</svg>