<?xml version="1.0" standalone="no"?>
<!DOCTYPE svg PUBLIC "-//W3C//DTD SVG 1.1//EN"
  "http://www.w3.org/Graphics/SVG/1.1/DTD/svg11.dtd">
<svg width="102mm" height="81.10399627685547mm" viewBox="-51 -40.551998138427734 102 81.10399627685547" xmlns="http://www.w3.org/2000/svg" version="1.1">
	<title>svgOutput</title>
	<desc>made with tinkercad</desc>
<path d="M -36.23114776611328 -26.402671813964844 L -36.3337516784668 -26.41710662841797 L -39.83412551879883 -26.90957260131836 L -40.959999084472656 -27.06777000427246 L -41.52859115600586 -27.147663116455078 L -41.862300872802734 -27.194499969482422 L -42.19736862182617 -27.241634368896484 L -42.4630012512207 -27.27899932861328 L -42.84285354614258 -24.576000213623047 L -43.99407958984375 -16.384000778198242 L -45.145301818847656 -8.192000389099121 L -45.45699691772461 -5.974024295806885 L -45.45699691772461 -5.974012851715088 L -45.457000732421875 -5.973999977111816 L -44.63351058959961 -5.858317852020264 L -43.992637634277344 -5.768279075622559 L -42.828125 -5.6045732498168945 L -40.959999084472656 -5.342087268829346 L -39.26899337768555 -5.104487895965576 L -39.22457504272461 -5.098246097564697 L -39.143470764160156 -4.561091423034668 L -39.1100959777832 -4.316558361053467 L -39.07504653930664 -4.0960001945495605 L -39.039005279541016 -3.8692307472229004 L -39.035301208496094 -3.8459043502807617 L -38.972877502441406 -3.4989829063415527 L -38.870853424072266 -2.9434404373168945 L -38.868160247802734 -2.9287898540496826 L -38.79852294921875 -2.583566904067993 L -38.76781463623047 -2.4404122829437256 L -38.68980407714844 -2.0595669746398926 L -38.692527770996094 -2.0581185817718506 L -38.71677780151367 -2.045222043991089 L -38.717288970947266 -2.044950485229492 L -38.738502502441406 -2.033670663833618 L -38.738563537597656 -2.0336380004882812 L -40.959999084472656 -0.8522928357124329 L -41.39496994018555 -0.620979368686676 L -42.56279754638672 4.440892164675075e-17 L -43.412818908691406 0.451989233493805 L -43.71039962768555 0.6101999878883362 L -44.24599838256836 0.8949999809265137 L -34.1460075378418 19.8909854888916 L -34.145999908447266 19.891000747680664 L -33.41171646118164 19.500503540039062 L -32.768001556396484 19.15818977355957 L -31.801626205444336 18.644290924072266 L -28.672000885009766 16.97971534729004 L -28.603818893432617 16.943450927734375 L -28.593887329101562 16.938169479370117 L -28.58913803100586 16.93564224243164 L -28.5887508392334 16.93543815612793 L -28.58855438232422 16.935644149780273 L -28.457117080688477 17.073442459106445 L -28.286231994628906 17.251806259155273 L -27.949064254760742 17.588973999023438 L -27.699806213378906 17.837806701660156 L -27.453548431396484 18.07370948791504 L -27.199195861816406 18.31787109375 L -27.18520164489746 18.33077049255371 L -27.075382232666016 18.43199920654297 L -26.68423843383789 18.792552947998047 L -26.424789428710938 19.031192779541016 L -26.36958885192871 19.079601287841797 L -27.05278778076172 20.479999542236328 L -27.9650936126709 22.350011825561523 L -28.479448318481445 23.404417037963867 L -28.680660247802734 23.816896438598633 L -28.863000869750977 24.19070053100586 L -29.05095100402832 24.576000213623047 L -29.128999710083008 24.736000061035156 L -16.384000778198242 30.951963424682617 L -12.66046142578125 32.768001556396484 L -9.792145729064941 34.166927337646484 L -9.791999816894531 34.16699981689453 L -9.427437782287598 33.4195442199707 L -9.109748840332031 32.768001556396484 L -9.017284393310547 32.578365325927734 L -8.192000389099121 30.88642692565918 L -7.111858367919922 28.672000885009766 L -7.032068252563477 28.508420944213867 L -6.844902515411377 28.54357147216797 L -6.602095603942871 28.587299346923828 L -6.233282566070557 28.645986557006836 L -6.069201946258545 28.672000885009766 L -5.895603179931641 28.699522018432617 L -5.885087013244629 28.701189041137695 L -5.5360426902771 28.748746871948242 L -4.859405517578125 28.84138298034668 L -4.509087085723877 28.88214683532715 L -4.0960001945495605 28.92827606201172 L -4.050516128540039 28.9333553314209 L -3.9779903888702393 28.939287185668945 L -3.9776008129119873 28.941497802734375 L -3.972623348236084 28.969730377197266 L -3.3031117916107178 32.76728820800781 L -3.302985906600952 32.768001556396484 L -3.0489017963409424 34.20866012573242 L -2.990299940109253 34.54050064086914 L -2.8886120319366455 35.11750411987305 L -2.884999990463257 35.13800048828125 L -2.8849973678588867 35.13800048828125 L -3.190826644789216e-14 34.629276275634766 L 10.5553617477417 32.768001556396484 L 16.384000778198242 31.740209579467773 L 18.301788330078125 31.402036666870117 L 18.302000045776367 31.402000427246094 L 18.157669067382812 30.582990646362305 L 17.840852737426758 28.787137985229492 L 17.210250854492188 25.209699630737305 L 17.210092544555664 25.20880889892578 L 17.20952606201172 25.205585479736328 L 17.209095001220703 25.203147888183594 L 17.209556579589844 25.202926635742188 L 17.209657669067383 25.202878952026367 L 17.38106918334961 25.120346069335938 L 17.8442440032959 24.89019775390625 L 18.158044815063477 24.730112075805664 L 18.432497024536133 24.587995529174805 L 18.454896926879883 24.576000213623047 L 18.743324279785156 24.421541213989258 L 19.190387725830078 24.178159713745117 L 19.497394561767578 24.004911422729492 L 19.870811462402344 23.792598724365234 L 19.933792114257812 23.755401611328125 L 19.934080123901367 23.755231857299805 L 20.783994674682617 24.576000213623047 L 22.55144500732422 26.282838821411133 L 23.7023983001709 27.394474029541016 L 23.782197952270508 27.471546173095703 L 24.024599075317383 27.70560073852539 L 24.461000442504883 28.12700080871582 L 24.46104621887207 28.126953125 L 27.890161514282227 24.576000213623047 L 32.768001556396484 19.524850845336914 L 35.801082611083984 16.384000778198242 L 39.40599822998047 12.651000022888184 L 38.80776596069336 12.073403358459473 L 38.34211349487305 11.623825073242188 L 38.25932312011719 11.5438814163208 L 37.49602127075195 10.806838989257812 L 34.899837493896484 8.300238609313965 L 34.878082275390625 8.279231071472168 L 34.92334747314453 8.192000389099121 L 35.1281852722168 7.797277927398682 L 35.24498748779297 7.579787731170654 L 35.45698547363281 7.1636857986450195 L 35.45769500732422 7.162292957305908 L 35.461326599121094 7.155163288116455 L 35.62358093261719 6.818571090698242 L 35.775413513183594 6.503971099853516 L 35.77687072753906 6.500948905944824 L 36.05535125732422 5.893931865692139 L 36.202274322509766 5.5737624168396 L 36.23114776611328 5.506246089935303 L 36.23312759399414 5.506524562835693 L 36.23694610595703 5.507061004638672 L 36.240814208984375 5.507604598999023 L 36.24135208129883 5.507680416107178 L 39.83412551879883 6.0125732421875 L 40.959999084472656 6.170770645141602 L 41.52859115600586 6.250663757324219 L 41.80440902709961 6.289457321166992 L 41.862300872802734 6.297599792480469 L 42.4630012512207 6.381999969482422 L 43.35990524291992 4.440892164675075e-17 L 45.456993103027344 -14.921943664550781 L 45.457000732421875 -14.92199993133545 L 45.09116744995117 -14.973451614379883 L 44.63351058959961 -15.03781795501709 L 43.992637634277344 -15.127959251403809 L 43.770137786865234 -15.159192085266113 L 42.828125 -15.291426658630371 L 39.22457504272461 -15.79775333404541 L 39.224456787109375 -15.798523902893066 L 39.143470764160156 -16.334909439086914 L 39.13676834106445 -16.384000778198242 L 39.1100959777832 -16.57944107055664 L 39.037315368652344 -17.037981033325195 L 39.035301208496094 -17.050670623779297 L 38.972877502441406 -17.397592544555664 L 38.870880126953125 -17.952430725097656 L 38.868160247802734 -17.96721076965332 L 38.79852294921875 -18.31285858154297 L 38.76781463623047 -18.45558738708496 L 38.68980407714844 -18.83643341064453 L 38.69272232055664 -18.83798599243164 L 38.693023681640625 -18.838144302368164 L 38.76012420654297 -18.87382698059082 L 38.79448699951172 -18.89210319519043 L 41.39496994018555 -20.275020599365234 L 43.412818908691406 -21.347990036010742 L 43.71039962768555 -21.506200790405273 L 44.24599838256836 -21.791000366210938 L 38.40985107421875 -32.768001556396484 L 34.803001403808594 -39.551998138427734 L 50 -39.551998138427734 L 50 -32.768001556396484 L 50 -16.384000778198242 L 50 -14.284682273864746 L 50 -14.283722877502441 L 50 -14.283059120178223 L 50 -14.282988548278809 L 50 4.440892164675075e-17 L 50 16.384000778198242 L 50 32.768001556396484 L 50 39.551998138427734 L 32.768001556396484 39.551998138427734 L 0 39.551998138427734 L -2.106515407562256 39.551998138427734 L -2.1069629192352295 39.551998138427734 L -12.417573928833008 39.551998138427734 L -12.418471336364746 39.551998138427734 L -12.418848037719727 39.551998138427734 L -32.768001556396484 39.551998138427734 L -50 39.551998138427734 L -50 28.323583602905273 L -50 28.322233200073242 L -50 28.321821212768555 L -50 4.440892164675075e-17 L -50 -16.384000778198242 L -50 -32.768001556396484 L -50 -39.551998138427734 L -45.62325668334961 -39.551998138427734 L -45.623069763183594 -39.551998138427734 L -45.622379302978516 -39.551998138427734 L -33.606998443603516 -39.551998138427734 L -39.40594482421875 -33.54805374145508 L -39.40599822998047 -33.54800033569336 L -38.80776596069336 -32.97026824951172 L -38.59831619262695 -32.768001556396484 L -38.34211349487305 -32.52058792114258 L -38.21871566772461 -32.401405334472656 L -37.49602127075195 -31.703414916992188 L -34.88559341430664 -29.18248748779297 L -34.88212966918945 -29.17914390563965 L -34.878082275390625 -29.17523193359375 L -34.93280792236328 -29.069772720336914 L -35.1281852722168 -28.69327735900879 L -35.13961410522461 -28.672000885009766 L -35.172725677490234 -28.610342025756836 L -35.24498748779297 -28.475788116455078 L -35.32487487792969 -28.318984985351562 L -35.45698547363281 -28.0596866607666 L -35.461326599121094 -28.051162719726562 L -35.62358093261719 -27.714570999145508 L -35.77687072753906 -27.39737319946289 L -35.78446578979492 -27.38081932067871 L -36.05535125732422 -26.79035758972168 L -36.202274322509766 -26.469762802124023 L -36.23114776611328 -26.402671813964844 M 27.00201988220215 -39.39895248413086 L 26.835737228393555 -39.551998138427734 L 26.84451675415039 -39.551998138427734 L 26.845380783081055 -39.551998138427734 L 26.846359252929688 -39.551998138427734 L 26.84639549255371 -39.551998138427734 L 26.87799644470215 -39.551998138427734 L 31.822599411010742 -39.551998138427734 L 31.822999954223633 -39.551998138427734 L 31.40412712097168 -39.32918930053711 L 30.465038299560547 -38.83013153076172 L 28.69162940979004 -37.887142181396484 L 28.624786376953125 -37.85159683227539 L 28.622318267822266 -37.850284576416016 L 28.61565589904785 -37.846744537353516 L 28.594804763793945 -37.835655212402344 L 28.593873977661133 -37.83516311645508 L 28.5887508392334 -37.832435607910156 L 28.457117080688477 -37.97001647949219 L 28.286231994628906 -38.14780807495117 L 27.699806213378906 -38.734230041503906 L 27.35573387145996 -39.06391906738281 L 27.101381301879883 -39.307655334472656 L 27.10093116760254 -39.30807113647461 L 27.00201988220215 -39.39895248413086 z" fill="none" stroke="rgb(0,0,255)" stroke-width="0.01mm" />
</svg>