<?xml version="1.0" standalone="no"?>
<!DOCTYPE svg PUBLIC "-//W3C//DTD SVG 1.1//EN"
  "http://www.w3.org/Graphics/SVG/1.1/DTD/svg11.dtd">
<svg width="102mm" height="59.91999816894531mm" viewBox="-51 -29.959999084472656 102 59.91999816894531" xmlns="http://www.w3.org/2000/svg" version="1.1">
	<title>svgOutput</title>
	<desc>made with tinkercad</desc>
<path d="M -37.621337890625 -28.860549926757812 L -37.65978240966797 -28.672000885009766 L -37.71784591674805 -28.387229919433594 L -37.747615814208984 -28.240230560302734 L -37.7803840637207 -28.05722999572754 L -37.890384674072266 -27.448768615722656 L -37.89892578125 -27.395227432250977 L -37.91023254394531 -27.324384689331055 L -37.97996520996094 -26.8619384765625 L -38.016075134277344 -26.624000549316406 L -38.02541732788086 -26.562429428100586 L -38.02853775024414 -26.55866050720215 L -38.02939987182617 -26.557600021362305 L -38.0294189453125 -26.557598114013672 L -38.37580871582031 -26.508956909179688 L -38.9119987487793 -26.43379783630371 L -39.496177673339844 -26.351911544799805 L -40.959999084472656 -26.146142959594727 L -41.360965728759766 -26.089778900146484 L -42.77955627441406 -25.89036750793457 L -45.457000732421875 -25.513999938964844 L -44.17395782470703 -16.384000778198242 L -43.02273178100586 -8.192000389099121 L -42.463035583496094 -4.209263801574707 L -42.4630012512207 -4.209000110626221 L -40.959999084472656 -4.420248031616211 L -36.86399841308594 -4.995944023132324 L -36.50136947631836 -5.04691219329834 L -35.03592300415039 -5.253016948699951 L -35.03317642211914 -5.253403186798096 L -34.83353805541992 -4.814230918884277 L -34.816001892089844 -4.775841236114502 L -34.77123260498047 -4.6778459548950195 L -34.703155517578125 -4.5373077392578125 L -34.490108489990234 -4.0960001945495605 L -34.433921813964844 -3.9796154499053955 L -34.41187286376953 -3.9359843730926514 L -34.33654022216797 -3.7869231700897217 L -34.05577087402344 -3.2361538410186768 L -34.02192306518555 -3.1738462448120117 L -34.00946044921875 -3.1507692337036133 L -34.09099578857422 -3.072000026702881 L -34.816001892089844 -2.3715903759002686 L -35.07490158081055 -2.1214723587036133 L -35.1510009765625 -2.0480000972747803 L -36.86399841308594 -0.3941811323165893 L -37.27228546142578 4.440892164675075e-17 L -39.40599822998047 2.059999942779541 L -39.40464782714844 2.0614001750946045 L -32.768001556396484 8.933850288391113 L -25.57347297668457 16.384000778198242 L -24.576000213623047 17.416913986206055 L -24.461225509643555 17.5357666015625 L -24.461000442504883 17.535999298095703 L -23.268009185791016 16.384000778198242 L -20.479999542236328 13.691788673400879 L -20.129899978637695 13.353718757629395 L -19.06446075439453 12.324999809265137 L -19.064434051513672 12.325016021728516 L -18.93384552001953 12.398615837097168 L -18.526552200317383 12.627950668334961 L -18.513076782226562 12.635538101196289 L -18.43199920654297 12.678993225097656 L -17.96769142150879 12.92784595489502 L -17.80384635925293 13.015769004821777 L -17.691692352294922 13.072999954223633 L -17.408000946044922 13.215009689331055 L -17.273942947387695 13.28211498260498 L -17.21417236328125 13.312000274658203 L -17.003860473632812 13.417156219482422 L -17.002843856811523 13.417664527893066 L -17.000669479370117 13.422317504882812 L -17.000019073486328 13.423370361328125 L -17 13.423399925231934 L -17.000207901000977 13.424585342407227 L -17.06068992614746 13.767956733703613 L -17.16084861755371 14.336000442504883 L -17.257036209106445 14.881529808044434 L -17.52186393737793 16.384000778198242 L -18.243833541870117 20.479999542236328 L -18.302000045776367 20.809999465942383 L -18.30111312866211 20.810155868530273 L -16.384000778198242 21.148210525512695 L -8.192000389099121 22.592742919921875 L 0 24.037275314331055 L 2.884692430496216 24.54594612121582 L 2.884999990463257 24.54599952697754 L 3.4386441707611084 21.404970169067383 L 3.6016809940338135 20.479999542236328 L 3.9299635887145996 18.617528915405273 L 3.962700605392456 18.43199920654297 L 4.0960001945495605 17.676551818847656 L 4.143386363983154 17.408000946044922 L 4.184698104858398 17.173871994018555 L 4.184787750244141 17.17336654663086 L 4.187392234802246 17.158605575561523 L 4.1876444816589355 17.157176971435547 L 4.187800407409668 17.15715789794922 L 4.666999816894531 17.102922439575195 L 4.816076755523682 17.085615158081055 L 5.119999885559082 17.044050216674805 L 5.429153919219971 17.00177001953125 L 5.595991611480713 16.97837257385254 L 5.6430768966674805 16.971769332885742 L 6.144000053405762 16.892377853393555 L 6.254615306854248 16.874845504760742 L 6.408769130706787 16.850614547729492 L 6.434384822845459 16.84600067138672 L 6.503156661987305 16.833023071289062 L 6.503172397613525 16.833019256591797 L 6.5197272300720215 16.866958618164062 L 7.152900695800781 18.164966583251953 L 7.283163070678711 18.43199920654297 L 8.192000389099121 20.295074462890625 L 9.791999816894531 23.575000762939453 L 16.384000778198242 20.35996437072754 L 24.53618049621582 16.384000778198242 L 24.576000213623047 16.364580154418945 L 29.128999710083008 14.144000053405762 L 26.489900588989258 8.733159065246582 L 26.22580337524414 8.192000389099121 L 25.841066360473633 7.403641223907471 L 25.839670181274414 7.400778770446777 L 26.094099044799805 7.168000221252441 L 26.195999145507812 7.074769020080566 L 26.309730529785156 6.969388484954834 L 26.327999114990234 6.9524617195129395 L 26.624000549316406 6.66819953918457 L 26.774154663085938 6.52400016784668 L 26.886768341064453 6.415999889373779 L 27.15924835205078 6.144000053405762 L 27.230562210083008 6.072812080383301 L 27.324460983276367 5.979076862335205 L 27.45599937438965 5.847538471221924 L 27.474000930786133 5.828845977783203 L 27.522125244140625 5.777420520782471 L 27.5223445892334 5.777185440063477 L 28.211950302124023 6.144000053405762 L 28.672000885009766 6.388708591461182 L 28.830596923828125 6.473068714141846 L 32.06380081176758 8.192000389099121 L 32.768001556396484 8.566387176513672 L 34.145999908447266 9.298999786376953 L 34.146244049072266 9.298539161682129 L 39.09019470214844 4.440892164675075e-17 L 40.959999084472656 -3.5167171955108643 L 43.445804595947266 -8.192000389099121 L 44.24577713012695 -9.696577072143555 L 44.245975494384766 -9.696955680847168 L 44.24599838256836 -9.696999549865723 L 40.959999084472656 -11.444000244140625 L 39.37248611450195 -12.288000106811523 L 38.93059539794922 -12.522931098937988 L 38.9119987487793 -12.532817840576172 L 37.622169494628906 -13.218570709228516 L 37.621337890625 -13.219011306762695 L 37.64031982421875 -13.312000274658203 L 37.71784591674805 -13.69176959991455 L 37.747615814208984 -13.83899974822998 L 37.7803840637207 -14.022000312805176 L 37.83707809448242 -14.336000442504883 L 37.890384674072266 -14.631230354309082 L 37.89780044555664 -14.677713394165039 L 37.91023254394531 -14.755615234375 L 37.97996520996094 -15.218062400817871 L 38.00150680541992 -15.359999656677246 L 38.0252571105957 -15.516510963439941 L 38.02541732788086 -15.517570495605469 L 38.02853775024414 -15.520383834838867 L 38.02939987182617 -15.521400451660156 L 38.02971649169922 -15.521444320678711 L 38.03062057495117 -15.52157211303711 L 38.37580871582031 -15.570088386535645 L 38.9119987487793 -15.64570426940918 L 39.496177673339844 -15.72808837890625 L 40.959999084472656 -15.933856964111328 L 44.162269592285156 -16.384000778198242 L 45.457000732421875 -16.56599998474121 L 43.71500015258789 -28.959999084472656 L 49.152000427246094 -28.959999084472656 L 50 -28.959999084472656 L 50 -16.384000778198242 L 50 4.440892164675075e-17 L 50 17.727205276489258 L 50 17.72776985168457 L 50 28.959999084472656 L 32.768001556396484 28.959999084472656 L 16.384000778198242 28.959999084472656 L 8.192000389099121 28.959999084472656 L 0 28.959999084472656 L -8.192000389099121 28.959999084472656 L -16.384000778198242 28.959999084472656 L -24.576000213623047 28.959999084472656 L -32.768001556396484 28.959999084472656 L -50 28.959999084472656 L -50 12.297334671020508 L -50 12.288007736206055 L -50 4.440892164675075e-17 L -50 -16.384000778198242 L -50 -28.959999084472656 L -49.152000427246094 -28.959999084472656 L -40.959999084472656 -28.959999084472656 L -37.808998107910156 -28.959999084472656 L -37.68070983886719 -28.892213821411133 L -37.62192916870117 -28.860864639282227 L -37.621337890625 -28.860549926757812 z" fill="none" stroke="rgb(0,0,255)" stroke-width="0.01mm" />
</svg>