<?xml version="1.0" standalone="no"?>
<!DOCTYPE svg PUBLIC "-//W3C//DTD SVG 1.1//EN"
  "http://www.w3.org/Graphics/SVG/1.1/DTD/svg11.dtd">
<svg width="102mm" height="54.630001068115234mm" viewBox="-51 -27.315000534057617 102 54.630001068115234" xmlns="http://www.w3.org/2000/svg" version="1.1">
	<title>svgOutput</title>
	<desc>made with tinkercad</desc>
<path d="M 33.99784469604492 -9.857029914855957 L 33.998443603515625 -9.858439445495605 L 33.999576568603516 -9.861106872558594 L 34.126216888427734 -10.173287391662598 L 34.131195068359375 -10.186299324035645 L 34.15183639526367 -10.239999771118164 L 34.40214538574219 -10.891159057617188 L 34.406864166259766 -10.904280662536621 L 34.42253112792969 -10.947845458984375 L 34.536224365234375 -11.263999938964844 L 34.66207504272461 -11.613961219787598 L 34.662105560302734 -11.614049911499023 L 34.6671142578125 -11.628898620605469 L 34.816001892089844 -12.070103645324707 L 34.889530181884766 -12.288000106811523 L 34.908058166503906 -12.342911720275879 L 34.932525634765625 -12.423163414001465 L 34.93254470825195 -12.423226356506348 L 34.99513244628906 -12.421039581298828 L 35.472476959228516 -12.404847145080566 L 35.739200592041016 -12.39579963684082 L 38.81577682495117 -12.288000106811523 L 40.959999084472656 -12.212868690490723 L 42.21200180053711 -12.168999671936035 L 42.35905838012695 -16.384000778198242 L 42.702999114990234 -26.242000579833984 L 42.70600128173828 -26.315000534057617 L 50 -26.315000534057617 L 50 -16.384000778198242 L 50 4.440892164675075e-17 L 50 26.315000534057617 L 32.768001556396484 26.315000534057617 L 16.384000778198242 26.315000534057617 L 0 26.315000534057617 L -16.384000778198242 26.315000534057617 L -32.768001556396484 26.315000534057617 L -50 26.315000534057617 L -50 4.440892164675075e-17 L -50 -16.384000778198242 L -50 -26.315000534057617 L -42.52199935913086 -26.315000534057617 L -42.868648529052734 -16.384000778198242 L -42.91176986694336 -15.148547172546387 L -42.9119987487793 -15.142000198364258 L -41.37047576904297 -15.088200569152832 L -40.959999084472656 -15.073875427246094 L -36.86399841308594 -14.930925369262695 L -36.43920135498047 -14.916099548339844 L -35.69512939453125 -14.889960289001465 L -35.63290786743164 -14.88779354095459 L -35.63252258300781 -14.88778018951416 L -35.55202102661133 -14.560874938964844 L -35.550960540771484 -14.55655574798584 L -35.4918098449707 -14.336000442504883 L -35.3556022644043 -13.828134536743164 L -35.35199737548828 -13.814665794372559 L -35.351905822753906 -13.814351081848145 L -35.14093017578125 -13.089189529418945 L -35.13703536987305 -13.075811386108398 L -35.13235092163086 -13.060842514038086 L -34.908058166503906 -12.342911720275879 L -34.903743743896484 -12.330124855041504 L -34.88953399658203 -12.288000106811523 L -34.88063430786133 -12.261618614196777 L -34.880943298339844 -12.261408805847168 L -34.88096237182617 -12.261398315429688 L -34.932552337646484 -12.22659683227539 L -35.54949951171875 -11.810600280761719 L -38.3475456237793 -9.92303466796875 L -40.913551330566406 -8.192000389099121 L -40.917999267578125 -8.189000129699707 L -40.917423248291016 -8.188145637512207 L -38.10300064086914 -4.014999866485596 L -35.39476776123047 4.440892164675075e-17 L -32.768001556396484 3.894226312637329 L -29.869028091430664 8.192000389099121 L -29.69580841064453 8.448801040649414 L -29.69499969482422 8.449999809265137 L -29.312583923339844 8.192000389099121 L -24.576000213623047 4.996433734893799 L -24.325599670410156 4.827499866485596 L -23.708560943603516 4.411411285400391 L -23.68286895751953 4.394081115722656 L -23.656963348388672 4.376607894897461 L -23.656930923461914 4.376585960388184 L -23.656620025634766 4.376376628875732 L -23.3994140625 4.593331813812256 L -23.396028518676758 4.596187114715576 L -23.385194778442383 4.604971408843994 L -22.974123001098633 4.937678337097168 L -22.798137664794922 5.080113887786865 L -22.787120819091797 5.08866024017334 L -22.527999877929688 5.289724826812744 L -22.19123077392578 5.5510406494140625 L -22.187755584716797 5.553616046905518 L -22.17863655090332 5.5603790283203125 L -21.6874942779541 5.92055606842041 L -21.503734588623047 6.055108070373535 L -21.50362777709961 6.055186748504639 L -21.503686904907227 6.0553507804870605 L -21.53238868713379 6.134161949157715 L -21.53597068786621 6.144000053405762 L -21.781099319458008 6.8171000480651855 L -22.28156280517578 8.192000389099121 L -23.996000289916992 12.902000427246094 L -23.992708206176758 12.9031982421875 L -16.384000778198242 15.672751426696777 L -14.430009841918945 16.384000778198242 L -5.13862419128418 19.76604461669922 L -5.136000156402588 19.767000198364258 L -3.904954195022583 16.384000778198242 L -3.1597037315368652 14.336000442504883 L -2.921099901199341 13.680299758911133 L -2.6662094593048096 12.980781555175781 L -2.6477158069610596 12.92995834350586 L -2.6447856426239014 12.921905517578125 L -2.6403567790985107 12.922235488891602 L -2.59277081489563 12.921771049499512 L -2.304532051086426 12.943092346191406 L -2.157648801803589 12.950989723205566 L -2.0480000972747803 12.957322120666504 L -1.564110279083252 12.985269546508789 L -1.5506706237792969 12.986045837402344 L -1.5367437601089478 12.986777305603027 L -1.5228170156478882 12.98721694946289 L -1.0051265954971313 13.003395080566406 L -0.7688719034194946 13.010777473449707 L -0.7531908750534058 13.01093578338623 L 0 13.019750595092773 L 0.02943589724600315 13.019538879394531 L 0.08478862047195435 13.018559455871582 L 0.08500000089406967 13.018555641174316 L 0.08516663312911987 13.019137382507324 L 0.30730000138282776 13.794599533081055 L 2.0920000076293945 20.018999099731445 L 2.0920138359069824 20.01899528503418 L 2.094435214996338 20.018301010131836 L 16.384000778198242 15.920967102050781 L 21.385000228881836 14.487000465393066 L 19.600299835205078 8.2608003616333 L 19.580516815185547 8.192000389099121 L 19.41391372680664 7.612576961517334 L 19.394481658935547 7.5449934005737305 L 19.377317428588867 7.4850993156433105 L 19.37722396850586 7.484777927398682 L 19.662899017333984 7.308072090148926 L 19.666669845581055 7.305729389190674 L 19.678363800048828 7.298134803771973 L 20.311559677124023 6.886802673339844 L 20.323089599609375 6.878970146179199 L 20.479999542236328 6.772388935089111 L 20.94744873046875 6.454875946044922 L 20.949764251708984 6.453228950500488 L 20.95752716064453 6.4477033615112305 L 20.9602108001709 6.445794582366943 L 21.07245445251465 6.365636348724365 L 21.6391658782959 5.960958957672119 L 21.6418399810791 5.959049224853516 L 21.641908645629883 5.959000110626221 L 21.643003463745117 5.959856033325195 L 21.644498825073242 5.961024761199951 L 21.691253662109375 5.997575759887695 L 21.754480361938477 6.046870708465576 L 22.014890670776367 6.249903678894043 L 22.2449951171875 6.430146217346191 L 22.277999877929688 6.455999851226807 L 24.499923706054688 8.192000389099121 L 27.381000518798828 10.442999839782715 L 29.139699935913086 8.192000389099121 L 32.768001556396484 3.54805850982666 L 35.54008865356445 4.440892164675075e-17 L 39.7377815246582 -5.372718811035156 L 39.73797607421875 -5.372971534729004 L 39.737998962402344 -5.373000144958496 L 36.12929916381836 -8.192000389099121 L 34.63410186767578 -9.359999656677246 L 34.04726028442383 -9.818424224853516 L 33.99784469604492 -9.857029914855957 z" fill="none" stroke="rgb(0,0,255)" stroke-width="0.01mm" />
</svg>