<?xml version="1.0" standalone="no"?>
<!DOCTYPE svg PUBLIC "-//W3C//DTD SVG 1.1//EN"
  "http://www.w3.org/Graphics/SVG/1.1/DTD/svg11.dtd">
<svg width="102mm" height="81.10399627685547mm" viewBox="-51 -40.551998138427734 102 81.10399627685547" xmlns="http://www.w3.org/2000/svg" version="1.1">
	<title>svgOutput</title>
	<desc>made with tinkercad</desc>
<path d="M 6.895508289337158 28.228357315063477 L 6.919291019439697 28.277103424072266 L 7.111957550048828 28.672000885009766 L 7.200900077819824 28.854299545288086 L 8.192000389099121 30.886417388916016 L 9.109682083129883 32.768001556396484 L 9.791999816894531 34.16699981689453 L 12.66046142578125 32.768001556396484 L 16.384000778198242 30.951963424682617 L 29.127836227416992 24.736568450927734 L 29.128999710083008 24.736000061035156 L 29.05095100402832 24.576000213623047 L 27.052919387817383 20.479999542236328 L 26.537900924682617 19.4242000579834 L 26.249284744262695 18.83245849609375 L 26.23651123046875 18.806270599365234 L 26.232566833496094 18.79818344116211 L 26.245710372924805 18.786806106567383 L 26.289257049560547 18.74861717224121 L 26.63372802734375 18.43199920654297 L 26.69525718688965 18.375446319580078 L 26.894927978515625 18.19194793701172 L 26.895587921142578 18.191314697265625 L 27.292888641357422 17.81006622314453 L 27.48826789855957 17.622608184814453 L 27.488927841186523 17.621946334838867 L 28.070608139038086 17.040267944335938 L 28.14519500732422 16.962709426879883 L 28.3120174407959 16.78851890563965 L 28.318767547607422 16.79210662841797 L 28.343347549438477 16.805173873901367 L 28.345672607421875 16.80640983581543 L 28.672000885009766 16.979890823364258 L 28.92690086364746 17.115400314331055 L 32.768001556396484 19.158157348632812 L 34.145999908447266 19.891000747680664 L 44.24546432495117 0.8960101008415222 L 44.24599838256836 0.8949999809265137 L 42.56283187866211 4.440892164675075e-17 L 40.959999084472656 -0.8522814512252808 L 39.027801513671875 -1.879699945449829 L 38.465850830078125 -2.1783974170684814 L 38.4207649230957 -2.2023637294769287 L 38.41301727294922 -2.20648193359375 L 38.41697692871094 -2.2236435413360596 L 38.538909912109375 -2.8205840587615967 L 38.592376708984375 -3.0862607955932617 L 38.640560150146484 -3.3529274463653564 L 38.73837661743164 -3.896270513534546 L 38.77006149291992 -4.0960001945495605 L 38.813411712646484 -4.369267463684082 L 38.855655670166016 -4.6369242668151855 L 38.89987564086914 -4.947788715362549 L 38.91472625732422 -5.054389476776123 L 38.915042877197266 -5.054434299468994 L 39.60430145263672 -5.151400089263916 L 40.959999084472656 -5.341944217681885 L 45.457000732421875 -5.973999977111816 L 45.45689392089844 -5.9747538566589355 L 45.145301818847656 -8.192000389099121 L 43.99407958984375 -16.384000778198242 L 42.84285354614258 -24.576000213623047 L 42.46310043334961 -27.27829933166504 L 42.4630012512207 -27.27899932861328 L 40.959999084472656 -27.067720413208008 L 36.86399841308594 -26.49193572998047 L 36.61119842529297 -26.45639991760254 L 35.92177200317383 -26.359350204467773 L 35.92137908935547 -26.359294891357422 L 35.914794921875 -26.375560760498047 L 35.89201736450195 -26.42848777770996 L 35.80238342285156 -26.624000549316406 L 35.69236755371094 -26.863967895507812 L 35.57949447631836 -27.110172271728516 L 35.57940673828125 -27.1103515625 L 35.30883026123047 -27.672943115234375 L 35.19100570678711 -27.91716766357422 L 34.94043731689453 -28.408924102783203 L 34.81733703613281 -28.650178909301758 L 34.805633544921875 -28.672000885009766 L 34.70344161987305 -28.862558364868164 L 34.651790618896484 -28.95684242248535 L 35.153499603271484 -29.441299438476562 L 38.59830856323242 -32.768001556396484 L 39.40599822998047 -33.54800033569336 L 39.40532302856445 -33.54869842529297 L 33.606998443603516 -39.551998138427734 L 50 -39.551998138427734 L 50 -32.768001556396484 L 50 -16.384000778198242 L 50 4.440892164675075e-17 L 50 3.9524600505828857 L 50 3.954603672027588 L 50 3.9560434818267822 L 50 39.551998138427734 L 32.768001556396484 39.551998138427734 L 27.916963577270508 39.551998138427734 L 0 39.551998138427734 L -32.768001556396484 39.551998138427734 L -50 39.551998138427734 L -50 32.768001556396484 L -50 16.384000778198242 L -50 4.440892164675075e-17 L -50 -14.281241416931152 L -50 -14.282113075256348 L -50 -14.283478736877441 L -50 -16.384000778198242 L -50 -24.849611282348633 L -50 -24.85204315185547 L -50 -32.768001556396484 L -50 -39.551998138427734 L -34.803001403808594 -39.551998138427734 L -38.40985107421875 -32.768001556396484 L -44.24546432495117 -21.792009353637695 L -44.24599838256836 -21.791000366210938 L -39.027801513671875 -19.017200469970703 L -38.44826126098633 -18.708934783935547 L -38.41301727294922 -18.690187454223633 L -38.41697692871094 -18.673357009887695 L -38.538909912109375 -18.075746536254883 L -38.592376708984375 -17.810070037841797 L -38.640560150146484 -17.543071746826172 L -38.73837661743164 -17.000398635864258 L -38.813411712646484 -16.5267333984375 L -38.835941314697266 -16.384000778198242 L -38.855655670166016 -16.259075164794922 L -38.89987564086914 -15.948211669921875 L -38.91472625732422 -15.8416109085083 L -38.92211151123047 -15.840571403503418 L -39.60430145263672 -15.744600296020508 L -45.457000732421875 -14.92199993133545 L -45.45689392089844 -14.921245574951172 L -45.45674514770508 -14.920178413391113 L -43.35990524291992 4.440892164675075e-17 L -42.4630012512207 6.381999969482422 L -40.959999084472656 6.170720100402832 L -36.86399841308594 5.594936847686768 L -36.61119842529297 5.5594000816345215 L -35.929954528808594 5.463814735412598 L -35.929893493652344 5.46380615234375 L -35.92341613769531 5.462897300720215 L -35.92137908935547 5.462611675262451 L -35.914794921875 5.478560924530029 L -35.89201736450195 5.531488418579102 L -35.84829330444336 5.627004623413086 L -35.69236755371094 5.967637062072754 L -35.61162185668945 6.144000053405762 L -35.57949447631836 6.214171409606934 L -35.30883026123047 6.776943683624268 L -35.19100570678711 7.020838260650635 L -34.94043731689453 7.512594223022461 L -34.81733703613281 7.754178047180176 L -34.70344161987305 7.96655797958374 L -34.651790618896484 8.060842514038086 L -34.65250778198242 8.061535835266113 L -34.70893478393555 8.116009712219238 L -34.72986602783203 8.136218070983887 L -34.78764724731445 8.192000389099121 L -35.153499603271484 8.54520034790039 L -39.40599822998047 12.651000022888184 L -39.40529251098633 12.651731491088867 L -35.801082611083984 16.384000778198242 L -32.768001556396484 19.524850845336914 L -27.890161514282227 24.576000213623047 L -24.461566925048828 28.126413345336914 L -24.461000442504883 28.12700080871582 L -20.78309440612793 24.576000213623047 L -20.479999542236328 24.283363342285156 L -20.209400177001953 24.0221004486084 L -19.736675262451172 23.565383911132812 L -19.71478271484375 23.544233322143555 L -19.708616256713867 23.53827667236328 L -19.708412170410156 23.53839874267578 L -19.693435668945312 23.54718780517578 L -19.16349220275879 23.847333908081055 L -18.927518844604492 23.980667114257812 L -18.688573837280273 24.108718872070312 L -18.43199920654297 24.24619483947754 L -18.208099365234375 24.36616325378418 L -18.202178955078125 24.36933708190918 L -17.96092414855957 24.492109298706055 L -17.796281814575195 24.576000213623047 L -17.469167709350586 24.74267578125 L -17.37213897705078 24.789541244506836 L -17.15507698059082 24.89472198486328 L -17.15506935119629 24.894725799560547 L -17.275999069213867 25.580799102783203 L -18.302000045776367 31.402000427246094 L -16.384000778198242 31.740209579467773 L -10.5553617477417 32.768001556396484 L 3.190826644789216e-14 34.629276275634766 L 2.884999990463257 35.13800048828125 L 3.3027825355529785 32.768001556396484 L 3.9110000133514404 29.317699432373047 L 4.024885654449463 28.672000885009766 L 4.030054569244385 28.64269256591797 L 4.0302863121032715 28.64137840270996 L 4.0318827629089355 28.632328033447266 L 4.031930923461914 28.632055282592773 L 4.049422264099121 28.63040542602539 L 4.0960001945495605 28.62529945373535 L 4.251082420349121 28.60829734802246 L 4.520059585571289 28.577274322509766 L 4.924049377441406 28.530376434326172 L 5.3990559577941895 28.465389251708984 L 5.667703151702881 28.428424835205078 L 6.144000053405762 28.354393005371094 L 6.284072399139404 28.33262062072754 L 6.5498247146606445 28.29067611694336 L 6.551729202270508 28.290376663208008 L 6.657670021057129 28.2712345123291 L 6.895081043243408 28.22843360900879 L 6.895508289337158 28.228357315063477 M -27.87885856628418 -38.12801742553711 L -28.070491790771484 -37.93671417236328 L -28.070608139038086 -37.93659591674805 L -28.14519500732422 -37.85871124267578 L -28.311853408813477 -37.684688568115234 L -28.3120174407959 -37.68451690673828 L -28.672000885009766 -37.875885009765625 L -28.694599151611328 -37.887901306152344 L -31.822999954223633 -39.551998138427734 L -31.82294464111328 -39.551998138427734 L -28.672000885009766 -39.551998138427734 L -26.624000549316406 -39.551998138427734 L -26.407304763793945 -39.551998138427734 L -26.402421951293945 -39.551998138427734 L -26.390493392944336 -39.551998138427734 L -26.577363967895508 -39.3803825378418 L -26.624000549316406 -39.337486267089844 L -26.894927978515625 -39.08827590942383 L -27.292888641357422 -38.70639419555664 L -27.48826789855957 -38.51860809326172 L -27.87885856628418 -38.12801742553711 z" fill="none" stroke="rgb(0,0,255)" stroke-width="0.01mm" />
</svg>