<?xml version="1.0" standalone="no"?>
<!DOCTYPE svg PUBLIC "-//W3C//DTD SVG 1.1//EN"
  "http://www.w3.org/Graphics/SVG/1.1/DTD/svg11.dtd">
<svg width="102mm" height="67.86799621582031mm" viewBox="-51 -33.933998107910156 102 67.86799621582031" xmlns="http://www.w3.org/2000/svg" version="1.1">
	<title>svgOutput</title>
	<desc>made with tinkercad</desc>
<path d="M 36.60900115966797 -32.933998107910156 L 36.609134674072266 -32.933998107910156 L 50 -32.933998107910156 L 50 -32.768001556396484 L 50 -16.384000778198242 L 50 4.440892164675075e-17 L 50 32.933998107910156 L 32.768001556396484 32.933998107910156 L 0 32.933998107910156 L -32.768001556396484 32.933998107910156 L -50 32.933998107910156 L -50 4.440892164675075e-17 L -50 -16.384000778198242 L -50 -32.768001556396484 L -50 -32.933998107910156 L -40.66699981689453 -32.933998107910156 L -40.77900695800781 -32.768001556396484 L -40.917999267578125 -32.5620002746582 L -40.350982666015625 -32.17933654785156 L -40.31471252441406 -32.15497970581055 L -39.416748046875 -31.54911994934082 L -36.86399841308594 -29.82719612121582 L -36.64961242675781 -29.682586669921875 L -36.649410247802734 -29.68244743347168 L -36.642364501953125 -29.677696228027344 L -36.72179412841797 -29.44120216369629 L -36.856658935546875 -29.0417423248291 L -36.86399841308594 -29.01824188232422 L -36.86605453491211 -29.01166343688965 L -36.97216796875 -28.672000885009766 L -36.9876708984375 -28.622373580932617 L -37.07461166381836 -28.344736099243164 L -37.07783126831055 -28.33377456665039 L -37.24415588378906 -27.76738166809082 L -37.32373809814453 -27.49358367919922 L -37.325374603271484 -27.487953186035156 L -37.46023941040039 -26.985095977783203 L -37.53573226928711 -26.703880310058594 L -37.55534744262695 -26.624000549316406 L -37.605140686035156 -26.421232223510742 L -37.64445495605469 -26.25428581237793 L -37.75765609741211 -25.7890682220459 L -37.76887130737305 -25.78867530822754 L -40.44919967651367 -25.694990158081055 L -40.959999084472656 -25.677165985107422 L -42.20428466796875 -25.633745193481445 L -42.2281379699707 -25.63282012939453 L -42.9119987487793 -25.608999252319336 L -42.91199493408203 -25.60890769958496 L -42.87594985961914 -24.576000213623047 L -42.590057373046875 -16.384000778198242 L -42.304168701171875 -8.192000389099121 L -42.21200180053711 -5.551000118255615 L -41.52827835083008 -5.574819564819336 L -40.959999084472656 -5.594753265380859 L -40.401981353759766 -5.614327430725098 L -37.071590423583984 -5.730711936950684 L -37.06559371948242 -5.730921745300293 L -37.057308197021484 -5.731211185455322 L -36.9825325012207 -5.492928504943848 L -36.86399841308594 -5.114348411560059 L -36.856658935546875 -5.09089994430542 L -36.76399230957031 -4.81505012512207 L -36.597660064697266 -4.321826457977295 L -36.51665496826172 -4.0960001945495605 L -36.44930648803711 -3.908237934112549 L -36.35055923461914 -3.6345348358154297 L -36.13605880737305 -3.0719516277313232 L -36.031944274902344 -2.8000376224517822 L -35.83542251586914 -2.318373918533325 L -35.72522735595703 -2.048964262008667 L -35.72480773925781 -2.0480000972747803 L -35.70063400268555 -1.9924567937850952 L -35.673587799072266 -1.929546594619751 L -35.67356491088867 -1.9294897317886353 L -35.675682067871094 -1.9278349876403809 L -36.86399841308594 -0.9994070529937744 L -38.08985137939453 -0.041654322296380955 L -38.143165588378906 4.440892164675075e-17 L -39.1799201965332 0.8100465536117554 L -39.19874572753906 0.8247174024581909 L -39.737998962402344 1.246000051498413 L -39.73795700073242 1.246055006980896 L -32.768001556396484 10.166494369506836 L -31.110368728637695 12.288000106811523 L -27.909971237182617 16.384000778198242 L -27.381000518798828 17.06100082397461 L -26.842029571533203 16.63985824584961 L -26.807586669921875 16.612903594970703 L -26.71227264404297 16.538469314575195 L -26.514474868774414 16.384000778198242 L -25.953807830810547 15.946151733398438 L -24.576000213623047 14.86967658996582 L -23.892934799194336 14.336000442504883 L -23.361738204956055 13.920979499816895 L -23.33000373840332 13.896184921264648 L -23.32528305053711 13.892496109008789 L -23.323570251464844 13.891158103942871 L -23.31686019897461 13.885915756225586 L -23.11686134338379 14.034395217895508 L -22.778411865234375 14.285502433776855 L -22.70732879638672 14.336000442504883 L -22.541202545166016 14.454017639160156 L -22.527999877929688 14.463354110717773 L -22.04990577697754 14.801458358764648 L -21.809118270874023 14.96532154083252 L -21.44562339782715 15.211934089660645 L -21.201257705688477 15.370430946350098 L -20.76519203186035 15.654291152954102 L -20.728317260742188 15.677184104919434 L -20.517963409423828 15.807780265808105 L -20.479999542236328 15.831307411193848 L -20.075475692749023 16.082006454467773 L -20.011253356933594 16.119897842407227 L -19.96394920349121 16.147640228271484 L -19.963668823242188 16.147804260253906 L -19.96371078491211 16.14794921875 L -19.974267959594727 16.184776306152344 L -20.031381607055664 16.384000778198242 L -20.479999542236328 17.948850631713867 L -20.885894775390625 19.364675521850586 L -21.1964168548584 20.448213577270508 L -21.205530166625977 20.479999542236328 L -21.385000228881836 21.106000900268555 L -16.384000778198242 22.539966583251953 L -9.283281326293945 24.576000213623047 L -2.092517614364624 26.63785171508789 L -2.092001438140869 26.63800048828125 L -2.0920000076293945 26.63800048828125 L -2.0889949798583984 26.627513885498047 L -1.9035574197769165 25.98035430908203 L -1.896949052810669 25.957359313964844 L -1.592894434928894 24.89703369140625 L -1.5008591413497925 24.576000213623047 L -0.673003077507019 21.688304901123047 L -0.6706690788269043 21.68016242980957 L -0.421295166015625 21.682666778564453 L 0 21.687162399291992 L 0.4392772912979126 21.682025909423828 L 0.7305116057395935 21.679162979125977 L 1.3322701454162598 21.662466049194336 L 1.623146653175354 21.653162002563477 L 1.913665533065796 21.63777732849121 L 2.0480000972747803 21.630306243896484 L 2.5141396522521973 21.60438346862793 L 2.8046584129333496 21.58327293395996 L 3.243293285369873 21.551162719726562 L 3.317148447036743 21.544097900390625 L 3.3722469806671143 21.538732528686523 L 3.732311487197876 22.527999877929688 L 4.0960001945495605 23.527225494384766 L 4.477723121643066 24.576000213623047 L 4.516679763793945 24.683032989501953 L 4.893787384033203 25.719642639160156 L 4.902032375335693 25.74201202392578 L 5.136000156402588 26.385000228881836 L 5.136128902435303 26.384952545166016 L 10.10653305053711 24.576000213623047 L 16.384000778198242 22.29134750366211 L 21.360984802246094 20.479999542236328 L 23.99570083618164 19.521108627319336 L 23.996000289916992 19.520999908447266 L 23.76203155517578 18.87815284729004 L 23.747007369995117 18.83720588684082 L 23.37632179260254 17.819032669067383 L 22.85411834716797 16.384000778198242 L 22.234609603881836 14.681563377380371 L 22.231889724731445 14.674089431762695 L 22.435466766357422 14.529545783996582 L 22.707448959350586 14.336000442504883 L 22.772321701049805 14.289835929870605 L 22.778411865234375 14.285502433776855 L 23.012042999267578 14.111978530883789 L 23.430126190185547 13.801787376403809 L 23.660181045532227 13.623611450195312 L 24.134780883789062 13.2530517578125 L 24.360898971557617 13.069868087768555 L 24.576000213623047 12.89600658416748 L 24.702558517456055 12.793713569641113 L 24.719745635986328 12.779156684875488 L 24.924739837646484 12.605520248413086 L 25.298357009887695 12.288000106811523 L 25.37814712524414 12.220190048217773 L 25.419649124145508 12.183695793151855 L 25.574243545532227 12.288000106811523 L 28.193389892578125 14.055119514465332 L 28.672000885009766 14.377906799316406 L 29.127840042114258 14.685336112976074 L 29.69499969482422 15.067999839782715 L 31.5701904296875 12.288000106811523 L 32.768001556396484 10.512226104736328 L 38.10300064086914 2.6029999256134033 L 39.858497619628906 4.440892164675075e-17 L 40.91777801513672 -1.570669412612915 L 40.917991638183594 -1.570987343788147 L 40.917999267578125 -1.5709999799728394 L 40.69236755371094 -1.723217248916626 L 40.350982666015625 -1.9535229206085205 L 40.31471252441406 -1.978020191192627 L 39.416748046875 -2.5838801860809326 L 37.17503356933594 -4.0960001945495605 L 36.86399841308594 -4.305802822113037 L 36.672183990478516 -4.435190677642822 L 36.64961242675781 -4.450414180755615 L 36.649417877197266 -4.4505462646484375 L 36.642364501953125 -4.455304145812988 L 36.72179412841797 -4.691440105438232 L 36.856658935546875 -5.09089994430542 L 36.86334991455078 -5.112283706665039 L 36.86399841308594 -5.1143646240234375 L 36.9876708984375 -5.5096259117126465 L 37.07461166381836 -5.787622451782227 L 37.17914962768555 -6.144000053405762 L 37.24415588378906 -6.36561918258667 L 37.325374603271484 -6.645046710968018 L 37.46023941040039 -7.1479034423828125 L 37.528472900390625 -7.402082443237305 L 37.53573226928711 -7.429120063781738 L 37.605140686035156 -7.711767673492432 L 37.64445495605469 -7.8787150382995605 L 37.72068786621094 -8.192000389099121 L 37.75765609741211 -8.343932151794434 L 37.76136016845703 -8.344061851501465 L 40.44919967651367 -8.438009262084961 L 40.959999084472656 -8.45583438873291 L 42.20428466796875 -8.499255180358887 L 42.2281379699707 -8.500039100646973 L 42.9119987487793 -8.52400016784668 L 42.6376953125 -16.384000778198242 L 42.351802825927734 -24.576000213623047 L 42.21200180053711 -28.581937789916992 L 42.21200180053711 -28.582000732421875 L 41.52827835083008 -28.55803871154785 L 40.959999084472656 -28.538177490234375 L 40.401981353759766 -28.518672943115234 L 37.066165924072266 -28.402097702026367 L 37.057308197021484 -28.40178871154785 L 36.9825325012207 -28.639713287353516 L 36.9724235534668 -28.672000885009766 L 36.86399841308594 -29.018293380737305 L 36.856658935546875 -29.0417423248291 L 36.76399230957031 -29.31759262084961 L 36.597660064697266 -29.810815811157227 L 36.49890899658203 -30.084877014160156 L 36.293399810791016 -30.650671005249023 L 36.26681900024414 -30.719999313354492 L 36.18928527832031 -30.92222785949707 L 36.031944274902344 -31.33196258544922 L 35.83542251586914 -31.814268112182617 L 35.72637176513672 -32.081233978271484 L 35.72522735595703 -32.08403396606445 L 35.70063400268555 -32.14054489135742 L 35.67356491088867 -32.20292282104492 L 36.248504638671875 -32.65251922607422 L 36.39645767211914 -32.768001556396484 L 36.506378173828125 -32.853797912597656 L 36.60900115966797 -32.933998107910156 z" fill="none" stroke="rgb(0,0,255)" stroke-width="0.01mm" />
</svg>