<?xml version="1.0" standalone="no"?>
<!DOCTYPE svg PUBLIC "-//W3C//DTD SVG 1.1//EN"
  "http://www.w3.org/Graphics/SVG/1.1/DTD/svg11.dtd">
<svg width="102mm" height="87.72200012207031mm" viewBox="-51 -43.861000061035156 102 87.72200012207031" xmlns="http://www.w3.org/2000/svg" version="1.1">
	<title>svgOutput</title>
	<desc>made with tinkercad</desc>
<path d="M -30.488651275634766 18.182533264160156 L -30.27813720703125 18.43199920654297 L -30.02140235900879 18.736244201660156 L -30.003896713256836 18.757083892822266 L -30.00278663635254 18.758405685424805 L -29.983537673950195 18.780187606811523 L -29.504060745239258 19.32429313659668 L -29.453659057617188 19.381406784057617 L -28.891658782958984 19.992406845092773 L -28.838977813720703 20.04749298095703 L -28.672000885009766 20.221744537353516 L -28.424522399902344 20.479999542236328 L -28.33766746520996 20.570636749267578 L -28.317533493041992 20.591533660888672 L -27.730533599853516 21.17853355407715 L -27.709636688232422 21.198667526245117 L -27.186492919921875 21.69997787475586 L -27.131406784057617 21.75265884399414 L -26.624000549316406 22.21937370300293 L -26.52040672302246 22.314659118652344 L -26.463293075561523 22.365060806274414 L -26.278390884399414 22.527999877929688 L -25.9605770111084 22.80806541442871 L -25.919187545776367 22.84453773498535 L -25.89740562438965 22.863786697387695 L -25.89608383178711 22.864896774291992 L -25.875244140625 22.882402420043945 L -25.321533203125 23.349651336669922 L -25.269664764404297 23.39360809326172 L -25.26340675354004 23.39891242980957 L -25.181598663330078 23.465017318725586 L -24.6182804107666 23.921785354614258 L -24.576000213623047 23.954578399658203 L -24.546602249145508 23.977380752563477 L -23.973676681518555 24.42104721069336 L -23.93897819519043 24.447261810302734 L -23.765766143798828 24.576000213623047 L -23.357318878173828 24.879575729370117 L -23.296152114868164 24.925039291381836 L -22.62348747253418 25.4029598236084 L -22.619152069091797 25.40604019165039 L -22.556087493896484 25.448843002319336 L -22.527999877929688 25.46796417236328 L -21.956960678100586 25.85670280456543 L -21.920869827270508 25.880889892578125 L -21.31300926208496 26.275650024414062 L -21.236900329589844 26.32503890991211 L -21.17218780517578 26.365182876586914 L -20.754053115844727 26.624000549316406 L -20.555593490600586 26.746843338012695 L -20.518489837646484 26.76951026916504 L -20.479999542236328 26.792312622070312 L -19.894908905029297 27.13894271850586 L -19.8167724609375 27.185165405273438 L -19.737876892089844 27.229616165161133 L -19.45599937438965 27.388294219970703 L -19.106435775756836 27.585073471069336 L -19.068191528320312 27.60584259033203 L -18.989469528198242 27.648000717163086 L -18.43199920654297 27.946535110473633 L -18.428890228271484 27.948200225830078 L -18.363792419433594 27.98320770263672 L -18.361772537231445 27.98429298400879 L -18.293895721435547 28.018863677978516 L -17.648479461669922 28.348121643066406 L -17.62264633178711 28.361291885375977 L -17.596559524536133 28.37395668029785 L -17.408000946044922 28.46508026123047 L -17.216190338134766 28.557775497436523 L -16.97983169555664 28.672000885009766 L -16.944156646728516 28.689239501953125 L -16.875518798828125 28.722291946411133 L -16.390499114990234 28.94456672668457 L -16.384000778198242 28.947546005249023 L -16.120519638061523 29.06829261779785 L -16.104244232177734 29.07533836364746 L -16.050615310668945 29.09855842590332 L -15.385113716125488 29.385894775390625 L -15.344969749450684 29.402864456176758 L -14.674226760864258 29.677101135253906 L -14.590266227722168 29.7114200592041 L -14.519222259521484 29.738645553588867 L -14.336000442504883 29.808862686157227 L -13.842367172241211 29.998035430908203 L -13.801589965820312 30.013357162475586 L -13.11949348449707 30.259645462036133 L -13.034139633178711 30.29041862487793 L -12.961956024169922 30.314733505249023 L -12.288000106811523 30.540813446044922 L -12.274620056152344 30.54530143737793 L -12.233336448669434 30.55885124206543 L -11.720767974853516 30.719999313354492 L -11.541633605957031 30.77631950378418 L -11.455140113830566 30.80341911315918 L -11.381943702697754 30.82469367980957 L -10.685873031616211 31.02644157409668 L -10.658013343811035 31.0345458984375 L -10.65661334991455 31.034921646118164 L -10.584436416625977 31.054302215576172 L -10.239999771118164 31.146753311157227 L -9.884873390197754 31.242074966430664 L -9.844522476196289 31.252527236938477 L -9.842829704284668 31.252965927124023 L -9.138899803161621 31.42588996887207 L -9.05172348022461 31.447309494018555 L -9.050760269165039 31.447546005249023 L -8.976423263549805 31.464136123657227 L -8.269000053405762 31.62221336364746 L -8.226449966430664 31.631458282470703 L -8.192000389099121 31.638399124145508 L -7.515532970428467 31.774690628051758 L -7.426633358001709 31.792545318603516 L -7.351663589477539 31.806095123291016 L -6.638126850128174 31.934480667114258 L -6.595323085784912 31.94182586669922 L -6.144000053405762 32.01337814331055 L -5.879166126251221 32.055362701416016 L -5.789633274078369 32.06954574584961 L -5.685410499572754 32.08385467529297 L -4.971234321594238 32.1811637878418 L -4.967506408691406 32.181671142578125 L -4.891777515411377 32.19041061401367 L -4.171253204345703 32.274253845214844 L -4.1452460289001465 32.277347564697266 L -4.1425065994262695 32.277671813964844 L -4.113633155822754 32.280330657958984 L -4.0960001945495605 32.28199768066406 L -3.39223575592041 32.348453521728516 L -3.316380023956299 32.35567092895508 L -3.2873799800872803 32.357826232910156 L -2.5642359256744385 32.411102294921875 L -2.489503860473633 32.41658020019531 L -2.488253355026245 32.41667175292969 L -2.412144184112549 32.420597076416016 L -2.0480000972747803 32.439510345458984 L -1.6890000104904175 32.458152770996094 L -1.6601266860961914 32.45967102050781 L -1.6591355800628662 32.4597053527832 L -1.5838907957077026 32.46207809448242 L -0.859000027179718 32.48478698730469 L -0.8352397084236145 32.4853401184082 L -0.8155633211135864 32.48579788208008 L -0.09067248553037643 32.49365997314453 L 0 32.49467086791992 L 0.09067248553037643 32.49365997314453 L 0.8155633211135864 32.48579788208008 L 0.859000027179718 32.48478698730469 L 1.5838907957077026 32.46207809448242 L 1.6601266860961914 32.45967102050781 L 1.6890000104904175 32.458152770996094 L 2.0480000972747803 32.439510345458984 L 2.412144184112549 32.420597076416016 L 2.488253355026245 32.41667175292969 L 2.5642359256744385 32.411102294921875 L 3.211911201477051 32.36338424682617 L 3.2873799800872803 32.357826232910156 L 3.3136470317840576 32.35587692260742 L 3.316380023956299 32.35567092895508 L 3.39223575592041 32.348453521728516 L 4.0960001945495605 32.28199768066406 L 4.1071648597717285 32.280941009521484 L 4.113633155822754 32.280330657958984 L 4.1394500732421875 32.2779541015625 L 4.1425065994262695 32.277671813964844 L 4.171253204345703 32.274253845214844 L 4.891777515411377 32.19041061401367 L 4.967506408691406 32.181671142578125 L 5.119999885559082 32.16089630126953 L 5.685410499572754 32.08385467529297 L 5.789633274078369 32.06954574584961 L 5.879166126251221 32.055362701416016 L 6.144000053405762 32.01337814331055 L 6.595323085784912 31.94182586669922 L 6.638126850128174 31.934480667114258 L 7.351663589477539 31.806095123291016 L 7.426633358001709 31.792545318603516 L 7.515532970428467 31.774690628051758 L 8.192000389099121 31.638399124145508 L 8.226449966430664 31.631458282470703 L 8.234491348266602 31.629711151123047 L 8.269000053405762 31.62221336364746 L 8.976423263549805 31.464136123657227 L 9.050634384155273 31.447574615478516 L 9.050760269165039 31.447546005249023 L 9.138899803161621 31.42588996887207 L 9.842829704284668 31.252965927124023 L 9.884873390197754 31.242074966430664 L 10.239999771118164 31.146753311157227 L 10.584436416625977 31.054302215576172 L 10.65661334991455 31.034921646118164 L 10.658013343811035 31.0345458984375 L 10.685873031616211 31.02644157409668 L 11.381943702697754 30.82469367980957 L 11.455140113830566 30.80341911315918 L 11.541633605957031 30.77631950378418 L 11.720767974853516 30.719999313354492 L 12.233336448669434 30.55885124206543 L 12.274620056152344 30.54530143737793 L 12.288000106811523 30.540813446044922 L 12.961956024169922 30.314733505249023 L 13.034139633178711 30.29041862487793 L 13.11949348449707 30.259645462036133 L 13.801589965820312 30.013357162475586 L 13.842367172241211 29.998035430908203 L 14.336000442504883 29.808862686157227 L 14.519222259521484 29.738645553588867 L 14.590266227722168 29.7114200592041 L 14.674226760864258 29.677101135253906 L 15.344969749450684 29.402864456176758 L 15.385113716125488 29.385894775390625 L 16.050615310668945 29.09855842590332 L 16.120519638061523 29.06829261779785 L 16.384000778198242 28.947546005249023 L 16.875518798828125 28.722291946411133 L 16.944156646728516 28.689239501953125 L 16.97983169555664 28.672000885009766 L 17.177576065063477 28.57643699645996 L 17.586515426635742 28.37881088256836 L 17.596559524536133 28.37395668029785 L 17.599966049194336 28.37230110168457 L 17.62264633178711 28.361291885375977 L 17.648479461669922 28.348121643066406 L 18.293895721435547 28.018863677978516 L 18.35609245300293 27.987186431884766 L 18.361772537231445 27.98429298400879 L 18.428890228271484 27.948200225830078 L 18.43199920654297 27.946535110473633 L 19.068191528320312 27.60584259033203 L 19.106435775756836 27.585073471069336 L 19.737876892089844 27.229616165161133 L 19.8167724609375 27.185165405273438 L 19.894908905029297 27.13894271850586 L 20.479999542236328 26.792312622070312 L 20.518489837646484 26.76951026916504 L 20.555593490600586 26.746843338012695 L 20.754053115844727 26.624000549316406 L 21.17218780517578 26.365182876586914 L 21.236900329589844 26.32503890991211 L 21.31300926208496 26.275650024414062 L 21.889598846435547 25.901199340820312 L 21.920869827270508 25.880889892578125 L 21.956960678100586 25.85670280456543 L 22.527999877929688 25.46796417236328 L 22.556087493896484 25.448843002319336 L 22.615720748901367 25.408369064331055 L 22.619152069091797 25.40604019165039 L 22.68120574951172 25.36184310913086 L 23.272472381591797 24.941755294799805 L 23.296106338500977 24.925071716308594 L 23.296152114868164 24.925039291381836 L 23.357318878173828 24.879575729370117 L 23.765766143798828 24.576000213623047 L 23.93897819519043 24.447261810302734 L 23.973676681518555 24.42104721069336 L 24.546602249145508 23.977380752563477 L 24.576000213623047 23.954578399658203 L 24.6182804107666 23.921785354614258 L 25.181598663330078 23.465017318725586 L 25.183074951171875 23.463825225830078 L 25.25748634338379 23.403696060180664 L 25.26340675354004 23.39891242980957 L 25.321533203125 23.349651336669922 L 25.875244140625 22.882402420043945 L 25.89740562438965 22.863786697387695 L 25.919187545776367 22.84453773498535 L 26.278390884399414 22.527999877929688 L 26.463293075561523 22.365060806274414 L 26.52040672302246 22.314659118652344 L 26.624000549316406 22.21937370300293 L 27.131406784057617 21.75265884399414 L 27.186492919921875 21.69997787475586 L 27.709636688232422 21.198667526245117 L 27.730533599853516 21.17853355407715 L 28.317533493041992 20.591533660888672 L 28.33766746520996 20.570636749267578 L 28.424522399902344 20.479999542236328 L 28.672000885009766 20.221744537353516 L 28.838977813720703 20.04749298095703 L 28.891658782958984 19.992406845092773 L 29.385047912597656 19.45599937438965 L 29.41716766357422 19.421079635620117 L 29.453659057617188 19.381406784057617 L 29.504060745239258 19.32429313659668 L 29.983537673950195 18.780187606811523 L 30.00278663635254 18.758405685424805 L 30.02140235900879 18.736244201660156 L 30.27813720703125 18.43199920654297 L 30.488651275634766 18.182533264160156 L 30.532608032226562 18.130664825439453 L 30.537912368774414 18.124406814575195 L 30.60401725769043 18.042598724365234 L 31.0607852935791 17.479278564453125 L 31.11638069152832 17.407602310180664 L 31.560047149658203 16.83467674255371 L 31.585254669189453 16.801311492919922 L 31.586261749267578 16.799978256225586 L 31.895435333251953 16.384000778198242 L 32.018577575683594 16.218318939208984 L 32.05243682861328 16.172761917114258 L 32.06404113769531 16.15715217590332 L 32.08075714111328 16.133472442626953 L 32.22325134277344 15.932910919189453 L 32.5008430480957 15.542204856872559 L 32.5421257019043 15.484245300292969 L 32.545040130615234 15.48015308380127 L 32.58784103393555 15.41708755493164 L 32.625892639160156 15.36119270324707 L 32.768001556396484 15.152444839477539 L 32.995704650878906 14.817960739135742 L 33.01988983154297 14.781868934631348 L 33.3094482421875 14.336000442504883 L 33.414649963378906 14.1740083694458 L 33.46331787109375 14.099013328552246 L 33.46403884887695 14.097899436950684 L 33.50418472290039 14.033187866210938 L 33.525455474853516 13.998819351196289 L 33.885841369628906 13.416593551635742 L 33.908512115478516 13.379488945007324 L 34.2779426574707 12.755908012390137 L 34.32416534423828 12.677772521972656 L 34.368614196777344 12.598877906799316 L 34.543617248535156 12.288000106811523 L 34.72407531738281 11.967436790466309 L 34.744842529296875 11.929192543029785 L 35.08720016479492 11.289891242980957 L 35.123291015625 11.222772598266602 L 35.12618637084961 11.217092514038086 L 35.15786361694336 11.154894828796387 L 35.4835319519043 10.51651668548584 L 35.48712158203125 10.509480476379395 L 35.50662612915039 10.470602989196777 L 35.61806869506836 10.239999771118164 L 35.70838928222656 10.05310344696045 L 35.82190704345703 9.818201065063477 L 35.86129379272461 9.736519813537598 L 36.20729446411133 8.98151969909668 L 36.2375602722168 8.911615371704102 L 36.52489471435547 8.246113777160645 L 36.541866302490234 8.20596981048584 L 36.547576904296875 8.192000389099121 L 36.81610107421875 7.535227298736572 L 36.85041809082031 7.451266288757324 L 36.86399841308594 7.415830135345459 L 36.877647399902344 7.380222797393799 L 37.13703536987305 6.703366756439209 L 37.15235900878906 6.6625895500183105 L 37.33960723876953 6.144000053405762 L 37.39864730834961 5.980493545532227 L 37.429420471191406 5.895139694213867 L 37.4537353515625 5.822956562042236 L 37.68429946899414 5.1356201171875 L 37.697853088378906 5.094336032867432 L 37.91531753540039 4.402633190155029 L 37.942420959472656 4.3161396980285645 L 37.96369552612305 4.242943286895752 L 38.006282806396484 4.0960001945495605 L 38.16543960571289 3.5468733310699463 L 38.173545837402344 3.5190131664276123 L 38.193302154541016 3.445436716079712 L 38.381072998046875 2.74587345123291 L 38.39097595214844 2.7076523303985596 L 38.391963958740234 2.703829765319824 L 38.40471649169922 2.651928186416626 L 38.55307388305664 2.0480000972747803 L 38.56489181518555 1.9998995065689087 L 38.586544036865234 1.911759853363037 L 38.60313415527344 1.83742356300354 L 38.728538513183594 1.2762246131896973 L 38.76121520996094 1.1299999952316284 L 38.77045822143555 1.0874497890472412 L 38.783241271972656 1.0240000486373901 L 38.9119987487793 0.3849207162857056 L 38.91368865966797 0.3765327632427216 L 38.93154525756836 0.2876331806182862 L 38.94509506225586 0.21266375482082372 L 38.983360290527344 4.440892164675075e-17 L 39.07347869873047 -0.5008733868598938 L 39.08082580566406 -0.5436768531799316 L 39.19436264038086 -1.2598340511322021 L 39.20854568481445 -1.3494935035705566 L 39.22285461425781 -1.4535895586013794 L 39.26886749267578 -1.7912927865982056 L 39.26938247680664 -1.7950615882873535 L 39.3038444519043 -2.0480000972747803 L 39.32067108154297 -2.1714935302734375 L 39.329410552978516 -2.247222661972046 L 39.41325378417969 -2.9677467346191406 L 39.413612365722656 -2.9707844257354736 L 39.41640090942383 -2.994319438934326 L 39.41667175292969 -2.9966201782226562 L 39.41933059692383 -3.02536678314209 L 39.48745346069336 -3.7467641830444336 L 39.49467086791992 -3.822620153427124 L 39.496826171875 -3.8516201972961426 L 39.514827728271484 -4.0960001945495605 L 39.55010223388672 -4.574764251708984 L 39.553436279296875 -4.620238304138184 L 39.555599212646484 -4.649721622467041 L 39.55567169189453 -4.650746822357178 L 39.55959701538086 -4.726855754852295 L 39.59715270996094 -5.450873374938965 L 39.598670959472656 -5.4797468185424805 L 39.601078033447266 -5.55598258972168 L 39.61952209472656 -6.144000053405762 L 39.62378692626953 -6.28000020980835 L 39.62434005737305 -6.303760051727295 L 39.62479782104492 -6.323436737060547 L 39.632659912109375 -7.048327445983887 L 39.633670806884766 -7.138999938964844 L 39.632659912109375 -7.229672431945801 L 39.62479782104492 -7.954563140869141 L 39.62434005737305 -7.974239826202393 L 39.62378692626953 -7.998000144958496 L 39.61771011352539 -8.192000389099121 L 39.601078033447266 -8.722890853881836 L 39.598670959472656 -8.799126625061035 L 39.59322738647461 -8.904109001159668 L 39.55567169189453 -9.627253532409668 L 39.54794692993164 -9.7322359085083 L 39.51054000854492 -10.239999771118164 L 39.49467086791992 -10.455379486083984 L 39.48745346069336 -10.531235694885254 L 39.4207878112793 -11.237200736999512 L 39.41933059692383 -11.252633094787598 L 39.41489791870117 -11.295816421508789 L 39.331058502197266 -12.016340255737305 L 39.32067108154297 -12.10650634765625 L 39.29594421386719 -12.288000106811523 L 39.22285461425781 -12.824410438537598 L 39.20854568481445 -12.928632736206055 L 39.19436264038086 -13.018165588378906 L 39.08082580566406 -13.734323501586914 L 39.07347869873047 -13.77712631225586 L 38.972923278808594 -14.336000442504883 L 38.94509506225586 -14.490663528442383 L 38.93154525756836 -14.565632820129395 L 38.91368865966797 -14.654532432556152 L 38.771827697753906 -15.358654975891113 L 38.77045822143555 -15.365449905395508 L 38.76121520996094 -15.407999992370605 L 38.60313415527344 -16.11454963684082 L 38.586544036865234 -16.188886642456055 L 38.56489181518555 -16.277027130126953 L 38.53864288330078 -16.384000778198242 L 38.391963958740234 -16.981830596923828 L 38.38736343383789 -16.99959945678711 L 38.381072998046875 -17.023874282836914 L 38.193302154541016 -17.72343635559082 L 38.17392349243164 -17.795612335205078 L 38.173545837402344 -17.797012329101562 L 38.16543960571289 -17.824872970581055 L 37.98947525024414 -18.43199920654297 L 37.96369552612305 -18.52094268798828 L 37.942420959472656 -18.594139099121094 L 37.91531753540039 -18.680633544921875 L 37.697853088378906 -19.37233543395996 L 37.68429946899414 -19.413619995117188 L 37.53782653808594 -19.850269317626953 L 37.4537353515625 -20.100955963134766 L 37.429420471191406 -20.173139572143555 L 37.42466354370117 -20.18633460998535 L 37.39864730834961 -20.258493423461914 L 37.31866455078125 -20.479999542236328 L 37.15235900878906 -20.940589904785156 L 37.13703536987305 -20.981367111206055 L 36.877647399902344 -21.658222198486328 L 36.86399841308594 -21.693830490112305 L 36.85881423950195 -21.707359313964844 L 36.85041809082031 -21.729267120361328 L 36.81610107421875 -21.8132266998291 L 36.70841598510742 -22.076610565185547 L 36.541866302490234 -22.48396873474121 L 36.52489471435547 -22.524112701416016 L 36.523216247558594 -22.527999877929688 L 36.276248931884766 -23.10000991821289 L 36.2375602722168 -23.18961524963379 L 36.20729446411133 -23.259519577026367 L 35.86129379272461 -24.01451873779297 L 35.82190704345703 -24.096200942993164 L 35.70838928222656 -24.331104278564453 L 35.59003829956055 -24.576000213623047 L 35.50662612915039 -24.74860191345215 L 35.48712158203125 -24.787479400634766 L 35.4835319519043 -24.79451560974121 L 35.15786361694336 -25.43289566040039 L 35.12618637084961 -25.495092391967773 L 35.123291015625 -25.50077247619629 L 35.08720016479492 -25.567890167236328 L 34.816001892089844 -26.074316024780273 L 34.744842529296875 -26.207191467285156 L 34.72407531738281 -26.245437622070312 L 34.51096725463867 -26.624000549316406 L 34.368614196777344 -26.876876831054688 L 34.32416534423828 -26.955772399902344 L 34.2779426574707 -27.03390884399414 L 33.908512115478516 -27.657489776611328 L 33.885841369628906 -27.69459342956543 L 33.525455474853516 -28.276819229125977 L 33.50418472290039 -28.311187744140625 L 33.46403884887695 -28.375900268554688 L 33.46331787109375 -28.37701416015625 L 33.414649963378906 -28.452009201049805 L 33.27178192138672 -28.672000885009766 L 33.040199279785156 -29.02859878540039 L 33.01988983154297 -29.05986976623535 L 32.995704650878906 -29.09596061706543 L 32.768001556396484 -29.430444717407227 L 32.58784103393555 -29.695087432861328 L 32.545040130615234 -29.75815200805664 L 32.06404113769531 -30.435152053833008 L 32.018577575683594 -30.496318817138672 L 31.852327346801758 -30.719999313354492 L 31.586261749267578 -31.077978134155273 L 31.585254669189453 -31.07931137084961 L 31.560047149658203 -31.1126766204834 L 31.11638069152832 -31.68560218811035 L 31.080896377563477 -31.731351852416992 L 31.0607852935791 -31.757280349731445 L 30.60401725769043 -32.32059860229492 L 30.537912368774414 -32.402278900146484 L 30.488651275634766 -32.460533142089844 L 30.22919464111328 -32.768001556396484 L 30.02140235900879 -33.014244079589844 L 30.00278663635254 -33.036407470703125 L 29.983537673950195 -33.058189392089844 L 29.504060745239258 -33.602291107177734 L 29.453659057617188 -33.65940475463867 L 29.41716766357422 -33.69907760620117 L 28.891658782958984 -34.27040481567383 L 28.838977813720703 -34.32549285888672 L 28.672000885009766 -34.4997444152832 L 28.36894416809082 -34.816001892089844 L 28.33766746520996 -34.848636627197266 L 28.317533493041992 -34.86953353881836 L 27.730533599853516 -35.4565315246582 L 27.709636688232422 -35.47666931152344 L 27.186492919921875 -35.97797775268555 L 27.131406784057617 -36.03065872192383 L 26.624000549316406 -36.497371673583984 L 26.52040672302246 -36.59265899658203 L 26.452402114868164 -36.652687072753906 L 26.212604522705078 -36.86399841308594 L 25.961383819580078 -37.08538055419922 L 25.908296585083008 -37.13216018676758 L 25.875244140625 -37.160400390625 L 25.321533203125 -37.62765121459961 L 25.269664764404297 -37.671607971191406 L 25.26340675354004 -37.67691421508789 L 25.181598663330078 -37.743019104003906 L 24.6182804107666 -38.19978713989258 L 24.576000213623047 -38.23257827758789 L 24.546602249145508 -38.25537872314453 L 23.973676681518555 -38.69904708862305 L 23.940311431884766 -38.7242546081543 L 23.93897819519043 -38.72526168823242 L 23.68773078918457 -38.9119987487793 L 23.357318878173828 -39.15757751464844 L 23.3117618560791 -39.191436767578125 L 23.296152114868164 -39.203041076660156 L 23.006948471069336 -39.40851593017578 L 22.62348747253418 -39.68096160888672 L 22.619152069091797 -39.68404006958008 L 22.556087493896484 -39.72684097290039 L 22.527999877929688 -39.74596405029297 L 21.956960678100586 -40.13470458984375 L 21.920869827270508 -40.15888977050781 L 21.31300926208496 -40.55364990234375 L 21.238014221191406 -40.602317810058594 L 21.236900329589844 -40.6030387878418 L 21.17218780517578 -40.643184661865234 L 21.137819290161133 -40.66445541381836 L 20.660350799560547 -40.959999084472656 L 20.555593490600586 -41.02484130859375 L 20.518489837646484 -41.04751205444336 L 20.479999542236328 -41.0703125 L 19.894908905029297 -41.41694259643555 L 19.8167724609375 -41.463165283203125 L 19.737876892089844 -41.50761413574219 L 19.45599937438965 -41.66629409790039 L 19.154621124267578 -41.8359489440918 L 19.106435775756836 -41.863075256347656 L 19.068191528320312 -41.88384246826172 L 18.43199920654297 -42.22453689575195 L 18.428890228271484 -42.226200103759766 L 18.363792419433594 -42.261207580566406 L 18.361772537231445 -42.262290954589844 L 18.293895721435547 -42.2968635559082 L 18.04401969909668 -42.424339294433594 L 17.648479461669922 -42.626121520996094 L 17.62264633178711 -42.6392936706543 L 17.58913803100586 -42.65547561645508 L 17.570470809936523 -42.664493560791016 L 17.217348098754883 -42.834991455078125 L 17.216102600097656 -42.835594177246094 L 17.163484573364258 -42.861000061035156 L 17.164905548095703 -42.861000061035156 L 17.220626831054688 -42.861000061035156 L 17.222000122070312 -42.861000061035156 L 17.226280212402344 -42.861000061035156 L 17.228954315185547 -42.861000061035156 L 17.288026809692383 -42.861000061035156 L 17.312990188598633 -42.861000061035156 L 17.35204315185547 -42.861000061035156 L 18.43199920654297 -42.861000061035156 L 19.45599937438965 -42.861000061035156 L 20.479999542236328 -42.861000061035156 L 24.576000213623047 -42.861000061035156 L 32.768001556396484 -42.861000061035156 L 50 -42.861000061035156 L 50 -32.768001556396484 L 50 -16.384000778198242 L 50 4.440892164675075e-17 L 50 16.384000778198242 L 50 32.768001556396484 L 50 42.861000061035156 L 32.768001556396484 42.861000061035156 L 16.384000778198242 42.861000061035156 L 8.192000389099121 42.861000061035156 L 0 42.861000061035156 L -19.738330841064453 42.861000061035156 L -19.739261627197266 42.861000061035156 L -32.768001556396484 42.861000061035156 L -50 42.861000061035156 L -50 32.768001556396484 L -50 16.384000778198242 L -50 4.440892164675075e-17 L -50 -16.384000778198242 L -50 -32.768001556396484 L -50 -42.861000061035156 L -32.768001556396484 -42.861000061035156 L -24.576000213623047 -42.861000061035156 L -20.479999542236328 -42.861000061035156 L -18.43199920654297 -42.861000061035156 L -17.22783851623535 -42.861000061035156 L -17.164905548095703 -42.861000061035156 L -17.163484573364258 -42.861000061035156 L -17.570470809936523 -42.664493560791016 L -17.58913803100586 -42.65547561645508 L -17.60205841064453 -42.64923858642578 L -17.62264633178711 -42.6392936706543 L -17.648479461669922 -42.626121520996094 L -18.293895721435547 -42.2968635559082 L -18.35609245300293 -42.26518630981445 L -18.361772537231445 -42.262290954589844 L -18.428890228271484 -42.226200103759766 L -18.43199920654297 -42.22453689575195 L -19.068191528320312 -41.88384246826172 L -19.106435775756836 -41.863075256347656 L -19.737876892089844 -41.50761413574219 L -19.8167724609375 -41.463165283203125 L -19.894908905029297 -41.41694259643555 L -20.479999542236328 -41.0703125 L -20.518489837646484 -41.04751205444336 L -20.555593490600586 -41.02484130859375 L -20.660350799560547 -40.959999084472656 L -21.137819290161133 -40.66445541381836 L -21.17218780517578 -40.643184661865234 L -21.236900329589844 -40.6030387878418 L -21.238014221191406 -40.602317810058594 L -21.31300926208496 -40.55364990234375 L -21.920869827270508 -40.15888977050781 L -21.956960678100586 -40.13470458984375 L -22.527999877929688 -39.74596405029297 L -22.556087493896484 -39.72684097290039 L -22.619152069091797 -39.68404006958008 L -22.62348747253418 -39.68096160888672 L -23.296100616455078 -39.20307540893555 L -23.296152114868164 -39.203041076660156 L -23.357318878173828 -39.15757751464844 L -23.68773078918457 -38.9119987487793 L -23.93897819519043 -38.72526168823242 L -23.973676681518555 -38.69904708862305 L -24.546602249145508 -38.25537872314453 L -24.576000213623047 -38.23257827758789 L -24.6182804107666 -38.19978713989258 L -25.181598663330078 -37.743019104003906 L -25.26340675354004 -37.67691421508789 L -25.269664764404297 -37.671607971191406 L -25.321533203125 -37.62765121459961 L -25.875244140625 -37.160400390625 L -25.908296585083008 -37.13216018676758 L -25.961383819580078 -37.08538055419922 L -26.212604522705078 -36.86399841308594 L -26.389707565307617 -36.70793151855469 L -26.452402114868164 -36.652687072753906 L -26.52040672302246 -36.59265899658203 L -26.624000549316406 -36.497371673583984 L -27.131406784057617 -36.03065872192383 L -27.186492919921875 -35.97797775268555 L -27.709636688232422 -35.47666931152344 L -27.730533599853516 -35.4565315246582 L -28.317533493041992 -34.86953353881836 L -28.33766746520996 -34.848636627197266 L -28.36894416809082 -34.816001892089844 L -28.672000885009766 -34.4997444152832 L -28.838977813720703 -34.32549285888672 L -28.891658782958984 -34.27040481567383 L -29.33169937133789 -33.79199981689453 L -29.453659057617188 -33.65940475463867 L -29.51368522644043 -33.591400146484375 L -29.993162155151367 -33.047298431396484 L -30.02140235900879 -33.014244079589844 L -30.22919464111328 -32.768001556396484 L -30.488651275634766 -32.460533142089844 L -30.534835815429688 -32.40591812133789 L -30.537912368774414 -32.402278900146484 L -30.60401725769043 -32.32059860229492 L -31.0607852935791 -31.757280349731445 L -31.11638069152832 -31.68560218811035 L -31.560047149658203 -31.1126766204834 L -31.586261749267578 -31.077978134155273 L -31.852327346801758 -30.719999313354492 L -32.018577575683594 -30.496318817138672 L -32.06404113769531 -30.435152053833008 L -32.0640754699707 -30.435100555419922 L -32.545040130615234 -29.75815200805664 L -32.58784103393555 -29.695087432861328 L -32.768001556396484 -29.430444717407227 L -32.995704650878906 -29.09596061706543 L -33.01988983154297 -29.05986976623535 L -33.040199279785156 -29.02859878540039 L -33.27178192138672 -28.672000885009766 L -33.414649963378906 -28.452009201049805 L -33.46331787109375 -28.37701416015625 L -33.46403884887695 -28.375900268554688 L -33.50418472290039 -28.311187744140625 L -33.525455474853516 -28.276819229125977 L -33.885841369628906 -27.69459342956543 L -33.908512115478516 -27.657489776611328 L -34.2779426574707 -27.03390884399414 L -34.32416534423828 -26.955772399902344 L -34.368614196777344 -26.876876831054688 L -34.51096725463867 -26.624000549316406 L -34.72407531738281 -26.245437622070312 L -34.744842529296875 -26.207191467285156 L -35.08720016479492 -25.567890167236328 L -35.12211990356445 -25.502952575683594 L -35.123291015625 -25.50077247619629 L -35.164451599121094 -25.419979095458984 L -35.49370574951172 -24.77456283569336 L -35.51295471191406 -24.735559463500977 L -35.590065002441406 -24.576000213623047 L -35.82823944091797 -24.08315658569336 L -35.86129379272461 -24.01451873779297 L -36.20729446411133 -23.259519577026367 L -36.2375602722168 -23.18961524963379 L -36.523216247558594 -22.527999877929688 L -36.52489471435547 -22.524112701416016 L -36.541866302490234 -22.48396873474121 L -36.81610107421875 -21.8132266998291 L -36.85041809082031 -21.729267120361328 L -36.86399841308594 -21.693830490112305 L -36.877647399902344 -21.658222198486328 L -37.13703536987305 -20.981367111206055 L -37.15235900878906 -20.940589904785156 L -37.31866455078125 -20.479999542236328 L -37.39864730834961 -20.258493423461914 L -37.429420471191406 -20.173139572143555 L -37.4537353515625 -20.100955963134766 L -37.68429946899414 -19.413619995117188 L -37.697853088378906 -19.37233543395996 L -37.91531753540039 -18.680633544921875 L -37.942420959472656 -18.594139099121094 L -37.96369552612305 -18.52094268798828 L -37.98947525024414 -18.43199920654297 L -38.16543960571289 -17.824872970581055 L -38.173545837402344 -17.797012329101562 L -38.17392349243164 -17.795612335205078 L -38.193302154541016 -17.72343635559082 L -38.381072998046875 -17.023874282836914 L -38.391963958740234 -16.981830596923828 L -38.53864288330078 -16.384000778198242 L -38.56489181518555 -16.277027130126953 L -38.58607482910156 -16.190797805786133 L -38.586544036865234 -16.188886642456055 L -38.60313415527344 -16.11454963684082 L -38.73122787475586 -15.542022705078125 L -38.74420166015625 -15.484045028686523 L -38.76121520996094 -15.407999992370605 L -38.764095306396484 -15.394742012023926 L -38.77045822143555 -15.365449905395508 L -38.77155685424805 -15.359999656677246 L -38.9119987487793 -14.662920951843262 L -38.91368865966797 -14.654532432556152 L -38.93154525756836 -14.565632820129395 L -38.94509506225586 -14.490663528442383 L -38.972923278808594 -14.336000442504883 L -39.07347869873047 -13.77712631225586 L -39.08082580566406 -13.734323501586914 L -39.19436264038086 -13.018165588378906 L -39.20854568481445 -12.928632736206055 L -39.22285461425781 -12.824410438537598 L -39.29594421386719 -12.288000106811523 L -39.32067108154297 -12.10650634765625 L -39.331058502197266 -12.016340255737305 L -39.41489791870117 -11.295816421508789 L -39.41933059692383 -11.252633094787598 L -39.4207878112793 -11.237200736999512 L -39.48745346069336 -10.531235694885254 L -39.49467086791992 -10.455379486083984 L -39.49486541748047 -10.45273208618164 L -39.50239562988281 -10.350397109985352 L -39.51053237915039 -10.239999771118164 L -39.55567169189453 -9.627253532409668 L -39.59322738647461 -8.904109001159668 L -39.598670959472656 -8.799126625061035 L -39.601078033447266 -8.722890853881836 L -39.61771011352539 -8.192000389099121 L -39.62378692626953 -7.998000144958496 L -39.62479782104492 -7.954563140869141 L -39.632659912109375 -7.229672431945801 L -39.633670806884766 -7.138999938964844 L -39.6336555480957 -7.137641906738281 L -39.632659912109375 -7.048327445983887 L -39.62479782104492 -6.323436737060547 L -39.62434005737305 -6.303760051727295 L -39.62378692626953 -6.28000020980835 L -39.61952209472656 -6.144000053405762 L -39.601078033447266 -5.55598258972168 L -39.598670959472656 -5.4797468185424805 L -39.59715270996094 -5.450873374938965 L -39.55959701538086 -4.726855754852295 L -39.55567169189453 -4.650746822357178 L -39.555599212646484 -4.649721622467041 L -39.553436279296875 -4.620238304138184 L -39.55010223388672 -4.574764251708984 L -39.514827728271484 -4.0960001945495605 L -39.496826171875 -3.8516201972961426 L -39.49467086791992 -3.822620153427124 L -39.48745346069336 -3.7467641830444336 L -39.423736572265625 -3.072000026702881 L -39.41994094848633 -3.0318353176116943 L -39.41933059692383 -3.02536678314209 L -39.41690444946289 -2.999110460281372 L -39.41667175292969 -2.9966201782226562 L -39.41325378417969 -2.9677467346191406 L -39.329410552978516 -2.247222661972046 L -39.32067108154297 -2.1714935302734375 L -39.3038444519043 -2.0480000972747803 L -39.22285461425781 -1.4535895586013794 L -39.20854568481445 -1.3494935035705566 L -39.19436264038086 -1.2598340511322021 L -39.08082580566406 -0.5436768531799316 L -39.07347869873047 -0.5008733868598938 L -38.983360290527344 4.440892164675075e-17 L -38.94509506225586 0.21266375482082372 L -38.93154525756836 0.2876331806182862 L -38.91368865966797 0.3765327632427216 L -38.77045822143555 1.0874497890472412 L -38.76121520996094 1.1299999952316284 L -38.60313415527344 1.83742356300354 L -38.586544036865234 1.911759853363037 L -38.586307525634766 1.912723183631897 L -38.56489181518555 1.9998995065689087 L -38.55307388305664 2.0480000972747803 L -38.391963958740234 2.703829765319824 L -38.39152526855469 2.705522060394287 L -38.381072998046875 2.74587345123291 L -38.193302154541016 3.445436716079712 L -38.173545837402344 3.5190131664276123 L -38.16543960571289 3.5468733310699463 L -38.006282806396484 4.0960001945495605 L -37.96369552612305 4.242943286895752 L -37.942420959472656 4.3161396980285645 L -37.91531753540039 4.402633190155029 L -37.697853088378906 5.094336032867432 L -37.68429946899414 5.1356201171875 L -37.4537353515625 5.822956562042236 L -37.429420471191406 5.895139694213867 L -37.39864730834961 5.980493545532227 L -37.33960723876953 6.144000053405762 L -37.15235900878906 6.6625895500183105 L -37.13703536987305 6.703366756439209 L -36.877647399902344 7.380222797393799 L -36.86399841308594 7.415830135345459 L -36.85041809082031 7.451266288757324 L -36.81610107421875 7.535227298736572 L -36.547576904296875 8.192000389099121 L -36.541866302490234 8.20596981048584 L -36.52489471435547 8.246113777160645 L -36.27526092529297 8.82429313659668 L -36.2375602722168 8.911615371704102 L -36.20729446411133 8.98151969909668 L -36.09983444213867 9.215999603271484 L -35.86129379272461 9.736519813537598 L -35.82823944091797 9.805157661437988 L -35.71543884277344 10.038575172424316 L -35.61809539794922 10.239999771118164 L -35.51295471191406 10.457558631896973 L -35.50029373168945 10.483646392822266 L -35.48712158203125 10.509480476379395 L -35.4835319519043 10.51651668548584 L -35.28533935546875 10.905019760131836 L -35.15786361694336 11.154894828796387 L -35.12618637084961 11.217092514038086 L -35.123291015625 11.222772598266602 L -35.08720016479492 11.289891242980957 L -34.816001892089844 11.796317100524902 L -34.744842529296875 11.929192543029785 L -34.72407531738281 11.967436790466309 L -34.543617248535156 12.288000106811523 L -34.368614196777344 12.598877906799316 L -34.32416534423828 12.677772521972656 L -34.2779426574707 12.755908012390137 L -33.908512115478516 13.379488945007324 L -33.885841369628906 13.416593551635742 L -33.50418472290039 14.033187866210938 L -33.46403884887695 14.097899436950684 L -33.414649963378906 14.1740083694458 L -33.3094482421875 14.336000442504883 L -33.01988983154297 14.781868934631348 L -32.995704650878906 14.817960739135742 L -32.768001556396484 15.152444839477539 L -32.58784103393555 15.41708755493164 L -32.547367095947266 15.476720809936523 L -32.545040130615234 15.48015308380127 L -32.5008430480957 15.542204856872559 L -32.08075714111328 16.133472442626953 L -32.06404113769531 16.15715217590332 L -32.06156539916992 16.160478591918945 L -32.018577575683594 16.218318939208984 L -31.895435333251953 16.384000778198242 L -31.586261749267578 16.799978256225586 L -31.585254669189453 16.801311492919922 L -31.560047149658203 16.83467674255371 L -31.11638069152832 17.407602310180664 L -31.09855079650879 17.43058967590332 L -31.0607852935791 17.479278564453125 L -30.719999313354492 17.899560928344727 L -30.60401725769043 18.042598724365234 L -30.537912368774414 18.124406814575195 L -30.488651275634766 18.182533264160156 z" fill="none" stroke="rgb(0,0,255)" stroke-width="0.01mm" />
</svg>