<?xml version="1.0" standalone="no"?>
<!DOCTYPE svg PUBLIC "-//W3C//DTD SVG 1.1//EN"
  "http://www.w3.org/Graphics/SVG/1.1/DTD/svg11.dtd">
<svg width="102mm" height="68.25199890136719mm" viewBox="-51 -34.125999450683594 102 68.25199890136719" xmlns="http://www.w3.org/2000/svg" version="1.1">
	<title>svgOutput</title>
	<desc>made with tinkercad</desc>
<path d="M -50 33.125999450683594 L -50 4.440892164675075e-17 L -50 -16.384000778198242 L -50 -32.768001556396484 L -50 -33.125999450683594 L -41.63600158691406 -33.125999450683594 L -41.82633972167969 -32.768001556396484 L -44.2457160949707 -28.217531204223633 L -44.24599838256836 -28.216999053955078 L -38.774898529052734 -25.30820083618164 L -38.124183654785156 -24.96225357055664 L -38.12381362915039 -24.96205711364746 L -38.123817443847656 -24.9620418548584 L -38.20160675048828 -24.576000213623047 L -38.24135971069336 -24.378711700439453 L -38.281375885009766 -24.179433822631836 L -38.28184509277344 -24.177093505859375 L -38.382598876953125 -23.61638069152832 L -38.42146682739258 -23.40018653869629 L -38.52002716064453 -22.783987045288086 L -38.5545768737793 -22.56725311279297 L -38.58086013793945 -22.372316360473633 L -38.58812713623047 -22.313880920410156 L -38.588748931884766 -22.313793182373047 L -38.59538650512695 -22.31285858154297 L -38.657958984375 -22.304059982299805 L -38.6619758605957 -22.303495407104492 L -38.663963317871094 -22.30321502685547 L -39.319000244140625 -22.21109962463379 L -45.457000732421875 -21.347999572753906 L -45.45699691772461 -21.347976684570312 L -44.75937271118164 -16.384000778198242 L -42.46309280395508 -0.044649038463830906 L -42.4630012512207 -0.04399999976158138 L -36.32680130004883 -0.9061999917030334 L -35.61366271972656 -1.00632643699646 L -35.59672164916992 -1.008704662322998 L -35.59641647338867 -1.0087476968765259 L -35.348915100097656 -0.4677476286888122 L -35.26335525512695 -0.2809730172157287 L -35.167808532714844 -0.08313225209712978 L -35.12748718261719 4.440892164675075e-17 L -34.895484924316406 0.4783104062080384 L -34.7958869934082 0.6739919185638428 L -34.53743362426758 1.1814075708389282 L -34.4439811706543 1.3551700115203857 L -34.4156494140625 1.4068362712860107 L -34.41600799560547 1.4071829319000244 L -34.420318603515625 1.4113422632217407 L -34.425350189208984 1.416200876235962 L -34.425636291503906 1.4164774417877197 L -34.42929458618164 1.4200090169906616 L -34.437870025634766 1.4282917976379395 L -34.94649887084961 1.9193999767303467 L -39.40599822998047 6.224999904632568 L -39.4051628112793 6.22586727142334 L -32.768001556396484 13.09885025024414 L -29.59556770324707 16.384000778198242 L -24.576000213623047 21.5819149017334 L -24.4625244140625 21.699420928955078 L -24.461496353149414 21.700485229492188 L -24.461000442504883 21.701000213623047 L -23.19660186767578 20.479999542236328 L -20.003299713134766 17.396299362182617 L -19.504146575927734 16.914194107055664 L -19.47285270690918 16.883970260620117 L -18.960901260375977 17.173114776611328 L -18.775327682495117 17.2777042388916 L -18.24966049194336 17.559520721435547 L -18.056137084960938 17.663434982299805 L -18.0501651763916 17.666471481323242 L -17.547992706298828 17.92188835144043 L -17.359731674194336 18.0177059173584 L -17.352310180664062 18.021482467651367 L -17.29913902282715 18.0471248626709 L -17.097633361816406 18.144956588745117 L -17.09978485107422 18.157169342041016 L -17.0999813079834 18.15828514099121 L -17.102813720703125 18.174358367919922 L -17.110183715820312 18.216190338134766 L -17.110532760620117 18.218181610107422 L -17.11154556274414 18.223920822143555 L -17.118318557739258 18.26236343383789 L -17.22559928894043 18.871299743652344 L -17.50925064086914 20.479999542236328 L -18.231470108032227 24.576000213623047 L -18.302000045776367 24.97599983215332 L -18.301151275634766 24.976150512695312 L -18.29981231689453 24.97638511657715 L -16.384000778198242 25.314208984375 L 3.190826644789216e-14 28.203275680541992 L 2.884999990463257 28.711999893188477 L 3.613877773284912 24.576000213623047 L 3.7099761962890625 24.030691146850586 L 3.9605000019073486 22.609100341796875 L 4.069649696350098 21.990327835083008 L 4.0702104568481445 21.987146377563477 L 4.071676254272461 21.978836059570312 L 4.077244758605957 21.947269439697266 L 4.083198070526123 21.91351890563965 L 4.085754871368408 21.899024963378906 L 4.088636875152588 21.882686614990234 L 4.08878231048584 21.88266944885254 L 4.680013656616211 21.814058303833008 L 4.884332180023193 21.790576934814453 L 5.475708484649658 21.71026611328125 L 5.6498823165893555 21.686279296875 L 5.6932525634765625 21.68030548095703 L 6.269297122955322 21.588314056396484 L 6.471376895904541 21.556354522705078 L 6.4860310554504395 21.55403709411621 L 6.544330596923828 21.54351043701172 L 6.751553535461426 21.50702667236328 L 6.751677513122559 21.50700569152832 L 7.074900150299072 22.170000076293945 L 8.192000389099121 24.4604434967041 L 8.248359680175781 24.576000213623047 L 9.791999816894531 27.740999221801758 L 9.792206764221191 27.74090003967285 L 9.792800903320312 27.740610122680664 L 16.281408309936523 24.576000213623047 L 16.384000778198242 24.525964736938477 L 29.128999710083008 18.309999465942383 L 28.18934440612793 16.384000778198242 L 26.41189956665039 12.740799903869629 L 26.108861923217773 12.119621276855469 L 26.101911544799805 12.10537338256836 L 26.096858978271484 12.095017433166504 L 26.096240997314453 12.093750953674316 L 26.08852195739746 12.077927589416504 L 26.521879196166992 11.679902076721191 L 26.659515380859375 11.553505897521973 L 26.67888069152832 11.535721778869629 L 26.679391860961914 11.535231590270996 L 27.10890769958496 11.122488975524902 L 27.26734161376953 10.970531463623047 L 27.841394424438477 10.396478652954102 L 27.844532012939453 10.393341064453125 L 27.885557174682617 10.35042667388916 L 28.022008895874023 10.208136558532715 L 28.022085189819336 10.20805835723877 L 28.034015655517578 10.214405059814453 L 28.126245498657227 10.263471603393555 L 28.673099517822266 10.554400444030762 L 32.768001556396484 12.73215103149414 L 34.145999908447266 13.46500015258789 L 34.14625549316406 13.464522361755371 L 34.14670944213867 13.463665008544922 L 41.30521774291992 4.440892164675075e-17 L 44.245304107666016 -5.529693603515625 L 44.24599838256836 -5.531000137329102 L 39.24098205566406 -8.192000389099121 L 38.774898529052734 -8.439800262451172 L 38.23545837402344 -8.726811408996582 L 38.12390899658203 -8.786162376403809 L 38.12381362915039 -8.786211967468262 L 38.24135971069336 -9.370287895202637 L 38.28137969970703 -9.56932544708252 L 38.28184509277344 -9.571637153625488 L 38.382598876953125 -10.132349967956543 L 38.42146682739258 -10.348544120788574 L 38.52002716064453 -10.96401309967041 L 38.5545768737793 -11.181017875671387 L 38.58086013793945 -11.376683235168457 L 38.58812713623047 -11.43511962890625 L 38.588722229003906 -11.435203552246094 L 38.60026931762695 -11.4368257522583 L 39.319000244140625 -11.537799835205078 L 40.959999084472656 -11.768309593200684 L 45.457000732421875 -12.399999618530273 L 45.456756591796875 -12.401741027832031 L 44.897247314453125 -16.384000778198242 L 42.595298767089844 -32.768001556396484 L 42.54499816894531 -33.125999450683594 L 50 -33.125999450683594 L 50 -32.768001556396484 L 50 -16.384000778198242 L 50 4.440892164675075e-17 L 50 33.125999450683594 L 32.768001556396484 33.125999450683594 L 0 33.125999450683594 L -32.768001556396484 33.125999450683594 L -50 33.125999450683594 M 35.915000915527344 -32.784000396728516 L 35.80110549926758 -32.768001556396484 L 35.63148880004883 -32.744171142578125 L 35.60989761352539 -32.74113845825195 L 35.59636688232422 -32.73923873901367 L 35.583194732666016 -32.768001556396484 L 35.467620849609375 -33.020408630371094 L 35.41944885253906 -33.125999450683594 L 35.43362808227539 -33.125999450683594 L 35.454345703125 -33.125999450683594 L 38.345001220703125 -33.125999450683594 L 35.915000915527344 -32.784000396728516 z" fill="none" stroke="rgb(0,0,255)" stroke-width="0.01mm" />
</svg>