<?xml version="1.0" standalone="no"?>
<!DOCTYPE svg PUBLIC "-//W3C//DTD SVG 1.1//EN"
  "http://www.w3.org/Graphics/SVG/1.1/DTD/svg11.dtd">
<svg width="102mm" height="74.48600006103516mm" viewBox="-51 -37.24300003051758 102 74.48600006103516" xmlns="http://www.w3.org/2000/svg" version="1.1">
	<title>svgOutput</title>
	<desc>made with tinkercad</desc>
<path d="M 38.13214874267578 -6.431206703186035 L 38.14217758178711 -6.480833530426025 L 38.27571487426758 -7.2236328125 L 38.28610610961914 -7.281543254852295 L 38.29533386230469 -7.339598655700684 L 38.39366912841797 -7.97472620010376 L 38.41105270385742 -8.085345268249512 L 38.413787841796875 -8.104670524597168 L 38.42615509033203 -8.192000389099121 L 38.436336517333984 -8.263916015625 L 38.44092559814453 -8.286412239074707 L 38.44245147705078 -8.297747611999512 L 38.68013000488281 -8.331197738647461 L 39.18939971923828 -8.401900291442871 L 45.457000732421875 -9.282999992370605 L 45.456729888916016 -9.284917831420898 L 45.456642150878906 -9.285544395446777 L 44.4590950012207 -16.384000778198242 L 43.30786895751953 -24.576000213623047 L 42.4631233215332 -30.587108612060547 L 42.46308135986328 -30.58742332458496 L 42.4630012512207 -30.58799934387207 L 40.959999084472656 -30.376678466796875 L 36.86399841308594 -29.800779342651367 L 36.1963005065918 -29.706899642944336 L 35.46579360961914 -29.604082107543945 L 35.45878219604492 -29.60309410095215 L 35.45046615600586 -29.601924896240234 L 35.3862190246582 -29.739877700805664 L 35.23972702026367 -30.05440330505371 L 35.15541076660156 -30.24446678161621 L 35.13433837890625 -30.2905330657959 L 35.1087646484375 -30.343502044677734 L 35.009063720703125 -30.549665451049805 L 34.92668533325195 -30.719999313354492 L 34.780487060546875 -31.022315979003906 L 34.753746032714844 -31.074703216552734 L 34.646644592285156 -31.282268524169922 L 34.30903625488281 -31.935104370117188 L 34.30900573730469 -31.935161590576172 L 34.33029556274414 -31.955726623535156 L 34.78839874267578 -32.39820098876953 L 35.171356201171875 -32.768001556396484 L 38.77000045776367 -36.24300003051758 L 38.770057678222656 -36.24300003051758 L 50 -36.24300003051758 L 50 -32.768001556396484 L 50 -16.384000778198242 L 50 4.440892164675075e-17 L 50 25.013280868530273 L 50 36.24300003051758 L 32.768001556396484 36.24300003051758 L 0 36.24300003051758 L -32.768001556396484 36.24300003051758 L -50 36.24300003051758 L -50 32.768001556396484 L -50 16.384000778198242 L -50 4.440892164675075e-17 L -50 -16.384000778198242 L -50 -32.768001556396484 L -50 -36.24300003051758 L -38.321998596191406 -36.24300003051758 L -40.169429779052734 -32.768001556396484 L -44.2454948425293 -25.100950241088867 L -44.24599838256836 -25.100000381469727 L -43.26038360595703 -24.576000213623047 L -40.959999084472656 -23.35300636291504 L -38.657901763916016 -22.129100799560547 L -38.20500946044922 -21.888273239135742 L -38.00751495361328 -21.783279418945312 L -37.99304962158203 -21.775588989257812 L -37.9930534362793 -21.775564193725586 L -38.13214874267578 -21.082866668701172 L -38.14217758178711 -21.033166885375977 L -38.24162292480469 -20.479999542236328 L -38.27571487426758 -20.290367126464844 L -38.28610610961914 -20.232528686523438 L -38.29533386230469 -20.174402236938477 L -38.39366912841797 -19.540063858032227 L -38.41105270385742 -19.429445266723633 L -38.41340637207031 -19.41275978088379 L -38.436336517333984 -19.250083923339844 L -38.44092559814453 -19.228515625 L -38.44174575805664 -19.222414016723633 L -38.44244384765625 -19.217220306396484 L -38.44245147705078 -19.217180252075195 L -38.461219787597656 -19.214542388916016 L -38.68013000488281 -19.18377113342285 L -39.18939971923828 -19.11210060119629 L -40.959999084472656 -18.863189697265625 L -45.457000732421875 -18.231000900268555 L -45.456844329833984 -18.229887008666992 L -45.19742965698242 -16.384000778198242 L -42.89487075805664 4.440892164675075e-17 L -42.4631233215332 3.0721094608306885 L -42.4630012512207 3.072999954223633 L -40.959999084472656 2.861893653869629 L -36.86399841308594 2.2865829467773438 L -36.1963005065918 2.1928000450134277 L -35.50681686401367 2.0958473682403564 L -35.484344482421875 2.0926876068115234 L -35.484344482421875 2.0926873683929443 L -35.46745681762695 2.0903127193450928 L -35.46580123901367 2.090080499649048 L -35.46540832519531 2.090024948120117 L -35.45878219604492 2.0890932083129883 L -35.454349517822266 2.0884697437286377 L -35.450504302978516 2.087928533554077 L -35.45046615600586 2.087923288345337 L -35.23972702026367 2.5401930809020996 L -35.15541076660156 2.729466676712036 L -35.134864807128906 2.774458169937134 L -35.13433837890625 2.7756059169769287 L -35.1087646484375 2.8285024166107178 L -34.816001892089844 3.4347050189971924 L -34.780487060546875 3.508242607116699 L -34.753746032714844 3.5606305599212646 L -34.646644592285156 3.768268346786499 L -34.4771614074707 4.0960001945495605 L -34.309757232666016 4.419708251953125 L -34.30900573730469 4.421161651611328 L -34.312705993652344 4.424734592437744 L -34.85200119018555 4.945499897003174 L -38.21480178833008 8.192000389099121 L -39.40599822998047 9.342000007629395 L -39.40459442138672 9.34345531463623 L -39.40278244018555 9.345331192016602 L -32.768001556396484 16.215850830078125 L -32.60561752319336 16.384000778198242 L -24.6946964263916 24.576000213623047 L -24.461196899414062 24.817794799804688 L -24.461000442504883 24.81800079345703 L -24.21038055419922 24.576000213623047 L -19.968482971191406 20.479999542236328 L -19.907899856567383 20.421499252319336 L -19.492687225341797 20.020605087280273 L -19.365734100341797 19.89800453186035 L -19.365718841552734 19.898014068603516 L -18.750839233398438 20.244853973388672 L -18.70673370361328 20.269775390625 L -18.705219268798828 20.270586013793945 L -18.65485382080078 20.297531127929688 L -18.31503677368164 20.479999542236328 L -17.989952087402344 20.654558181762695 L -17.940195083618164 20.67988395690918 L -17.937564849853516 20.681224822998047 L -17.265243530273438 21.023412704467773 L -17.254924774169922 21.028425216674805 L -17.071765899658203 21.114164352416992 L -17.072296142578125 21.117168426513672 L -17.07233428955078 21.117385864257812 L -17.073223114013672 21.12242317199707 L -17.0760440826416 21.138418197631836 L -17.076656341552734 21.141889572143555 L -17.077373504638672 21.145950317382812 L -17.0775089263916 21.146724700927734 L -17.203100204467773 21.858699798583984 L -17.682069778442383 24.576000213623047 L -18.302000045776367 28.093000411987305 L -18.301950454711914 28.093008041381836 L -18.29538917541504 28.094165802001953 L -16.384000778198242 28.431209564208984 L 0 31.320274353027344 L 2.884999990463257 31.82900047302246 L 3.9839000701904297 25.595600128173828 L 4.096463680267334 24.95973777770996 L 4.113635063171387 24.86273956298828 L 4.115092754364014 24.854469299316406 L 4.115537166595459 24.85441780090332 L 4.8167572021484375 24.77277183532715 L 4.867110729217529 24.76696014404297 L 4.869463920593262 24.76663589477539 L 5.614546775817871 24.664024353027344 L 5.672747611999512 24.65603256225586 L 5.673880100250244 24.655853271484375 L 5.7308030128479 24.64687728881836 L 6.178945541381836 24.576000213623047 L 6.475456714630127 24.529104232788086 L 6.675762176513672 24.492938995361328 L 6.687066555023193 24.490800857543945 L 6.687600135803223 24.491893768310547 L 6.69506311416626 24.5071964263916 L 6.728617191314697 24.576000213623047 L 6.792322635650635 24.706628799438477 L 7.017300128936768 25.16819953918457 L 9.791999816894531 30.857999801635742 L 9.792202949523926 30.857900619506836 L 16.384000778198242 27.642963409423828 L 29.128999710083008 21.427000045776367 L 26.669330596923828 16.384000778198242 L 26.626279830932617 16.295732498168945 L 26.354299545288086 15.738100051879883 L 26.101327896118164 15.219295501708984 L 26.0394229888916 15.092357635498047 L 26.023975372314453 15.06068229675293 L 26.024778366088867 15.059946060180664 L 26.544334411621094 14.583250999450684 L 26.578664779663086 14.551665306091309 L 26.58160972595215 14.548955917358398 L 26.80364418029785 14.336000442504883 L 27.125957489013672 14.026863098144531 L 27.14582633972168 14.007811546325684 L 27.151885986328125 14.001999855041504 L 27.168392181396484 13.986173629760742 L 27.35531997680664 13.798919677734375 L 27.70161247253418 13.452025413513184 L 27.743173599243164 13.4104642868042 L 27.88412857055664 13.263944625854492 L 27.890104293823242 13.257610321044922 L 27.89136505126953 13.25627326965332 L 27.892000198364258 13.255599975585938 L 27.90835189819336 13.264291763305664 L 28.104042053222656 13.368305206298828 L 28.55699920654297 13.610099792480469 L 28.672000885009766 13.671229362487793 L 32.768001556396484 15.84850788116455 L 34.145999908447266 16.58099937438965 L 34.146522521972656 16.58001708984375 L 42.96242904663086 4.440892164675075e-17 L 44.24552536010742 -2.41310715675354 L 44.24599838256836 -2.4140000343322754 L 40.959999084472656 -4.160994052886963 L 38.657901763916016 -5.384900093078613 L 38.20500946044922 -5.626695156097412 L 38.032196044921875 -5.718594074249268 L 38.00965118408203 -5.730583667755127 L 38.0091552734375 -5.730846405029297 L 37.99304962158203 -5.739411354064941 L 37.99312973022461 -5.739816188812256 L 38.07440185546875 -6.144000053405762 L 38.13214874267578 -6.431206703186035 z" fill="none" stroke="rgb(0,0,255)" stroke-width="0.01mm" />
</svg>