<?xml version="1.0" standalone="no"?>
<!DOCTYPE svg PUBLIC "-//W3C//DTD SVG 1.1//EN"
  "http://www.w3.org/Graphics/SVG/1.1/DTD/svg11.dtd">
<svg width="102mm" height="59.119998931884766mm" viewBox="-51 -29.559999465942383 102 59.119998931884766" xmlns="http://www.w3.org/2000/svg" version="1.1">
	<title>svgOutput</title>
	<desc>made with tinkercad</desc>
<path d="M -30.030344009399414 3.54072904586792 L -29.570959091186523 4.084287643432617 L -29.565555572509766 4.090421676635742 L -29.560640335083008 4.0960001945495605 L -29.086503982543945 4.634114742279053 L -29.02975082397461 4.6984968185424805 L -28.672000885009766 5.087947368621826 L -28.534547805786133 5.23757791519165 L -28.47654151916504 5.300705909729004 L -28.104650497436523 5.6883673667907715 L -27.969697952270508 5.829041481018066 L -27.910228729248047 5.891019344329834 L -27.849504470825195 5.951743125915527 L -27.65691566467285 6.144000053405762 L -27.331018447875977 6.469332695007324 L -27.269145965576172 6.528697967529297 L -26.74081039428711 7.035542011260986 L -26.67757797241211 7.093652725219727 L -26.624000549316406 7.142959117889404 L -26.13849639892578 7.58975076675415 L -26.120426177978516 7.605679988861084 L -26.074115753173828 7.646503448486328 L -25.525182723999023 8.130064964294434 L -25.451921463012695 8.192000389099121 L -24.980728149414062 8.590343475341797 L -24.915197372436523 8.645736694335938 L -24.576000213623047 8.920944213867188 L -24.331342697143555 9.119447708129883 L -24.264659881591797 9.173482894897461 L -24.209745407104492 9.215999603271484 L -23.701400756835938 9.609582901000977 L -23.633569717407227 9.662155151367188 L -23.572677612304688 9.708720207214355 L -23.552000045776367 9.72409439086914 L -23.503801345825195 9.759932518005371 L -22.960826873779297 10.162666320800781 L -22.851938247680664 10.239999771118164 L -22.527999877929688 10.470064163208008 L -22.39716339111328 10.56298542022705 L -22.294212341308594 10.636126518249512 L -21.72208595275879 11.025444030761719 L -21.617752075195312 11.096280097961426 L -21.35919952392578 11.263999938964844 L -21.037160873413086 11.472902297973633 L -20.931289672851562 11.541587829589844 L -20.930999755859375 11.541768074035645 L -20.479999542236328 11.821453094482422 L -20.343082427978516 11.906360626220703 L -20.235828399658203 11.972894668579102 L -20.23501968383789 11.973376274108887 L -20.088058471679688 12.06062126159668 L -20.074697494506836 12.068553924560547 L -20.000802993774414 12.112241744995117 L -19.70371437072754 12.288000106811523 L -19.531570434570312 12.389841079711914 L -18.910999298095703 12.739080429077148 L -18.836271286010742 12.781200408935547 L -18.83380889892578 12.782520294189453 L -18.43199920654297 12.998085975646973 L -18.173612594604492 13.136707305908203 L -18.097942352294922 13.17725944519043 L -18.021541595458984 13.216243743896484 L -17.833789825439453 13.312000274658203 L -17.408000946044922 13.529158592224121 L -17.3508243560791 13.558319091796875 L -17.273483276367188 13.595735549926758 L -16.63383674621582 13.904838562011719 L -16.63231658935547 13.905572891235352 L -16.55434799194336 13.94121265411377 L -16.384000778198242 14.019164085388184 L -15.889002799987793 14.24567699432373 L -15.810197830200195 14.279853820800781 L -15.68045711517334 14.336000442504883 L -15.359999656677246 14.474679946899414 L -15.138644218444824 14.570472717285156 L -15.137688636779785 14.570886611938477 L -15.058257102966309 14.603286743164062 L -14.380375862121582 14.879990577697754 L -14.336000442504883 14.897000312805176 L -14.300211906433105 14.91071891784668 L -13.602304458618164 15.177434921264648 L -13.597256660461426 15.179364204406738 L -13.51646614074707 15.208419799804688 L -12.846643447875977 15.450200080871582 L -12.288000106811523 15.638337135314941 L -12.152644157409668 15.683920860290527 L -12.071330070495605 15.711304664611816 L -11.989389419555664 15.737015724182129 L -11.291935920715332 15.955193519592285 L -11.290912628173828 15.955513954162598 L -10.606762886047363 16.15431022644043 L -10.52440357208252 16.178245544433594 L -10.239999771118164 16.254600524902344 L -9.797270774841309 16.37346076965332 L -9.757983207702637 16.384000778198242 L -9.714284896850586 16.395723342895508 L -9.003271102905273 16.570341110229492 L -8.927257537841797 16.588939666748047 L -8.919971466064453 16.590723037719727 L -8.225075721740723 16.746536254882812 L -8.192000389099121 16.75395965576172 L -8.141254425048828 16.765350341796875 L -7.404271125793457 16.913999557495117 L -7.32280969619751 16.93039321899414 L -7.320135593414307 16.930931091308594 L -7.235686302185059 16.946086883544922 L -7.168000221252441 16.95827865600586 L -6.784548759460449 17.027347564697266 L -6.514822006225586 17.075931549072266 L -6.430059432983398 17.089414596557617 L -6.144000053405762 17.134563446044922 L -5.689642429351807 17.206275939941406 L -5.686807632446289 17.206722259521484 L -5.601731777191162 17.218324661254883 L -4.896090507507324 17.31503677368164 L -4.810909748077393 17.32496452331543 L -4.0960001945495605 17.40715789794922 L -4.063180446624756 17.410932540893555 L -3.9776864051818848 17.41897964477539 L -3.269923448562622 17.48600196838379 L -3.268463134765625 17.486141204833984 L -3.2492666244506836 17.487546920776367 L -3.1828644275665283 17.49241065979004 L -2.479959011077881 17.544158935546875 L -2.453045129776001 17.546140670776367 L -2.0480000972747803 17.56705665588379 L -1.7420309782028198 17.582855224609375 L -1.656327724456787 17.58734893798828 L -0.9041212797164917 17.611528396606445 L -0.8183135390281677 17.61424446105957 L -0.7618980407714844 17.615140914916992 L -0.6760903000831604 17.615976333618164 L 0 17.615970611572266 L 0.6923072934150696 17.615966796875 L 0.818461000919342 17.614736557006836 L 1.509921908378601 17.592731475830078 L 1.6275285482406616 17.589006423950195 L 1.6360756158828735 17.58873748779297 L 1.6370127201080322 17.588687896728516 L 2.0480000972747803 17.56702995300293 L 2.326690196990967 17.552343368530273 L 2.452690362930298 17.54573631286621 L 3.072000026702881 17.500198364257812 L 3.1433048248291016 17.494956970214844 L 3.269151210784912 17.485736846923828 L 3.2708168029785156 17.485580444335938 L 3.4556193351745605 17.468231201171875 L 3.5411136150360107 17.46018409729004 L 3.923790693283081 17.424081802368164 L 4.063180446624756 17.410932540893555 L 4.080657958984375 17.40892219543457 L 4.088679790496826 17.408000946044922 L 4.0960001945495605 17.40715789794922 L 4.810909748077393 17.32496452331543 L 4.871420383453369 17.31791114807129 L 4.896090507507324 17.31503677368164 L 5.601731777191162 17.218324661254883 L 5.686807632446289 17.206722259521484 L 6.144000053405762 17.134563446044922 L 6.430059432983398 17.089414596557617 L 6.514822006225586 17.075931549072266 L 7.235686302185059 16.946086883544922 L 7.320135593414307 16.930931091308594 L 7.32280969619751 16.93039321899414 L 7.404271125793457 16.913999557495117 L 8.140464782714844 16.7655086517334 L 8.141254425048828 16.765350341796875 L 8.192000389099121 16.75395965576172 L 8.225075721740723 16.746536254882812 L 8.919971466064453 16.590723037719727 L 9.003271102905273 16.570341110229492 L 9.714284896850586 16.395723342895508 L 9.757983207702637 16.384000778198242 L 9.797270774841309 16.37346076965332 L 10.239999771118164 16.254600524902344 L 10.524280548095703 16.17827796936035 L 10.52440357208252 16.178245544433594 L 10.606762886047363 16.15431022644043 L 11.263999938964844 15.963333129882812 L 11.290912628173828 15.955513954162598 L 11.989389419555664 15.737015724182129 L 12.071330070495605 15.711304664611816 L 12.152644157409668 15.683920860290527 L 12.288000106811523 15.638337135314941 L 12.807831764221191 15.463271141052246 L 12.846643447875977 15.450200080871582 L 13.51646614074707 15.208419799804688 L 13.597256660461426 15.179364204406738 L 14.300211906433105 14.91071891784668 L 14.336000442504883 14.897000312805176 L 14.380375862121582 14.879990577697754 L 15.058257102966309 14.603286743164062 L 15.137688636779785 14.570886611938477 L 15.138644218444824 14.570472717285156 L 15.359999656677246 14.474679946899414 L 15.68045711517334 14.336000442504883 L 15.810197830200195 14.279853820800781 L 15.87480354309082 14.251834869384766 L 15.889002799987793 14.24567699432373 L 16.384000778198242 14.019164085388184 L 16.55434799194336 13.94121265411377 L 16.63231658935547 13.905572891235352 L 17.273483276367188 13.595735549926758 L 17.3508243560791 13.558319091796875 L 17.408000946044922 13.529158592224121 L 17.833789825439453 13.312000274658203 L 18.021541595458984 13.216243743896484 L 18.097942352294922 13.17725944519043 L 18.173612594604492 13.136707305908203 L 18.43199920654297 12.998085975646973 L 18.836271286010742 12.781200408935547 L 18.910999298095703 12.739080429077148 L 19.531570434570312 12.389841079711914 L 19.551040649414062 12.378329277038574 L 19.6054630279541 12.346153259277344 L 19.70363998413086 12.288000106811523 L 20.235883712768555 11.972736358642578 L 20.479999542236328 11.821428298950195 L 20.841230392456055 11.597529411315918 L 20.914182662963867 11.552273750305176 L 21.35889434814453 11.263999938964844 L 21.545499801635742 11.143037796020508 L 21.617511749267578 11.096318244934082 L 22.20673942565918 10.696037292480469 L 22.277706146240234 10.647855758666992 L 22.279050827026367 10.6469144821167 L 22.340389251708984 10.60397720336914 L 22.410415649414062 10.554226875305176 L 22.527999877929688 10.47057819366455 L 22.85211944580078 10.239999771118164 L 22.960826873779297 10.162666320800781 L 23.51687240600586 9.749650955200195 L 23.618133544921875 9.674358367919922 L 24.164871215820312 9.250341415405273 L 24.26459503173828 9.173050880432129 L 24.266075134277344 9.171853065490723 L 24.576000213623047 8.920985221862793 L 24.802021026611328 8.738031387329102 L 24.900056838989258 8.658590316772461 L 25.428173065185547 8.211722373962402 L 25.45150375366211 8.192000389099121 L 25.524517059326172 8.13028335571289 L 25.527254104614258 8.127883911132812 L 25.665773391723633 8.006487846374512 L 25.73015594482422 7.949735641479492 L 26.13849639892578 7.58975076675415 L 26.624000549316406 7.142959117889404 L 26.67757797241211 7.093652725219727 L 26.74081039428711 7.035542011260986 L 26.74284553527832 7.033588886260986 L 27.269145965576172 6.528697967529297 L 27.331018447875977 6.469332695007324 L 27.65691566467285 6.144000053405762 L 27.849504470825195 5.951743125915527 L 27.910228729248047 5.891019344329834 L 27.969697952270508 5.829041481018066 L 28.47654151916504 5.300705909729004 L 28.534547805786133 5.23757791519165 L 28.672000885009766 5.087947368621826 L 29.02975082397461 4.6984968185424805 L 29.086503982543945 4.634114742279053 L 29.560640335083008 4.0960001945495605 L 29.570959091186523 4.084287643432617 L 30.030344009399414 3.54072904586792 L 30.08584213256836 3.475092887878418 L 30.086450576782227 3.4743409156799316 L 30.559553146362305 2.8903419971466064 L 30.613483428955078 2.8236606121063232 L 30.66615867614746 2.7558295726776123 L 30.719999313354492 2.686410903930664 L 31.12733268737793 2.1612284183502197 L 31.178442001342773 2.0923521518707275 L 31.211341857910156 2.0480000972747803 L 31.602901458740234 1.5201380252838135 L 31.652650833129883 1.4502167701721191 L 32.08785629272461 0.8368103504180908 L 32.13614273071289 0.765739381313324 L 32.53642272949219 0.17651097476482397 L 32.5831413269043 0.10460387170314793 L 32.65109634399414 4.440892164675075e-17 L 32.768001556396484 -0.17994838953018183 L 32.99262237548828 -0.5257105231285095 L 32.9932746887207 -0.5267122387886047 L 33.03852844238281 -0.5996645092964172 L 33.30192947387695 -1.0240000486373901 L 33.40947341918945 -1.1972488164901733 L 33.41373825073242 -1.2041161060333252 L 33.786258697509766 -1.8345367908477783 L 33.81843566894531 -1.8889585733413696 L 33.8299446105957 -1.9084296226501465 L 33.90849304199219 -2.0480000972747803 L 34.17918395996094 -2.5290000438690186 L 34.22130584716797 -2.603729009628296 L 34.57770538330078 -3.2663869857788086 L 34.61825942993164 -3.3420567512512207 L 34.65724563598633 -3.418562650680542 L 34.816001892089844 -3.7306580543518066 L 34.9984245300293 -4.089280128479004 L 35.001670837402344 -4.0960001945495605 L 35.035736083984375 -4.16651725769043 L 35.34481430053711 -4.806110382080078 L 35.34557342529297 -4.807683944702148 L 35.381317138671875 -4.8857574462890625 L 35.686676025390625 -5.551997184753418 L 35.72074890136719 -5.630802631378174 L 35.94245147705078 -6.144000053405762 L 36.010887145996094 -6.302415370941162 L 36.04328536987305 -6.381847858428955 L 36.31999206542969 -7.060624599456787 L 36.35082244873047 -7.140788555145264 L 36.620365142822266 -7.84284782409668 L 36.649417877197266 -7.923534393310547 L 36.745967864990234 -8.192000389099121 L 36.86399841308594 -8.520212173461914 L 36.89030456542969 -8.593356132507324 L 36.90911102294922 -8.647085189819336 L 36.936492919921875 -8.728503227233887 L 37.100181579589844 -9.215999603271484 L 37.15003967285156 -9.36448860168457 L 37.15150833129883 -9.368856430053711 L 37.189151763916016 -9.489171028137207 L 37.396507263183594 -10.150163650512695 L 37.42258071899414 -10.239999771118164 L 37.43169403076172 -10.271400451660156 L 37.62466049194336 -10.93577766418457 L 37.62635040283203 -10.942072868347168 L 37.65739059448242 -11.057629585266113 L 37.835968017578125 -11.72539234161377 L 37.97414016723633 -12.288000106811523 L 38.00100326538086 -12.397387504577637 L 38.03112030029297 -12.520007133483887 L 38.031150817871094 -12.52013111114502 L 38.072017669677734 -12.702811241149902 L 38.077789306640625 -12.728623390197754 L 38.077789306640625 -12.728635787963867 L 38.090728759765625 -12.786528587341309 L 38.20534896850586 -13.298746109008789 L 38.20803451538086 -13.312000274658203 L 38.354896545410156 -14.036624908447266 L 38.371826171875 -14.120759963989258 L 38.3870849609375 -14.205208778381348 L 38.410484313964844 -14.336000442504883 L 38.51603698730469 -14.92607307434082 L 38.529415130615234 -15.010836601257324 L 38.64672088623047 -15.754087448120117 L 38.646728515625 -15.754142761230469 L 38.65842819213867 -15.839163780212402 L 38.73310089111328 -16.384000778198242 L 38.75514221191406 -16.5448055267334 L 38.76496505737305 -16.630090713500977 L 38.85071563720703 -17.375041961669922 L 38.85093307495117 -17.376924514770508 L 38.858978271484375 -17.462312698364258 L 38.9119987487793 -18.0222110748291 L 38.92613983154297 -18.171537399291992 L 38.932518005371094 -18.25713539123535 L 38.94537353515625 -18.43199920654297 L 38.986244201660156 -18.987850189208984 L 39.02385711669922 -19.698863983154297 L 39.02824401855469 -19.78456687927246 L 39.05059814453125 -20.479999542236328 L 39.05242156982422 -20.536773681640625 L 39.05514144897461 -20.622581481933594 L 39.05607986450195 -20.708389282226562 L 39.063209533691406 -21.456708908081055 L 39.0632438659668 -21.460596084594727 L 39.06277084350586 -21.503999710083008 L 39.06230545043945 -21.5465087890625 L 39.05514144897461 -22.2584171295166 L 39.05242156982422 -22.3441219329834 L 39.046512603759766 -22.527999877929688 L 39.02824401855469 -23.09632682800293 L 39.02385711669922 -23.1821346282959 L 38.986244201660156 -23.893150329589844 L 38.93603515625 -24.576000213623047 L 38.932518005371094 -24.623865127563477 L 38.92613983154297 -24.709463119506836 L 38.9119987487793 -24.858600616455078 L 38.858978271484375 -25.41779136657715 L 38.85093307495117 -25.50318145751953 L 38.85065460205078 -25.50559425354004 L 38.76496505737305 -26.25090980529785 L 38.75514221191406 -26.33619499206543 L 38.65842819213867 -27.04183578491211 L 38.64773178100586 -27.119483947753906 L 38.64672088623047 -27.126808166503906 L 38.529415130615234 -27.870059967041016 L 38.51603698730469 -27.954925537109375 L 38.505062103271484 -28.015544891357422 L 38.40745544433594 -28.559999465942383 L 38.43601989746094 -28.559999465942383 L 38.498966217041016 -28.559999465942383 L 38.51356887817383 -28.559999465942383 L 38.9119987487793 -28.559999465942383 L 40.959999084472656 -28.559999465942383 L 49.152000427246094 -28.559999465942383 L 50 -28.559999465942383 L 50 -16.384000778198242 L 50 4.440892164675075e-17 L 50 16.384000778198242 L 50 28.559999465942383 L 32.768001556396484 28.559999465942383 L 24.576000213623047 28.559999465942383 L 16.384000778198242 28.559999465942383 L 8.192000389099121 28.559999465942383 L 0 28.559999465942383 L -8.192000389099121 28.559999465942383 L -16.384000778198242 28.559999465942383 L -32.768001556396484 28.559999465942383 L -50 28.559999465942383 L -50 16.384000778198242 L -50 4.440892164675075e-17 L -50 -16.384000778198242 L -50 -28.559999465942383 L -49.152000427246094 -28.559999465942383 L -40.959999084472656 -28.559999465942383 L -38.9119987487793 -28.559999465942383 L -38.450355529785156 -28.559999465942383 L -38.43601989746094 -28.559999465942383 L -38.43596649169922 -28.559999465942383 L -38.40745544433594 -28.559999465942383 L -38.505062103271484 -28.015544891357422 L -38.51603698730469 -27.954925537109375 L -38.51681137084961 -27.950000762939453 L -38.529415130615234 -27.870059967041016 L -38.64672088623047 -27.126808166503906 L -38.65842819213867 -27.04183578491211 L -38.75514221191406 -26.33619499206543 L -38.76496505737305 -26.25090980529785 L -38.85065460205078 -25.50559425354004 L -38.85093307495117 -25.50318145751953 L -38.858978271484375 -25.41779136657715 L -38.9119987487793 -24.858600616455078 L -38.92613983154297 -24.709463119506836 L -38.932518005371094 -24.623865127563477 L -38.93603515625 -24.576000213623047 L -38.986244201660156 -23.893150329589844 L -39.02385711669922 -23.1821346282959 L -39.02824401855469 -23.09632682800293 L -39.046512603759766 -22.527999877929688 L -39.05242156982422 -22.3441219329834 L -39.054176330566406 -22.288803100585938 L -39.05514144897461 -22.2584171295166 L -39.06230545043945 -21.5465087890625 L -39.06277084350586 -21.503999710083008 L -39.0632438659668 -21.460596084594727 L -39.05607986450195 -20.708389282226562 L -39.05514144897461 -20.622581481933594 L -39.05242156982422 -20.536773681640625 L -39.05059814453125 -20.479999542236328 L -39.02824401855469 -19.78456687927246 L -39.02385711669922 -19.698863983154297 L -38.986244201660156 -18.987850189208984 L -38.94537353515625 -18.43199920654297 L -38.932518005371094 -18.25713539123535 L -38.92613983154297 -18.171537399291992 L -38.9119987487793 -18.0222110748291 L -38.858978271484375 -17.462312698364258 L -38.85093307495117 -17.376924514770508 L -38.85071563720703 -17.375041961669922 L -38.76496505737305 -16.630090713500977 L -38.75514221191406 -16.5448055267334 L -38.73310089111328 -16.384000778198242 L -38.65842819213867 -15.839163780212402 L -38.64672088623047 -15.754087448120117 L -38.529415130615234 -15.010836601257324 L -38.51603698730469 -14.92607307434082 L -38.51603317260742 -14.926067352294922 L -38.410484313964844 -14.336000442504883 L -38.3870849609375 -14.205208778381348 L -38.371826171875 -14.120759963989258 L -38.354896545410156 -14.036624908447266 L -38.20803451538086 -13.312000274658203 L -38.20579528808594 -13.300945281982422 L -38.20534896850586 -13.298746109008789 L -38.186641693115234 -13.215028762817383 L -38.03172302246094 -12.520133018493652 L -38.01123809814453 -12.436729431152344 L -37.97471237182617 -12.288000106811523 L -37.83661651611328 -11.725714683532715 L -37.83643341064453 -11.725030899047852 L -37.81435775756836 -11.642833709716797 L -37.619140625 -10.916596412658691 L -37.59520721435547 -10.83413314819336 L -37.42256546020508 -10.239999771118164 L -37.39640808105469 -10.149983406066895 L -37.37939453125 -10.096254348754883 L -37.379356384277344 -10.0961275100708 L -37.353790283203125 -10.01441764831543 L -37.15150833129883 -9.368856430053711 L -37.11124801635742 -9.24915599822998 L -37.109580993652344 -9.244206428527832 L -37.100067138671875 -9.215999603271484 L -36.89035415649414 -8.594087600708008 L -36.86399841308594 -8.520904541015625 L -36.84763717651367 -8.4754638671875 L -36.745662689208984 -8.192000389099121 L -36.61320114135742 -7.823780536651611 L -36.609397888183594 -7.813875198364258 L -36.3652229309082 -7.1780219078063965 L -36.361366271972656 -7.168000221252441 L -36.31989288330078 -7.060165882110596 L -36.05921936035156 -6.419485569000244 L -36.0115852355957 -6.302704811096191 L -35.94245147705078 -6.144000053405762 L -35.936561584472656 -6.1304826736450195 L -35.902488708496094 -6.051677227020264 L -35.84584426879883 -5.920521259307861 L -35.686676025390625 -5.551997184753418 L -35.60671615600586 -5.377540588378906 L -35.488677978515625 -5.119999885559082 L -35.381317138671875 -4.8857574462890625 L -35.34557342529297 -4.807683944702148 L -35.035736083984375 -4.16651725769043 L -35.001670837402344 -4.0960001945495605 L -34.9984245300293 -4.089280128479004 L -34.816001892089844 -3.7306580543518066 L -34.65724563598633 -3.418562650680542 L -34.61825942993164 -3.3420567512512207 L -34.57770538330078 -3.2663869857788086 L -34.22270202636719 -2.6063239574432373 L -34.22130584716797 -2.603729009628296 L -34.17918395996094 -2.5290000438690186 L -33.90849304199219 -2.0480000972747803 L -33.8299446105957 -1.9084296226501465 L -33.786258697509766 -1.8345367908477783 L -33.41373825073242 -1.2041161060333252 L -33.40947341918945 -1.1972488164901733 L -33.30192947387695 -1.0240000486373901 L -33.03852844238281 -0.5996645092964172 L -32.9932746887207 -0.5267122387886047 L -32.768001556396484 -0.17994838953018183 L -32.65109634399414 4.440892164675075e-17 L -32.5831413269043 0.10460387170314793 L -32.53642272949219 0.17651097476482397 L -32.13614273071289 0.765739381313324 L -32.08785629272461 0.8368103504180908 L -31.652650833129883 1.4502167701721191 L -31.602901458740234 1.5201380252838135 L -31.211341857910156 2.0480000972747803 L -31.178442001342773 2.0923521518707275 L -31.12733268737793 2.1612284183502197 L -30.719999313354492 2.686410903930664 L -30.66615867614746 2.7558295726776123 L -30.613483428955078 2.8236606121063232 L -30.559553146362305 2.8903419971466064 L -30.08584213256836 3.475092887878418 L -30.030344009399414 3.54072904586792 z" fill="none" stroke="rgb(0,0,255)" stroke-width="0.01mm" />
</svg>