<?xml version="1.0" standalone="no"?>
<!DOCTYPE svg PUBLIC "-//W3C//DTD SVG 1.1//EN"
  "http://www.w3.org/Graphics/SVG/1.1/DTD/svg11.dtd">
<svg width="102mm" height="34.7760009765625mm" viewBox="-51 -17.38800048828125 102 34.7760009765625" xmlns="http://www.w3.org/2000/svg" version="1.1">
	<title>svgOutput</title>
	<desc>made with tinkercad</desc>
<path d="M 8.736742973327637 -0.3390663862228393 L 9.051151275634766 -0.4203174412250518 L 9.099035263061523 -0.4326919317245483 L 9.178529739379883 -0.4532352983951568 L 9.246031761169434 -0.4718667268753051 L 9.289016723632812 -0.4837310910224914 L 9.510794639587402 -0.5517157912254333 L 9.519332885742188 -0.5543333292007446 L 9.522810935974121 -0.5553399324417114 L 9.82800006866455 -0.643666684627533 L 10.133999824523926 -0.7396666407585144 L 10.364999771118164 -0.809333324432373 L 10.595890998840332 -0.8776974678039551 L 10.609487533569336 -0.8821088075637817 L 10.667739868164062 -0.9010084271430969 L 10.89566707611084 -0.9816666841506958 L 11.199666976928711 -1.0843333005905151 L 11.501667022705078 -1.1929999589920044 L 11.72933292388916 -1.2723333835601807 L 11.878000259399414 -1.3256666660308838 L 12.025333404541016 -1.3823332786560059 L 12.252666473388672 -1.4666666984558105 L 12.288000106811523 -1.4802019596099854 L 12.430846214294434 -1.534922480583191 L 12.552000045776367 -1.5813332796096802 L 12.6986665725708 -1.6413333415985107 L 12.922666549682617 -1.7303333282470703 L 13.21933364868164 -1.8516666889190674 L 13.36400032043457 -1.9143333435058594 L 13.587666511535645 -2.008333444595337 L 13.616451263427734 -2.0207717418670654 L 13.679460525512695 -2.0480000972747803 L 13.882333755493164 -2.135666608810425 L 14.018766403198242 -2.197964668273926 L 14.174333572387695 -2.2690000534057617 L 14.366870880126953 -2.3546688556671143 L 14.395333290100098 -2.36733341217041 L 14.538666725158691 -2.433333396911621 L 14.68066692352295 -2.502000093460083 L 14.899333000183105 -2.6046667098999023 L 14.914081573486328 -2.611768960952759 L 15.188666343688965 -2.74399995803833 L 15.473999977111816 -2.890000104904175 L 15.607295989990234 -2.9562368392944336 L 15.6899995803833 -2.997333288192749 L 15.830666542053223 -3.068666696548462 L 16.113332748413086 -3.2206666469573975 L 16.327667236328125 -3.3326666355133057 L 16.35020637512207 -3.344637155532837 L 16.384000778198242 -3.3625853061676025 L 16.466999053955078 -3.4066667556762695 L 16.604333877563477 -3.484666585922241 L 16.816667556762695 -3.6016666889190674 L 17.08725929260254 -3.750265598297119 L 17.136445999145508 -3.7772772312164307 L 17.227283477783203 -3.829247236251831 L 17.23607635498047 -3.834277391433716 L 17.295658111572266 -3.870713233947754 L 17.441667556762695 -3.9600000381469727 L 17.492115020751953 -3.9898548126220703 L 17.671478271484375 -4.0960001945495605 L 17.717666625976562 -4.12333345413208 L 17.990333557128906 -4.291999816894531 L 18.19700050354004 -4.417333126068115 L 18.20059585571289 -4.41956901550293 L 18.33099937438965 -4.500666618347168 L 18.463666915893555 -4.586666584014893 L 18.65279197692871 -4.7067952156066895 L 18.668333053588867 -4.7166666984558105 L 18.937000274658203 -4.891333103179932 L 19.202333450317383 -5.071333408355713 L 19.40333366394043 -5.204666614532471 L 19.534000396728516 -5.294000148773193 L 19.795333862304688 -5.479333400726318 L 19.938791275024414 -5.579151630401611 L 19.993667602539062 -5.61733341217041 L 20.122333526611328 -5.709333419799805 L 20.186120986938477 -5.756473541259766 L 20.380332946777344 -5.900000095367432 L 20.479999542236328 -5.972423553466797 L 20.5766658782959 -6.042666435241699 L 20.703332901000977 -6.137333393096924 L 20.827999114990234 -6.234000205993652 L 21.020666122436523 -6.380000114440918 L 21.03653907775879 -6.3923211097717285 L 21.27400016784668 -6.576666831970215 L 21.364974975585938 -6.6503705978393555 L 21.523332595825195 -6.7786664962768555 L 21.65973472595215 -6.886921405792236 L 21.71233367919922 -6.928666591644287 L 21.834999084472656 -7.0279998779296875 L 22.080333709716797 -7.23466682434082 L 22.248727798461914 -7.3738932609558105 L 22.267000198364258 -7.388999938964844 L 22.387666702270508 -7.491000175476074 L 22.505666732788086 -7.595666885375977 L 22.68833351135254 -7.753333568572998 L 22.706724166870117 -7.769532680511475 L 22.929000854492188 -7.965333461761475 L 23.165666580200195 -8.182666778564453 L 23.176034927368164 -8.192000389099121 L 23.34600067138672 -8.345000267028809 L 23.52541160583496 -8.505218505859375 L 23.553308486938477 -8.5316162109375 L 23.608596801757812 -8.583932876586914 L 23.62116241455078 -8.596224784851074 L 23.868999481201172 -8.838666915893555 L 24.04557228088379 -9.003260612487793 L 24.072874069213867 -9.02944564819336 L 24.470474243164062 -9.427046775817871 L 24.576000213623047 -9.532571792602539 L 24.58255386352539 -9.5391263961792 L 24.661907196044922 -9.621831893920898 L 25.081235885620117 -10.058806419372559 L 25.08277130126953 -10.060479164123535 L 25.158832550048828 -10.143268585205078 L 25.247730255126953 -10.239999771118164 L 25.56891632080078 -10.589487075805664 L 25.57217025756836 -10.593178749084473 L 25.969757080078125 -11.044109344482422 L 26.05773162841797 -11.144537925720215 L 26.389026641845703 -11.536262512207031 L 26.44932746887207 -11.607563018798828 L 26.511117935180664 -11.680688858032227 L 26.534908294677734 -11.710066795349121 L 26.624000549316406 -11.823283195495605 L 26.706666946411133 -11.928333282470703 L 26.764869689941406 -12.000173568725586 L 26.765581130981445 -12.001053810119629 L 26.908666610717773 -12.177666664123535 L 26.994319915771484 -12.288000106811523 L 27.10533332824707 -12.430999755859375 L 27.23200035095215 -12.591333389282227 L 27.270586013793945 -12.641095161437988 L 27.299339294433594 -12.678178787231445 L 27.32866668701172 -12.715999603271484 L 27.39266586303711 -12.801633834838867 L 27.4233341217041 -12.842666625976562 L 27.569334030151367 -13.035333633422852 L 27.789655685424805 -13.326781272888184 L 27.85735321044922 -13.419386863708496 L 27.994667053222656 -13.618332862854004 L 28.177349090576172 -13.869653701782227 L 28.208614349365234 -13.912663459777832 L 28.261249542236328 -13.987784385681152 L 28.274394989013672 -14.006546020507812 L 28.356199264526367 -14.130921363830566 L 28.407333374023438 -14.208666801452637 L 28.427078247070312 -14.237772941589355 L 28.58733367919922 -14.473999977111816 L 28.672000885009766 -14.604231834411621 L 28.761999130249023 -14.742666244506836 L 28.894208908081055 -14.941970825195312 L 28.895334243774414 -14.943666458129883 L 28.913482666015625 -14.971664428710938 L 28.981332778930664 -15.076333045959473 L 29.0550594329834 -15.194884300231934 L 29.064666748046875 -15.210332870483398 L 29.194665908813477 -15.414999961853027 L 29.389806747436523 -15.722672462463379 L 29.43020248413086 -15.78797435760498 L 29.480974197387695 -15.873714447021484 L 29.78164291381836 -16.384000778198242 L 29.784000396728516 -16.38800048828125 L 32.768001556396484 -16.38800048828125 L 50 -16.38800048828125 L 50 16.38800048828125 L 32.768001556396484 16.38800048828125 L 16.384000778198242 16.38800048828125 L 0 16.38800048828125 L -16.384000778198242 16.38800048828125 L -32.768001556396484 16.38800048828125 L -50 16.38800048828125 L -50 -16.38800048828125 L -32.768001556396484 -16.38800048828125 L -29.858192443847656 -16.38800048828125 L -29.817527770996094 -16.38800048828125 L -29.785524368286133 -16.38800048828125 L -29.784000396728516 -16.38800048828125 L -29.78164291381836 -16.384000778198242 L -29.480974197387695 -15.873714447021484 L -29.43020248413086 -15.78797435760498 L -29.164464950561523 -15.359999656677246 L -29.11087417602539 -15.273689270019531 L -29.029924392700195 -15.14452075958252 L -28.875333786010742 -14.912666320800781 L -28.700666427612305 -14.644000053405762 L -28.672000885009766 -14.6017427444458 L -28.520666122436523 -14.378666877746582 L -28.407333374023438 -14.208666801452637 L -28.31800079345703 -14.07800006866455 L -28.28798484802246 -14.035677909851074 L -28.132667541503906 -13.816666603088379 L -27.994667053222656 -13.618332862854004 L -27.902666091918945 -13.489666938781738 L -27.855525970458984 -13.42587947845459 L -27.711999893188477 -13.231666564941406 L -27.589794158935547 -13.063491821289062 L -27.569334030151367 -13.035333633422852 L -27.474666595458984 -12.908666610717773 L -27.445480346679688 -12.871025085449219 L -27.378000259399414 -12.784000396728516 L -27.23200035095215 -12.591333389282227 L -27.03533363342285 -12.338000297546387 L -26.99482536315918 -12.288000106811523 L -26.83333396911621 -12.088666915893555 L -26.683332443237305 -11.899666786193848 L -26.583999633789062 -11.777000427246094 L -26.501235961914062 -11.678750991821289 L -26.37733268737793 -11.53166675567627 L -26.238107681274414 -11.363271713256836 L -26.222999572753906 -11.345000267028809 L -26.121000289916992 -11.224333763122559 L -26.070072174072266 -11.166916847229004 L -26.016332626342773 -11.10633373260498 L -25.858667373657227 -10.923666954040527 L -25.64666748046875 -10.682999610900879 L -25.429332733154297 -10.446332931518555 L -25.267000198364258 -10.265999794006348 L -25.106781005859375 -10.086587905883789 L -25.08038330078125 -10.05869197845459 L -25.028066635131836 -10.003403663635254 L -24.938587188720703 -9.911931037902832 L -24.773332595825195 -9.743000030517578 L -24.689332962036133 -9.65566635131836 L -24.579999923706055 -9.541666984558105 L -24.576000213623047 -9.537666320800781 L -24.236446380615234 -9.198113441467285 L -24.07033348083496 -9.031999588012695 L -23.95633316040039 -8.922666549682617 L -23.868999481201172 -8.838666915893555 L -23.645519256591797 -8.620051383972168 L -23.608596801757812 -8.583932876586914 L -23.52541160583496 -8.505218505859375 L -23.34600067138672 -8.345000267028809 L -23.17938995361328 -8.192000389099121 L -23.109333038330078 -8.127666473388672 L -22.868667602539062 -7.915666580200195 L -22.68833351135254 -7.753333568572998 L -22.510251998901367 -7.591470718383789 L -22.46481704711914 -7.552127838134766 L -22.453092575073242 -7.541975021362305 L -22.323640823364258 -7.435561180114746 L -22.267000198364258 -7.388999938964844 L -22.155319213867188 -7.294920444488525 L -22.02166748046875 -7.182333469390869 L -21.89900016784668 -7.083000183105469 L -21.72063636779785 -6.9355316162109375 L -21.71233367919922 -6.928666591644287 L -21.46299934387207 -6.726666450500488 L -21.209667205810547 -6.53000020980835 L -21.020666122436523 -6.380000114440918 L -20.895999908447266 -6.2833333015441895 L -20.769332885742188 -6.188666820526123 L -20.5766658782959 -6.042666435241699 L -20.479999542236328 -5.971228122711182 L -20.318666458129883 -5.8520002365112305 L -20.190000534057617 -5.760000228881836 L -19.993667602539062 -5.61733341217041 L -19.85069465637207 -5.515940189361572 L -19.73233413696289 -5.432000160217285 L -19.601667404174805 -5.3426666259765625 L -19.40333366394043 -5.204666614532471 L -19.37422752380371 -5.184921741485596 L -19.13800048828125 -5.024666786193848 L -18.869333267211914 -4.849999904632568 L -18.670028686523438 -4.717791557312012 L -18.668333053588867 -4.7166666984558105 L -18.535667419433594 -4.630666732788086 L -18.40166664123535 -4.547333240509033 L -18.22275161743164 -4.433690547943115 L -18.19700050354004 -4.417333126068115 L -17.924333572387695 -4.248666763305664 L -17.666357040405273 -4.0960001945495605 L -17.648332595825195 -4.085333347320557 L -17.491029739379883 -3.989936351776123 L -17.441667556762695 -3.9600000381469727 L -17.305665969848633 -3.879333257675171 L -17.025667190551758 -3.7219998836517334 L -16.834815979003906 -3.612116575241089 L -16.816667556762695 -3.6016666889190674 L -16.679332733154297 -3.5236666202545166 L -16.540000915527344 -3.449666738510132 L -16.384000778198242 -3.3637075424194336 L -16.327667236328125 -3.3326666355133057 L -16.007999420166016 -3.1568403244018555 L -15.90661334991455 -3.1033530235290527 L -15.636070251464844 -2.9709999561309814 L -15.296867370605469 -2.797435760498047 L -14.952908515930176 -2.6317965984344482 L -14.683268547058105 -2.496361255645752 L -14.632017135620117 -2.471932888031006 L -14.379694938659668 -2.35636568069458 L -14.336000442504883 -2.336352586746216 L -14.081596374511719 -2.219831943511963 L -13.994580268859863 -2.1800756454467773 L -13.90676498413086 -2.142075538635254 L -13.689767837524414 -2.0480000972747803 L -13.510247230529785 -1.9701714515686035 L -13.350461959838867 -1.9008991718292236 L -13.262008666992188 -1.8643361330032349 L -12.838510513305664 -1.6968215703964233 L -12.664153099060059 -1.6254937648773193 L -12.308306694030762 -1.4891784191131592 L -12.288000106811523 -1.4810519218444824 L -12.143948554992676 -1.423405408859253 L -12.097271919250488 -1.4047261476516724 L -12.028302192687988 -1.3771260976791382 L -11.994705200195312 -1.3646405935287476 L -11.957411766052246 -1.3507815599441528 L -11.765909194946289 -1.2849137783050537 L -11.72933292388916 -1.2723333835601807 L -11.714813232421875 -1.267108678817749 L -11.427332878112793 -1.1636667251586914 L -11.123332977294922 -1.0609999895095825 L -10.89566707611084 -0.9816666841506958 L -10.667739868164062 -0.9010084271430969 L -10.653286933898926 -0.8963192105293274 L -10.595890998840332 -0.8776974678039551 L -10.364999771118164 -0.809333324432373 L -10.059000015258789 -0.7133333086967468 L -9.750333786010742 -0.6240000128746033 L -9.604568481445312 -0.5800392031669617 L -9.519332885742188 -0.5543333292007446 L -9.368000030517578 -0.5103333592414856 L -9.057999610900879 -0.42699998617172236 L -8.824666976928711 -0.36166667938232416 L -8.67199993133545 -0.3210000097751617 L -8.51866626739502 -0.2829999923706054 L -8.284333229064941 -0.22300000488758082 L -8.192000389099121 -0.20026266574859614 L -7.9730000495910645 -0.1463333368301391 L -7.659666538238525 -0.07699999958276744 L -7.425000190734863 -0.021999999880790665 L -7.415978908538818 -0.019969316199421838 L -7.327269077301025 4.440892164675075e-17 L -7.270999908447266 0.012666666880250022 L -7.116333484649658 0.04399999976158146 L -6.879000186920166 0.09466666728258137 L -6.832040786743164 0.10411819815635685 L -6.564333438873291 0.15800000727176672 L -6.249000072479248 0.21466666460037237 L -6.011666774749756 0.2596666812896729 L -5.775369644165039 0.3064621984958649 L -5.700806617736816 0.3190756440162659 L -5.691286563873291 0.3204128742218018 L -5.461666584014893 0.35266667604446417 L -5.144999980926514 0.4033333361148835 L -4.827000141143799 0.44666665792465216 L -4.5886664390563965 0.48199999332427984 L -4.432000160217285 0.503333330154419 L -4.275333404541016 0.5213333368301392 L -4.0960001945495605 0.5439363121986389 L -4.034666538238525 0.5516666769981384 L -3.705019235610962 0.5931846499443054 L -3.672924280166626 0.5972269177436829 L -3.5201261043548584 0.6133529543876648 L -3.1563334465026855 0.6443333625793457 L -2.999000072479248 0.6589999794960022 L -2.8416666984558105 0.6703333258628845 L -2.6013333797454834 0.690666675567627 L -2.5278942584991455 0.6961746215820312 L -2.2813334465026855 0.7146666646003723 L -2.0833988189697266 0.7249543070793152 L -1.9606666564941406 0.731333315372467 L -1.845513939857483 0.7384709119796753 L -1.718666672706604 0.7463333606719971 L -1.5613332986831665 0.7543333172798157 L -1.2406666278839111 0.7643333077430725 L -1.0564320087432861 0.772210955619812 L -0.9990000128746033 0.7746666669845581 L -0.8410000205039978 0.7799999713897705 L -0.5203333497047424 0.7833333611488342 L -0.27933332324028015 0.7883333563804626 L -0.12133333086967468 0.7896666526794434 L 1.4842953052090525e-14 0.7886427640914917 L 0.036666665226221085 0.7883333563804626 L 0.27933332324028015 0.7883333563804626 L 0.6000000238418579 0.7850000262260437 L 0.7580000162124634 0.7796666622161865 L 0.9990000128746033 0.7746666669845581 L 1.364243745803833 0.7672436833381653 L 1.3684399127960205 0.7670856714248657 L 1.4787226915359497 0.7629327774047852 L 1.718666672706604 0.7463333606719971 L 2.0393333435058594 0.7296666502952576 L 2.3593332767486572 0.7056666612625122 L 2.6013333797454834 0.690666675567627 L 2.758666753768921 0.6793333292007446 L 2.9159998893737793 0.6646666526794434 L 3.1523778438568115 0.6446679830551147 L 3.1563334465026855 0.6443333625793457 L 3.4756667613983154 0.6143333315849304 L 3.5525007247924805 0.6053318381309509 L 3.7943332195281982 0.5770000219345093 L 4.034666538238525 0.5516666769981384 L 4.048916816711426 0.550029456615448 L 4.0960001945495605 0.5446198582649231 L 4.191333293914795 0.5336666703224182 L 4.3480000495910645 0.512333333492279 L 4.49285888671875 0.49407547712326055 L 4.5886664390563965 0.48199999332427984 L 4.9066667556762695 0.43866667151451116 L 5.223333358764648 0.38800001144409185 L 5.333980083465576 0.37193247675895696 L 5.425333499908447 0.3586666584014893 L 5.700806617736816 0.3190756440162659 L 5.714879989624023 0.3166202604770661 L 5.850890636444092 0.29289075732231146 L 6.144000053405762 0.2400485277175904 L 6.447529315948486 0.18532773852348333 L 6.541411876678467 0.16648739576339727 L 7.134688854217529 0.046319328248500866 L 7.168000221252441 0.03898032382130627 L 7.265134334564209 0.01757983118295674 L 7.343963623046875 4.440892164675075e-17 L 7.856730937957764 -0.11435294151306148 L 7.931293964385986 -0.1327142864465713 L 8.192000389099121 -0.19931578636169428 L 8.372970581054688 -0.2455477118492126 L 8.555253028869629 -0.290721982717514 L 8.682906150817871 -0.3247255384922027 L 8.736742973327637 -0.3390663862228393 z" fill="none" stroke="rgb(0,0,255)" stroke-width="0.01mm" />
</svg>