<?xml version="1.0" standalone="no"?>
<!DOCTYPE svg PUBLIC "-//W3C//DTD SVG 1.1//EN"
  "http://www.w3.org/Graphics/SVG/1.1/DTD/svg11.dtd">
<svg width="102mm" height="67.86799621582031mm" viewBox="-51 -33.933998107910156 102 67.86799621582031" xmlns="http://www.w3.org/2000/svg" version="1.1">
	<title>svgOutput</title>
	<desc>made with tinkercad</desc>
<path d="M 34.799766540527344 -32.933998107910156 L 34.79979705810547 -32.933998107910156 L 35.61000061035156 -32.933998107910156 L 35.22445297241211 -32.87939453125 L 34.84866714477539 -32.826480865478516 L 34.823848724365234 -32.88108444213867 L 34.799766540527344 -32.933998107910156 M -18.025056838989258 16.66611671447754 L -17.721426010131836 16.829145431518555 L -17.720294952392578 16.829753875732422 L -17.41206932067871 16.986896514892578 L -17.39194679260254 16.99645233154297 L -16.96723747253418 17.212116241455078 L -16.967491149902344 17.21355628967285 L -17.182249069213867 18.43199920654297 L -17.5432186126709 20.479999542236328 L -17.57172203063965 20.641712188720703 L -18.265329360961914 24.576000213623047 L -18.302000045776367 24.784000396728516 L -18.30182647705078 24.78403091430664 L -16.384000778198242 25.122119903564453 L 0 28.01041030883789 L 2.8846476078033447 28.518938064575195 L 2.884999990463257 28.518999099731445 L 3.580144166946411 24.576000213623047 L 3.6152780055999756 24.376712799072266 L 3.9413650035858154 22.527999877929688 L 4.0960001945495605 21.651315689086914 L 4.214627742767334 20.978769302368164 L 4.220210552215576 20.94711685180664 L 4.5467400550842285 20.909610748291016 L 4.793640613555908 20.880826950073242 L 5.149211883544922 20.832056045532227 L 5.492069244384766 20.785303115844727 L 5.507355690002441 20.78293228149414 L 6.037052154541016 20.7008056640625 L 6.144000053405762 20.683883666992188 L 6.363730430603027 20.64911460876465 L 6.379043102264404 20.646692276000977 L 6.388551712036133 20.64456558227539 L 6.421645641326904 20.638498306274414 L 7.343116283416748 22.527999877929688 L 7.948102951049805 23.768543243408203 L 8.192000389099121 24.268592834472656 L 8.341936111450195 24.576000213623047 L 9.791999816894531 27.548999786376953 L 15.887737274169922 24.576000213623047 L 16.384000778198242 24.33396339416504 L 24.576000213623047 20.338579177856445 L 29.128795623779297 18.118099212646484 L 29.128999710083008 18.118000030517578 L 28.28312110900879 16.384000778198242 L 27.2845516204834 14.336991310119629 L 26.2851505279541 12.288000106811523 L 25.78569221496582 11.263999938964844 L 25.777515411376953 11.247236251831055 L 25.757646560668945 11.206498146057129 L 25.999784469604492 10.984214782714844 L 26.18287467956543 10.815844535827637 L 26.259063720703125 10.742680549621582 L 26.5112247467041 10.500536918640137 L 26.624000549316406 10.392452239990234 L 26.750198364257812 10.271503448486328 L 26.761009216308594 10.26114273071289 L 26.78215217590332 10.239999771118164 L 27.005598068237305 10.01655387878418 L 27.32695960998535 9.695757865905762 L 27.327709197998047 9.695008277893066 L 27.33467674255371 9.68767261505127 L 27.35784339904785 9.663403511047363 L 28.4423828125 10.239999771118164 L 28.672000885009766 10.362076759338379 L 30.432283401489258 11.297932624816895 L 32.29484939575195 12.288000106811523 L 32.768001556396484 12.539508819580078 L 34.145999908447266 13.272000312805176 L 36.84713363647461 8.192000389099121 L 39.02505111694336 4.0960001945495605 L 40.959999084472656 0.45695742964744573 L 41.202972412109375 4.440892164675075e-17 L 44.24599838256836 -5.7230000495910645 L 40.959999084472656 -7.4706854820251465 L 40.532283782958984 -7.698170185089111 L 39.60354232788086 -8.192000389099121 L 37.46831130981445 -9.327343940734863 L 37.463470458984375 -9.329916954040527 L 37.457393646240234 -9.333148002624512 L 37.52192687988281 -9.655264854431152 L 37.57112503051758 -9.899255752563477 L 37.573883056640625 -9.91459846496582 L 37.632381439208984 -10.239999771118164 L 37.634639739990234 -10.252558708190918 L 37.6956787109375 -10.59325122833252 L 37.7886848449707 -11.171692848205566 L 37.842796325683594 -11.513251304626465 L 37.8441162109375 -11.522480010986328 L 37.844261169433594 -11.522500038146973 L 37.84510803222656 -11.522619247436523 L 37.84788131713867 -11.523008346557617 L 40.959999084472656 -11.960138320922852 L 41.29209899902344 -12.006784439086914 L 45.457000732421875 -12.592000007629395 L 44.924232482910156 -16.384000778198242 L 43.773277282714844 -24.576000213623047 L 42.62232208251953 -32.768001556396484 L 42.5989990234375 -32.933998107910156 L 50 -32.933998107910156 L 50 -32.768001556396484 L 50 -16.384000778198242 L 50 4.440892164675075e-17 L 50 16.384000778198242 L 50 32.768001556396484 L 50 32.933998107910156 L 32.768001556396484 32.933998107910156 L 0 32.933998107910156 L -32.768001556396484 32.933998107910156 L -50 32.933998107910156 L -50 32.768001556396484 L -50 16.384000778198242 L -50 4.440892164675075e-17 L -50 -16.384000778198242 L -50 -32.768001556396484 L -50 -32.933998107910156 L -41.840999603271484 -32.933998107910156 L -41.92922592163086 -32.768001556396484 L -44.2459831237793 -28.409029006958008 L -44.24599838256836 -28.409000396728516 L -40.959999084472656 -26.661802291870117 L -40.8889045715332 -26.624000549316406 L -40.532283782958984 -26.43438148498535 L -37.5214729309082 -24.83347511291504 L -37.49006652832031 -24.816776275634766 L -37.46342468261719 -24.802610397338867 L -37.46342086791992 -24.802608489990234 L -37.457393646240234 -24.79940414428711 L -37.50215148925781 -24.576000213623047 L -37.52192687988281 -24.47728729248047 L -37.57112503051758 -24.23374366760254 L -37.574668884277344 -24.214033126831055 L -37.634639739990234 -23.880441665649414 L -37.6956787109375 -23.539749145507812 L -37.7886848449707 -22.961307525634766 L -37.842796325683594 -22.61931610107422 L -37.8441162109375 -22.610519409179688 L -37.84510803222656 -22.610380172729492 L -37.84808349609375 -22.609962463378906 L -37.907588958740234 -22.60159683227539 L -38.43107223510742 -22.527999877929688 L -40.959999084472656 -22.172456741333008 L -41.29209899902344 -22.12576675415039 L -45.457000732421875 -21.540000915527344 L -44.732391357421875 -16.384000778198242 L -43.581111907958984 -8.192000389099121 L -42.4630012512207 -0.23600000143051142 L -40.959999084472656 -0.4471603631973266 L -38.29754638671875 -0.8212152719497681 L -36.86399841308594 -1.0227059125900269 L -34.85538864135742 -1.3050237894058228 L -34.84866714477539 -1.3059686422348022 L -34.816001892089844 -1.2345728874206543 L -34.71187973022461 -1.007017970085144 L -34.608455657958984 -0.7809740304946899 L -34.46437454223633 -0.4828613996505737 L -34.4525032043457 -0.45829436182975763 L -34.30185317993164 -0.1466060578823089 L -34.227108001708984 4.440892164675075e-17 L -34.144710540771484 0.1616190522909165 L -34.13329315185547 0.18395516276359564 L -33.87515640258789 0.6925022602081299 L -34.21845626831055 1.0240000486373901 L -34.816001892089844 1.6010069847106934 L -35.27890396118164 2.0480000972747803 L -36.380088806152344 3.1113362312316895 L -36.86399841308594 3.578575372695923 L -37.39988708496094 4.0960001945495605 L -39.40599822998047 6.0329999923706055 L -37.32107925415039 8.192000389099121 L -32.768001556396484 12.90684986114502 L -29.410154342651367 16.384000778198242 L -24.576000213623047 21.38991355895996 L -24.461145401000977 21.508848190307617 L -24.461000442504883 21.509000778198242 L -23.395484924316406 20.479999542236328 L -21.435089111328125 18.58678436279297 L -20.479999542236328 17.66451644897461 L -19.153911590576172 16.384000778198242 L -18.930025100708008 16.16780662536621 L -18.92970848083496 16.16750144958496 L -18.643444061279297 16.329113006591797 L -18.545928955078125 16.384000778198242 L -18.43199920654297 16.4481258392334 L -18.426563262939453 16.45118522644043 L -18.025056838989258 16.66611671447754 z" fill="none" stroke="rgb(0,0,255)" stroke-width="0.01mm" />
</svg>