<?xml version="1.0" standalone="no"?>
<!DOCTYPE svg PUBLIC "-//W3C//DTD SVG 1.1//EN"
  "http://www.w3.org/Graphics/SVG/1.1/DTD/svg11.dtd">
<svg width="102mm" height="74.48600006103516mm" viewBox="-51 -37.24300003051758 102 74.48600006103516" xmlns="http://www.w3.org/2000/svg" version="1.1">
	<title>svgOutput</title>
	<desc>made with tinkercad</desc>
<path d="M -38.350650787353516 -22.017803192138672 L -38.37031936645508 -21.92984962463379 L -38.373836517333984 -21.914121627807617 L -38.51496887207031 -21.21280288696289 L -38.53596496582031 -21.108736038208008 L -38.55476760864258 -21.00428009033203 L -38.649383544921875 -20.479999542236328 L -38.68196487426758 -20.299476623535156 L -38.68424606323242 -20.285051345825195 L -38.698577880859375 -20.194507598876953 L -38.81009292602539 -19.48796272277832 L -38.82439041137695 -19.382734298706055 L -38.92196273803711 -18.674448013305664 L -38.929813385009766 -18.606767654418945 L -38.934200286865234 -18.56896209716797 L -38.94997787475586 -18.43199920654297 L -39.01609420776367 -17.858060836791992 L -39.02613830566406 -17.752317428588867 L -39.09321975708008 -17.039674758911133 L -39.14205551147461 -16.384000778198242 L -39.146366119384766 -16.32615852355957 L -39.154090881347656 -16.220287322998047 L -39.159629821777344 -16.114288330078125 L -39.196189880371094 -15.400527000427246 L -39.19622039794922 -15.399901390075684 L -39.197479248046875 -15.359999656677246 L -39.19956970214844 -15.29377269744873 L -39.22222137451172 -14.57851505279541 L -39.22338104248047 -14.472257614135742 L -39.22487258911133 -14.336000442504883 L -39.23122024536133 -13.756999969482422 L -39.231201171875 -13.755261421203613 L -39.22338104248047 -13.041742324829102 L -39.22226333618164 -12.939610481262207 L -39.22222137451172 -12.935613632202148 L -39.20171356201172 -12.288000106811523 L -39.19956970214844 -12.220355987548828 L -39.19638442993164 -12.119434356689453 L -39.19622039794922 -12.114227294921875 L -39.19068145751953 -12.008098602294922 L -39.154090881347656 -11.29371166229248 L -39.146366119384766 -11.187840461730957 L -39.09321975708008 -10.474325180053711 L -39.071136474609375 -10.239999771118164 L -39.02613830566406 -9.762553215026855 L -39.01609420776367 -9.656810760498047 L -38.934200286865234 -8.945908546447754 L -38.92196273803711 -8.840423583984375 L -38.83274459838867 -8.192000389099121 L -38.82439041137695 -8.131264686584473 L -38.81009292602539 -8.026037216186523 L -38.80867385864258 -8.017046928405762 L -38.698577880859375 -7.319492340087891 L -38.68691635131836 -7.245896339416504 L -38.68196487426758 -7.214651107788086 L -38.681636810302734 -7.212852954864502 L -38.55476760864258 -6.510719299316406 L -38.53596496582031 -6.4061360359191895 L -38.51496887207031 -6.30206823348999 L -38.483158111572266 -6.144000053405762 L -38.373836517333984 -5.600749492645264 L -38.370357513427734 -5.585219860076904 L -38.350650787353516 -5.497196674346924 L -38.194705963134766 -4.798491954803467 L -38.18933868408203 -4.776664733886719 L -38.023948669433594 -4.104143142700195 L -38.02194595336914 -4.0960001945495605 L -38.00932693481445 -4.044681072235107 L -37.99857711791992 -4.000977039337158 L -37.813011169433594 -3.310112953186035 L -37.78557586669922 -3.2074618339538574 L -37.75595474243164 -3.1055831909179688 L -37.558231353759766 -2.424351930618286 L -37.55644989013672 -2.4182040691375732 L -37.551490783691406 -2.4024078845977783 L -37.524635314941406 -2.316840887069702 L -37.44062423706055 -2.0480000972747803 L -37.31119155883789 -1.6338177919387817 L -37.08293533325195 -0.9560218453407288 L -37.0490608215332 -0.8553025722503662 L -37.04835891723633 -0.8533486723899841 L -36.86399841308594 -0.3407237827777862 L -36.80686569213867 -0.18186269700527186 L -36.77093505859375 -0.0820449590682983 L -36.73939514160156 4.440892164675075e-17 L -36.732810974121094 0.017128797248005912 L -36.476219177246094 0.6833972930908203 L -36.47580337524414 0.6844702363014221 L -36.43574905395508 0.7827423810958862 L -36.16622543334961 1.4443769454956055 L -36.16567611694336 1.445727825164795 L -36.12342834472656 1.543227195739746 L -35.9048957824707 2.0480000972747803 L -35.83941650390625 2.1992430686950684 L -35.79524230957031 2.2958407402038574 L -35.498573303222656 2.9438204765319824 L -35.49728775024414 2.946629285812378 L -35.4510498046875 3.042196750640869 L -35.14002990722656 3.6860158443450928 L -34.93111801147461 4.0960001945495605 L -34.81507110595703 4.323736190795898 L -34.766902923583984 4.418402194976807 L -34.76551818847656 4.420986652374268 L -34.42887496948242 5.0491533279418945 L -34.37864685058594 5.142659664154053 L -34.32661056518555 5.235264778137207 L -33.97551727294922 5.858174800872803 L -33.80652618408203 6.144000053405762 L -33.61135482788086 6.474115371704102 L -33.55725860595703 6.565432548522949 L -33.18002700805664 7.173532009124756 L -33.12415313720703 7.263574123382568 L -33.124000549316406 7.263818740844727 L -33.06616973876953 7.352946758270264 L -32.768001556396484 7.812543869018555 L -32.67674255371094 7.953205108642578 L -32.61711120605469 8.040916442871094 L -32.514312744140625 8.192000389099121 L -32.21461486816406 8.632462501525879 L -32.15304946899414 8.71914291381836 L -31.74228286743164 9.296462059020996 L -31.738357543945312 9.30197811126709 L -31.67511749267578 9.387112617492676 L -31.249099731445312 9.962106704711914 L -31.032960891723633 10.239999771118164 L -30.810012817382812 10.526646614074707 L -30.744842529296875 10.61062240600586 L -30.740955352783203 10.615434646606445 L -30.719999313354492 10.641386032104492 L -30.29530143737793 11.16732120513916 L -30.24196434020996 11.233196258544922 L -30.228456497192383 11.249879837036133 L -29.765846252441406 11.796123504638672 L -29.69732666015625 11.877137184143066 L -29.627132415771484 11.956862449645996 L -29.335237503051758 12.288000106811523 L -29.154069900512695 12.493523597717285 L -29.08220100402832 12.571703910827637 L -28.672000885009766 13.018119812011719 L -28.598918914794922 13.09765338897705 L -28.598682403564453 13.097909927368164 L -28.52513885498047 13.174544334411621 L -28.0294246673584 13.691167831420898 L -27.44816780090332 14.272425651550293 L -27.381906509399414 14.336000442504883 L -26.932415008544922 14.767268180847168 L -26.859264373779297 14.837470054626465 L -26.85578155517578 14.840811729431152 L -26.624000549316406 15.053820610046387 L -26.43393898010254 15.22848892211914 L -26.328702926635742 15.325200080871582 L -26.250524520874023 15.397068977355957 L -25.713863372802734 15.870132446289062 L -25.634265899658203 15.940326690673828 L -25.633441925048828 15.941022872924805 L -25.553123474121094 16.008846282958984 L -25.109310150146484 16.384000778198242 L -25.008468627929688 16.469242095947266 L -25.006879806518555 16.470584869384766 L -24.924320220947266 16.537429809570312 L -24.576000213623047 16.819690704345703 L -24.368494033813477 16.987842559814453 L -24.28464698791504 17.052885055541992 L -23.719236373901367 17.491100311279297 L -23.145112991333008 17.91798973083496 L -23.05984878540039 17.98135757446289 L -22.47614288330078 18.39604949951172 L -22.425601959228516 18.43199920654297 L -22.389591217041016 18.45761489868164 L -22.387224197387695 18.4592227935791 L -21.798044204711914 18.85923957824707 L -21.710205078125 18.918872833251953 L -21.109947204589844 19.309171676635742 L -21.02081871032715 19.367000579833984 L -20.930660247802734 19.42302703857422 L -20.479999542236328 19.701946258544922 L -20.326160430908203 19.79715919494629 L -20.322561264038086 19.799386978149414 L -20.231115341186523 19.85335350036621 L -19.615175247192383 20.21751594543457 L -19.149478912353516 20.479999542236328 L -18.992265701293945 20.56861114501953 L -18.89978790283203 20.620773315429688 L -18.898324966430664 20.621559143066406 L -18.80615234375 20.671005249023438 L -18.43199920654297 20.872034072875977 L -18.17556381225586 21.009815216064453 L -18.17540168762207 21.009902954101562 L -18.08073616027832 21.058073043823242 L -17.445011138916016 21.381587982177734 L -17.44388771057129 21.382160186767578 L -16.799196243286133 21.69405174255371 L -16.703628540039062 21.74028968811035 L -16.384000778198242 21.886821746826172 L -16.053712844848633 22.038240432739258 L -15.961854934692383 22.080249786376953 L -15.957114219665527 22.08241844177246 L -15.300227165222168 22.366430282592773 L -15.20285701751709 22.408546447753906 L -14.910003662109375 22.527999877929688 L -14.540742874145508 22.678619384765625 L -14.450531005859375 22.7154598236084 L -14.442341804504395 22.71880531311035 L -14.336000442504883 22.759565353393555 L -13.774128913879395 22.974937438964844 L -13.675084114074707 23.0129337310791 L -13.5751371383667 23.048995971679688 L -12.901697158813477 23.292062759399414 L -12.898765563964844 23.293048858642578 L -12.80097770690918 23.32593536376953 L -12.288000106811523 23.498027801513672 L -12.12318229675293 23.553319931030273 L -11.44015884399414 23.767635345458984 L -11.338924407958984 23.799320220947266 L -10.652417182922363 23.998825073242188 L -10.550409317016602 24.0284481048584 L -10.447758674621582 24.056011199951172 L -10.239999771118164 24.111743927001953 L -9.756023406982422 24.2415771484375 L -9.652985572814941 24.266820907592773 L -8.958636283874512 24.437576293945312 L -8.929274559020996 24.444129943847656 L -8.338440895080566 24.576000213623047 L -8.259931564331055 24.593523025512695 L -8.192000389099121 24.608713150024414 L -8.171977996826172 24.613189697265625 L -8.15625 24.61670684814453 L -7.454931735992432 24.757841110229492 L -7.350863933563232 24.77883529663086 L -7.246280670166016 24.797639846801758 L -7.168000221252441 24.811687469482422 L -6.868802547454834 24.865379333496094 L -6.54536247253418 24.92342185974121 L -6.542348861694336 24.92396354675293 L -6.4375081062316895 24.94057846069336 L -6.144000053405762 24.98726463317871 L -5.73096227645874 25.052963256835938 L -5.625735282897949 25.0673885345459 L -5.119999885559082 25.1363525390625 L -4.916575908660889 25.164093017578125 L -4.81109094619751 25.176328659057617 L -4.10106086730957 25.259092330932617 L -4.0960001945495605 25.259572982788086 L -3.9953184127807617 25.26913833618164 L -3.2826743125915527 25.33622169494629 L -2.5691592693328857 25.388492584228516 L -2.464273691177368 25.396148681640625 L -2.4632880687713623 25.396221160888672 L -2.357287883758545 25.40176010131836 L -2.0480000972747803 25.417978286743164 L -1.6434906721115112 25.439189910888672 L -1.6429015398025513 25.439220428466797 L -1.5367727279663086 25.442569732666016 L -0.8215152025222778 25.465221405029297 L -0.7152575850486755 25.466381072998047 L 0 25.474220275878906 L 0.7152575850486755 25.466381072998047 L 0.8175204396247864 25.46526527404785 L 0.8215152025222778 25.465221405029297 L 1.5367727279663086 25.442569732666016 L 1.6429015398025513 25.439220428466797 L 2.0480000972747803 25.417978286743164 L 2.357287883758545 25.40176010131836 L 2.4632880687713623 25.396221160888672 L 2.464273691177368 25.396148681640625 L 2.5691592693328857 25.388492584228516 L 3.2826743125915527 25.33622169494629 L 3.9953184127807617 25.26913833618164 L 4.0960001945495605 25.259572982788086 L 4.10106086730957 25.259092330932617 L 4.81109094619751 25.176328659057617 L 4.916575908660889 25.164093017578125 L 5.625735282897949 25.0673885345459 L 5.711597919464111 25.055618286132812 L 5.73096227645874 25.052963256835938 L 6.144000053405762 24.98726463317871 L 6.4375081062316895 24.94057846069336 L 6.542348861694336 24.92396354675293 L 7.246280670166016 24.797639846801758 L 7.350863933563232 24.77883529663086 L 7.454931735992432 24.757841110229492 L 8.154311180114746 24.617095947265625 L 8.15625 24.61670684814453 L 8.171977996826172 24.613189697265625 L 8.192000389099121 24.608713150024414 L 8.259931564331055 24.593523025512695 L 8.338440895080566 24.576000213623047 L 8.958636283874512 24.437576293945312 L 9.652985572814941 24.266820907592773 L 9.756023406982422 24.2415771484375 L 9.760276794433594 24.240436553955078 L 10.239999771118164 24.111743927001953 L 10.447758674621582 24.056011199951172 L 10.550409317016602 24.0284481048584 L 10.652417182922363 23.998825073242188 L 11.338924407958984 23.799320220947266 L 11.44015884399414 23.767635345458984 L 12.12318229675293 23.553319931030273 L 12.288000106811523 23.498027801513672 L 12.80097770690918 23.32593536376953 L 12.898765563964844 23.293048858642578 L 12.901697158813477 23.292062759399414 L 13.5751371383667 23.048995971679688 L 13.675084114074707 23.0129337310791 L 13.774128913879395 22.974937438964844 L 14.336000442504883 22.759565353393555 L 14.440411567687988 22.71954345703125 L 14.442341804504395 22.71880531311035 L 14.450531005859375 22.7154598236084 L 14.540742874145508 22.678619384765625 L 14.910003662109375 22.527999877929688 L 15.202144622802734 22.408836364746094 L 15.20285701751709 22.408546447753906 L 15.300227165222168 22.366430282592773 L 15.957114219665527 22.08241844177246 L 16.053712844848633 22.038240432739258 L 16.384000778198242 21.886821746826172 L 16.70346450805664 21.74036407470703 L 16.703628540039062 21.74028968811035 L 16.799196243286133 21.69405174255371 L 17.144094467163086 21.52719497680664 L 17.192039489746094 21.503999710083008 L 17.442657470703125 21.382755279541016 L 17.44388771057129 21.382160186767578 L 18.08073616027832 21.058073043823242 L 18.156173706054688 21.01968765258789 L 18.17540168762207 21.009902954101562 L 18.43199920654297 20.872034072875977 L 18.80615234375 20.671005249023438 L 18.89978790283203 20.620773315429688 L 18.992265701293945 20.56861114501953 L 19.149478912353516 20.479999542236328 L 19.58985137939453 20.23179054260254 L 19.615175247192383 20.21751594543457 L 20.231115341186523 19.85335350036621 L 20.322561264038086 19.799386978149414 L 20.479999542236328 19.701946258544922 L 20.930660247802734 19.42302703857422 L 21.02081871032715 19.367000579833984 L 21.109947204589844 19.309171676635742 L 21.710205078125 18.918872833251953 L 21.798044204711914 18.85923957824707 L 22.389591217041016 18.45761489868164 L 22.425601959228516 18.43199920654297 L 22.47614288330078 18.39604949951172 L 23.05984878540039 17.98135757446289 L 23.075620651245117 17.969635009765625 L 23.145112991333008 17.91798973083496 L 23.719236373901367 17.491100311279297 L 24.28464698791504 17.052885055541992 L 24.357481002807617 16.996383666992188 L 24.368494033813477 16.987842559814453 L 24.576000213623047 16.819690704345703 L 24.924320220947266 16.537429809570312 L 24.99351692199707 16.481403350830078 L 25.006879806518555 16.470584869384766 L 25.109310150146484 16.384000778198242 L 25.553123474121094 16.008846282958984 L 25.634265899658203 15.940326690673828 L 25.713863372802734 15.870132446289062 L 26.249967575073242 15.39755916595459 L 26.250524520874023 15.397068977355957 L 26.256027221679688 15.392009735107422 L 26.328702926635742 15.325200080871582 L 26.624000549316406 15.053820610046387 L 26.85539436340332 14.841167449951172 L 26.85578155517578 14.840811729431152 L 26.932415008544922 14.767268180847168 L 27.381906509399414 14.336000442504883 L 27.44816780090332 14.272425651550293 L 28.0294246673584 13.691167831420898 L 28.52513885498047 13.174544334411621 L 28.598682403564453 13.097909927368164 L 28.598918914794922 13.09765338897705 L 28.672000885009766 13.018119812011719 L 29.08220100402832 12.571703910827637 L 29.154069900512695 12.493523597717285 L 29.335237503051758 12.288000106811523 L 29.627132415771484 11.956862449645996 L 29.694982528686523 11.879799842834473 L 29.69732666015625 11.877137184143066 L 29.765846252441406 11.796123504638672 L 30.228456497192383 11.249879837036133 L 30.29530143737793 11.16732120513916 L 30.719999313354492 10.641386032104492 L 30.744842529296875 10.61062240600586 L 30.810012817382812 10.526646614074707 L 31.032960891723633 10.239999771118164 L 31.224735260009766 9.993432998657227 L 31.249099731445312 9.962106704711914 L 31.67511749267578 9.387112617492676 L 31.738357543945312 9.30197811126709 L 32.15304946899414 8.71914291381836 L 32.21461486816406 8.632462501525879 L 32.514312744140625 8.192000389099121 L 32.61711120605469 8.040916442871094 L 32.67674255371094 7.953205108642578 L 32.768001556396484 7.812543869018555 L 33.06616973876953 7.352946758270264 L 33.124000549316406 7.263818740844727 L 33.18002700805664 7.173532009124756 L 33.55725860595703 6.565432548522949 L 33.61135482788086 6.474115371704102 L 33.80652618408203 6.144000053405762 L 33.97551727294922 5.858174800872803 L 34.32661056518555 5.235264778137207 L 34.37864685058594 5.142659664154053 L 34.42887496948242 5.0491533279418945 L 34.76551818847656 4.420986652374268 L 34.766902923583984 4.418402194976807 L 34.81507110595703 4.323736190795898 L 34.816001892089844 4.3219170570373535 L 34.93111801147461 4.0960001945495605 L 35.13056945800781 3.7045843601226807 L 35.14002990722656 3.6860158443450928 L 35.43665313720703 3.072000026702881 L 35.4510498046875 3.042196750640869 L 35.49728775024414 2.946629285812378 L 35.79524230957031 2.2958407402038574 L 35.83941650390625 2.1992430686950684 L 35.86207962036133 2.146895408630371 L 35.8641471862793 2.1421191692352295 L 35.9048957824707 2.0480000972747803 L 36.12342834472656 1.543227195739746 L 36.162960052490234 1.4519952535629272 L 36.16567611694336 1.445727825164795 L 36.43574905395508 0.7827423810958862 L 36.47580337524414 0.6844702363014221 L 36.732810974121094 0.017128797248005912 L 36.73939514160156 4.440892164675075e-17 L 36.77093505859375 -0.0820449590682983 L 36.80686569213867 -0.18186269700527186 L 36.86399841308594 -0.3407237827777862 L 37.04835891723633 -0.8533486723899841 L 37.0490608215332 -0.8553025722503662 L 37.08293533325195 -0.9560218453407288 L 37.31119155883789 -1.6338177919387817 L 37.44062423706055 -2.0480000972747803 L 37.524635314941406 -2.316840887069702 L 37.55644989013672 -2.4182040691375732 L 37.558231353759766 -2.424351930618286 L 37.75595474243164 -3.1055831909179688 L 37.78557586669922 -3.2074618339538574 L 37.78620529174805 -3.2098121643066406 L 37.813011169433594 -3.310112953186035 L 37.99857711791992 -4.000977039337158 L 38.02194595336914 -4.0960001945495605 L 38.023948669433594 -4.104143142700195 L 38.194705963134766 -4.798491954803467 L 38.21788787841797 -4.902044773101807 L 38.31885528564453 -5.354419708251953 L 38.37025833129883 -5.584721565246582 L 38.373836517333984 -5.600749492645264 L 38.483158111572266 -6.144000053405762 L 38.51496887207031 -6.30206823348999 L 38.535072326660156 -6.401711463928223 L 38.53596496582031 -6.4061360359191895 L 38.55476760864258 -6.510719299316406 L 38.681636810302734 -7.212852954864502 L 38.68196487426758 -7.214651107788086 L 38.68691635131836 -7.245896339416504 L 38.698577880859375 -7.319492340087891 L 38.80867385864258 -8.017046928405762 L 38.81009292602539 -8.026037216186523 L 38.82439041137695 -8.131264686584473 L 38.83274459838867 -8.192000389099121 L 38.92196273803711 -8.840423583984375 L 38.934200286865234 -8.945908546447754 L 39.01609420776367 -9.656810760498047 L 39.02613830566406 -9.762553215026855 L 39.071136474609375 -10.239999771118164 L 39.09321975708008 -10.474325180053711 L 39.146366119384766 -11.187840461730957 L 39.15192413330078 -11.263999938964844 L 39.154090881347656 -11.29371166229248 L 39.19068145751953 -12.008098602294922 L 39.19622039794922 -12.114227294921875 L 39.19956970214844 -12.220355987548828 L 39.20171356201172 -12.288000106811523 L 39.22222137451172 -12.935613632202148 L 39.22226333618164 -12.939610481262207 L 39.22338104248047 -13.041742324829102 L 39.23122024536133 -13.756999969482422 L 39.231204986572266 -13.758304595947266 L 39.22487258911133 -14.336000442504883 L 39.22338104248047 -14.472257614135742 L 39.22226333618164 -14.574520111083984 L 39.22222137451172 -14.57851505279541 L 39.19956970214844 -15.29377269744873 L 39.19622039794922 -15.399901390075684 L 39.159629821777344 -16.114288330078125 L 39.154090881347656 -16.220287322998047 L 39.146366119384766 -16.32615852355957 L 39.14205551147461 -16.384000778198242 L 39.09321975708008 -17.039674758911133 L 39.02613830566406 -17.752317428588867 L 39.01609420776367 -17.858060836791992 L 38.94997787475586 -18.43199920654297 L 38.934200286865234 -18.56896209716797 L 38.929813385009766 -18.606767654418945 L 38.92196273803711 -18.674448013305664 L 38.9119987487793 -18.74677276611328 L 38.82439041137695 -19.382734298706055 L 38.81009292602539 -19.48796272277832 L 38.698577880859375 -20.194507598876953 L 38.68424606323242 -20.285051345825195 L 38.68196487426758 -20.299476623535156 L 38.649383544921875 -20.479999542236328 L 38.55476760864258 -21.00428009033203 L 38.53639602661133 -21.1063289642334 L 38.53596496582031 -21.108736038208008 L 38.51496887207031 -21.21280288696289 L 38.373836517333984 -21.914121627807617 L 38.23665237426758 -22.527999877929688 L 38.21788787841797 -22.611955642700195 L 38.194705963134766 -22.71563720703125 L 38.023948669433594 -23.410856246948242 L 38.00652313232422 -23.481712341308594 L 37.99857711791992 -23.514022827148438 L 37.813011169433594 -24.20488739013672 L 37.78557586669922 -24.307409286499023 L 37.75595474243164 -24.40941619873047 L 37.707542419433594 -24.576000213623047 L 37.558265686035156 -25.08967399597168 L 37.55644989013672 -25.095924377441406 L 37.524635314941406 -25.197288513183594 L 37.31119155883789 -25.880311965942383 L 37.08293533325195 -26.558107376098633 L 37.06074523925781 -26.624000549316406 L 37.05007553100586 -26.65569305419922 L 37.0490608215332 -26.6586971282959 L 37.049041748046875 -26.658756256103516 L 36.86399841308594 -27.173276901245117 L 36.80686569213867 -27.332138061523438 L 36.77093505859375 -27.432083129882812 L 36.732810974121094 -27.53125762939453 L 36.47580337524414 -28.19947052001953 L 36.43574905395508 -28.29774284362793 L 36.2830924987793 -28.672000885009766 L 36.16718673706055 -28.95615577697754 L 36.16567611694336 -28.959856033325195 L 36.12342834472656 -29.057355880737305 L 35.83941650390625 -29.714242935180664 L 35.79524230957031 -29.810712814331055 L 35.49864959716797 -30.45766258239746 L 35.49728775024414 -30.460628509521484 L 35.4510498046875 -30.556325912475586 L 35.37208938598633 -30.719999313354492 L 35.14822769165039 -31.184024810791016 L 35.14002990722656 -31.20101547241211 L 34.81507110595703 -31.837865829467773 L 34.766902923583984 -31.932401657104492 L 34.42887496948242 -32.56315231323242 L 34.37864685058594 -32.65678787231445 L 34.32661056518555 -32.749263763427734 L 34.31606674194336 -32.768001556396484 L 33.97551727294922 -33.373046875 L 33.61135482788086 -33.98898696899414 L 33.56583023071289 -34.06594467163086 L 33.55725860595703 -34.0804328918457 L 33.18002700805664 -34.687660217285156 L 33.124000549316406 -34.77794647216797 L 33.099273681640625 -34.816001892089844 L 33.06616973876953 -34.866947174072266 L 32.768001556396484 -35.32654571533203 L 32.67674255371094 -35.46720504760742 L 32.61711120605469 -35.55504608154297 L 32.37682342529297 -35.9081916809082 L 32.21574401855469 -36.14493179321289 L 32.21461486816406 -36.14659118652344 L 32.21278762817383 -36.149131774902344 L 32.146732330322266 -36.24300003051758 L 32.148773193359375 -36.24300003051758 L 32.151065826416016 -36.24300003051758 L 32.151519775390625 -36.24300003051758 L 32.768001556396484 -36.24300003051758 L 34.816001892089844 -36.24300003051758 L 36.86399841308594 -36.24300003051758 L 40.959999084472656 -36.24300003051758 L 49.152000427246094 -36.24300003051758 L 50 -36.24300003051758 L 50 -32.768001556396484 L 50 -16.384000778198242 L 50 4.440892164675075e-17 L 50 16.384000778198242 L 50 32.768001556396484 L 50 36.24300003051758 L 32.768001556396484 36.24300003051758 L 0 36.24300003051758 L -32.768001556396484 36.24300003051758 L -50 36.24300003051758 L -50 32.768001556396484 L -50 16.384000778198242 L -50 4.440892164675075e-17 L -50 -16.384000778198242 L -50 -32.768001556396484 L -50 -36.24300003051758 L -49.152000427246094 -36.24300003051758 L -40.959999084472656 -36.24300003051758 L -36.86399841308594 -36.24300003051758 L -34.816001892089844 -36.24300003051758 L -32.768001556396484 -36.24300003051758 L -32.16081237792969 -36.24300003051758 L -32.151065826416016 -36.24300003051758 L -32.149017333984375 -36.24300003051758 L -32.146732330322266 -36.24300003051758 L -32.21278762817383 -36.149131774902344 L -32.21461486816406 -36.14659118652344 L -32.37682342529297 -35.9081916809082 L -32.61711120605469 -35.55504608154297 L -32.67674255371094 -35.46720504760742 L -32.768001556396484 -35.32654571533203 L -33.06616973876953 -34.866947174072266 L -33.099273681640625 -34.816001892089844 L -33.122581481933594 -34.78013610839844 L -33.124000549316406 -34.77794647216797 L -33.18002700805664 -34.687660217285156 L -33.55725860595703 -34.0804328918457 L -33.61135482788086 -33.98898696899414 L -33.97551727294922 -33.373046875 L -34.31606674194336 -32.768001556396484 L -34.32661056518555 -32.749263763427734 L -34.37864685058594 -32.65678787231445 L -34.42887496948242 -32.56315231323242 L -34.766902923583984 -31.932401657104492 L -34.81507110595703 -31.837865829467773 L -34.816001892089844 -31.836048126220703 L -35.13099670410156 -31.21872329711914 L -35.14002990722656 -31.20101547241211 L -35.37208938598633 -30.719999313354492 L -35.4510498046875 -30.556325912475586 L -35.49728775024414 -30.460628509521484 L -35.79524230957031 -29.810712814331055 L -35.83941650390625 -29.714242935180664 L -35.84730529785156 -29.695999145507812 L -36.12342834472656 -29.057355880737305 L -36.16567611694336 -28.959856033325195 L -36.16718673706055 -28.95615577697754 L -36.2830924987793 -28.672000885009766 L -36.43574905395508 -28.29774284362793 L -36.47580337524414 -28.19947052001953 L -36.732810974121094 -27.53125762939453 L -36.77093505859375 -27.432083129882812 L -36.80686569213867 -27.332138061523438 L -36.86399841308594 -27.173276901245117 L -37.0490608215332 -26.6586971282959 L -37.05007553100586 -26.65569305419922 L -37.06074523925781 -26.624000549316406 L -37.08293533325195 -26.558107376098633 L -37.297637939453125 -25.92055892944336 L -37.31119155883789 -25.880311965942383 L -37.524635314941406 -25.197288513183594 L -37.55644989013672 -25.095924377441406 L -37.707542419433594 -24.576000213623047 L -37.75595474243164 -24.40941619873047 L -37.78557586669922 -24.307409286499023 L -37.813011169433594 -24.20488739013672 L -37.99857711791992 -23.514022827148438 L -38.00652313232422 -23.481712341308594 L -38.023948669433594 -23.410856246948242 L -38.19367980957031 -22.719816207885742 L -38.194705963134766 -22.71563720703125 L -38.236637115478516 -22.527999877929688 L -38.350650787353516 -22.017803192138672 z" fill="none" stroke="rgb(0,0,255)" stroke-width="0.01mm" />
</svg>