<?xml version="1.0" standalone="no"?>
<!DOCTYPE svg PUBLIC "-//W3C//DTD SVG 1.1//EN"
  "http://www.w3.org/Graphics/SVG/1.1/DTD/svg11.dtd">
<svg width="102mm" height="61.25mm" viewBox="-51 -30.625 102 61.25" xmlns="http://www.w3.org/2000/svg" version="1.1">
	<title>svgOutput</title>
	<desc>made with tinkercad</desc>
<path d="M 20.151235580444336 11.29670524597168 L 20.325075149536133 11.186843872070312 L 20.479999542236328 11.08622932434082 L 20.775638580322266 10.894230842590332 L 21.249496459960938 10.571775436401367 L 21.41679573059082 10.458002090454102 L 21.42555046081543 10.452047348022461 L 21.428062438964844 10.450263023376465 L 21.723953247070312 10.239999771118164 L 21.878299713134766 10.130319595336914 L 22.051904678344727 10.007054328918457 L 22.09630584716797 9.975027084350586 L 22.28866958618164 9.832727432250977 L 22.327730178833008 9.80366039276123 L 22.327791213989258 9.803614616394043 L 22.33783721923828 9.811467170715332 L 22.338106155395508 9.811676979064941 L 22.675111770629883 10.075084686279297 L 22.88617706298828 10.239999771118164 L 24.576000213623047 11.560331344604492 L 26.016590118408203 12.68592643737793 L 27.381000518798828 13.751999855041504 L 27.381877899169922 13.750877380371094 L 31.725013732910156 8.192000389099121 L 32.768001556396484 6.857058525085449 L 38.12540054321289 4.440892164675075e-17 L 39.737998962402344 -2.063999891281128 L 37.13683319091797 -4.0960001945495605 L 36.86399841308594 -4.309133529663086 L 35.03117370605469 -5.740914821624756 L 34.694427490234375 -6.003897190093994 L 34.68379211425781 -6.012203216552734 L 34.683815002441406 -6.012266159057617 L 34.737754821777344 -6.144000053405762 L 34.83763122558594 -6.387938976287842 L 34.89205551147461 -6.5212721824646 L 34.9019889831543 -6.545845985412598 L 34.9058837890625 -6.555482864379883 L 35.09804916381836 -7.057000160217285 L 35.17423629760742 -7.255639553070068 L 35.19388961791992 -7.306591987609863 L 35.19557189941406 -7.311257839202881 L 35.26599884033203 -7.506864070892334 L 35.45379638671875 -8.029489517211914 L 35.50862503051758 -8.192000389099121 L 35.52182388305664 -8.231122016906738 L 35.704524993896484 -8.774128913879395 L 35.78759002685547 -9.037238121032715 L 35.802146911621094 -9.083637237548828 L 35.88014602661133 -9.080909729003906 L 36.24264144897461 -9.068233489990234 L 36.86399841308594 -9.046558380126953 L 40.959999084472656 -8.903674125671387 L 42.21200180053711 -8.859999656677246 L 42.21202850341797 -8.860843658447266 L 42.474578857421875 -16.384000778198242 L 42.9119987487793 -28.917999267578125 L 40.959999084472656 -28.986103057861328 L 36.943580627441406 -29.12623405456543 L 36.86399841308594 -29.129037857055664 L 36.551475524902344 -29.140052795410156 L 36.51344680786133 -29.141393661499023 L 36.5038948059082 -29.1417293548584 L 36.50285720825195 -29.141765594482422 L 36.421966552734375 -29.471128463745117 L 36.3842658996582 -29.625 L 36.38590621948242 -29.625 L 36.397926330566406 -29.625 L 36.43194580078125 -29.625 L 36.86399841308594 -29.625 L 40.959999084472656 -29.625 L 49.152000427246094 -29.625 L 50 -29.625 L 50 -16.384000778198242 L 50 4.440892164675075e-17 L 50 29.625 L 32.768001556396484 29.625 L 24.788166046142578 29.625 L 24.77713966369629 29.625 L 16.384000778198242 29.625 L 8.192000389099121 29.625 L 0 29.625 L -8.192000389099121 29.625 L -16.384000778198242 29.625 L -32.768001556396484 29.625 L -50 29.625 L -50 4.440892164675075e-17 L -50 -16.384000778198242 L -50 -29.625 L -49.152000427246094 -29.625 L -42.29100036621094 -29.625 L -42.75315475463867 -16.384000778198242 L -42.911930084228516 -11.835040092468262 L -42.911964416503906 -11.83405590057373 L -42.9119987487793 -11.833000183105469 L -40.959999084472656 -11.764896392822266 L -36.943580627441406 -11.62476634979248 L -36.86399841308594 -11.621975898742676 L -36.569488525390625 -11.611648559570312 L -36.528236389160156 -11.610201835632324 L -36.516197204589844 -11.609779357910156 L -36.507137298583984 -11.609461784362793 L -36.50312042236328 -11.609321594238281 L -36.50297164916992 -11.609315872192383 L -36.50213623046875 -11.605921745300293 L -36.422447204589844 -11.281881332397461 L -36.37091064453125 -11.082549095153809 L -36.360496520996094 -11.040022850036621 L -36.349212646484375 -10.997495651245117 L -36.2984619140625 -10.79812240600586 L -36.26841735839844 -10.686116218566895 L -36.1594352722168 -10.279864311218262 L -36.147850036621094 -10.239999771118164 L -36.00439453125 -9.746319770812988 L -35.944801330566406 -9.541966438293457 L -35.92878723144531 -9.489558219909668 L -35.865386962890625 -9.286564826965332 L -35.704524993896484 -8.774128913879395 L -35.61661911010742 -8.512872695922852 L -35.600563049316406 -8.4669828414917 L -35.6011848449707 -8.46656322479248 L -35.96635818481445 -8.22017765045166 L -36.00812911987305 -8.192000389099121 L -40.917999267578125 -4.880000114440918 L -40.91765213012695 -4.879485130310059 L -40.389259338378906 -4.0960001945495605 L -38.10300064086914 -0.7059999704360962 L -37.62678146362305 4.440892164675075e-17 L -32.768001556396484 7.203226566314697 L -32.101043701171875 8.192000389099121 L -29.695781707763672 11.757841110229492 L -29.69499969482422 11.758999824523926 L -24.74429702758789 8.4188232421875 L -24.576000213623047 8.30533218383789 L -24.45293426513672 8.222343444824219 L -24.452301025390625 8.221916198730469 L -24.44083595275879 8.214184761047363 L -24.40793800354004 8.192000389099121 L -24.389842987060547 8.179798126220703 L -24.382741928100586 8.175009727478027 L -24.382648468017578 8.174946784973145 L -24.379169464111328 8.172600746154785 L -24.3787899017334 8.172344207763672 L -24.377655029296875 8.173301696777344 L -24.35550880432129 8.192000389099121 L -24.06797218322754 8.434775352478027 L -23.95831298828125 8.527565002441406 L -23.916095733642578 8.562503814697266 L -23.750652313232422 8.696380615234375 L -23.319013595581055 9.045768737792969 L -23.312000274658203 9.05134391784668 L -23.290626525878906 9.068333625793457 L -23.12246322631836 9.198945999145508 L -22.698102951049805 9.527952194213867 L -22.527999877929688 9.654379844665527 L -22.26719093322754 9.848224639892578 L -22.09630584716797 9.975027084350586 L -22.051904678344727 10.007054328918457 L -21.842018127441406 10.156672477722168 L -21.802350997924805 10.184876441955566 L -21.82240867614746 10.239999771118164 L -21.953060150146484 10.599076271057129 L -22.567779541015625 12.288000106811523 L -23.996000289916992 16.211999893188477 L -23.995431900024414 16.212207794189453 L -23.994617462158203 16.21250343322754 L -23.523401260375977 16.384000778198242 L -16.384000778198242 18.98234748840332 L -8.192000389099121 21.96378517150879 L -5.136000156402588 23.076000213623047 L -4.190974235534668 20.479999542236328 L -4.0960001945495605 20.21910285949707 L -3.4454381465911865 18.43199920654297 L -3.0930609703063965 17.464014053344727 L -2.9512546062469482 17.074169158935547 L -2.9469428062438965 17.062314987182617 L -2.946566581726074 17.061281204223633 L -2.9423515796661377 17.049694061279297 L -2.9422383308410645 17.049701690673828 L -2.9412848949432373 17.049772262573242 L -2.537170171737671 17.079191207885742 L -2.393768787384033 17.089801788330078 L -2.3756392002105713 17.09125328063965 L -2.3573741912841797 17.092714309692383 L -2.0480000972747803 17.108665466308594 L -1.820918321609497 17.12037467956543 L -1.6084014177322388 17.13153076171875 L -1.5538095235824585 17.134441375732422 L -1.3410204648971558 17.141244888305664 L -0.7863673567771912 17.158714294433594 L -0.5735782384872437 17.160890579223633 L 0 17.16671371459961 L 0.27568042278289795 17.16351318359375 L 0.32421639561653137 17.16241455078125 L 0.32423901557922363 17.162412643432617 L 0.32796674966812134 17.175416946411133 L 0.3403162360191345 17.218496322631836 L 0.4458301067352295 17.586572647094727 L 0.6882293820381165 18.43199920654297 L 1.2754275798797607 20.479999542236328 L 2.0920000076293945 23.327999114990234 L 2.094714879989624 23.327220916748047 L 8.192000389099121 21.578908920288086 L 16.384000778198242 19.22996711730957 L 21.385000228881836 17.79599952697754 L 20.98008918762207 16.384000778198242 L 19.805500030517578 12.288000106811523 L 19.73883056640625 12.055510520935059 L 19.630022048950195 11.675806045532227 L 19.619365692138672 11.638622283935547 L 19.618478775024414 11.635526657104492 L 19.61756706237793 11.632344245910645 L 19.61737060546875 11.6316556930542 L 19.721691131591797 11.566964149475098 L 19.90389060974121 11.453980445861816 L 20.077465057373047 11.343571662902832 L 20.114784240722656 11.320138931274414 L 20.151235580444336 11.29670524597168 z" fill="none" stroke="rgb(0,0,255)" stroke-width="0.01mm" />
</svg>