<?xml version="1.0" standalone="no"?>
<!DOCTYPE svg PUBLIC "-//W3C//DTD SVG 1.1//EN"
  "http://www.w3.org/Graphics/SVG/1.1/DTD/svg11.dtd">
<svg width="102mm" height="100.95800018310547mm" viewBox="-51 -50.479000091552734 102 100.95800018310547" xmlns="http://www.w3.org/2000/svg" version="1.1">
	<title>svgOutput</title>
	<desc>made with tinkercad</desc>
<path d="M -31.779420852661133 -24.799663543701172 L -31.85618782043457 -24.700838088989258 L -32.24806594848633 -24.174156188964844 L -32.35597229003906 -24.028837203979492 L -32.768001556396484 -23.44860076904297 L -32.840972900390625 -23.345836639404297 L -32.92416000366211 -23.223419189453125 L -33.16836166381836 -22.86381721496582 L -33.168426513671875 -22.863723754882812 L -33.211936950683594 -22.87786102294922 L -37.6837158203125 -24.330856323242188 L -39.39799880981445 -24.88800048828125 L -39.398189544677734 -24.887414932250977 L -39.39830017089844 -24.887081146240234 L -42.16140365600586 -16.384000778198242 L -46.196998596191406 -3.9649999141693115 L -44.48244094848633 -3.4078571796417236 L -39.97100067138672 -1.9419680833816528 L -39.96717071533203 -1.9407235383987427 L -39.9671745300293 -1.9406307935714722 L -39.98057556152344 -1.505812406539917 L -39.98532485961914 -1.3580000400543213 L -39.99237823486328 -0.7020000219345093 L -39.99410629272461 -0.5210000276565552 L -39.99237823486328 -0.3397837579250335 L -39.98872756958008 4.440892164675075e-17 L -39.98542404174805 0.30782985687255865 L -39.98532485961914 0.3170000016689301 L -39.98057556152344 0.4648123979568482 L -39.96717834472656 0.8987579345703125 L -39.96717071533203 0.8989788293838501 L -44.48244094848633 2.3661317825317383 L -46.196998596191406 2.9230000972747803 L -46.19646453857422 2.92464542388916 L -41.8230094909668 16.384000778198242 L -39.39830017089844 23.846080780029297 L -39.398189544677734 23.84641456604004 L -39.39803695678711 23.846885681152344 L -39.39799880981445 23.847000122070312 L -37.6837158203125 23.289857864379883 L -33.17850112915039 21.82599639892578 L -33.168426513671875 21.822723388671875 L -33.16836166381836 21.822818756103516 L -32.92416000366211 22.182418823242188 L -32.840972900390625 22.304838180541992 L -32.768001556396484 22.40744972229004 L -32.35597229003906 22.98683738708496 L -32.24806594848633 23.132156372070312 L -31.859148025512695 23.655637741088867 L -31.85618782043457 23.659622192382812 L -31.779420852661133 23.758447647094727 L -31.49976348876953 24.119064331054688 L -31.49942970275879 24.119495391845703 L -31.50198745727539 24.123016357421875 L -32.768001556396484 25.865427017211914 L -34.4483642578125 28.178112030029297 L -35.349998474121094 29.41900062561035 L -35.34998321533203 29.41901206970215 L -35.34759521484375 29.420747756958008 L -32.768001556396484 31.294971466064453 L -30.74059295654297 32.768001556396484 L -17.551025390625 42.350982666015625 L -17.551000595092773 42.35100173950195 L -16.649599075317383 41.110111236572266 L -16.384000778198242 40.74449920654297 L -13.72852897644043 37.089088439941406 L -13.703031539916992 37.05398941040039 L -13.700663566589355 37.05072784423828 L -13.27055835723877 37.206153869628906 L -13.152702331542969 37.248538970947266 L -12.981217384338379 37.306278228759766 L -12.358919143676758 37.515541076660156 L -12.288000106811523 37.5377311706543 L -12.186136245727539 37.569602966308594 L -11.559918403625488 37.76632308959961 L -11.523506164550781 37.77693176269531 L -11.439684867858887 37.80135726928711 L -11 37.928794860839844 L -11 37.929466247558594 L -11 37.94255065917969 L -11 40.959999084472656 L -11 44.479000091552734 L 0 44.479000091552734 L 11 44.479000091552734 L 11 40.959999084472656 L 11 37.94623565673828 L 11 37.94221878051758 L 11 37.929466247558594 L 11 37.928794860839844 L 11.439684867858887 37.80135726928711 L 11.559918403625488 37.76632308959961 L 12.186136245727539 37.569602966308594 L 12.288000106811523 37.5377311706543 L 12.358919143676758 37.515541076660156 L 12.368690490722656 37.51225280761719 L 12.981217384338379 37.306278228759766 L 13.152702331542969 37.248538970947266 L 13.27055835723877 37.206153869628906 L 13.700663566589355 37.05072784423828 L 13.703031539916992 37.05398941040039 L 13.709957122802734 37.06352233886719 L 13.716981887817383 37.07319259643555 L 13.736016273498535 37.099395751953125 L 13.739250183105469 37.10384750366211 L 16.384000778198242 40.74449920654297 L 16.649599075317383 41.110111236572266 L 17.551000595092773 42.35100173950195 L 17.552392959594727 42.3499870300293 L 30.74059295654297 32.768001556396484 L 32.768001556396484 31.294971466064453 L 35.34759521484375 29.420747756958008 L 35.34998321533203 29.41901206970215 L 35.349998474121094 29.41900062561035 L 34.4483642578125 28.178112030029297 L 32.768001556396484 25.865427017211914 L 31.527542114257812 24.158185958862305 L 31.507905960083008 24.131160736083984 L 31.50198745727539 24.123016357421875 L 31.49942970275879 24.119495391845703 L 31.779420852661133 23.758447647094727 L 31.85618782043457 23.659622192382812 L 31.859148025512695 23.655637741088867 L 32.24806594848633 23.132156372070312 L 32.35597229003906 22.98683738708496 L 32.768001556396484 22.40744972229004 L 32.840972900390625 22.304838180541992 L 32.92416000366211 22.182418823242188 L 33.16836166381836 21.822818756103516 L 33.168426513671875 21.822723388671875 L 33.17850112915039 21.82599639892578 L 33.211936950683594 21.83686065673828 L 37.6837158203125 23.289857864379883 L 39.39799880981445 23.847000122070312 L 39.398189544677734 23.84641456604004 L 39.39830017089844 23.846080780029297 L 41.8230094909668 16.384000778198242 L 46.19646453857422 2.92464542388916 L 46.19692611694336 2.9232230186462402 L 46.196998596191406 2.9230000972747803 L 44.48244094848633 2.3661317825317383 L 40.0113639831543 0.9133392572402954 L 39.982696533203125 0.9040233492851257 L 39.98263931274414 0.9040049314498901 L 39.97099304199219 0.9002208709716797 L 39.96717071533203 0.8989788293838501 L 39.98057556152344 0.4648123979568482 L 39.98532485961914 0.3170000016689301 L 39.98872756958008 4.440892164675075e-17 L 39.99237823486328 -0.3397837579250335 L 39.99410629272461 -0.5210000276565552 L 39.99237823486328 -0.7020000219345093 L 39.98532485961914 -1.3580000400543213 L 39.98057556152344 -1.505812406539917 L 39.96717071533203 -1.9407235383987427 L 39.97624206542969 -1.943670630455017 L 39.98268127441406 -1.9457629919052124 L 44.48244094848633 -3.4078571796417236 L 46.196998596191406 -3.9649999141693115 L 42.16140365600586 -16.384000778198242 L 39.39830017089844 -24.887081146240234 L 39.398189544677734 -24.887414932250977 L 39.39803695678711 -24.88788414001465 L 39.39799880981445 -24.88800048828125 L 37.6837158203125 -24.330856323242188 L 33.211936950683594 -22.87786102294922 L 33.182228088378906 -22.868207931518555 L 33.16856002807617 -22.863765716552734 L 33.168426513671875 -22.863723754882812 L 33.16836166381836 -22.86381721496582 L 32.92416000366211 -23.223419189453125 L 32.840972900390625 -23.345836639404297 L 32.768001556396484 -23.44860076904297 L 32.35597229003906 -24.028837203979492 L 32.24806594848633 -24.174156188964844 L 31.86357879638672 -24.69090461730957 L 31.85618782043457 -24.700838088989258 L 31.779420852661133 -24.799663543701172 L 31.49947166442871 -25.161441802978516 L 31.49942970275879 -25.161495208740234 L 32.768001556396484 -26.907426834106445 L 34.4483642578125 -29.220111846923828 L 35.349998474121094 -30.461000442504883 L 35.34998321533203 -30.46101188659668 L 32.768001556396484 -32.33682632446289 L 32.17450714111328 -32.768001556396484 L 17.551000595092773 -43.391998291015625 L 16.649599075317383 -42.1511116027832 L 16.384000778198242 -41.78556823730469 L 15.78415298461914 -40.959999084472656 L 13.709517478942871 -38.104679107666016 L 13.700663566589355 -38.09249496459961 L 13.699914932250977 -38.09276580810547 L 13.27055835723877 -38.24794006347656 L 13.152702331542969 -38.29032516479492 L 12.981217384338379 -38.348060607910156 L 12.358919143676758 -38.55732345581055 L 12.288000106811523 -38.5796012878418 L 12.186136245727539 -38.611602783203125 L 11.5613374710083 -38.80709457397461 L 11.559918403625488 -38.80754089355469 L 11.439684867858887 -38.84235763549805 L 11 -38.96979522705078 L 11 -38.98421859741211 L 11 -40.959999084472656 L 11 -45.520999908447266 L 0 -45.520999908447266 L -11 -45.520999908447266 L -11 -40.959999084472656 L -11 -38.98637008666992 L -11 -38.9739990234375 L -11 -38.96979522705078 L -11.439684867858887 -38.84235763549805 L -11.559918403625488 -38.80754089355469 L -12.186136245727539 -38.611602783203125 L -12.288000106811523 -38.5796012878418 L -12.358919143676758 -38.55732345581055 L -12.981217384338379 -38.348060607910156 L -13.152702331542969 -38.29032516479492 L -13.27055835723877 -38.24794006347656 L -13.699914932250977 -38.09276580810547 L -13.700663566589355 -38.09249496459961 L -15.78415298461914 -40.959999084472656 L -16.384000778198242 -41.78556823730469 L -16.649599075317383 -42.1511116027832 L -17.551000595092773 -43.391998291015625 L -17.551137924194336 -43.39189910888672 L -32.17450714111328 -32.768001556396484 L -32.768001556396484 -32.33682632446289 L -35.349998474121094 -30.461000442504883 L -34.4483642578125 -29.220111846923828 L -32.768001556396484 -26.907426834106445 L -31.554601669311523 -25.2374267578125 L -31.525848388671875 -25.197856903076172 L -31.49942970275879 -25.161495208740234 L -31.49947166442871 -25.161441802978516 L -31.779420852661133 -24.799663543701172 M 50 49.479000091552734 L 32.768001556396484 49.479000091552734 L 16.384000778198242 49.479000091552734 L 0 49.479000091552734 L -16.384000778198242 49.479000091552734 L -22.728899002075195 49.479000091552734 L -22.729167938232422 49.479000091552734 L -32.768001556396484 49.479000091552734 L -50 49.479000091552734 L -50 32.768001556396484 L -50 27.29188346862793 L -50 27.291736602783203 L -50 27.29122543334961 L -50 27.290748596191406 L -50 16.384000778198242 L -50 4.160769939422607 L -50 4.158167839050293 L -50 4.440892164675075e-17 L -50 -16.384000778198242 L -50 -28.331748962402344 L -50 -28.332223892211914 L -50 -28.333650588989258 L -50 -32.768001556396484 L -50 -49.479000091552734 L -32.768001556396484 -49.479000091552734 L -21.973939895629883 -49.479000091552734 L -21.972700119018555 -49.479000091552734 L -21.972309112548828 -49.479000091552734 L -16.384000778198242 -49.479000091552734 L 0 -49.479000091552734 L 16.384000778198242 -49.479000091552734 L 21.972309112548828 -49.479000091552734 L 21.972700119018555 -49.479000091552734 L 32.768001556396484 -49.479000091552734 L 50 -49.479000091552734 L 50 -32.768001556396484 L 50 -28.332883834838867 L 50 -28.332735061645508 L 50 -28.332223892211914 L 50 -28.331748962402344 L 50 -16.384000778198242 L 50 4.440892164675075e-17 L 50 16.384000778198242 L 50 27.290748596191406 L 50 27.29122543334961 L 50 27.29265022277832 L 50 32.768001556396484 L 50 49.479000091552734 z" fill="none" stroke="rgb(0,0,255)" stroke-width="0.01mm" />
</svg>