<?xml version="1.0" standalone="no"?>
<!DOCTYPE svg PUBLIC "-//W3C//DTD SVG 1.1//EN"
  "http://www.w3.org/Graphics/SVG/1.1/DTD/svg11.dtd">
<svg width="102mm" height="41.39400100708008mm" viewBox="-51 -20.69700050354004 102 41.39400100708008" xmlns="http://www.w3.org/2000/svg" version="1.1">
	<title>svgOutput</title>
	<desc>made with tinkercad</desc>
<path d="M -50 19.69700050354004 L -50 -19.69700050354004 L -38.67100143432617 -19.69700050354004 L -32.768001556396484 -6.4393630027771 L -32.61199951171875 -6.089000225067139 L -30.889354705810547 -6.855675220489502 L -28.672000885009766 -7.84252405166626 L -27.886760711669922 -8.192000389099121 L -27.284000396728516 -8.4602632522583 L -27.007617950439453 -8.58333969116211 L -26.94127082824707 -8.612884521484375 L -26.93358039855957 -8.61630916595459 L -26.933521270751953 -8.616246223449707 L -26.914344787597656 -8.595803260803223 L -26.642318725585938 -8.26272201538086 L -26.58255386352539 -8.192000389099121 L -26.393253326416016 -7.967993259429932 L -26.273393630981445 -7.820744514465332 L -26.07887840270996 -7.595605850219727 L -25.872385025024414 -7.3614068031311035 L -25.698286056518555 -7.164056301116943 L -25.469743728637695 -6.915099620819092 L -25.25848960876465 -6.685229301452637 L -25.105371475219727 -6.523038864135742 L -24.889354705810547 -6.297930717468262 L -24.741857528686523 -6.144000053405762 L -24.70731544494629 -6.10795259475708 L -24.58004379272461 -5.980246543884277 L -24.576000213623047 -5.9762091636657715 L -24.39019775390625 -5.79067850112915 L -24.383176803588867 -5.7836689949035645 L -24.38316535949707 -5.783657550811768 L -24.383516311645508 -5.783051013946533 L -24.387252807617188 -5.776576995849609 L -24.574947357177734 -5.45142126083374 L -24.576000213623047 -5.449597358703613 L -25.357282638549805 -4.0960001945495605 L -27.489999771118164 -0.40099999308586115 L -27.488859176635742 -0.4003418385982513 L -26.79545021057129 4.440892164675075e-17 L -16.384000778198242 6.0110697746276855 L -12.606528282165527 8.192000389099121 L -12.151909828186035 8.454474449157715 L -12.151651382446289 8.45462417602539 L -12.151000022888184 8.454999923706055 L -11.99912166595459 8.192000389099121 L -9.63373851776123 4.0960001945495605 L -9.234999656677246 3.4055263996124268 L -9.088967323303223 3.152041435241699 L -9.066906929016113 3.1137492656707764 L -9.063200950622559 3.107316017150879 L -9.061578750610352 3.1045005321502686 L -9.04744815826416 3.079972267150879 L -9.047119140625 3.0794010162353516 L -9.046243667602539 3.077885150909424 L -9.043401718139648 3.0729620456695557 L -9.04299545288086 3.0730435848236084 L -9.04279613494873 3.0730836391448975 L -8.809334754943848 3.131434679031372 L -8.599288940429688 3.187889575958252 L -8.224859237670898 3.2800440788269043 L -8.192000389099121 3.288752794265747 L -8.041203498840332 3.328718662261963 L -7.824004173278809 3.380324602127075 L -7.519242286682129 3.4482901096343994 L -7.189757347106934 3.522012948989868 L -7.178110599517822 3.5243663787841797 L -6.858571529388428 3.58893084526062 L -6.552943706512451 3.6508355140686035 L -6.544426441192627 3.652405261993408 L -6.22062349319458 3.7120821475982666 L -6.144000053405762 3.724703311920166 L -5.980332851409912 3.751662254333496 L -5.870556354522705 3.7712347507476807 L -5.7661356925964355 3.7898523807525635 L -5.341487884521484 3.8593227863311768 L -5.31708288192749 3.8649184703826904 L -5.314077377319336 3.865607738494873 L -5.3131103515625 3.8748390674591064 L -5.289944171905518 4.0960001945495605 L -5.274105072021484 4.247210502624512 L -4.859135627746582 8.192000389099121 L -4.664000034332275 10.04699993133545 L -4.6634521484375 10.046942710876465 L 1.6091967507320983e-14 9.556665420532227 L 12.94943904876709 8.195269584655762 L 12.95199966430664 8.194999694824219 L 12.95168399810791 8.192000389099121 L 12.520808219909668 4.0960001945495605 L 12.34189510345459 2.3952105045318604 L 12.305524826049805 2.0480000972747803 L 12.303122520446777 2.025062322616577 L 12.302692413330078 2.0209529399871826 L 12.301922798156738 2.0136077404022217 L 12.327201843261719 2.00184965133667 L 12.525793075561523 1.9245144128799438 L 12.729196548461914 1.8464736938476562 L 12.930109977722168 1.7642818689346313 L 13.1565580368042 1.6757489442825317 L 13.400411605834961 1.575939416885376 L 13.778666496276855 1.4126147031784058 L 14.06524658203125 1.288372278213501 L 14.336000442504883 1.164485216140747 L 14.372614860534668 1.1477315425872803 L 14.557661056518555 1.0629774332046509 L 14.656164169311523 1.0178614854812622 L 14.960697174072266 0.8721168637275696 L 15.178266525268555 0.7631935477256775 L 15.374198913574219 0.6685484051704407 L 15.75922966003418 0.47460481524467474 L 15.784944534301758 0.4635248482227326 L 15.785289764404297 0.4639080166816712 L 15.797481536865234 0.47744870185852056 L 16.041736602783203 0.7487368583679199 L 16.384000778198242 1.1288999319076538 L 19.94300079345703 5.081999778747559 L 19.943117141723633 5.0818939208984375 L 19.944988250732422 5.080209255218506 L 25.587570190429688 4.440892164675075e-17 L 32.768001556396484 -6.464786529541016 L 33.106998443603516 -6.769999980926514 L 32.768001556396484 -7.14644718170166 L 31.826454162597656 -8.192000389099121 L 29.204790115356445 -11.103262901306152 L 28.965673446655273 -11.36878776550293 L 28.959991455078125 -11.37509822845459 L 28.95146369934082 -11.384567260742188 L 28.94814109802246 -11.388256072998047 L 28.94794464111328 -11.38847541809082 L 28.94797134399414 -11.38852310180664 L 28.95598602294922 -11.402813911437988 L 28.961654663085938 -11.412923812866211 L 29.194660186767578 -11.775667190551758 L 29.39806365966797 -12.102774620056152 L 29.501039505004883 -12.262276649475098 L 29.516450881958008 -12.288000106811523 L 29.751129150390625 -12.679662704467773 L 29.910003662109375 -12.948493957519531 L 30.021156311035156 -13.141874313354492 L 30.117053985595703 -13.312000274658203 L 30.174402236938477 -13.413736343383789 L 30.303701400756836 -13.643411636352539 L 30.42789649963379 -13.875354766845703 L 30.53961944580078 -14.091397285461426 L 30.642566680908203 -14.283178329467773 L 30.669666290283203 -14.336000442504883 L 30.83917999267578 -14.666404724121094 L 30.853404998779297 -14.689922332763672 L 30.85371208190918 -14.690430641174316 L 30.861865997314453 -14.68869686126709 L 31.22889518737793 -14.610631942749023 L 32.52073669433594 -14.336000442504883 L 32.768001556396484 -14.28343391418457 L 36.93299865722656 -13.39799976348877 L 36.93324279785156 -13.399147987365723 L 38.27199935913086 -19.69700050354004 L 50 -19.69700050354004 L 50 19.69700050354004 L 32.768001556396484 19.69700050354004 L 16.384000778198242 19.69700050354004 L 0 19.69700050354004 L -16.384000778198242 19.69700050354004 L -32.768001556396484 19.69700050354004 L -50 19.69700050354004 z" fill="none" stroke="rgb(0,0,255)" stroke-width="0.01mm" />
</svg>