<?xml version="1.0" standalone="no"?>
<!DOCTYPE svg PUBLIC "-//W3C//DTD SVG 1.1//EN"
  "http://www.w3.org/Graphics/SVG/1.1/DTD/svg11.dtd">
<svg width="102mm" height="28.158000946044922mm" viewBox="-51 -14.079000473022461 102 28.158000946044922" xmlns="http://www.w3.org/2000/svg" version="1.1">
	<title>svgOutput</title>
	<desc>made with tinkercad</desc>
<path d="M -50 13.079000473022461 L -50 -13.079000473022461 L -32.777000427246094 -13.079000473022461 L -32.768001556396484 -13.058709144592285 L -32.61199951171875 -12.706999778747559 L -31.775999069213867 -13.079000473022461 L -24.576000213623047 -13.079000473022461 L -23.992000579833984 -13.079000473022461 L -24.576000213623047 -12.067267417907715 L -27.489999771118164 -7.019000053405762 L -24.576000213623047 -5.336596488952637 L -16.384000778198242 -0.6069303750991821 L -15.332768440246582 4.440892164675075e-17 L -12.151000022888184 1.8370000123977661 L -11.090310096740723 4.440892164675075e-17 L -10.239999771118164 -1.472645878791809 L -9.907788276672363 -2.0480000972747803 L -8.72526741027832 -4.0960001945495605 L -8.661110877990723 -4.20711088180542 L -8.192000389099121 -5.0194010734558105 L -7.592037677764893 -6.058267116546631 L -7.5884246826171875 -6.064523220062256 L -7.584672927856445 -6.071019172668457 L -7.449096202850342 -6.037846088409424 L -7.191557884216309 -5.976057529449463 L -6.880980968475342 -5.906826972961426 L -6.328519344329834 -5.789480686187744 L -6.144000053405762 -5.7522358894348145 L -6.016499996185303 -5.726500034332275 L -5.75584602355957 -5.678211688995361 L -5.619492053985596 -5.653332710266113 L -5.618826866149902 -5.65321159362793 L -5.4549455642700195 -4.0960001945495605 L -5.393555641174316 -3.512666702270508 L -5.024381160736084 4.440892164675075e-17 L -4.664000034332275 3.428999900817871 L -4.663023948669434 3.4288973808288574 L 4.022991876830246e-15 2.9386658668518066 L 12.879170417785645 1.5846565961837769 L 12.95199966430664 1.5770000219345093 L 12.786260604858398 4.440892164675075e-17 L 12.355778694152832 -4.0960001945495605 L 12.288000106811523 -4.740910530090332 L 12.222444534301758 -5.36466646194458 L 12.140427589416504 -6.144000053405762 L 12.032661437988281 -7.168000221252441 L 11.997173309326172 -7.505211353302002 L 11.997465133666992 -7.505329608917236 L 12.126500129699707 -7.557615280151367 L 12.288000106811523 -7.625724792480469 L 12.570961952209473 -7.745057582855225 L 12.862788200378418 -7.871500015258789 L 13.138500213623047 -7.996634483337402 L 13.427923202514648 -8.129326820373535 L 13.560151100158691 -8.192000389099121 L 13.707269668579102 -8.261731147766113 L 13.833230972290039 -8.322307586669922 L 13.84277629852295 -8.31170654296875 L 13.950557708740234 -8.192000389099121 L 15.273221969604492 -6.7230000495910645 L 15.794486999511719 -6.144000053405762 L 16.384000778198242 -5.489192962646484 L 19.94300079345703 -1.5360000133514404 L 24.576000213623047 -5.707507133483887 L 32.76300048828125 -13.079000473022461 L 32.768001556396484 -13.079000473022461 L 50 -13.079000473022461 L 50 13.079000473022461 L 32.768001556396484 13.079000473022461 L 16.384000778198242 13.079000473022461 L 14.160837173461914 13.079000473022461 L 14.088286399841309 13.079000473022461 L 0 13.079000473022461 L -8.192000389099121 13.079000473022461 L -16.384000778198242 13.079000473022461 L -32.768001556396484 13.079000473022461 L -50 13.079000473022461 z" fill="none" stroke="rgb(0,0,255)" stroke-width="0.01mm" />
</svg>