<?xml version="1.0" standalone="no"?>
<!DOCTYPE svg PUBLIC "-//W3C//DTD SVG 1.1//EN"
  "http://www.w3.org/Graphics/SVG/1.1/DTD/svg11.dtd">
<svg width="102mm" height="100.95800018310547mm" viewBox="-51 -50.479000091552734 102 100.95800018310547" xmlns="http://www.w3.org/2000/svg" version="1.1">
	<title>svgOutput</title>
	<desc>made with tinkercad</desc>
<path d="M -31.49013900756836 -25.14898109436035 L -31.553285598754883 -25.0658016204834 L -31.71587371826172 -24.857463836669922 L -31.77712631225586 -24.778263092041016 L -31.844144821166992 -24.691608428955078 L -31.930009841918945 -24.576000213623047 L -31.969148635864258 -24.52330207824707 L -32.27018737792969 -24.123594284057617 L -32.34587478637695 -24.021656036376953 L -32.768001556396484 -23.427200317382812 L -32.830875396728516 -23.338655471801758 L -32.90218734741211 -23.23365592956543 L -33.153804779052734 -22.859094619750977 L -33.15382385253906 -22.85906982421875 L -33.15609359741211 -22.85980796813965 L -33.168128967285156 -22.863718032836914 L -33.187835693359375 -22.8701229095459 L -33.18791961669922 -22.870149612426758 L -36.98332977294922 -24.103443145751953 L -39.39799880981445 -24.88800048828125 L -42.16140365600586 -16.384000778198242 L -46.19620132446289 -3.9674525260925293 L -46.196998596191406 -3.9649999141693115 L -43.78194046020508 -3.1804440021514893 L -39.95243453979492 -1.9360694885253906 L -39.969154357910156 -1.484874963760376 L -39.97309494018555 -1.3580000400543213 L -39.97462463378906 -1.2029062509536743 L -39.980873107910156 -0.5490000247955322 L -39.97934341430664 -0.3376874923706054 L -39.97611999511719 4.440892164675075e-17 L -39.973575592041016 0.26653856039047247 L -39.97309494018555 0.3170000016689301 L -39.969154357910156 0.44387501478195196 L -39.96446990966797 0.5702012181282043 L -39.95243453979492 0.8946834206581116 L -39.95471954345703 0.8954250812530518 L -43.78194046020508 2.138443946838379 L -46.196998596191406 2.9230000972747803 L -41.8230094909668 16.384000778198242 L -39.39799880981445 23.847000122070312 L -36.98332977294922 23.062057495117188 L -33.15382385253906 21.817684173583984 L -32.90218734741211 22.192655563354492 L -32.830875396728516 22.297657012939453 L -32.768001556396484 22.386070251464844 L -32.34587478637695 22.979656219482422 L -32.27018737792969 23.081811904907227 L -32.219173431396484 23.149648666381836 L -31.969148635864258 23.482120513916016 L -31.844144821166992 23.65042495727539 L -31.795873641967773 23.71253204345703 L -31.71587371826172 23.815462112426758 L -31.553285598754883 24.024620056152344 L -31.55214500427246 24.026119232177734 L -31.49013900756836 24.107595443725586 L -31.492107391357422 24.11030387878418 L -31.517234802246094 24.144878387451172 L -31.830541610717773 24.576000213623047 L -32.768001556396484 25.865978240966797 L -33.85733413696289 27.364946365356445 L -35.349998474121094 29.41900062561035 L -35.349212646484375 29.419572830200195 L -32.768001556396484 31.294971466064453 L -30.74059295654297 32.768001556396484 L -17.551000595092773 42.35100173950195 L -16.841028213500977 41.37369155883789 L -16.384000778198242 40.74452590942383 L -14.536937713623047 38.2017822265625 L -13.7312593460083 37.09264373779297 L -13.71973991394043 37.0767822265625 L -13.694478034973145 37.04200744628906 L -13.693655967712402 37.04087448120117 L -13.69365119934082 37.04087829589844 L -13.267874717712402 37.194000244140625 L -13.121749877929688 37.246063232421875 L -12.502219200134277 37.454654693603516 L -12.355218887329102 37.504093170166016 L -12.288000106811523 37.52520751953125 L -12.261446952819824 37.533546447753906 L -12.234031677246094 37.54215621948242 L -11.754973411560059 37.6889533996582 L -11.554803848266602 37.75104522705078 L -11.49982738494873 37.76713562011719 L -11.3538179397583 37.809871673583984 L -11.099725723266602 37.88340377807617 L -11 37.91343688964844 L -11 37.91682434082031 L -11 37.937049865722656 L -11 37.93805694580078 L -11 40.959999084472656 L -11 44.479000091552734 L 0 44.479000091552734 L 11 44.479000091552734 L 11 40.959999084472656 L 11 37.94874572753906 L 11 37.91343688964844 L 11.099725723266602 37.88340377807617 L 11.3538179397583 37.809871673583984 L 11.554803848266602 37.75104522705078 L 11.754973411560059 37.6889533996582 L 12.234031677246094 37.54215621948242 L 12.261446952819824 37.533546447753906 L 12.288000106811523 37.52520751953125 L 12.355218887329102 37.504093170166016 L 12.502219200134277 37.454654693603516 L 13.121749877929688 37.246063232421875 L 13.267874717712402 37.194000244140625 L 13.693655967712402 37.04087448120117 L 13.693878173828125 37.04117965698242 L 13.702775955200195 37.053428649902344 L 14.536937713623047 38.2017822265625 L 16.384000778198242 40.74452590942383 L 16.841028213500977 41.37369155883789 L 17.551000595092773 42.35100173950195 L 30.74059295654297 32.768001556396484 L 32.768001556396484 31.294971466064453 L 35.349998474121094 29.41900062561035 L 33.85733413696289 27.364946365356445 L 32.768001556396484 25.865978240966797 L 31.830541610717773 24.576000213623047 L 31.559755325317383 24.203388214111328 L 31.517427444458008 24.145143508911133 L 31.503955841064453 24.126605987548828 L 31.500064849853516 24.121253967285156 L 31.497289657592773 24.117433547973633 L 31.494384765625 24.11343765258789 L 31.492107391357422 24.11030387878418 L 31.49013900756836 24.107595443725586 L 31.553285598754883 24.024620056152344 L 31.71587371826172 23.815462112426758 L 31.795873641967773 23.71253204345703 L 31.844144821166992 23.65042495727539 L 31.969148635864258 23.482120513916016 L 32.27018737792969 23.081811904907227 L 32.34587478637695 22.979656219482422 L 32.768001556396484 22.386070251464844 L 32.830875396728516 22.297657012939453 L 32.90218734741211 22.192655563354492 L 33.15382385253906 21.817684173583984 L 36.98332977294922 23.062057495117188 L 39.39799880981445 23.847000122070312 L 41.8230094909668 16.384000778198242 L 46.196998596191406 2.9230000972747803 L 43.78194046020508 2.138443946838379 L 39.985145568847656 0.9053071141242981 L 39.97037124633789 0.9005084037780762 L 39.967533111572266 0.8995862603187561 L 39.95513916015625 0.8955609798431396 L 39.95471954345703 0.8954250812530518 L 39.95243453979492 0.8946834206581116 L 39.96446990966797 0.5702012181282043 L 39.969154357910156 0.44387501478195196 L 39.97309494018555 0.3170000016689301 L 39.973575592041016 0.26653856039047247 L 39.97611999511719 4.440892164675075e-17 L 39.97934341430664 -0.3376874923706054 L 39.980873107910156 -0.5490000247955322 L 39.97462463378906 -1.2029062509536743 L 39.973602294921875 -1.3065541982650757 L 39.97309494018555 -1.3580000400543213 L 39.969154357910156 -1.484874963760376 L 39.96451950073242 -1.6099731922149658 L 39.95243453979492 -1.9360694885253906 L 39.95473861694336 -1.9368175268173218 L 39.95512771606445 -1.9369436502456665 L 40.041114807128906 -1.9648847579956055 L 43.78194046020508 -3.1804440021514893 L 46.196998596191406 -3.9649999141693115 L 46.19651794433594 -3.9664814472198486 L 42.16140365600586 -16.384000778198242 L 39.39799880981445 -24.88800048828125 L 36.98332977294922 -24.103443145751953 L 33.168128967285156 -22.863718032836914 L 33.15740203857422 -22.860233306884766 L 33.15609359741211 -22.85980796813965 L 33.15382385253906 -22.85906982421875 L 32.90218734741211 -23.23365592956543 L 32.830875396728516 -23.338655471801758 L 32.768001556396484 -23.427200317382812 L 32.34587478637695 -24.021656036376953 L 32.27018737792969 -24.123594284057617 L 31.969148635864258 -24.52330207824707 L 31.930009841918945 -24.576000213623047 L 31.844144821166992 -24.691608428955078 L 31.77712631225586 -24.778263092041016 L 31.71587371826172 -24.857463836669922 L 31.553285598754883 -25.0658016204834 L 31.49013900756836 -25.14898109436035 L 32.768001556396484 -26.907695770263672 L 33.85733413696289 -28.406946182250977 L 35.349998474121094 -30.461000442504883 L 35.34986114501953 -30.461101531982422 L 32.768001556396484 -32.33682632446289 L 32.17450714111328 -32.768001556396484 L 17.55132293701172 -43.39176559448242 L 17.551000595092773 -43.391998291015625 L 16.841028213500977 -42.41487121582031 L 16.384000778198242 -41.78567123413086 L 15.784261703491211 -40.959999084472656 L 14.536937713623047 -39.24278259277344 L 13.694313049316406 -38.0829963684082 L 13.693655967712402 -38.08209228515625 L 13.69277286529541 -38.08241271972656 L 13.267874717712402 -38.2352180480957 L 13.121749877929688 -38.28706359863281 L 12.502219200134277 -38.49565505981445 L 12.355218887329102 -38.54509353637695 L 12.288000106811523 -38.56620407104492 L 12.234031677246094 -38.58315658569336 L 11.754973411560059 -38.72995376586914 L 11.591760635375977 -38.78125 L 11.554803848266602 -38.79286193847656 L 11.3538179397583 -38.85087203979492 L 11.099725723266602 -38.92522048950195 L 11 -38.95543670654297 L 11 -38.95882797241211 L 11 -38.98005676269531 L 11 -40.959999084472656 L 11 -45.520999908447266 L 0 -45.520999908447266 L -11 -45.520999908447266 L -11 -40.959999084472656 L -11 -38.9780158996582 L -11 -38.95882797241211 L -11 -38.95543670654297 L -11.099725723266602 -38.92522048950195 L -11.3538179397583 -38.85087203979492 L -11.466503143310547 -38.8183479309082 L -11.554803848266602 -38.79286193847656 L -11.754973411560059 -38.72995376586914 L -12.234031677246094 -38.58315658569336 L -12.288000106811523 -38.56620407104492 L -12.355218887329102 -38.54509353637695 L -12.502219200134277 -38.49565505981445 L -13.121749877929688 -38.28706359863281 L -13.267874717712402 -38.2352180480957 L -13.69277286529541 -38.08241271972656 L -13.693655967712402 -38.08209228515625 L -13.725621223449707 -38.12609100341797 L -13.757040023803711 -38.169334411621094 L -14.536937713623047 -39.24278259277344 L -15.784261703491211 -40.959999084472656 L -16.384000778198242 -41.78567123413086 L -16.841028213500977 -42.41487121582031 L -17.551000595092773 -43.391998291015625 L -17.55132293701172 -43.39176559448242 L -32.17450714111328 -32.768001556396484 L -32.768001556396484 -32.33682632446289 L -35.34986114501953 -30.461101531982422 L -35.349998474121094 -30.461000442504883 L -33.85733413696289 -28.406946182250977 L -32.768001556396484 -26.907695770263672 L -31.490272521972656 -25.1491641998291 L -31.49013900756836 -25.14898109436035 M -50 49.479000091552734 L -50 32.768001556396484 L -50 18.774930953979492 L -50 16.384000778198242 L -50 4.158442974090576 L -50 4.1579670906066895 L -50 4.440892164675075e-17 L -50 -16.384000778198242 L -50 -19.817752838134766 L -50 -32.768001556396484 L -50 -49.479000091552734 L -32.768001556396484 -49.479000091552734 L -21.973918914794922 -49.479000091552734 L -21.973764419555664 -49.479000091552734 L -21.97274398803711 -49.479000091552734 L -16.384000778198242 -49.479000091552734 L 0 -49.479000091552734 L 16.384000778198242 -49.479000091552734 L 21.97274398803711 -49.479000091552734 L 21.973764419555664 -49.479000091552734 L 21.973918914794922 -49.479000091552734 L 32.768001556396484 -49.479000091552734 L 50 -49.479000091552734 L 50 -32.768001556396484 L 50 -19.817752838134766 L 50 -16.384000778198242 L 50 4.440892164675075e-17 L 50 4.1579670906066895 L 50 4.158442974090576 L 50 16.384000778198242 L 50 27.293413162231445 L 50 32.768001556396484 L 50 49.479000091552734 L 32.768001556396484 49.479000091552734 L 16.384000778198242 49.479000091552734 L 0 49.479000091552734 L -16.384000778198242 49.479000091552734 L -22.728763580322266 49.479000091552734 L -22.729175567626953 49.479000091552734 L -32.768001556396484 49.479000091552734 L -50 49.479000091552734 z" fill="none" stroke="rgb(0,0,255)" stroke-width="0.01mm" />
</svg>