<?xml version="1.0" standalone="no"?>
<!DOCTYPE svg PUBLIC "-//W3C//DTD SVG 1.1//EN"
  "http://www.w3.org/Graphics/SVG/1.1/DTD/svg11.dtd">
<svg width="102mm" height="107.02999877929688mm" viewBox="-51 -53.51499938964844 102 107.02999877929688" xmlns="http://www.w3.org/2000/svg" version="1.1">
	<title>svgOutput</title>
	<desc>made with tinkercad</desc>
<path d="M -25.301700592041016 -47.5620002746582 L -25.283700942993164 -47.55569839477539 L -25.25670051574707 -47.548500061035156 L -25.22879981994629 -47.54130172729492 L -25.210800170898438 -47.536800384521484 L -25.182899475097656 -47.53229904174805 L -25.155000686645508 -47.52690124511719 L -25.138599395751953 -47.52429962158203 L -25.119699478149414 -47.52159881591797 L -25.11185073852539 -47.52083969116211 L -25.091800689697266 -47.51890182495117 L -25.08799934387207 -47.518653869628906 L -25.063899993896484 -47.5171012878418 L -25.045000076293945 -47.51530075073242 L -25.035999298095703 -47.51530075073242 L -24.996999740600586 -47.51530075073242 L -24.988300323486328 -47.51530075073242 L -24.961299896240234 -47.516998291015625 L -24.942399978637695 -47.516998291015625 L -24.923500061035156 -47.518798828125 L -24.904600143432617 -47.51969909667969 L -24.867399215698242 -47.52389907836914 L -24.848800659179688 -47.5260009765625 L -24.820899963378906 -47.53139877319336 L -24.792999267578125 -47.5359001159668 L -24.774999618530273 -47.540401458740234 L -24.747100830078125 -47.54759979248047 L -24.72010040283203 -47.5547981262207 L -24.70210075378418 -47.561100006103516 L -24.685100555419922 -47.566200256347656 L -24.649099349975586 -47.57789993286133 L -24.631999969482422 -47.58509826660156 L -24.623613357543945 -47.58856964111328 L -24.605899810791016 -47.59590148925781 L -24.598939895629883 -47.59901809692383 L -24.57979965209961 -47.607601165771484 L -24.576000213623047 -47.60944366455078 L -24.5664005279541 -47.61410140991211 L -24.516000747680664 -47.63930130004883 L -24.49370574951172 -47.65251159667969 L -24.46739959716797 -47.66809844970703 L -24.444000244140625 -47.68429946899414 L -24.435400009155273 -47.68980026245117 L -24.404800415039062 -47.71139907836914 L -24.375099182128906 -47.734798431396484 L -24.34630012512207 -47.75910186767578 L -24.325599670410156 -47.77799987792969 L -24.315200805664062 -47.78670120239258 L -24.308242797851562 -47.79384994506836 L -24.249500274658203 -47.85419845581055 L -24.237600326538086 -47.86800003051758 L -24.13949966430664 -48.00659942626953 L -24.130699157714844 -48.02119827270508 L -24.095600128173828 -48.089599609375 L -24.091100692749023 -48.10049819946289 L -24.080810546875 -48.12799835205078 L -24.03890037536621 -48.2400016784668 L -24.03700065612793 -48.24599838256836 L -24.025043487548828 -48.30356979370117 L -24.012699127197266 -48.362998962402344 L -24.011899948120117 -48.36600112915039 L -24.010700225830078 -48.371700286865234 L -24.01040267944336 -48.37406539916992 L -24.009199142456055 -48.38359832763672 L -24.000200271606445 -48.50870132446289 L -24 -48.51499938964844 L -24.009899139404297 -48.643699645996094 L -24.010499954223633 -48.65299987792969 L -24.010704040527344 -48.65414810180664 L -24.013500213623047 -48.669898986816406 L -24.028799057006836 -48.75090026855469 L -24.054000854492188 -48.83639907836914 L -24.058399200439453 -48.849098205566406 L -24.08989906311035 -48.92829895019531 L -24.09510040283203 -48.938899993896484 L -24.130199432373047 -49.008201599121094 L -24.135499954223633 -49.0166015625 L -24.203899383544922 -49.11830139160156 L -24.210599899291992 -49.1265983581543 L -24.233612060546875 -49.152000427246094 L -24.305999755859375 -49.23189926147461 L -24.3143367767334 -49.240333557128906 L -24.314699172973633 -49.240699768066406 L -24.321199417114258 -49.24589920043945 L -24.449899673461914 -49.35029983520508 L -24.45840072631836 -49.35599899291992 L -24.53219985961914 -49.39739990234375 L -24.544700622558594 -49.40359878540039 L -24.576000213623047 -49.418331146240234 L -24.621200561523438 -49.43960189819336 L -24.783199310302734 -49.48910140991211 L -24.797199249267578 -49.49380111694336 L -24.80120086669922 -49.494598388671875 L -24.80820083618164 -49.49599838256836 L -24.967500686645508 -49.513099670410156 L -24.979000091552734 -49.513999938964844 L -25 -49.51499938964844 L -25.020999908447266 -49.513999938964844 L -25.04199981689453 -49.513999938964844 L -25.062999725341797 -49.51300048828125 L -25.08799934387207 -49.5106201171875 L -25.104999542236328 -49.50899887084961 L -25.125 -49.50699996948242 L -25.16699981689453 -49.500999450683594 L -25.187000274658203 -49.49700164794922 L -25.20800018310547 -49.49300003051758 L -25.211999893188477 -49.492000579833984 L -25.22800064086914 -49.487998962402344 L -25.259000778198242 -49.48099899291992 L -25.298999786376953 -49.46900177001953 L -25.32900047302246 -49.45899963378906 L -25.349000930786133 -49.45199966430664 L -25.368000030517578 -49.444000244140625 L -25.39699935913086 -49.43199920654297 L -25.404733657836914 -49.428531646728516 L -25.426000595092773 -49.41899871826172 L -25.449691772460938 -49.40800094604492 L -25.45400047302246 -49.40599822998047 L -25.490999221801758 -49.38600158691406 L -25.545000076293945 -49.354000091552734 L -25.570999145507812 -49.33599853515625 L -25.58799934387207 -49.32400131225586 L -25.600000381469727 -49.314823150634766 L -25.604999542236328 -49.31100082397461 L -25.621000289916992 -49.29800033569336 L -25.645000457763672 -49.27899932861328 L -25.652999877929688 -49.27199935913086 L -25.677000045776367 -49.250999450683594 L -25.700000762939453 -49.229000091552734 L -25.71500015258789 -49.2140007019043 L -25.736000061035156 -49.19200134277344 L -25.756999969482422 -49.167999267578125 L -25.770334243774414 -49.152000427246094 L -25.777000427246094 -49.14400100708008 L -25.797000885009766 -49.11899948120117 L -25.80900001525879 -49.10200119018555 L -25.82699966430664 -49.07699966430664 L -25.831758499145508 -49.069759368896484 L -25.850000381469727 -49.04199981689453 L -25.865999221801758 -49.01499938964844 L -25.895999908447266 -48.95899963378906 L -25.913999557495117 -48.92100143432617 L -25.924715042114258 -48.895999908447266 L -25.926000595092773 -48.893001556396484 L -25.937000274658203 -48.862998962402344 L -25.947999954223633 -48.83399963378906 L -25.959999084472656 -48.79399871826172 L -25.9689998626709 -48.76300048828125 L -25.97599983215332 -48.733001708984375 L -25.988000869750977 -48.67100143432617 L -25.992000579833984 -48.63999938964844 L -25.9950008392334 -48.61899948120117 L -25.996999740600586 -48.597999572753906 L -25.99799919128418 -48.57699966430664 L -26 -48.51499938964844 L -26 -48.49399948120117 L -25.996999740600586 -48.430999755859375 L -25.9950008392334 -48.40999984741211 L -25.99164581298828 -48.38399887084961 L -25.990999221801758 -48.37900161743164 L -25.986000061035156 -48.347999572753906 L -25.979999542236328 -48.31700134277344 L -25.97100067138672 -48.2760009765625 L -25.959999084472656 -48.236000061035156 L -25.951000213623047 -48.20600128173828 L -25.937000274658203 -48.16600036621094 L -25.926000595092773 -48.13600158691406 L -25.922571182250977 -48.12799835205078 L -25.913999557495117 -48.108001708984375 L -25.895999908447266 -48.06999969482422 L -25.881000518798828 -48.04199981689453 L -25.865999221801758 -48.01499938964844 L -25.8439998626709 -47.979000091552734 L -25.82699966430664 -47.952999114990234 L -25.80900001525879 -47.926998138427734 L -25.797000885009766 -47.90999984741211 L -25.777000427246094 -47.8849983215332 L -25.756999969482422 -47.861000061035156 L -25.716632843017578 -47.81678771972656 L -25.71500015258789 -47.814998626708984 L -25.694299697875977 -47.79520034790039 L -25.691299438476562 -47.792301177978516 L -25.663400650024414 -47.7671012878418 L -25.650299072265625 -47.75680160522461 L -25.628700256347656 -47.73789978027344 L -25.600000381469727 -47.71549987792969 L -25.591800689697266 -47.70909881591797 L -25.561199188232422 -47.6875 L -25.537799835205078 -47.67129898071289 L -25.505399703979492 -47.652400970458984 L -25.49139976501465 -47.64469909667969 L -25.475200653076172 -47.63479995727539 L -25.455400466918945 -47.624900817871094 L -25.437599182128906 -47.61600112915039 L -25.424800872802734 -47.60960006713867 L -25.398700714111328 -47.597900390625 L -25.372600555419922 -47.587100982666016 L -25.355499267578125 -47.579898834228516 L -25.353553771972656 -47.579219818115234 L -25.337499618530273 -47.57360076904297 L -25.319700241088867 -47.56740188598633 L -25.301700592041016 -47.5620002746582 M -9.975500106811523 -0.6797000169754028 L -9.998000144958496 -0.2090000063180923 L -10 4.440892164675075e-17 L -9.998200416564941 0.18899999558925634 L -9.997400283813477 0.22570000588893896 L -9.991100311279297 0.41380000114440924 L -9.983098983764648 0.5658199191093445 L -9.981200218200684 0.6018999814987183 L -9.967700004577637 0.7900000214576721 L -9.963399887084961 0.8525999784469604 L -9.94540023803711 1.0398000478744507 L -9.923800468444824 1.2269999980926514 L -9.91819953918457 1.273800015449524 L -9.892999649047852 1.4609999656677246 L -9.866070747375488 1.6299177408218384 L -9.863300323486328 1.6473000049591064 L -9.851400375366211 1.7115999460220337 L -9.818099975585938 1.8969999551773071 L -9.781200408935547 2.0815000534057617 L -9.739800453186035 2.2660000324249268 L -9.730999946594238 2.30430006980896 L -9.685999870300293 2.486999988555908 L -9.637399673461914 2.668800115585327 L -9.58430004119873 2.8496999740600586 L -9.528499603271484 3.0297000408172607 L -9.504300117492676 3.1098999977111816 L -9.503632545471191 3.111776828765869 L -9.362099647521973 3.509500026702881 L -9.34749984741211 3.5487000942230225 L -9.110116958618164 4.0960001945495605 L -8.991100311279297 4.3703999519348145 L -8.983200073242188 4.389800071716309 L -8.956999778747559 4.447000026702881 L -8.947500228881836 4.46560001373291 L -8.68019962310791 4.9633002281188965 L -8.65999984741211 5 L -8.649399757385254 5.01800012588501 L -8.3371000289917 5.517499923706055 L -8.302900314331055 5.570199966430664 L -8.29069995880127 5.587299823760986 L -8.192000389099121 5.728250503540039 L -8.034199714660645 5.95359992980957 L -8.021699905395508 5.970399856567383 L -7.727042198181152 6.3343892097473145 L -7.547399997711182 6.556300163269043 L -7.534599781036377 6.57289981842041 L -7.521399974822998 6.589099884033203 L -7.507900238037109 6.605100154876709 L -7.49399995803833 6.620800018310547 L -6.9720001220703125 7.164400100708008 L -6.957900047302246 7.179900169372559 L -6.943399906158447 7.195000171661377 L -6.928599834442139 7.209799766540527 L -6.915914535522461 7.221981525421143 L -6.91349983215332 7.224299907684326 L -6.8979997634887695 7.238500118255615 L -6.620800018310547 7.494100093841553 L -6.605168342590332 7.507839679718018 L -6.605100154876709 7.507900238037109 L -6.589099884033203 7.521399974822998 L -6.57289981842041 7.534599781036377 L -6.556300163269043 7.547399997711182 L -5.970399856567383 8.021699905395508 L -5.95359992980957 8.034199714660645 L -5.731511116027832 8.192000389099121 L -5.6458001136779785 8.252900123596191 L -5.628699779510498 8.26509952545166 L -5.627239227294922 8.266087532043457 L -5.611400127410889 8.276800155639648 L -5.231985092163086 8.515463829040527 L -5.053400039672852 8.627799987792969 L -5.035799980163574 8.639300346374512 L -5.01800012588501 8.650300025939941 L -5.011284828186035 8.654292106628418 L -5 8.66100025177002 L -4.981800079345703 8.671199798583984 L -4.142099857330322 9.098699569702148 L -4.123600006103516 9.108599662780762 L -4.104899883270264 9.1181001663208 L -4.0960001945495605 9.122407913208008 L -4.086100101470947 9.12720012664795 L -4.066999912261963 9.13599967956543 L -3.8069000244140625 9.245800018310547 L -3.7781693935394287 9.257858276367188 L -3.7683000564575195 9.26200008392334 L -3.4163999557495117 9.397000312805176 L -3.396899938583374 9.404500007629395 L -3.3671998977661133 9.414899826049805 L -3.099900007247925 9.507599830627441 L -3.069999933242798 9.517200469970703 L -2.799999952316284 9.600000381469727 L -2.7697999477386475 9.608599662780762 L -2.4971001148223877 9.683300018310547 L -2.3143999576568604 9.728300094604492 L -2.273699998855591 9.738300323486328 L -2.089200019836426 9.77970027923584 L -2.0327000617980957 9.790499687194824 L -1.4765000343322754 9.890399932861328 L -1.4401999711990356 9.89579963684082 L -1.253000020980835 9.920999526977539 L -0.9721999764442444 9.951600074768066 L -0.9096999764442444 9.957500457763672 L -0.628000020980835 9.979999542236328 L -0.6071000099182129 9.981100082397461 L -0.3244999945163727 9.994600296020508 L -0.2930999994277954 9.995400428771973 L -0.010499999858438969 9.999899864196777 L 0 9.999799728393555 L 0.09192251414060593 9.998919486999512 L 0.17759999632835388 9.998100280761719 L 0.36660000681877136 9.991800308227539 L 0.4399000108242035 9.989899635314941 L 0.816100001335144 9.966500282287598 L 0.8474000096321106 9.96399974822998 L 1.1282000541687012 9.935199737548828 L 1.1593999862670898 9.93179988861084 L 1.1801999807357788 9.928999900817871 L 1.6473000049591064 9.863300323486328 L 1.6783000230789185 9.858200073242188 L 1.9555000066757202 9.805999755859375 L 1.986299991607666 9.800000190734863 L 2.2634999752044678 9.740599632263184 L 2.30430006980896 9.730999946594238 L 2.32450008392334 9.725600242614746 L 2.344599962234497 9.71969985961914 L 3.069999933242798 9.517200469970703 L 3.122828960418701 9.499472618103027 L 3.1296000480651855 9.497200012207031 L 3.1491000652313232 9.489700317382812 L 3.2274603843688965 9.460552215576172 L 3.855600118637085 9.226900100708008 L 3.875 9.218999862670898 L 4.134200096130371 9.104700088500977 L 4.191299915313721 9.078499794006348 L 4.446000099182129 8.956999778747559 L 5 8.66100025177002 L 5.026899814605713 8.644800186157227 L 5.349100112915039 8.44950008392334 L 5.3755998611450195 8.432499885559082 L 5.611400127410889 8.276800155639648 L 5.637199878692627 8.258999824523926 L 5.732702732086182 8.192000389099121 L 5.852382183074951 8.108038902282715 L 5.8694000244140625 8.096099853515625 L 5.91949987411499 8.058099746704102 L 6.070700168609619 7.9456000328063965 L 6.220099925994873 7.830399990081787 L 6.509900093078613 7.590099811553955 L 6.541900157928467 7.5630998611450195 L 6.678267478942871 7.443235397338867 L 6.683199882507324 7.438899993896484 L 6.714000225067139 7.4105000495910645 L 6.853499889373779 7.282700061798096 L 7.056000232696533 7.085599899291992 L 7.078400135040283 7.063600063323975 L 7.2754998207092285 6.861100196838379 L 7.304100036621094 6.83050012588501 L 7.556099891662598 6.549699783325195 L 7.5767998695373535 6.526000022888184 L 7.757699966430664 6.309100151062012 L 7.777599811553955 6.284900188446045 L 7.79040002822876 6.2683000564575195 L 8.021699905395508 5.970399856567383 L 8.03298568725586 5.954911231994629 L 8.04640007019043 5.936500072479248 L 8.058099746704102 5.9191999435424805 L 8.192000389099121 5.728804111480713 L 8.329000473022461 5.533999919891357 L 8.34589958190918 5.507599830627441 L 8.643799781799316 5.0269999504089355 L 8.65999984741211 5 L 8.752699851989746 4.83620023727417 L 8.767999649047852 4.808700084686279 L 8.900300025939941 4.558499813079834 L 8.91469955444336 4.530700206756592 L 9.038900375366211 4.276899814605713 L 9.04800033569336 4.257999897003174 L 9.11819076538086 4.0960001945495605 L 9.29800033569336 3.680999994277954 L 9.397000312805176 3.4163999557495117 L 9.418299674987793 3.357300043106079 L 9.51099967956543 3.0899999141693115 L 9.592900276184082 2.819999933242798 L 9.610400199890137 2.759700059890747 L 9.685999870300293 2.486999988555908 L 9.730999946594238 2.30430006980896 L 9.738300323486328 2.273699998855591 L 9.77970027923584 2.089200019836426 L 9.81659984588623 1.9047000408172607 L 9.849900245666504 1.7193000316619873 L 9.879599571228027 1.5329999923706055 L 9.894399642944336 1.450600028038025 L 9.90342903137207 1.3835258483886719 L 9.919599533081055 1.2633999586105347 L 9.941200256347656 1.076200008392334 L 9.946999549865723 1.0241999626159668 L 9.96500015258789 0.8370000123977661 L 9.979999542236328 0.628000020980835 L 9.991000175476074 0.4189999997615815 L 9.998000144958496 0.20999999344348913 L 10 4.440892164675075e-17 L 9.998000144958496 -0.2090000063180923 L 9.991000175476074 -0.41899999976158137 L 9.979999542236328 -0.628000020980835 L 9.96500015258789 -0.8370000123977661 L 9.944999694824219 -1.0449999570846558 L 9.920999526977539 -1.253000020980835 L 9.892999649047852 -1.4609999656677246 L 9.859999656677246 -1.6679999828338623 L 9.822999954223633 -1.8739999532699585 L 9.788200378417969 -2.0480000972747803 L 9.781999588012695 -2.0789999961853027 L 9.736000061035156 -2.2829999923706055 L 9.685999870300293 -2.486999988555908 L 9.631999969482422 -2.688999891281128 L 9.572999954223633 -2.890000104904175 L 9.51099967956543 -3.0899999141693115 L 9.444000244140625 -3.2890000343322754 L 9.241499900817871 -3.8164000511169434 L 9.230600357055664 -3.8457999229431152 L 9.225049018859863 -3.859246253967285 L 9.212599754333496 -3.889400005340576 L 9.12035846710205 -4.0960001945495605 L 9.058699607849121 -4.234099864959717 L 9.038900375366211 -4.276800155639648 L 8.871500015258789 -4.614299774169922 L 8.857099533081055 -4.642199993133545 L 8.722100257873535 -4.890600204467773 L 8.70680046081543 -4.918099880218506 L 8.362099647521973 -5.480599880218506 L 8.340399742126465 -5.51639986038208 L 8.337721824645996 -5.520381450653076 L 8.31410026550293 -5.555500030517578 L 8.192000389099121 -5.7312421798706055 L 8.098999977111816 -5.865099906921387 L 8.080650329589844 -5.890448093414307 L 8.077500343322754 -5.894800186157227 L 8.058099746704102 -5.91949987411499 L 7.711599826812744 -6.365900039672852 L 7.5279998779296875 -6.580999851226807 L 7.49399995803833 -6.620800018310547 L 7.238399982452393 -6.8979997634887695 L 7.195000171661377 -6.943399906158447 L 6.928599834442139 -7.209799766540527 L 6.890200138092041 -7.245299816131592 L 6.541900157928467 -7.563000202178955 L 6.485199928283691 -7.609499931335449 L 6.046000003814697 -7.965000152587891 L 5.733182907104492 -8.192000389099121 L 5.706999778747559 -8.211000442504883 L 5.232699871063232 -8.518799781799316 L 5.171000003814697 -8.55840015411377 L 4.845200061798096 -8.747400283813477 L 4.799499988555908 -8.772899627685547 L 4.549300193786621 -8.90429973602295 L 4.521200180053711 -8.918399810791016 L 4.267399787902832 -9.043499946594238 L 4.238900184631348 -9.056699752807617 L 3.7211809158325195 -9.281015396118164 L 3.719599962234497 -9.281700134277344 L 3.690700054168701 -9.293999671936035 L 3.6219000816345215 -9.319199562072754 L 3.4463999271392822 -9.386699676513672 L 3.2690999507904053 -9.450599670410156 L 2.9696567058563232 -9.547412872314453 L 2.9100000858306885 -9.566699981689453 L 2.8089001178741455 -9.593799591064453 L 2.628000020980835 -9.645999908447266 L 2.446199893951416 -9.695500373840332 L 2.2634999752044678 -9.740500450134277 L 1.986299991607666 -9.79990005493164 L 1.9555000066757202 -9.805899620056152 L 1.6783000230789185 -9.858099937438965 L 1.6473000049591064 -9.863300323486328 L 1.273800015449524 -9.91819953918457 L 1.253000020980835 -9.920999526977539 L 0.9721999764442444 -9.951600074768066 L 0.9096999764442444 -9.957500457763672 L 0.628000020980835 -9.979999542236328 L 0.34540000557899475 -9.992600440979004 L 0.2825999855995178 -9.994600296020508 L -7.761021372006821e-14 -10 L -0.2825999855995178 -9.994600296020508 L -0.3244999945163727 -9.99370002746582 L -0.7215999960899353 -9.972800254821777 L -0.7529000043869019 -9.97029972076416 L -1.034600019454956 -9.946000099182129 L -1.0657999515533447 -9.94260025024414 L -1.579699993133545 -9.872400283813477 L -1.6004999876022339 -9.869600296020508 L -1.601426124572754 -9.86943244934082 L -1.6622999906539917 -9.858400344848633 L -2.170799970626831 -9.760299682617188 L -2.2116000652313232 -9.750800132751465 L -2.486999988555908 -9.685999870300293 L -2.5172998905181885 -9.677599906921387 L -3.059999942779541 -9.519200325012207 L -3.0899999141693115 -9.510000228881836 L -3.1196999549865723 -9.499799728393555 L -3.651599884033203 -9.309000015258789 L -3.656794309616089 -9.307056427001953 L -3.680999994277954 -9.29800033569336 L -3.7481000423431396 -9.268500328063965 L -4.0954999923706055 -9.121800422668457 L -4.0960001945495605 -9.121572494506836 L -4.267399787902832 -9.043499946594238 L -4.348688125610352 -9.00415325164795 L -4.436600208282471 -8.961600303649902 L -4.51039981842041 -8.92199993133545 L -4.678699970245361 -8.83650016784668 L -4.845200061798096 -8.747400283813477 L -5.008999824523926 -8.65470027923584 L -5.171000003814697 -8.55840015411377 L -5.331200122833252 -8.459400177001953 L -5.371099948883057 -8.434399604797363 L -5.5295000076293945 -8.33180046081543 L -5.685200214385986 -8.225600242614746 L -5.732684135437012 -8.192000389099121 L -5.839099884033203 -8.116700172424316 L -5.894800186157227 -8.077500343322754 L -5.900656700134277 -8.073142051696777 L -6.046000003814697 -7.965000152587891 L -6.195400238037109 -7.849800109863281 L -6.2322001457214355 -7.820300102233887 L -6.377999782562256 -7.701499938964844 L -6.521999835968018 -7.579999923706055 L -6.561200141906738 -7.545400142669678 L -6.702499866485596 -7.420300006866455 L -6.8420000076293945 -7.293399810791016 L -6.97790002822876 -7.162899971008301 L -7.033400058746338 -7.1072998046875 L -7.166600227355957 -6.973199844360352 L -7.297100067138672 -6.837299823760986 L -7.346054553985596 -6.78383207321167 L -7.423999786376953 -6.698699951171875 L -7.478000164031982 -6.634799957275391 L -7.603099822998047 -6.493500232696533 L -7.724599838256836 -6.3495001792907715 L -7.843400001525879 -6.2027997970581055 L -7.95772123336792 -6.055432319641113 L -7.958600044250488 -6.054299831390381 L -7.992499828338623 -6.007699966430664 L -8.192000389099121 -5.733892440795898 L -8.214799880981445 -5.702600002288818 L -8.415323257446289 -5.393605709075928 L -8.522600173950195 -5.228300094604492 L -8.618000030517578 -5.066299915313721 L -8.66759967803955 -4.986199855804443 L -8.934900283813477 -4.487599849700928 L -8.961600303649902 -4.436600208282471 L -9.043499946594238 -4.267399787902832 L -9.06089973449707 -4.229300022125244 L -9.11865520477295 -4.0960001945495605 L -9.285900115966797 -3.7100000381469727 L -9.353400230407715 -3.5344998836517334 L -9.38010025024414 -3.4663000106811523 L -9.384869575500488 -3.4526782035827637 L -9.448436737060547 -3.271146297454834 L -9.473699569702148 -3.1989998817443848 L -9.480400085449219 -3.1791000366210938 L -9.63070011138916 -2.683199882507324 L -9.636899948120117 -2.6631999015808105 L -9.642800331115723 -2.6431000232696533 L -9.648200035095215 -2.6229000091552734 L -9.665741920471191 -2.5531880855560303 L -9.751700401306152 -2.2116000652313232 L -9.756699562072754 -2.191200017929077 L -9.761300086975098 -2.170799970626831 L -9.899900436401367 -1.3824000358581543 L -9.904000282287598 -1.361899971961975 L -9.907699584960938 -1.3413000106811523 L -9.91100025177002 -1.3206000328063965 L -9.913800239562988 -1.2998000383377075 L -9.914275169372559 -1.2956792116165161 L -9.916199684143066 -1.2790000438690186 L -9.91819953918457 -1.2582000494003296 L -9.972200393676758 -0.7425000071525574 L -9.973699569702148 -0.7215999960899353 L -9.974800109863281 -0.7006999850273132 L -9.975500106811523 -0.6797000169754028 M -50 -52.51499938964844 L -32.768001556396484 -52.51499938964844 L -28.672000885009766 -52.51499938964844 L -26.624000549316406 -52.51499938964844 L -24.576000213623047 -52.51499938964844 L -16.384000778198242 -52.51499938964844 L 0 -52.51499938964844 L 16.384000778198242 -52.51499938964844 L 24.576000213623047 -52.51499938964844 L 26.624000549316406 -52.51499938964844 L 28.672000885009766 -52.51499938964844 L 32.768001556396484 -52.51499938964844 L 50 -52.51499938964844 L 50 -32.768001556396484 L 50 4.440892164675075e-17 L 50 32.768001556396484 L 50 52.51499938964844 L 32.768001556396484 52.51499938964844 L 16.384000778198242 52.51499938964844 L 0 52.51499938964844 L -16.384000778198242 52.51499938964844 L -32.768001556396484 52.51499938964844 L -50 52.51499938964844 L -50 32.768001556396484 L -50 4.440892164675075e-17 L -50 -32.768001556396484 L -50 -52.51499938964844 M -25.996999740600586 46.5880012512207 L -25.996749877929688 46.59199905395508 L -25.995420455932617 46.61326217651367 L -25.99519920349121 46.616798400878906 L -25.994972229003906 46.61920166015625 L -25.994800567626953 46.62099838256836 L -25.993000030517578 46.632999420166016 L -25.99209976196289 46.638999938964844 L -25.99169921875 46.6421012878418 L -25.986000061035156 46.68199920654297 L -25.98200035095215 46.70199966430664 L -25.97800064086914 46.722999572753906 L -25.974000930786133 46.74300003051758 L -25.97311019897461 46.74644470214844 L -25.965999603271484 46.77399826049805 L -25.95400047302246 46.81399917602539 L -25.944000244140625 46.84400177001953 L -25.94260025024414 46.847999572753906 L -25.937000274658203 46.86399841308594 L -25.93000030517578 46.882999420166016 L -25.917999267578125 46.9119987487793 L -25.905000686645508 46.941001892089844 L -25.900737762451172 46.95000076293945 L -25.895999908447266 46.959999084472656 L -25.88599967956543 46.97800064086914 L -25.875999450683594 46.99700164794922 L -25.861000061035156 47.02399826049805 L -25.8439998626709 47.05099868774414 L -25.82699966430664 47.07699966430664 L -25.80900001525879 47.10300064086914 L -25.80824089050293 47.104000091552734 L -25.790000915527344 47.12799835205078 L -25.770999908447266 47.152000427246094 L -25.729000091552734 47.20000076293945 L -25.718027114868164 47.21175765991211 L -25.71500015258789 47.21500015258789 L -25.700000762939453 47.229000091552734 L -25.677000045776367 47.250999450683594 L -25.652999877929688 47.27199935913086 L -25.628999710083008 47.29199981689453 L -25.600000381469727 47.314849853515625 L -25.59600067138672 47.31800079345703 L -25.562000274658203 47.34199905395508 L -25.535999298095703 47.35900115966797 L -25.53436279296875 47.36000061035156 L -25.51799964904785 47.369998931884766 L -25.490999221801758 47.38600158691406 L -25.46299934387207 47.4010009765625 L -25.434999465942383 47.415000915527344 L -25.39699935913086 47.43299865722656 L -25.357999801635742 47.44900131225586 L -25.32900047302246 47.45899963378906 L -25.30900001525879 47.465999603271484 L -25.306692123413086 47.46669387817383 L -25.27899932861328 47.474998474121094 L -25.23900032043457 47.486000061035156 L -25.197999954223633 47.494998931884766 L -25.16699981689453 47.500999450683594 L -25.125 47.50699996948242 L -25.0939998626709 47.51100158691406 L -25.08799934387207 47.51142883300781 L -25.052000045776367 47.513999938964844 L -25.048900604248047 47.51409912109375 L -25.01110076904297 47.51499938964844 L -24.980100631713867 47.51499938964844 L -24.976900100708008 47.51490020751953 L -24.95800018310547 47.513999938964844 L -24.940399169921875 47.51169967651367 L -24.890899658203125 47.507198333740234 L -24.843463897705078 47.49903106689453 L -24.7549991607666 47.48379898071289 L -24.743000030517578 47.480201721191406 L -24.656600952148438 47.4541015625 L -24.58370018005371 47.42259979248047 L -24.576000213623047 47.41910934448242 L -24.568700790405273 47.41579818725586 L -24.489500045776367 47.3744010925293 L -24.482099533081055 47.36989974975586 L -24.357900619506836 47.27989959716797 L -24.35099983215332 47.27470016479492 L -24.33919906616211 47.263301849365234 L -24.237499237060547 47.161598205566406 L -24.229700088500977 47.15169906616211 L -24.196557998657227 47.104000091552734 L -24.148494720458984 47.03482437133789 L -24.133399963378906 47.013099670410156 L -24.093799591064453 46.93299865722656 L -24.08523941040039 46.91706085205078 L -24.084400177001953 46.91550064086914 L -24.04210090637207 46.79759979248047 L -24.03820037841797 46.786800384521484 L -24.014799118041992 46.68149948120117 L -24.011199951171875 46.66120147705078 L -24.002199172973633 46.562198638916016 L -24.001800537109375 46.55459976196289 L -24.001800537109375 46.45830154418945 L -24.002899169921875 46.44369888305664 L -24.026071548461914 46.30177688598633 L -24.031700134277344 46.26729965209961 L -24.042499542236328 46.231300354003906 L -24.05150032043457 46.20429992675781 L -24.056900024414062 46.18360137939453 L -24.100826263427734 46.08000183105469 L -24.10460090637207 46.07109832763672 L -24.11050033569336 46.05820083618164 L -24.222999572753906 45.88990020751953 L -24.23419952392578 45.873600006103516 L -24.239200592041016 45.868099212646484 L -24.326499938964844 45.777198791503906 L -24.329500198364258 45.77429962158203 L -24.33180046081543 45.77220153808594 L -24.334199905395508 45.77009963989258 L -24.336599349975586 45.7681999206543 L -24.339099884033203 45.766300201416016 L -24.458799362182617 45.676300048828125 L -24.46139907836914 45.67449951171875 L -24.464000701904297 45.67279815673828 L -24.46595001220703 45.671573638916016 L -24.466699600219727 45.67110061645508 L -24.470399856567383 45.66910171508789 L -24.473100662231445 45.667598724365234 L -24.576000213623047 45.61351013183594 L -24.613500595092773 45.59379959106445 L -24.61829948425293 45.59159851074219 L -24.62220001220703 45.59000015258789 L -24.625099182128906 45.5890007019043 L -24.629100799560547 45.58769989013672 L -24.700088500976562 45.56800079345703 L -24.81719970703125 45.535499572753906 L -24.821199417114258 45.5343017578125 L -24.822938919067383 45.53390884399414 L -24.82430076599121 45.533599853515625 L -24.828399658203125 45.532798767089844 L -24.831499099731445 45.53229904174805 L -24.835948944091797 45.53179931640625 L -24.83769989013672 45.53160095214844 L -24.839799880981445 45.53139877319336 L -24.841899871826172 45.53129959106445 L -25.073200225830078 45.52050018310547 L -25.075300216674805 45.52040100097656 L -25.07740020751953 45.52040100097656 L -25.082599639892578 45.52050018310547 L -25.08679962158203 45.52090072631836 L -25.08989906311035 45.52119827270508 L -25.096099853515625 45.52220153808594 L -25.09819984436035 45.52259826660156 L -25.2539005279541 45.54779815673828 L -25.258499145507812 45.54890060424805 L -25.261999130249023 45.54990005493164 L -25.263999938964844 45.550498962402344 L -25.29119300842285 45.55936050415039 L -25.317707061767578 45.56800079345703 L -25.344100952148438 45.57659912109375 L -25.346099853515625 45.577301025390625 L -25.349000930786133 45.57830047607422 L -25.349300384521484 45.57841873168945 L -25.351999282836914 45.579498291015625 L -25.353900909423828 45.580299377441406 L -25.48349952697754 45.642398834228516 L -25.489099502563477 45.645198822021484 L -25.490999221801758 45.64619827270508 L -25.492799758911133 45.64720153808594 L -25.496400833129883 45.64939880371094 L -25.49810028076172 45.6505012512207 L -25.499900817871094 45.65169906616211 L -25.500986099243164 45.652366638183594 L -25.586299896240234 45.70479965209961 L -25.58970069885254 45.70719909667969 L -25.594499588012695 45.71120071411133 L -25.596099853515625 45.71260070800781 L -25.600000381469727 45.715816497802734 L -25.683399200439453 45.78459930419922 L -25.684999465942383 45.7859992980957 L -25.700000762939453 45.80099868774414 L -25.71500015258789 45.814998626708984 L -25.729000091552734 45.83000183105469 L -25.764699935913086 45.87080001831055 L -25.770999908447266 45.87799835205078 L -25.772300720214844 45.879600524902344 L -25.789400100708008 45.90119934082031 L -25.790700912475586 45.902801513671875 L -25.80780029296875 45.92530059814453 L -25.80900001525879 45.926998138427734 L -25.82699966430664 45.952999114990234 L -25.8439998626709 45.979000091552734 L -25.856277465820312 45.99850082397461 L -25.861000061035156 46.00600051879883 L -25.875999450683594 46.03300094604492 L -25.88599967956543 46.051998138427734 L -25.895999908447266 46.06999969482422 L -25.900737762451172 46.08000183105469 L -25.913999557495117 46.108001708984375 L -25.922000885009766 46.12699890136719 L -25.93000030517578 46.14699935913086 L -25.937000274658203 46.16600036621094 L -25.944000244140625 46.18600082397461 L -25.95400047302246 46.215999603271484 L -25.9689998626709 46.26599884033203 L -25.974000930786133 46.2869987487793 L -25.978200912475586 46.30799865722656 L -25.981800079345703 46.326900482177734 L -25.98240089416504 46.33000183105469 L -25.983600616455078 46.33599853515625 L -25.984800338745117 46.34199905395508 L -25.986000061035156 46.347999572753906 L -25.992000579833984 46.38999938964844 L -25.9950008392334 46.40999984741211 L -25.996999740600586 46.430999755859375 L -26 46.49399948120117 L -26 46.5359992980957 L -25.999000549316406 46.55699920654297 L -25.996999740600586 46.5880012512207 M -0.38269999623298645 47.436100006103516 L -0.37229999899864197 47.44110107421875 L -0.35989999771118164 47.445098876953125 L -0.17720000445842743 47.498199462890625 L -0.16619999706745148 47.5004997253418 L -0.12681463360786438 47.50676727294922 L -0.1265999972820282 47.50680160522461 L -0.12189999967813492 47.50740051269531 L -0.09399999678134918 47.51100158691406 L -0.052000001072883606 47.513999938964844 L -0.020999999716877937 47.51499938964844 L 0 47.51499938964844 L 0.009999999776482582 47.51499938964844 L 0.05050000175833702 47.514034271240234 L 0.052000001072883606 47.513999938964844 L 0.0551999993622303 47.51369857788086 L 0.09300000220537186 47.51100158691406 L 0.0982000008225441 47.510398864746094 L 0.16840000450611115 47.49959945678711 L 0.17890000343322754 47.49760055541992 L 0.2815000116825104 47.47420120239258 L 0.29899999499320984 47.468101501464844 L 0.40700000524520874 47.4276008605957 L 0.5051000118255615 47.37630081176758 L 0.5145999789237976 47.371299743652344 L 0.5248000025749207 47.36439895629883 L 0.6129999756813049 47.30500030517578 L 0.614366888999939 47.303810119628906 L 0.6822999715805054 47.24470138549805 L 0.692300021648407 47.23569869995117 L 0.7516999840736389 47.172698974609375 L 0.7631000280380249 47.15890121459961 L 0.8038175106048584 47.104000091552734 L 0.8432000279426575 47.050899505615234 L 0.8476999998092651 47.04349899291992 L 0.8971999883651733 46.955299377441406 L 0.9032999873161316 46.942298889160156 L 0.933899998664856 46.87120056152344 L 0.9376999735832214 46.85919952392578 L 0.9710000157356262 46.75120162963867 L 0.9729999899864197 46.74020004272461 L 0.9937000274658203 46.62409973144531 L 0.9955921173095703 46.59855651855469 L 0.9991000294685364 46.55120086669922 L 1 46.53630065917969 L 0.9883000254631042 46.372501373291016 L 0.9882000088691711 46.36940002441406 L 0.9861000180244446 46.35380172729492 L 0.9563999772071838 46.225101470947266 L 0.9534000158309937 46.2140007019043 L 0.9523000121116638 46.21099853515625 L 0.9046000242233276 46.092201232910156 L 0.8999999761581421 46.08169937133789 L 0.8990727066993713 46.08000183105469 L 0.8970000147819519 46.07619857788086 L 0.8952999711036682 46.07350158691406 L 0.8942000269889832 46.071800231933594 L 0.8930000066757202 46.06999969482422 L 0.8860272765159607 46.058773040771484 L 0.8217468857765198 45.95526885986328 L 0.7868000268936157 45.89899826049805 L 0.7782999873161316 45.88840103149414 L 0.6136000156402588 45.727298736572266 L 0.6115000247955322 45.724998474121094 L 0.6059972643852234 45.71998977661133 L 0.6036999821662903 45.717899322509766 L 0.5978999733924866 45.7135009765625 L 0.5006999969482422 45.65230178833008 L 0.4936999976634979 45.64780044555664 L 0.48350000381469727 45.642398834228516 L 0.43164682388305664 45.61789321899414 L 0.3521000146865845 45.580299377441406 L 0.3382999897003174 45.575401306152344 L 0.11599999666213989 45.52320098876953 L 0.11400000005960464 45.52259826660156 L 0.11089999973773956 45.52190017700195 L 0.10779999941587448 45.52130126953125 L 0.09430000185966492 45.51959991455078 L 0 45.518489837646484 L -0.05869999900460243 45.517799377441406 L -0.06679999828338623 45.517799377441406 L -0.07819999754428864 45.518798828125 L -0.1826000064611435 45.53229904174805 L -0.21950000524520874 45.53950119018555 L -0.23849999904632568 45.5443000793457 L -0.30239999294281006 45.56230163574219 L -0.3824999928474426 45.59109878540039 L -0.3984000086784363 45.5984001159668 L -0.4154999852180481 45.60559844970703 L -0.42476052045822144 45.610504150390625 L -0.5073000192642212 45.65420150756836 L -0.5177000164985657 45.660701751708984 L -0.5842999815940857 45.70389938354492 L -0.6473000049591064 45.75339889526367 L -0.659500002861023 45.764198303222656 L -0.7342000007629395 45.83620071411133 L -0.7423999905586243 45.845699310302734 L -0.8080999851226807 45.92580032348633 L -0.8116999864578247 45.93090057373047 L -0.8855000138282776 46.05149841308594 L -0.8924000263214111 46.06380081176758 L -0.8992850184440613 46.08000183105469 L -0.9383000135421753 46.17179870605469 L -0.9419000148773193 46.18080139160156 L -0.9452000260353088 46.19160079956055 L -0.9847999811172485 46.34189987182617 L -0.9861000180244446 46.34880065917969 L -0.9871000051498413 46.356300354003906 L -0.9997000098228455 46.487701416015625 L -0.9998000264167786 46.50080108642578 L -0.9980000257492065 46.564701080322266 L -0.9968000054359436 46.57640075683594 L -0.9860000014305115 46.67900085449219 L -0.9835000038146973 46.69020080566406 L -0.9574000239372253 46.80270004272461 L -0.9160000085830688 46.912498474121094 L -0.9158409237861633 46.91291809082031 L -0.9100000262260437 46.928199768066406 L -0.8217999935150146 47.081199645996094 L -0.816100001335144 47.091400146484375 L -0.809499979019165 47.10060119628906 L -0.8067271709442139 47.104000091552734 L -0.7339000105857849 47.19329833984375 L -0.7282999753952026 47.199798583984375 L -0.5932999849319458 47.31769943237305 L -0.5789999961853027 47.33000183105469 L -0.515999972820282 47.37139892578125 L -0.5115939378738403 47.37413024902344 L -0.5059999823570251 47.377601623535156 L -0.38269999623298645 47.436100006103516 M -0.28999999165534973 -47.5614013671875 L -0.288100004196167 -47.56060028076172 L -0.28610000014305115 -47.55979919433594 L -0.2842000126838684 -47.558998107910156 L -0.2669999897480011 -47.55440139770508 L -0.12120000272989273 -47.52199935913086 L -0.10869999974966049 -47.52050018310547 L 0 -47.516727447509766 L 0.020899999886751175 -47.51599884033203 L 0.029200000688433647 -47.51599884033203 L 0.03909999877214432 -47.51679992675781 L 0.1695999950170517 -47.53030014038086 L 0.18119999766349792 -47.532501220703125 L 0.24420000612735748 -47.545101165771484 L 0.302700012922287 -47.562198638916016 L 0.31949999928474426 -47.568199157714844 L 0.3375000059604645 -47.57360076904297 L 0.34928181767463684 -47.578834533691406 L 0.4628642201423645 -47.62931823730469 L 0.47519999742507935 -47.63479995727539 L 0.49140000343322754 -47.64469909667969 L 0.5041999816894531 -47.6515998840332 L 0.6202999949455261 -47.7317008972168 L 0.6312999725341797 -47.7401008605957 L 0.7275999784469604 -47.830101013183594 L 0.7407000064849854 -47.84360122680664 L 0.8172000050544739 -47.93899917602539 L 0.8256999850273132 -47.951698303222656 L 0.8859999775886536 -48.0525016784668 L 0.920199990272522 -48.1245002746582 L 0.9214833378791809 -48.12799835205078 L 0.9301000237464905 -48.1515007019043 L 0.9363999962806702 -48.169498443603516 L 0.945900022983551 -48.19240188598633 L 0.9521999955177307 -48.21039962768555 L 0.9565720558166504 -48.227134704589844 L 0.9782999753952026 -48.310298919677734 L 0.9807999730110168 -48.32170104980469 L 0.9987999796867371 -48.48099899291992 L 0.9998000264167786 -48.50019836425781 L 0.9980000257492065 -48.568599700927734 L 0.9969000220298767 -48.58039855957031 L 0.9851999878883362 -48.685699462890625 L 0.9681000113487244 -48.76129913330078 L 0.965399980545044 -48.77289962768555 L 0.9330000281333923 -48.87099838256836 L 0.9287999868392944 -48.883201599121094 L 0.8774999976158142 -48.99209976196289 L 0.8737000226974487 -48.99980163574219 L 0.8676000237464905 -49.00960159301758 L 0.8154000043869019 -49.093299865722656 L 0.8046000003814697 -49.10639953613281 L 0.7677100896835327 -49.152000427246094 L 0.739799976348877 -49.186500549316406 L 0.7315880060195923 -49.19496154785156 L 0.680400013923645 -49.24769973754883 L 0.6723999977111816 -49.254798889160156 L 0.5922999978065491 -49.31869888305664 L 0.5827000141143799 -49.32569885253906 L 0.4909000098705292 -49.38600158691406 L 0.477400004863739 -49.393001556396484 L 0.4036000072956085 -49.4281005859375 L 0.2542000114917755 -49.48030090332031 L 0.24210000038146973 -49.484901428222656 L 0.23905156552791595 -49.485591888427734 L 0.23109999299049377 -49.48740005493164 L 0.1014999970793724 -49.50899887084961 L 0.09189999848604202 -49.51020050048828 L 0.07743749767541885 -49.511314392089844 L 0.045099999755620956 -49.51380157470703 L 0.041999999433755875 -49.513999938964844 L 0.020999999716877937 -49.513999938964844 L 0 -49.51499938964844 L -0.020999999716877937 -49.513999938964844 L -0.041999999433755875 -49.513999938964844 L -0.04410000145435333 -49.51390075683594 L -0.07199999690055847 -49.51210021972656 L -0.09009999781847 -49.50920104980469 L -0.2529999911785126 -49.482200622558594 L -0.26440000534057617 -49.47850036621094 L -0.3517000079154968 -49.44969940185547 L -0.4318000078201294 -49.41550064086914 L -0.4431999921798706 -49.410400390625 L -0.5529999732971191 -49.3474006652832 L -0.5618000030517578 -49.342098236083984 L -0.5738999843597412 -49.33250045776367 L -0.6909000277519226 -49.237098693847656 L -0.6984999775886536 -49.22919845581055 L -0.7633000016212463 -49.16080093383789 L -0.76910001039505 -49.15340042114258 L -0.7700969576835632 -49.152000427246094 L -0.8536999821662903 -49.03459930419922 L -0.8597000241279602 -49.024898529052734 L -0.9406999945640564 -48.8484992980957 L -0.9466000199317932 -48.83580017089844 L -0.9467625617980957 -48.835296630859375 L -0.9498000144958496 -48.82590103149414 L -0.9750000238418579 -48.73680114746094 L -0.9768999814987183 -48.72840118408203 L -0.9966999888420105 -48.574501037597656 L -0.9979000091552734 -48.56330108642578 L -0.998199999332428 -48.555198669433594 L -0.9973000288009644 -48.43730163574219 L -0.9958000183105469 -48.42250061035156 L -0.9840999841690063 -48.340599060058594 L -0.9818999767303467 -48.33060073852539 L -0.9629999995231628 -48.24599838256836 L -0.9395999908447266 -48.17399978637695 L -0.9337999820709229 -48.15840148925781 L -0.9208202362060547 -48.12799835205078 L -0.9031866192817688 -48.086700439453125 L -0.8996000289916992 -48.07830047607422 L -0.8654000163078308 -48.014400482177734 L -0.8500999808311462 -47.9901008605957 L -0.843999981880188 -47.979000091552734 L -0.8070999979972839 -47.92499923706055 L -0.7962999939918518 -47.9109001159668 L -0.7360000014305115 -47.8380012512207 L -0.7268999814987183 -47.82929992675781 L -0.642300009727478 -47.74919891357422 L -0.6366000175476074 -47.74470138549805 L -0.5016000270843506 -47.651100158691406 L -0.4995238780975342 -47.649662017822266 L -0.49936866760253906 -47.64955520629883 L -0.49900001287460327 -47.64929962158203 L -0.4896000027656555 -47.64360046386719 L -0.48350000381469727 -47.64059829711914 L -0.28999999165534973 -47.5614013671875 M 25.98200035095215 46.327999114990234 L 25.9783992767334 46.30910110473633 L 25.977800369262695 46.305999755859375 L 25.974199295043945 46.28799819946289 L 25.973499298095703 46.2849006652832 L 25.972749710083008 46.2817497253418 L 25.9689998626709 46.26599884033203 L 25.947999954223633 46.19599914550781 L 25.937000274658203 46.16600036621094 L 25.93000030517578 46.14699935913086 L 25.922000885009766 46.12699890136719 L 25.909000396728516 46.0989990234375 L 25.900482177734375 46.08000183105469 L 25.899023056030273 46.076744079589844 L 25.895999908447266 46.06999969482422 L 25.88599967956543 46.051998138427734 L 25.875999450683594 46.03300094604492 L 25.861000061035156 46.00600051879883 L 25.85930061340332 46.003299713134766 L 25.839500427246094 45.97090148925781 L 25.83839988708496 45.969200134277344 L 25.837200164794922 45.96739959716797 L 25.832536697387695 45.960792541503906 L 25.81439971923828 45.93510055541992 L 25.791900634765625 45.90449905395508 L 25.790700912475586 45.902801513671875 L 25.79017448425293 45.90215301513672 L 25.764699935913086 45.87080001831055 L 25.7367000579834 45.83879852294922 L 25.73419952392578 45.83610153198242 L 25.646900177001953 45.753299713134766 L 25.640600204467773 45.747398376464844 L 25.628599166870117 45.73849868774414 L 25.600000381469727 45.717376708984375 L 25.549400329589844 45.68000030517578 L 25.474700927734375 45.63589859008789 L 25.466100692749023 45.63100051879883 L 25.458999633789062 45.62770080566406 L 25.35099983215332 45.5791015625 L 25.25469970703125 45.549400329589844 L 25.2273006439209 45.542598724365234 L 25.127399444580078 45.52370071411133 L 25.00320053100586 45.51649856567383 L 24.992300033569336 45.515899658203125 L 24.98240089416504 45.51649856567383 L 24.88610076904297 45.52190017700195 L 24.8821964263916 45.5225715637207 L 24.874500274658203 45.52389907836914 L 24.783599853515625 45.53919982910156 L 24.780406951904297 45.540122985839844 L 24.77079963684082 45.54290008544922 L 24.632200241088867 45.58700180053711 L 24.61910057067871 45.59299850463867 L 24.576000213623047 45.61336135864258 L 24.50480079650879 45.64699935913086 L 24.494800567626953 45.6531982421875 L 24.367977142333984 45.74296569824219 L 24.356199264526367 45.75130081176758 L 24.292299270629883 45.810699462890625 L 24.276100158691406 45.825199127197266 L 24.22209930419922 45.887298583984375 L 24.215299606323242 45.89550018310547 L 24.213499069213867 45.898101806640625 L 24.124399185180664 46.037601470947266 L 24.118999481201172 46.04650115966797 L 24.116792678833008 46.05107879638672 L 24.114900588989258 46.05500030517578 L 24.114099502563477 46.05699920654297 L 24.060100555419922 46.17580032348633 L 24.056800842285156 46.185699462890625 L 24.03856086730957 46.254417419433594 L 24.01810073852539 46.33150100708008 L 24.014999389648438 46.347900390625 L 24.006000518798828 46.59629821777344 L 24.005599975585938 46.60049819946289 L 24.00550079345703 46.60260009765625 L 24.00550079345703 46.60860061645508 L 24.00629997253418 46.619300842285156 L 24.02519989013672 46.73270034790039 L 24.02720069885254 46.74380111694336 L 24.055999755859375 46.840999603271484 L 24.059499740600586 46.852500915527344 L 24.09910011291504 46.94609832763672 L 24.103599548339844 46.95640182495117 L 24.1476993560791 47.0364990234375 L 24.156400680541992 47.050498962402344 L 24.197755813598633 47.104000091552734 L 24.269800186157227 47.197200775146484 L 24.27589988708496 47.2047004699707 L 24.288299560546875 47.21609878540039 L 24.33574104309082 47.25865173339844 L 24.375600814819336 47.29439926147461 L 24.561899185180664 47.410499572753906 L 24.575899124145508 47.419898986816406 L 24.576000213623047 47.419944763183594 L 24.592199325561523 47.42689895629883 L 24.685800552368164 47.46379852294922 L 24.769500732421875 47.48720169067383 L 24.78339958190918 47.49089813232422 L 24.89859962463379 47.5088996887207 L 24.90999984741211 47.51029968261719 L 24.955900192260742 47.51390075683594 L 24.961200714111328 47.51409912109375 L 24.989999771118164 47.51499938964844 L 25.020999908447266 47.51499938964844 L 25.052000045776367 47.513999938964844 L 25.08799934387207 47.51142883300781 L 25.0939998626709 47.51100158691406 L 25.125 47.50699996948242 L 25.164899826049805 47.50130081176758 L 25.1654052734375 47.501216888427734 L 25.167999267578125 47.50080108642578 L 25.18600082397461 47.49720001220703 L 25.190099716186523 47.49639892578125 L 25.218000411987305 47.49100112915039 L 25.218900680541992 47.490779876708984 L 25.259000778198242 47.48099899291992 L 25.30900001525879 47.465999603271484 L 25.32900047302246 47.45899963378906 L 25.357999801635742 47.44900131225586 L 25.360488891601562 47.44797897338867 L 25.39699935913086 47.43299865722656 L 25.434999465942383 47.415000915527344 L 25.46299934387207 47.4010009765625 L 25.490999221801758 47.38600158691406 L 25.51799964904785 47.369998931884766 L 25.53436279296875 47.36000061035156 L 25.535999298095703 47.35900115966797 L 25.562000274658203 47.34199905395508 L 25.58799934387207 47.32400131225586 L 25.600000381469727 47.31488037109375 L 25.613000869750977 47.30500030517578 L 25.636999130249023 47.2859992980957 L 25.667856216430664 47.25899887084961 L 25.677000045776367 47.250999450683594 L 25.700000762939453 47.229000091552734 L 25.71500015258789 47.21500015258789 L 25.736000061035156 47.19200134277344 L 25.770999908447266 47.152000427246094 L 25.790000915527344 47.12799835205078 L 25.807647705078125 47.104000091552734 L 25.815000534057617 47.09400177001953 L 25.831199645996094 47.07059860229492 L 25.833599090576172 47.06719970703125 L 25.834260940551758 47.06618118286133 L 25.8435001373291 47.05189895629883 L 25.845699310302734 47.048301696777344 L 25.861000061035156 47.02399826049805 L 25.86549949645996 47.015899658203125 L 25.875999450683594 46.99700164794922 L 25.88599967956543 46.97800064086914 L 25.895999908447266 46.959999084472656 L 25.900737762451172 46.95000076293945 L 25.913999557495117 46.922000885009766 L 25.922000885009766 46.90299987792969 L 25.93000030517578 46.882999420166016 L 25.937000274658203 46.86399841308594 L 25.942867279052734 46.847999572753906 L 25.947999954223633 46.83399963378906 L 25.968700408935547 46.76499938964844 L 25.96969985961914 46.76089859008789 L 25.97425079345703 46.74074935913086 L 25.97599983215332 46.733001708984375 L 25.98200035095215 46.70199966430664 L 25.984600067138672 46.68899917602539 L 25.985849380493164 46.6827507019043 L 25.986000061035156 46.68199920654297 L 25.98900032043457 46.6609992980957 L 25.98940086364746 46.657901763916016 L 25.99209976196289 46.638999938964844 L 25.993000030517578 46.632999420166016 L 25.994800567626953 46.62099838256836 L 25.996999740600586 46.597900390625 L 25.99728012084961 46.59199905395508 L 25.997900009155273 46.57899856567383 L 25.99810028076172 46.57590103149414 L 26 46.5359992980957 L 26 46.49399948120117 L 25.996999740600586 46.430999755859375 L 25.995285034179688 46.41299819946289 L 25.9950008392334 46.40999984741211 L 25.992000579833984 46.38999938964844 L 25.986000061035156 46.347999572753906 L 25.983600616455078 46.33599853515625 L 25.98200035095215 46.327999114990234 M 25.020999908447266 -49.513999938964844 L 25.00579261779785 -49.51472473144531 L 25 -49.51499938964844 L 24.979000091552734 -49.513999938964844 L 24.975299835205078 -49.51390075683594 L 24.936599731445312 -49.51210021972656 L 24.927400588989258 -49.51110076904297 L 24.825700759887695 -49.4994010925293 L 24.81279945373535 -49.49660110473633 L 24.71470069885254 -49.4723014831543 L 24.704500198364258 -49.46860122680664 L 24.587499618530273 -49.42449951171875 L 24.576000213623047 -49.4185676574707 L 24.50200080871582 -49.380401611328125 L 24.48900032043457 -49.374000549316406 L 24.486797332763672 -49.37255859375 L 24.416099548339844 -49.32630157470703 L 24.401899337768555 -49.316001892089844 L 24.395000457763672 -49.309600830078125 L 24.253700256347656 -49.178199768066406 L 24.246200561523438 -49.1692008972168 L 24.232980728149414 -49.152000427246094 L 24.171499252319336 -49.071998596191406 L 24.16390037536621 -49.06039810180664 L 24.10810089111328 -48.96500015258789 L 24.072099685668945 -48.88309860229492 L 24.06410026550293 -48.864601135253906 L 24.02630043029785 -48.737701416015625 L 24.022300720214844 -48.71929931640625 L 24.003400802612305 -48.57619857788086 L 24.00279998779297 -48.56809997558594 L 24.003599166870117 -48.5526008605957 L 24.001800537109375 -48.465301513671875 L 24.011699676513672 -48.3671989440918 L 24.013704299926758 -48.3568229675293 L 24.027000427246094 -48.28799819946289 L 24.030399322509766 -48.270999908447266 L 24.06100082397461 -48.172000885009766 L 24.067899703979492 -48.154998779296875 L 24.131799697875977 -48.019100189208984 L 24.140199661254883 -48.00579833984375 L 24.220300674438477 -47.88880157470703 L 24.229799270629883 -47.877498626708984 L 24.31062126159668 -47.791351318359375 L 24.31170082092285 -47.790199279785156 L 24.322200775146484 -47.78110122680664 L 24.377099990844727 -47.73249816894531 L 24.45359992980957 -47.67850112915039 L 24.46179962158203 -47.67279815673828 L 24.576000213623047 -47.61130905151367 L 24.590499877929688 -47.60350036621094 L 24.596599578857422 -47.599998474121094 L 24.599271774291992 -47.598777770996094 L 24.604900360107422 -47.59619903564453 L 24.700300216674805 -47.5620002746582 L 24.708499908447266 -47.55910110473633 L 24.80660057067871 -47.5348014831543 L 24.823200225830078 -47.53110122680664 L 24.89069938659668 -47.52119827270508 L 24.901100158691406 -47.52050018310547 L 24.982999801635742 -47.515098571777344 L 24.995899200439453 -47.51559829711914 L 25.08049964904785 -47.5182991027832 L 25.086755752563477 -47.51912307739258 L 25.169599533081055 -47.529998779296875 L 25.18429946899414 -47.53260040283203 L 25.253599166870117 -47.547000885009766 L 25.345399856567383 -47.577598571777344 L 25.358200073242188 -47.5817985534668 L 25.358783721923828 -47.582061767578125 L 25.460800170898438 -47.62770080566406 L 25.46980094909668 -47.631900787353516 L 25.550800323486328 -47.68050003051758 L 25.56130027770996 -47.6869010925293 L 25.600000381469727 -47.71604919433594 L 25.607816696166992 -47.72193908691406 L 25.630599975585938 -47.73910140991211 L 25.65220069885254 -47.757999420166016 L 25.663400650024414 -47.7671012878418 L 25.69072914123535 -47.79178237915039 L 25.691299438476562 -47.792301177978516 L 25.694299697875977 -47.79520034790039 L 25.71500015258789 -47.814998626708984 L 25.756999969482422 -47.861000061035156 L 25.777000427246094 -47.8849983215332 L 25.797000885009766 -47.90999984741211 L 25.80900001525879 -47.926998138427734 L 25.82699966430664 -47.952999114990234 L 25.8439998626709 -47.979000091552734 L 25.865999221801758 -48.01499938964844 L 25.881000518798828 -48.04199981689453 L 25.895999908447266 -48.06999969482422 L 25.913999557495117 -48.108001708984375 L 25.922571182250977 -48.12799835205078 L 25.926000595092773 -48.13600158691406 L 25.937000274658203 -48.16600036621094 L 25.951000213623047 -48.20600128173828 L 25.959999084472656 -48.236000061035156 L 25.97100067138672 -48.2760009765625 L 25.979999542236328 -48.31700134277344 L 25.986000061035156 -48.347999572753906 L 25.990999221801758 -48.37900161743164 L 25.99164581298828 -48.38399887084961 L 25.9950008392334 -48.40999984741211 L 25.996999740600586 -48.430999755859375 L 26 -48.49399948120117 L 26 -48.51499938964844 L 25.99799919128418 -48.57699966430664 L 25.996999740600586 -48.597999572753906 L 25.9950008392334 -48.61899948120117 L 25.992000579833984 -48.63999938964844 L 25.988000869750977 -48.67100143432617 L 25.97599983215332 -48.733001708984375 L 25.9689998626709 -48.76300048828125 L 25.959999084472656 -48.79399871826172 L 25.947999954223633 -48.83399963378906 L 25.937000274658203 -48.862998962402344 L 25.926000595092773 -48.893001556396484 L 25.924715042114258 -48.895999908447266 L 25.913999557495117 -48.92100143432617 L 25.895999908447266 -48.95899963378906 L 25.865999221801758 -49.01499938964844 L 25.850000381469727 -49.04199981689453 L 25.82699966430664 -49.07699966430664 L 25.80900001525879 -49.10200119018555 L 25.797000885009766 -49.11899948120117 L 25.794599533081055 -49.12200164794922 L 25.777000427246094 -49.14400100708008 L 25.770334243774414 -49.152000427246094 L 25.756999969482422 -49.167999267578125 L 25.736000061035156 -49.19200134277344 L 25.71500015258789 -49.2140007019043 L 25.700000762939453 -49.229000091552734 L 25.677000045776367 -49.250999450683594 L 25.645000457763672 -49.27899932861328 L 25.621000289916992 -49.29800033569336 L 25.604999542236328 -49.31100082397461 L 25.600000381469727 -49.314823150634766 L 25.58799934387207 -49.32400131225586 L 25.570999145507812 -49.33599853515625 L 25.545000076293945 -49.354000091552734 L 25.490999221801758 -49.38600158691406 L 25.45400047302246 -49.40599822998047 L 25.449691772460938 -49.40800094604492 L 25.426000595092773 -49.41899871826172 L 25.404733657836914 -49.428531646728516 L 25.39699935913086 -49.43199920654297 L 25.368000030517578 -49.444000244140625 L 25.349000930786133 -49.45199966430664 L 25.32900047302246 -49.45899963378906 L 25.298999786376953 -49.46900177001953 L 25.259000778198242 -49.48099899291992 L 25.22800064086914 -49.487998962402344 L 25.20800018310547 -49.49300003051758 L 25.194303512573242 -49.495609283447266 L 25.187000274658203 -49.49700164794922 L 25.16699981689453 -49.500999450683594 L 25.125 -49.50699996948242 L 25.104999542236328 -49.50899887084961 L 25.08799934387207 -49.5106201171875 L 25.083999633789062 -49.51100158691406 L 25.062999725341797 -49.51300048828125 L 25.04199981689453 -49.513999938964844 L 25.020999908447266 -49.513999938964844 z" fill="none" stroke="rgb(0,0,255)" stroke-width="0.01mm" />
</svg>