<?xml version="1.0" standalone="no"?>
<!DOCTYPE svg PUBLIC "-//W3C//DTD SVG 1.1//EN"
  "http://www.w3.org/Graphics/SVG/1.1/DTD/svg11.dtd">
<svg width="102mm" height="73.48400115966797mm" viewBox="-51 -36.742000579833984 102 73.48400115966797" xmlns="http://www.w3.org/2000/svg" version="1.1">
	<title>svgOutput</title>
	<desc>made with tinkercad</desc>
<path d="M -35.69529342651367 -31.756616592407227 L -35.701393127441406 -31.743999481201172 L -35.971683502197266 -31.184749603271484 L -36.05398178100586 -31.0054874420166 L -36.055912017822266 -31.001991271972656 L -36.18501281738281 -30.719999313354492 L -36.31768798828125 -30.430200576782227 L -36.31892013549805 -30.427513122558594 L -36.380001068115234 -30.28550148010254 L -36.40127944946289 -30.236085891723633 L -36.401283264160156 -30.236074447631836 L -36.47319793701172 -30.24618148803711 L -36.86399841308594 -30.301111221313477 L -40.959999084472656 -30.876829147338867 L -41.029266357421875 -30.886564254760742 L -41.69721603393555 -30.980445861816406 L -42.4630012512207 -31.08799934387207 L -43.378177642822266 -24.576000213623047 L -44.529457092285156 -16.384000778198242 L -45.457000732421875 -9.784000396728516 L -44.57841873168945 -9.660513877868652 L -44.02326965332031 -9.582564353942871 L -39.40865707397461 -8.933955192565918 L -39.395530700683594 -8.932109832763672 L -39.39545822143555 -8.93159008026123 L -39.379024505615234 -8.81201457977295 L -39.330135345458984 -8.455740928649902 L -39.32933807373047 -8.449925422668457 L -39.28854751586914 -8.192000389099121 L -39.23008346557617 -7.822324275970459 L -39.199337005615234 -7.627688884735107 L -39.164337158203125 -7.433526992797852 L -39.05133819580078 -6.808216094970703 L -38.926124572753906 -6.185959339141846 L -38.917659759521484 -6.144000053405762 L -38.894981384277344 -6.031569957733154 L -38.88710021972656 -5.992506504058838 L -38.85309982299805 -5.841823101043701 L -38.84137725830078 -5.788712978363037 L -38.86089324951172 -5.778336048126221 L -38.88241195678711 -5.7668938636779785 L -40.959999084472656 -4.6622185707092285 L -42.967769622802734 -3.594665050506592 L -43.61378479003906 -3.2511677742004395 L -44.24599838256836 -2.9149999618530273 L -44.245765686035156 -2.9145610332489014 L -42.69612121582031 4.440892164675075e-17 L -34.146793365478516 16.07950782775879 L -34.145999908447266 16.08099937438965 L -33.44599914550781 15.70877742767334 L -32.867530822753906 15.401095390319824 L -32.768001556396484 15.348174095153809 L -30.512489318847656 14.148894309997559 L -28.765562057495117 13.220035552978516 L -28.751935958862305 13.212790489196777 L -28.74091911315918 13.20693302154541 L -28.672000885009766 13.27880573272705 L -28.658145904541016 13.293252944946289 L -28.4046630859375 13.557426452636719 L -27.81618881225586 14.145898818969727 L -27.815425872802734 14.146662712097168 L -27.617870330810547 14.336000442504883 L -27.35655975341797 14.586441993713379 L -27.214189529418945 14.722899436950684 L -27.171344757080078 14.762324333190918 L -27.068981170654297 14.856518745422363 L -26.608901977539062 15.27976131439209 L -26.601716995239258 15.286372184753418 L -26.453510284423828 15.417802810668945 L -26.449426651000977 15.42141342163086 L -26.445478439331055 15.424904823303223 L -26.445484161376953 15.42491626739502 L -26.445486068725586 15.424919128417969 L -26.463825225830078 15.462516784667969 L -26.585872650146484 15.712729454040527 L -26.913339614868164 16.384000778198242 L -28.49431037902832 19.62480354309082 L -28.814987182617188 20.282407760620117 L -29.128999710083008 20.926000595092773 L -29.128812789916992 20.926090240478516 L -29.12577247619629 20.927574157714844 L -16.384000778198242 27.141963958740234 L -9.792001724243164 30.356998443603516 L -9.792001724243164 30.356998443603516 L -9.791999816894531 30.35700035095215 L -9.403078079223633 29.559511184692383 L -9.15731143951416 29.055564880371094 L -8.192000389099121 27.07619285583496 L -7.971471786499023 26.624000549316406 L -7.114843368530273 24.867483139038086 L -7.114442825317383 24.866661071777344 L -7.108569145202637 24.854618072509766 L -6.9894304275512695 24.876148223876953 L -6.630311012268066 24.94133758544922 L -6.6177191734313965 24.94332504272461 L -6.435439586639404 24.972082138061523 L -6.144000053405762 25.01817512512207 L -5.807837963104248 25.071338653564453 L -5.7956414222717285 25.073020935058594 L -5.68820333480835 25.08785057067871 L -5.612493515014648 25.098299026489258 L -5.607980728149414 25.098846435546875 L -5.119999885559082 25.165740966796875 L -5.103264808654785 25.168033599853516 L -4.982601642608643 25.184574127197266 L -4.786783695220947 25.207042694091797 L -4.783023834228516 25.20754051208496 L -4.155364990234375 25.27957534790039 L -4.0960001945495605 25.285306930541992 L -4.09433650970459 25.28546714782715 L -3.9482476711273193 25.29927635192871 L -3.9481799602508545 25.29928207397461 L -3.948127269744873 25.29958152770996 L -3.3533546924591064 28.672000885009766 L -3.175482749938965 29.680551528930664 L -3.0093114376068115 30.62285041809082 L -2.884999990463257 31.327999114990234 L 0 30.81927490234375 L 16.384000778198242 27.93021011352539 L 18.30135154724121 27.59211540222168 L 18.302000045776367 27.591999053955078 L 18.249799728393555 27.29584503173828 L 18.177688598632812 26.886730194091797 L 18.05056381225586 26.166162490844727 L 17.770116806030273 24.576000213623047 L 17.408924102783203 22.527999877929688 L 17.303852081298828 21.932222366333008 L 17.24026870727539 21.57170295715332 L 17.238845825195312 21.563634872436523 L 17.238828659057617 21.56353187561035 L 17.347919464111328 21.51089859008789 L 17.59482765197754 21.391521453857422 L 17.677223205566406 21.351682662963867 L 17.85293960571289 21.262052536010742 L 18.409021377563477 20.978633880615234 L 18.417287826538086 20.97442054748535 L 18.4186954498291 20.973445892333984 L 18.43199920654297 20.9663143157959 L 18.563068389892578 20.896041870117188 L 18.97834587097168 20.673389434814453 L 19.139440536499023 20.587032318115234 L 19.152170181274414 20.580209732055664 L 19.323863983154297 20.483247756958008 L 19.329635620117188 20.479999542236328 L 19.877405166625977 20.171737670898438 L 19.938899993896484 20.135622024536133 L 19.941661834716797 20.134084701538086 L 20.057205200195312 20.06556510925293 L 20.057634353637695 20.065309524536133 L 20.486997604370117 20.479999542236328 L 23.037221908569336 22.94308090209961 L 23.94590950012207 23.820514678955078 L 24.461000442504883 24.31800079345703 L 24.461055755615234 24.317941665649414 L 24.46240234375 24.316547393798828 L 24.576000213623047 24.19891357421875 L 32.12277603149414 16.384000778198242 L 32.768001556396484 15.715849876403809 L 39.40476989746094 8.843273162841797 L 39.405906677246094 8.842095375061035 L 39.40599822998047 8.842000007629395 L 38.89078903198242 8.344514846801758 L 38.7328987121582 8.192000389099121 L 38.36437225341797 7.836019039154053 L 35.01983642578125 4.606500625610352 L 35.01203918457031 4.59896993637085 L 35.01193618774414 4.598871231079102 L 35.00960159301758 4.596619129180908 L 35.001609802246094 4.5888991355896 L 35.05813217163086 4.483659267425537 L 35.230899810791016 4.162330150604248 L 35.2314453125 4.160696506500244 L 35.26444625854492 4.0960001945495605 L 35.32107925415039 3.984980821609497 L 35.323089599609375 3.9815359115600586 L 35.60752868652344 3.4234509468078613 L 35.609683990478516 3.4192233085632324 L 35.69529342651367 3.2416157722473145 L 35.971683502197266 2.6689867973327637 L 36.05398178100586 2.489487409591675 L 36.055912017822266 2.485990524291992 L 36.2567024230957 2.0480000972747803 L 36.31771469116211 1.9149049520492554 L 36.31892013549805 1.912277340888977 L 36.380001068115234 1.7702653408050537 L 36.401283264160156 1.720837950706482 L 36.86399841308594 1.7858750820159912 L 40.959999084472656 2.3615894317626953 L 41.029266357421875 2.3713252544403076 L 41.69721603393555 2.465317726135254 L 42.4630012512207 2.572999954223633 L 42.8245849609375 4.440892164675075e-17 L 45.12703323364258 -16.384000778198242 L 45.45698928833008 -18.731918334960938 L 45.457000732421875 -18.73200035095215 L 44.57841873168945 -18.855485916137695 L 44.02326965332031 -18.933435440063477 L 40.959999084472656 -19.363994598388672 L 39.4061279296875 -19.582401275634766 L 39.395530700683594 -19.58388900756836 L 39.379024505615234 -19.703746795654297 L 39.33097457885742 -20.05318260192871 L 39.32933807373047 -20.065074920654297 L 39.319400787353516 -20.127914428710938 L 39.26371765136719 -20.479999542236328 L 39.23008346557617 -20.692676544189453 L 39.199337005615234 -20.88754653930664 L 39.19336700439453 -20.920669555664062 L 39.164337158203125 -21.081708908081055 L 39.05133819580078 -21.707019805908203 L 38.926124572753906 -22.330039978027344 L 38.88710021972656 -22.523256301879883 L 38.88603210449219 -22.527999877929688 L 38.85309982299805 -22.673938751220703 L 38.84139633178711 -22.727210998535156 L 38.84137725830078 -22.72728729248047 L 38.85418701171875 -22.734098434448242 L 40.959999084472656 -23.85378074645996 L 42.31829071044922 -24.576000213623047 L 42.967769622802734 -24.921335220336914 L 43.61378479003906 -25.26483154296875 L 44.24599838256836 -25.60099983215332 L 40.43528366088867 -32.768001556396484 L 38.854000091552734 -35.742000579833984 L 50 -35.742000579833984 L 50 -32.768001556396484 L 50 -16.384000778198242 L 50 4.440892164675075e-17 L 50 16.384000778198242 L 50 32.768001556396484 L 50 35.742000579833984 L 32.768001556396484 35.742000579833984 L 0 35.742000579833984 L -32.768001556396484 35.742000579833984 L -50 35.742000579833984 L -50 24.511301040649414 L -50 24.50783348083496 L -50 4.440892164675075e-17 L -50 -16.384000778198242 L -50 -32.768001556396484 L -50 -35.742000579833984 L -37.733272552490234 -35.742000579833984 L -37.733001708984375 -35.742000579833984 L -37.418148040771484 -35.43804931640625 L -37.09161376953125 -35.122623443603516 L -36.15160369873047 -34.21525573730469 L -35.01171112060547 -33.114784240722656 L -35.001712799072266 -33.10512924194336 L -35.0015983581543 -33.10502243041992 L -35.0963020324707 -32.92888259887695 L -35.182647705078125 -32.768001556396484 L -35.22261428833008 -32.69353103637695 L -35.230899810791016 -32.6780891418457 L -35.231658935546875 -32.676570892333984 L -35.232421875 -32.674285888671875 L -35.252471923828125 -32.634944915771484 L -35.520050048828125 -32.10993957519531 L -35.609683990478516 -31.934223175048828 L -35.61098861694336 -31.931516647338867 L -35.638206481933594 -31.87504768371582 L -35.69529342651367 -31.756616592407227 z" fill="none" stroke="rgb(0,0,255)" stroke-width="0.01mm" />
</svg>