<?xml version="1.0" standalone="no"?>
<!DOCTYPE svg PUBLIC "-//W3C//DTD SVG 1.1//EN"
  "http://www.w3.org/Graphics/SVG/1.1/DTD/svg11.dtd">
<svg width="102mm" height="94.33999633789062mm" viewBox="-51 -47.16999816894531 102 94.33999633789062" xmlns="http://www.w3.org/2000/svg" version="1.1">
	<title>svgOutput</title>
	<desc>made with tinkercad</desc>
<path d="M 25.288360595703125 27.120630264282227 L 25.34016227722168 27.078739166259766 L 25.458358764648438 26.983154296875 L 25.477954864501953 26.96730613708496 L 25.746135711669922 26.74034309387207 L 25.884021759033203 26.624000549316406 L 26.034423828125 26.497098922729492 L 26.279521942138672 26.284423828125 L 26.56240463256836 26.034873962402344 L 26.624000549316406 25.980493545532227 L 26.745405197143555 25.873306274414062 L 27.004243850708008 25.635351181030273 L 27.281721115112305 25.380395889282227 L 27.286766052246094 25.375621795654297 L 27.515213012695312 25.15945816040039 L 27.537261962890625 25.138593673706055 L 27.809783935546875 24.87733268737793 L 27.965856552124023 24.727855682373047 L 28.117712020874023 24.576000213623047 L 28.554601669311523 24.139108657836914 L 28.5578556060791 24.13585662841797 L 28.672000885009766 24.01667594909668 L 28.707332611083984 23.97978401184082 L 28.968143463134766 23.707712173461914 L 29.206449508666992 23.45586585998535 L 29.209945678710938 23.452171325683594 L 29.465351104736328 23.174243927001953 L 29.703306198120117 22.9154052734375 L 29.8648738861084 22.732404708862305 L 30.04519271850586 22.527999877929688 L 30.114423751831055 22.449522018432617 L 30.327098846435547 22.204973220825195 L 30.570343017578125 21.91713523864746 L 30.719999313354492 21.73993682861328 L 30.797306060791016 21.648405075073242 L 30.95063018798828 21.458810806274414 L 31.188018798828125 21.16556739807129 L 31.29302978515625 21.035995483398438 L 31.3144588470459 21.00955581665039 L 31.32430648803711 20.997406005859375 L 31.473234176635742 20.805063247680664 L 31.484739303588867 20.790245056152344 L 31.70476531982422 20.506864547729492 L 31.725669860839844 20.479999542236328 L 31.837757110595703 20.335954666137695 L 32.04713439941406 20.053485870361328 L 32.27191162109375 19.750783920288086 L 32.28483963012695 19.732803344726562 L 32.5406379699707 19.377090454101562 L 32.75910949707031 19.069433212280273 L 32.768001556396484 19.05653190612793 L 32.943206787109375 18.802350997924805 L 33.1549186706543 18.490638732910156 L 33.1948127746582 18.43199920654297 L 33.29175567626953 18.289505004882812 L 33.29683303833008 18.281694412231445 L 33.483551025390625 17.994396209716797 L 33.6889533996582 17.678180694580078 L 33.861515045166016 17.403406143188477 L 34.060611724853516 17.082685470581055 L 34.244163513183594 16.782630920410156 L 34.43605422973633 16.457855224609375 L 34.47975158691406 16.384000778198242 L 34.61520767211914 16.155054092407227 L 34.62049102783203 16.145702362060547 L 34.735008239746094 15.942928314208984 L 34.816001892089844 15.799272537231445 L 34.920143127441406 15.61454963684082 L 35.026206970214844 15.426054000854492 L 35.128421783447266 15.235360145568848 L 35.306800842285156 14.902928352355957 L 35.37358474731445 14.77799129486084 L 35.42165756225586 14.688054084777832 L 35.58157730102539 14.374811172485352 L 35.60134506225586 14.336000442504883 L 35.75274658203125 14.038774490356445 L 35.8956298828125 13.747513771057129 L 36.059593200683594 13.40787410736084 L 36.16565704345703 13.188603401184082 L 36.16964340209961 13.179916381835938 L 36.31238555908203 12.868765830993652 L 36.4695930480957 12.525973320007324 L 36.57447814941406 12.288000106811523 L 36.58747100830078 12.258522987365723 L 36.60038757324219 12.229216575622559 L 36.749935150146484 11.882820129394531 L 36.846656799316406 11.65915298461914 L 36.86399841308594 11.616657257080078 L 36.97964859008789 11.333270072937012 L 37.122440338134766 10.984170913696289 L 37.13123321533203 10.96182632446289 L 37.24114227294922 10.68246841430664 L 37.376277923583984 10.330216407775879 L 37.410709381103516 10.239999771118164 L 37.46310806274414 10.102703094482422 L 37.48671340942383 10.03735065460205 L 37.536746978759766 9.898819923400879 L 37.66422653198242 9.543865203857422 L 37.73809814453125 9.33849811553955 L 37.74665832519531 9.314702987670898 L 37.82414245605469 9.083891868591309 L 37.94486618041992 8.7266845703125 L 38.046531677246094 8.418387413024902 L 38.117366790771484 8.192000389099121 L 38.15914535522461 8.058477401733398 L 38.26410675048828 7.722702503204346 L 38.32455825805664 7.514973163604736 L 38.429962158203125 7.152810573577881 L 38.48076629638672 6.97869348526001 L 38.49810791015625 6.919252395629883 L 38.553611755371094 6.709873676300049 L 38.650909423828125 6.345459461212158 L 38.705039978027344 6.144000053405762 L 38.714107513427734 6.110252380371094 L 38.79819107055664 5.76898193359375 L 38.88827896118164 5.40276575088501 L 38.9119987487793 5.30003547668457 L 38.961368560791016 5.0862250328063965 L 39.043800354003906 4.718207359313965 L 39.0965576171875 4.480801582336426 L 39.166351318359375 4.135684490203857 L 39.1743278503418 4.0960001945495605 L 39.24067687988281 3.765864849090576 L 39.300575256347656 3.4471261501312256 L 39.367244720458984 3.0759549140930176 L 39.41010665893555 2.8363513946533203 L 39.44417953491211 2.6225764751434326 L 39.50318908691406 2.250054121017456 L 39.53383255004883 2.0480000972747803 L 39.555946350097656 1.9021891355514526 L 39.607295989990234 1.5283153057098389 L 39.65510940551758 1.179900884628296 L 39.683135986328125 0.9375495314598083 L 39.72637939453125 0.5627747774124146 L 39.75778579711914 0.270152896642685 L 39.76100158691406 0.2401891946792603 L 39.78377914428711 4.440892164675075e-17 L 39.79658508300781 -0.1350360363721847 L 39.830108642578125 -0.4850991070270538 L 39.847694396972656 -0.7279999852180481 L 39.87517166137695 -1.1041260957717896 L 39.877811431884766 -1.1440057754516602 L 39.89537811279297 -1.4092739820480347 L 39.896602630615234 -1.427810788154602 L 39.91642379760742 -1.8048378229141235 L 39.92936325073242 -2.0480000972747803 L 39.93465805053711 -2.147538185119629 L 39.93510818481445 -2.1559998989105225 L 39.94280242919922 -2.4000000953674316 L 39.943382263183594 -2.4179739952087402 L 39.95496368408203 -2.777027130126953 L 39.9615592956543 -2.993000030517578 L 39.96236038208008 -3.072000026702881 L 39.9637565612793 -3.2095224857330322 L 39.96736145019531 -3.5865495204925537 L 39.969879150390625 -3.809809684753418 L 39.97010803222656 -3.8299999237060547 L 39.96736145019531 -4.073450565338135 L 39.96714401245117 -4.0960001945495605 L 39.9637565612793 -4.450477600097656 L 39.96156692504883 -4.666237831115723 L 39.9615592956543 -4.666999816894531 L 39.95496368408203 -4.8829731941223145 L 39.943382263183594 -5.242025852203369 L 39.94280242919922 -5.260000228881836 L 39.935367584228516 -5.495197772979736 L 39.93510818481445 -5.503450393676758 L 39.91642379760742 -5.855162143707275 L 39.901222229003906 -6.144000053405762 L 39.896602630615234 -6.231738567352295 L 39.87517166137695 -6.555423259735107 L 39.847694396972656 -6.931549549102783 L 39.830108642578125 -7.174450397491455 L 39.829437255859375 -7.181464672088623 L 39.79658508300781 -7.5245137214660645 L 39.76100158691406 -7.900189399719238 L 39.75738525390625 -7.933883190155029 L 39.72968292236328 -8.192000389099121 L 39.72637939453125 -8.222774505615234 L 39.683135986328125 -8.597549438476562 L 39.65510940551758 -8.839351654052734 L 39.607295989990234 -9.188315391540527 L 39.555946350097656 -9.561738967895508 L 39.50318908691406 -9.909053802490234 L 39.450767517089844 -10.239999771118164 L 39.44417953491211 -10.281576156616211 L 39.41010665893555 -10.495351791381836 L 39.367244720458984 -10.735504150390625 L 39.300575256347656 -11.10667610168457 L 39.27101135253906 -11.263999938964844 L 39.24067687988281 -11.425414085388184 L 39.166351318359375 -11.795234680175781 L 39.0965576171875 -12.139801979064941 L 39.06370162963867 -12.288000106811523 L 39.043800354003906 -12.37775707244873 L 38.961368560791016 -12.74577522277832 L 38.88827896118164 -13.061765670776367 L 38.79819107055664 -13.42843246459961 L 38.72953414916992 -13.707547187805176 L 38.71780776977539 -13.755212783813477 L 38.714107513427734 -13.770252227783203 L 38.650909423828125 -14.005459785461426 L 38.56254577636719 -14.336000442504883 L 38.553611755371094 -14.369423866271973 L 38.49810791015625 -14.578251838684082 L 38.429962158203125 -14.812360763549805 L 38.32455825805664 -15.174522399902344 L 38.26410675048828 -15.38225269317627 L 38.26369857788086 -15.383561134338379 L 38.15914535522461 -15.718027114868164 L 38.046531677246094 -16.07793617248535 L 37.94560241699219 -16.384000778198242 L 37.94486618041992 -16.386234283447266 L 37.82414245605469 -16.743892669677734 L 37.7485466003418 -16.96907615661621 L 37.74665832519531 -16.974702835083008 L 37.66422653198242 -17.20386505126953 L 37.536746978759766 -17.558820724487305 L 37.46310806274414 -17.76215362548828 L 37.376277923583984 -17.989665985107422 L 37.24114227294922 -18.3419189453125 L 37.20576858520508 -18.43199920654297 L 37.13080978393555 -18.622865676879883 L 37.122440338134766 -18.6441707611084 L 36.97964859008789 -18.993270874023438 L 36.86399841308594 -19.276657104492188 L 36.84718704223633 -19.317852020263672 L 36.846656799316406 -19.31915283203125 L 36.749935150146484 -19.54281997680664 L 36.60038757324219 -19.888765335083008 L 36.4695930480957 -20.185522079467773 L 36.334720611572266 -20.479999542236328 L 36.31238555908203 -20.528766632080078 L 36.16691970825195 -20.845848083496094 L 36.16565704345703 -20.848604202270508 L 36.059593200683594 -21.067873001098633 L 35.8956298828125 -21.407062530517578 L 35.75274658203125 -21.69832420349121 L 35.58157730102539 -22.03481101989746 L 35.42165756225586 -22.348054885864258 L 35.325469970703125 -22.527999877929688 L 35.306800842285156 -22.56292724609375 L 35.128421783447266 -22.89491081237793 L 35.026206970214844 -23.085603713989258 L 34.920143127441406 -23.273550033569336 L 34.816001892089844 -23.458526611328125 L 34.735008239746094 -23.602378845214844 L 34.62019729614258 -23.806198120117188 L 34.61520767211914 -23.815053939819336 L 34.43605422973633 -24.117855072021484 L 34.244163513183594 -24.442630767822266 L 34.16257858276367 -24.576000213623047 L 34.060611724853516 -24.742685317993164 L 33.861515045166016 -25.062955856323242 L 33.6889533996582 -25.337181091308594 L 33.483551025390625 -25.653846740722656 L 33.29175567626953 -25.948955535888672 L 33.1549186706543 -26.1506404876709 L 33.1450080871582 -26.16522979736328 L 32.943206787109375 -26.462350845336914 L 32.831783294677734 -26.624000549316406 L 32.768001556396484 -26.71653175354004 L 32.75910949707031 -26.729433059692383 L 32.5406379699707 -27.037090301513672 L 32.27191162109375 -27.410783767700195 L 32.04713439941406 -27.713485717773438 L 31.837757110595703 -27.995954513549805 L 31.829635620117188 -28.006391525268555 L 31.70476531982422 -28.1668643951416 L 31.48457908630371 -28.450023651123047 L 31.473234176635742 -28.46461296081543 L 31.327756881713867 -28.652498245239258 L 31.32430648803711 -28.65695571899414 L 31.31211280822754 -28.672000885009766 L 31.188018798828125 -28.825117111206055 L 30.95063018798828 -29.11836051940918 L 30.797306060791016 -29.307405471801758 L 30.719999313354492 -29.398937225341797 L 30.570343017578125 -29.576135635375977 L 30.327098846435547 -29.864423751831055 L 30.318115234375 -29.87477684020996 L 30.114423751831055 -30.109521865844727 L 29.8648738861084 -30.392404556274414 L 29.703306198120117 -30.57485580444336 L 29.570154190063477 -30.719999313354492 L 29.465351104736328 -30.834243774414062 L 29.209945678710938 -31.11172103881836 L 28.968143463134766 -31.36671257019043 L 28.707332611083984 -31.63923454284668 L 28.672000885009766 -31.67625617980957 L 28.5578556060791 -31.795856475830078 L 28.548587799072266 -31.80510902404785 L 28.23252296447754 -32.12063980102539 L 27.965856552124023 -32.387306213378906 L 27.809783935546875 -32.53733444213867 L 27.56875991821289 -32.768001556396484 L 27.537261962890625 -32.79814529418945 L 27.281721115112305 -33.039947509765625 L 27.004243850708008 -33.295352935791016 L 26.745405197143555 -33.53330612182617 L 26.624000549316406 -33.64012908935547 L 26.56240463256836 -33.6943244934082 L 26.279521942138672 -33.94387435913086 L 26.214372634887695 -34.00054931640625 L 26.034423828125 -34.157100677490234 L 25.746135711669922 -34.40034103393555 L 25.477954864501953 -34.6273078918457 L 25.458358764648438 -34.64315414428711 L 25.288360595703125 -34.78063201904297 L 25.244735717773438 -34.816001892089844 L 24.995567321777344 -35.01801681518555 L 24.83086395263672 -35.15150451660156 L 24.82740592956543 -35.15430450439453 L 24.63506317138672 -35.3032341003418 L 24.576000213623047 -35.349002838134766 L 24.336864471435547 -35.53431701660156 L 24.189178466796875 -35.649234771728516 L 24.16595458984375 -35.66730499267578 L 23.883485794067383 -35.876686096191406 L 23.58078384399414 -36.10190963745117 L 23.207090377807617 -36.37009048461914 L 22.899433135986328 -36.588558197021484 L 22.63235092163086 -36.77320861816406 L 22.498674392700195 -36.86399841308594 L 22.320640563964844 -36.984920501708984 L 22.12220573425293 -37.11955261230469 L 22.118955612182617 -37.12175750732422 L 21.82439613342285 -37.3129997253418 L 21.508180618286133 -37.51840591430664 L 21.23340606689453 -37.69151306152344 L 20.916893005371094 -37.88800048828125 L 20.91268539428711 -37.8906135559082 L 20.62566566467285 -38.06618881225586 L 20.61263084411621 -38.074161529541016 L 20.479999542236328 -38.15252685546875 L 20.28785514831543 -38.26605224609375 L 19.98505401611328 -38.44520568847656 L 19.77292823791504 -38.56446075439453 L 19.444549560546875 -38.749595642089844 L 19.256053924560547 -38.85620880126953 L 19.211181640625 -38.8802604675293 L 19.151968002319336 -38.9119987487793 L 19.06536102294922 -38.95842361450195 L 18.732927322387695 -39.1363525390625 L 18.518054962158203 -39.25120544433594 L 18.43199920654297 -39.29513931274414 L 18.204811096191406 -39.41112518310547 L 17.8687744140625 -39.58274841308594 L 17.865449905395508 -39.584381103515625 L 17.624603271484375 -39.70252990722656 L 17.577512741088867 -39.72563171386719 L 17.237873077392578 -39.88959503173828 L 17.018604278564453 -39.99565887451172 L 16.698766708374023 -40.14238739013672 L 16.384000778198242 -40.28655242919922 L 16.35552215576172 -40.29959487915039 L 16.058765411376953 -40.43038558959961 L 15.712820053100586 -40.57993698120117 L 15.489152908325195 -40.676658630371094 L 15.487852096557617 -40.677188873291016 L 15.163269996643066 -40.80965042114258 L 14.814170837402344 -40.95244216918945 L 14.795120239257812 -40.95988845825195 L 14.794835090637207 -40.959999084472656 L 14.592597961425781 -41.03905487060547 L 14.511919021606445 -41.070594787597656 L 14.336000442504883 -41.138084411621094 L 14.159667015075684 -41.20573043823242 L 13.932703018188477 -41.29310989379883 L 13.728819847106934 -41.36674880981445 L 13.686302185058594 -41.38201904296875 L 13.373865127563477 -41.494224548339844 L 13.144702911376953 -41.576656341552734 L 13.13907527923584 -41.578548431396484 L 12.913891792297363 -41.654144287109375 L 12.556684494018555 -41.7744140625 L 12.497702598571777 -41.79386520385742 L 12.288000106811523 -41.86301803588867 L 12.248387336730957 -41.87607955932617 L 11.888477325439453 -41.98914337158203 L 11.552702903747559 -42.09410858154297 L 11.344972610473633 -42.15456008911133 L 11 -42.25453186035156 L 10.982810974121094 -42.25951385498047 L 10.754351615905762 -42.32563400268555 L 10.749252319335938 -42.32710647583008 L 10.539874076843262 -42.38316345214844 L 10.239999771118164 -42.46359634399414 L 10.175459861755371 -42.48091125488281 L 9.940252304077148 -42.54410934448242 L 9.93539810180664 -42.54530334472656 L 9.598432540893555 -42.62818908691406 L 9.232215881347656 -42.71828079223633 L 8.91622543334961 -42.7913703918457 L 8.547757148742676 -42.87335205078125 L 8.314009666442871 -42.925296783447266 L 8.310351371765137 -42.926109313964844 L 8.192000389099121 -42.950042724609375 L 7.965234279632568 -42.99589920043945 L 7.905467510223389 -43.007999420166016 L 7.595864772796631 -43.070674896240234 L 7.371871471405029 -43.11238479614258 L 7.277126312255859 -43.130027770996094 L 6.9055047035217285 -43.196693420410156 L 6.665351390838623 -43.240108489990234 L 6.4521260261535645 -43.27363204956055 L 6.144000053405762 -43.32243728637695 L 6.079603672027588 -43.332637786865234 L 5.731738567352295 -43.38594436645508 L 5.358315467834473 -43.43729782104492 L 5.00990104675293 -43.48455810546875 L 4.767549514770508 -43.5125846862793 L 4.39277458190918 -43.55582809448242 L 4.0960001945495605 -43.58818435668945 L 4.070188999176025 -43.590999603271484 L 3.6949639320373535 -43.6265869140625 L 3.3449008464813232 -43.6595573425293 L 3.1019999980926514 -43.67769241333008 L 2.7254233360290527 -43.705169677734375 L 2.4017386436462402 -43.72660446166992 L 2.0480000972747803 -43.74522018432617 L 2.0251622200012207 -43.746421813964844 L 1.6734504699707031 -43.764556884765625 L 1.4299999475479126 -43.77225112915039 L 1.0529730319976807 -43.78396224975586 L 0.8370000123977661 -43.791107177734375 L 0.8161829710006714 -43.79132080078125 L 0.6204774975776672 -43.793304443359375 L 0.24345044791698456 -43.797359466552734 L 6.443745276946133e-13 -43.80010986328125 L -0.24345044791698456 -43.797359466552734 L -0.6204774975776672 -43.793304443359375 L -0.8161829710006714 -43.79132080078125 L -0.8316178321838379 -43.79116439819336 L -0.8370000123977661 -43.791107177734375 L -0.9152087569236755 -43.78852081298828 L -1.0529730319976807 -43.78396224975586 L -1.4299999475479126 -43.77225112915039 L -1.6734504699707031 -43.764556884765625 L -2.0251622200012207 -43.746421813964844 L -2.0480000972747803 -43.74522018432617 L -2.4017386436462402 -43.72660446166992 L -2.7254233360290527 -43.705169677734375 L -3.1019999980926514 -43.67769241333008 L -3.3449008464813232 -43.6595573425293 L -3.6949639320373535 -43.6265869140625 L -4.070188999176025 -43.590999603271484 L -4.0960001945495605 -43.58818435668945 L -4.39277458190918 -43.55582809448242 L -4.767549514770508 -43.5125846862793 L -5.00990104675293 -43.48455810546875 L -5.358315467834473 -43.43729782104492 L -5.731738567352295 -43.38594436645508 L -6.079603672027588 -43.332637786865234 L -6.144000053405762 -43.32243728637695 L -6.4521260261535645 -43.27363204956055 L -6.665351390838623 -43.240108489990234 L -7.036972999572754 -43.17344284057617 L -7.48980188369751 -43.09210968017578 L -7.905782222747803 -43.007999420166016 L -7.940981864929199 -43.00088119506836 L -8.192000389099121 -42.95006561279297 L -8.310351371765137 -42.926109313964844 L -8.547757148742676 -42.87335205078125 L -8.91622543334961 -42.7913703918457 L -9.232215881347656 -42.71828079223633 L -9.598432540893555 -42.62818908691406 L -9.940252304077148 -42.54410934448242 L -9.940580368041992 -42.54402160644531 L -10.175459861755371 -42.48091125488281 L -10.239999771118164 -42.46359634399414 L -10.539874076843262 -42.38316345214844 L -10.749252319335938 -42.32710647583008 L -10.767181396484375 -42.32191848754883 L -10.982810974121094 -42.25951385498047 L -11 -42.25453186035156 L -11.344972610473633 -42.15456008911133 L -11.552702903747559 -42.09410858154297 L -11.888477325439453 -41.98914337158203 L -12.248387336730957 -41.87607955932617 L -12.288000106811523 -41.86301803588867 L -12.497702598571777 -41.79386520385742 L -12.556684494018555 -41.7744140625 L -12.913891792297363 -41.654144287109375 L -13.144702911376953 -41.576656341552734 L -13.373865127563477 -41.494224548339844 L -13.686302185058594 -41.38201904296875 L -13.728819847106934 -41.36674880981445 L -13.932703018188477 -41.29310989379883 L -14.159667015075684 -41.20573043823242 L -14.336000442504883 -41.138084411621094 L -14.511919021606445 -41.070594787597656 L -14.592597961425781 -41.03905487060547 L -14.794835090637207 -40.959999084472656 L -14.795120239257812 -40.95988845825195 L -14.814170837402344 -40.95244216918945 L -15.163269996643066 -40.80965042114258 L -15.489152908325195 -40.676658630371094 L -15.712820053100586 -40.57993698120117 L -16.058765411376953 -40.43038558959961 L -16.064626693725586 -40.42780303955078 L -16.35552215576172 -40.29959487915039 L -16.384000778198242 -40.28655242919922 L -16.698766708374023 -40.14238739013672 L -17.009916305541992 -39.99964141845703 L -17.018604278564453 -39.99565887451172 L -17.237873077392578 -39.88959503173828 L -17.577512741088867 -39.72563171386719 L -17.8687744140625 -39.58274841308594 L -18.204811096191406 -39.41112518310547 L -18.43199920654297 -39.29513931274414 L -18.518054962158203 -39.25120544433594 L -18.520652770996094 -39.24981689453125 L -18.732927322387695 -39.1363525390625 L -19.06536102294922 -38.95842361450195 L -19.151968002319336 -38.9119987487793 L -19.24375343322754 -38.86280059814453 L -19.256053924560547 -38.85620880126953 L -19.444549560546875 -38.749595642089844 L -19.77292823791504 -38.56446075439453 L -19.98505401611328 -38.44520568847656 L -19.9973087310791 -38.437957763671875 L -20.28785514831543 -38.26605224609375 L -20.479999542236328 -38.15252685546875 L -20.61263084411621 -38.074161529541016 L -20.91268539428711 -37.8906135559082 L -20.916893005371094 -37.88800048828125 L -21.23340606689453 -37.69151306152344 L -21.508180618286133 -37.51840591430664 L -21.82439613342285 -37.3129997253418 L -22.118955612182617 -37.12175750732422 L -22.12220573425293 -37.11955261230469 L -22.320640563964844 -36.984920501708984 L -22.498674392700195 -36.86399841308594 L -22.63235092163086 -36.77320861816406 L -22.899433135986328 -36.588558197021484 L -23.207090377807617 -36.37009048461914 L -23.544836044311523 -36.127708435058594 L -23.58078384399414 -36.10190963745117 L -23.883485794067383 -35.876686096191406 L -24.16595458984375 -35.66730499267578 L -24.336864471435547 -35.53431701660156 L -24.576000213623047 -35.349002838134766 L -24.63506317138672 -35.3032341003418 L -24.82740592956543 -35.15430450439453 L -24.83086395263672 -35.15150451660156 L -24.995567321777344 -35.01801681518555 L -25.244735717773438 -34.816001892089844 L -25.288360595703125 -34.78063201904297 L -25.477954864501953 -34.6273078918457 L -25.489015579223633 -34.61794662475586 L -25.746135711669922 -34.40034103393555 L -26.034423828125 -34.157100677490234 L -26.065654754638672 -34.12992858886719 L -26.214372634887695 -34.00054931640625 L -26.279521942138672 -33.94387435913086 L -26.56240463256836 -33.6943244934082 L -26.624000549316406 -33.64012908935547 L -26.745405197143555 -33.53330612182617 L -27.004243850708008 -33.295352935791016 L -27.281721115112305 -33.039947509765625 L -27.537261962890625 -32.79814529418945 L -27.56875991821289 -32.768001556396484 L -27.809783935546875 -32.53733444213867 L -27.965856552124023 -32.387306213378906 L -28.23252296447754 -32.12063980102539 L -28.5578556060791 -31.795856475830078 L -28.569355010986328 -31.7838077545166 L -28.672000885009766 -31.67625617980957 L -28.707332611083984 -31.63923454284668 L -28.968143463134766 -31.36671257019043 L -29.079753875732422 -31.249013900756836 L -29.209945678710938 -31.11172103881836 L -29.465351104736328 -30.834243774414062 L -29.570154190063477 -30.719999313354492 L -29.703306198120117 -30.57485580444336 L -29.8648738861084 -30.392404556274414 L -30.114423751831055 -30.109521865844727 L -30.318115234375 -29.87477684020996 L -30.327098846435547 -29.864423751831055 L -30.570343017578125 -29.576135635375977 L -30.719999313354492 -29.398937225341797 L -30.797306060791016 -29.307405471801758 L -30.95063018798828 -29.11836051940918 L -31.188018798828125 -28.825117111206055 L -31.31211280822754 -28.672000885009766 L -31.32430648803711 -28.65695571899414 L -31.473234176635742 -28.46461296081543 L -31.48457908630371 -28.450023651123047 L -31.70476531982422 -28.1668643951416 L -31.837757110595703 -27.995954513549805 L -31.83958625793457 -27.993486404418945 L -32.04713439941406 -27.713485717773438 L -32.27191162109375 -27.410783767700195 L -32.28483963012695 -27.392803192138672 L -32.5406379699707 -27.037090301513672 L -32.75910949707031 -26.729433059692383 L -32.768001556396484 -26.71653175354004 L -32.831783294677734 -26.624000549316406 L -32.943206787109375 -26.462350845336914 L -33.1450080871582 -26.16522979736328 L -33.1549186706543 -26.1506404876709 L -33.29175567626953 -25.948955535888672 L -33.483551025390625 -25.653846740722656 L -33.6889533996582 -25.337181091308594 L -33.861515045166016 -25.062955856323242 L -34.060611724853516 -24.742685317993164 L -34.16257858276367 -24.576000213623047 L -34.23618698120117 -24.455665588378906 L -34.244163513183594 -24.442630767822266 L -34.43605422973633 -24.117855072021484 L -34.61520767211914 -23.815053939819336 L -34.735008239746094 -23.602378845214844 L -34.816001892089844 -23.458526611328125 L -34.920143127441406 -23.273550033569336 L -35.026206970214844 -23.085603713989258 L -35.03111267089844 -23.07645606994629 L -35.128421783447266 -22.89491081237793 L -35.306800842285156 -22.56292724609375 L -35.325469970703125 -22.527999877929688 L -35.42165756225586 -22.348054885864258 L -35.58157730102539 -22.03481101989746 L -35.75274658203125 -21.69832420349121 L -35.8956298828125 -21.407062530517578 L -36.059593200683594 -21.067873001098633 L -36.16565704345703 -20.848604202270508 L -36.16691970825195 -20.845848083496094 L -36.31238555908203 -20.528766632080078 L -36.334720611572266 -20.479999542236328 L -36.4695930480957 -20.185522079467773 L -36.60038757324219 -19.888765335083008 L -36.749935150146484 -19.54281997680664 L -36.846656799316406 -19.31915283203125 L -36.84718704223633 -19.317852020263672 L -36.86399841308594 -19.276657104492188 L -36.97964859008789 -18.993270874023438 L -37.122440338134766 -18.6441707611084 L -37.13080978393555 -18.622865676879883 L -37.20576858520508 -18.43199920654297 L -37.24114227294922 -18.3419189453125 L -37.376277923583984 -17.989665985107422 L -37.46310806274414 -17.76215362548828 L -37.506568908691406 -17.642152786254883 L -37.536746978759766 -17.558820724487305 L -37.66422653198242 -17.20386505126953 L -37.74665832519531 -16.974702835083008 L -37.82414245605469 -16.743892669677734 L -37.94486618041992 -16.386234283447266 L -37.94560241699219 -16.384000778198242 L -38.046531677246094 -16.07793617248535 L -38.15914535522461 -15.718027114868164 L -38.26410675048828 -15.38225269317627 L -38.32455825805664 -15.174522399902344 L -38.429962158203125 -14.812360763549805 L -38.49810791015625 -14.578251838684082 L -38.49819564819336 -14.577927589416504 L -38.498443603515625 -14.576992988586426 L -38.553611755371094 -14.369423866271973 L -38.56254577636719 -14.336000442504883 L -38.650909423828125 -14.005459785461426 L -38.714107513427734 -13.770252227783203 L -38.79819107055664 -13.42843246459961 L -38.88827896118164 -13.061765670776367 L -38.961368560791016 -12.74577522277832 L -39.043800354003906 -12.37775707244873 L -39.06370162963867 -12.288000106811523 L -39.0965576171875 -12.139801979064941 L -39.166351318359375 -11.795234680175781 L -39.24067687988281 -11.425414085388184 L -39.27101135253906 -11.263999938964844 L -39.300575256347656 -11.10667610168457 L -39.367244720458984 -10.735504150390625 L -39.41010665893555 -10.495351791381836 L -39.44417953491211 -10.281576156616211 L -39.450767517089844 -10.239999771118164 L -39.50318908691406 -9.909053802490234 L -39.555946350097656 -9.561738967895508 L -39.607295989990234 -9.188315391540527 L -39.65510940551758 -8.839351654052734 L -39.683135986328125 -8.597549438476562 L -39.72637939453125 -8.222774505615234 L -39.72968292236328 -8.192000389099121 L -39.75738525390625 -7.933883190155029 L -39.76100158691406 -7.900189399719238 L -39.79658508300781 -7.5245137214660645 L -39.830108642578125 -7.174450397491455 L -39.847694396972656 -6.931549549102783 L -39.87517166137695 -6.555423259735107 L -39.877811431884766 -6.5155439376831055 L -39.896602630615234 -6.231738567352295 L -39.901222229003906 -6.144000053405762 L -39.91642379760742 -5.855162143707275 L -39.93510818481445 -5.503450393676758 L -39.94280242919922 -5.260000228881836 L -39.943382263183594 -5.242025852203369 L -39.95496368408203 -4.8829731941223145 L -39.9615592956543 -4.666999816894531 L -39.96156692504883 -4.666237831115723 L -39.9637565612793 -4.450477600097656 L -39.96714401245117 -4.0960001945495605 L -39.96736145019531 -4.073450565338135 L -39.97010803222656 -3.8299999237060547 L -39.96958923339844 -3.784083366394043 L -39.96736145019531 -3.5865495204925537 L -39.9637565612793 -3.2095224857330322 L -39.96236038208008 -3.072000026702881 L -39.9615592956543 -2.993000030517578 L -39.95496368408203 -2.777027130126953 L -39.943382263183594 -2.4179739952087402 L -39.94280242919922 -2.4000000953674316 L -39.93510818481445 -2.1559998989105225 L -39.93465805053711 -2.147538185119629 L -39.92936325073242 -2.0480000972747803 L -39.91642379760742 -1.8048378229141235 L -39.896602630615234 -1.427810788154602 L -39.89537811279297 -1.4092739820480347 L -39.87517166137695 -1.1041260957717896 L -39.847694396972656 -0.7279999852180481 L -39.830108642578125 -0.4850991070270538 L -39.829437255859375 -0.4780850708484649 L -39.79658508300781 -0.1350360363721847 L -39.78377914428711 4.440892164675075e-17 L -39.76100158691406 0.2401891946792603 L -39.75778579711914 0.270152896642685 L -39.72637939453125 0.5627747774124146 L -39.683135986328125 0.9375495314598083 L -39.65510940551758 1.179900884628296 L -39.607295989990234 1.5283153057098389 L -39.555946350097656 1.9021891355514526 L -39.53383255004883 2.0480000972747803 L -39.50318908691406 2.250054121017456 L -39.44417953491211 2.6225764751434326 L -39.41010665893555 2.8363513946533203 L -39.367244720458984 3.0759549140930176 L -39.300575256347656 3.4471261501312256 L -39.24067687988281 3.765864849090576 L -39.1743278503418 4.0960001945495605 L -39.166351318359375 4.135684490203857 L -39.0965576171875 4.480801582336426 L -39.043800354003906 4.718207359313965 L -38.961368560791016 5.0862250328063965 L -38.9119987487793 5.30003547668457 L -38.88827896118164 5.40276575088501 L -38.79819107055664 5.76898193359375 L -38.714107513427734 6.110252380371094 L -38.705039978027344 6.144000053405762 L -38.650909423828125 6.345459461212158 L -38.553611755371094 6.709873676300049 L -38.49982452392578 6.912773609161377 L -38.49810791015625 6.919252395629883 L -38.48076629638672 6.97869348526001 L -38.429962158203125 7.152810573577881 L -38.32455825805664 7.514973163604736 L -38.26410675048828 7.722702503204346 L -38.26398849487305 7.723083019256592 L -38.15914535522461 8.058477401733398 L -38.117366790771484 8.192000389099121 L -38.046531677246094 8.418387413024902 L -37.989295959472656 8.59194564819336 L -37.94486618041992 8.7266845703125 L -37.82414245605469 9.083891868591309 L -37.74665832519531 9.314702987670898 L -37.66422653198242 9.543865203857422 L -37.536746978759766 9.898819923400879 L -37.48671340942383 10.03735065460205 L -37.46310806274414 10.102703094482422 L -37.410709381103516 10.239999771118164 L -37.376277923583984 10.330216407775879 L -37.24114227294922 10.68246841430664 L -37.122440338134766 10.984170913696289 L -36.97964859008789 11.333270072937012 L -36.86399841308594 11.616657257080078 L -36.846656799316406 11.65915298461914 L -36.84101104736328 11.672213554382324 L -36.749935150146484 11.882820129394531 L -36.60038757324219 12.229216575622559 L -36.58747100830078 12.258522987365723 L -36.57447814941406 12.288000106811523 L -36.4695930480957 12.525973320007324 L -36.31238555908203 12.868765830993652 L -36.16565704345703 13.188603401184082 L -36.059593200683594 13.40787410736084 L -35.8956298828125 13.747513771057129 L -35.87253189086914 13.794602394104004 L -35.75274658203125 14.038774490356445 L -35.60134506225586 14.336000442504883 L -35.58157730102539 14.374811172485352 L -35.42165756225586 14.688054084777832 L -35.306800842285156 14.902928352355957 L -35.128421783447266 15.235360145568848 L -35.026206970214844 15.426054000854492 L -35.023895263671875 15.430163383483887 L -34.920143127441406 15.61454963684082 L -34.816001892089844 15.799272537231445 L -34.735008239746094 15.942928314208984 L -34.62049102783203 16.145702362060547 L -34.61520767211914 16.155054092407227 L -34.47975158691406 16.384000778198242 L -34.43605422973633 16.457855224609375 L -34.244163513183594 16.782630920410156 L -34.060611724853516 17.082685470581055 L -33.861515045166016 17.403406143188477 L -33.6889533996582 17.678180694580078 L -33.483551025390625 17.994396209716797 L -33.29175567626953 18.289505004882812 L -33.1948127746582 18.43199920654297 L -33.1549186706543 18.490638732910156 L -32.943206787109375 18.802350997924805 L -32.915977478027344 18.841856002807617 L -32.768001556396484 19.05653190612793 L -32.75910949707031 19.069433212280273 L -32.5406379699707 19.377090454101562 L -32.27191162109375 19.750783920288086 L -32.04713439941406 20.053485870361328 L -31.837757110595703 20.335954666137695 L -31.829635620117188 20.346391677856445 L -31.725669860839844 20.479999542236328 L -31.70476531982422 20.506864547729492 L -31.473234176635742 20.805063247680664 L -31.32430648803711 20.997406005859375 L -31.29302978515625 21.035995483398438 L -31.188018798828125 21.16556739807129 L -30.95063018798828 21.458810806274414 L -30.797306060791016 21.648405075073242 L -30.79352378845215 21.652883529663086 L -30.78226089477539 21.666217803955078 L -30.719999313354492 21.73993682861328 L -30.570343017578125 21.91713523864746 L -30.327098846435547 22.204973220825195 L -30.114423751831055 22.449522018432617 L -30.04519271850586 22.527999877929688 L -29.8648738861084 22.732404708862305 L -29.7055721282959 22.912837982177734 L -29.703306198120117 22.9154052734375 L -29.465351104736328 23.174243927001953 L -29.209945678710938 23.452171325683594 L -28.987442016601562 23.68731689453125 L -28.968143463134766 23.707712173461914 L -28.707332611083984 23.97978401184082 L -28.672000885009766 24.01667594909668 L -28.5578556060791 24.13585662841797 L -28.117712020874023 24.576000213623047 L -27.96937370300293 24.72433853149414 L -27.965856552124023 24.727855682373047 L -27.809783935546875 24.87733268737793 L -27.537261962890625 25.138593673706055 L -27.281721115112305 25.380395889282227 L -27.004243850708008 25.635351181030273 L -26.745405197143555 25.873306274414062 L -26.74188232421875 25.87641716003418 L -26.624000549316406 25.980493545532227 L -26.56240463256836 26.034873962402344 L -26.279521942138672 26.284423828125 L -26.068927764892578 26.467159271240234 L -26.034423828125 26.497098922729492 L -25.884021759033203 26.624000549316406 L -25.746135711669922 26.74034309387207 L -25.489015579223633 26.957944869995117 L -25.477954864501953 26.96730613708496 L -25.288360595703125 27.120630264282227 L -24.995567321777344 27.35801887512207 L -24.82740592956543 27.494306564331055 L -24.63506317138672 27.643783569335938 L -24.576000213623047 27.68964195251465 L -24.336864471435547 27.875314712524414 L -24.16595458984375 28.00775718688965 L -23.883485794067383 28.217683792114258 L -23.58078384399414 28.442459106445312 L -23.26093292236328 28.672000885009766 L -23.207090377807617 28.71063995361328 L -22.899433135986328 28.929107666015625 L -22.63235092163086 29.11320686340332 L -22.527999877929688 29.184232711791992 L -22.320640563964844 29.325368881225586 L -22.118955612182617 29.462207794189453 L -21.82439613342285 29.65399932861328 L -21.75973892211914 29.695999145507812 L -21.508180618286133 29.859405517578125 L -21.23340606689453 30.031963348388672 L -20.91268539428711 30.23061180114746 L -20.62566566467285 30.40618896484375 L -20.61263084411621 30.414161682128906 L -20.479999542236328 30.49252700805664 L -20.28785514831543 30.606054306030273 L -20.095266342163086 30.719999313354492 L -19.98505401611328 30.785207748413086 L -19.77292823791504 30.90500831604004 L -19.444549560546875 31.09014320373535 L -19.260162353515625 31.19389533996582 L -19.256053924560547 31.19620704650879 L -19.06536102294922 31.298423767089844 L -18.732927322387695 31.4768009185791 L -18.518054962158203 31.591657638549805 L -18.43199920654297 31.635589599609375 L -18.204811096191406 31.751577377319336 L -17.8687744140625 31.922748565673828 L -17.61444091796875 32.047996520996094 L -17.577512741088867 32.06618118286133 L -17.237873077392578 32.23014450073242 L -17.018604278564453 32.33620834350586 L -16.698766708374023 32.48238754272461 L -16.384000778198242 32.62655258178711 L -16.35552215576172 32.63959503173828 L -16.06418228149414 32.768001556396484 L -16.058765411376953 32.7703857421875 L -15.712820053100586 32.91993713378906 L -15.502213478088379 33.011009216308594 L -15.489152908325195 33.016658782958984 L -15.163269996643066 33.1496467590332 L -14.814170837402344 33.292442321777344 L -14.511919021606445 33.4111442565918 L -14.336000442504883 33.478633880615234 L -14.159667015075684 33.54627990722656 L -13.932703018188477 33.63310623168945 L -13.728819847106934 33.706748962402344 L -13.686334609985352 33.72206115722656 L -13.373865127563477 33.83467483520508 L -13.144702911376953 33.91710662841797 L -12.913891792297363 33.99459457397461 L -12.556684494018555 34.114864349365234 L -12.497702598571777 34.134315490722656 L -12.288000106811523 34.203468322753906 L -12.248387336730957 34.216529846191406 L -11.888477325439453 34.32914352416992 L -11.553083419799805 34.433990478515625 L -11.552702903747559 34.43410873413086 L -11.344972610473633 34.49456024169922 L -10.982810974121094 34.5999641418457 L -10.749252319335938 34.66810989379883 L -10.742044448852539 34.67003631591797 L -10.539874076843262 34.72416305541992 L -10.195907592773438 34.816001892089844 L -10.175459861755371 34.82146072387695 L -9.940252304077148 34.88410949707031 L -9.598432540893555 34.96818923950195 L -9.232215881347656 35.05828094482422 L -9.231673240661621 35.05840301513672 L -8.960908889770508 35.12103271484375 L -8.91622543334961 35.131370544433594 L -8.547757148742676 35.213802337646484 L -8.310351371765137 35.26710891723633 L -8.192000389099121 35.290855407714844 L -7.965234279632568 35.33634948730469 L -7.595864772796631 35.410675048828125 L -7.5789289474487305 35.41386032104492 L -7.277126312255859 35.470577239990234 L -6.9055047035217285 35.53769302368164 L -6.665351390838623 35.58055877685547 L -6.4521260261535645 35.61463165283203 L -6.144000053405762 35.6634407043457 L -6.079603672027588 35.673641204833984 L -5.755414009094238 35.72280502319336 L -5.731738567352295 35.72639465332031 L -5.358315467834473 35.77729797363281 L -5.00990104675293 35.82510757446289 L -4.767549514770508 35.85313415527344 L -4.39277458190918 35.89637756347656 L -4.0960001945495605 35.92823028564453 L -4.070188999176025 35.930999755859375 L -3.6949639320373535 35.96658706665039 L -3.3647444248199463 35.998207092285156 L -3.3449008464813232 36.00010681152344 L -3.1019999980926514 36.01769256591797 L -2.7254233360290527 36.04561996459961 L -2.4017386436462402 36.067054748535156 L -2.0480000972747803 36.08524703979492 L -2.0251622200012207 36.086421966552734 L -1.6734504699707031 36.105106353759766 L -1.6434873342514038 36.106056213378906 L -1.4299999475479126 36.11280059814453 L -1.0529730319976807 36.12496566772461 L -0.8836239576339722 36.13013458251953 L -0.8370000123977661 36.13155746459961 L -0.6204774975776672 36.133758544921875 L -0.24345044791698456 36.137359619140625 L 0 36.140106201171875 L 0.24345044791698456 36.137359619140625 L 0.6204774975776672 36.133758544921875 L 0.8370000123977661 36.13155746459961 L 0.8836239576339722 36.13013458251953 L 1.0529730319976807 36.12496566772461 L 1.4299999475479126 36.11280059814453 L 1.6734504699707031 36.105106353759766 L 2.0251622200012207 36.086421966552734 L 2.0480000972747803 36.08524703979492 L 2.4017386436462402 36.067054748535156 L 2.4503493309020996 36.06383514404297 L 2.617979049682617 36.052734375 L 2.7254233360290527 36.04561996459961 L 3.1019999980926514 36.01769256591797 L 3.3449008464813232 36.00010681152344 L 3.6949639320373535 35.96658706665039 L 4.070188999176025 35.930999755859375 L 4.0960001945495605 35.92823028564453 L 4.39277458190918 35.89637756347656 L 4.767549514770508 35.85313415527344 L 5.00990104675293 35.82510757446289 L 5.358315467834473 35.77729797363281 L 5.731738567352295 35.72639465332031 L 5.755414009094238 35.72280502319336 L 6.079603672027588 35.673641204833984 L 6.144000053405762 35.6634407043457 L 6.4521260261535645 35.61463165283203 L 6.665351390838623 35.58055877685547 L 6.9055047035217285 35.53769302368164 L 7.277126312255859 35.470577239990234 L 7.5789289474487305 35.41386032104492 L 7.595864772796631 35.410675048828125 L 7.965234279632568 35.33634948730469 L 8.192000389099121 35.290855407714844 L 8.310351371765137 35.26710891723633 L 8.547757148742676 35.213802337646484 L 8.91622543334961 35.131370544433594 L 8.960908889770508 35.12103271484375 L 9.231673240661621 35.05840301513672 L 9.232215881347656 35.05828094482422 L 9.598432540893555 34.96818923950195 L 9.940252304077148 34.88410949707031 L 10.175459861755371 34.82146072387695 L 10.195907592773438 34.816001892089844 L 10.539874076843262 34.72416305541992 L 10.741022109985352 34.670310974121094 L 10.742044448852539 34.67003631591797 L 10.749252319335938 34.66810989379883 L 10.982810974121094 34.5999641418457 L 11.344972610473633 34.49456024169922 L 11.552702903747559 34.43410873413086 L 11.888477325439453 34.32914352416992 L 12.248387336730957 34.216529846191406 L 12.288000106811523 34.203468322753906 L 12.497702598571777 34.134315490722656 L 12.556684494018555 34.114864349365234 L 12.913891792297363 33.99459457397461 L 13.144702911376953 33.91710662841797 L 13.373865127563477 33.83467483520508 L 13.686334609985352 33.72206115722656 L 13.728819847106934 33.706748962402344 L 13.932703018188477 33.63310623168945 L 14.159667015075684 33.54627990722656 L 14.336000442504883 33.478633880615234 L 14.511919021606445 33.4111442565918 L 14.814170837402344 33.292442321777344 L 15.163269996643066 33.1496467590332 L 15.487852096557617 33.017189025878906 L 15.489152908325195 33.016658782958984 L 15.712820053100586 32.91993713378906 L 16.058765411376953 32.7703857421875 L 16.06418228149414 32.768001556396484 L 16.35552215576172 32.63959503173828 L 16.384000778198242 32.62655258178711 L 16.698766708374023 32.48238754272461 L 17.010498046875 32.33991241455078 L 17.018604278564453 32.33620834350586 L 17.237873077392578 32.23014450073242 L 17.577512741088867 32.06618118286133 L 17.8687744140625 31.922748565673828 L 18.204811096191406 31.751577377319336 L 18.43199920654297 31.635589599609375 L 18.518054962158203 31.591657638549805 L 18.607990264892578 31.543582916259766 L 18.732927322387695 31.4768009185791 L 19.06536102294922 31.298423767089844 L 19.256053924560547 31.19620704650879 L 19.444549560546875 31.09014320373535 L 19.77292823791504 30.90500831604004 L 19.9757022857666 30.790489196777344 L 19.98505401611328 30.785207748413086 L 20.095266342163086 30.719999313354492 L 20.28785514831543 30.606054306030273 L 20.479999542236328 30.49252700805664 L 20.61263084411621 30.414161682128906 L 20.91268539428711 30.23061180114746 L 21.23340606689453 30.031963348388672 L 21.508180618286133 29.859405517578125 L 21.75973892211914 29.695999145507812 L 21.82439613342285 29.65399932861328 L 22.118955612182617 29.462207794189453 L 22.320640563964844 29.325368881225586 L 22.527999877929688 29.184232711791992 L 22.63235092163086 29.11320686340332 L 22.899433135986328 28.929107666015625 L 23.207090377807617 28.71063995361328 L 23.26093292236328 28.672000885009766 L 23.58078384399414 28.442459106445312 L 23.883485794067383 28.217683792114258 L 24.16595458984375 28.00775718688965 L 24.336864471435547 27.875314712524414 L 24.576000213623047 27.68964195251465 L 24.63506317138672 27.643783569335938 L 24.82740592956543 27.494306564331055 L 24.995567321777344 27.35801887512207 L 25.288360595703125 27.120630264282227 M -50 46.16999816894531 L -50 32.768001556396484 L -50 16.384000778198242 L -50 4.440892164675075e-17 L -50 -16.384000778198242 L -50 -32.768001556396484 L -50 -46.16999816894531 L -32.768001556396484 -46.16999816894531 L -24.576000213623047 -46.16999816894531 L -17.165000915527344 -46.16999816894531 L -16.384000778198242 -46.16999816894531 L -12.288000106811523 -46.16999816894531 L -8.192000389099121 -46.16999816894531 L -4.0960001945495605 -46.16999816894531 L 0 -46.16999816894531 L 4.0960001945495605 -46.16999816894531 L 8.192000389099121 -46.16999816894531 L 11 -46.16999816894531 L 12.288000106811523 -46.16999816894531 L 16.384000778198242 -46.16999816894531 L 24.576000213623047 -46.16999816894531 L 32.768001556396484 -46.16999816894531 L 50 -46.16999816894531 L 50 -32.768001556396484 L 50 -16.384000778198242 L 50 4.440892164675075e-17 L 50 16.384000778198242 L 50 32.768001556396484 L 50 46.16999816894531 L 32.768001556396484 46.16999816894531 L 16.384000778198242 46.16999816894531 L 8.192000389099121 46.16999816894531 L 0 46.16999816894531 L -8.192000389099121 46.16999816894531 L -16.384000778198242 46.16999816894531 L -22.729127883911133 46.16999816894531 L -32.768001556396484 46.16999816894531 L -50 46.16999816894531 z" fill="none" stroke="rgb(0,0,255)" stroke-width="0.01mm" />
</svg>