<?xml version="1.0" standalone="no"?>
<!DOCTYPE svg PUBLIC "-//W3C//DTD SVG 1.1//EN"
  "http://www.w3.org/Graphics/SVG/1.1/DTD/svg11.dtd">
<svg width="102mm" height="94.33999633789062mm" viewBox="-51 -47.16999816894531 102 94.33999633789062" xmlns="http://www.w3.org/2000/svg" version="1.1">
	<title>svgOutput</title>
	<desc>made with tinkercad</desc>
<path d="M -12.871325492858887 33.89445877075195 L -12.326872825622559 34.0780029296875 L -12.317879676818848 34.08103561401367 L -12.288000106811523 34.090370178222656 L -11.760939598083496 34.255035400390625 L -11.521181106567383 34.33003616333008 L -11.367566108703613 34.37461471557617 L -11 34.481529235839844 L -11 34.48797607421875 L -11 34.49177169799805 L -11 34.49186706542969 L -11 34.504093170166016 L -11 34.50912094116211 L -11 34.816001892089844 L -11 36.86399841308594 L -11 40.959999084472656 L -11 41.16999816894531 L -8.192000389099121 41.16999816894531 L 0 41.16999816894531 L 8.192000389099121 41.16999816894531 L 11 41.16999816894531 L 11 40.959999084472656 L 11 36.86399841308594 L 11 34.816001892089844 L 11 34.53559494018555 L 11 34.52900314331055 L 11 34.51899337768555 L 11 34.50912094116211 L 11 34.49306869506836 L 11 34.49177169799805 L 11 34.481529235839844 L 11.367566108703613 34.37461471557617 L 11.521181106567383 34.33003616333008 L 11.525931358337402 34.328548431396484 L 11.760939598083496 34.255035400390625 L 12.288000106811523 34.090370178222656 L 12.308483123779297 34.0839729309082 L 12.317879676818848 34.08103561401367 L 12.871325492858887 33.89445877075195 L 12.973152160644531 33.860172271728516 L 13.10927677154541 33.81433868408203 L 13.259879112243652 33.7601203918457 L 13.619758605957031 33.63084411621094 L 13.625799179077148 33.639156341552734 L 13.62653636932373 33.64017105102539 L 13.636780738830566 33.654273986816406 L 14.336000442504883 34.616703033447266 L 14.480792999267578 34.816001892089844 L 15.968694686889648 36.86399841308594 L 16.3597354888916 37.40224075317383 L 16.384000778198242 37.43564224243164 L 17.551000595092773 39.04199981689453 L 17.552169799804688 39.0411491394043 L 26.18623924255371 32.768001556396484 L 32.768001556396484 27.985971450805664 L 35.34917068481445 26.1106014251709 L 35.349998474121094 26.110000610351562 L 34.235286712646484 24.576000213623047 L 34.15843200683594 24.47024154663086 L 32.768001556396484 22.556400299072266 L 31.447750091552734 20.739160537719727 L 31.44362449645996 20.733484268188477 L 31.41845703125 20.698843002319336 L 31.588163375854492 20.479999542236328 L 31.65255355834961 20.396963119506836 L 31.750747680664062 20.27075958251953 L 31.90044593811035 20.068952560424805 L 32.28338623046875 19.551843643188477 L 32.42886734008789 19.34702491760254 L 32.73214340209961 18.919361114501953 L 32.768001556396484 18.866649627685547 L 32.84871292114258 18.74799156188965 L 33.03733444213867 18.47057342529297 L 33.042850494384766 18.472366333007812 L 33.04729080200195 18.47381019592285 L 33.07255935668945 18.482023239135742 L 36.86399841308594 19.7143611907959 L 36.922420501708984 19.733348846435547 L 39.21955871582031 20.479999542236328 L 39.39799880981445 20.538000106811523 L 39.39809036254883 20.5377254486084 L 39.39830780029297 20.537052154541016 L 39.416847229003906 20.479999542236328 L 40.7477912902832 16.384000778198242 L 40.959999084472656 15.730927467346191 L 43.40968322753906 8.192000389099121 L 46.07157516479492 4.440892164675075e-17 L 46.19606399536133 -0.38312304019927973 L 46.196998596191406 -0.3860000073909759 L 43.721031188964844 -1.1902635097503662 L 40.959999084472656 -2.087109088897705 L 39.83533477783203 -2.4524264335632324 L 39.83533477783203 -2.4524459838867188 L 39.84635543823242 -2.7880232334136963 L 39.85313415527344 -2.9953012466430664 L 39.85584259033203 -3.2465059757232666 L 39.86073684692383 -3.889397621154785 L 39.85850524902344 -4.0960001945495605 L 39.85802459716797 -4.1406025886535645 L 39.85313415527344 -4.664698600769043 L 39.851993560791016 -4.699593544006348 L 39.84635543823242 -4.871976852416992 L 39.83533477783203 -5.207573413848877 L 39.835384368896484 -5.207590579986572 L 39.87086486816406 -5.219115734100342 L 40.959999084472656 -5.572890758514404 L 43.721031188964844 -6.469736576080322 L 46.196998596191406 -7.27400016784668 L 45.8986930847168 -8.192000389099121 L 43.23667526245117 -16.384000778198242 L 40.959999084472656 -23.39015769958496 L 40.57465744018555 -24.576000213623047 L 39.3980827331543 -28.19675064086914 L 39.39799880981445 -28.19700050354004 L 36.922420501708984 -27.392736434936523 L 33.07823181152344 -26.14385986328125 L 33.07435607910156 -26.142601013183594 L 33.042850494384766 -26.132366180419922 L 33.03740310668945 -26.130596160888672 L 33.03733444213867 -26.130573272705078 L 32.84871292114258 -26.407991409301758 L 32.768001556396484 -26.526649475097656 L 32.73230743408203 -26.57912254333496 L 32.73214340209961 -26.579360961914062 L 32.700435638427734 -26.624000549316406 L 32.42886734008789 -27.006324768066406 L 32.28338623046875 -27.211145401000977 L 31.90044593811035 -27.728252410888672 L 31.758438110351562 -27.919404983520508 L 31.750747680664062 -27.929759979248047 L 31.65255355834961 -28.056264877319336 L 31.41845703125 -28.358842849731445 L 31.4239559173584 -28.366409301757812 L 31.424076080322266 -28.3665771484375 L 31.425891876220703 -28.369075775146484 L 31.43467903137207 -28.38117027282715 L 31.645971298217773 -28.672000885009766 L 32.768001556396484 -30.216400146484375 L 34.15843200683594 -32.13024139404297 L 34.62187576293945 -32.768001556396484 L 35.349998474121094 -33.77000045776367 L 32.768001556396484 -35.64583969116211 L 24.576000213623047 -41.597373962402344 L 18.281999588012695 -46.16999816894531 L 24.576000213623047 -46.16999816894531 L 32.768001556396484 -46.16999816894531 L 44.3607292175293 -46.16999816894531 L 50 -46.16999816894531 L 50 -32.768001556396484 L 50 -16.384000778198242 L 50 4.440892164675075e-17 L 50 16.384000778198242 L 50 32.768001556396484 L 50 46.16999816894531 L 32.768001556396484 46.16999816894531 L 16.384000778198242 46.16999816894531 L 8.192000389099121 46.16999816894531 L 0 46.16999816894531 L -8.192000389099121 46.16999816894531 L -16.384000778198242 46.16999816894531 L -22.726566314697266 46.16999816894531 L -22.729406356811523 46.16999816894531 L -22.72964096069336 46.16999816894531 L -32.768001556396484 46.16999816894531 L -50 46.16999816894531 L -50 32.768001556396484 L -50 16.384000778198242 L -50 4.440892164675075e-17 L -50 -16.384000778198242 L -50 -32.768001556396484 L -50 -46.16999816894531 L -32.768001556396484 -46.16999816894531 L -24.576000213623047 -46.16999816894531 L -18.281999588012695 -46.16999816894531 L -24.576000213623047 -41.597373962402344 L -32.768001556396484 -35.64583969116211 L -35.349029541015625 -33.77070617675781 L -35.349830627441406 -33.77012252807617 L -35.349998474121094 -33.77000045776367 L -34.62187576293945 -32.768001556396484 L -34.15843200683594 -32.13024139404297 L -32.768001556396484 -30.216400146484375 L -31.645971298217773 -28.672000885009766 L -31.43467903137207 -28.38117027282715 L -31.42514419555664 -28.368045806884766 L -31.424076080322266 -28.3665771484375 L -31.4239559173584 -28.366409301757812 L -31.41845703125 -28.358842849731445 L -31.65255355834961 -28.056264877319336 L -31.750747680664062 -27.929759979248047 L -31.758438110351562 -27.919404983520508 L -31.90044593811035 -27.728252410888672 L -32.28338623046875 -27.211145401000977 L -32.42886734008789 -27.006324768066406 L -32.700435638427734 -26.624000549316406 L -32.73214340209961 -26.579360961914062 L -32.73230743408203 -26.57912254333496 L -32.768001556396484 -26.526649475097656 L -32.84871292114258 -26.407991409301758 L -33.03733444213867 -26.130573272705078 L -33.042850494384766 -26.132366180419922 L -33.07435607910156 -26.142601013183594 L -33.07823181152344 -26.14385986328125 L -36.922420501708984 -27.392736434936523 L -39.39799880981445 -28.19700050354004 L -39.3980827331543 -28.19675064086914 L -40.57465744018555 -24.576000213623047 L -40.959999084472656 -23.39015769958496 L -43.23667526245117 -16.384000778198242 L -45.8986930847168 -8.192000389099121 L -46.19657897949219 -7.275291442871094 L -46.196998596191406 -7.27400016784668 L -43.721031188964844 -6.469736576080322 L -40.959999084472656 -5.572890758514404 L -39.83533477783203 -5.207573413848877 L -39.84635543823242 -4.871976852416992 L -39.85313415527344 -4.664698600769043 L -39.85802459716797 -4.1406025886535645 L -39.85850524902344 -4.0960001945495605 L -39.86073684692383 -3.889397621154785 L -39.86056900024414 -3.867778778076172 L -39.85584259033203 -3.2465059757232666 L -39.85313415527344 -2.9953012466430664 L -39.84635543823242 -2.7880232334136963 L -39.83533477783203 -2.45249605178833 L -39.83533477783203 -2.4524264335632324 L -39.91468048095703 -2.4266529083251953 L -40.959999084472656 -2.087109088897705 L -43.721031188964844 -1.1902635097503662 L -46.196998596191406 -0.3860000073909759 L -46.19606399536133 -0.38312304019927973 L -46.07157516479492 4.440892164675075e-17 L -43.40968322753906 8.192000389099121 L -40.959999084472656 15.730927467346191 L -40.7477912902832 16.384000778198242 L -39.416847229003906 20.479999542236328 L -39.39830780029297 20.537052154541016 L -39.39809036254883 20.5377254486084 L -39.39800262451172 20.537992477416992 L -39.39799880981445 20.538000106811523 L -39.21955871582031 20.479999542236328 L -36.922420501708984 19.733348846435547 L -36.86399841308594 19.7143611907959 L -33.07255935668945 18.482023239135742 L -33.042850494384766 18.472366333007812 L -33.03740310668945 18.470596313476562 L -33.03733444213867 18.47057342529297 L -32.84871292114258 18.74799156188965 L -32.768001556396484 18.866649627685547 L -32.73214340209961 18.919361114501953 L -32.42886734008789 19.34702491760254 L -32.28338623046875 19.551843643188477 L -31.90044593811035 20.068952560424805 L -31.750747680664062 20.27075958251953 L -31.65255355834961 20.396963119506836 L -31.588163375854492 20.479999542236328 L -31.41845703125 20.698843002319336 L -31.423818588256836 20.706222534179688 L -32.768001556396484 22.556400299072266 L -33.266387939453125 23.242399215698242 L -34.15843200683594 24.47024154663086 L -34.235286712646484 24.576000213623047 L -35.349998474121094 26.110000610351562 L -35.349830627441406 26.110122680664062 L -32.768001556396484 27.985971450805664 L -26.18623924255371 32.768001556396484 L -17.551029205322266 39.0419807434082 L -17.551000595092773 39.04199981689453 L -16.384000778198242 37.43564224243164 L -16.3597354888916 37.40224075317383 L -15.968694686889648 36.86399841308594 L -14.480792999267578 34.816001892089844 L -14.336000442504883 34.616703033447266 L -13.651541709899902 33.674591064453125 L -13.645052909851074 33.6656608581543 L -13.633024215698242 33.64910125732422 L -13.626354217529297 33.639923095703125 L -13.625799179077148 33.639156341552734 L -13.625743865966797 33.63908004760742 L -13.619758605957031 33.63084411621094 L -13.259879112243652 33.7601203918457 L -13.113565444946289 33.81279373168945 L -13.10927677154541 33.81433868408203 L -12.871325492858887 33.89445877075195 M -17.165000915527344 -46.16999816894531 L -16.384000778198242 -46.16999816894531 L -12.288000106811523 -46.16999816894531 L -11 -46.16999816894531 L -11 -45.055999755859375 L -11 -43.007999420166016 L -11 -42.164093017578125 L -11 -42.1518669128418 L -11 -42.14152908325195 L -11.367566108703613 -42.03461456298828 L -11.517156600952148 -41.99120330810547 L -11.521181106567383 -41.99003601074219 L -11.760939598083496 -41.91473388671875 L -12.288000106811523 -41.74940872192383 L -12.317879676818848 -41.74003601074219 L -12.871325492858887 -41.55415725708008 L -13.10927677154541 -41.474037170410156 L -13.259879112243652 -41.41981887817383 L -13.619758605957031 -41.28984451293945 L -13.625539779663086 -41.29780197143555 L -16.09000015258789 -44.690181732177734 L -16.384000778198242 -45.09489440917969 L -17.165000915527344 -46.16999816894531 M 17.165000915527344 -46.16999816894531 L 16.384000778198242 -45.09489440917969 L 16.09000015258789 -44.690181732177734 L 13.64450454711914 -41.32390594482422 L 13.6273193359375 -41.30025100708008 L 13.626943588256836 -41.29973220825195 L 13.62540340423584 -41.297611236572266 L 13.619758605957031 -41.28984451293945 L 13.259879112243652 -41.41981887817383 L 13.10927677154541 -41.474037170410156 L 12.871325492858887 -41.55415725708008 L 12.317879676818848 -41.74003601074219 L 12.288000106811523 -41.74940872192383 L 11.760939598083496 -41.91473388671875 L 11.521181106567383 -41.99003601074219 L 11.517156600952148 -41.99120330810547 L 11.367566108703613 -42.03461456298828 L 11 -42.14152908325195 L 11 -42.151771545410156 L 11 -42.15342330932617 L 11 -42.153724670410156 L 11 -43.007999420166016 L 11 -45.055999755859375 L 11 -46.16999816894531 L 12.288000106811523 -46.16999816894531 L 16.384000778198242 -46.16999816894531 L 17.165000915527344 -46.16999816894531 z" fill="none" stroke="rgb(0,0,255)" stroke-width="0.01mm" />
</svg>