<?xml version="1.0" standalone="no"?>
<!DOCTYPE svg PUBLIC "-//W3C//DTD SVG 1.1//EN"
  "http://www.w3.org/Graphics/SVG/1.1/DTD/svg11.dtd">
<svg width="102mm" height="80.66799926757812mm" viewBox="-51 -40.33399963378906 102 80.66799926757812" xmlns="http://www.w3.org/2000/svg" version="1.1">
	<title>svgOutput</title>
	<desc>made with tinkercad</desc>
<path d="M -50 39.33399963378906 L -50 32.768001556396484 L -50 28.101530075073242 L -50 16.384000778198242 L -50 4.440892164675075e-17 L -50 -16.384000778198242 L -50 -32.768001556396484 L -50 -39.33399963378906 L -49.152000427246094 -39.33399963378906 L -40.959999084472656 -39.33399963378906 L -36.86399841308594 -39.33399963378906 L -34.02899932861328 -39.33399963378906 L -36.86399841308594 -36.39829635620117 L -39.40599822998047 -33.76599884033203 L -38.372314453125 -32.768001556396484 L -37.86881637573242 -32.281883239746094 L -36.86399841308594 -31.311798095703125 L -36.251014709472656 -30.719999313354492 L -35.159156799316406 -29.66588020324707 L -35.133548736572266 -29.641159057617188 L -35.13266372680664 -29.640302658081055 L -35.25962829589844 -29.40644645690918 L -35.388301849365234 -29.16689682006836 L -35.58156967163086 -28.78799057006836 L -35.64057540893555 -28.672000885009766 L -35.7678108215332 -28.42189598083496 L -35.907676696777344 -28.131994247436523 L -36.0870361328125 -27.761478424072266 L -36.10575866699219 -27.721420288085938 L -36.21825408935547 -27.480731964111328 L -36.38926315307617 -27.107267379760742 L -36.53166961669922 -26.789392471313477 L -36.581912994384766 -26.67044448852539 L -36.65632629394531 -26.68090057373047 L -36.86399841308594 -26.710079193115234 L -40.347476959228516 -27.199527740478516 L -40.959999084472656 -27.285655975341797 L -42.4630012512207 -27.496999740600586 L -42.46303176879883 -27.496774673461914 L -42.87350845336914 -24.576000213623047 L -44.02478790283203 -16.384000778198242 L -45.17606735229492 -8.192000389099121 L -45.45698165893555 -6.193126678466797 L -45.457000732421875 -6.192999839782715 L -43.34147644042969 -5.895526885986328 L -40.959999084472656 -5.560512065887451 L -39.58792495727539 -5.367494583129883 L -39.57732391357422 -5.366003513336182 L -39.57591247558594 -5.365805149078369 L -39.5409049987793 -5.102083683013916 L -39.50377655029297 -4.833034515380859 L -39.453426361083984 -4.515159606933594 L -39.38905334472656 -4.109262943267822 L -39.386775970458984 -4.0960001945495605 L -39.334632873535156 -3.7918968200683594 L -39.261905670166016 -3.387474298477173 L -39.18408966064453 -2.981611728668213 L -39.102516174316406 -2.578171968460083 L -39.03131103515625 -2.2369017601013184 L -39.00246810913086 -2.1115849018096924 L -39.029842376708984 -2.0970277786254883 L -39.122039794921875 -2.0480000972747803 L -40.959999084472656 -1.070598840713501 L -42.359718322753906 -0.32624909281730646 L -42.973121643066406 4.440892164675075e-17 L -44.24599838256836 0.6769999861717224 L -40.959999084472656 6.85695743560791 L -40.2501335144043 8.192000389099121 L -38.07221221923828 12.288000106811523 L -35.894290924072266 16.384000778198242 L -34.145999908447266 19.672000885009766 L -32.768001556396484 18.93949317932129 L -32.25935745239258 18.669111251831055 L -28.9023380279541 16.88423728942871 L -28.901470184326172 16.88377571105957 L -28.71851921081543 17.076526641845703 L -28.672000885009766 17.125186920166016 L -28.530845642089844 17.272844314575195 L -27.938844680786133 17.863845825195312 L -27.642040252685547 18.148366928100586 L -27.34246253967285 18.43199920654297 L -27.18328285217285 18.58271026611328 L -26.881071090698242 18.8613338470459 L -26.624000549316406 19.094114303588867 L -26.622703552246094 19.09528923034668 L -26.525054931640625 19.17947006225586 L -26.624000549316406 19.3823299407959 L -27.159393310546875 20.479999542236328 L -28.192176818847656 22.597421646118164 L -29.128999710083008 24.51799964904785 L -29.01007843017578 24.576000213623047 L -16.384000778198242 30.733963012695312 L -12.213481903076172 32.768001556396484 L -9.79231071472168 33.948848724365234 L -9.791999816894531 33.94900131225586 L -9.216151237487793 32.768001556396484 L -8.855538368225098 32.02842330932617 L -8.515832901000977 31.33180046081543 L -8.192000389099121 30.667875289916992 L -7.218502521514893 28.672000885009766 L -7.190722942352295 28.615047454833984 L -7.1905035972595215 28.61459732055664 L -7.190469741821289 28.614526748657227 L -7.188896656036377 28.61130142211914 L -6.825244903564453 28.672000885009766 L -6.520592212677002 28.722850799560547 L -6.468206405639648 28.732004165649414 L -6.253068923950195 28.770658493041992 L -6.144000053405762 28.78797721862793 L -5.864638805389404 28.83233642578125 L -5.833474159240723 28.837284088134766 L -5.4265947341918945 28.8933048248291 L -5.004965782165527 28.950777053833008 L -4.7877936363220215 28.976205825805664 L -4.378948211669922 29.023380279541016 L -4.0960001945495605 29.053911209106445 L -4.044290065765381 29.059492111206055 L -3.9161949157714844 29.070552825927734 L -3.6254305839538574 30.719999313354492 L -3.264409303665161 32.768001556396484 L -3.2561192512512207 32.81502914428711 L -2.884999990463257 34.91899871826172 L 0 34.410274505615234 L 9.313404083251953 32.768001556396484 L 16.384000778198242 31.521209716796875 L 18.301774978637695 31.18303871154785 L 18.302000045776367 31.183000564575195 L 17.93088150024414 29.079029083251953 L 17.859128952026367 28.672000885009766 L 17.49810791015625 26.624000549316406 L 17.27880096435547 25.37991714477539 L 17.27080535888672 25.334552764892578 L 17.51076889038086 25.219806671142578 L 17.75540542602539 25.101303100585938 L 18.042255401611328 24.955333709716797 L 18.408348083496094 24.76860237121582 L 18.770952224731445 24.576000213623047 L 18.783695220947266 24.569231033325195 L 19.14634895324707 24.3751277923584 L 19.41743278503418 24.22509002685547 L 19.775663375854492 24.02312469482422 L 20.078279495239258 23.849693298339844 L 20.188663482666016 23.783302307128906 L 20.193098068237305 23.78758430480957 L 20.20854949951172 23.802505493164062 L 20.21234703063965 23.806171417236328 L 20.479999542236328 24.064634323120117 L 21.00954818725586 24.576000213623047 L 22.924177169799805 26.424884796142578 L 24.461000442504883 27.909000396728516 L 24.461030960083008 27.908967971801758 L 24.576000213623047 27.789913177490234 L 27.679641723632812 24.576000213623047 L 31.635101318359375 20.479999542236328 L 32.768001556396484 19.30685043334961 L 35.5905647277832 16.384000778198242 L 39.40522766113281 12.433797836303711 L 39.40599822998047 12.432999610900879 L 39.25581359863281 12.288000106811523 L 37.86881637573242 10.948884010314941 L 37.311649322509766 10.410395622253418 L 36.86399841308594 9.978217124938965 L 35.15323257446289 8.326579093933105 L 35.149600982666016 8.323071479797363 L 35.141719818115234 8.315463066101074 L 35.133827209472656 8.307845115661621 L 35.134613037109375 8.306331634521484 L 35.194026947021484 8.192000389099121 L 35.445865631103516 7.707353591918945 L 35.47129821777344 7.660562515258789 L 35.57454299926758 7.467803478240967 L 35.7678108215332 7.088896751403809 L 35.77510452270508 7.073763370513916 L 35.952430725097656 6.705921173095703 L 36.13179397583008 6.335405349731445 L 36.14787673950195 6.3004961013793945 L 36.21825408935547 6.147732257843018 L 36.21996307373047 6.144000053405762 L 36.38926315307617 5.774267673492432 L 36.53166961669922 5.456393241882324 L 36.581912994384766 5.337443828582764 L 36.58477783203125 5.337846755981445 L 36.86399841308594 5.377079010009766 L 40.347476959228516 5.866527080535889 L 40.959999084472656 5.9526567459106445 L 42.4630012512207 6.164000034332275 L 43.329227447509766 4.440892164675075e-17 L 44.48045349121094 -8.192000389099121 L 45.45698165893555 -15.140871047973633 L 45.457000732421875 -15.140999794006348 L 43.34147644042969 -15.438112258911133 L 40.959999084472656 -15.772723197937012 L 39.57591247558594 -15.967194557189941 L 39.5409049987793 -16.23091697692871 L 39.519779205322266 -16.384000778198242 L 39.50377655029297 -16.49996566772461 L 39.453426361083984 -16.817840576171875 L 39.38905334472656 -17.223737716674805 L 39.334632873535156 -17.54110336303711 L 39.261905670166016 -17.946016311645508 L 39.18408966064453 -18.351879119873047 L 39.167869567871094 -18.43199920654297 L 39.102516174316406 -18.75482749938965 L 39.03131103515625 -19.096097946166992 L 39.00246810913086 -19.22141456604004 L 39.018306732177734 -19.22983741760254 L 40.959999084472656 -20.262401580810547 L 42.359718322753906 -21.006750106811523 L 44.24599838256836 -22.010000228881836 L 42.881683349609375 -24.576000213623047 L 40.959999084472656 -28.190290451049805 L 40.703880310058594 -28.672000885009766 L 38.52607727050781 -32.768001556396484 L 35.03499984741211 -39.33399963378906 L 50 -39.33399963378906 L 50 -32.768001556396484 L 50 -16.384000778198242 L 50 4.440892164675075e-17 L 50 16.384000778198242 L 50 32.768001556396484 L 50 39.33399963378906 L 32.768001556396484 39.33399963378906 L 0 39.33399963378906 L -2.106238842010498 39.33399963378906 L -2.1069557666778564 39.33399963378906 L -8.192000389099121 39.33399963378906 L -16.384000778198242 39.33399963378906 L -32.768001556396484 39.33399963378906 L -50 39.33399963378906 M 31.00200080871582 -39.33399963378906 L 30.250375747680664 -38.93436050415039 L 28.9023380279541 -38.21723937988281 L 28.901470184326172 -38.21677780151367 L 28.901235580444336 -38.21702194213867 L 28.71851921081543 -38.40952682495117 L 28.672000885009766 -38.458187103271484 L 28.530845642089844 -38.6058464050293 L 27.938844680786133 -39.19684600830078 L 27.86204719543457 -39.27109909057617 L 27.795629501342773 -39.33399963378906 L 27.80145835876465 -39.33399963378906 L 27.834758758544922 -39.33399963378906 L 28.672000885009766 -39.33399963378906 L 31.00200080871582 -39.33399963378906 z" fill="none" stroke="rgb(0,0,255)" stroke-width="0.01mm" />
</svg>