<?xml version="1.0" standalone="no"?>
<!DOCTYPE svg PUBLIC "-//W3C//DTD SVG 1.1//EN"
  "http://www.w3.org/Graphics/SVG/1.1/DTD/svg11.dtd">
<svg width="102mm" height="51.59000015258789mm" viewBox="-51 -25.795000076293945 102 51.59000015258789" xmlns="http://www.w3.org/2000/svg" version="1.1">
	<title>svgOutput</title>
	<desc>made with tinkercad</desc>
<path d="M -10.9817533493042 10.918863296508789 L -10.765999794006348 10.983091354370117 L -10.490727424621582 11.063091278076172 L -10.239999771118164 11.135943412780762 L -10.153454780578613 11.161090850830078 L -9.876727104187012 11.235272407531738 L -9.428933143615723 11.355269432067871 L -9.402070045471191 11.362468719482422 L -9.389908790588379 11.365727424621582 L -9.241000175476074 11.402000427246094 L -8.962454795837402 11.47036361694336 L -8.621999740600586 11.554363250732422 L -8.204545021057129 11.647909164428711 L -8.192000389099121 11.650714874267578 L -7.9249091148376465 11.710454940795898 L -7.751062393188477 11.746405601501465 L -7.700272560119629 11.756909370422363 L -7.419181823730469 11.813272476196289 L -7.074909210205078 11.882636070251465 L -6.578545570373535 11.972363471984863 L -6.296510219573975 12.023245811462402 L -6.296363830566406 12.023272514343262 L -6.144000053405762 12.047359466552734 L -5.95018196105957 12.07800006866455 L -5.667272567749023 12.122727394104004 L -5.440091133117676 12.15709114074707 L -5.15609073638916 12.196000099182129 L -5.039796352386475 12.21189022064209 L -4.732272624969482 12.25390911102295 L -4.435735702514648 12.288000106811523 L -4.383545398712158 12.293999671936035 L -4.0960001945495605 12.324257850646973 L -3.813363552093506 12.354000091552734 L -3.6612727642059326 12.371818542480469 L -3.159181833267212 12.41954517364502 L -2.873363733291626 12.44063663482666 L -2.849050760269165 12.442420959472656 L -2.370636463165283 12.477545738220215 L -2.0844545364379883 12.492454528808594 L -1.5810909271240234 12.518545150756836 L -1.2945454120635986 12.527636528015137 L -0.7905454635620117 12.543545722961426 L -0.36290907859802246 12.54800033569336 L -0.07636363804340363 12.550909042358398 L 0 12.550697326660156 L 0.15336363017559052 12.550272941589355 L 0.43990910053253174 12.54736328125 L 0.7905454635620117 12.543545722961426 L 1.2945454120635986 12.527636528015137 L 1.5810909271240234 12.518545150756836 L 2.0480000972747803 12.494343757629395 L 2.0844545364379883 12.492454528808594 L 2.3458871841430664 12.478835105895996 L 2.370636463165283 12.477545738220215 L 2.873363733291626 12.44063663482666 L 3.159181833267212 12.41954517364502 L 3.4829776287078857 12.388766288757324 L 3.6612727642059326 12.371818542480469 L 3.813363552093506 12.354000091552734 L 4.0960001945495605 12.324257850646973 L 4.383545398712158 12.293999671936035 L 4.435735702514648 12.288000106811523 L 4.732272624969482 12.25390911102295 L 5.15609073638916 12.196000099182129 L 5.440091133117676 12.15709114074707 L 5.667272567749023 12.122727394104004 L 5.95018196105957 12.07800006866455 L 6.144000053405762 12.047359466552734 L 6.296363830566406 12.023272514343262 L 6.296510219573975 12.023245811462402 L 6.578545570373535 11.972363471984863 L 7.0581512451171875 11.885665893554688 L 7.074909210205078 11.882636070251465 L 7.419181823730469 11.813272476196289 L 7.700272560119629 11.756909370422363 L 7.9249091148376465 11.710454940795898 L 8.192000389099121 11.650714874267578 L 8.204545021057129 11.647909164428711 L 8.621999740600586 11.554363250732422 L 9.111363410949707 11.434090614318848 L 9.389908790588379 11.365727424621582 L 9.394211769104004 11.364574432373047 L 9.876727104187012 11.235272407531738 L 10.153454780578613 11.161090850830078 L 10.239999771118164 11.135943412780762 L 10.490727424621582 11.063091278076172 L 10.765999794006348 10.983091354370117 L 10.98618221282959 10.917545318603516 L 11.259635925292969 10.831727027893066 L 11.659990310668945 10.70618724822998 L 11.667545318603516 10.703818321228027 L 12.00036334991455 10.591817855834961 L 12.272000312805176 10.500545501708984 L 12.288000106811523 10.49505615234375 L 12.48900032043457 10.426091194152832 L 12.758818626403809 10.329000473022461 L 13.00551986694336 10.239999771118164 L 13.16100025177002 10.18390941619873 L 13.42827320098877 10.081000328063965 L 13.899181365966797 9.900272369384766 L 13.924737930297852 9.889843940734863 L 14.041090965270996 9.842363357543945 L 14.30654525756836 9.734000205993652 L 14.336000442504883 9.721986770629883 L 14.631091117858887 9.601635932922363 L 14.63623332977295 9.599414825439453 L 14.953727722167969 9.462272644042969 L 15.217000007629395 9.348454475402832 L 15.427000045776367 9.255545616149902 L 15.687363624572754 9.136272430419922 L 16.076181411743164 8.958090782165527 L 16.33436393737793 8.83336353302002 L 16.384000778198242 8.809346199035645 L 16.7880916595459 8.613818168640137 L 17.169273376464844 8.420363426208496 L 17.424545288085938 8.290182113647461 L 17.60987091064453 8.192000389099121 L 17.627546310424805 8.182636260986328 L 17.880271911621094 8.04736328125 L 18.189544677734375 7.881272792816162 L 18.43199920654297 7.744917869567871 L 18.561819076538086 7.671908855438232 L 18.811635971069336 7.531181812286377 L 19.010818481445312 7.415363788604736 L 19.25736427307129 7.269545555114746 L 19.55900001525879 7.09072732925415 L 19.678909301757812 7.01658296585083 L 19.679494857788086 7.016220569610596 L 19.857454299926758 6.906181812286377 L 20.101091384887695 6.754909038543701 L 20.20883560180664 6.688160419464111 L 20.23154640197754 6.67409086227417 L 20.479999542236328 6.51244592666626 L 20.654090881347656 6.399181842803955 L 20.894454956054688 6.2431817054748535 L 21.040348052978516 6.144000053405762 L 21.18463706970215 6.0459089279174805 L 21.421728134155273 5.884818077087402 L 21.58711814880371 5.770659446716309 L 21.610727310180664 5.754363536834717 L 21.844181060791016 5.588181972503662 L 22.192909240722656 5.340636253356934 L 22.50413703918457 5.109669208526611 L 22.527999877929688 5.091960430145264 L 22.53590965270996 5.086091041564941 L 22.766090393066406 4.915181636810303 L 22.9473819732666 4.7762131690979 L 22.948726654052734 4.775181770324707 L 23.17527198791504 4.599545478820801 L 23.452726364135742 4.384454727172852 L 23.725727081298828 4.163636207580566 L 23.80931854248047 4.0960001945495605 L 23.948637008666992 3.9832727909088135 L 24.067636489868164 3.8871817588806152 L 24.33554458618164 3.6606364250183105 L 24.554454803466797 3.4755454063415527 L 24.556102752685547 3.474132537841797 L 24.576000213623047 3.457066774368286 L 24.728818893432617 3.3259999752044678 L 24.943727493286133 3.136545419692993 L 25.264453887939453 2.8533637523651123 L 25.522817611694336 2.615999937057495 L 25.733726501464844 2.4221818447113037 L 25.895465850830078 2.271470308303833 L 25.9017276763916 2.265636444091797 L 26.1086368560791 2.0670909881591797 L 26.12854766845703 2.0480000972747803 L 26.417272567749023 1.7711818218231201 L 26.96995735168457 1.2184979915618896 L 26.976181030273438 1.2122727632522583 L 27.272090911865234 0.9036363363265991 L 27.47063636779785 0.6967272758483887 L 27.58622169494629 0.572685182094574 L 27.627182006835938 0.5287272930145264 L 27.820999145507812 0.3178181946277619 L 28.05900001525879 0.05945454537868504 L 28.11137580871582 4.440892164675075e-17 L 28.34154510498047 -0.2612727284431457 L 28.53136444091797 -0.4765454530715942 L 28.53774070739746 -0.4839810132980346 L 28.672000885009766 -0.6405214667320251 L 28.680908203125 -0.6509090662002563 L 28.865636825561523 -0.8698182106018066 L 29.077510833740234 -1.1209732294082642 L 29.092182159423828 -1.1383635997772217 L 29.18827247619629 -1.2573636770248413 L 29.368999481201172 -1.479909062385559 L 29.589818954467773 -1.7522727251052856 L 29.805545806884766 -2.0297272205352783 L 29.819711685180664 -2.0480000972747803 L 29.981182098388672 -2.256272792816162 L 30.120546340942383 -2.4389090538024902 L 30.291454315185547 -2.669090986251831 L 30.54599952697754 -3.0120909214019775 L 30.749635696411133 -3.298454523086548 L 30.915454864501953 -3.5319089889526367 L 31.047182083129883 -3.7202727794647217 L 31.20827293395996 -3.9573636054992676 L 31.302696228027344 -4.0960001945495605 L 31.44881820678711 -4.310545444488525 L 31.461793899536133 -4.33049201965332 L 31.605182647705078 -4.550909042358398 L 31.879453659057617 -4.974091053009033 L 31.882530212402344 -4.979030132293701 L 31.96027183532715 -5.103909015655518 L 32.111183166503906 -5.347545623779297 L 32.289459228515625 -5.634870529174805 L 32.296363830566406 -5.645999908447266 L 32.474544525146484 -5.948272705078125 L 32.620365142822266 -6.195181846618652 L 32.736183166503906 -6.3937273025512695 L 32.768001556396484 -6.450128555297852 L 32.87690734863281 -6.643181800842285 L 33.063018798828125 -6.973104476928711 L 33.076019287109375 -6.996147632598877 L 33.086910247802734 -7.0154547691345215 L 33.25236511230469 -7.3247270584106445 L 33.38800048828125 -7.577454566955566 L 33.435096740722656 -7.665040016174316 L 33.45658874511719 -7.705003261566162 L 33.46054458618164 -7.7123637199401855 L 33.5299072265625 -7.849181652069092 L 33.65972900390625 -8.10445499420166 L 33.7044792175293 -8.192000389099121 L 33.819454193115234 -8.416909217834473 L 34.03900146484375 -8.870635986328125 L 34.163726806640625 -9.12881851196289 L 34.34127426147461 -9.5176362991333 L 34.46091079711914 -9.778363227844238 L 34.477394104003906 -9.815740585327148 L 34.55381774902344 -9.98900032043457 L 34.662479400634766 -10.239999771118164 L 34.66763687133789 -10.251909255981445 L 34.80002212524414 -10.55778980255127 L 34.80699920654297 -10.573908805847168 L 34.93936538696289 -10.898454666137695 L 35.04736328125 -11.163908958435059 L 35.099342346191406 -11.291285514831543 L 35.10527420043945 -11.305818557739258 L 35.2859992980957 -11.776727676391602 L 35.38890838623047 -12.044363975524902 L 35.476802825927734 -12.288000106811523 L 35.534000396728516 -12.446545600891113 L 35.6310920715332 -12.715999603271484 L 35.683837890625 -12.870185852050781 L 35.70554733276367 -12.933636665344238 L 35.796817779541016 -13.205272674560547 L 35.80464553833008 -13.228485107421875 L 35.908817291259766 -13.537454605102539 L 36.010135650634766 -13.86064338684082 L 36.024261474609375 -13.9056978225708 L 36.02430725097656 -13.90584945678711 L 36.059635162353516 -14.018545150756836 L 36.102272033691406 -14.165545463562012 L 36.15378189086914 -14.336000442504883 L 36.268089294433594 -14.714272499084473 L 36.36517333984375 -15.048389434814453 L 36.366092681884766 -15.051545143127441 L 36.44027328491211 -15.328636169433594 L 36.448028564453125 -15.357572555541992 L 36.568973541259766 -15.808903694152832 L 36.57072830200195 -15.815454483032227 L 36.691001892089844 -16.30545425415039 L 36.710304260253906 -16.384000778198242 L 36.75936508178711 -16.583637237548828 L 36.852909088134766 -17.00045394897461 L 36.86399841308594 -17.05004119873047 L 36.91545486450195 -17.28009033203125 L 37.03190994262695 -17.849000930786133 L 37.0886344909668 -18.130090713500977 L 37.17772674560547 -18.626455307006836 L 37.228271484375 -18.90863609313965 L 37.27336502075195 -19.191545486450195 L 37.36245346069336 -19.765544891357422 L 37.401363372802734 -20.049545288085938 L 37.45927429199219 -20.472726821899414 L 37.460113525390625 -20.479999542236328 L 37.50316619873047 -20.85234832763672 L 37.517181396484375 -20.97354507446289 L 37.53181838989258 -21.126272201538086 L 37.591453552246094 -21.696455001831055 L 37.62454605102539 -22.045818328857422 L 37.64563751220703 -22.331636428833008 L 37.64863586425781 -22.37247085571289 L 37.66005325317383 -22.527999877929688 L 37.68254470825195 -22.83436393737793 L 37.69745635986328 -23.120546340942383 L 37.72354507446289 -23.62390899658203 L 37.732635498046875 -23.91045379638672 L 37.7485466003418 -24.41445541381836 L 37.75023651123047 -24.576000213623047 L 37.75109100341797 -24.65754508972168 L 37.75092697143555 -24.722753524780273 L 37.75151443481445 -24.795000076293945 L 37.75252914428711 -24.795000076293945 L 40.959999084472656 -24.795000076293945 L 42.5989990234375 -24.795000076293945 L 49.152000427246094 -24.795000076293945 L 50 -24.795000076293945 L 50 -16.384000778198242 L 50 4.440892164675075e-17 L 50 24.795000076293945 L 32.768001556396484 24.795000076293945 L 16.384000778198242 24.795000076293945 L 0 24.795000076293945 L -16.384000778198242 24.795000076293945 L -32.768001556396484 24.795000076293945 L -50 24.795000076293945 L -50 4.440892164675075e-17 L -50 -16.384000778198242 L -50 -24.795000076293945 L -49.152000427246094 -24.795000076293945 L -40.959999084472656 -24.795000076293945 L -37.75237274169922 -24.795000076293945 L -37.752254486083984 -24.78055763244629 L -37.752262115478516 -24.76515769958496 L -37.7516975402832 -24.71173095703125 L -37.75025939941406 -24.576000213623047 L -37.7485466003418 -24.41445541381836 L -37.732635498046875 -23.91045379638672 L -37.72354507446289 -23.62390899658203 L -37.69745635986328 -23.120546340942383 L -37.68254470825195 -22.83436393737793 L -37.66005325317383 -22.527999877929688 L -37.64863586425781 -22.37247085571289 L -37.64563751220703 -22.331636428833008 L -37.62454605102539 -22.045818328857422 L -37.591453552246094 -21.696455001831055 L -37.53181838989258 -21.126272201538086 L -37.517181396484375 -20.97354507446289 L -37.50316619873047 -20.85234832763672 L -37.460113525390625 -20.479999542236328 L -37.45927429199219 -20.472726821899414 L -37.401363372802734 -20.049545288085938 L -37.36245346069336 -19.765544891357422 L -37.27336502075195 -19.191545486450195 L -37.228271484375 -18.90863609313965 L -37.17772674560547 -18.626455307006836 L -37.142826080322266 -18.43199920654297 L -37.0886344909668 -18.130090713500977 L -37.03190994262695 -17.849000930786133 L -36.91545486450195 -17.28009033203125 L -36.86399841308594 -17.05004119873047 L -36.852909088134766 -17.00045394897461 L -36.75936508178711 -16.583637237548828 L -36.72562789916992 -16.446189880371094 L -36.71036148071289 -16.384000778198242 L -36.63909149169922 -16.09363555908203 L -36.57212829589844 -15.821157455444336 L -36.57072830200195 -15.815454483032227 L -36.44027328491211 -15.328636169433594 L -36.366092681884766 -15.051545143127441 L -36.28609085083008 -14.776272773742676 L -36.156925201416016 -14.336000442504883 L -36.123565673828125 -14.222301483154297 L -36.1225471496582 -14.218817710876465 L -36.03672790527344 -13.945363998413086 L -35.908817291259766 -13.537454605102539 L -35.796817779541016 -13.205272674560547 L -35.78562927246094 -13.171977043151855 L -35.70554733276367 -12.933636665344238 L -35.683837890625 -12.870185852050781 L -35.6310920715332 -12.715999603271484 L -35.534000396728516 -12.446545600891113 L -35.476802825927734 -12.288000106811523 L -35.38890838623047 -12.044363975524902 L -35.2859992980957 -11.776727676391602 L -35.10527420043945 -11.305818557739258 L -35.099342346191406 -11.291285514831543 L -35.04736328125 -11.163908958435059 L -34.93936538696289 -10.898454666137695 L -34.80699920654297 -10.573908805847168 L -34.80002212524414 -10.55778980255127 L -34.66763687133789 -10.251909255981445 L -34.662479400634766 -10.239999771118164 L -34.55381774902344 -9.98900032043457 L -34.46091079711914 -9.778363227844238 L -34.34127426147461 -9.5176362991333 L -34.163726806640625 -9.12881851196289 L -34.14646530151367 -9.093085289001465 L -34.03900146484375 -8.870635986328125 L -33.819454193115234 -8.416909217834473 L -33.7044792175293 -8.192000389099121 L -33.65972900390625 -8.10445499420166 L -33.5299072265625 -7.849181652069092 L -33.46295166015625 -7.717109203338623 L -33.46054458618164 -7.7123637199401855 L -33.38800048828125 -7.577454566955566 L -33.25236511230469 -7.3247270584106445 L -33.086910247802734 -7.0154547691345215 L -33.076019287109375 -6.996147632598877 L -32.87690734863281 -6.643181800842285 L -32.768001556396484 -6.450128555297852 L -32.736183166503906 -6.3937273025512695 L -32.620365142822266 -6.195181846618652 L -32.474544525146484 -5.948272705078125 L -32.30263137817383 -5.656630992889404 L -32.296363830566406 -5.645999908447266 L -32.111183166503906 -5.347545623779297 L -31.96027183532715 -5.103909015655518 L -31.879453659057617 -4.974091053009033 L -31.605182647705078 -4.550909042358398 L -31.461793899536133 -4.33049201965332 L -31.44881820678711 -4.310545444488525 L -31.302696228027344 -4.0960001945495605 L -31.20827293395996 -3.9573636054992676 L -31.047182083129883 -3.7202727794647217 L -30.915454864501953 -3.5319089889526367 L -30.749635696411133 -3.298454523086548 L -30.54599952697754 -3.0120909214019775 L -30.291454315185547 -2.669090986251831 L -30.120546340942383 -2.4389090538024902 L -29.981182098388672 -2.256272792816162 L -29.819711685180664 -2.0480000972747803 L -29.805545806884766 -2.0297272205352783 L -29.589818954467773 -1.7522727251052856 L -29.368999481201172 -1.479909062385559 L -29.18827247619629 -1.2573636770248413 L -29.114219665527344 -1.1656547784805298 L -29.092182159423828 -1.1383635997772217 L -29.08989715576172 -1.1356548070907593 L -29.077510833740234 -1.1209732294082642 L -28.865636825561523 -0.8698182106018066 L -28.680908203125 -0.6509090662002563 L -28.672000885009766 -0.6405214667320251 L -28.53136444091797 -0.4765454530715942 L -28.34154510498047 -0.2612727284431457 L -28.11137580871582 4.440892164675075e-17 L -28.05900001525879 0.05945454537868504 L -27.820999145507812 0.3178181946277619 L -27.627182006835938 0.5287272930145264 L -27.58622169494629 0.572685182094574 L -27.476470947265625 0.6904664039611816 L -27.47063636779785 0.6967272758483887 L -27.272090911865234 0.9036363363265991 L -26.976181030273438 1.2122727632522583 L -26.423498153686523 1.7649564743041992 L -26.417272567749023 1.7711818218231201 L -26.12854766845703 2.0480000972747803 L -26.1086368560791 2.0670909881591797 L -25.9017276763916 2.265636444091797 L -25.733726501464844 2.4221818447113037 L -25.522817611694336 2.615999937057495 L -25.264453887939453 2.8533637523651123 L -24.943727493286133 3.136545419692993 L -24.728818893432617 3.3259999752044678 L -24.576000213623047 3.457066774368286 L -24.556102752685547 3.474132537841797 L -24.554454803466797 3.4755454063415527 L -24.33554458618164 3.6606364250183105 L -24.073017120361328 3.8826327323913574 L -24.067636489868164 3.8871817588806152 L -23.948637008666992 3.9832727909088135 L -23.80931854248047 4.0960001945495605 L -23.725727081298828 4.163636207580566 L -23.452726364135742 4.384454727172852 L -23.17527198791504 4.599545478820801 L -22.948726654052734 4.775181770324707 L -22.9473819732666 4.7762131690979 L -22.766090393066406 4.915181636810303 L -22.53590965270996 5.086091041564941 L -22.527999877929688 5.091960430145264 L -22.192909240722656 5.340636253356934 L -21.906545639038086 5.5442728996276855 L -21.6730899810791 5.71045446395874 L -21.65506935119629 5.723100185394287 L -21.485363006591797 5.84218168258667 L -21.248271942138672 6.003272533416748 L -21.040727615356445 6.144000053405762 L -20.894454956054688 6.2431817054748535 L -20.654090881347656 6.399181842803955 L -20.479999542236328 6.51244592666626 L -20.237619400024414 6.670138835906982 L -20.23154640197754 6.67409086227417 L -20.101091384887695 6.754909038543701 L -19.857454299926758 6.906181812286377 L -19.55900001525879 7.09072732925415 L -19.25736427307129 7.269545555114746 L -19.010818481445312 7.415363788604736 L -18.811635971069336 7.531181812286377 L -18.561819076538086 7.671908855438232 L -18.43199920654297 7.744917869567871 L -18.189544677734375 7.881272792816162 L -17.880271911621094 8.04736328125 L -17.627546310424805 8.182636260986328 L -17.60987091064453 8.192000389099121 L -17.424545288085938 8.290182113647461 L -17.169273376464844 8.420363426208496 L -16.7880916595459 8.613818168640137 L -16.384000778198242 8.809346199035645 L -16.33436393737793 8.83336353302002 L -16.076181411743164 8.958090782165527 L -15.687363624572754 9.136272430419922 L -15.427000045776367 9.255545616149902 L -15.217000007629395 9.348454475402832 L -14.953727722167969 9.462272644042969 L -14.631091117858887 9.601635932922363 L -14.336000442504883 9.721986770629883 L -14.30654525756836 9.734000205993652 L -14.041090965270996 9.842363357543945 L -13.924737930297852 9.889843940734863 L -13.899181365966797 9.900272369384766 L -13.42827320098877 10.081000328063965 L -13.16100025177002 10.18390941619873 L -13.00551986694336 10.239999771118164 L -12.758818626403809 10.329000473022461 L -12.48900032043457 10.426091194152832 L -12.288000106811523 10.49505615234375 L -12.272000312805176 10.500545501708984 L -12.00036334991455 10.591817855834961 L -11.667545318603516 10.703818321228027 L -11.259635925292969 10.831727027893066 L -10.98618221282959 10.917545318603516 L -10.9817533493042 10.918863296508789 z" fill="none" stroke="rgb(0,0,255)" stroke-width="0.01mm" />
</svg>