<?xml version="1.0" standalone="no"?>
<!DOCTYPE svg PUBLIC "-//W3C//DTD SVG 1.1//EN"
  "http://www.w3.org/Graphics/SVG/1.1/DTD/svg11.dtd">
<svg width="102mm" height="76.58200073242188mm" viewBox="-51 -38.29100036621094 102 76.58200073242188" xmlns="http://www.w3.org/2000/svg" version="1.1">
	<title>svgOutput</title>
	<desc>made with tinkercad</desc>
<path d="M 20.93155288696289 20.66469955444336 L 21.002609252929688 20.62262535095215 L 21.072917938232422 20.579057693481445 L 21.133878707885742 20.54109764099121 L 21.194089889526367 20.502016067504883 L 21.22748565673828 20.479999542236328 L 22.033926010131836 19.9483585357666 L 22.133031845092773 19.883283615112305 L 22.231016159057617 19.8165283203125 L 22.2983341217041 19.768844604492188 L 23.053617477416992 19.23957633972168 L 23.17852783203125 19.148698806762695 L 23.247732162475586 19.09635353088379 L 24.293163299560547 18.30561065673828 L 24.35075569152832 18.262788772583008 L 24.472862243652344 18.167984008789062 L 24.564861297607422 18.09356117248535 L 24.576000213623047 18.084529876708984 L 25.042097091674805 17.70656967163086 L 25.133163452148438 17.63064956665039 L 26.128284454345703 16.775365829467773 L 26.183073043823242 16.728992462158203 L 26.216876983642578 16.699222564697266 L 26.282588958740234 16.641353607177734 L 26.299007415771484 16.626893997192383 L 26.35978126525879 16.570796966552734 L 26.518310546875 16.42707061767578 L 26.565162658691406 16.384000778198242 L 26.624000549316406 16.329912185668945 L 26.835281372070312 16.13568687438965 L 27.101118087768555 15.885774612426758 L 27.12244415283203 15.86572551727295 L 27.433149337768555 15.568076133728027 L 27.56597900390625 15.44097900390625 L 27.646957397460938 15.359999656677246 L 28.149456024169922 14.857501029968262 L 28.36261749267578 14.634658813476562 L 28.41217041015625 14.58286190032959 L 28.41254425048828 14.582464218139648 L 28.518007278442383 14.470293045043945 L 28.643339157104492 14.336000442504883 L 28.672000885009766 14.305288314819336 L 29.22288703918457 13.715007781982422 L 29.278797149658203 13.65423583984375 L 29.341733932495117 13.582768440246582 L 29.38089370727539 13.538300514221191 L 29.427268981933594 13.483511924743652 L 30.33946418762207 12.424975395202637 L 30.415382385253906 12.333910942077637 L 30.452547073364258 12.288000106811523 L 30.8023738861084 11.85586166381836 L 30.876983642578125 11.763861656188965 L 30.949724197387695 11.670178413391113 L 31.343219757080078 11.16204833984375 L 31.358400344848633 11.141865730285645 L 31.40791893005371 11.076032638549805 L 32.035560607910156 10.219121932983398 L 32.105682373046875 10.12356948852539 L 32.14765167236328 10.064448356628418 L 32.17430877685547 10.026894569396973 L 32.22068405151367 9.95864200592041 L 32.744258880615234 9.200105667114258 L 32.768001556396484 9.164365768432617 L 32.829715728759766 9.071455001831055 L 33.21101760864258 8.486089706420898 L 33.250099182128906 8.425690650939941 L 33.288055419921875 8.364731788635254 L 33.392845153808594 8.192000389099121 L 33.98399353027344 7.2175774574279785 L 33.992454528808594 7.203899383544922 L 34.027374267578125 7.147455215454102 L 34.0694465637207 7.076211452484131 L 34.14125061035156 6.95186185836792 L 34.6298713684082 6.072999954223633 L 34.670448303222656 6.001008033752441 L 34.709529876708984 5.9282684326171875 L 34.7248649597168 5.899542808532715 L 34.74337387084961 5.864878177642822 L 34.78096008300781 5.791390419006348 L 35.2443733215332 4.897894382476807 L 35.29261779785156 4.80159330368042 L 35.597496032714844 4.17313814163208 L 35.63478088378906 4.0960001945495605 L 35.648231506347656 4.068171501159668 L 35.649105072021484 4.066365718841553 L 35.69847106933594 3.958658456802368 L 35.98871612548828 3.3228862285614014 L 36.03209686279297 3.22434139251709 L 36.56136703491211 1.9617397785186768 L 36.594276428222656 1.8858211040496826 L 36.62139129638672 1.8194390535354614 L 36.64412307739258 1.7624635696411133 L 36.66533279418945 1.7093007564544678 L 36.885658264160156 1.135317087173462 L 36.92658996582031 1.0290433168411255 L 36.92829132080078 1.0246179103851318 L 36.96830749511719 0.9131707549095154 L 37.17643737792969 0.3351219594478608 L 37.21495819091797 0.22311381995677954 L 37.290008544921875 4.440892164675075e-17 L 37.45560836791992 -0.49233332276344294 L 37.47861099243164 -0.5603983998298645 L 37.480045318603516 -0.5649783611297607 L 37.50011444091797 -0.6290243864059448 L 37.77816390991211 -1.5371544361114502 L 37.8028450012207 -1.6158781051635742 L 37.81285095214844 -1.6504465341567993 L 37.825843811035156 -1.6953495740890503 L 37.83489990234375 -1.726486325263977 L 37.84585189819336 -1.7641626596450806 L 37.86717224121094 -1.8440080881118774 L 38.02827072143555 -2.4306702613830566 L 38.14847183227539 -2.868398427963257 L 38.167171478271484 -2.937772274017334 L 38.18418884277344 -3.0075204372406006 L 38.44095230102539 -4.0960001945495605 L 38.46630096435547 -4.203455448150635 L 38.47157669067383 -4.224814414978027 L 38.486122131347656 -4.283674716949463 L 38.50423049926758 -4.364901065826416 L 38.51064682006836 -4.393682479858398 L 38.51192855834961 -4.399422645568848 L 38.533992767333984 -4.504886150360107 L 38.57441329956055 -4.697443962097168 L 38.6595344543457 -5.119376182556152 L 38.65965270996094 -5.119999885559082 L 38.71734619140625 -5.416571617126465 L 38.79358673095703 -5.840070724487305 L 38.847103118896484 -6.138221740722656 L 38.84803009033203 -6.144000053405762 L 38.857872009277344 -6.20529842376709 L 38.88054656982422 -6.346545696258545 L 38.909217834472656 -6.527634620666504 L 39.018131256103516 -7.258569240570068 L 39.02762985229492 -7.328167915344238 L 39.027854919433594 -7.329813003540039 L 39.02801513671875 -7.331001281738281 L 39.02803421020508 -7.331129550933838 L 39.03343200683594 -7.370453834533691 L 39.0390739440918 -7.411528587341309 L 39.04861068725586 -7.493618011474609 L 39.13466262817383 -8.192000389099121 L 39.168121337890625 -8.463536262512207 L 39.184017181396484 -8.617243766784668 L 39.279136657714844 -9.688788414001465 L 39.28848648071289 -9.796121597290039 L 39.29240798950195 -9.848816871643066 L 39.29727554321289 -9.914300918579102 L 39.30344772338867 -10.032666206359863 L 39.35954284667969 -10.966813087463379 L 39.36664962768555 -11.192886352539062 L 39.390602111816406 -11.961785316467285 L 39.39104080200195 -11.975812911987305 L 39.394344329833984 -12.288000106811523 L 39.397544860839844 -12.590447425842285 L 39.39885330200195 -12.708999633789062 L 39.397544860839844 -12.82736587524414 L 39.39104080200195 -13.442000389099121 L 39.390586853027344 -13.456549644470215 L 39.36664962768555 -14.224113464355469 L 39.36033248901367 -14.425278663635254 L 39.35954284667969 -14.450373649597168 L 39.327022552490234 -15.064194679260254 L 39.32085418701172 -15.182560920715332 L 39.31206512451172 -15.300740242004395 L 39.26491165161133 -15.941390037536621 L 39.26156997680664 -15.979757308959961 L 39.25556182861328 -16.048723220825195 L 39.22177505493164 -16.384000778198242 L 39.14905548095703 -17.105634689331055 L 39.13727569580078 -17.223438262939453 L 39.123626708984375 -17.341243743896484 L 39.11240768432617 -17.423147201538086 L 38.98883056640625 -18.36542320251465 L 38.96788787841797 -18.507349014282227 L 38.9360237121582 -18.71075439453125 L 38.85975646972656 -19.197593688964844 L 38.8466682434082 -19.279308319091797 L 38.825721740722656 -19.395992279052734 L 38.717594146728516 -20.000869750976562 L 38.71193313598633 -20.029964447021484 L 38.694969177246094 -20.117177963256836 L 38.62179946899414 -20.479999542236328 L 38.55675506591797 -20.80254554748535 L 38.52683639526367 -20.942975997924805 L 38.22195816040039 -22.248666763305664 L 38.204010009765625 -22.329259872436523 L 38.17577362060547 -22.444446563720703 L 38.14847183227539 -22.548601150512695 L 37.84648895263672 -23.635337829589844 L 37.781803131103516 -23.868114471435547 L 37.7604866027832 -23.947959899902344 L 37.71747970581055 -24.09624481201172 L 37.69279861450195 -24.175153732299805 L 37.562042236328125 -24.576000213623047 L 37.259464263916016 -25.503610610961914 L 37.23796081542969 -25.57204818725586 L 37.195194244384766 -25.697221755981445 L 37.17643737792969 -25.75212287902832 L 36.96830749511719 -26.330171585083008 L 36.92829132080078 -26.441804885864258 L 36.885658264160156 -26.55250358581543 L 36.86399841308594 -26.608928680419922 L 36.66533279418945 -27.126487731933594 L 36.64508056640625 -27.177167892456055 L 36.62139129638672 -27.236438751220703 L 36.11488723754883 -28.44782066345215 L 36.087772369384766 -28.514204025268555 L 36.06967544555664 -28.555950164794922 L 36.05486297607422 -28.59012222290039 L 36.03450393676758 -28.635929107666016 L 36.03445053100586 -28.63604736328125 L 36.03436279296875 -28.63624382019043 L 36.018470764160156 -28.672000885009766 L 35.99652099609375 -28.721389770507812 L 35.91621780395508 -28.90065574645996 L 35.73710632324219 -29.292301177978516 L 35.64918899536133 -29.48390007019043 L 35.51731491088867 -29.756729125976562 L 35.33415985107422 -30.135282516479492 L 35.32984924316406 -30.144195556640625 L 35.06753158569336 -30.659271240234375 L 35.0366325378418 -30.719999313354492 L 34.872230529785156 -31.04308319091797 L 34.752559661865234 -31.26569938659668 L 34.69646453857422 -31.370040893554688 L 34.655887603759766 -31.442031860351562 L 34.14125061035156 -32.36886215209961 L 34.0694465637207 -32.4933967590332 L 34.027374267578125 -32.564456939697266 L 33.98399353027344 -32.634578704833984 L 33.90327453613281 -32.768001556396484 L 33.33277130126953 -33.71099853515625 L 33.255733489990234 -33.832359313964844 L 32.985286712646484 -34.248863220214844 L 32.829715728759766 -34.48845672607422 L 32.768001556396484 -34.58136749267578 L 32.744258880615234 -34.61710739135742 L 32.22068405151367 -35.3764533996582 L 32.17430877685547 -35.444705963134766 L 32.105682373046875 -35.5413818359375 L 32.035560607910156 -35.63693618774414 L 31.40791893005371 -36.49303436279297 L 31.382898330688477 -36.52629852294922 L 31.343219757080078 -36.57904815673828 L 30.873300552368164 -37.1806755065918 L 30.787097930908203 -37.29100036621094 L 30.968141555786133 -37.29100036621094 L 32.768001556396484 -37.29100036621094 L 37.972999572753906 -37.29100036621094 L 50 -37.29100036621094 L 50 -32.768001556396484 L 50 -16.384000778198242 L 50 4.440892164675075e-17 L 50 16.384000778198242 L 50 32.768001556396484 L 50 37.29100036621094 L 32.768001556396484 37.29100036621094 L 0 37.29100036621094 L -32.768001556396484 37.29100036621094 L -50 37.29100036621094 L -50 32.768001556396484 L -50 16.384000778198242 L -50 4.440892164675075e-17 L -50 -16.384000778198242 L -50 -32.768001556396484 L -50 -37.29100036621094 L -32.768001556396484 -37.29100036621094 L -30.87866973876953 -37.29100036621094 L -30.791885375976562 -37.29100036621094 L -30.79046630859375 -37.29100036621094 L -30.787097930908203 -37.29100036621094 L -30.8635196685791 -37.197505950927734 L -30.949724197387695 -37.08717727661133 L -31.343219757080078 -36.57904815673828 L -31.47804069519043 -36.39748001098633 L -31.92763328552246 -35.79179000854492 L -32.45608901977539 -35.036502838134766 L -32.524715423583984 -34.9398307800293 L -32.55769729614258 -34.89128494262695 L -32.591285705566406 -34.84184646606445 L -32.65654373168945 -34.74292755126953 L -32.768001556396484 -34.5741081237793 L -33.21101760864258 -33.9030876159668 L -33.22123718261719 -33.88698959350586 L -33.288055419921875 -33.78173065185547 L -33.90304946899414 -32.768001556396484 L -33.98399353027344 -32.634578704833984 L -34.027374267578125 -32.564456939697266 L -34.061614990234375 -32.50662612915039 L -34.0694465637207 -32.4933967590332 L -34.14125061035156 -32.36886215209961 L -34.6298713684082 -31.489999771118164 L -34.670448303222656 -31.41800880432129 L -34.686641693115234 -31.387889862060547 L -34.72654342651367 -31.31366729736328 L -34.78096008300781 -31.208391189575195 L -35.28177261352539 -30.240097045898438 L -35.29209899902344 -30.219484329223633 L -35.33001708984375 -30.143796920776367 L -35.597496032714844 -29.590951919555664 L -35.649105072021484 -29.48417854309082 L -35.69847106933594 -29.37647247314453 L -35.98871612548828 -28.740699768066406 L -36.018959045410156 -28.672000885009766 L -36.03209686279297 -28.642154693603516 L -36.56136703491211 -27.378740310668945 L -36.594276428222656 -27.302820205688477 L -36.62223815917969 -27.233428955078125 L -36.66533279418945 -27.126487731933594 L -36.885658264160156 -26.55250358581543 L -36.92555618286133 -26.448915481567383 L -36.92829132080078 -26.441804885864258 L -36.96830749511719 -26.330171585083008 L -37.17643737792969 -25.75212287902832 L -37.21495819091797 -25.640113830566406 L -37.45560836791992 -24.924667358398438 L -37.50011444091797 -24.788162231445312 L -37.5650749206543 -24.576000213623047 L -37.77816390991211 -23.88003158569336 L -37.8028450012207 -23.801122665405273 L -37.81261444091797 -23.767505645751953 L -37.835941314697266 -23.687244415283203 L -37.86717224121094 -23.5729923248291 L -38.14847183227539 -22.548601150512695 L -38.168758392333984 -22.469575881958008 L -38.18418884277344 -22.40947914123535 L -38.46630096435547 -21.213544845581055 L -38.486122131347656 -21.133325576782227 L -38.50204086303711 -21.062028884887695 L -38.51192855834961 -21.017765045166016 L -38.51461410522461 -21.004928588867188 L -38.51471710205078 -21.004430770874023 L -38.51487731933594 -21.003658294677734 L -38.514923095703125 -21.00344467163086 L -38.533992767333984 -20.91230010986328 L -38.57441329956055 -20.720556259155273 L -38.5823974609375 -20.68094253540039 L -38.62288284301758 -20.479999542236328 L -38.6595344543457 -20.2981014251709 L -38.71734619140625 -20.000905990600586 L -38.79358673095703 -19.577407836914062 L -38.847103118896484 -19.27925682067871 L -38.8541259765625 -19.235170364379883 L -38.909217834472656 -18.889366149902344 L -38.97736740112305 -18.43199920654297 L -39.018131256103516 -18.158430099487305 L -39.02792739868164 -18.086872100830078 L -39.0280876159668 -18.085712432861328 L -39.02816390991211 -18.085161209106445 L -39.0390739440918 -18.00547218322754 L -39.04861068725586 -17.923381805419922 L -39.168121337890625 -16.95427703857422 L -39.184017181396484 -16.800756454467773 L -39.20656967163086 -16.563682556152344 L -39.223663330078125 -16.384000778198242 L -39.25556182861328 -16.048723220825195 L -39.26771545410156 -15.905488014221191 L -39.33113098144531 -14.958333015441895 L -39.33711242675781 -14.876056671142578 L -39.338783264160156 -14.843998908996582 L -39.343284606933594 -14.757691383361816 L -39.34777069091797 -14.639138221740723 L -39.38923645019531 -13.493609428405762 L -39.39222717285156 -13.350000381469727 L -39.3946647644043 -12.45569133758545 L -39.39560317993164 -12.373228073120117 L -39.39503479003906 -12.32110595703125 L -39.39467239379883 -12.288000106811523 L -39.393917083740234 -12.218771934509277 L -39.386600494384766 -11.771617889404297 L -39.38174057006836 -11.617162704467773 L -39.35816192626953 -10.947243690490723 L -39.350120544433594 -10.79316234588623 L -39.344139099121094 -10.710699081420898 L -39.27421951293945 -9.59525203704834 L -39.26206588745117 -9.452202796936035 L -39.254398345947266 -9.369926452636719 L -39.22126770019531 -9.017393112182617 L -39.170658111572266 -8.478870391845703 L -39.16164016723633 -8.400947570800781 L -39.15289306640625 -8.325349807739258 L -39.14167404174805 -8.243634223937988 L -39.1351203918457 -8.192000389099121 L -39.00102615356445 -7.135504245758057 L -38.99275207519531 -7.074899196624756 L -38.991302490234375 -7.064260005950928 L -38.980079650878906 -6.993390083312988 L -38.85975646972656 -6.219406604766846 L -38.8466682434082 -6.137877941131592 L -38.825721740722656 -6.021194934844971 L -38.71678161621094 -5.416316986083984 L -38.69415283203125 -5.300008296966553 L -38.55675506591797 -4.615455150604248 L -38.52683639526367 -4.474837303161621 L -38.43843460083008 -4.0960001945495605 L -38.22195816040039 -3.1683332920074463 L -38.204010009765625 -3.087739944458008 L -38.18861389160156 -3.0254335403442383 L -38.18418884277344 -3.0075204372406006 L -38.167171478271484 -2.937772274017334 L -38.16455841064453 -2.928086280822754 L -38.14847183227539 -2.868398427963257 L -37.86717224121094 -1.8440080881118774 L -37.84695816040039 -1.768301010131836 L -37.84585189819336 -1.7641626596450806 L -37.825843811035156 -1.6953495740890503 L -37.81285095214844 -1.6504465341567993 L -37.8028450012207 -1.6158781051635742 L -37.77816390991211 -1.5371544361114502 L -37.50011444091797 -0.6290243864059448 L -37.47861099243164 -0.5603983998298645 L -37.45560836791992 -0.49233332276344294 L -37.290008544921875 4.440892164675075e-17 L -37.21495819091797 0.22311381995677954 L -37.17643737792969 0.3351219594478608 L -36.96830749511719 0.9131707549095154 L -36.92829132080078 1.0246179103851318 L -36.92658996582031 1.0290433168411255 L -36.885658264160156 1.135317087173462 L -36.86399841308594 1.1917411088943481 L -36.66533279418945 1.7093007564544678 L -36.64412307739258 1.7624635696411133 L -36.62139129638672 1.8194390535354614 L -36.525760650634766 2.0480000972747803 L -36.11488723754883 3.03000807762146 L -36.087989807128906 3.095858097076416 L -36.087772369384766 3.0963902473449707 L -36.05486297607422 3.172308921813965 L -36.054832458496094 3.172374725341797 L -35.99652099609375 3.3033902645111084 L -35.91621780395508 3.483177661895752 L -35.73710632324219 3.874300241470337 L -35.64918899536133 4.066378593444824 L -35.64834213256836 4.0681352615356445 L -35.63487243652344 4.0960001945495605 L -35.51731491088867 4.339206218719482 L -35.32984924316406 4.727195739746094 L -35.32779312133789 4.731298923492432 L -35.206573486328125 4.973266124725342 L -35.01127243041992 5.356555938720703 L -34.91592025756836 5.542994022369385 L -34.91523361206055 5.544334411621094 L -34.76939010620117 5.816097736358643 L -34.73554611206055 5.879487991333008 L -34.73489761352539 5.8806939125061035 L -34.73482894897461 5.880823135375977 L -34.69646453857422 5.952227592468262 L -34.69377136230469 5.957004070281982 L -34.69371795654297 5.957098484039307 L -34.655887603759766 6.024219512939453 L -34.58943557739258 6.144000053405762 L -34.14125061035156 6.95186185836792 L -34.0694465637207 7.076211452484131 L -34.058231353759766 7.095204830169678 L -34.027374267578125 7.147455215454102 L -33.98399353027344 7.2175774574279785 L -33.97376251220703 7.234439373016357 L -33.392845153808594 8.192000389099121 L -33.288055419921875 8.364731788635254 L -33.250099182128906 8.425690650939941 L -33.21101760864258 8.486089706420898 L -33.165950775146484 8.555276870727539 L -33.12556076049805 8.614739418029785 L -32.768001556396484 9.152681350708008 L -32.39873123168945 9.708235740661621 L -32.35235595703125 9.776487350463867 L -32.26297378540039 9.90233325958252 L -32.2136116027832 9.96871566772461 L -31.40791893005371 11.076032638549805 L -31.343219757080078 11.16204833984375 L -30.949724197387695 11.670178413391113 L -30.915916442871094 11.71371841430664 L -30.876983642578125 11.763861656188965 L -30.8023738861084 11.85586166381836 L -30.452547073364258 12.288000106811523 L -30.415382385253906 12.333910942077637 L -30.33946418762207 12.424975395202637 L -29.85247230529785 13.001398086547852 L -29.758602142333984 13.110227584838867 L -29.125268936157227 13.818357467651367 L -29.070667266845703 13.88025188446045 L -29.04416275024414 13.909041404724121 L -28.990447998046875 13.967390060424805 L -28.908918380737305 14.053593635559082 L -28.19916343688965 14.805625915527344 L -28.14961051940918 14.857422828674316 L -28.132484436035156 14.874547958374023 L -27.566423416137695 15.4406099319458 L -27.454975128173828 15.547569274902344 L -27.402057647705078 15.595999717712402 L -26.56315040588379 16.384000778198242 L -26.424007415771484 16.514699935913086 L -26.363235473632812 16.570796966552734 L -26.274227142333984 16.649147033691406 L -25.791301727294922 17.073535919189453 L -25.709585189819336 17.143657684326172 L -25.133163452148438 17.63064956665039 L -25.042097091674805 17.70656967163086 L -24.576000213623047 18.084529876708984 L -24.564861297607422 18.09356117248535 L -24.472862243652344 18.167984008789062 L -24.379179000854492 18.24072265625 L -23.871047973632812 18.634220123291016 L -23.785032272338867 18.699106216430664 L -22.92812156677246 19.32674789428711 L -22.832382202148438 19.396682739257812 L -22.76822853088379 19.442312240600586 L -22.73589515686035 19.465309143066406 L -22.667455673217773 19.511869430541992 L -21.908918380737305 20.03544807434082 L -21.7802677154541 20.120716094970703 L -21.227935791015625 20.479999542236328 L -21.194089889526367 20.502016067504883 L -21.133878707885742 20.54109764099121 L -21.072917938232422 20.579057693481445 L -20.479999542236328 20.93990707397461 L -19.976171493530273 21.246536254882812 L -19.905860900878906 21.29010581970215 L -19.83480453491211 21.332178115844727 L -19.7104549407959 21.40398406982422 L -19.539701461791992 21.50206184387207 L -19.16476821899414 21.713550567626953 L -19.005958557128906 21.802648544311523 L -18.980812072753906 21.816757202148438 L -18.794944763183594 21.91661834716797 L -18.43199920654297 22.110822677612305 L -18.41530990600586 22.119752883911133 L -18.271615982055664 22.196897506713867 L -18.253334045410156 22.20671272277832 L -18.065078735351562 22.302274703979492 L -17.68126678466797 22.498096466064453 L -17.6215763092041 22.527999877929688 L -17.472471237182617 22.602697372436523 L -17.435195922851562 22.621370315551758 L -17.20796775817871 22.730772018432617 L -17.101381301879883 22.78238296508789 L -17.02621078491211 22.816787719726562 L -16.384000778198242 23.115907669067383 L -16.064422607421875 23.264755249023438 L -15.933154106140137 23.323097229003906 L -14.670553207397461 23.852365493774414 L -14.594820976257324 23.885276794433594 L -14.528251647949219 23.912389755249023 L -14.41830062866211 23.956520080566406 L -13.844317436218262 24.17684555053711 L -13.733617782592773 24.21929359436035 L -13.588325500488281 24.271650314331055 L -13.50997543334961 24.298015594482422 L -12.711841583251953 24.576000213623047 L -12.296154022216797 24.720781326293945 L -12.228089332580566 24.743593215942383 L -12.159650802612305 24.76509666442871 L -11.708989143371582 24.904075622558594 L -11.171032905578613 25.069974899291992 L -11.092122077941895 25.09465789794922 L -11.012837409973145 25.117658615112305 L -10.964188575744629 25.131765365600586 L -10.94383716583252 25.137666702270508 L -10.864178657531738 25.159170150756836 L -9.840601921081543 25.439659118652344 L -9.771227836608887 25.45816993713379 L -9.7014799118042 25.475374221801758 L -9.692001342773438 25.477693557739258 L -9.621259689331055 25.49500846862793 L -9.54047966003418 25.513145446777344 L -8.233975410461426 25.818838119506836 L -8.192000389099121 25.828153610229492 L -8.164040565490723 25.83435821533203 L -8.093544960021973 25.848569869995117 L -7.408178806304932 25.9859676361084 L -7.2918701171875 26.00878143310547 L -6.6869916915893555 26.11772346496582 L -6.570309162139893 26.1386661529541 L -6.488780498504639 26.151569366455078 L -6.0445780754089355 26.221155166625977 L -5.798536777496338 26.25969886779785 L -5.727479457855225 26.270917892456055 L -5.7230329513549805 26.271526336669922 L -5.6564226150512695 26.280641555786133 L -4.714146137237549 26.403406143188477 L -4.632244110107422 26.41462516784668 L -4.5146260261535645 26.42827606201172 L -4.396634101867676 26.440244674682617 L -4.0960001945495605 26.470561981201172 L -3.474341630935669 26.533254623413086 L -3.340536594390869 26.5467472076416 L -3.1974878311157227 26.5587158203125 L -2.2495203018188477 26.622129440307617 L -2.1670567989349365 26.628114700317383 L -2.0486910343170166 26.63428497314453 L -1.9303251504898071 26.63877296447754 L -0.9246341586112976 26.677797317504883 L -0.8589485883712769 26.679393768310547 L -0.8169268369674683 26.6804141998291 L 0 26.6804141998291 L 0.4385122060775757 26.6804141998291 L 0.5798211097717285 26.6804141998291 L 0.6983739733695984 26.68172264099121 L 0.8169268369674683 26.6804141998291 L 0.9246341586112976 26.677797317504883 L 2.0281565189361572 26.631988525390625 L 2.2368292808532715 26.62332534790039 L 2.3192927837371826 26.62070655822754 L 2.4735610485076904 26.612667083740234 L 2.5560243129730225 26.6066837310791 L 3.8088698387145996 26.50180435180664 L 3.8508400917053223 26.498737335205078 L 3.8804879188537598 26.49656867980957 L 3.951918601989746 26.489837646484375 L 3.9919681549072266 26.485641479492188 L 4.0960001945495605 26.47474479675293 L 4.105439186096191 26.473756790161133 L 4.300388813018799 26.453556060791016 L 4.728065490722656 26.403947830200195 L 4.937822341918945 26.379579544067383 L 5.147101879119873 26.35091209411621 L 5.573733806610107 26.29242515563965 L 5.755300045013428 26.267580032348633 L 5.757436275482178 26.267242431640625 L 5.936866760253906 26.238910675048828 L 6.144000053405762 26.206085205078125 L 6.361932277679443 26.17154884338379 L 6.570255756378174 26.138580322265625 L 6.873560905456543 26.08419418334961 L 6.976650238037109 26.065690994262695 L 6.990243911743164 26.063251495361328 L 7.106553077697754 26.04043960571289 L 8.093544960021973 25.848569869995117 L 8.164040565490723 25.83435821533203 L 8.192000389099121 25.828153610229492 L 8.233975410461426 25.818838119506836 L 9.22828483581543 25.590381622314453 L 9.309064865112305 25.57224464416504 L 9.389284133911133 25.552610397338867 L 9.45903205871582 25.5354061126709 L 9.528406143188477 25.51689338684082 L 10.569056510925293 25.244537353515625 L 10.648715019226074 25.223031997680664 L 10.7177152633667 25.20302391052246 L 10.7338285446167 25.19835090637207 L 10.79699993133545 25.180025100708008 L 10.832901000976562 25.168794631958008 L 10.875910758972168 25.15534210205078 L 11.735897064208984 24.895021438598633 L 12.07916259765625 24.791112899780273 L 12.147602081298828 24.769609451293945 L 12.215666770935059 24.746797561645508 L 12.70825481414795 24.576000213623047 L 13.50997543334961 24.298015594482422 L 13.588325500488281 24.271650314331055 L 13.733617782592773 24.21929359436035 L 13.844317436218262 24.17684555053711 L 14.41830062866211 23.956520080566406 L 14.507302284240723 23.920799255371094 L 14.528251647949219 23.912389755249023 L 14.594820976257324 23.885276794433594 L 14.670553207397461 23.852365493774414 L 15.933154106140137 23.323097229003906 L 16.064422607421875 23.264755249023438 L 16.384000778198242 23.11431884765625 L 17.269939422607422 22.6972713470459 L 17.328649520874023 22.669633865356445 L 17.40382194519043 22.63522720336914 L 17.510406494140625 22.5836181640625 L 17.606706619262695 22.53537368774414 L 18.50020408630371 22.072772979736328 L 18.573877334594727 22.03537368774414 L 18.63726806640625 22.001340866088867 L 18.71000862121582 21.96225929260254 L 18.781999588012695 21.9218692779541 L 19.66086196899414 21.43243980407715 L 19.78521156311035 21.360633850097656 L 19.82006072998047 21.3394775390625 L 20.93155288696289 20.66469955444336 z" fill="none" stroke="rgb(0,0,255)" stroke-width="0.01mm" />
</svg>