<?xml version="1.0" standalone="no"?>
<!DOCTYPE svg PUBLIC "-//W3C//DTD SVG 1.1//EN"
  "http://www.w3.org/Graphics/SVG/1.1/DTD/svg11.dtd">
<svg width="102mm" height="54.630001068115234mm" viewBox="-51 -27.315000534057617 102 54.630001068115234" xmlns="http://www.w3.org/2000/svg" version="1.1">
	<title>svgOutput</title>
	<desc>made with tinkercad</desc>
<path d="M -36.383094787597656 -14.89919662475586 L -36.307472229003906 -14.590888023376465 L -36.2598991394043 -14.39693832397461 L -36.259552001953125 -14.395687103271484 L -36.12096405029297 -13.896777153015137 L -35.989646911621094 -13.408056259155273 L -35.98355484008789 -13.385042190551758 L -35.98231887817383 -13.38078498840332 L -35.83599090576172 -12.876691818237305 L -35.78978729248047 -12.727741241455078 L -35.6862678527832 -12.397769927978516 L -35.65182876586914 -12.288000106811523 L -35.638160705566406 -12.244436264038086 L -35.60599899291992 -12.142266273498535 L -35.59426498413086 -12.105600357055664 L -35.5273323059082 -11.906399726867676 L -35.3500862121582 -11.379741668701172 L -35.3484001159668 -11.374732971191406 L -35.15406799316406 -10.835000038146973 L -35.085693359375 -10.644986152648926 L -35.08286666870117 -10.637133598327637 L -35.00740051269531 -10.440866470336914 L -34.930355072021484 -10.239999771118164 L -34.802066802978516 -9.905533790588379 L -34.728797912597656 -9.726214408874512 L -34.59205627441406 -9.391844749450684 L -34.53723907470703 -9.257801055908203 L -34.50621795654297 -9.182195663452148 L -34.49742126464844 -9.160534858703613 L -34.495765686035156 -9.156709671020508 L -34.296382904052734 -8.696182250976562 L -34.28758239746094 -8.674521446228027 L -34.277427673339844 -8.652860641479492 L -34.07872009277344 -8.207626342773438 L -34.07155990600586 -8.192000389099121 L -33.862789154052734 -7.736505508422852 L -33.76133728027344 -7.526489734649658 L -33.53593063354492 -7.060783386230469 L -33.41121292114258 -6.815226078033447 L -33.176326751708984 -6.353581428527832 L -33.16008377075195 -6.322444438934326 L -32.92045974731445 -5.876368522644043 L -32.7899284362793 -5.633718967437744 L -32.768001556396484 -5.594832420349121 L -32.529998779296875 -5.172751426696777 L -32.518489837646484 -5.152444362640381 L -32.285213470458984 -4.7485671043396 L -32.03038024902344 -4.317829608917236 L -32.027313232421875 -4.3126444816589355 L -31.748432159423828 -3.8625073432922363 L -31.59237289428711 -3.610487937927246 L -31.316875457763672 -3.186072587966919 L -31.177942276000977 -2.9731485843658447 L -31.165081024169922 -2.9535186290740967 L -30.880783081054688 -2.5351955890655518 L -30.749603271484375 -2.34230375289917 L -30.729297637939453 -2.313197135925293 L -30.429431915283203 -1.890812635421753 L -30.269495010375977 -1.6662569046020508 L -29.953384399414062 -1.2411648035049438 L -29.93916893005371 -1.2228885889053345 L -29.64417839050293 -0.8348432779312134 L -29.32904815673828 -0.4283329546451568 L -29.326711654663086 -0.42531988024711603 L -29.13694953918457 -0.19146235287189478 L -29.00044822692871 -0.023242326453328088 L -28.98159408569336 4.440892164675075e-17 L -28.826942443847656 0.19065104424953466 L -28.672000885009766 0.37420248985290533 L -28.50067710876465 0.5771599411964417 L -28.35011100769043 0.7551890015602112 L -28.327096939086914 0.7822649478912354 L -28.17265510559082 0.9573861360549927 L -27.830142974853516 1.345248818397522 L -27.81389808654785 1.362848162651062 L -27.642332077026367 1.5502471923828125 L -27.299819946289062 1.9225411415100098 L -27.225788116455078 1.9999679327011108 L -27.109514236450195 2.1215717792510986 L -26.743310928344727 2.5040194988250732 L -26.18902015686035 3.058311700820923 L -25.80657196044922 3.4251906871795654 L -25.607542037963867 3.615497589111328 L -25.235246658325195 3.958008050918579 L -25.084545135498047 4.0960001945495605 L -25.047929763793945 4.1295270919799805 L -25.04752540588379 4.1298980712890625 L -25.029926300048828 4.1454668045043945 L -24.641386032104492 4.487977504730225 L -24.576000213623047 4.545628547668457 L -24.466588973999023 4.642096996307373 L -24.451763153076172 4.655020713806152 L -24.440189361572266 4.665111541748047 L -24.261837005615234 4.815676689147949 L -23.875328063964844 5.142618656158447 L -23.661758422851562 5.3164472579956055 L -23.516857147216797 5.433586120605469 L -23.259002685546875 5.642035484313965 L -22.850156784057617 5.959500789642334 L -22.608339309692383 6.144000053405762 L -22.532546997070312 6.201827049255371 L -22.527999877929688 6.205376625061035 L -22.509170532226562 6.220073223114014 L -22.50479507446289 6.223487854003906 L -22.23651123046875 6.42241096496582 L -22.088502883911133 6.532153606414795 L -22.000732421875 6.597266674041748 L -21.543867111206055 6.922133445739746 L -21.37266731262207 7.0437331199646 L -21.34113311767578 7.065733432769775 L -21.167266845703125 7.184133529663086 L -20.72607421875 7.483973026275635 L -20.725343704223633 7.484468936920166 L -20.714067459106445 7.492133140563965 L -20.692066192626953 7.506066799163818 L -20.51580047607422 7.620466709136963 L -20.479999542236328 7.643705368041992 L -20.055999755859375 7.918933391571045 L -19.89128303527832 8.02110481262207 L -19.615859985351562 8.192000389099121 L -19.441822052001953 8.299986839294434 L -19.42784881591797 8.308566093444824 L -19.37235450744629 8.342636108398438 L -18.926279067993164 8.606626510620117 L -18.725309371948242 8.725205421447754 L -18.696014404296875 8.742131233215332 L -18.694849014282227 8.742804527282715 L -18.491619110107422 8.857182502746582 L -18.43199920654297 8.890741348266602 L -18.050281524658203 9.10560417175293 L -17.807954788208008 9.23646068572998 L -17.36302375793457 9.475153923034668 L -17.36255645751953 9.4754056930542 L -17.33074188232422 9.491650581359863 L -16.869773864746094 9.727211952209473 L -16.62389373779297 9.851605415344238 L -16.384000778198242 9.967548370361328 L -16.15751075744629 10.07701301574707 L -15.9478178024292 10.178790092468262 L -15.931102752685547 10.186437606811523 L -15.477373123168945 10.394043922424316 L -15.031815528869629 10.592428207397461 L -15.010154724121094 10.602581977844238 L -14.988493919372559 10.61205768585205 L -14.528491973876953 10.811213493347168 L -14.524142265319824 10.81309700012207 L -14.502481460571289 10.82189655303955 L -14.267263412475586 10.918503761291504 L -13.798850059509277 11.109389305114746 L -13.56169319152832 11.200827598571777 L -13.066880226135254 11.391035079956055 L -12.568683624267578 11.570413589477539 L -12.289523124694824 11.6708984375 L -11.798771858215332 11.836061477661133 L -11.577770233154297 11.910374641418457 L -11.543925285339355 11.921205520629883 L -11.321308135986328 11.990995407104492 L -10.838680267333984 12.14194393157959 L -10.31618595123291 12.288000106811523 L -10.308147430419922 12.290246963500977 L -9.822134017944336 12.431718826293945 L -9.799796104431152 12.437810897827148 L -9.304186820983887 12.570891380310059 L -9.301990509033203 12.571480751037598 L -9.288061141967773 12.575221061706543 L -8.773618698120117 12.70112419128418 L -8.547124862670898 12.756697654724121 L -8.192000389099121 12.836588859558105 L -8.053665161132812 12.867709159851074 L -7.576767444610596 12.969162940979004 L -7.553752899169922 12.973901748657227 L -7.381965637207031 13.008617401123047 L -7.034572124481201 13.07882022857666 L -6.74281120300293 13.131485939025879 L -6.221599578857422 13.224898338317871 L -5.722048282623291 13.304095268249512 L -5.260659217834473 13.372269630432129 L -5.23696756362915 13.376331329345703 L -4.714789390563965 13.447751998901367 L -4.712371349334717 13.448081970214844 L -4.688680171966553 13.450790405273438 L -4.436014652252197 13.480192184448242 L -4.0960001945495605 13.519600868225098 L -3.933756113052368 13.538405418395996 L -3.426809310913086 13.582024574279785 L -2.923197031021118 13.629406929016113 L -2.875814199447632 13.633468627929688 L -2.5454835891723633 13.657855033874512 L -2.3715250492095947 13.670698165893555 L -2.1175670623779297 13.6842679977417 L -1.5980955362319946 13.711503982543945 L -1.5882326364517212 13.712020874023438 L -1.0825896263122559 13.72758960723877 L -0.661911129951477 13.738251686096191 L -0.6382197141647339 13.73892879486084 L -0.2924063801765442 13.742632865905762 L -0.13257673382759094 13.744343757629395 L -0.02566666714847088 13.74566650390625 L 0 13.74566650390625 L 0.012466666288673878 13.74566650390625 L 0.22259999811649323 13.743267059326172 L 0.7768992781639099 13.737469673156738 L 0.7835999727249146 13.73740005493164 L 1.3570666313171387 13.719799995422363 L 1.567199945449829 13.713399887084961 L 1.777066707611084 13.702199935913086 L 2.0480000972747803 13.687994956970215 L 2.3505332469940186 13.672133445739746 L 2.37841534614563 13.6701078414917 L 2.54373836517334 13.658097267150879 L 2.8997511863708496 13.631814002990723 L 2.904043674468994 13.631497383117676 L 3.048027515411377 13.620867729187012 L 3.083226203918457 13.618160247802734 L 3.417959690093994 13.587141990661621 L 3.933756113052368 13.538405418395996 L 4.0960001945495605 13.519600868225098 L 4.436014652252197 13.480192184448242 L 4.688680171966553 13.450790405273438 L 4.712371349334717 13.448081970214844 L 5.185919284820557 13.383313179016113 L 5.23696756362915 13.376331329345703 L 5.260659217834473 13.372269630432129 L 5.722048282623291 13.304095268249512 L 6.221599578857422 13.224898338317871 L 6.74281120300293 13.131485939025879 L 7.034572124481201 13.07882022857666 L 7.530738353729248 12.978639602661133 L 7.576767444610596 12.969162940979004 L 8.032986640930176 12.872232437133789 L 8.192000389099121 12.83646011352539 L 8.526446342468262 12.761220932006836 L 8.773618698120117 12.70112419128418 L 9.288061141967773 12.575221061706543 L 9.30445384979248 12.570816993713379 L 9.776782035827637 12.443902969360352 L 9.799796104431152 12.437810897827148 L 9.822134017944336 12.431718826293945 L 10.308147430419922 12.290246963500977 L 10.31618595123291 12.288000106811523 L 10.838680267333984 12.14194393157959 L 11.308077812194824 11.995133399963379 L 11.321308135986328 11.990995407104492 L 11.34432315826416 11.983549118041992 L 11.366661071777344 11.976103782653809 L 11.810279846191406 11.831999778747559 L 12.289523124694824 11.6708984375 L 12.568683624267578 11.570413589477539 L 13.066880226135254 11.391035079956055 L 13.56169319152832 11.200827598571777 L 13.719475746154785 11.139992713928223 L 13.798850059509277 11.109389305114746 L 14.267263412475586 10.918503761291504 L 14.502481460571289 10.82189655303955 L 14.524142265319824 10.81309700012207 L 14.988493919372559 10.61205768585205 L 15.010154724121094 10.602581977844238 L 15.031815528869629 10.592428207397461 L 15.477373123168945 10.394043922424316 L 15.931102752685547 10.186437606811523 L 15.9478178024292 10.178790092468262 L 16.15751075744629 10.07701301574707 L 16.384000778198242 9.967548370361328 L 16.62389373779297 9.851605415344238 L 17.095691680908203 9.61063003540039 L 17.116674423217773 9.599800109863281 L 17.562074661254883 9.360854148864746 L 18.050281524658203 9.10560417175293 L 18.302461624145508 8.963655471801758 L 18.47050666809082 8.86906623840332 L 18.491619110107422 8.857182502746582 L 18.511924743652344 8.845675468444824 L 18.5322322845459 8.833491325378418 L 18.936433792114258 8.600534439086914 L 19.37235450744629 8.342636108398438 L 19.615129470825195 8.192000389099121 L 19.821815490722656 8.063754081726074 L 20.073835372924805 7.907372951507568 L 20.479999542236328 7.6437225341796875 L 20.49825096130371 7.631875514984131 L 20.71117401123047 7.492941856384277 L 20.731481552124023 7.480080604553223 L 21.149805068969727 7.195783615112305 L 21.461275100708008 6.980597972869873 L 21.490381240844727 6.960290908813477 L 21.762042999267578 6.767119407653809 L 21.762584686279297 6.766733169555664 L 21.91208839416504 6.660424709320068 L 22.000732421875 6.597266674041748 L 22.451732635498047 6.262866497039795 L 22.61182403564453 6.144000053405762 L 22.615758895874023 6.141078948974609 L 22.620532989501953 6.137533187866211 L 22.65060043334961 6.1140666007995605 L 22.81673240661621 5.98526668548584 L 23.250133514404297 5.649400234222412 L 23.254270553588867 5.646052360534668 L 23.41360092163086 5.5171332359313965 L 23.859466552734375 5.1563334465026855 L 24.007476806640625 5.031148433685303 L 24.281959533691406 4.798967361450195 L 24.283031463623047 4.798060417175293 L 24.393985748291016 4.704206943511963 L 24.440189361572266 4.665111541748047 L 24.46358299255371 4.644717216491699 L 24.466588973999023 4.642096996307373 L 24.576000213623047 4.545628547668457 L 24.641386032104492 4.487977504730225 L 25.029926300048828 4.1454668045043945 L 25.04752540588379 4.1298980712890625 L 25.084545135498047 4.0960001945495605 L 25.235246658325195 3.958008050918579 L 25.607542037963867 3.615497589111328 L 25.80657196044922 3.4251906871795654 L 26.18902015686035 3.058311700820923 L 26.743310928344727 2.5040194988250732 L 27.109514236450195 2.1215717792510986 L 27.225788116455078 1.9999679327011108 L 27.299819946289062 1.9225411415100098 L 27.642332077026367 1.5502471923828125 L 27.81389808654785 1.362848162651062 L 27.830142974853516 1.345248818397522 L 28.17265510559082 0.9573861360549927 L 28.327096939086914 0.7822649478912354 L 28.35011100769043 0.7551890015602112 L 28.50067710876465 0.5771599411964417 L 28.672000885009766 0.37420248985290533 L 28.826942443847656 0.19065104424953466 L 28.98159408569336 4.440892164675075e-17 L 29.00044822692871 -0.023242326453328088 L 29.13694953918457 -0.19146235287189478 L 29.326711654663086 -0.42531988024711603 L 29.32904815673828 -0.4283329546451568 L 29.64417839050293 -0.8348432779312134 L 29.93916893005371 -1.2228885889053345 L 29.953384399414062 -1.2411648035049438 L 30.269495010375977 -1.6662569046020508 L 30.429431915283203 -1.890812635421753 L 30.729297637939453 -2.313197135925293 L 30.749603271484375 -2.34230375289917 L 30.880783081054688 -2.5351955890655518 L 31.165081024169922 -2.9535186290740967 L 31.177942276000977 -2.9731485843658447 L 31.339492797851562 -3.221613883972168 L 31.614990234375 -3.646028995513916 L 31.893770217895508 -4.0960001945495605 L 31.89387321472168 -4.096166610717773 L 32.0007209777832 -4.26950216293335 L 32.027313232421875 -4.3126444816589355 L 32.290626525878906 -4.758720397949219 L 32.40952682495117 -4.959366798400879 L 32.42780303955078 -4.9898271560668945 L 32.43206787109375 -4.997400283813477 L 32.54218292236328 -5.193058013916016 L 32.768001556396484 -5.594717025756836 L 32.7899284362793 -5.633718967437744 L 33.0451774597168 -6.1219258308410645 L 33.2848014831543 -6.568001747131348 L 33.295631408691406 -6.588985443115234 L 33.531620025634766 -7.052326202392578 L 33.53593063354492 -7.060783386230469 L 33.76133728027344 -7.526489734649658 L 33.862789154052734 -7.736505508422852 L 34.0717658996582 -8.192000389099121 L 34.08887481689453 -8.229287147521973 L 34.09767532348633 -8.250947952270508 L 34.296382904052734 -8.696182250976562 L 34.49742126464844 -9.160534858703613 L 34.50621795654297 -9.182195663452148 L 34.60250473022461 -9.417737007141113 L 34.7940673828125 -9.886150360107422 L 34.795562744140625 -9.890015602111816 L 34.831398010253906 -9.982632637023926 L 34.885826110839844 -10.123307228088379 L 34.93058776855469 -10.239999771118164 L 35.07535934448242 -10.617443084716797 L 35.246612548828125 -11.093978881835938 L 35.38651657104492 -11.490748405456543 L 35.39463806152344 -11.512408256530762 L 35.50479507446289 -11.839719772338867 L 35.5049934387207 -11.840303421020508 L 35.505184173583984 -11.840872764587402 L 35.5598030090332 -12.003159523010254 L 35.59426498413086 -12.105600357055664 L 35.60599899291992 -12.142266273498535 L 35.651737213134766 -12.288000106811523 L 35.6689338684082 -12.34280014038086 L 35.830055236816406 -12.856379508972168 L 35.83319854736328 -12.866399765014648 L 35.98939895629883 -13.404666900634766 L 36.048065185546875 -13.60653305053711 L 36.05229568481445 -13.621944427490234 L 36.05833435058594 -13.643933296203613 L 36.11273193359375 -13.846866607666016 L 36.244163513183594 -14.336000442504883 L 36.255001068115234 -14.376333236694336 L 36.30125427246094 -14.564628601074219 L 36.4244499206543 -15.066886901855469 L 36.443511962890625 -15.146369934082031 L 36.55926513671875 -15.663519859313965 L 36.609989166259766 -15.890983581542969 L 36.656192779541016 -16.119739532470703 L 36.709449768066406 -16.384000778198242 L 36.76001739501953 -16.634910583496094 L 36.763145446777344 -16.650428771972656 L 36.815486907958984 -16.942188262939453 L 36.909576416015625 -17.46339988708496 L 36.99418640136719 -17.998149871826172 L 37.03045654296875 -18.226999282836914 L 37.030696868896484 -18.2285213470459 L 37.06236267089844 -18.45953941345215 L 37.13275909423828 -18.972627639770508 L 37.16248321533203 -19.22529411315918 L 37.20012283325195 -19.550243377685547 L 37.22340393066406 -19.751243591308594 L 37.266700744628906 -20.25786781311035 L 37.287601470947266 -20.479999542236328 L 37.314083099365234 -20.7614803314209 L 37.31611633300781 -20.785171508789062 L 37.354698181152344 -21.313152313232422 L 37.36859130859375 -21.567110061645508 L 37.39605712890625 -22.09029197692871 L 37.39634323120117 -22.095767974853516 L 37.40571594238281 -22.39237403869629 L 37.422637939453125 -22.921709060668945 L 37.42805099487305 -23.439537048339844 L 37.43031311035156 -23.672815322875977 L 37.42772674560547 -23.92709732055664 L 37.421634674072266 -24.48012351989746 L 37.41862869262695 -24.576000213623047 L 37.405391693115234 -24.997949600219727 L 37.39634323120117 -25.27323341369629 L 37.36994552612305 -25.7781982421875 L 37.35120391845703 -26.098392486572266 L 37.3363151550293 -26.315000534057617 L 37.33852767944336 -26.315000534057617 L 37.341880798339844 -26.315000534057617 L 40.959999084472656 -26.315000534057617 L 49.152000427246094 -26.315000534057617 L 50 -26.315000534057617 L 50 -16.384000778198242 L 50 4.440892164675075e-17 L 50 26.315000534057617 L 32.768001556396484 26.315000534057617 L 16.384000778198242 26.315000534057617 L 7.519011974334717 26.315000534057617 L 7.516829490661621 26.315000534057617 L 0 26.315000534057617 L -16.384000778198242 26.315000534057617 L -32.768001556396484 26.315000534057617 L -50 26.315000534057617 L -50 4.440892164675075e-17 L -50 -16.384000778198242 L -50 -26.315000534057617 L -49.152000427246094 -26.315000534057617 L -42.70600128173828 -26.315000534057617 L -40.959999084472656 -26.315000534057617 L -37.34056854248047 -26.315000534057617 L -37.3363151550293 -26.315000534057617 L -37.34115982055664 -26.248764038085938 L -37.35537338256836 -26.044340133666992 L -37.369266510009766 -25.790382385253906 L -37.39634323120117 -25.27323341369629 L -37.405391693115234 -24.997949600219727 L -37.41862869262695 -24.576000213623047 L -37.421634674072266 -24.48012351989746 L -37.42772674560547 -23.92709732055664 L -37.43031311035156 -23.672815322875977 L -37.42772674560547 -23.418535232543945 L -37.421634674072266 -22.88920021057129 L -37.405391693115234 -22.371374130249023 L -37.39634323120117 -22.095767974853516 L -37.36859130859375 -21.567110061645508 L -37.354698181152344 -21.313152313232422 L -37.314762115478516 -20.772987365722656 L -37.29795837402344 -20.54067611694336 L -37.2961540222168 -20.52133560180664 L -37.29229736328125 -20.479999542236328 L -37.249900817871094 -20.025556564331055 L -37.22340393066406 -19.751243591308594 L -37.16248321533203 -19.22529411315918 L -37.13275909423828 -18.972627639770508 L -37.06236267089844 -18.45953941345215 L -37.030696868896484 -18.2285213470459 L -37.03045654296875 -18.226999282836914 L -36.99418640136719 -17.998149871826172 L -36.909576416015625 -17.46339988708496 L -36.908447265625 -17.4571533203125 L -36.815486907958984 -16.942188262939453 L -36.763145446777344 -16.650428771972656 L -36.76001739501953 -16.634910583496094 L -36.709449768066406 -16.384000778198242 L -36.656192779541016 -16.119739532470703 L -36.609989166259766 -15.890983581542969 L -36.55441665649414 -15.642841339111328 L -36.43866729736328 -15.125691413879395 L -36.43785858154297 -15.122397422790527 L -36.383094787597656 -14.89919662475586 M -27.208263397216797 10.308048248291016 L -24.576000213623047 8.192000389099121 L -32.768001556396484 8.192000389099121 L -32.768001556396484 14.653220176696777 L -27.208263397216797 10.308048248291016 z" fill="none" stroke="rgb(0,0,255)" stroke-width="0.01mm" />
</svg>